<?xml version="1.0" encoding="utf-8"?>
<!-- Generator: Adobe Illustrator 17.1.0, SVG Export Plug-In . SVG Version: 6.00 Build 0)  -->
<!DOCTYPE svg PUBLIC "-//W3C//DTD SVG 1.1//EN" "http://www.w3.org/Graphics/SVG/1.1/DTD/svg11.dtd">
<svg version="1.1" id="Layer_1" xmlns="http://www.w3.org/2000/svg" xmlns:xlink="http://www.w3.org/1999/xlink" x="0px" y="0px"
	 viewBox="0 0 100 100" enable-background="new 0 0 100 100" xml:space="preserve">
<pattern  y="100" width="2.3" height="2.3" patternUnits="userSpaceOnUse" id="SVGID_1" viewBox="4.4 -6.7 2.3 2.3" overflow="visible">
	<g>
		<polygon fill="none" points="4.4,-6.7 6.7,-6.7 6.7,-4.4 4.4,-4.4 		"/>
		<g>
			<polygon fill="none" points="4.6,0 11.1,0 11.1,-6.5 4.6,-6.5 			"/>
			<g>
				<polygon fill="none" points="11.1,-6.5 4.6,-6.5 4.6,0 11.1,0 				"/>
			</g>
		</g>
		<g>
			<polygon fill="none" points="2.3,0 8.8,0 8.8,-6.5 2.3,-6.5 			"/>
			<g>
				<polygon fill="none" points="8.8,-6.5 2.3,-6.5 2.3,0 8.8,0 				"/>
			</g>
		</g>
		<g>
			<polygon fill="none" points="0,0 6.5,0 6.5,-6.5 0,-6.5 			"/>
			<g>
				<polygon fill="none" points="6.5,-6.5 0,-6.5 0,0 6.5,0 				"/>
			</g>
		</g>
		<g>
			<polygon fill="none" points="4.6,-2.3 11.1,-2.3 11.1,-8.8 4.6,-8.8 			"/>
			<g>
				<polygon fill="none" points="11.1,-8.8 4.6,-8.8 4.6,-2.3 11.1,-2.3 				"/>
			</g>
		</g>
		<g>
			<polygon fill="none" points="2.3,-2.3 8.8,-2.3 8.8,-8.8 2.3,-8.8 			"/>
			<g>
				<polygon fill="none" points="8.8,-8.8 2.3,-8.8 2.3,-2.3 8.8,-2.3 				"/>
				<path fill="#010101" d="M6-5.4C6-5.7,5.7-6,5.4-6c0,0-0.3,0.3-0.3,0.6c0,0.3,0.3,0.6,0.6,0.6C6-4.8,6-5.1,6-5.4z"/>
			</g>
		</g>
		<g>
			<polygon fill="none" points="0,-2.3 6.5,-2.3 6.5,-8.8 0,-8.8 			"/>
			<g>
				<polygon fill="none" points="6.5,-8.8 0,-8.8 0,-2.3 6.5,-2.3 				"/>
			</g>
		</g>
		<g>
			<polygon fill="none" points="4.6,-4.6 11.1,-4.6 11.1,-11.1 4.6,-11.1 			"/>
			<g>
				<polygon fill="none" points="11.1,-11.1 4.6,-11.1 4.6,-4.6 11.1,-4.6 				"/>
			</g>
		</g>
		<g>
			<polygon fill="none" points="2.3,-4.6 8.8,-4.6 8.8,-11.1 2.3,-11.1 			"/>
			<g>
				<polygon fill="none" points="8.8,-11.1 2.3,-11.1 2.3,-4.6 8.8,-4.6 				"/>
			</g>
		</g>
		<g>
			<polygon fill="none" points="0,-4.6 6.5,-4.6 6.5,-11.1 0,-11.1 			"/>
			<g>
				<polygon fill="none" points="6.5,-11.1 0,-11.1 0,-4.6 6.5,-4.6 				"/>
			</g>
		</g>
	</g>
</pattern>
<pattern  y="100" width="2.3" height="2.3" patternUnits="userSpaceOnUse" id="SVGID_10" viewBox="4.3 -6.6 2.3 2.3" overflow="visible">
	<g>
		<polygon fill="none" points="4.3,-6.6 6.6,-6.6 6.6,-4.3 4.3,-4.3 		"/>
		<g>
			<polygon fill="none" points="4.6,0 10.9,0 10.9,-6.3 4.6,-6.3 			"/>
			<g>
				<polygon fill="none" points="10.9,-6.3 4.6,-6.3 4.6,0 10.9,0 				"/>
			</g>
		</g>
		<g>
			<polygon fill="none" points="2.3,0 8.6,0 8.6,-6.3 2.3,-6.3 			"/>
			<g>
				<polygon fill="none" points="8.6,-6.3 2.3,-6.3 2.3,0 8.6,0 				"/>
			</g>
		</g>
		<g>
			<polygon fill="none" points="0,0 6.3,0 6.3,-6.3 0,-6.3 			"/>
			<g>
				<polygon fill="none" points="6.3,-6.3 0,-6.3 0,0 6.3,0 				"/>
			</g>
		</g>
		<g>
			<polygon fill="none" points="4.6,-2.3 10.9,-2.3 10.9,-8.6 4.6,-8.6 			"/>
			<g>
				<polygon fill="none" points="10.9,-8.6 4.6,-8.6 4.6,-2.3 10.9,-2.3 				"/>
			</g>
		</g>
		<g>
			<polygon fill="none" points="2.3,-2.3 8.6,-2.3 8.6,-8.6 2.3,-8.6 			"/>
			<g>
				<polygon fill="none" points="8.6,-8.6 2.3,-8.6 2.3,-2.3 8.6,-2.3 				"/>
				<path fill="#010101" d="M5.9-5.3c0-0.3-0.3-0.6-0.6-0.6c0,0-0.3,0.3-0.3,0.6s0.3,0.6,0.6,0.6S5.9-5.1,5.9-5.3z"/>
			</g>
		</g>
		<g>
			<polygon fill="none" points="0,-2.3 6.3,-2.3 6.3,-8.6 0,-8.6 			"/>
			<g>
				<polygon fill="none" points="6.3,-8.6 0,-8.6 0,-2.3 6.3,-2.3 				"/>
			</g>
		</g>
		<g>
			<polygon fill="none" points="4.6,-4.6 10.9,-4.6 10.9,-10.9 4.6,-10.9 			"/>
			<g>
				<polygon fill="none" points="10.9,-10.9 4.6,-10.9 4.6,-4.6 10.9,-4.6 				"/>
			</g>
		</g>
		<g>
			<polygon fill="none" points="2.3,-4.6 8.6,-4.6 8.6,-10.9 2.3,-10.9 			"/>
			<g>
				<polygon fill="none" points="8.6,-10.9 2.3,-10.9 2.3,-4.6 8.6,-4.6 				"/>
			</g>
		</g>
		<g>
			<polygon fill="none" points="0,-4.6 6.3,-4.6 6.3,-10.9 0,-10.9 			"/>
			<g>
				<polygon fill="none" points="6.3,-10.9 0,-10.9 0,-4.6 6.3,-4.6 				"/>
			</g>
		</g>
	</g>
</pattern>
<pattern  y="100" width="2.3" height="2.3" patternUnits="userSpaceOnUse" id="SVGID_7" viewBox="4.2 -6.5 2.3 2.3" overflow="visible">
	<g>
		<polygon fill="none" points="4.2,-6.5 6.5,-6.5 6.5,-4.2 4.2,-4.2 		"/>
		<g>
			<polygon fill="none" points="4.6,0 10.8,0 10.8,-6.2 4.6,-6.2 			"/>
			<g>
				<polygon fill="none" points="10.8,-6.2 4.6,-6.2 4.6,0 10.8,0 				"/>
			</g>
		</g>
		<g>
			<polygon fill="none" points="2.3,0 8.5,0 8.5,-6.2 2.3,-6.2 			"/>
			<g>
				<polygon fill="none" points="8.5,-6.2 2.3,-6.2 2.3,0 8.5,0 				"/>
			</g>
		</g>
		<g>
			<polygon fill="none" points="0,0 6.2,0 6.2,-6.2 0,-6.2 			"/>
			<g>
				<polygon fill="none" points="6.2,-6.2 0,-6.2 0,0 6.2,0 				"/>
			</g>
		</g>
		<g>
			<polygon fill="none" points="4.6,-2.3 10.8,-2.3 10.8,-8.5 4.6,-8.5 			"/>
			<g>
				<polygon fill="none" points="10.8,-8.5 4.6,-8.5 4.6,-2.3 10.8,-2.3 				"/>
			</g>
		</g>
		<g>
			<polygon fill="none" points="2.3,-2.3 8.5,-2.3 8.5,-8.5 2.3,-8.5 			"/>
			<g>
				<polygon fill="none" points="8.5,-8.5 2.3,-8.5 2.3,-2.3 8.5,-2.3 				"/>
				<path fill="#010101" d="M5.8-5.3c0-0.3-0.3-0.5-0.5-0.5c0,0-0.3,0.3-0.3,0.5C5-5,5.3-4.7,5.5-4.7C5.8-4.7,5.8-5,5.8-5.3z"/>
			</g>
		</g>
		<g>
			<polygon fill="none" points="0,-2.3 6.2,-2.3 6.2,-8.5 0,-8.5 			"/>
			<g>
				<polygon fill="none" points="6.2,-8.5 0,-8.5 0,-2.3 6.2,-2.3 				"/>
			</g>
		</g>
		<g>
			<polygon fill="none" points="4.6,-4.6 10.8,-4.6 10.8,-10.8 4.6,-10.8 			"/>
			<g>
				<polygon fill="none" points="10.8,-10.8 4.6,-10.8 4.6,-4.6 10.8,-4.6 				"/>
			</g>
		</g>
		<g>
			<polygon fill="none" points="2.3,-4.6 8.5,-4.6 8.5,-10.8 2.3,-10.8 			"/>
			<g>
				<polygon fill="none" points="8.5,-10.8 2.3,-10.8 2.3,-4.6 8.5,-4.6 				"/>
			</g>
		</g>
		<g>
			<polygon fill="none" points="0,-4.6 6.2,-4.6 6.2,-10.8 0,-10.8 			"/>
			<g>
				<polygon fill="none" points="6.2,-10.8 0,-10.8 0,-4.6 6.2,-4.6 				"/>
			</g>
		</g>
	</g>
</pattern>
<pattern  y="100" width="2.3" height="2.3" patternUnits="userSpaceOnUse" id="SVGID_8" viewBox="4.1 -6.4 2.3 2.3" overflow="visible">
	<g>
		<polygon fill="none" points="4.1,-6.4 6.4,-6.4 6.4,-4.1 4.1,-4.1 		"/>
		<g>
			<polygon fill="none" points="4.6,0 10.5,0 10.5,-5.9 4.6,-5.9 			"/>
			<g>
				<polygon fill="none" points="10.5,-5.9 4.6,-5.9 4.6,0 10.5,0 				"/>
			</g>
		</g>
		<g>
			<polygon fill="none" points="2.3,0 8.2,0 8.2,-5.9 2.3,-5.9 			"/>
			<g>
				<polygon fill="none" points="8.2,-5.9 2.3,-5.9 2.3,0 8.2,0 				"/>
			</g>
		</g>
		<g>
			<polygon fill="none" points="0,0 5.9,0 5.9,-5.9 0,-5.9 			"/>
			<g>
				<polygon fill="none" points="5.9,-5.9 0,-5.9 0,0 5.9,0 				"/>
			</g>
		</g>
		<g>
			<polygon fill="none" points="4.6,-2.3 10.5,-2.3 10.5,-8.2 4.6,-8.2 			"/>
			<g>
				<polygon fill="none" points="10.5,-8.2 4.6,-8.2 4.6,-2.3 10.5,-2.3 				"/>
			</g>
		</g>
		<g>
			<polygon fill="none" points="2.3,-2.3 8.2,-2.3 8.2,-8.2 2.3,-8.2 			"/>
			<g>
				<polygon fill="none" points="8.2,-8.2 2.3,-8.2 2.3,-2.3 8.2,-2.3 				"/>
				<path fill="#010101" d="M5.6-5.1c0-0.3-0.3-0.5-0.5-0.5c0,0-0.3,0.3-0.3,0.5s0.3,0.5,0.5,0.5S5.6-4.9,5.6-5.1z"/>
			</g>
		</g>
		<g>
			<polygon fill="none" points="0,-2.3 5.9,-2.3 5.9,-8.2 0,-8.2 			"/>
			<g>
				<polygon fill="none" points="5.9,-8.2 0,-8.2 0,-2.3 5.9,-2.3 				"/>
			</g>
		</g>
		<g>
			<polygon fill="none" points="4.6,-4.6 10.5,-4.6 10.5,-10.5 4.6,-10.5 			"/>
			<g>
				<polygon fill="none" points="10.5,-10.5 4.6,-10.5 4.6,-4.6 10.5,-4.6 				"/>
			</g>
		</g>
		<g>
			<polygon fill="none" points="2.3,-4.6 8.2,-4.6 8.2,-10.5 2.3,-10.5 			"/>
			<g>
				<polygon fill="none" points="8.2,-10.5 2.3,-10.5 2.3,-4.6 8.2,-4.6 				"/>
			</g>
		</g>
		<g>
			<polygon fill="none" points="0,-4.6 5.9,-4.6 5.9,-10.5 0,-10.5 			"/>
			<g>
				<polygon fill="none" points="5.9,-10.5 0,-10.5 0,-4.6 5.9,-4.6 				"/>
			</g>
		</g>
	</g>
</pattern>
<pattern  y="100" width="2.3" height="2.3" patternUnits="userSpaceOnUse" id="SVGID_9" viewBox="4.2 -6.5 2.3 2.3" overflow="visible">
	<g>
		<polygon fill="none" points="4.2,-6.5 6.5,-6.5 6.5,-4.2 4.2,-4.2 		"/>
		<g>
			<polygon fill="none" points="4.6,0 10.8,0 10.8,-6.2 4.6,-6.2 			"/>
			<g>
				<polygon fill="none" points="10.8,-6.2 4.6,-6.2 4.6,0 10.8,0 				"/>
			</g>
		</g>
		<g>
			<polygon fill="none" points="2.3,0 8.5,0 8.5,-6.2 2.3,-6.2 			"/>
			<g>
				<polygon fill="none" points="8.5,-6.2 2.3,-6.2 2.3,0 8.5,0 				"/>
			</g>
		</g>
		<g>
			<polygon fill="none" points="0,0 6.2,0 6.2,-6.2 0,-6.2 			"/>
			<g>
				<polygon fill="none" points="6.2,-6.2 0,-6.2 0,0 6.2,0 				"/>
			</g>
		</g>
		<g>
			<polygon fill="none" points="4.6,-2.3 10.8,-2.3 10.8,-8.5 4.6,-8.5 			"/>
			<g>
				<polygon fill="none" points="10.8,-8.5 4.6,-8.5 4.6,-2.3 10.8,-2.3 				"/>
			</g>
		</g>
		<g>
			<polygon fill="none" points="2.3,-2.3 8.5,-2.3 8.5,-8.5 2.3,-8.5 			"/>
			<g>
				<polygon fill="none" points="8.5,-8.5 2.3,-8.5 2.3,-2.3 8.5,-2.3 				"/>
				<path fill="#010101" d="M5.8-5.3c0-0.3-0.3-0.5-0.5-0.5c0,0-0.3,0.3-0.3,0.5C5-5,5.3-4.7,5.5-4.7C5.8-4.7,5.8-5,5.8-5.3z"/>
			</g>
		</g>
		<g>
			<polygon fill="none" points="0,-2.3 6.2,-2.3 6.2,-8.5 0,-8.5 			"/>
			<g>
				<polygon fill="none" points="6.2,-8.5 0,-8.5 0,-2.3 6.2,-2.3 				"/>
			</g>
		</g>
		<g>
			<polygon fill="none" points="4.6,-4.6 10.8,-4.6 10.8,-10.8 4.6,-10.8 			"/>
			<g>
				<polygon fill="none" points="10.8,-10.8 4.6,-10.8 4.6,-4.6 10.8,-4.6 				"/>
			</g>
		</g>
		<g>
			<polygon fill="none" points="2.3,-4.6 8.5,-4.6 8.5,-10.8 2.3,-10.8 			"/>
			<g>
				<polygon fill="none" points="8.5,-10.8 2.3,-10.8 2.3,-4.6 8.5,-4.6 				"/>
			</g>
		</g>
		<g>
			<polygon fill="none" points="0,-4.6 6.2,-4.6 6.2,-10.8 0,-10.8 			"/>
			<g>
				<polygon fill="none" points="6.2,-10.8 0,-10.8 0,-4.6 6.2,-4.6 				"/>
			</g>
		</g>
	</g>
</pattern>
<g id="legs">
	<path fill="#FFFFFF" stroke="#010101" stroke-miterlimit="10" d="M54.2,41.3l5.5-4.4c0,0-0.8,0.1-1.2,0.2c0,0,4-6.4,2-9.9
		c0,0,0.5,5-2.1,8.9c0,0,0.8-2.4,0.2-2.7c0,0,0.1,2.3-1.8,4.6l-2.4,1.7L54.2,41.3z"/>
	<path fill="#FFFFFF" stroke="#010101" stroke-miterlimit="10" d="M52.2,42.5c0,0,2.8-0.2,2.8-1.3c0-0.6-0.1-1-0.4-1.4
		c-0.3-0.3-0.7-0.5-1.3-0.5C53.2,39.4,51.8,42,52.2,42.5z"/>
	<path fill="#FFFFFF" stroke="#010101" stroke-miterlimit="10" d="M59.3,52c0,0,3.2,7.1,3.4,12s0.2,9.3-1,9.7c0,0,1-4.4,0.4-5.9
		c0,0-0.4,0-0.3,1.2c0,0-0.7-1.3-0.1-2.8c0,0-0.3-8.4-4.2-13.2L59.3,52z"/>
	<path fill="#FFFFFF" stroke="#010101" stroke-miterlimit="10" d="M52.5,48.8c0,0,4.4,0.4,5.9,1.7c0,0,2.7,2.9-0.8,2.6
		c-3.5-0.3-3.5-0.3-3.5-0.3S54,50.1,52.5,48.8z"/>
	<path fill="#FFFFFF" stroke="#010101" stroke-miterlimit="10" d="M56,67.6c0,0,4.9,6.3,5.3,7.7c0,0-1.6,0.8-3,0.3l-2.3-3V67.6z"/>
	<path fill="#FFFFFF" stroke="#010101" stroke-miterlimit="10" d="M60.5,75.6c0,0-0.8,18.1,0.4,20.6c0,0-2.1-1.6-1.5-6.9
		c0,0-0.7,0.9-0.8,2c0,0-0.3-2.2,1.1-3.8l-0.5-11.6L60.5,75.6z"/>
	<path fill="#FFFFFF" stroke="#010101" stroke-miterlimit="10" d="M38.7,41.3l-5.5-4.4c0,0,0.8,0.1,1.2,0.2c0,0-4-6.4-2-9.9
		c0,0-0.5,5,2.1,8.9c0,0-0.8-2.4-0.2-2.7c0,0-0.1,2.3,1.8,4.6l2.4,1.7L38.7,41.3z"/>
	<path fill="#FFFFFF" stroke="#010101" stroke-miterlimit="10" d="M40.8,42.5c0,0-2.8-0.2-2.8-1.3c0-0.6,0.1-1,0.4-1.4
		c0.3-0.3,0.7-0.5,1.3-0.5C39.7,39.4,41.2,42,40.8,42.5z"/>
	<path fill="#FFFFFF" stroke="#010101" stroke-miterlimit="10" d="M33.7,52c0,0-3.2,7.1-3.4,12s-0.2,9.3,1,9.7c0,0-1-4.4-0.4-5.9
		c0,0,0.4,0,0.3,1.2c0,0,0.7-1.3,0.1-2.8c0,0,0.3-8.4,4.2-13.2L33.7,52z"/>
	<path fill="#FFFFFF" stroke="#010101" stroke-miterlimit="10" d="M40.5,48.8c0,0-4.4,0.4-5.9,1.7c0,0-2.7,2.9,0.8,2.6
		c3.5-0.3,3.5-0.3,3.5-0.3S38.9,50.1,40.5,48.8z"/>
	<path fill="#FFFFFF" stroke="#010101" stroke-miterlimit="10" d="M36.9,67.6c0,0-4.9,6.3-5.3,7.7c0,0,1.6,0.8,3,0.3l2.3-3V67.6z"/>
	<path fill="#FFFFFF" stroke="#010101" stroke-miterlimit="10" d="M32.5,75.6c0,0,0.8,18.1-0.4,20.6c0,0,2.1-1.6,1.5-6.9
		c0,0,0.7,0.9,0.8,2c0,0,0.3-2.2-1.1-3.8l0.5-11.6L32.5,75.6z"/>
</g>
<g id="basebody">
	<path fill="#FFFFFF" stroke="#000000" stroke-miterlimit="10" d="M54.8,87.7c2.6-0.7,1.9-4,1.9-4l0.8-5.5c2.6-4.5-0.6-7.6-0.6-7.6
		L55.8,64c2.9-3.7-0.5-6.8-0.5-6.8l-1-6.6c2.8-3.4-1.1-5-1.1-5l-0.9-6.2c2.5-4-1.3-5.1-1.3-5.1c-3.9,2.8-9.2,0-9.2,0
		s-3.8,1.1-1.3,5.1l-0.8,6.2c0,0-3.8,1.5-1.1,5l-1,6.6c0,0-3.5,3.2-0.5,6.8L36,70.6c0,0-3.2,3.1-0.6,7.6l0.8,5.5c0,0-0.7,3.3,1.9,4
		l2.7,4.8"/>
	<path fill="#FFFFFF" stroke="#000000" stroke-miterlimit="10" d="M40.8,92.2c0,0,0.9,4.8,5.5,5.2h0.2c4.6-0.3,5.5-5.2,5.5-5.2
		l2.8-4.7"/>
	<path fill="#FFFFFF" stroke="#000000" stroke-miterlimit="10" d="M56.7,83.7c-11,2-20.5,0-20.5,0l-0.8-5.5c0,0,11.7,3.2,22.1,0
		L56.7,83.7z"/>
	<path fill="#FFFFFF" stroke="#000000" stroke-miterlimit="10" d="M57,70.6c-10,2.7-21,0-21,0l1.2-6.6c0,0,8.5,2.5,18.6,0L57,70.6z"
		/>
	<path fill="#FFFFFF" stroke="#000000" stroke-miterlimit="10" d="M55.3,57.1c-8.9,2.5-17.6,0-17.6,0l1-6.6c0,0,8.1,1.9,15.6,0
		L55.3,57.1z"/>
	<path fill="#FFFFFF" stroke="#000000" stroke-miterlimit="10" d="M53.2,45.6c-6.9,1.1-13.4,0-13.4,0l0.8-6.2c0,0,6.1,1.2,11.8,0
		L53.2,45.6z"/>
	<path fill="#FFFFFF" stroke="#000000" stroke-miterlimit="10" d="M54.9,87.5c-9.9,2.8-16.8,0-16.8,0L41,92c0,0,4.9,2.2,10.9,0
		L54.9,87.5z"/>
	<path fill="#FFFFFF" stroke="#000000" stroke-miterlimit="10" d="M45.6,37.1c0,0-3.3-1.6-5-1.1c0,0-1.3-6,1.9-7.1
		c0,0,0.6,0.6,1.7,0.6c1.2,0,5.5,0,5.5,0s0.8-0.2,0.9-0.4c0,0,2.9,1.8,1.7,6.9c0,0-1.8-0.1-4.4,1l-1.4,0.9L45.6,37.1z"/>
	<path fill="#FFFFFF" stroke="#000000" stroke-miterlimit="10" d="M41.3,29.4c0,0,5.8-5.3,10.8,0.2c0,0-0.5,0.5-2.2,0.5
		s-7.1,0-7.1,0S41.6,30.1,41.3,29.4z"/>
</g>
<g id="bodycolor">
	<path fill="#6CBE45" stroke="#010101" stroke-miterlimit="10" d="M54.8,87.7c2.6-0.7,1.9-4,1.9-4l0.8-5.5c2.6-4.5-0.6-7.6-0.6-7.6
		L55.8,64c2.9-3.7-0.5-6.8-0.5-6.8l-1-6.6c2.8-3.4-1.1-5-1.1-5l-0.9-6.2c2.5-4-1.3-5.1-1.3-5.1c-3.9,2.8-9.2,0-9.2,0
		s-3.8,1.1-1.3,5.1l-0.8,6.2c0,0-3.8,1.5-1.1,5l-1,6.6c0,0-3.5,3.2-0.5,6.8L36,70.6c0,0-3.2,3.1-0.6,7.6l0.8,5.5c0,0-0.7,3.3,1.9,4
		l2.7,4.8"/>
	<path fill="#6CBE45" stroke="#010101" stroke-miterlimit="10" d="M40.8,92.2c0,0,0.9,4.8,5.5,5.2h0.2c4.6-0.3,5.5-5.2,5.5-5.2
		l2.8-4.7"/>
	<path fill="#D0DD28" stroke="#010101" stroke-miterlimit="10" d="M56.7,83.7c-11,2-20.5,0-20.5,0l-0.8-5.5c0,0,11.7,3.2,22.1,0
		L56.7,83.7z"/>
	<path fill="#D0DD28" stroke="#010101" stroke-miterlimit="10" d="M57,70.6c-10,2.7-21,0-21,0l1.2-6.6c0,0,8.5,2.5,18.6,0L57,70.6z"
		/>
	<path fill="#D0DD28" stroke="#010101" stroke-miterlimit="10" d="M55.3,57.2c-8.9,2.5-17.6,0-17.6,0l1-6.6c0,0,8.1,1.9,15.6,0
		L55.3,57.2z"/>
	<path fill="#D0DD28" stroke="#010101" stroke-miterlimit="10" d="M53.2,45.6c-6.9,1.1-13.4,0-13.4,0l0.8-6.2c0,0,6.1,1.2,11.8,0
		L53.2,45.6z"/>
	<path fill="#D0DD28" stroke="#010101" stroke-miterlimit="10" d="M54.9,87.6c-9.9,2.8-16.8,0-16.8,0L41,92c0,0,4.9,2.2,10.9,0
		L54.9,87.6z"/>
	<path fill="#D0DD28" stroke="#010101" stroke-miterlimit="10" d="M45.6,37.1c0,0-3.3-1.6-5-1.1c0,0-1.3-6,1.9-7.1
		c0,0,0.6,0.6,1.7,0.6c1.2,0,5.5,0,5.5,0s0.8-0.2,0.9-0.4c0,0,2.9,1.8,1.7,6.9c0,0-1.8-0.1-4.4,1l-1.4,0.9L45.6,37.1z"/>
	<g>
		<g>
			<path fill="none" stroke="#010101" stroke-miterlimit="10" d="M49.8,29.3"/>
		</g>
	</g>
	<path fill="#6CBE45" stroke="#010101" stroke-miterlimit="10" d="M41.3,29.5c0,0,5.8-5.3,10.8,0.2c0,0-0.5,0.5-2.2,0.5
		s-7.1,0-7.1,0S41.6,30.1,41.3,29.5z"/>
</g>
<g id="eyes">
	<path fill="#FF9900" stroke="#010101" stroke-width="0.5" stroke-miterlimit="10" d="M41.6,30.1c0,0,1.9-4.5,3.4-2.4
		c0,0-0.4,5.7-3.6,3.1L41.6,30.1z"/>
	<path fill="#FF9900" stroke="#010101" stroke-width="0.5" stroke-miterlimit="10" d="M51.7,30.1c0,0-2-4.9-3.6-2.6
		c0,0,0.4,6,3.8,3.2L51.7,30.1z"/>
</g>
<g id="antennae">
	<path fill="none" stroke="#010101" stroke-miterlimit="10" d="M48.1,27.1c0,0,9.3-13.6,17.8-1.6"/>
	<path fill="none" stroke="#010101" stroke-miterlimit="10" d="M44.9,27.1c0,0-9.3-13.6-17.8-1.6"/>
</g>
<g id="markings">
	<path fill="#010101" d="M43.3,43.6c0,0-4.4,7.5,0,21.3C43.3,64.9,48,51.2,43.3,43.6z"/>
	<path fill="#010101" d="M50.4,67.8c0,0-4.4,7.5,0,21.3C50.4,89.1,55.1,75.4,50.4,67.8z"/>
</g>
<g id="dots">
	<pattern  id="SVGID_1_" xlink:href="#SVGID_1" patternTransform="matrix(0.2677 0 0 -0.2677 -17920.0352 -14725.75)">
	</pattern>
	<path fill="url(#SVGID_1_)" stroke="#010101" stroke-miterlimit="10" d="M56.6,83.9c-11,2-20.5,0-20.5,0l-0.8-5.5
		c0,0,11.7,3.2,22.1,0L56.6,83.9z"/>
	<pattern  id="SVGID_2_" xlink:href="#SVGID_7" patternTransform="matrix(0.2677 0 0 -0.2677 -17920.1406 -14725.5674)">
	</pattern>
	<path fill="url(#SVGID_2_)" stroke="#010101" stroke-miterlimit="10" d="M56.9,70.8c-10,2.7-21,0-21,0l1.2-6.6c0,0,8.5,2.5,18.6,0
		L56.9,70.8z"/>
	<pattern  id="SVGID_3_" xlink:href="#SVGID_8" patternTransform="matrix(0.2677 0 0 -0.2677 -17920.2461 -14725.3857)">
	</pattern>
	<path fill="url(#SVGID_3_)" stroke="#010101" stroke-miterlimit="10" d="M55.2,57.3c-8.9,2.5-17.6,0-17.6,0l1-6.6
		c0,0,8.1,1.9,15.6,0L55.2,57.3z"/>
	<pattern  id="SVGID_4_" xlink:href="#SVGID_9" patternTransform="matrix(0.2677 0 0 -0.2677 -17921.4238 -14725.2344)">
	</pattern>
	<path fill="url(#SVGID_4_)" stroke="#010101" stroke-miterlimit="10" d="M53.2,45.8c-6.9,1.1-13.4,0-13.4,0l0.8-6.2
		c0,0,6.1,1.2,11.8,0L53.2,45.8z"/>
	<pattern  id="SVGID_5_" xlink:href="#SVGID_10" patternTransform="matrix(0.2677 0 0 -0.2677 -17920.0879 -14725.6592)">
	</pattern>
	<path fill="url(#SVGID_5_)" stroke="#010101" stroke-miterlimit="10" d="M55,87.7c-9.9,2.8-16.8,0-16.8,0l2.9,4.5
		c0,0,4.9,2.2,10.9,0L55,87.7z"/>
</g>
<g id="fur">
	<g>
		<g>
			<path fill="#FC8300" stroke="#0000FF" stroke-miterlimit="10" d="M48.5,24.4"/>
		</g>
	</g>
	<g>
		<g>
			<path fill="#FC8300" stroke="#0000FF" stroke-miterlimit="10" d="M-0.5,94.5"/>
		</g>
	</g>
	<g>
		<g>
			<path fill="#FC8300" stroke="#0000FF" stroke-miterlimit="10" d="M55.9,83.5"/>
		</g>
	</g>
	<g>
		<g>
			<g>
				<g>
					<path fill="#FC8300" stroke="#0000FF" stroke-miterlimit="10" d="M54.4,35.3c0,0-0.2,0.3-0.5,0.5c-0.1,0.1-0.3,0.2-0.4,0.3
						c-0.1,0.1-0.2,0.1-0.2,0.1s0.1,0,0.2,0.1s0.3,0.1,0.4,0.2s0.3,0.2,0.4,0.3c0.1,0.1,0.2,0.1,0.2,0.1"/>
				</g>
				<g>
					<path fill="#FC8300" stroke="#0000FF" stroke-miterlimit="10" d="M54.6,37.2c0,0-0.3,0.1-0.6,0.2s-0.6,0.1-0.6,0.1
						s0.1,0.1,0.2,0.2c0.1,0.1,0.2,0.2,0.3,0.3s0.2,0.3,0.3,0.4c0.1,0.1,0.1,0.2,0.1,0.2"/>
				</g>
				<g>
					<path fill="#FC8300" stroke="#0000FF" stroke-miterlimit="10" d="M54,38.8c0,0-0.1,0-0.2,0c-0.1,0-0.3,0-0.5,0
						c-0.3,0-0.7-0.1-0.7,0c0,0,0,0.1,0.1,0.2c0,0.1,0.1,0.1,0.1,0.2c0.1,0.1,0.2,0.1,0.2,0.2c0.1,0.1,0.2,0.1,0.2,0.1
						s0.1,0.1,0.2,0.1c0.1,0.1,0.2,0.1,0.2,0.1"/>
				</g>
				<g>
					<polyline fill="#FC8300" stroke="#0000FF" stroke-miterlimit="10" points="53.9,39.9 52.7,40.6 54,41.2 					"/>
				</g>
				<g>
					<polyline fill="#FC8300" stroke="#0000FF" stroke-miterlimit="10" points="54.1,41.4 52.9,42.1 54.2,42.7 					"/>
				</g>
				<g>
					<polyline fill="#FC8300" stroke="#0000FF" stroke-miterlimit="10" points="54.3,43 53.2,43.7 54.4,44.3 					"/>
				</g>
				<g>
					<path fill="#FC8300" stroke="#0000FF" stroke-miterlimit="10" d="M54.6,44.5c0,0,0,0.3-0.1,0.7c0,0.2-0.1,0.3-0.1,0.4
						c0,0.1-0.1,0.2-0.1,0.2s0.3-0.1,0.7-0.2s0.7-0.1,0.7-0.1"/>
				</g>
				<g>
					<path fill="#FC8300" stroke="#0000FF" stroke-miterlimit="10" d="M55.9,45.7c0,0-0.1,0.3-0.3,0.6s-0.4,0.5-0.4,0.5
						s0.3,0,0.7,0.1c0.2,0,0.3,0.1,0.5,0.1c0.1,0,0.1,0.1,0.2,0.1h0.1"/>
				</g>
				<g>
					<path fill="#FC8300" stroke="#0000FF" stroke-miterlimit="10" d="M56.6,47.4c0,0-0.1,0.1-0.2,0.1c-0.1,0.1-0.2,0.2-0.4,0.2
						c-0.1,0.1-0.3,0.2-0.4,0.2C55.5,48,55.5,48,55.5,48s0.3,0.2,0.6,0.4s0.5,0.5,0.5,0.5"/>
				</g>
				<g>
					<path fill="#FC8300" stroke="#0000FF" stroke-miterlimit="10" d="M56.5,49.2c0,0-0.3,0.1-0.7,0.1s-0.7,0-0.7,0s0.1,0.1,0.1,0.2
						s0.2,0.2,0.2,0.4s0.2,0.3,0.2,0.4c0.1,0.1,0.1,0.2,0.1,0.2"/>
				</g>
				<g>
					<polyline fill="#FC8300" stroke="#0000FF" stroke-miterlimit="10" points="55.8,50.8 54.6,51.5 55.9,52 					"/>
				</g>
				<g>
					<polyline fill="#FC8300" stroke="#0000FF" stroke-miterlimit="10" points="56,52.3 54.9,53 56.2,53.5 					"/>
				</g>
				<g>
					<polyline fill="#FC8300" stroke="#0000FF" stroke-miterlimit="10" points="56.2,53.8 55.1,54.5 56.4,55 					"/>
				</g>
				<g>
					<path fill="#FC8300" stroke="#0000FF" stroke-miterlimit="10" d="M56.4,55.3L55.3,56c0,0,0.3,0.1,0.6,0.3
						c0.2,0.1,0.3,0.1,0.4,0c0.1,0,0.2-0.1,0.2-0.1"/>
				</g>
				<g>
					<path fill="#FC8300" stroke="#0000FF" stroke-miterlimit="10" d="M56.7,56.3c0,0-0.1,0.3-0.3,0.6c-0.1,0.3-0.3,0.6-0.3,0.6
						s0.1,0,0.2,0c0.1,0,0.3,0,0.5,0c0.3,0,0.7,0,0.7,0"/>
				</g>
				<g>
					<path fill="#FC8300" stroke="#0000FF" stroke-miterlimit="10" d="M57.6,57.7c0,0-0.1,0.1-0.1,0.2c-0.1,0.1-0.2,0.2-0.3,0.3
						c-0.2,0.3-0.5,0.5-0.5,0.5s0.1,0,0.2,0s0.3,0.1,0.5,0.1s0.3,0.1,0.5,0.1s0.2,0.1,0.2,0.1"/>
				</g>
				<g>
					<path fill="#FC8300" stroke="#0000FF" stroke-miterlimit="10" d="M58.2,59.3c0,0-0.2,0.2-0.5,0.4S57.1,60,57.1,60
						s0.1,0,0.2,0.1s0.3,0.1,0.4,0.2c0.2,0.1,0.3,0.2,0.4,0.2c0.1,0.1,0.2,0.1,0.2,0.1"/>
				</g>
				<g>
					<path fill="#FC8300" stroke="#0000FF" stroke-miterlimit="10" d="M58.3,61c0,0-0.1,0-0.2,0.1c-0.1,0.1-0.3,0.1-0.4,0.2
						c-0.3,0.1-0.6,0.2-0.6,0.2s0.3,0.2,0.5,0.5c0.2,0.2,0.5,0.5,0.5,0.5"/>
				</g>
				<g>
					<path fill="#FC8300" stroke="#0000FF" stroke-miterlimit="10" d="M58,62.7c0,0-0.3,0-0.7,0.1c-0.2,0-0.3,0-0.5,0
						c-0.1,0-0.2,0-0.2,0s0.2,0.3,0.4,0.6c0.1,0.2,0.2,0.3,0.2,0.4c0.1,0.1,0.1,0.2,0.1,0.2"/>
				</g>
				<g>
					<polyline fill="#FC8300" stroke="#0000FF" stroke-miterlimit="10" points="57.3,64.2 56.2,65 57.5,65.5 					"/>
				</g>
				<g>
					<polyline fill="#FC8300" stroke="#0000FF" stroke-miterlimit="10" points="57.5,65.7 56.5,66.5 57.8,66.9 					"/>
				</g>
				<g>
					<polyline fill="#FC8300" stroke="#0000FF" stroke-miterlimit="10" points="57.8,67.2 56.7,67.9 58,68.4 					"/>
				</g>
				<g>
					<path fill="#FC8300" stroke="#0000FF" stroke-miterlimit="10" d="M58.1,68.6L57,69.4c0,0,0.3,0.1,0.7,0.2
						c0.1,0,0.2,0.1,0.2,0.1c0.1,0,0.1,0,0.2,0c0.1,0,0.2-0.1,0.2-0.1"/>
				</g>
				<g>
					<path fill="#FC8300" stroke="#0000FF" stroke-miterlimit="10" d="M58.3,69.7c0,0-0.1,0.3-0.3,0.6c-0.2,0.3-0.3,0.6-0.3,0.6
						s0.1,0,0.2,0c0.1,0,0.3,0,0.5,0c0.3,0,0.7,0,0.7,0"/>
				</g>
				<g>
					<path fill="#FC8300" stroke="#0000FF" stroke-miterlimit="10" d="M59.2,71.1c0,0-0.2,0.3-0.4,0.5s-0.5,0.5-0.5,0.5s0.1,0,0.2,0
						c0.1,0,0.3,0.1,0.5,0.1c0.3,0.1,0.7,0.2,0.7,0.2"/>
				</g>
				<g>
					<path fill="#FC8300" stroke="#0000FF" stroke-miterlimit="10" d="M59.7,72.7c0,0-0.3,0.2-0.5,0.4c-0.1,0.1-0.3,0.2-0.4,0.2
						c-0.1,0.1-0.2,0.1-0.2,0.1s0.3,0.1,0.6,0.3c0.2,0.1,0.3,0.2,0.4,0.2c0.1,0.1,0.2,0.1,0.2,0.1"/>
				</g>
				<g>
					<path fill="#FC8300" stroke="#0000FF" stroke-miterlimit="10" d="M59.9,74.4c0,0-0.3,0.2-0.6,0.3c-0.2,0.1-0.3,0.1-0.4,0.2
						c-0.1,0-0.2,0.1-0.2,0.1s0.3,0.2,0.6,0.4c0.1,0.1,0.3,0.2,0.4,0.3c0.1,0.1,0.2,0.2,0.2,0.2"/>
				</g>
				<g>
					<path fill="#FC8300" stroke="#0000FF" stroke-miterlimit="10" d="M59.7,76c0,0-0.3,0.1-0.6,0.1c-0.2,0-0.3,0.1-0.4,0.1
						c-0.1,0-0.2,0-0.2,0s0.2,0.2,0.5,0.5c0.2,0.3,0.4,0.6,0.4,0.6"/>
				</g>
				<g>
					<path fill="#FC8300" stroke="#0000FF" stroke-miterlimit="10" d="M59.3,77.5c0,0-0.3,0-0.7,0s-0.7,0-0.7,0s0.2,0.3,0.4,0.6
						c0.1,0.1,0.1,0.1,0.2,0.2c0,0,0.1,0,0.1,0.1l0.1,0.1c0.1,0.1,0.2,0.1,0.2,0.1"/>
				</g>
				<g>
					<polyline fill="#FC8300" stroke="#0000FF" stroke-miterlimit="10" points="58.8,78.8 57.6,79.1 58.6,80 					"/>
				</g>
				<g>
					<polyline fill="#FC8300" stroke="#0000FF" stroke-miterlimit="10" points="58.6,80.2 57.3,80.6 58.4,81.5 					"/>
				</g>
				<g>
					<polyline fill="#FC8300" stroke="#0000FF" stroke-miterlimit="10" points="58.4,81.7 57.1,82.1 58.2,83 					"/>
				</g>
				<g>
					<path fill="#FC8300" stroke="#0000FF" stroke-miterlimit="10" d="M58.1,83.2c0,0-0.1,0-0.2,0.1c-0.1,0-0.3,0.1-0.4,0.1
						c-0.1,0-0.2,0.1-0.2,0.1c-0.1,0-0.1,0.1-0.2,0.1c-0.1,0.1-0.2,0.1-0.2,0.1s0.1,0,0.2,0.1c0.1,0.1,0.3,0.1,0.4,0.2
						c0.2,0.1,0.3,0.2,0.4,0.2c0.1,0.1,0.2,0.1,0.2,0.1"/>
				</g>
				<g>
					<path fill="#FC8300" stroke="#0000FF" stroke-miterlimit="10" d="M58.2,84.6c0,0-0.1,0-0.2,0.1c-0.1,0.1-0.3,0.1-0.4,0.2
						C57.3,85,57,85.1,57,85.1s0.1,0.1,0.2,0.1c0.1,0.1,0.2,0.2,0.3,0.3c0.1,0.1,0.2,0.2,0.3,0.3c0.1,0.1,0.1,0.2,0.1,0.2"/>
				</g>
				<g>
					<path fill="#FC8300" stroke="#0000FF" stroke-miterlimit="10" d="M57.9,86.3c0,0-0.3,0.1-0.7,0.1c-0.2,0-0.3,0-0.5,0
						c-0.1,0-0.2,0-0.2,0s0.1,0.1,0.1,0.2c0.1,0.1,0.2,0.3,0.2,0.4c0.1,0.2,0.1,0.3,0.2,0.5c0,0.1,0.1,0.2,0.1,0.2"/>
				</g>
				<g>
					<path fill="#FC8300" stroke="#0000FF" stroke-miterlimit="10" d="M56.9,87.8c0,0-0.3-0.1-0.6-0.2s-0.6-0.3-0.6-0.3s0,0.1,0,0.2
						s0,0.3,0,0.5c0,0.3-0.1,0.7-0.1,0.7"/>
				</g>
				<g>
					<polyline fill="#FC8300" stroke="#0000FF" stroke-miterlimit="10" points="55.4,88.9 54.1,88.9 55,90.1 					"/>
				</g>
				<g>
					<polyline fill="#FC8300" stroke="#0000FF" stroke-miterlimit="10" points="54.9,90.3 53.5,90.4 54.4,91.5 					"/>
				</g>
				<g>
					<path fill="#FC8300" stroke="#0000FF" stroke-miterlimit="10" d="M54.3,91.7L53,91.8c0,0,0.2,0.3,0.4,0.6
						c0.1,0.1,0.2,0.3,0.3,0.4c0,0.1,0.1,0.1,0.1,0.1V93"/>
				</g>
				<g>
					<path fill="#FC8300" stroke="#0000FF" stroke-miterlimit="10" d="M53.8,93.1c0,0-0.3,0-0.7,0.1c-0.3,0-0.7,0-0.7,0
						s0.2,0.3,0.4,0.6c0.2,0.3,0.4,0.6,0.4,0.6"/>
				</g>
				<g>
					<path fill="#FC8300" stroke="#0000FF" stroke-miterlimit="10" d="M53.1,94.6c0,0-0.3,0-0.7,0c-0.3,0-0.7-0.1-0.7-0.1
						s0.2,0.3,0.3,0.6c0.2,0.3,0.3,0.6,0.3,0.6"/>
				</g>
				<g>
					<path fill="#FC8300" stroke="#0000FF" stroke-miterlimit="10" d="M52.3,96c0,0-0.3-0.1-0.7-0.1c-0.3-0.1-0.6-0.1-0.6-0.1
						s0.1,0.3,0.2,0.7c0.1,0.3,0.2,0.7,0.2,0.7"/>
				</g>
				<g>
					<path fill="#FC8300" stroke="#0000FF" stroke-miterlimit="10" d="M51.3,97.2c0,0-0.3-0.1-0.6-0.2S50,96.8,50,96.8
						s0.1,0.3,0.1,0.7s0.1,0.7,0.1,0.7"/>
				</g>
				<g>
					<path fill="#FC8300" stroke="#0000FF" stroke-miterlimit="10" d="M50,98.4c0,0-0.3-0.2-0.6-0.3c-0.3-0.2-0.6-0.3-0.6-0.3
						s0,0.1,0,0.2s0,0.3,0,0.5s0,0.3,0,0.5c0,0.1,0,0.2,0,0.2"/>
				</g>
				<g>
					<path fill="#FC8300" stroke="#0000FF" stroke-miterlimit="10" d="M48.6,99.2c0,0-0.1-0.1-0.2-0.1c-0.1-0.1-0.2-0.2-0.3-0.3
						c-0.1-0.1-0.2-0.2-0.3-0.3c-0.1-0.1-0.1-0.2-0.1-0.2s-0.1,0.3-0.2,0.7c-0.1,0.3-0.2,0.7-0.2,0.7"/>
				</g>
				<g>
					<path fill="#FC8300" stroke="#0000FF" stroke-miterlimit="10" d="M46.9,99.7c0,0-0.1-0.1-0.1-0.2s-0.1-0.1-0.1-0.2
						c-0.1-0.1-0.1-0.1-0.1-0.2c-0.1-0.2-0.1-0.3-0.1-0.4s-0.1-0.2-0.1-0.2s-0.2,0.3-0.5,0.5c-0.2,0.2-0.5,0.5-0.5,0.5"/>
				</g>
				<g>
					<path fill="#FC8300" stroke="#0000FF" stroke-miterlimit="10" d="M45.1,99.4c0,0-0.1-0.3-0.1-0.7c0-0.3-0.1-0.7-0.1-0.7
						s-0.3,0.2-0.6,0.4c-0.3,0.2-0.6,0.4-0.6,0.4"/>
				</g>
				<g>
					<path fill="#FC8300" stroke="#0000FF" stroke-miterlimit="10" d="M43.6,98.8c0,0,0-0.3,0-0.7c0-0.3,0.1-0.7,0.1-0.7
						s-0.3,0.2-0.6,0.3c-0.2,0.1-0.3,0.2-0.5,0.2C42.5,98,42.4,98,42.4,98"/>
				</g>
				<g>
					<path fill="#FC8300" stroke="#0000FF" stroke-miterlimit="10" d="M42.2,98c0,0,0.1-0.3,0.1-0.6c0.1-0.3,0.2-0.6,0.2-0.6
						s-0.1,0-0.2,0.1C42.2,97,42,97,41.8,97c-0.2,0.1-0.3,0.1-0.5,0.1c-0.1,0-0.2,0-0.2,0"/>
				</g>
				<g>
					<path fill="#FC8300" stroke="#0000FF" stroke-miterlimit="10" d="M41,96.8c0,0,0.1-0.3,0.3-0.6c0.2-0.3,0.3-0.6,0.3-0.6
						s-0.1,0-0.2,0c-0.1,0-0.3,0-0.5,0s-0.3,0-0.5,0c-0.1,0-0.2,0-0.2,0"/>
				</g>
				<g>
					<path fill="#FC8300" stroke="#0000FF" stroke-miterlimit="10" d="M40,95.4c0,0,0.2-0.3,0.4-0.5s0.5-0.5,0.5-0.5s-0.1,0-0.2,0
						c-0.1,0-0.3-0.1-0.5-0.1c-0.2-0.1-0.3-0.1-0.5-0.1c-0.1-0.1-0.2-0.1-0.2-0.1"/>
				</g>
				<g>
					<path fill="#FC8300" stroke="#0000FF" stroke-miterlimit="10" d="M39.5,93.8c0,0,0.3-0.2,0.5-0.4c0.3-0.2,0.6-0.3,0.6-0.3
						s-0.1,0-0.2-0.1c-0.1-0.1-0.3-0.1-0.4-0.2c-0.1,0-0.2-0.1-0.2-0.1h-0.2c-0.1,0-0.1,0-0.2,0h-0.1"/>
				</g>
				<g>
					<polyline fill="#FC8300" stroke="#0000FF" stroke-miterlimit="10" points="39.2,92.5 40,91.4 38.6,91.4 					"/>
				</g>
				<g>
					<polyline fill="#FC8300" stroke="#0000FF" stroke-miterlimit="10" points="38.5,91.2 39.3,90.1 37.8,90.1 					"/>
				</g>
				<g>
					<polyline fill="#FC8300" stroke="#0000FF" stroke-miterlimit="10" points="37.7,89.9 38.5,88.8 37.1,88.7 					"/>
				</g>
				<g>
					<path fill="#FC8300" stroke="#0000FF" stroke-miterlimit="10" d="M36.9,88.5c0,0,0-0.1,0-0.2s0-0.3,0-0.5s0.1-0.3,0.1-0.4
						s0.1-0.2,0.1-0.2s-0.1,0-0.2,0.1c-0.1,0.1-0.3,0.1-0.5,0.2s-0.3,0.1-0.5,0.1c-0.1,0-0.2,0-0.2,0"/>
				</g>
				<g>
					<path fill="#FC8300" stroke="#0000FF" stroke-miterlimit="10" d="M35.5,87.4c0,0,0-0.1,0.1-0.2s0.2-0.3,0.2-0.4
						c0.1-0.1,0.2-0.3,0.3-0.3c0.1-0.1,0.1-0.2,0.1-0.2s-0.1,0-0.2,0c-0.1,0-0.3,0-0.5-0.1c-0.2,0-0.3-0.1-0.5-0.1
						c-0.1,0-0.2-0.1-0.2-0.1"/>
				</g>
				<g>
					<path fill="#FC8300" stroke="#0000FF" stroke-miterlimit="10" d="M34.8,85.8c0,0,0.3-0.2,0.5-0.4c0.1-0.1,0.3-0.2,0.4-0.2
						c0.1-0.1,0.2-0.1,0.2-0.1s-0.3-0.1-0.6-0.3s-0.6-0.3-0.6-0.3"/>
				</g>
				<g>
					<path fill="#FC8300" stroke="#0000FF" stroke-miterlimit="10" d="M34.6,84.1c0,0,0.3-0.1,0.6-0.2s0.6-0.2,0.6-0.2s0,0-0.1,0
						l-0.1-0.1c-0.1-0.1-0.1-0.1-0.2-0.2c-0.1-0.1-0.2-0.1-0.2-0.1c-0.3-0.1-0.6-0.3-0.6-0.3"/>
				</g>
				<g>
					<polyline fill="#FC8300" stroke="#0000FF" stroke-miterlimit="10" points="34.6,82.8 35.7,82.1 34.4,81.6 					"/>
				</g>
				<g>
					<polyline fill="#FC8300" stroke="#0000FF" stroke-miterlimit="10" points="34.3,81.3 35.5,80.6 34.1,80.1 					"/>
				</g>
				<g>
					<polyline fill="#FC8300" stroke="#0000FF" stroke-miterlimit="10" points="34.1,79.8 35.2,79.1 33.9,78.6 					"/>
				</g>
				<g>
					<path fill="#FC8300" stroke="#0000FF" stroke-miterlimit="10" d="M33.9,78.4L33.9,78.4c0.1,0,0.1-0.1,0.2-0.1
						c0.1-0.1,0.2-0.1,0.3-0.2c0.2-0.3,0.4-0.5,0.4-0.5s-0.3,0-0.7-0.1c-0.2,0-0.3-0.1-0.5-0.1c-0.1,0-0.2,0-0.2,0"/>
				</g>
				<g>
					<path fill="#FC8300" stroke="#0000FF" stroke-miterlimit="10" d="M33.4,77.2c0,0,0.2-0.2,0.5-0.5c0.2-0.2,0.5-0.4,0.5-0.4
						s-0.1,0-0.2-0.1c-0.1,0-0.3-0.1-0.5-0.1C33.3,76,33,75.9,33,75.9"/>
				</g>
				<g>
					<path fill="#FC8300" stroke="#0000FF" stroke-miterlimit="10" d="M32.9,75.6c0,0,0.3-0.2,0.6-0.4c0.3-0.2,0.6-0.3,0.6-0.3
						s-0.1,0-0.2-0.1c-0.1-0.1-0.3-0.1-0.4-0.2c-0.3-0.2-0.6-0.4-0.6-0.4"/>
				</g>
				<g>
					<path fill="#FC8300" stroke="#0000FF" stroke-miterlimit="10" d="M32.8,74c0,0,0.1,0,0.2-0.1c0.1-0.1,0.3-0.1,0.4-0.2
						c0.3-0.1,0.6-0.2,0.6-0.2s-0.3-0.2-0.5-0.4c-0.3-0.2-0.5-0.5-0.5-0.5"/>
				</g>
				<g>
					<path fill="#FC8300" stroke="#0000FF" stroke-miterlimit="10" d="M33.1,72.3c0,0,0.3-0.1,0.7-0.1c0.3,0,0.7-0.1,0.7-0.1
						s-0.2-0.3-0.4-0.5c-0.1-0.1-0.2-0.3-0.3-0.4S33.7,71,33.7,71"/>
				</g>
				<g>
					<path fill="#FC8300" stroke="#0000FF" stroke-miterlimit="10" d="M33.7,70.8c0,0,0.3,0,0.7,0.1c0.2,0,0.3,0,0.5,0.1
						c0.1,0,0.2,0,0.2,0s-0.2-0.3-0.3-0.6c-0.1-0.2-0.1-0.3-0.2-0.5c-0.1-0.1-0.1-0.2-0.1-0.2"/>
				</g>
				<g>
					<path fill="#FC8300" stroke="#0000FF" stroke-miterlimit="10" d="M34.5,69.7c0,0,0.1,0,0.2,0.1c0.1,0,0.1,0,0.2,0
						c0.1,0,0.2,0,0.2-0.1c0.3-0.1,0.6-0.2,0.6-0.2l-1.1-0.9"/>
				</g>
				<g>
					<polyline fill="#FC8300" stroke="#0000FF" stroke-miterlimit="10" points="34.8,68.4 36.1,68.1 35,67.1 					"/>
				</g>
				<g>
					<polyline fill="#FC8300" stroke="#0000FF" stroke-miterlimit="10" points="35,66.9 36.3,66.6 35.2,65.7 					"/>
				</g>
				<g>
					<polyline fill="#FC8300" stroke="#0000FF" stroke-miterlimit="10" points="35.3,65.4 36.6,65.1 35.5,64.2 					"/>
				</g>
				<g>
					<path fill="#FC8300" stroke="#0000FF" stroke-miterlimit="10" d="M35.4,63.9c0,0,0.2-0.3,0.3-0.6c0.2-0.3,0.4-0.5,0.4-0.5
						s-0.3,0-0.7-0.1c-0.3-0.1-0.7-0.1-0.7-0.1"/>
				</g>
				<g>
					<path fill="#FC8300" stroke="#0000FF" stroke-miterlimit="10" d="M34.7,62.4c0,0,0.2-0.2,0.5-0.5c0.3-0.2,0.5-0.4,0.5-0.4
						s-0.3-0.1-0.6-0.2S34.4,61,34.4,61"/>
				</g>
				<g>
					<path fill="#FC8300" stroke="#0000FF" stroke-miterlimit="10" d="M34.4,60.7c0,0,0.3-0.2,0.6-0.3s0.6-0.2,0.6-0.2
						s-0.1-0.1-0.2-0.1c-0.1-0.1-0.2-0.2-0.4-0.3c-0.1-0.1-0.3-0.2-0.4-0.3c-0.1-0.1-0.2-0.2-0.2-0.2"/>
				</g>
				<g>
					<path fill="#FC8300" stroke="#0000FF" stroke-miterlimit="10" d="M34.7,59c0,0,0.3-0.1,0.7-0.1c0.3,0,0.6-0.1,0.6-0.1
						s-0.1-0.1-0.1-0.2c-0.1-0.1-0.2-0.2-0.3-0.4c-0.2-0.3-0.4-0.6-0.4-0.6"/>
				</g>
				<g>
					<path fill="#FC8300" stroke="#0000FF" stroke-miterlimit="10" d="M35.3,57.5c0,0,0.3,0,0.7,0.1c0.2,0,0.3,0.1,0.5,0.1
						c0.1,0,0.2,0,0.2,0s-0.2-0.3-0.3-0.6s-0.2-0.7-0.2-0.7"/>
				</g>
				<g>
					<path fill="#FC8300" stroke="#0000FF" stroke-miterlimit="10" d="M36.2,56.2c0,0,0.1,0.1,0.2,0.1c0.1,0.1,0.3,0.1,0.4,0.1
						c0.2,0,0.3-0.1,0.4-0.1c0.1,0,0.2-0.1,0.2-0.1l-1.1-0.9"/>
				</g>
				<g>
					<polyline fill="#FC8300" stroke="#0000FF" stroke-miterlimit="10" points="36.4,55 37.7,54.7 36.6,53.8 					"/>
				</g>
				<g>
					<polyline fill="#FC8300" stroke="#0000FF" stroke-miterlimit="10" points="36.6,53.5 37.9,53.2 36.8,52.3 					"/>
				</g>
				<g>
					<polyline fill="#FC8300" stroke="#0000FF" stroke-miterlimit="10" points="36.8,52 38.1,51.7 37,50.8 					"/>
				</g>
				<g>
					<path fill="#FC8300" stroke="#0000FF" stroke-miterlimit="10" d="M37,50.5c0,0,0.1-0.1,0.1-0.2c0.1-0.1,0.2-0.2,0.3-0.4
						c0.2-0.3,0.4-0.5,0.4-0.5s-0.1,0-0.2,0s-0.3,0-0.5-0.1c-0.2,0-0.3-0.1-0.5-0.1c-0.1,0-0.2-0.1-0.2-0.1"/>
				</g>
				<g>
					<path fill="#FC8300" stroke="#0000FF" stroke-miterlimit="10" d="M36.2,48.9c0,0,0.3-0.2,0.5-0.4c0.1-0.1,0.3-0.2,0.4-0.2
						c0.1-0.1,0.2-0.1,0.2-0.1s-0.1,0-0.2-0.1C37,48.1,37,48,36.9,48s-0.1-0.1-0.2-0.1c-0.1-0.1-0.3-0.2-0.4-0.3
						c-0.1-0.1-0.2-0.2-0.2-0.2"/>
				</g>
				<g>
					<path fill="#FC8300" stroke="#0000FF" stroke-miterlimit="10" d="M36.2,47.1c0,0,0.1,0,0.2-0.1c0.1,0,0.3-0.1,0.5-0.1
						c0.3,0,0.6,0,0.6,0s-0.2-0.3-0.4-0.6c0-0.1-0.1-0.3-0.1-0.4c-0.1-0.1-0.1-0.2-0.1-0.2"/>
				</g>
				<g>
					<path fill="#FC8300" stroke="#0000FF" stroke-miterlimit="10" d="M37.1,45.5c0,0,0.3,0.1,0.6,0.2c0.2,0.1,0.3,0.1,0.4,0.2
						c0.1,0.1,0.2,0.1,0.2,0.1s0-0.1-0.1-0.2s-0.1-0.3-0.1-0.5c-0.1-0.3,0-0.7,0-0.7"/>
				</g>
				<g>
					<polyline fill="#FC8300" stroke="#0000FF" stroke-miterlimit="10" points="38.3,44.2 39.6,43.9 38.5,42.9 					"/>
				</g>
				<g>
					<polyline fill="#FC8300" stroke="#0000FF" stroke-miterlimit="10" points="38.5,42.7 39.8,42.3 38.7,41.4 					"/>
				</g>
				<g>
					<polyline fill="#FC8300" stroke="#0000FF" stroke-miterlimit="10" points="38.7,41.2 40,40.8 38.9,39.9 					"/>
				</g>
				<g>
					<path fill="#FC8300" stroke="#0000FF" stroke-miterlimit="10" d="M38.9,39.7c0,0,0.3-0.1,0.6-0.2c0.2,0,0.3-0.1,0.5-0.2
						c0.1-0.1,0.1-0.1,0.1-0.1v-0.1c0,0,0-0.1-0.2-0.1s-0.3-0.1-0.5-0.1c-0.3,0-0.7-0.1-0.7-0.1"/>
				</g>
				<g>
					<path fill="#FC8300" stroke="#0000FF" stroke-miterlimit="10" d="M38.6,38.6c0,0,0.2-0.3,0.5-0.5c0.2-0.2,0.5-0.4,0.5-0.4
						s-0.1,0-0.2-0.1c-0.1,0-0.3-0.1-0.5-0.2c-0.2-0.1-0.3-0.1-0.5-0.2c-0.1-0.1-0.2-0.1-0.2-0.1"/>
				</g>
				<g>
					<path fill="#FC8300" stroke="#0000FF" stroke-miterlimit="10" d="M38.2,36.9c0,0,0.1-0.1,0.2-0.1c0.1-0.1,0.3-0.1,0.4-0.2
						c0.2-0.1,0.3-0.1,0.4-0.2c0.1,0,0.2-0.1,0.2-0.1s-0.3-0.2-0.5-0.4c-0.1-0.1-0.2-0.3-0.3-0.4s-0.1-0.2-0.1-0.2"/>
				</g>
			</g>
		</g>
	</g>
	<g>
		<g>
			<path fill="#FC8300" stroke="#0000FF" stroke-miterlimit="10" d="M50.8,33.2"/>
		</g>
	</g>
</g>
<g id="leaf">
	<g>
		<path fill="#A8CF38" stroke="#010101" stroke-width="0.5" stroke-linecap="round" stroke-linejoin="round" d="M44.6,22.2
			c0,0-2.3-4-2-6l0.6,0.2c0,0-0.5-0.6,0.1-3l0.5,0.4c0,0-0.4-1.2,0.4-2.8l0.5,0.4c0,0,0.2-1.1,0.7-2.2l0.5,0.3c0,0-0.1-1.3,0.3-2.3
			l0.5,0.4c0,0,0.2-1.7,1.1-2L47.7,6c0,0,0.6-1,1.6-1.6l0.4,0.5c0,0,0-1,1.2-1.5l0.2,0.4c0,0,0.1-1.4,1.2-1.6l0.3,0.7
			c0,0,1.9-1.8,2.3-1.8l0.7,0.3c0.1,0.3,0,2.9,0,2.9l0.7-0.2c0.5,1-0.5,2-0.5,2h0.5c0.4,1.2-0.5,1.8-0.5,1.8L56.4,8
			c0.1,1.1-0.3,2.2-0.3,2.2l0.4-0.1c0.3,0.9-0.9,2.1-0.9,2.1l0.6,0.1c-0.5,1-1.6,1.7-1.6,1.7l0.6,0.2c-0.6,1-1.4,1.9-1.4,1.9
			l0.6,0.1c-0.8,1.6-2,2-2,2l0.6,0.1c-1.6,1.9-2.4,1.9-2.4,1.9l0.5,0.3c-1.4,1.4-6,2.1-6,2.1L44.6,22.2z"/>
		<path fill="#A8CF38" stroke="#010101" stroke-width="0.5" stroke-linecap="round" stroke-linejoin="round" d="M45,22.4
			c0,0-2.3-4-2-6l0.6,0.2c0,0-0.5-0.6,0.1-3l0.5,0.4c0,0-0.4-1.2,0.4-2.8l0.5,0.4c0,0,0.2-1.1,0.7-2.2l0.5,0.3c0,0-0.1-1.3,0.3-2.3
			l0.5,0.4c0,0,0.2-1.7,1.1-2l0.1,0.4c0,0,0.6-1,1.6-1.6L50.2,5c0,0,0-1,1.2-1.5l0.2,0.4c0,0,0.1-1.4,1.2-1.6L53.1,3
			c0,0,1.9-1.8,2.3-1.8l0.7,0.4c0.1,0.3,0,2.9,0,2.9l0.7-0.2c0.5,1-0.5,2-0.5,2h0.5c0.4,1.2-0.5,1.8-0.5,1.8H57
			c0.1,1.1-0.3,2.2-0.3,2.2l0.4-0.1c0.3,0.9-0.9,2.1-0.9,2.1l0.6,0.1c-0.5,1-1.6,1.7-1.6,1.7l0.6,0.2c-0.6,1-1.4,1.9-1.4,1.9
			l0.6,0.1c-0.8,1.6-2,2-2,2l0.6,0.1c-1.6,1.9-2.4,1.9-2.4,1.9l0.5,0.3c-1.4,1.4-5.9,2-5.9,2L45,22.4z"/>
		
			<line fill="none" stroke="#010101" stroke-width="0.5" stroke-linecap="round" stroke-linejoin="round" x1="55.6" y1="1.5" x2="45.3" y2="22.5"/>
		<g>
			
				<line fill="none" stroke="#010101" stroke-width="0.5" stroke-linecap="round" stroke-linejoin="round" x1="53.1" y1="2.7" x2="53.5" y2="4.4"/>
			
				<line fill="none" stroke="#010101" stroke-width="0.5" stroke-linecap="round" stroke-linejoin="round" x1="51.6" y1="4" x2="52.6" y2="6"/>
			
				<line fill="none" stroke="#010101" stroke-width="0.5" stroke-linecap="round" stroke-linejoin="round" x1="50.2" y1="5" x2="51.6" y2="7.6"/>
			
				<line fill="none" stroke="#010101" stroke-width="0.5" stroke-linecap="round" stroke-linejoin="round" x1="48.1" y1="6.1" x2="50.3" y2="9.2"/>
			
				<line fill="none" stroke="#010101" stroke-width="0.5" stroke-linecap="round" stroke-linejoin="round" x1="47" y1="7.7" x2="49.8" y2="11"/>
			
				<line fill="none" stroke="#010101" stroke-width="0.5" stroke-linecap="round" stroke-linejoin="round" x1="46" y1="9.6" x2="48.8" y2="12.7"/>
			
				<line fill="none" stroke="#010101" stroke-width="0.5" stroke-linecap="round" stroke-linejoin="round" x1="44.9" y1="11.4" x2="47.3" y2="14.6"/>
			
				<line fill="none" stroke="#010101" stroke-width="0.5" stroke-linecap="round" stroke-linejoin="round" x1="44.1" y1="13.8" x2="46.9" y2="17.4"/>
			
				<line fill="none" stroke="#010101" stroke-width="0.5" stroke-linecap="round" stroke-linejoin="round" x1="43.6" y1="16.4" x2="45.8" y2="20.2"/>
		</g>
		<g>
			
				<line fill="none" stroke="#010101" stroke-width="0.5" stroke-linecap="round" stroke-linejoin="round" x1="56.4" y1="4.3" x2="54.8" y2="5.1"/>
			
				<line fill="none" stroke="#010101" stroke-width="0.5" stroke-linecap="round" stroke-linejoin="round" x1="56.4" y1="6.3" x2="54.1" y2="6.8"/>
			
				<line fill="none" stroke="#010101" stroke-width="0.5" stroke-linecap="round" stroke-linejoin="round" x1="56.4" y1="8" x2="53.5" y2="8.5"/>
			
				<line fill="none" stroke="#010101" stroke-width="0.5" stroke-linecap="round" stroke-linejoin="round" x1="56.8" y1="10.4" x2="52.9" y2="10.5"/>
			
				<line fill="none" stroke="#010101" stroke-width="0.5" stroke-linecap="round" stroke-linejoin="round" x1="56.2" y1="12.2" x2="51.8" y2="12"/>
			
				<line fill="none" stroke="#010101" stroke-width="0.5" stroke-linecap="round" stroke-linejoin="round" x1="55.3" y1="14.2" x2="51.1" y2="13.8"/>
			
				<line fill="none" stroke="#010101" stroke-width="0.5" stroke-linecap="round" stroke-linejoin="round" x1="54.5" y1="16.1" x2="50.5" y2="16.2"/>
			
				<line fill="none" stroke="#010101" stroke-width="0.5" stroke-linecap="round" stroke-linejoin="round" x1="53.1" y1="18.3" x2="48.6" y2="18.2"/>
			
				<line fill="none" stroke="#010101" stroke-width="0.5" stroke-linecap="round" stroke-linejoin="round" x1="51.3" y1="20.3" x2="46.9" y2="20.8"/>
		</g>
		<path fill="#FFFFFF" stroke="#010101" stroke-width="0.5" stroke-linecap="round" stroke-linejoin="round" d="M57.3,8.3
			c0,0-1.5,0.4-1.1,1.2c0,0-1.9,0.3-1,1.7c0,0,0.5,1,1.3,0.6c0,0-0.5,0.8,0.3,0.7c0.8-0.2,0.6-0.2,0.6-0.2"/>
		<path fill="#FFFFFF" stroke="#010101" stroke-width="0.5" stroke-miterlimit="10" d="M47.3,10.3c-0.1,0.3-0.3,0.6-0.4,1
			c0.4,0.3,0.9-0.3,1.1-0.7c-0.2,0.5-0.1,1.7,0.7,0.9c-0.1,0.5,0.2,0.6,0.6,0.8c-0.1,0.5-0.6,0.6-0.9,0.9c-0.2,0.2-0.2,0.5-0.4,0.7
			c-0.3-0.2-0.3-0.6-0.6-0.7c-0.2,0.1-0.7,0.8-0.9,0.8s-0.5-0.6-0.8-0.7c0.1-0.3,0.3-0.5,0.4-0.8C46,12.4,46,12.4,46,12.4
			c0.1-0.3,0.7-2.1,1.1-1.7"/>
		<path fill="#FFFFFF" stroke="#010101" stroke-width="0.5" stroke-miterlimit="10" d="M52.6,6.3c0.5-0.4,0.5-0.9,1.1-1.2
			c0.1,0.2-0.1,0.7,0.1,0.8c0.3,0.3,0.9-0.4,1.2-0.6c-0.1,0.1-0.3,0.6-0.2,0.8c0.2,0.4,0.6,0.1,0.9,0.1c-0.2,0.5-0.6,0.9-0.9,1.4
			c-0.2,0.3-0.2,0.6-0.3,1c-0.6-0.2-1-0.7-1.2-1.3c-0.2,0.4-0.9,1.6-0.9,0.6c-0.1-0.6,0.4-1.2,0.5-1.8"/>
		<path fill="#FFFFFF" stroke="#010101" stroke-width="0.5" stroke-miterlimit="10" d="M51.8,15c0,0.4-0.5,0.8-0.5,1.2
			c0,0.5,0.6,0.9,1.1,0.9c-0.5,0.2-1.1,0.5-1.3,1c0.2,0.2,0.6,0.3,0.9,0.5c-0.2,0.1-1.4,0.7-0.8,1c-0.2,0.5-1.4-0.2-1.8-0.5
			c-0.7-0.6-0.4-1.3-0.1-2c0.4-1,1.3-2.1,2.6-1.9"/>
	</g>
</g>
<g id="water">
	<g>
		<path fill="#55C2E2" stroke="#070707" stroke-width="0.5" stroke-miterlimit="10" d="M32.4,6c0,0-9.7,11.2-1.1,13.7
			c0,0,7-0.2,3.9-8.3C35.2,11.4,32.5,8.3,32.4,6z"/>
		<path fill="none" stroke="#3A97AD" stroke-miterlimit="10" d="M31.8,18.8c1.4,0.6,3.6-2.8,3.5-4"/>
		
			<ellipse transform="matrix(0.6127 0.7903 -0.7903 0.6127 25.2398 -17.4671)" opacity="0.8" fill="#FFFFFF" enable-background="new    " cx="30.4" cy="17" rx="1.6" ry="1.3"/>
		<path opacity="0.8" fill="#FFFFFF" enable-background="new    " d="M29.6,10.9c0,0,1.3-3.1,2.8-3.9"/>
	</g>
	<g>
		<path fill="#55C2E2" stroke="#070707" stroke-width="0.5" stroke-miterlimit="10" d="M71.1,47.7c0,0-9.7,11.2-1.1,13.7
			c0,0,7-0.2,3.9-8.3C73.9,53.2,71.3,50.1,71.1,47.7z"/>
		<path fill="none" stroke="#3A97AD" stroke-miterlimit="10" d="M70.5,60.5c1.4,0.6,3.6-2.8,3.5-4"/>
		
			<ellipse transform="matrix(0.6127 0.7903 -0.7903 0.6127 73.2332 -31.8928)" opacity="0.8" fill="#FFFFFF" enable-background="new    " cx="69.2" cy="58.8" rx="1.6" ry="1.3"/>
		<path opacity="0.8" fill="#FFFFFF" enable-background="new    " d="M68.3,52.6c0,0,1.3-3.1,2.8-3.9"/>
	</g>
	<g>
		<path fill="#55C2E2" stroke="#070707" stroke-width="0.5" stroke-miterlimit="10" d="M28.1,76.7c0,0-5.8,6.7-0.7,8.2
			c0,0,4.2-0.1,2.4-5C29.8,80,28.2,78.2,28.1,76.7z"/>
		<path fill="none" stroke="#3A97AD" stroke-miterlimit="10" d="M27.8,84.4c0.8,0.4,2.2-1.7,2.1-2.4"/>
		
			<ellipse transform="matrix(0.6129 0.7901 -0.7901 0.6129 76.8798 11.3808)" opacity="0.8" fill="#FFFFFF" enable-background="new    " cx="26.8" cy="84.2" rx="0.6" ry="0.5"/>
		<path opacity="0.8" fill="#FFFFFF" enable-background="new    " d="M26.4,79.7c0,0,0.7-1.9,1.7-2.4"/>
	</g>
	<g>
		<path fill="#55C2E2" stroke="#070707" stroke-width="0.5" stroke-miterlimit="10" d="M29.4,40.7c0,0-5.8,6.7-0.7,8.2
			c0,0,4.2-0.1,2.4-5C31.1,43.9,29.5,42.1,29.4,40.7z"/>
		<path fill="none" stroke="#3A97AD" stroke-miterlimit="10" d="M29,48.4c0.8,0.4,2.2-1.7,2.1-2.4"/>
		
			<ellipse transform="matrix(0.6126 0.7904 -0.7904 0.6126 48.8703 -3.6785)" opacity="0.8" fill="#FFFFFF" enable-background="new    " cx="28.2" cy="48" rx="0.6" ry="0.5"/>
		<path opacity="0.8" fill="#FFFFFF" enable-background="new    " d="M27.7,43.6c0,0,0.7-1.9,1.7-2.4"/>
	</g>
	<g>
		<path fill="#55C2E2" stroke="#070707" stroke-width="0.5" stroke-miterlimit="10" d="M63.7,39.9c0,0-3.6,4.2-0.4,5.1
			c0,0,2.6-0.1,1.5-3.1C64.7,42,63.7,40.8,63.7,39.9z"/>
		<path fill="none" stroke="#3A97AD" stroke-miterlimit="10" d="M63.4,44.8c0.5,0.2,1.4-1,1.3-1.5"/>
		
			<ellipse transform="matrix(0.6123 0.7906 -0.7906 0.6123 59.2124 -32.546)" opacity="0.8" fill="#FFFFFF" enable-background="new    " cx="62.8" cy="44.1" rx="0.3" ry="0.2"/>
		<path opacity="0.8" fill="#FFFFFF" enable-background="new    " d="M62.6,41.8c0,0,0.5-1.2,1-1.5"/>
	</g>
	<g>
		<path fill="#55C2E2" stroke="#070707" stroke-width="0.5" stroke-miterlimit="10" d="M66.7,75.6c0,0-3.6,4.2-0.4,5.1
			c0,0,2.6-0.1,1.5-3.1C67.7,77.6,66.7,76.5,66.7,75.6z"/>
		<path fill="none" stroke="#3A97AD" stroke-miterlimit="10" d="M66.5,80.4c0.5,0.2,1.4-1,1.3-1.5"/>
		
			<ellipse transform="matrix(0.6126 0.7904 -0.7904 0.6126 88.5329 -21.1871)" opacity="0.8" fill="#FFFFFF" enable-background="new    " cx="65.9" cy="79.7" rx="0.3" ry="0.2"/>
		<path opacity="0.8" fill="#FFFFFF" enable-background="new    " d="M65.6,77.4c0,0,0.5-1.2,1-1.5"/>
	</g>
</g>
</svg>
