<?xml version="1.0" encoding="utf-8"?>
<!-- Generator: Adobe Illustrator 17.1.0, SVG Export Plug-In . SVG Version: 6.00 Build 0)  -->
<!DOCTYPE svg PUBLIC "-//W3C//DTD SVG 1.1//EN" "http://www.w3.org/Graphics/SVG/1.1/DTD/svg11.dtd">
<svg version="1.1" xmlns="http://www.w3.org/2000/svg" xmlns:xlink="http://www.w3.org/1999/xlink" x="0px" y="0px"
	 viewBox="0 0 234 361" enable-background="new 0 0 234 361" xml:space="preserve">
<pattern  y="-13" width="8.7" height="8.7" patternUnits="userSpaceOnUse" id="New_Pattern_Swatch_12" viewBox="0 -8.7 8.7 8.7" overflow="visible">
	<g>
		<polygon fill="none" points="8.7,0 0,0 0,-8.7 8.7,-8.7 		"/>
		<g>
			<path fill="#010101" d="M5-4.5c0,0.4-0.3,0.7-0.7,0.7C4-3.8,3.7-4.1,3.7-4.5c0-0.4,0.3-0.7,0.7-0.7C4.7-5.2,5-4.9,5-4.5z"/>
		</g>
	</g>
</pattern>
<g id="legs">
	<path fill="#FFFFFF" stroke="#010101" stroke-miterlimit="10" d="M90.3,123.8l-17.5-14c0,0,2.4,0.5,3.7,0.6c0,0-12.6-20.1-6.2-31.3
		c0,0-1.7,15.8,6.6,28.2c0,0-2.6-7.4-0.6-8.6c0,0-0.2,7.2,5.7,14.5l7.7,5.3L90.3,123.8z"/>
	<path fill="#FFFFFF" stroke="#010101" stroke-miterlimit="10" d="M96.9,127.7c0,0-8.7-0.6-8.7-4.1c0-1.7,0.3-3.3,1.1-4.3
		c0.8-1.1,2.1-1.7,4.1-1.5C93.5,117.7,98.1,126.1,96.9,127.7z"/>
	<path fill="#FFFFFF" stroke="#010101" stroke-miterlimit="10" d="M156.4,123.8l17.5-14c0,0-2.4,0.5-3.7,0.6c0,0,12.6-20.1,6.2-31.3
		c0,0,1.7,15.8-6.6,28.2c0,0,2.6-7.4,0.6-8.6c0,0,0.2,7.2-5.7,14.5l-7.7,5.3L156.4,123.8z"/>
	<path fill="#FFFFFF" stroke="#010101" stroke-miterlimit="10" d="M149.8,127.7c0,0,8.7-0.6,8.7-4.1c0-1.7-0.3-3.3-1.1-4.3
		c-0.8-1.1-2.1-1.7-4.1-1.5C153.3,117.7,148.6,126.1,149.8,127.7z"/>
	<path fill="#FFFFFF" stroke="#010101" stroke-miterlimit="10" d="M60.4,177.5c0,0-10,22.3-10.8,37.8c-0.8,15.5-0.5,29.4,3.2,30.6
		c0,0-3-13.9-1.3-18.5c0,0,1.3,0,1,3.7c0,0,2.2-4.2,0.2-8.9c0,0,1-26.4,13.3-41.5L60.4,177.5z"/>
	<path fill="#FFFFFF" stroke="#010101" stroke-miterlimit="10" d="M81.9,167.3c0,0-13.8,1.4-18.5,5.2c0,0-8.4,9,2.5,8.2
		c10.9-0.8,10.9-0.8,10.9-0.8S77,171.3,81.9,167.3z"/>
	<path fill="#FFFFFF" stroke="#010101" stroke-miterlimit="10" d="M67.4,246.2c0,0-15.4,19.8-16.7,24.3c0,0,5,2.5,9.5,1l7.4-9.3
		L67.4,246.2z"/>
	<path fill="#FFFFFF" stroke="#010101" stroke-miterlimit="10" d="M53.3,271.6c0,0,2.6,57.2-1.4,64.9c0,0,6.5-5.2,4.7-21.7
		c0,0,2.4,2.8,2.4,6.2c0,0,1-6.8-3.6-12l1.5-36.7L53.3,271.6z"/>
	<path fill="#FFFFFF" stroke="#010101" stroke-miterlimit="10" d="M189.5,177.5c0,0,10,22.3,10.8,37.8c0.8,15.5,0.5,29.4-3.2,30.6
		c0,0,3-13.9,1.3-18.5c0,0-1.3,0-1,3.7c0,0-2.2-4.2-0.2-8.9c0,0-1-26.4-13.3-41.5L189.5,177.5z"/>
	<path fill="#FFFFFF" stroke="#010101" stroke-miterlimit="10" d="M168.1,167.3c0,0,13.8,1.4,18.5,5.2c0,0,8.4,9-2.5,8.2
		c-10.9-0.8-10.9-0.8-10.9-0.8S172.9,171.3,168.1,167.3z"/>
	<path fill="#FFFFFF" stroke="#010101" stroke-miterlimit="10" d="M182.6,245.9c0,0,15.4,19.8,16.7,24.3c0,0-5,2.5-9.5,1l-7.4-9.3
		L182.6,245.9z"/>
	<path fill="#FFFFFF" stroke="#010101" stroke-miterlimit="10" d="M196.6,271.3c0,0-2.6,57.2,1.4,64.9c0,0-6.5-5.2-4.7-21.7
		c0,0-2.4,2.8-2.4,6.2c0,0-1-6.8,3.6-12L193,272L196.6,271.3z"/>
</g>
<g id="basebody_1_">
	<path fill="#FFFFFF" stroke="#010101" stroke-miterlimit="10" d="M126.9,170.7c0,0-37.3-3.7-38.6-11.9c0,0-16.5,1.4-15.8,22.9
		c0.6,21.6-3.8,81.8-7.6,85.6c-3.8,3.8-15.2,35.9,21.5,54.3c0,0,12.7,13.3,20.3,11c0,0,1.3-21.1,19.6-20.6L126.9,170.7z"/>
	<path fill="#FFFFFF" stroke="#010101" stroke-miterlimit="10" d="M124.1,170.7c0,0,37.3-3.7,38.6-11.9c0,0,16.5,1.4,15.8,22.9
		c-0.6,21.6,3.8,81.8,7.6,85.6c3.8,3.8,15.2,35.9-21.5,54.3c0,0-12.7,13.3-20.3,11c0,0,1.3-21.1-17.1-20.6L124.1,170.7z"/>
	<path fill="#FFFFFF" stroke="#010101" stroke-miterlimit="10" d="M95.2,128.9c0,0-3.2-19.1,7.7-23.9c10.8-4.8,13.3-6.9,13.3-6.9
		s6.9-4.5,14.9,0c0,0,2.4,2.1,13.3,6.9c10.8,4.8,7.7,23.9,7.7,23.9S124.1,155.1,95.2,128.9z"/>
	<path fill="#FFFFFF" stroke="#010101" stroke-miterlimit="10" d="M97.3,165.6c0,0-19.3-26.3-0.3-37.9c0,0,10.4-7.7,18.3-7.8
		c7.9-0.1,25.7-2.6,34,5.4c8.2,7.9,11.6,12.5,9.5,22c-2.1,9.5-2.5,21.1-11.8,24.4C137.6,175,116,185.8,97.3,165.6z"/>
	<path fill="#FFFFFF" stroke="#010101" stroke-miterlimit="10" d="M123.1,173.1c-8.5,0-15.8-3.4-22.3-10.3c-2.7-3.9-9-14.9-7.4-23.2
		c0.7-3.4,2.6-6,5.9-8.1l0.3-0.2c2.6-1.9,10.4-6.9,15.8-7c1.3,0,2.8-0.1,4.5-0.2c2.4-0.1,5.1-0.3,8-0.3c9.1,0,15.1,1.5,18.2,4.6
		c7.9,7.6,9.8,10.7,8.2,17.8c-0.4,1.7-0.7,3.5-1,5.2c-1.6,8.8-3,14.2-7.9,16c-0.8,0.3-1.8,0.7-2.8,1
		C137.6,170.5,130.6,173.1,123.1,173.1z"/>
	<path fill="#FFFFFF" stroke="#010101" stroke-miterlimit="10" d="M123.4,173.1c-8.5,0-15.8-3.4-22.3-10.3c-2.7-3.9-9-14.9-7.4-23.2
		c0.7-3.4,2.6-6,5.9-8.1l0.3-0.2c2.6-1.9,10.4-6.9,15.8-7c1.3,0,2.8-0.1,4.5-0.2c2.4-0.1,5.1-0.3,8-0.3c9.1,0,15.1,1.5,18.2,4.6
		c7.9,7.6,9.8,10.7,8.2,17.8c-0.4,1.7-0.7,3.5-1,5.2c-1.6,8.8-3,14.2-7.9,16c-0.8,0.3-1.8,0.7-2.8,1
		C137.9,170.5,130.9,173.1,123.4,173.1z"/>
</g>
<g id="bodycolor">
	<g>
		<g>
			<path fill="none" stroke="#010101" stroke-miterlimit="10" d="M81.5,154.3"/>
		</g>
	</g>
	<path fill="#6CBE45" stroke="#010101" stroke-miterlimit="10" d="M126.5,170.7c0,0-37.3-3.7-38.6-11.9c0,0-16.5,1.4-15.8,22.9
		c0.6,21.6-3.8,81.8-7.6,85.6c-3.8,3.8-15.2,35.9,21.5,54.3c0,0,12.7,13.3,20.3,11c0,0,1.3-21.1,19.6-20.6L126.5,170.7z"/>
	<path fill="#D0DD28" stroke="#010101" stroke-miterlimit="10" d="M123.7,170.7c0,0,37.3-3.7,38.6-11.9c0,0,16.5,1.4,15.8,22.9
		c-0.6,21.6,3.8,81.8,7.6,85.6c3.8,3.8,15.2,35.9-21.5,54.3c0,0-12.7,13.3-20.3,11c0,0,1.3-21.1-17.1-20.6L123.7,170.7z"/>
	<path fill="#6CBE45" stroke="#010101" stroke-miterlimit="10" d="M94.9,128.9c0,0-3.2-19.1,7.7-23.9c10.8-4.8,13.3-6.9,13.3-6.9
		s6.9-4.5,14.9,0c0,0,2.4,2.1,13.3,6.9c10.8,4.8,7.7,23.9,7.7,23.9S123.8,155.1,94.9,128.9z"/>
	<path fill="#6CBE45" stroke="#010101" stroke-miterlimit="10" d="M96.9,165.6c0,0-19.3-26.3-0.3-37.9c0,0,10.4-7.7,18.3-7.8
		c7.9-0.1,25.7-2.6,34,5.4c8.2,7.9,11.6,12.5,9.5,22c-2.1,9.5-2.5,21.1-11.8,24.4C137.2,175,115.6,185.8,96.9,165.6z"/>
	<path fill="#FFFFFF" stroke="#010101" stroke-miterlimit="10" d="M122.7,173.1c-8.5,0-15.8-3.4-22.3-10.3c-2.7-3.9-9-14.9-7.4-23.2
		c0.7-3.4,2.6-6,5.9-8.1l0.3-0.2c2.6-1.9,10.4-6.9,15.8-7c1.3,0,2.8-0.1,4.5-0.2c2.4-0.1,5.1-0.3,8-0.3c9.1,0,15.1,1.5,18.2,4.6
		c7.9,7.6,9.8,10.7,8.2,17.8c-0.4,1.7-0.7,3.5-1,5.2c-1.6,8.8-3,14.2-7.9,16c-0.8,0.3-1.8,0.7-2.8,1
		C137.2,170.5,130.3,173.1,122.7,173.1z"/>
	<path fill="#D0DD28" stroke="#010101" stroke-miterlimit="10" d="M123,173.1c-8.5,0-15.8-3.4-22.3-10.3c-2.7-3.9-9-14.9-7.4-23.2
		c0.7-3.4,2.6-6,5.9-8.1l0.3-0.2c2.6-1.9,10.4-6.9,15.8-7c1.3,0,2.8-0.1,4.5-0.2c2.4-0.1,5.1-0.3,8-0.3c9.1,0,15.1,1.5,18.2,4.6
		c7.9,7.6,9.8,10.7,8.2,17.8c-0.4,1.7-0.7,3.5-1,5.2c-1.6,8.8-3,14.2-7.9,16c-0.8,0.3-1.8,0.7-2.8,1
		C137.5,170.5,130.6,173.1,123,173.1z"/>
</g>
<g id="eyes">
	<path fill="#FFFFFF" stroke="#010101" stroke-miterlimit="10" d="M98.7,108.3c0,0,6.9-8.6,12.5-4.7c0,0-1.3,10.8-13,5.9L98.7,108.3
		z"/>
	<path fill="#FFFFFF" stroke="#010101" stroke-miterlimit="10" d="M148.9,108.3c0,0-6.9-8.6-12.5-4.7c0,0,1.3,10.8,13,5.9
		L148.9,108.3z"/>
</g>
<g id="antennae">
	<path fill="none" stroke="#010101" stroke-width="0.5" stroke-miterlimit="10" d="M131.6,98.5c0,0,3.8-4.5,13.5-5.1
		c9.7-0.6,22.1-6.6,27.7-19.3c5.7-12.7,33.3-36.7,31.5-45.2"/>
	<path fill="none" stroke="#010101" stroke-width="0.5" stroke-miterlimit="10" d="M117,98.5c0,0-3.8-4.5-13.5-5.1
		c-9.7-0.6-22.1-6.6-27.7-19.3c-5.7-12.7-33.3-36.7-31.5-45.2"/>
</g>
<g id="markings">
	<path fill="#010101" d="M176.8,274.9c30.9,19.1-26.6,41.5-26.6,41.5S160.5,264.8,176.8,274.9z"/>
	<path fill="#010101" d="M77.4,274.9C45.3,292,104,316.4,104,316.4S95.9,265,77.4,274.9z"/>
</g>
<g id="dots" display="none">
	<path display="inline" fill="url(#New_Pattern_Swatch_12)" stroke="#010101" stroke-miterlimit="10" d="M118.3,310.2"/>
	<path display="inline" fill="url(#New_Pattern_Swatch_12)" stroke="#010101" stroke-miterlimit="10" d="M118.4,310.2"/>
	<path display="inline" fill="url(#New_Pattern_Swatch_12)" stroke="#010101" stroke-miterlimit="10" d="M127.2,311.9
		c18.3,0.8,17.1,20.6,17.1,20.6c7.1,3.3,20.3-11,20.3-11c9.2-3.4,18.6-14.6,18.6-14.6c15.6-20.7,2.1-41.5,2.1-41.5
		c-3-3.8-6.4-64-6.7-84.7c-0.3-20.7-15.8-22-15.8-22c0.1,2.6-8.4,6-8.4,6l-3.1,4.3c0,0-1.8,1.4-6.5,3.4c-4.7,2-17.9,5.4-17.9,5.4
		l-2.5-0.4L127.2,311.9z"/>
	<path display="inline" fill="url(#New_Pattern_Swatch_12)" stroke="#010101" stroke-miterlimit="10" d="M124,312.4
		c-18.3,0.8-17.1,20.6-17.1,20.6c-7.1,3.3-20.3-11-20.3-11c-9.2-3.4-18.6-14.6-18.6-14.6c-15.6-20.7-2.1-41.5-2.1-41.5
		c3-3.8,6.4-64,6.7-84.7c0.3-20.7,15.8-22,15.8-22c-0.1,2.6,8.4,6,8.4,6l3.1,4.3c0,0,1.8,1.4,6.5,3.4c4.7,2,17.9,5.4,17.9,5.4
		l2.5-0.4L124,312.4z"/>
</g>
<g id="fur">
	<g>
		<g>
			<g>
				<g>
					<path fill="none" stroke="#010101" stroke-miterlimit="10" d="M127.6,309.9c0,0,0.6,1.1,1,2.3c0.5,1.1,0.8,2.3,0.8,2.3
						s0.2-0.3,0.5-0.7c0.3-0.4,0.7-0.9,1.1-1.4c0.4-0.5,0.9-1,1.3-1.3c0.4-0.3,0.6-0.6,0.6-0.6"/>
				</g>
				<g>
					<path fill="none" stroke="#010101" stroke-miterlimit="10" d="M134,310.8c0,0,0.2,1.3,0.3,2.5c0,0.6,0,1.2,0,1.7
						c0,0.5,0,0.8,0,0.8s1-0.8,2.2-1.4c0.6-0.3,1.2-0.6,1.7-0.8c0.5-0.2,0.8-0.3,0.8-0.3"/>
				</g>
				<g>
					<path fill="none" stroke="#010101" stroke-miterlimit="10" d="M139.8,314c0,0-0.2,1.2-0.7,2.4c-0.2,0.6-0.4,1.1-0.6,1.6
						c-0.2,0.4-0.3,0.7-0.3,0.7s0.3-0.1,0.8-0.2c0.5-0.1,1.1-0.2,1.8-0.2c0.7-0.1,1.3-0.1,1.8-0.1c0.5,0,0.9,0,0.9,0"/>
				</g>
				<g>
					<path fill="none" stroke="#010101" stroke-miterlimit="10" d="M143.9,319.1c0,0-0.7,1-1.5,2c-0.8,0.9-1.7,1.8-1.7,1.8
						s1.3,0.1,2.6,0.4c1.3,0.3,2.6,0.7,2.6,0.7"/>
				</g>
				<g>
					<path fill="none" stroke="#010101" stroke-miterlimit="10" d="M146.1,325c0,0-1,0.8-2,1.5c-1,0.7-2,1.4-2,1.4s1.2,0.4,2.4,1
						c1.2,0.5,2.4,1.2,2.4,1.2"/>
				</g>
				<g>
					<path fill="none" stroke="#010101" stroke-miterlimit="10" d="M147.6,330.7c0,0,0.6,1,1.4,2c0.4,0.5,0.8,0.9,1.2,1.3
						c0.3,0.3,0.6,0.5,0.6,0.5s0.3-1.3,0.4-2.6c0.1-1.3,0.2-2.6,0.2-2.6"/>
				</g>
				<g>
					<path fill="none" stroke="#010101" stroke-miterlimit="10" d="M152,328.9c0,0,1,0.8,2,1.5c1,0.7,2.1,1.4,2.1,1.4s0-1.3-0.1-2.6
						c-0.1-1.3-0.2-2.6-0.2-2.6"/>
				</g>
				<g>
					<path fill="none" stroke="#010101" stroke-miterlimit="10" d="M156.3,326c0,0,1.1,0.6,2.2,1.2c1.1,0.6,2.2,1.1,2.2,1.1
						s-0.2-1.3-0.4-2.6c-0.2-1.3-0.5-2.6-0.5-2.6"/>
				</g>
				<g>
					<path fill="none" stroke="#010101" stroke-miterlimit="10" d="M160.4,322.5c0,0,1.1,0.5,2.3,1c1.1,0.5,2.3,0.9,2.3,0.9
						l-0.3-1.1c-0.1-0.4-0.2-0.7-0.3-1.1c0-0.5,0.1-1,0.1-1.5l0.1-1.5"/>
				</g>
				<g>
					<path fill="none" stroke="#010101" stroke-miterlimit="10" d="M165.4,318.7c0,0,1,0.8,2,1.5c1,0.8,2,1.4,2,1.4s0-1.3,0-2.6
						c0-1.3-0.1-2.6-0.1-2.6"/>
				</g>
				<g>
					<path fill="none" stroke="#010101" stroke-miterlimit="10" d="M170,316c0,0,1,0.7,2.1,1.3c1.1,0.6,2.1,1.3,2.1,1.3
						s-0.1-1.3-0.2-2.6c-0.1-1.3-0.3-2.6-0.3-2.6"/>
				</g>
				<g>
					<path fill="none" stroke="#010101" stroke-miterlimit="10" d="M174.3,312.8c0,0,1.1,0.6,2.2,1.1c1.1,0.5,2.3,1,2.3,1
						s-0.2-1.3-0.5-2.6c-0.3-1.3-0.7-2.5-0.7-2.5"/>
				</g>
				<g>
					<path fill="none" stroke="#010101" stroke-miterlimit="10" d="M178.2,309.2c0,0,1.2,0.5,2.3,0.8c1.2,0.4,2.4,0.7,2.4,0.7
						s-0.4-1.3-0.8-2.5c-0.5-1.2-1-2.4-1-2.4"/>
				</g>
				<g>
					<path fill="none" stroke="#010101" stroke-miterlimit="10" d="M181.6,305.2c0,0,0.3,0.1,0.8,0.2c0.4,0.1,1,0.2,1.6,0.3
						c1.2,0.2,2.4,0.4,2.4,0.4s-0.1-0.3-0.4-0.7c-0.2-0.4-0.5-1-0.8-1.6c-0.6-1.2-1.3-2.2-1.3-2.2"/>
				</g>
				<g>
					<path fill="none" stroke="#010101" stroke-miterlimit="10" d="M184.3,300.8c0,0,1.2,0.1,2.4,0.1c1.2,0,2.5,0,2.5,0
						s-0.8-1.1-1.5-2.2c-0.4-0.5-0.8-1-1.1-1.4c-0.3-0.4-0.5-0.6-0.5-0.6"/>
				</g>
				<g>
					<path fill="none" stroke="#010101" stroke-miterlimit="10" d="M186.4,296c0,0,1.2-0.1,2.5-0.2c1.2-0.2,2.4-0.4,2.4-0.4
						s-0.9-1-1.8-1.9c-1-0.9-1.9-1.7-1.9-1.7"/>
				</g>
				<g>
					<path fill="none" stroke="#010101" stroke-miterlimit="10" d="M187.6,290.9c0,0,1.2-0.3,2.4-0.6c0.6-0.2,1.2-0.4,1.6-0.5
						c0.4-0.1,0.7-0.2,0.7-0.2s-1.1-0.8-2.1-1.6c-0.5-0.4-1.1-0.7-1.5-1c-0.4-0.3-0.7-0.4-0.7-0.4"/>
				</g>
				<g>
					<path fill="none" stroke="#010101" stroke-miterlimit="10" d="M188.1,285.7c0,0,1.1-0.5,2.2-1c1.1-0.5,2.2-1.1,2.2-1.1
						s-1.2-0.7-2.3-1.2c-0.6-0.3-1.2-0.6-1.6-0.8c-0.4-0.2-0.7-0.3-0.7-0.3"/>
				</g>
				<g>
					<path fill="none" stroke="#010101" stroke-miterlimit="10" d="M187.8,280.5c0,0,1-0.6,2.1-1.3c1-0.7,2-1.4,2-1.4
						s-1.2-0.5-2.5-0.9c-1.3-0.4-2.5-0.7-2.5-0.7"/>
				</g>
				<g>
					<path fill="none" stroke="#010101" stroke-miterlimit="10" d="M186.7,275.4c0,0,1-0.8,1.9-1.6c0.9-0.8,1.8-1.7,1.8-1.7
						s-1.3-0.3-2.6-0.5c-0.7-0.1-1.3-0.1-1.8-0.2c-0.5,0-0.8,0-0.8,0"/>
				</g>
				<g>
					<path fill="none" stroke="#010101" stroke-miterlimit="10" d="M184.8,270.8c0,0,0.8-0.9,1.4-1.9c0.3-0.5,0.6-1.1,0.7-1.6
						c0-0.1,0.1-0.2,0.1-0.3l0-0.1l0,0l0,0l0,0c0.3,0.3,0.1,0.1,0.1,0.2l0,0l0,0l0,0c0,0,0-0.1,0.1-0.1c0.1-0.1,0.1-0.2,0.1-0.2
						s-0.3,0-0.8,0.1c-0.4,0.1-1,0.1-1.7,0c-0.6-0.1-1.3-0.3-1.8-0.5c-0.5-0.2-0.8-0.3-0.8-0.3"/>
				</g>
				<g>
					<path fill="none" stroke="#010101" stroke-miterlimit="10" d="M182.1,265.1c0,0,1-0.8,2-1.5c1-0.7,2-1.4,2-1.4
						s-1.2-0.4-2.5-0.9c-1.2-0.5-2.5-1-2.5-1"/>
				</g>
				<g>
					<path fill="none" stroke="#010101" stroke-miterlimit="10" d="M181,259.4c0,0,1-0.7,2.1-1.4c1-0.7,2.1-1.3,2.1-1.3
						s-1.2-0.5-2.4-1c-1.2-0.5-2.4-1-2.4-1"/>
				</g>
				<g>
					<polyline fill="none" stroke="#010101" stroke-miterlimit="10" points="180.2,253.8 184.4,251.2 179.6,249 					"/>
				</g>
				<g>
					<polyline fill="none" stroke="#010101" stroke-miterlimit="10" points="179.5,248.1 183.8,245.6 179,243.4 					"/>
				</g>
				<g>
					<polyline fill="none" stroke="#010101" stroke-miterlimit="10" points="178.9,242.5 183.2,240.1 178.4,237.8 					"/>
				</g>
				<g>
					<polyline fill="none" stroke="#010101" stroke-miterlimit="10" points="178.4,236.9 182.7,234.5 178,232.2 					"/>
				</g>
				<g>
					<polyline fill="none" stroke="#010101" stroke-miterlimit="10" points="177.9,231.3 182.2,228.9 177.5,226.5 					"/>
				</g>
				<g>
					<polyline fill="none" stroke="#010101" stroke-miterlimit="10" points="177.4,225.6 181.8,223.3 177.1,220.9 					"/>
				</g>
				<g>
					<polyline fill="none" stroke="#010101" stroke-miterlimit="10" points="177.1,220 181.4,217.7 176.8,215.3 					"/>
				</g>
				<g>
					<polyline fill="none" stroke="#010101" stroke-miterlimit="10" points="176.7,214.4 181.1,212.1 176.4,209.7 					"/>
				</g>
				<g>
					<polyline fill="none" stroke="#010101" stroke-miterlimit="10" points="176.4,208.8 180.8,206.5 176.2,204 					"/>
				</g>
				<g>
					<polyline fill="none" stroke="#010101" stroke-miterlimit="10" points="176.1,203.1 180.6,200.9 176,198.4 					"/>
				</g>
				<g>
					<polyline fill="none" stroke="#010101" stroke-miterlimit="10" points="175.9,197.5 180.4,195.3 175.8,192.7 					"/>
				</g>
				<g>
					<polyline fill="none" stroke="#010101" stroke-miterlimit="10" points="175.8,191.8 180.3,189.7 175.7,187.1 					"/>
				</g>
				<g>
					<path fill="none" stroke="#010101" stroke-miterlimit="10" d="M175.7,186.1c0,0,1.1-0.5,2.3-1c1.1-0.5,2.3-1,2.3-1
						s-1.1-0.7-2.2-1.4c-1.1-0.7-2.3-1.4-2.3-1.4"/>
				</g>
				<g>
					<path fill="none" stroke="#010101" stroke-miterlimit="10" d="M175.8,180.6c0,0,1.1-0.5,2.2-1c1.1-0.5,2.2-1.2,2.2-1.2
						s-1.2-0.6-2.4-1.2c-1.2-0.5-2.4-1-2.4-1"/>
				</g>
				<g>
					<path fill="none" stroke="#010101" stroke-miterlimit="10" d="M175.3,175.5c0,0,1-0.6,2-1.4c1-0.7,1.9-1.6,1.9-1.6
						s-0.3-0.1-0.8-0.2c-0.5-0.1-1.1-0.3-1.8-0.4c-1.3-0.3-2.6-0.4-2.6-0.4"/>
				</g>
				<g>
					<path fill="none" stroke="#010101" stroke-miterlimit="10" d="M173.8,170.7c0,0,0.8-0.9,1.6-1.8c0.8-1,1.5-2,1.5-2
						s-0.3,0-0.8,0c-0.5,0-1.2,0-1.8,0.1c-1.3,0.1-2.5,0.4-2.5,0.4"/>
				</g>
				<g>
					<path fill="none" stroke="#010101" stroke-miterlimit="10" d="M171.1,166.8c0,0,0.5-1.1,1-2.2c0.2-0.6,0.4-1.2,0.5-1.6
						c0.1-0.5,0.2-0.8,0.2-0.8s-0.3,0.1-0.8,0.2c-0.5,0.2-1.1,0.4-1.7,0.6c-1.2,0.5-2.3,1.2-2.3,1.2"/>
				</g>
				<g>
					<path fill="none" stroke="#010101" stroke-miterlimit="10" d="M167.4,163.8c0,0,0.2-1.2,0.2-2.4c0-1.2,0-2.5,0-2.5
						s-0.3,0.2-0.7,0.5c-0.4,0.3-0.9,0.7-1.4,1.1c-0.5,0.4-0.9,0.9-1.3,1.2c-0.3,0.4-0.5,0.6-0.5,0.6"/>
				</g>
				<g>
					<path fill="none" stroke="#010101" stroke-miterlimit="10" d="M163.3,162.2c0,0,0-0.3-0.1-0.7c0-0.2-0.1-0.5-0.2-0.8
						c-0.1-0.3-0.3-0.6-0.4-0.8c-0.3-0.5-0.8-0.8-1.2-1.1c-0.4-0.2-0.8-0.3-0.7-0.4l0.2,5.3"/>
				</g>
				<g>
					<polyline fill="none" stroke="#010101" stroke-miterlimit="10" points="160.1,164.2 155.9,161.6 156.1,166.8 					"/>
				</g>
			</g>
		</g>
	</g>
	<g>
		<g>
			<g>
				<g>
					<path fill="none" stroke="#010101" stroke-miterlimit="10" d="M122.1,314.2c0,0-0.4-1.1-1-2.2c-0.5-1.1-1.2-2.2-1.2-2.2
						c0,0-0.6,1.2-1.1,2.4c-0.2,0.6-0.4,1.2-0.6,1.7c-0.1,0.5-0.2,0.8-0.2,0.8"/>
				</g>
				<g>
					<path fill="none" stroke="#010101" stroke-miterlimit="10" d="M117.4,314.8c0,0-0.7-0.9-1.6-1.8c-0.4-0.5-0.9-0.9-1.2-1.2
						c-0.4-0.3-0.6-0.5-0.6-0.5s-0.2,1.3-0.2,2.6c0,0.6,0.1,1.3,0.1,1.8c0.1,0.5,0.1,0.8,0.1,0.8"/>
				</g>
				<g>
					<path fill="none" stroke="#010101" stroke-miterlimit="10" d="M113.5,316.9c0,0-1-0.6-2.2-1.1c-0.6-0.2-1.2-0.4-1.6-0.6
						c-0.5-0.1-0.7-0.2-0.7-0.2s0.1,0.3,0.2,0.8c0.1,0.5,0.4,1.1,0.6,1.7c0.3,0.6,0.5,1.2,0.8,1.6c0.2,0.4,0.4,0.7,0.4,0.7"/>
				</g>
				<g>
					<path fill="none" stroke="#010101" stroke-miterlimit="10" d="M110.6,320.5c0,0-1.2-0.2-2.4-0.2c-1.2,0-2.5,0-2.5,0
						s0.8,1.1,1.6,2.1c0.8,1,1.8,1.9,1.8,1.9"/>
				</g>
				<g>
					<path fill="none" stroke="#010101" stroke-miterlimit="10" d="M108.9,325.1c0,0-1.2,0.2-2.4,0.4c-1.2,0.3-2.4,0.6-2.4,0.6
						s1,0.9,2,1.7c1,0.8,2.1,1.5,2.1,1.5"/>
				</g>
				<g>
					<path fill="none" stroke="#010101" stroke-miterlimit="10" d="M101.1,334.8c0,0-0.4-1.2-0.6-2.5c-0.2-1.2-0.2-2.4-0.2-2.4
						s-1,0.9-2.1,1.6c-1.1,0.7-2.3,1.4-2.3,1.4"/>
				</g>
				<g>
					<path fill="none" stroke="#010101" stroke-miterlimit="10" d="M95.2,332.4c0,0,0.1-1.3,0.2-2.5c0.1-1.2,0.4-2.4,0.4-2.4
						s-1.2,0.6-2.4,1.1c-1.2,0.5-2.4,1-2.4,1"/>
				</g>
				<g>
					<path fill="none" stroke="#010101" stroke-miterlimit="10" d="M90.2,329.1c0,0,0.3-1.2,0.6-2.4c0.3-1.2,0.6-2.4,0.6-2.4
						s-1.2,0.5-2.5,0.9c-1.2,0.4-2.5,0.8-2.5,0.8"/>
				</g>
				<g>
					<path fill="none" stroke="#010101" stroke-miterlimit="10" d="M85.7,325.3c0,0,0.4-1.2,0.8-2.4c0.4-1.2,0.8-2.3,0.8-2.3
						l-1.1,0.3c-0.4,0.1-0.8,0.1-0.7-0.2c-0.6,0.3-1,0.7-1.5,1l-1.4,1.1"/>
				</g>
				<g>
					<path fill="none" stroke="#010101" stroke-miterlimit="10" d="M81.8,322.3c0,0,0.1-1.2,0.2-2.5c0.1-1.2,0.3-2.5,0.3-2.5
						s-1.1,0.6-2.3,1.2c-1.2,0.6-2.4,1.2-2.4,1.2"/>
				</g>
				<g>
					<path fill="none" stroke="#010101" stroke-miterlimit="10" d="M76.8,319.3c0,0,0.2-1.2,0.4-2.5c0.2-1.2,0.5-2.4,0.5-2.4
						c0,0-1.2,0.6-2.4,1c-1.2,0.5-2.5,0.9-2.5,0.9"/>
				</g>
				<g>
					<path fill="none" stroke="#010101" stroke-miterlimit="10" d="M72,315.8c0,0,0.3-1.2,0.7-2.4c0.3-1.2,0.7-2.4,0.7-2.4
						c0,0-1.2,0.4-2.5,0.8c-1.3,0.3-2.6,0.6-2.6,0.6"/>
				</g>
				<g>
					<path fill="none" stroke="#010101" stroke-miterlimit="10" d="M67.7,311.8c0,0,0.4-1.2,0.9-2.3c0.5-1.1,1-2.2,1-2.2
						s-1.3,0.3-2.6,0.4c-1.3,0.2-2.6,0.3-2.6,0.3"/>
				</g>
				<g>
					<path fill="none" stroke="#010101" stroke-miterlimit="10" d="M63.9,307.2c0,0,0.1-0.3,0.4-0.7c0.2-0.4,0.6-0.9,0.9-1.5
						c0.6-1.1,1.3-2.1,1.3-2.1s-0.3,0-0.8,0c-0.5,0-1.1,0-1.8,0c-1.3,0-2.7-0.1-2.7-0.1"/>
				</g>
				<g>
					<path fill="none" stroke="#010101" stroke-miterlimit="10" d="M60.7,302.1c0,0,0.8-1,1.6-2c0.8-1,1.6-1.8,1.6-1.8
						s-1.3-0.1-2.6-0.3c-0.7-0.1-1.3-0.2-1.8-0.3c-0.5-0.1-0.8-0.2-0.8-0.2"/>
				</g>
				<g>
					<path fill="none" stroke="#010101" stroke-miterlimit="10" d="M58.4,296.5c0,0,0.9-0.9,1.8-1.7c0.9-0.8,1.9-1.6,1.9-1.6
						s-1.3-0.3-2.5-0.7c-1.2-0.4-2.5-0.9-2.5-0.9"/>
				</g>
				<g>
					<path fill="none" stroke="#010101" stroke-miterlimit="10" d="M56.9,290.7c0,0,1-0.7,2.1-1.4c0.5-0.3,1-0.6,1.4-0.9
						c0.4-0.2,0.7-0.4,0.7-0.4c0,0-1.2-0.5-2.4-1.1c-0.6-0.3-1.2-0.6-1.6-0.9c-0.4-0.2-0.7-0.4-0.7-0.4"/>
				</g>
				<g>
					<path fill="none" stroke="#010101" stroke-miterlimit="10" d="M56.4,284.7c0,0,1.1-0.6,2.3-1.1c1.1-0.5,2.3-0.9,2.3-0.9
						s-1.1-0.7-2.2-1.5c-0.5-0.4-1.1-0.8-1.5-1.1c-0.4-0.3-0.7-0.5-0.7-0.5"/>
				</g>
				<g>
					<path fill="none" stroke="#010101" stroke-miterlimit="10" d="M56.7,278.7c0,0,1.2-0.4,2.4-0.7c1.2-0.3,2.4-0.6,2.4-0.6
						s-1-0.8-1.9-1.8c-0.9-0.9-1.9-1.9-1.9-1.9"/>
				</g>
				<g>
					<path fill="none" stroke="#010101" stroke-miterlimit="10" d="M58,272.8c0,0,1.2-0.2,2.5-0.3c1.2-0.1,2.4-0.2,2.4-0.2
						c0,0-0.8-1-1.6-2c-0.4-0.5-0.8-1.1-1-1.5c-0.3-0.4-0.4-0.7-0.4-0.7"/>
				</g>
				<g>
					<path fill="none" stroke="#010101" stroke-miterlimit="10" d="M60.3,267c0,0,1.3,0,2.5,0.2c0.6,0.1,1.2,0.3,1.6,0.5
						c0.1,0,0.2,0.1,0.3,0.1l0.1,0l0,0l0,0l0,0c0.3-0.3,0.1-0.1,0.1-0.2l0,0l0,0l0,0c0,0,0.1,0,0.1,0c0.1,0,0.2,0,0.2,0
						s-0.1-0.3-0.3-0.8c-0.2-0.5-0.5-1.2-0.9-1.7c-0.4-0.5-0.9-1-1.2-1.3c-0.3-0.3-0.6-0.6-0.6-0.6"/>
				</g>
				<g>
					<path fill="none" stroke="#010101" stroke-miterlimit="10" d="M62.5,262.7c0,0,1.2-0.2,2.4-0.4c1.2-0.2,2.4-0.5,2.4-0.5
						s-1-0.9-2-1.8c-1-0.9-2-1.7-2-1.7"/>
				</g>
				<g>
					<path fill="none" stroke="#010101" stroke-miterlimit="10" d="M63.5,257.4c0,0,1.2-0.3,2.4-0.6c1.2-0.3,2.4-0.7,2.4-0.7
						s-1-0.8-2-1.7c-1-0.8-2-1.6-2-1.6"/>
				</g>
				<g>
					<polyline fill="none" stroke="#010101" stroke-miterlimit="10" points="64.3,251.9 69,250.5 64.9,247.3 					"/>
				</g>
				<g>
					<polyline fill="none" stroke="#010101" stroke-miterlimit="10" points="65,246.4 69.7,244.9 65.5,241.7 					"/>
				</g>
				<g>
					<polyline fill="none" stroke="#010101" stroke-miterlimit="10" points="65.6,240.9 70.3,239.3 66,236.2 					"/>
				</g>
				<g>
					<polyline fill="none" stroke="#010101" stroke-miterlimit="10" points="66.1,235.3 70.8,233.7 66.5,230.6 					"/>
				</g>
				<g>
					<polyline fill="none" stroke="#010101" stroke-miterlimit="10" points="66.6,229.7 71.2,228.1 66.9,225 					"/>
				</g>
				<g>
					<polyline fill="none" stroke="#010101" stroke-miterlimit="10" points="67,224.1 71.6,222.4 67.3,219.4 					"/>
				</g>
				<g>
					<polyline fill="none" stroke="#010101" stroke-miterlimit="10" points="67.4,218.5 72,216.8 67.7,213.8 					"/>
				</g>
				<g>
					<polyline fill="none" stroke="#010101" stroke-miterlimit="10" points="67.7,213 72.4,211.2 68,208.3 					"/>
				</g>
				<g>
					<polyline fill="none" stroke="#010101" stroke-miterlimit="10" points="68.1,207.4 72.7,205.6 68.3,202.7 					"/>
				</g>
				<g>
					<polyline fill="none" stroke="#010101" stroke-miterlimit="10" points="68.3,201.8 72.9,199.9 68.5,197.1 					"/>
				</g>
				<g>
					<polyline fill="none" stroke="#010101" stroke-miterlimit="10" points="68.5,196.2 73.1,194.3 68.6,191.5 					"/>
				</g>
				<g>
					<polyline fill="none" stroke="#010101" stroke-miterlimit="10" points="68.7,190.6 73.2,188.6 68.7,185.9 					"/>
				</g>
				<g>
					<path fill="none" stroke="#010101" stroke-miterlimit="10" d="M68.7,185c0,0,1.1-0.5,2.2-1c1.1-0.5,2.2-1,2.2-1
						s-1.1-0.7-2.3-1.3c-1.1-0.6-2.2-1.3-2.2-1.3"/>
				</g>
				<g>
					<path fill="none" stroke="#010101" stroke-miterlimit="10" d="M68.7,179.4c0,0,1.1-0.5,2.3-1c1.1-0.5,2.3-0.9,2.3-0.9
						c0,0-1-0.7-2.1-1.5c-1-0.8-2.1-1.7-2.1-1.7"/>
				</g>
				<g>
					<path fill="none" stroke="#010101" stroke-miterlimit="10" d="M69.2,173.3c0,0,1.2-0.3,2.5-0.6c1.2-0.2,2.4-0.4,2.4-0.4
						s-0.2-0.2-0.6-0.6c-0.4-0.4-0.8-0.8-1.2-1.3c-0.8-1-1.6-2.1-1.6-2.1"/>
				</g>
				<g>
					<path fill="none" stroke="#010101" stroke-miterlimit="10" d="M71.1,167.4c0,0,1.3,0,2.5,0c1.2,0.1,2.4,0.3,2.4,0.3
						s-0.2-0.3-0.4-0.7c-0.2-0.4-0.5-1-0.8-1.6c-0.5-1.2-0.9-2.6-0.9-2.6"/>
				</g>
				<g>
					<path fill="none" stroke="#010101" stroke-miterlimit="10" d="M74.7,162c0,0,1.2,0.3,2.4,0.8c0.6,0.2,1.2,0.5,1.6,0.7
						c0.4,0.2,0.7,0.3,0.7,0.3s-0.1-0.3-0.2-0.8c-0.1-0.5-0.2-1.2-0.2-1.8c-0.1-1.3,0-2.7,0-2.7"/>
				</g>
				<g>
					<path fill="none" stroke="#010101" stroke-miterlimit="10" d="M79.8,158c0,0,1.1,0.7,2,1.5c1,0.8,1.8,1.7,1.8,1.7
						s0-0.3,0.1-0.8c0.1-0.5,0.2-1.1,0.3-1.8c0.1-0.7,0.3-1.3,0.5-1.8c0.2-0.5,0.3-0.8,0.3-0.8"/>
				</g>
				<g>
					<path fill="none" stroke="#010101" stroke-miterlimit="10" d="M86.1,155.8c0,0,0.3,0.2,0.6,0.6c0.1,0.2,0.3,0.4,0.4,0.7
						c0.1,0.1,0.1,0.3,0.2,0.4c0,0.1,0.1,0.4,0.1,0.5c0.1,0.7,0.1,1.4,0,1.8c-0.1,0.4-0.2,0.7-0.2,0.7l4.7-2.3"/>
				</g>
				<g>
					<polyline fill="none" stroke="#010101" stroke-miterlimit="10" points="92.6,158.6 91.9,163.5 96.6,161.2 					"/>
				</g>
			</g>
		</g>
	</g>
	<g>
		<g>
			<path fill="none" stroke="#010101" stroke-miterlimit="10" d="M124,171.3"/>
		</g>
	</g>
	<g>
		<g>
			<g>
				<g>
					<path fill="none" stroke="#010101" stroke-miterlimit="10" d="M122,183.6c0,0-0.5-1.1-1-2.3c-0.5-1.1-0.9-2.3-0.9-2.3
						s-0.7,1.1-1.5,2.1c-0.8,1-1.7,2.1-1.7,2.1"/>
				</g>
				<g>
					<path fill="none" stroke="#010101" stroke-miterlimit="10" d="M116.1,183.1c0,0-0.4-1.2-0.6-2.4c-0.3-1.2-0.5-2.4-0.5-2.4
						s-0.9,1-1.8,1.9c-0.9,0.9-2,1.8-2,1.8"/>
				</g>
				<g>
					<path fill="none" stroke="#010101" stroke-miterlimit="10" d="M110.2,181.6c0,0-0.2-1.2-0.2-2.5c-0.1-1.2-0.1-2.5-0.1-2.5
						s-1,0.8-2.1,1.6c-1.1,0.8-2.2,1.4-2.2,1.4"/>
				</g>
				<g>
					<path fill="none" stroke="#010101" stroke-miterlimit="10" d="M104.7,179.2c0,0,0-1.3,0.2-2.5c0.1-1.2,0.3-2.4,0.3-2.4
						s-1.1,0.6-2.3,1.2c-1.2,0.6-2.4,1.1-2.4,1.1"/>
				</g>
				<g>
					<path fill="none" stroke="#010101" stroke-miterlimit="10" d="M99.6,176.1c0,0,0.2-1.2,0.5-2.4c0.3-1.2,0.6-2.4,0.6-2.4
						s-1.2,0.5-2.5,0.9c-1.2,0.4-2.5,0.8-2.5,0.8"/>
				</g>
				<g>
					<path fill="none" stroke="#010101" stroke-miterlimit="10" d="M95.1,172.3c0,0,0.4-1.2,0.8-2.3c0.4-1.2,0.9-2.3,0.9-2.3
						s-0.3,0.1-0.8,0.2c-0.5,0.1-1.1,0.3-1.8,0.4c-1.3,0.1-2.7,0.1-2.7,0.1"/>
				</g>
				<g>
					<path fill="none" stroke="#010101" stroke-miterlimit="10" d="M91,167.5c0,0,0.7-1.1,1.3-2.1c0.7-1,1.4-2,1.4-2
						c0,0-1.3,0-2.6,0c-1.3,0-2.6-0.1-2.6-0.1"/>
				</g>
				<g>
					<path fill="none" stroke="#010101" stroke-miterlimit="10" d="M88.1,162.5c0,0,0.8-1,1.5-1.9c0.8-1,1.6-1.9,1.6-1.9
						s-1.3-0.1-2.6-0.3c-1.3-0.2-2.6-0.4-2.6-0.4"/>
				</g>
				<g>
					<path fill="none" stroke="#010101" stroke-miterlimit="10" d="M85.6,157.2c0,0,0.8-0.9,1.7-1.8c0.9-0.9,1.8-1.7,1.8-1.7
						s-1.3-0.2-2.6-0.5c-1.3-0.3-2.6-0.7-2.6-0.7"/>
				</g>
				<g>
					<path fill="none" stroke="#010101" stroke-miterlimit="10" d="M83.8,151.5c0,0,1-0.8,1.9-1.6c1-0.8,2-1.4,2-1.4
						s-1.2-0.4-2.5-0.9c-1.2-0.5-2.4-1.1-2.4-1.1"/>
				</g>
				<g>
					<path fill="none" stroke="#010101" stroke-miterlimit="10" d="M82.7,145.6c0,0,1.1-0.7,2.2-1.2c1.1-0.6,2.2-1,2.2-1
						s-1.1-0.6-2.2-1.3c-1.1-0.7-2.1-1.6-2.1-1.6"/>
				</g>
				<g>
					<path fill="none" stroke="#010101" stroke-miterlimit="10" d="M82.9,139.4c0,0,1.2-0.4,2.4-0.7c1.2-0.3,2.4-0.5,2.4-0.5
						s-1-0.9-1.8-1.9c-0.9-1-1.6-2.1-1.6-2.1"/>
				</g>
				<g>
					<path fill="none" stroke="#010101" stroke-miterlimit="10" d="M84.6,133.3c0,0,1.3-0.1,2.5,0c1.2,0.1,2.4,0.3,2.4,0.3
						s-0.7-1.1-1.2-2.3c-0.5-1.2-0.9-2.5-0.9-2.5"/>
				</g>
				<g>
					<path fill="none" stroke="#010101" stroke-miterlimit="10" d="M88.2,128c0,0,1.2,0.3,2.4,0.8c1.2,0.4,2.3,1,2.3,1
						s-0.3-1.2-0.5-2.6c-0.2-1.3-0.2-2.7-0.2-2.7"/>
				</g>
				<g>
					<path fill="none" stroke="#010101" stroke-miterlimit="10" d="M93,124c0,0,0.3,0.2,0.7,0.4c0.3,0.3,0.8,0.6,1.4,0.9
						c1.1,0.6,2.1,1.3,2.1,1.3S97,125.3,97,124c0-1.3,0-2.6,0-2.6"/>
				</g>
				<g>
					<path fill="none" stroke="#010101" stroke-miterlimit="10" d="M97.8,120.8c0,0,1,0.7,2,1.4c1,0.7,2,1.5,2,1.5s0-1.3,0.1-2.6
						c0.1-1.3,0.2-2.6,0.2-2.6"/>
				</g>
				<g>
					<path fill="none" stroke="#010101" stroke-miterlimit="10" d="M103,118.1c0,0,1,0.8,1.9,1.6c0.9,0.8,1.8,1.7,1.8,1.7
						s0.2-1.3,0.4-2.6c0.2-1.3,0.6-2.6,0.6-2.6"/>
				</g>
				<g>
					<path fill="none" stroke="#010101" stroke-miterlimit="10" d="M108.6,116c0,0,0.8,0.9,1.6,1.9c0.8,1,1.5,2,1.5,2
						s0.4-1.2,0.9-2.4c0.5-1.2,1.2-2.4,1.2-2.4"/>
				</g>
				<g>
					<path fill="none" stroke="#010101" stroke-miterlimit="10" d="M114.8,115c0,0,0.5,1.1,1,2.2c0.6,1.1,1.1,2.2,1.1,2.2l2.5-4.6"
						/>
				</g>
				<g>
					<path fill="none" stroke="#010101" stroke-miterlimit="10" d="M120.3,114.7l2.2,4.4c0,0,0.6-1.2,1.3-2.3
						c0.6-1.1,1.3-2.3,1.3-2.3"/>
				</g>
				<g>
					<path fill="none" stroke="#010101" stroke-miterlimit="10" d="M126,114.5c0,0,0.5,1.1,1,2.2c0.5,1.1,1,2.3,1,2.3
						s0.7-1.1,1.4-2.2c0.7-1.1,1.4-2.2,1.4-2.2"/>
				</g>
				<g>
					<path fill="none" stroke="#010101" stroke-miterlimit="10" d="M131.7,114.6c0,0,0.5,1.2,0.9,2.3c0.4,1.2,0.8,2.3,0.8,2.3
						s0.7-1.1,1.5-2.1c0.8-1,1.7-2.1,1.7-2.1"/>
				</g>
				<g>
					<path fill="none" stroke="#010101" stroke-miterlimit="10" d="M137.6,115.2c0,0,0.4,1.2,0.6,2.4c0.3,1.2,0.5,2.4,0.5,2.4
						s0.9-1,1.8-1.9c0.9-0.9,2-1.8,2-1.8"/>
				</g>
				<g>
					<path fill="none" stroke="#010101" stroke-miterlimit="10" d="M143.4,116.6c0,0,0.2,1.2,0.3,2.5c0.1,1.2,0.1,2.5,0.1,2.5
						s1-0.8,2.1-1.5c1.1-0.7,2.3-1.3,2.3-1.3"/>
				</g>
				<g>
					<path fill="none" stroke="#010101" stroke-miterlimit="10" d="M149.1,119.2c0,0-0.1,1.3-0.3,2.5c-0.2,1.2-0.6,2.4-0.6,2.4
						s1.2-0.5,2.4-0.9c1.3-0.3,2.6-0.7,2.6-0.7"/>
				</g>
				<g>
					<path fill="none" stroke="#010101" stroke-miterlimit="10" d="M153.8,123.2c0,0-0.4,1.2-0.9,2.3c-0.4,1.1-0.9,2.3-0.9,2.3
						s1.3-0.3,2.5-0.6c1.3-0.3,2.6-0.5,2.6-0.5"/>
				</g>
				<g>
					<path fill="none" stroke="#010101" stroke-miterlimit="10" d="M157.8,127.4c0,0-0.5,1.1-1,2.3c-0.5,1.1-1.1,2.2-1.1,2.2
						s1.3-0.2,2.6-0.3c1.3-0.1,2.7-0.1,2.7-0.1"/>
				</g>
				<g>
					<path fill="none" stroke="#010101" stroke-miterlimit="10" d="M161.4,132.3c0,0-0.7,1.1-1.5,2c-0.8,1-1.6,1.9-1.6,1.9
						c0,0,1.3,0.1,2.6,0.3c1.3,0.3,2.6,0.7,2.6,0.7"/>
				</g>
				<g>
					<path fill="none" stroke="#010101" stroke-miterlimit="10" d="M163.8,138.2c0,0-1,0.8-2,1.5c-1,0.7-2.1,1.3-2.1,1.3
						s1.2,0.5,2.3,1.1c1.2,0.6,2.2,1.5,2.2,1.5"/>
				</g>
				<g>
					<path fill="none" stroke="#010101" stroke-miterlimit="10" d="M164.2,144.6c0,0-1.2,0.5-2.3,0.9c-1.2,0.4-2.4,0.7-2.4,0.7
						s1,0.8,2,1.7c0.5,0.5,1,0.9,1.3,1.2c0.4,0.3,0.6,0.5,0.6,0.5"/>
				</g>
				<g>
					<path fill="none" stroke="#010101" stroke-miterlimit="10" d="M163.2,150.4c0,0-1.2,0.3-2.4,0.5c-1.2,0.3-2.4,0.6-2.4,0.6
						l3.9,3.5"/>
				</g>
				<g>
					<path fill="none" stroke="#010101" stroke-miterlimit="10" d="M162.2,155.9c0,0-1.2,0.3-2.4,0.6c-1.2,0.3-2.4,0.5-2.4,0.5
						s1,0.9,1.9,1.8c1,0.9,1.9,1.9,1.9,1.9"/>
				</g>
				<g>
					<path fill="none" stroke="#010101" stroke-miterlimit="10" d="M160.9,161.6c0,0-1.2,0.2-2.5,0.4c-1.2,0.2-2.4,0.3-2.4,0.3
						s0.9,0.9,1.7,2c0.8,1,1.6,2.1,1.6,2.1"/>
				</g>
				<g>
					<path fill="none" stroke="#010101" stroke-miterlimit="10" d="M158.9,167.3c0,0-1.3,0-2.5,0c-1.2-0.1-2.4-0.2-2.4-0.2
						s0.7,1.1,1.2,2.3c0.6,1.2,0.9,2.5,0.9,2.5"/>
				</g>
				<g>
					<path fill="none" stroke="#010101" stroke-miterlimit="10" d="M155.5,172.6c0,0-1.2-0.3-2.4-0.8c-1.2-0.4-2.2-1-2.2-1
						s0.3,1.2,0.4,2.6c0.1,1.3-0.1,2.7-0.1,2.7"/>
				</g>
				<g>
					<path fill="none" stroke="#010101" stroke-miterlimit="10" d="M150.2,176.6c0,0-1-0.7-1.9-1.6c-0.5-0.4-0.9-0.9-1.2-1.2
						c-0.3-0.3-0.5-0.6-0.5-0.6c0,0-0.3,1.3-0.5,2.6c-0.2,1.3-0.5,2.6-0.5,2.6"/>
				</g>
				<g>
					<path fill="none" stroke="#010101" stroke-miterlimit="10" d="M144.8,178.7c0,0-0.9-0.9-1.7-1.8c-0.9-0.9-1.7-1.8-1.7-1.8
						s-0.2,1.3-0.5,2.6c-0.3,1.3-0.6,2.6-0.6,2.6"/>
				</g>
				<g>
					<path fill="none" stroke="#010101" stroke-miterlimit="10" d="M139.4,180.6c0,0-0.8-0.9-1.7-1.8c-0.8-0.9-1.6-1.9-1.6-1.9
						s-0.3,1.3-0.7,2.5c-0.4,1.3-0.8,2.5-0.8,2.5"/>
				</g>
				<g>
					<path fill="none" stroke="#010101" stroke-miterlimit="10" d="M133.8,182.2c0,0-0.8-1-1.5-2c-0.7-1-1.4-2-1.4-2
						s-0.4,1.2-0.9,2.5c-0.5,1.2-1,2.4-1,2.4"/>
				</g>
				<g>
					<path fill="none" stroke="#010101" stroke-miterlimit="10" d="M128,183.3c0,0-0.7-1.1-1.3-2.1c-0.6-1.1-1.2-2.2-1.2-2.2
						s-0.6,1.2-1.2,2.3c-0.6,1.2-1.3,2.3-1.3,2.3"/>
				</g>
			</g>
		</g>
	</g>
</g>
<g id="leaf">
	<g>
		<path fill="#A8CF38" stroke="#010101" stroke-width="0.5" stroke-linecap="round" stroke-linejoin="round" d="M118.7,83.4
			c0,0-8.6-15-7.4-22.4l2.1,0.7c0,0-1.8-2.2,0.2-11.3l1.7,1.5c0,0-1.5-4.5,1.4-10.4l1.7,1.5c0,0,0.8-4.1,2.5-8.3l1.9,1.2
			c0,0-0.4-5,1.3-8.5l1.7,1.5c0,0,0.7-6.3,4.1-7.5l0.5,1.5c0,0,2.3-3.9,5.8-6l1.6,1.7c0,0-0.1-3.9,4.3-5.5l0.9,1.4
			c0,0,0.5-5.2,4.6-6l1.2,2.5c0,0,7.1-6.6,8.7-6.8l2.6,1.3c0.3,1.2-0.1,11-0.1,11l2.7-0.6c1.8,3.8-2,7.3-2,7.3l1.7-0.1
			c1.5,4.5-1.7,6.8-1.7,6.8l2.4,0.2c0.5,4-1.2,8.3-1.2,8.3l1.5-0.5c1.2,3.4-3.4,7.8-3.4,7.8l2.2,0.5c-1.8,3.6-6,6.3-6,6.3l2.1,0.7
			c-2.3,3.9-5.1,7-5.1,7l2.2,0.5c-2.9,5.9-7.4,7.5-7.4,7.5l2.2,0.5c-6,7.2-8.8,7.1-8.8,7.1l1.9,1.2c-5.1,5.4-22.3,7.7-22.3,7.7
			L118.7,83.4z"/>
		<path fill="#A8CF38" stroke="#010101" stroke-width="0.5" stroke-linecap="round" stroke-linejoin="round" d="M120.2,84.1
			c0,0-8.6-15-7.4-22.4l2.1,0.7c0,0-1.8-2.2,0.2-11.3l1.7,1.5c0,0-1.5-4.5,1.4-10.4l1.7,1.5c0,0,0.8-4.1,2.5-8.3l1.9,1.2
			c0,0-0.4-5,1.3-8.5l1.7,1.5c0,0,0.7-6.3,4.1-7.5l0.5,1.5c0,0,2.3-3.9,5.8-6l1.6,1.7c0,0-0.1-3.9,4.3-5.5l0.9,1.4
			c0,0,0.5-5.2,4.6-6l1.2,2.5c0,0,7.1-6.6,8.7-6.8l2.6,1.3c0.3,1.2-0.1,11-0.1,11l2.7-0.6c1.8,3.8-2,7.3-2,7.3l1.7-0.1
			c1.5,4.5-1.7,6.8-1.7,6.8l2.4,0.2c0.5,4-1.2,8.3-1.2,8.3l1.5-0.5c1.2,3.4-3.4,7.8-3.4,7.8l2.2,0.5c-1.8,3.6-6,6.3-6,6.3l2.1,0.7
			c-2.3,3.9-5.1,7-5.1,7l2.2,0.5c-2.9,5.9-7.4,7.5-7.4,7.5l2.2,0.5c-6,7.2-8.8,7.1-8.8,7.1l1.9,1.2c-5.1,5.4-22.3,7.7-22.3,7.7
			L120.2,84.1z"/>
		
			<line fill="none" stroke="#010101" stroke-width="0.5" stroke-linecap="round" stroke-linejoin="round" x1="159.7" y1="6.3" x2="121" y2="84.6"/>
		<g>
			
				<line fill="none" stroke="#010101" stroke-width="0.5" stroke-linecap="round" stroke-linejoin="round" x1="150.5" y1="10.6" x2="151.8" y2="17.1"/>
			
				<line fill="none" stroke="#010101" stroke-width="0.5" stroke-linecap="round" stroke-linejoin="round" x1="144.6" y1="15.4" x2="148.4" y2="23"/>
			
				<line fill="none" stroke="#010101" stroke-width="0.5" stroke-linecap="round" stroke-linejoin="round" x1="139.6" y1="19.1" x2="144.7" y2="28.9"/>
			
				<line fill="none" stroke="#010101" stroke-width="0.5" stroke-linecap="round" stroke-linejoin="round" x1="131.7" y1="23.3" x2="140" y2="35"/>
			
				<line fill="none" stroke="#010101" stroke-width="0.5" stroke-linecap="round" stroke-linejoin="round" x1="127.7" y1="29.2" x2="138.1" y2="41.7"/>
			
				<line fill="none" stroke="#010101" stroke-width="0.5" stroke-linecap="round" stroke-linejoin="round" x1="123.8" y1="36.5" x2="134.2" y2="47.9"/>
			
				<line fill="none" stroke="#010101" stroke-width="0.5" stroke-linecap="round" stroke-linejoin="round" x1="119.8" y1="43" x2="128.8" y2="55.1"/>
			
				<line fill="none" stroke="#010101" stroke-width="0.5" stroke-linecap="round" stroke-linejoin="round" x1="116.6" y1="52.2" x2="127.2" y2="65.5"/>
			
				<line fill="none" stroke="#010101" stroke-width="0.5" stroke-linecap="round" stroke-linejoin="round" x1="114.7" y1="62" x2="123.2" y2="76.1"/>
		</g>
		<g>
			
				<line fill="none" stroke="#010101" stroke-width="0.5" stroke-linecap="round" stroke-linejoin="round" x1="162.7" y1="16.7" x2="156.8" y2="19.5"/>
			
				<line fill="none" stroke="#010101" stroke-width="0.5" stroke-linecap="round" stroke-linejoin="round" x1="162.5" y1="24.2" x2="154.2" y2="25.9"/>
			
				<line fill="none" stroke="#010101" stroke-width="0.5" stroke-linecap="round" stroke-linejoin="round" x1="162.6" y1="30.5" x2="151.8" y2="32.4"/>
			
				<line fill="none" stroke="#010101" stroke-width="0.5" stroke-linecap="round" stroke-linejoin="round" x1="164.1" y1="39.3" x2="149.7" y2="39.8"/>
			
				<line fill="none" stroke="#010101" stroke-width="0.5" stroke-linecap="round" stroke-linejoin="round" x1="161.9" y1="46" x2="145.6" y2="45.4"/>
			
				<line fill="none" stroke="#010101" stroke-width="0.5" stroke-linecap="round" stroke-linejoin="round" x1="158.4" y1="53.6" x2="143" y2="52.2"/>
			
				<line fill="none" stroke="#010101" stroke-width="0.5" stroke-linecap="round" stroke-linejoin="round" x1="155.7" y1="60.7" x2="140.6" y2="61"/>
			
				<line fill="none" stroke="#010101" stroke-width="0.5" stroke-linecap="round" stroke-linejoin="round" x1="150.3" y1="68.9" x2="133.4" y2="68.5"/>
			
				<line fill="none" stroke="#010101" stroke-width="0.5" stroke-linecap="round" stroke-linejoin="round" x1="143.7" y1="76.3" x2="127.3" y2="78.1"/>
		</g>
		<path fill="#FFFFFF" stroke="#010101" stroke-width="0.5" stroke-linecap="round" stroke-linejoin="round" d="M166.1,31.6
			c0,0-5.7,1.5-4.2,4.5c0,0-7,1-3.7,6.5c0,0,1.7,3.7,4.7,2.3c0,0-1.9,3,1,2.5c2.9-0.6,2.2-0.7,2.2-0.7"/>
		<path fill="#FFFFFF" stroke="#010101" stroke-width="0.5" stroke-miterlimit="10" d="M128.9,39.2c-0.2,1.3-1,2.4-1.5,3.6
			c1.5,1.2,3.4-1.3,4.1-2.5c-0.8,2-0.2,6.4,2.5,3.3c-0.5,2,0.6,2.3,2.2,3.1c-0.5,1.7-2.2,2.2-3.2,3.5c-0.6,0.8-0.9,1.9-1.4,2.7
			c-1-0.7-1.2-2.1-2.1-2.8c-0.6,0.5-2.5,3-3.3,2.9c-0.9-0.1-1.8-2.3-2.9-2.7c0.4-1,1-2,1.4-3.1c-0.2-0.2-0.4-0.2-0.5-0.3
			c0.3-1.3,2.7-8,4.2-6.4"/>
		<path fill="#FFFFFF" stroke="#010101" stroke-width="0.5" stroke-miterlimit="10" d="M148.4,24.1c1.7-1.5,1.8-3.4,4.2-4.6
			c0.2,0.6-0.3,2.8,0.2,3.1c1.3,1.1,3.5-1.5,4.5-2.3c-0.2,0.5-1.2,2.3-0.9,2.9c0.7,1.4,2.3,0.2,3.4,0.3c-0.7,2-2.4,3.4-3.4,5.4
			c-0.6,1.3-0.8,2.4-1.3,3.7c-2.3-0.8-3.8-2.5-4.3-4.8c-0.7,1.4-3.2,6.1-3.5,2.3c-0.2-2.3,1.6-4.6,1.9-6.8"/>
		<path fill="#FFFFFF" stroke="#010101" stroke-width="0.5" stroke-miterlimit="10" d="M145.7,56.5c-0.1,1.4-2,3-2,4.4
			c0,1.9,2.3,3.2,4,3.3c-2,0.6-4,1.8-4.7,3.9c0.9,0.9,2.1,1.3,3.2,1.9c-0.9,0.4-5.4,2.7-2.9,3.7c-0.7,1.7-5.4-0.8-6.6-1.8
			c-2.5-2.2-1.6-4.8-0.5-7.5c1.6-3.8,5-7.9,9.7-7"/>
	</g>
</g>
<g id="water">
	<g>
		<path fill="#55C2E2" stroke="#070707" stroke-width="0.5" stroke-miterlimit="10" d="M196.4,101.3c0,0-36.1,41.7-4.2,51.2
			c0,0,26.1-0.6,14.6-30.9C206.7,121.6,196.8,110,196.4,101.3z"/>
		<path fill="none" stroke="#3A97AD" stroke-miterlimit="10" d="M194.2,149.2c5.2,2.4,13.5-10.3,12.9-14.9"/>
		
			<ellipse transform="matrix(0.7903 -0.6127 0.6127 0.7903 -47.8104 145.7379)" opacity="0.8" fill="#FFFFFF" cx="189" cy="142.7" rx="4.8" ry="5.8"/>
		<path opacity="0.8" fill="#FFFFFF" d="M185.7,119.6c0,0,4.7-11.6,10.3-14.6"/>
	</g>
	<g>
		<path fill="#55C2E2" stroke="#070707" stroke-width="0.5" stroke-miterlimit="10" d="M24,207c0,0-36.1,41.7-4.2,51.2
			c0,0,26.1-0.6,14.6-30.9C34.3,227.3,24.4,215.7,24,207z"/>
		<path fill="none" stroke="#3A97AD" stroke-miterlimit="10" d="M21.8,254.8c5.2,2.4,13.5-10.3,12.9-14.9"/>
		
			<ellipse transform="matrix(0.7903 -0.6127 0.6127 0.7903 -148.7217 62.2706)" opacity="0.8" fill="#FFFFFF" cx="16.6" cy="248.4" rx="4.8" ry="5.8"/>
		<path opacity="0.8" fill="#FFFFFF" d="M13.3,225.3c0,0,4.7-11.6,10.3-14.6"/>
	</g>
	<g>
		<path fill="#55C2E2" stroke="#070707" stroke-width="0.5" stroke-miterlimit="10" d="M75.7,326.4c0,0-21.7,25.1-2.5,30.8
			c0,0,15.7-0.4,8.8-18.6C81.9,338.6,76,331.6,75.7,326.4z"/>
		<path fill="none" stroke="#3A97AD" stroke-miterlimit="10" d="M74.4,355.1c3.1,1.4,8.1-6.2,7.7-9"/>
		
			<ellipse transform="matrix(0.7903 -0.6128 0.6128 0.7903 -202.0267 117.6143)" opacity="0.8" fill="#FFFFFF" cx="70.8" cy="353.9" rx="1.7" ry="2.1"/>
		<path opacity="0.8" fill="#FFFFFF" d="M69.3,337.4c0,0,2.8-7,6.2-8.8"/>
	</g>
	<g>
		<path fill="#55C2E2" stroke="#070707" stroke-width="0.5" stroke-miterlimit="10" d="M226,191.6c0,0-21.7,25.1-2.5,30.8
			c0,0,15.7-0.4,8.8-18.6C232.2,203.8,226.3,196.8,226,191.6z"/>
		<path fill="none" stroke="#3A97AD" stroke-miterlimit="10" d="M224.7,220.4c3.1,1.4,8.1-6.2,7.7-9"/>
		
			<ellipse transform="matrix(0.7904 -0.6126 0.6126 0.7904 -87.9234 181.3784)" opacity="0.8" fill="#FFFFFF" cx="221.1" cy="219.2" rx="1.7" ry="2.1"/>
		<path opacity="0.8" fill="#FFFFFF" d="M219.6,202.6c0,0,2.8-7,6.2-8.8"/>
	</g>
	<g>
		<path fill="#55C2E2" stroke="#070707" stroke-width="0.5" stroke-miterlimit="10" d="M220,261.7c0,0-13.5,15.7-1.6,19.2
			c0,0,9.8-0.2,5.5-11.6C223.9,269.3,220.2,265,220,261.7z"/>
		<path fill="none" stroke="#3A97AD" stroke-miterlimit="10" d="M219.2,279.7c1.9,0.9,5.1-3.9,4.8-5.6"/>
		
			<ellipse transform="matrix(0.7906 -0.6123 0.6123 0.7906 -124.3898 190.7143)" opacity="0.8" fill="#FFFFFF" cx="216.7" cy="277.2" rx="0.9" ry="1"/>
		<path opacity="0.8" fill="#FFFFFF" d="M216,268.6c0,0,1.8-4.4,3.9-5.5"/>
	</g>
	<g>
		<path fill="#55C2E2" stroke="#070707" stroke-width="0.5" stroke-miterlimit="10" d="M52.8,114.1c0,0-13.5,15.7-1.6,19.2
			c0,0,9.8-0.2,5.5-11.6C56.7,121.8,53,117.4,52.8,114.1z"/>
		<path fill="none" stroke="#3A97AD" stroke-miterlimit="10" d="M52,132.1c1.9,0.9,5.1-3.9,4.8-5.6"/>
		
			<ellipse transform="matrix(0.7904 -0.6126 0.6126 0.7904 -69.0769 57.4693)" opacity="0.8" fill="#FFFFFF" cx="49.4" cy="129.7" rx="0.9" ry="1"/>
		<path opacity="0.8" fill="#FFFFFF" d="M48.8,121c0,0,1.8-4.4,3.9-5.5"/>
	</g>
</g>
</svg>
