<?xml version="1.0" encoding="utf-8"?>
<!-- Generator: Adobe Illustrator 17.1.0, SVG Export Plug-In . SVG Version: 6.00 Build 0)  -->
<!DOCTYPE svg PUBLIC "-//W3C//DTD SVG 1.1//EN" "http://www.w3.org/Graphics/SVG/1.1/DTD/svg11.dtd">
<svg version="1.1" id="Layer_1" xmlns="http://www.w3.org/2000/svg" xmlns:xlink="http://www.w3.org/1999/xlink" x="0px" y="0px"
	 viewBox="0 0 100 100" enable-background="new 0 0 100 100" xml:space="preserve">
<pattern  y="100" width="2.5" height="2.5" patternUnits="userSpaceOnUse" id="SVGID_2_" viewBox="7.8 -10.3 2.5 2.5" overflow="visible">
	<g>
		<polygon fill="none" points="7.8,-7.8 10.3,-7.8 10.3,-10.3 7.8,-10.3 		"/>
		<g>
			<polygon fill="none" points="7.8,-7.8 10.2,-7.8 10.2,-10.2 7.8,-10.2 			"/>
			<g>
				<polygon fill="none" points="10,-18 18,-18 18,-10 10,-10 				"/>
				<g>
					<polygon fill="none" points="10,-10 18,-10 18,-18 10,-18 					"/>
					<g>
						<polygon fill="none" points="18,-18 10,-18 10,-10 18,-10 						"/>
					</g>
				</g>
			</g>
			<g>
				<polygon fill="none" points="7.5,-18 15.5,-18 15.5,-10 7.5,-10 				"/>
				<g>
					<polygon fill="none" points="7.5,-10 15.5,-10 15.5,-18 7.5,-18 					"/>
					<g>
						<polygon fill="none" points="15.5,-18 7.5,-18 7.5,-10 15.5,-10 						"/>
					</g>
				</g>
			</g>
			<g>
				<polygon fill="none" points="5,-18 13,-18 13,-10 5,-10 				"/>
				<g>
					<polygon fill="none" points="5,-10 13,-10 13,-18 5,-18 					"/>
					<g>
						<polygon fill="none" points="13,-18 5,-18 5,-10 13,-10 						"/>
					</g>
				</g>
			</g>
			<g>
				<polygon fill="none" points="2.5,-18 10.5,-18 10.5,-10 2.5,-10 				"/>
				<g>
					<polygon fill="none" points="2.5,-10 10.5,-10 10.5,-18 2.5,-18 					"/>
					<g>
						<polygon fill="none" points="10.5,-18 2.5,-18 2.5,-10 10.5,-10 						"/>
					</g>
				</g>
			</g>
			<g>
				<polygon fill="none" points="0,-18 8,-18 8,-10 0,-10 				"/>
				<g>
					<polygon fill="none" points="0,-10 8,-10 8,-18 0,-18 					"/>
					<g>
						<polygon fill="none" points="8,-18 0,-18 0,-10 8,-10 						"/>
					</g>
				</g>
			</g>
			<g>
				<polygon fill="none" points="10,-15.5 18,-15.5 18,-7.5 10,-7.5 				"/>
				<g>
					<polygon fill="none" points="10,-7.5 18,-7.5 18,-15.5 10,-15.5 					"/>
					<g>
						<polygon fill="none" points="18,-15.5 10,-15.5 10,-7.5 18,-7.5 						"/>
					</g>
				</g>
			</g>
			<g>
				<polygon fill="none" points="7.5,-15.5 15.5,-15.5 15.5,-7.5 7.5,-7.5 				"/>
				<g>
					<polygon fill="none" points="7.5,-7.5 15.5,-7.5 15.5,-15.5 7.5,-15.5 					"/>
					<g>
						<polygon fill="none" points="15.5,-15.5 7.5,-15.5 7.5,-7.5 15.5,-7.5 						"/>
					</g>
				</g>
			</g>
			<g>
				<polygon fill="none" points="5,-15.5 13,-15.5 13,-7.5 5,-7.5 				"/>
				<g>
					<polygon fill="none" points="5,-7.5 13,-7.5 13,-15.5 5,-15.5 					"/>
					<g>
						<polygon fill="none" points="13,-15.5 5,-15.5 5,-7.5 13,-7.5 						"/>
					</g>
				</g>
			</g>
			<g>
				<polygon fill="none" points="2.5,-15.5 10.5,-15.5 10.5,-7.5 2.5,-7.5 				"/>
				<g>
					<polygon fill="none" points="2.5,-7.5 10.5,-7.5 10.5,-15.5 2.5,-15.5 					"/>
					<g>
						<polygon fill="none" points="10.5,-15.5 2.5,-15.5 2.5,-7.5 10.5,-7.5 						"/>
					</g>
				</g>
			</g>
			<g>
				<polygon fill="none" points="0,-15.5 8,-15.5 8,-7.5 0,-7.5 				"/>
				<g>
					<polygon fill="none" points="0,-7.5 8,-7.5 8,-15.5 0,-15.5 					"/>
					<g>
						<polygon fill="none" points="8,-15.5 0,-15.5 0,-7.5 8,-7.5 						"/>
					</g>
				</g>
			</g>
			<g>
				<polygon fill="none" points="10,-13 18,-13 18,-5 10,-5 				"/>
				<g>
					<polygon fill="none" points="10,-5 18,-5 18,-13 10,-13 					"/>
					<g>
						<polygon fill="none" points="18,-13 10,-13 10,-5 18,-5 						"/>
					</g>
				</g>
			</g>
			<g>
				<polygon fill="none" points="7.5,-13 15.5,-13 15.5,-5 7.5,-5 				"/>
				<g>
					<polygon fill="none" points="7.5,-5 15.5,-5 15.5,-13 7.5,-13 					"/>
					<g>
						<polygon fill="none" points="15.5,-13 7.5,-13 7.5,-5 15.5,-5 						"/>
					</g>
				</g>
			</g>
			<g>
				<polygon fill="none" points="5,-13 13,-13 13,-5 5,-5 				"/>
				<g>
					<polygon fill="none" points="5,-5 13,-5 13,-13 5,-13 					"/>
					<g>
						<polygon fill="none" points="13,-13 5,-13 5,-5 13,-5 						"/>
						<path fill="#010101" d="M9.5-8.8c0-0.3-0.3-0.6-0.6-0.6S8.3-9.1,8.3-8.8s0.6,0.6,0.6,0.6C9.5-8.2,9.5-8.5,9.5-8.8z"/>
					</g>
				</g>
			</g>
			<g>
				<polygon fill="none" points="2.5,-13 10.5,-13 10.5,-5 2.5,-5 				"/>
				<g>
					<polygon fill="none" points="2.5,-5 10.5,-5 10.5,-13 2.5,-13 					"/>
					<g>
						<polygon fill="none" points="10.5,-13 2.5,-13 2.5,-5 10.5,-5 						"/>
					</g>
				</g>
			</g>
			<g>
				<polygon fill="none" points="0,-13 8,-13 8,-5 0,-5 				"/>
				<g>
					<polygon fill="none" points="0,-5 8,-5 8,-13 0,-13 					"/>
					<g>
						<polygon fill="none" points="8,-13 0,-13 0,-5 8,-5 						"/>
					</g>
				</g>
			</g>
			<g>
				<polygon fill="none" points="10,-10.5 18,-10.5 18,-2.5 10,-2.5 				"/>
				<g>
					<polygon fill="none" points="10,-2.5 18,-2.5 18,-10.5 10,-10.5 					"/>
					<g>
						<polygon fill="none" points="18,-10.5 10,-10.5 10,-2.5 18,-2.5 						"/>
					</g>
				</g>
			</g>
			<g>
				<polygon fill="none" points="7.5,-10.5 15.5,-10.5 15.5,-2.5 7.5,-2.5 				"/>
				<g>
					<polygon fill="none" points="7.5,-2.5 15.5,-2.5 15.5,-10.5 7.5,-10.5 					"/>
					<g>
						<polygon fill="none" points="15.5,-10.5 7.5,-10.5 7.5,-2.5 15.5,-2.5 						"/>
					</g>
				</g>
			</g>
			<g>
				<polygon fill="none" points="5,-10.5 13,-10.5 13,-2.5 5,-2.5 				"/>
				<g>
					<polygon fill="none" points="5,-2.5 13,-2.5 13,-10.5 5,-10.5 					"/>
					<g>
						<polygon fill="none" points="13,-10.5 5,-10.5 5,-2.5 13,-2.5 						"/>
					</g>
				</g>
			</g>
			<g>
				<polygon fill="none" points="2.5,-10.5 10.5,-10.5 10.5,-2.5 2.5,-2.5 				"/>
				<g>
					<polygon fill="none" points="2.5,-2.5 10.5,-2.5 10.5,-10.5 2.5,-10.5 					"/>
					<g>
						<polygon fill="none" points="10.5,-10.5 2.5,-10.5 2.5,-2.5 10.5,-2.5 						"/>
					</g>
				</g>
			</g>
			<g>
				<polygon fill="none" points="0,-10.5 8,-10.5 8,-2.5 0,-2.5 				"/>
				<g>
					<polygon fill="none" points="0,-2.5 8,-2.5 8,-10.5 0,-10.5 					"/>
					<g>
						<polygon fill="none" points="8,-10.5 0,-10.5 0,-2.5 8,-2.5 						"/>
					</g>
				</g>
			</g>
			<g>
				<polygon fill="none" points="10,-8 18,-8 18,0 10,0 				"/>
				<g>
					<polygon fill="none" points="10,0 18,0 18,-8 10,-8 					"/>
					<g>
						<polygon fill="none" points="18,-8 10,-8 10,0 18,0 						"/>
					</g>
				</g>
			</g>
			<g>
				<polygon fill="none" points="7.5,-8 15.5,-8 15.5,0 7.5,0 				"/>
				<g>
					<polygon fill="none" points="7.5,0 15.5,0 15.5,-8 7.5,-8 					"/>
					<g>
						<polygon fill="none" points="15.5,-8 7.5,-8 7.5,0 15.5,0 						"/>
					</g>
				</g>
			</g>
			<g>
				<polygon fill="none" points="5,-8 13,-8 13,0 5,0 				"/>
				<g>
					<polygon fill="none" points="5,0 13,0 13,-8 5,-8 					"/>
					<g>
						<polygon fill="none" points="13,-8 5,-8 5,0 13,0 						"/>
					</g>
				</g>
			</g>
			<g>
				<polygon fill="none" points="2.5,-8 10.5,-8 10.5,0 2.5,0 				"/>
				<g>
					<polygon fill="none" points="2.5,0 10.5,0 10.5,-8 2.5,-8 					"/>
					<g>
						<polygon fill="none" points="10.5,-8 2.5,-8 2.5,0 10.5,0 						"/>
					</g>
				</g>
			</g>
			<g>
				<polygon fill="none" points="0,-8 8,-8 8,0 0,0 				"/>
				<g>
					<polygon fill="none" points="0,0 8,0 8,-8 0,-8 					"/>
					<g>
						<polygon fill="none" points="8,-8 0,-8 0,0 8,0 						"/>
					</g>
				</g>
			</g>
		</g>
	</g>
</pattern>
<pattern  y="100" width="2.5" height="2.5" patternUnits="userSpaceOnUse" id="SVGID_3_" viewBox="7.7 -10.2 2.5 2.5" overflow="visible">
	<g>
		<polygon fill="none" points="7.7,-7.7 10.2,-7.7 10.2,-10.2 7.7,-10.2 		"/>
		<g>
			<polygon fill="none" points="7.7,-7.7 10.2,-7.7 10.2,-10.2 7.7,-10.2 			"/>
			<g>
				<polygon fill="none" points="10,-17.9 17.9,-17.9 17.9,-10 10,-10 				"/>
				<g>
					<polygon fill="none" points="10,-10 17.9,-10 17.9,-17.9 10,-17.9 					"/>
					<g>
						<polygon fill="none" points="17.9,-17.9 10,-17.9 10,-10 17.9,-10 						"/>
					</g>
				</g>
			</g>
			<g>
				<polygon fill="none" points="7.5,-17.9 15.4,-17.9 15.4,-10 7.5,-10 				"/>
				<g>
					<polygon fill="none" points="7.5,-10 15.4,-10 15.4,-17.9 7.5,-17.9 					"/>
					<g>
						<polygon fill="none" points="15.4,-17.9 7.5,-17.9 7.5,-10 15.4,-10 						"/>
					</g>
				</g>
			</g>
			<g>
				<polygon fill="none" points="5,-17.9 12.9,-17.9 12.9,-10 5,-10 				"/>
				<g>
					<polygon fill="none" points="5,-10 12.9,-10 12.9,-17.9 5,-17.9 					"/>
					<g>
						<polygon fill="none" points="12.9,-17.9 5,-17.9 5,-10 12.9,-10 						"/>
					</g>
				</g>
			</g>
			<g>
				<polygon fill="none" points="2.5,-17.9 10.4,-17.9 10.4,-10 2.5,-10 				"/>
				<g>
					<polygon fill="none" points="2.5,-10 10.4,-10 10.4,-17.9 2.5,-17.9 					"/>
					<g>
						<polygon fill="none" points="10.4,-17.9 2.5,-17.9 2.5,-10 10.4,-10 						"/>
					</g>
				</g>
			</g>
			<g>
				<polygon fill="none" points="0,-17.9 7.9,-17.9 7.9,-10 0,-10 				"/>
				<g>
					<polygon fill="none" points="0,-10 7.9,-10 7.9,-17.9 0,-17.9 					"/>
					<g>
						<polygon fill="none" points="7.9,-17.9 0,-17.9 0,-10 7.9,-10 						"/>
					</g>
				</g>
			</g>
			<g>
				<polygon fill="none" points="10,-15.4 17.9,-15.4 17.9,-7.5 10,-7.5 				"/>
				<g>
					<polygon fill="none" points="10,-7.5 17.9,-7.5 17.9,-15.4 10,-15.4 					"/>
					<g>
						<polygon fill="none" points="17.9,-15.4 10,-15.4 10,-7.5 17.9,-7.5 						"/>
					</g>
				</g>
			</g>
			<g>
				<polygon fill="none" points="7.5,-15.4 15.4,-15.4 15.4,-7.5 7.5,-7.5 				"/>
				<g>
					<polygon fill="none" points="7.5,-7.5 15.4,-7.5 15.4,-15.4 7.5,-15.4 					"/>
					<g>
						<polygon fill="none" points="15.4,-15.4 7.5,-15.4 7.5,-7.5 15.4,-7.5 						"/>
					</g>
				</g>
			</g>
			<g>
				<polygon fill="none" points="5,-15.4 12.9,-15.4 12.9,-7.5 5,-7.5 				"/>
				<g>
					<polygon fill="none" points="5,-7.5 12.9,-7.5 12.9,-15.4 5,-15.4 					"/>
					<g>
						<polygon fill="none" points="12.9,-15.4 5,-15.4 5,-7.5 12.9,-7.5 						"/>
					</g>
				</g>
			</g>
			<g>
				<polygon fill="none" points="2.5,-15.4 10.4,-15.4 10.4,-7.5 2.5,-7.5 				"/>
				<g>
					<polygon fill="none" points="2.5,-7.5 10.4,-7.5 10.4,-15.4 2.5,-15.4 					"/>
					<g>
						<polygon fill="none" points="10.4,-15.4 2.5,-15.4 2.5,-7.5 10.4,-7.5 						"/>
					</g>
				</g>
			</g>
			<g>
				<polygon fill="none" points="0,-15.4 7.9,-15.4 7.9,-7.5 0,-7.5 				"/>
				<g>
					<polygon fill="none" points="0,-7.5 7.9,-7.5 7.9,-15.4 0,-15.4 					"/>
					<g>
						<polygon fill="none" points="7.9,-15.4 0,-15.4 0,-7.5 7.9,-7.5 						"/>
					</g>
				</g>
			</g>
			<g>
				<polygon fill="none" points="10,-12.9 17.9,-12.9 17.9,-5 10,-5 				"/>
				<g>
					<polygon fill="none" points="10,-5 17.9,-5 17.9,-12.9 10,-12.9 					"/>
					<g>
						<polygon fill="none" points="17.9,-12.9 10,-12.9 10,-5 17.9,-5 						"/>
					</g>
				</g>
			</g>
			<g>
				<polygon fill="none" points="7.5,-12.9 15.4,-12.9 15.4,-5 7.5,-5 				"/>
				<g>
					<polygon fill="none" points="7.5,-5 15.4,-5 15.4,-12.9 7.5,-12.9 					"/>
					<g>
						<polygon fill="none" points="15.4,-12.9 7.5,-12.9 7.5,-5 15.4,-5 						"/>
					</g>
				</g>
			</g>
			<g>
				<polygon fill="none" points="5,-12.9 12.9,-12.9 12.9,-5 5,-5 				"/>
				<g>
					<polygon fill="none" points="5,-5 12.9,-5 12.9,-12.9 5,-12.9 					"/>
					<g>
						<polygon fill="none" points="12.9,-12.9 5,-12.9 5,-5 12.9,-5 						"/>
						<path fill="#010101" d="M9.4-8.8c0-0.3-0.3-0.6-0.6-0.6S8.2-9.1,8.2-8.8s0.6,0.6,0.6,0.6C9.4-8.2,9.4-8.5,9.4-8.8z"/>
					</g>
				</g>
			</g>
			<g>
				<polygon fill="none" points="2.5,-12.9 10.4,-12.9 10.4,-5 2.5,-5 				"/>
				<g>
					<polygon fill="none" points="2.5,-5 10.4,-5 10.4,-12.9 2.5,-12.9 					"/>
					<g>
						<polygon fill="none" points="10.4,-12.9 2.5,-12.9 2.5,-5 10.4,-5 						"/>
					</g>
				</g>
			</g>
			<g>
				<polygon fill="none" points="0,-12.9 7.9,-12.9 7.9,-5 0,-5 				"/>
				<g>
					<polygon fill="none" points="0,-5 7.9,-5 7.9,-12.9 0,-12.9 					"/>
					<g>
						<polygon fill="none" points="7.9,-12.9 0,-12.9 0,-5 7.9,-5 						"/>
					</g>
				</g>
			</g>
			<g>
				<polygon fill="none" points="10,-10.4 17.9,-10.4 17.9,-2.5 10,-2.5 				"/>
				<g>
					<polygon fill="none" points="10,-2.5 17.9,-2.5 17.9,-10.4 10,-10.4 					"/>
					<g>
						<polygon fill="none" points="17.9,-10.4 10,-10.4 10,-2.5 17.9,-2.5 						"/>
					</g>
				</g>
			</g>
			<g>
				<polygon fill="none" points="7.5,-10.4 15.4,-10.4 15.4,-2.5 7.5,-2.5 				"/>
				<g>
					<polygon fill="none" points="7.5,-2.5 15.4,-2.5 15.4,-10.4 7.5,-10.4 					"/>
					<g>
						<polygon fill="none" points="15.4,-10.4 7.5,-10.4 7.5,-2.5 15.4,-2.5 						"/>
					</g>
				</g>
			</g>
			<g>
				<polygon fill="none" points="5,-10.4 12.9,-10.4 12.9,-2.5 5,-2.5 				"/>
				<g>
					<polygon fill="none" points="5,-2.5 12.9,-2.5 12.9,-10.4 5,-10.4 					"/>
					<g>
						<polygon fill="none" points="12.9,-10.4 5,-10.4 5,-2.5 12.9,-2.5 						"/>
					</g>
				</g>
			</g>
			<g>
				<polygon fill="none" points="2.5,-10.4 10.4,-10.4 10.4,-2.5 2.5,-2.5 				"/>
				<g>
					<polygon fill="none" points="2.5,-2.5 10.4,-2.5 10.4,-10.4 2.5,-10.4 					"/>
					<g>
						<polygon fill="none" points="10.4,-10.4 2.5,-10.4 2.5,-2.5 10.4,-2.5 						"/>
					</g>
				</g>
			</g>
			<g>
				<polygon fill="none" points="0,-10.4 7.9,-10.4 7.9,-2.5 0,-2.5 				"/>
				<g>
					<polygon fill="none" points="0,-2.5 7.9,-2.5 7.9,-10.4 0,-10.4 					"/>
					<g>
						<polygon fill="none" points="7.9,-10.4 0,-10.4 0,-2.5 7.9,-2.5 						"/>
					</g>
				</g>
			</g>
			<g>
				<polygon fill="none" points="10,-7.9 17.9,-7.9 17.9,0 10,0 				"/>
				<g>
					<polygon fill="none" points="10,0 17.9,0 17.9,-7.9 10,-7.9 					"/>
					<g>
						<polygon fill="none" points="17.9,-7.9 10,-7.9 10,0 17.9,0 						"/>
					</g>
				</g>
			</g>
			<g>
				<polygon fill="none" points="7.5,-7.9 15.4,-7.9 15.4,0 7.5,0 				"/>
				<g>
					<polygon fill="none" points="7.5,0 15.4,0 15.4,-7.9 7.5,-7.9 					"/>
					<g>
						<polygon fill="none" points="15.4,-7.9 7.5,-7.9 7.5,0 15.4,0 						"/>
					</g>
				</g>
			</g>
			<g>
				<polygon fill="none" points="5,-7.9 12.9,-7.9 12.9,0 5,0 				"/>
				<g>
					<polygon fill="none" points="5,0 12.9,0 12.9,-7.9 5,-7.9 					"/>
					<g>
						<polygon fill="none" points="12.9,-7.9 5,-7.9 5,0 12.9,0 						"/>
					</g>
				</g>
			</g>
			<g>
				<polygon fill="none" points="2.5,-7.9 10.4,-7.9 10.4,0 2.5,0 				"/>
				<g>
					<polygon fill="none" points="2.5,0 10.4,0 10.4,-7.9 2.5,-7.9 					"/>
					<g>
						<polygon fill="none" points="10.4,-7.9 2.5,-7.9 2.5,0 10.4,0 						"/>
					</g>
				</g>
			</g>
			<g>
				<polygon fill="none" points="0,-7.9 7.9,-7.9 7.9,0 0,0 				"/>
				<g>
					<polygon fill="none" points="0,0 7.9,0 7.9,-7.9 0,-7.9 					"/>
					<g>
						<polygon fill="none" points="7.9,-7.9 0,-7.9 0,0 7.9,0 						"/>
					</g>
				</g>
			</g>
		</g>
	</g>
</pattern>
<pattern  y="100" width="2.5" height="2.5" patternUnits="userSpaceOnUse" id="SVGID_4_" viewBox="4.8 -7.3 2.5 2.5" overflow="visible">
	<g>
		<polygon fill="none" points="4.8,-4.8 7.3,-4.8 7.3,-7.3 4.8,-7.3 		"/>
		<g>
			<polygon fill="none" points="4.8,-4.8 7.2,-4.8 7.2,-7.2 4.8,-7.2 			"/>
			<g>
				<polygon fill="none" points="5,-12 12,-12 12,-5 5,-5 				"/>
				<g>
					<polygon fill="none" points="5,-5 12,-5 12,-12 5,-12 					"/>
					<g>
						<polygon fill="none" points="12,-12 5,-12 5,-5 12,-5 						"/>
					</g>
				</g>
			</g>
			<g>
				<polygon fill="none" points="2.5,-12 9.5,-12 9.5,-5 2.5,-5 				"/>
				<g>
					<polygon fill="none" points="2.5,-5 9.5,-5 9.5,-12 2.5,-12 					"/>
					<g>
						<polygon fill="none" points="9.5,-12 2.5,-12 2.5,-5 9.5,-5 						"/>
					</g>
				</g>
			</g>
			<g>
				<polygon fill="none" points="0,-12 7,-12 7,-5 0,-5 				"/>
				<g>
					<polygon fill="none" points="0,-5 7,-5 7,-12 0,-12 					"/>
					<g>
						<polygon fill="none" points="7,-12 0,-12 0,-5 7,-5 						"/>
					</g>
				</g>
			</g>
			<g>
				<polygon fill="none" points="5,-9.5 12,-9.5 12,-2.5 5,-2.5 				"/>
				<g>
					<polygon fill="none" points="5,-2.5 12,-2.5 12,-9.5 5,-9.5 					"/>
					<g>
						<polygon fill="none" points="12,-9.5 5,-9.5 5,-2.5 12,-2.5 						"/>
					</g>
				</g>
			</g>
			<g>
				<polygon fill="none" points="2.5,-9.5 9.5,-9.5 9.5,-2.5 2.5,-2.5 				"/>
				<g>
					<polygon fill="none" points="2.5,-2.5 9.5,-2.5 9.5,-9.5 2.5,-9.5 					"/>
					<g>
						<polygon fill="none" points="9.5,-9.5 2.5,-9.5 2.5,-2.5 9.5,-2.5 						"/>
						<path fill="#010101" d="M6.4-5.9c0-0.3-0.3-0.6-0.6-0.6c-0.3,0-0.6,0.3-0.6,0.6s0.6,0.6,0.6,0.6C6.4-5.3,6.4-5.6,6.4-5.9z"/>
					</g>
				</g>
			</g>
			<g>
				<polygon fill="none" points="0,-9.5 7,-9.5 7,-2.5 0,-2.5 				"/>
				<g>
					<polygon fill="none" points="0,-2.5 7,-2.5 7,-9.5 0,-9.5 					"/>
					<g>
						<polygon fill="none" points="7,-9.5 0,-9.5 0,-2.5 7,-2.5 						"/>
					</g>
				</g>
			</g>
			<g>
				<polygon fill="none" points="5,-7 12,-7 12,0 5,0 				"/>
				<g>
					<polygon fill="none" points="5,0 12,0 12,-7 5,-7 					"/>
					<g>
						<polygon fill="none" points="12,-7 5,-7 5,0 12,0 						"/>
					</g>
				</g>
			</g>
			<g>
				<polygon fill="none" points="2.5,-7 9.5,-7 9.5,0 2.5,0 				"/>
				<g>
					<polygon fill="none" points="2.5,0 9.5,0 9.5,-7 2.5,-7 					"/>
					<g>
						<polygon fill="none" points="9.5,-7 2.5,-7 2.5,0 9.5,0 						"/>
					</g>
				</g>
			</g>
			<g>
				<polygon fill="none" points="0,-7 7,-7 7,0 0,0 				"/>
				<g>
					<polygon fill="none" points="0,0 7,0 7,-7 0,-7 					"/>
					<g>
						<polygon fill="none" points="7,-7 0,-7 0,0 7,0 						"/>
					</g>
				</g>
			</g>
		</g>
	</g>
</pattern>
<g id="legs">
	<path fill="#FFFFFF" stroke="#010101" stroke-miterlimit="10" d="M39.5,49.8h-3.8c0,0-4.4-6.3-7.9-6.6l1,0.8l-1.1,0.1
		c0,0,3.4,2,7.4,6.2h4.8L39.5,49.8z"/>
	<path fill="#FFFFFF" stroke="#010101" stroke-miterlimit="10" d="M65.6,49.8h3.8c0,0,4.4-6.3,7.9-6.6l-1,0.8l1.1,0.1
		c0,0-3.4,2-7.4,6.2h-4.8L65.6,49.8z"/>
	<path fill="#FFFFFF" stroke="#010101" stroke-miterlimit="10" d="M70.1,80.1c3,0.3,3.3-1.1,3-2.5c-0.3-1.5-3.1-1.7-3.1-1.7l0.2,2.4
		L70.1,80.1"/>
	<path fill="#FFFFFF" stroke="#010101" stroke-miterlimit="10" d="M73.4,78.2c0,0,3.9,4.8,5.1,5c0,0-0.3,0.5-1.6-0.2
		c0,0,0.7,3.6,2.8,4.8c0,0-1.2,0.3-2.2-0.2c0,0-0.7,7.6,2.3,9.9c0,0-3.4-1.8-3.7-9.9c0,0-0.3-5.9-3.1-8.6L73.4,78.2z"/>
	<path fill="#FFFFFF" stroke="#010101" stroke-miterlimit="10" d="M35.3,80.1c-2.9,0.7-3.4-0.7-3.3-2.1c0.1-1.5,2.9-2,2.9-2l0.1,2.4
		l0.4,1.6"/>
	<path fill="#FFFFFF" stroke="#010101" stroke-miterlimit="10" d="M31.8,78.6c0,0-3.3,5.2-4.4,5.6c0,0,0.4,0.4,1.5-0.4
		c0,0-0.3,3.7-2.2,5.1c0,0,1.2,0.2,2.1-0.5c0,0,1.7,7.4-1,10.1c0,0,3.1-2.2,2.4-10.2c0,0-0.4-5.9,2-8.9L31.8,78.6z"/>
	<path fill="#FFFFFF" stroke="#010101" stroke-miterlimit="10" d="M36.3,52.5c0,0-1.5-2-0.7-2.7c0.4-0.3,0.8-0.5,1.2-0.6
		c0.4,0,0.8,0.1,1.1,0.6C37.9,49.9,36.9,52.5,36.3,52.5z"/>
	<path fill="#FFFFFF" stroke="#010101" stroke-miterlimit="10" d="M69,52.5c0,0,1.5-2,0.7-2.7c-0.4-0.3-0.8-0.5-1.2-0.6
		c-0.4,0-0.8,0.1-1.1,0.6C67.5,49.9,68.5,52.5,69,52.5z"/>
	<path fill="#FFFFFF" stroke="#010101" stroke-miterlimit="10" d="M71.8,58.6c0,0,6,2.7,6.7,4.3c0,0-0.1-0.1-1.1,0
		c0,0,3.9,2.5,4.1,3.6c0,0-1.8-1.3-2.2-1.3c-0.4,0,4.2,4.5,2.2,7.2c0,0,0.1-7.8-10-12.8"/>
	<path fill="#FFFFFF" stroke="#010101" stroke-miterlimit="10" d="M69.7,57.6c0,0,2.2,0,2.1,1s-0.4,1.5-1.3,1.3L69.7,57.6z"/>
	<path fill="#FFFFFF" stroke="#010101" stroke-miterlimit="10" d="M33.5,59.1c0,0-6,2.7-6.7,4.3c0,0,0.1-0.1,1.1,0
		c0,0-3.9,2.5-4.1,3.6c0,0,1.8-1.3,2.2-1.3c0.4,0-4.2,4.5-2.2,7.2c0,0-0.1-7.8,10-12.8"/>
	<path fill="#FFFFFF" stroke="#010101" stroke-miterlimit="10" d="M35.4,58.1c0,0-2.2,0-2.1,1c0.1,1,0.4,1.5,1.3,1.3L35.4,58.1z"/>
</g>
<g id="basebody">
	<path fill="#FFFFFF" stroke="#010101" stroke-miterlimit="10" d="M50.4,48.4c0,0-7.1-3.4-10.5-2.2c0,0-2.8-12.7,4-15
		c0,0,1.2,1.3,3.7,1.2s11.7,0,11.7,0s1.7-0.4,1.9-0.9c0,0,6.1,3.7,3.6,14.4c0,0-3.8-0.3-9.3,2l-2.9,2L50.4,48.4z"/>
	<path fill="#FFFFFF" stroke="#000000" stroke-miterlimit="10" d="M52.6,49.9c0,0,6.9-5,12.7-3.8c0,0,3.9,1.6,5,12.5s0,22,0,22
		S69,90.4,52.6,91.2V49.9z"/>
	<path fill="#FFFFFF" stroke="#010101" stroke-miterlimit="10" d="M52.6,49.9c0,0-6.9-5-12.7-3.8c0,0-3.9,1.6-5,12.5s0,22,0,22
		s1.2,9.7,17.6,10.5L52.6,49.9L52.6,49.9z"/>
	<path fill="#FFFFFF" stroke="#000000" stroke-miterlimit="10" d="M52.6,49.9c0,0-6.9-5-12.7-3.8c0,0-3.9,1.6-5,12.5s0,22,0,22
		s1.2,9.7,17.6,10.5L52.6,49.9L52.6,49.9z"/>
	<g>
		<g>
			<path fill="none" stroke="#010101" stroke-miterlimit="10" d="M64.7,46.3"/>
		</g>
	</g>
	<g>
		<g>
			<path fill="none" stroke="#010101" stroke-miterlimit="10" d="M59.2,32"/>
		</g>
	</g>
	<g>
		<g>
			<path fill="none" stroke="#010101" stroke-miterlimit="10" d="M41.7,46.3"/>
		</g>
	</g>
	<path fill="#FFFFFF" stroke="#010101" stroke-miterlimit="10" d="M43.9,31.2c0,0,9.2-8.5,17.2,0.3c0,0-0.7,0.9-3.5,0.9
		s-11.3,0-11.3,0S44.5,32.2,43.9,31.2z"/>
	<path fill="#FFFFFF" stroke="#010101" stroke-miterlimit="10" d="M49.5,90.9l3.1-7.5l3.6,7.4C56.2,90.8,51,91.6,49.5,90.9z"/>
</g>
<g id="bodycolor">
	<path fill="#D0DD28" stroke="#010101" stroke-miterlimit="10" d="M50.6,48.3c0,0-7.1-3.4-10.5-2.2c0,0-2.8-12.7,4-15
		c0,0,1.2,1.3,3.7,1.2s11.7,0,11.7,0s1.7-0.4,1.9-0.9c0,0,6.1,3.7,3.6,14.4c0,0-3.8-0.3-9.3,2l-2.9,2L50.6,48.3z"/>
	<path fill="#6CBE45" stroke="#010101" stroke-miterlimit="10" d="M52.8,49.9c0,0,6.9-5,12.7-3.8c0,0,3.9,1.6,5,12.5s0,22,0,22
		s-1.2,9.7-17.6,10.5V49.9H52.8z"/>
	<path fill="#FFFFFF" stroke="#010101" stroke-miterlimit="10" d="M52.9,49.9c0,0-6.9-5-12.7-3.8c0,0-3.9,1.6-5,12.5s0,22,0,22
		s1.2,9.7,17.6,10.5C52.9,91.1,52.9,49.9,52.9,49.9z"/>
	<path fill="#6CBE45" stroke="#010101" stroke-miterlimit="10" d="M52.8,49.9c0,0-6.9-5-12.7-3.8c0,0-3.9,1.6-5,12.5s0,22,0,22
		s1.2,9.7,17.6,10.5V49.9H52.8z"/>
	<g>
		<g>
			<path fill="none" stroke="#010101" stroke-miterlimit="10" d="M64.9,46.3"/>
		</g>
	</g>
	<g>
		<g>
			<path fill="none" stroke="#010101" stroke-miterlimit="10" d="M59.5,31.9"/>
		</g>
	</g>
	<g>
		<g>
			<path fill="none" stroke="#010101" stroke-miterlimit="10" d="M42,46.2"/>
		</g>
	</g>
	<path fill="#6CBE45" stroke="#010101" stroke-miterlimit="10" d="M44.2,31.1c0,0,9.2-8.5,17.2,0.3c0,0-0.7,0.9-3.5,0.9
		s-11.3,0-11.3,0S44.8,32.1,44.2,31.1z"/>
	<path fill="#D0DD28" stroke="#010101" stroke-miterlimit="10" d="M49.7,90.8l3.1-7.5l3.6,7.4C56.5,90.8,51.2,91.6,49.7,90.8z"/>
</g>
<g id="antennae">
	<path fill="none" stroke="#010101" stroke-miterlimit="10" d="M57.8,28.2c1.5,0,2.8-0.1,4.2-1.7c0.8-0.9,3.6-4.3,3.3-9.1
		c0-0.1-0.2-0.5-0.3-0.5c-0.3,1.8-0.6,3.5-0.8,5.6"/>
	<path fill="none" stroke="#010101" stroke-miterlimit="10" d="M47.3,28.8c-1.5,0-2.8-0.1-4.2-1.7c-0.8-0.9-3.6-4.3-3.3-9.1
		c0-0.1,0.2-0.5,0.3-0.5c0.3,1.8,0.6,3.5,0.8,5.6"/>
</g>
<g id="markings">
	<path fill="#010101" d="M47.8,81.9c0.3,2.5-0.8,4.1-3.3,4c-2.6-0.1-4.6-1.3-4.7-4c-0.1-2.1-0.3-5.1,2.2-5.8
		C41.9,76.1,47.9,77.3,47.8,81.9z"/>
	<path fill="#010101" d="M57.3,81.9c-0.3,2.5,0.8,4.1,3.3,4c2.6-0.1,4.6-1.3,4.7-4c0.1-2.1,0.3-5.1-2.2-5.8
		C63.2,76.1,57.2,77.3,57.3,81.9z"/>
</g>
<g id="dots">
	<path fill="url(#SVGID_4_)" stroke="#010101" stroke-miterlimit="10" d="M56.2,90.8c13-1.9,14-10.2,14-10.2s1.1-11.2,0-22
		c-1.1-10.9-5-12.4-5-12.4C59.4,45,52.5,50,52.5,50v33.6L56.2,90.8z"/>
	<pattern  id="SVGID_5_" xlink:href="#SVGID_2_" patternTransform="matrix(0.2882 0 0 -0.2882 -17349.8086 -20037.3594)">
	</pattern>
	<path fill="url(#SVGID_5_)" stroke="#010101" stroke-miterlimit="10" d="M52.6,91.2"/>
	<pattern  id="SVGID_6_" xlink:href="#SVGID_3_" patternTransform="matrix(0.2882 0 0 -0.2882 -17349.8242 -20037.2734)">
	</pattern>
	<path fill="url(#SVGID_6_)" stroke="#010101" stroke-miterlimit="10" d="M52.6,91.2"/>
	<path fill="url(#SVGID_4_)" stroke="#010101" stroke-miterlimit="10" d="M52.6,83.6V49.9c0,0-6.9-5-12.7-3.8c0,0-3.9,1.6-5,12.4
		c-1.1,10.9,0,22,0,22s1,8.4,14.5,10.2L52.6,83.6z"/>
</g>
<g id="fur">
	<g>
		<g>
			<path fill="none" stroke="#0000FF" stroke-miterlimit="10" d="M52.5,50.7"/>
		</g>
	</g>
	<g>
		<g>
			<g>
				<g>
					<path fill="none" stroke="#0000FF" stroke-miterlimit="10" d="M61.2,29.5L61,30.9c0,0,0.3-0.2,0.7-0.3c0.2-0.1,0.3-0.1,0.5-0.2
						s0.2-0.1,0.2-0.1"/>
				</g>
				<g>
					<path fill="none" stroke="#0000FF" stroke-miterlimit="10" d="M62.6,30.4c0,0-0.1,0.3-0.2,0.7s-0.2,0.7-0.2,0.7s0.1,0,0.2-0.1
						c0.1,0,0.3-0.1,0.5-0.1c0.4-0.1,0.7-0.1,0.7-0.1"/>
				</g>
				<g>
					<path fill="none" stroke="#0000FF" stroke-miterlimit="10" d="M63.8,31.7c0,0-0.1,0.3-0.3,0.6c-0.1,0.1-0.2,0.3-0.2,0.4
						c-0.1,0.1-0.1,0.2-0.1,0.2s0.4-0.1,0.7-0.1c0.4,0,0.8,0,0.8,0"/>
				</g>
				<g>
					<path fill="none" stroke="#0000FF" stroke-miterlimit="10" d="M64.9,33.1c0,0-0.2,0.3-0.4,0.6C64.3,34,64,34.3,64,34.3
						s0.4,0,0.7,0c0.4,0,0.7,0.1,0.7,0.1"/>
				</g>
				<g>
					<path fill="none" stroke="#0000FF" stroke-miterlimit="10" d="M65.6,34.6c0,0-0.1,0.1-0.1,0.2c-0.1,0.1-0.2,0.2-0.3,0.4
						c-0.3,0.3-0.5,0.5-0.5,0.5s0.4,0.1,0.7,0.1s0.7,0.2,0.7,0.2"/>
				</g>
				<g>
					<path fill="none" stroke="#0000FF" stroke-miterlimit="10" d="M66.3,36.2c0,0-0.3,0.2-0.5,0.5c-0.3,0.2-0.5,0.4-0.5,0.4
						s0.4,0.1,0.7,0.2c0.2,0.1,0.3,0.1,0.5,0.2c0.1,0.1,0.2,0.1,0.2,0.1"/>
				</g>
				<g>
					<path fill="none" stroke="#0000FF" stroke-miterlimit="10" d="M66.6,37.9c0,0-0.3,0.2-0.6,0.4c-0.3,0.2-0.6,0.4-0.6,0.4
						s0.1,0,0.2,0.1s0.3,0.1,0.5,0.2c0.3,0.2,0.7,0.3,0.7,0.3"/>
				</g>
				<g>
					<path fill="none" stroke="#0000FF" stroke-miterlimit="10" d="M66.8,39.6c0,0-0.3,0.2-0.6,0.3c-0.3,0.2-0.6,0.3-0.6,0.3
						s0.3,0.2,0.7,0.4c0.3,0.2,0.6,0.4,0.6,0.4"/>
				</g>
				<g>
					<path fill="none" stroke="#0000FF" stroke-miterlimit="10" d="M66.9,41.2c0,0-0.3,0.1-0.7,0.3c-0.3,0.1-0.7,0.3-0.7,0.3
						s0.1,0.1,0.2,0.1c0.1,0.1,0.3,0.2,0.4,0.3c0.3,0.2,0.6,0.5,0.6,0.5"/>
				</g>
				<g>
					<path fill="none" stroke="#0000FF" stroke-miterlimit="10" d="M66.8,42.9c0,0-0.3,0.1-0.7,0.2c-0.3,0.1-0.7,0.2-0.7,0.2
						s0.3,0.2,0.6,0.5c0.1,0.1,0.3,0.2,0.4,0.3s0.2,0.1,0.2,0.1"/>
				</g>
				<g>
					<path fill="none" stroke="#0000FF" stroke-miterlimit="10" d="M66.5,44.6c0,0-0.3,0.1-0.7,0.2S65.1,45,65.1,45s0.3,0.3,0.6,0.5
						c0.3,0.3,0.5,0.5,0.5,0.5"/>
				</g>
			</g>
		</g>
	</g>
	<g>
		<g>
			<path fill="none" stroke="#0000FF" stroke-miterlimit="10" d="M59.1,31.3"/>
		</g>
	</g>
	<g>
		<g>
			<path fill="none" stroke="#0000FF" stroke-miterlimit="10" d="M51.7,31.3"/>
		</g>
	</g>
	<g>
		<g>
			<path fill="none" stroke="#0000FF" stroke-miterlimit="10" d="M47.5,31.3"/>
		</g>
	</g>
	<g>
		<g>
			<g>
				<g>
					<path fill="none" stroke="#0000FF" stroke-miterlimit="10" d="M38.3,46.1c0,0,0.3-0.2,0.6-0.4s0.6-0.4,0.6-0.4
						s-0.3-0.1-0.7-0.3s-0.7-0.3-0.7-0.3"/>
				</g>
				<g>
					<path fill="none" stroke="#0000FF" stroke-miterlimit="10" d="M38,44.5c0,0,0.3-0.2,0.6-0.4s0.6-0.3,0.6-0.3s-0.3-0.1-0.7-0.3
						c-0.3-0.1-0.7-0.3-0.7-0.3"/>
				</g>
				<g>
					<path fill="none" stroke="#0000FF" stroke-miterlimit="10" d="M37.9,43c0,0,0.3-0.2,0.6-0.3c0.3-0.2,0.6-0.3,0.6-0.3
						s-0.3-0.2-0.7-0.3c-0.3-0.2-0.7-0.3-0.7-0.3"/>
				</g>
				<g>
					<path fill="none" stroke="#0000FF" stroke-miterlimit="10" d="M37.8,41.4c0,0,0.3-0.1,0.6-0.3c0.3-0.1,0.6-0.3,0.6-0.3
						s-0.3-0.2-0.7-0.3c-0.3-0.2-0.6-0.4-0.6-0.4"/>
				</g>
				<g>
					<path fill="none" stroke="#0000FF" stroke-miterlimit="10" d="M37.8,39.8c0,0,0.3-0.1,0.7-0.3c0.3-0.1,0.7-0.3,0.7-0.3
						s-0.3-0.2-0.6-0.4S38,38.4,38,38.4"/>
				</g>
				<g>
					<path fill="none" stroke="#0000FF" stroke-miterlimit="10" d="M37.8,38.2c0,0,0.3-0.1,0.7-0.2c0.3-0.1,0.7-0.2,0.7-0.2
						s-0.1-0.1-0.2-0.1s-0.3-0.2-0.4-0.3c-0.3-0.2-0.6-0.5-0.6-0.5"/>
				</g>
				<g>
					<path fill="none" stroke="#0000FF" stroke-miterlimit="10" d="M38,36.6c0,0,0.3-0.1,0.7-0.1c0.3-0.1,0.7-0.1,0.7-0.1
						s-0.3-0.2-0.5-0.5c-0.3-0.3-0.5-0.5-0.5-0.5"/>
				</g>
				<g>
					<path fill="none" stroke="#0000FF" stroke-miterlimit="10" d="M38.4,35c0,0,0.1,0,0.2,0c0.1,0,0.3,0,0.5-0.1
						c0.3,0,0.7-0.1,0.7-0.1s-0.1-0.1-0.1-0.2c-0.1-0.1-0.2-0.3-0.3-0.4c-0.2-0.3-0.5-0.6-0.5-0.6"/>
				</g>
				<g>
					<path fill="none" stroke="#0000FF" stroke-miterlimit="10" d="M39,33.5c0,0,0.4,0,0.7,0s0.7,0.1,0.7,0.1s-0.1-0.1-0.1-0.2
						c-0.1-0.1-0.2-0.3-0.3-0.4c-0.1-0.2-0.2-0.3-0.2-0.5c-0.1-0.1-0.1-0.2-0.1-0.2"/>
				</g>
				<g>
					<path fill="none" stroke="#0000FF" stroke-miterlimit="10" d="M39.9,32c0,0,0.3,0.1,0.7,0.1c0.2,0,0.3,0.1,0.5,0.1
						c0.1,0,0.2,0.1,0.2,0.1S41.1,32,41,31.7S40.8,31,40.8,31"/>
				</g>
				<g>
					<path fill="none" stroke="#0000FF" stroke-miterlimit="10" d="M41,30.8c0,0,0.1,0,0.2,0.1c0.1,0.1,0.3,0.1,0.4,0.2
						c0.3,0.2,0.6,0.3,0.6,0.3s0-0.1,0-0.2s0-0.3,0-0.5s0-0.4,0-0.5s0-0.2,0-0.2"/>
				</g>
				<g>
					<path fill="none" stroke="#0000FF" stroke-miterlimit="10" d="M42.4,29.8c0,0,0.3,0.2,0.5,0.5c0.3,0.2,0.5,0.5,0.5,0.5
						s0-0.4,0.1-0.7c0.1-0.4,0.1-0.7,0.1-0.7"/>
				</g>
			</g>
		</g>
	</g>
	<g>
		<g>
			<path fill="none" stroke="#0000FF" stroke-miterlimit="10" d="M40.1,46.7"/>
		</g>
	</g>
	<g>
		<g>
			<g>
				<g>
					<path fill="none" stroke="#0000FF" stroke-miterlimit="10" d="M65.8,44.4c0,0,0.1,0.1,0.1,0.3s0,0.3,0,0.5
						c0,0.3-0.1,0.7-0.1,0.7s0.3-0.2,0.7-0.3c0.3-0.1,0.7-0.2,0.7-0.2"/>
				</g>
				<g>
					<path fill="none" stroke="#0000FF" stroke-miterlimit="10" d="M67.3,45.6c0,0-0.1,0.3-0.3,0.7c-0.1,0.3-0.3,0.6-0.3,0.6
						s0.4-0.1,0.7-0.1c0.4-0.1,0.7-0.1,0.7-0.1"/>
				</g>
				<g>
					<path fill="none" stroke="#0000FF" stroke-miterlimit="10" d="M68.4,46.9c0,0-0.2,0.3-0.4,0.6c-0.2,0.3-0.4,0.6-0.4,0.6
						s0.4,0,0.7,0s0.7,0.1,0.7,0.1"/>
				</g>
				<g>
					<path fill="none" stroke="#0000FF" stroke-miterlimit="10" d="M69.3,48.4c0,0-0.2,0.3-0.5,0.5c-0.2,0.3-0.5,0.5-0.5,0.5
						s0.4,0,0.7,0.1s0.7,0.1,0.7,0.1"/>
				</g>
				<g>
					<path fill="none" stroke="#0000FF" stroke-miterlimit="10" d="M70,49.9c0,0-0.3,0.3-0.5,0.5c-0.3,0.2-0.5,0.5-0.5,0.5
						s0.4,0.1,0.7,0.1s0.7,0.2,0.7,0.2"/>
				</g>
				<g>
					<path fill="none" stroke="#0000FF" stroke-miterlimit="10" d="M70.5,51.5c0,0-0.3,0.2-0.5,0.5s-0.5,0.5-0.5,0.5
						s0.4,0.1,0.7,0.2c0.4,0.1,0.7,0.2,0.7,0.2"/>
				</g>
				<g>
					<path fill="none" stroke="#0000FF" stroke-miterlimit="10" d="M70.9,53.1c0,0-0.3,0.2-0.6,0.4c-0.3,0.2-0.6,0.4-0.6,0.4
						s0.3,0.1,0.7,0.2c0.3,0.1,0.7,0.3,0.7,0.3"/>
				</g>
				<g>
					<path fill="none" stroke="#0000FF" stroke-miterlimit="10" d="M71.3,54.8c0,0-0.3,0.2-0.6,0.4c-0.3,0.2-0.6,0.4-0.6,0.4
						s0.3,0.1,0.7,0.3c0.3,0.1,0.7,0.3,0.7,0.3"/>
				</g>
				<g>
					<path fill="none" stroke="#0000FF" stroke-miterlimit="10" d="M71.5,56.4c0,0-0.3,0.2-0.6,0.4c-0.3,0.2-0.6,0.4-0.6,0.4
						s0.3,0.1,0.7,0.3c0.3,0.1,0.7,0.3,0.7,0.3"/>
				</g>
				<g>
					<polyline fill="none" stroke="#0000FF" stroke-miterlimit="10" points="71.7,58 70.5,58.7 71.8,59.4 					"/>
				</g>
				<g>
					<polyline fill="none" stroke="#0000FF" stroke-miterlimit="10" points="71.9,59.6 70.6,60.3 72,61 					"/>
				</g>
				<g>
					<polyline fill="none" stroke="#0000FF" stroke-miterlimit="10" points="72,61.2 70.7,61.9 72.1,62.6 					"/>
				</g>
				<g>
					<polyline fill="none" stroke="#0000FF" stroke-miterlimit="10" points="72.1,62.9 70.8,63.5 72.1,64.2 					"/>
				</g>
				<g>
					<polyline fill="none" stroke="#0000FF" stroke-miterlimit="10" points="72.2,64.5 70.9,65.1 72.2,65.8 					"/>
				</g>
				<g>
					<polyline fill="none" stroke="#0000FF" stroke-miterlimit="10" points="72.2,66.1 70.9,66.7 72.2,67.4 					"/>
				</g>
				<g>
					<polyline fill="none" stroke="#0000FF" stroke-miterlimit="10" points="72.2,67.7 70.9,68.3 72.2,69.1 					"/>
				</g>
				<g>
					<polyline fill="none" stroke="#0000FF" stroke-miterlimit="10" points="72.2,69.3 70.9,69.9 72.2,70.7 					"/>
				</g>
				<g>
					<polyline fill="none" stroke="#0000FF" stroke-miterlimit="10" points="72.2,71 70.9,71.5 72.2,72.3 					"/>
				</g>
				<g>
					<polyline fill="none" stroke="#0000FF" stroke-miterlimit="10" points="72.2,72.6 70.9,73.1 72.1,73.9 					"/>
				</g>
				<g>
					<polyline fill="none" stroke="#0000FF" stroke-miterlimit="10" points="72.1,74.2 70.8,74.7 72.1,75.5 					"/>
				</g>
				<g>
					<polyline fill="none" stroke="#0000FF" stroke-miterlimit="10" points="72.1,75.8 70.7,76.3 72,77.1 					"/>
				</g>
				<g>
					<polyline fill="none" stroke="#0000FF" stroke-miterlimit="10" points="72,77.4 70.6,77.9 71.9,78.8 					"/>
				</g>
				<g>
					<path fill="none" stroke="#0000FF" stroke-miterlimit="10" d="M71.9,79l-1.3,0.5c0,0,0.3,0.2,0.6,0.4c0.3,0.2,0.6,0.4,0.6,0.4"
						/>
				</g>
				<g>
					<path fill="none" stroke="#0000FF" stroke-miterlimit="10" d="M71.7,80.7c0,0-0.1,0-0.2,0.1c-0.1,0-0.3,0.1-0.5,0.1
						C70.7,81,70.3,81,70.3,81s0.3,0.3,0.5,0.5s0.5,0.6,0.5,0.6"/>
				</g>
				<g>
					<path fill="none" stroke="#0000FF" stroke-miterlimit="10" d="M71.2,82.4c0,0-0.3,0-0.7,0c-0.3,0-0.7,0-0.7,0s0.2,0.3,0.4,0.6
						c0.2,0.3,0.4,0.7,0.4,0.7"/>
				</g>
				<g>
					<path fill="none" stroke="#0000FF" stroke-miterlimit="10" d="M70.5,83.9c0,0-0.3,0-0.7-0.1c-0.3,0-0.7-0.1-0.7-0.1
						s0.2,0.3,0.3,0.7c0.2,0.3,0.3,0.7,0.3,0.7"/>
				</g>
				<g>
					<path fill="none" stroke="#0000FF" stroke-miterlimit="10" d="M69.6,85.4c0,0-0.3-0.1-0.7-0.2c-0.3-0.1-0.7-0.2-0.7-0.2
						s0.1,0.3,0.3,0.7c0.1,0.3,0.2,0.7,0.2,0.7"/>
				</g>
				<g>
					<path fill="none" stroke="#0000FF" stroke-miterlimit="10" d="M68.5,86.7c0,0-0.3-0.1-0.7-0.3c-0.3-0.1-0.7-0.3-0.7-0.3
						s0.1,0.4,0.1,0.7c0.1,0.4,0.1,0.7,0.1,0.7"/>
				</g>
				<g>
					<path fill="none" stroke="#0000FF" stroke-miterlimit="10" d="M67.2,87.8c0,0-0.3-0.1-0.6-0.3S66,87.2,66,87.2s0.1,0.4,0.1,0.7
						c0,0.4,0,0.7,0,0.7"/>
				</g>
				<g>
					<path fill="none" stroke="#0000FF" stroke-miterlimit="10" d="M65.9,88.8c0,0-0.3-0.2-0.6-0.4C65,88.2,64.7,88,64.7,88
						s0,0.4,0,0.7c0,0.4,0,0.7,0,0.7"/>
				</g>
				<g>
					<path fill="none" stroke="#0000FF" stroke-miterlimit="10" d="M64.4,89.7c0,0-0.3-0.2-0.5-0.4c-0.3-0.2-0.5-0.5-0.5-0.5
						s0,0.4-0.1,0.7c0,0.4-0.1,0.7-0.1,0.7"/>
				</g>
				<g>
					<path fill="none" stroke="#0000FF" stroke-miterlimit="10" d="M62.9,90.4c0,0-0.3-0.2-0.5-0.5c-0.3-0.3-0.5-0.5-0.5-0.5
						s-0.1,0.4-0.1,0.7c-0.1,0.4-0.1,0.7-0.1,0.7"/>
				</g>
				<g>
					<path fill="none" stroke="#0000FF" stroke-miterlimit="10" d="M61.3,91c0,0-0.2-0.3-0.5-0.5c-0.2-0.3-0.5-0.5-0.5-0.5
						s-0.1,0.4-0.2,0.7c0,0.3-0.1,0.7-0.1,0.7"/>
				</g>
				<g>
					<path fill="none" stroke="#0000FF" stroke-miterlimit="10" d="M59.7,91.4c0,0-0.2-0.3-0.5-0.5c-0.2-0.3-0.4-0.5-0.4-0.5
						s-0.1,0.3-0.2,0.7c-0.1,0.3-0.2,0.7-0.2,0.7"/>
				</g>
				<g>
					<path fill="none" stroke="#0000FF" stroke-miterlimit="10" d="M58.1,91.8c0,0-0.2-0.3-0.4-0.6c-0.2-0.3-0.4-0.6-0.4-0.6
						s-0.1,0.3-0.3,0.7c-0.1,0.3-0.3,0.7-0.3,0.7"/>
				</g>
				<g>
					<path fill="none" stroke="#0000FF" stroke-miterlimit="10" d="M56.5,92.1c0,0-0.2-0.3-0.4-0.6c-0.2-0.3-0.4-0.6-0.4-0.6
						s-0.1,0.3-0.3,0.7c-0.1,0.3-0.3,0.7-0.3,0.7"/>
				</g>
				<g>
					<path fill="none" stroke="#0000FF" stroke-miterlimit="10" d="M54.9,92.3c0,0-0.2-0.3-0.3-0.6c-0.2-0.3-0.3-0.6-0.3-0.6
						s-0.2,0.3-0.3,0.7c-0.2,0.3-0.3,0.7-0.3,0.7"/>
				</g>
				<g>
					<path fill="none" stroke="#0000FF" stroke-miterlimit="10" d="M53.2,92.5c0,0-0.2-0.3-0.3-0.6c-0.2-0.3-0.3-0.6-0.3-0.6
						l-0.7,1.3"/>
				</g>
			</g>
		</g>
	</g>
	<g>
		<g>
			<path fill="none" stroke="#0000FF" stroke-miterlimit="10" d="M63.4,44.9"/>
		</g>
	</g>
	<g>
		<g>
			<g>
				<g>
					<path fill="none" stroke="#0000FF" stroke-miterlimit="10" d="M53.2,92.5l-0.5-1.3c0,0-0.2,0.3-0.4,0.6
						c-0.2,0.3-0.4,0.6-0.4,0.6"/>
				</g>
				<g>
					<path fill="none" stroke="#0000FF" stroke-miterlimit="10" d="M51.6,92.4c0,0-0.1-0.3-0.2-0.7c-0.1-0.3-0.2-0.7-0.2-0.7
						s-0.2,0.3-0.4,0.6c-0.2,0.3-0.5,0.6-0.5,0.6"/>
				</g>
				<g>
					<path fill="none" stroke="#0000FF" stroke-miterlimit="10" d="M49.9,92.3c0,0-0.1-0.3-0.2-0.7c-0.1-0.3-0.2-0.7-0.2-0.7
						s-0.2,0.3-0.5,0.6c-0.2,0.3-0.5,0.6-0.5,0.6"/>
				</g>
				<g>
					<path fill="none" stroke="#0000FF" stroke-miterlimit="10" d="M48.3,92.1c0,0-0.1-0.3-0.2-0.7C48,91,48,90.7,48,90.7
						s-0.3,0.3-0.5,0.6c-0.3,0.3-0.5,0.5-0.5,0.5"/>
				</g>
				<g>
					<path fill="none" stroke="#0000FF" stroke-miterlimit="10" d="M46.7,91.8c0,0-0.1-0.3-0.1-0.7c-0.1-0.3-0.1-0.7-0.1-0.7
						s-0.3,0.3-0.5,0.5c-0.3,0.3-0.5,0.5-0.5,0.5"/>
				</g>
				<g>
					<path fill="none" stroke="#0000FF" stroke-miterlimit="10" d="M45.1,91.4c0,0-0.1-0.3-0.1-0.7c-0.1-0.3-0.1-0.7-0.1-0.7
						s-0.3,0.3-0.5,0.5C44,90.8,43.7,91,43.7,91"/>
				</g>
				<g>
					<path fill="none" stroke="#0000FF" stroke-miterlimit="10" d="M43.5,90.9c0,0,0-0.3-0.1-0.7c0-0.3,0-0.7,0-0.7
						s-0.3,0.2-0.6,0.5c-0.3,0.2-0.6,0.5-0.6,0.5"/>
				</g>
				<g>
					<path fill="none" stroke="#0000FF" stroke-miterlimit="10" d="M41.9,90.3c0,0,0-0.3,0-0.7c0-0.3,0-0.7,0-0.7s-0.3,0.2-0.6,0.4
						c-0.3,0.2-0.6,0.4-0.6,0.4"/>
				</g>
				<g>
					<path fill="none" stroke="#0000FF" stroke-miterlimit="10" d="M40.4,89.5c0,0,0-0.3,0.1-0.7c0-0.3,0.1-0.7,0.1-0.7
						s-0.3,0.2-0.7,0.3s-0.7,0.3-0.7,0.3"/>
				</g>
				<g>
					<path fill="none" stroke="#0000FF" stroke-miterlimit="10" d="M39,88.7c0,0,0.1-0.3,0.1-0.7c0.1-0.3,0.1-0.7,0.1-0.7
						s-0.3,0.1-0.7,0.3c-0.3,0.1-0.7,0.3-0.7,0.3"/>
				</g>
				<g>
					<path fill="none" stroke="#0000FF" stroke-miterlimit="10" d="M37.6,87.6c0,0,0.1-0.3,0.2-0.7s0.2-0.7,0.2-0.7
						s-0.3,0.1-0.7,0.2s-0.7,0.2-0.7,0.2"/>
				</g>
				<g>
					<path fill="none" stroke="#0000FF" stroke-miterlimit="10" d="M36.4,86.5c0,0,0.1-0.3,0.3-0.7s0.3-0.6,0.3-0.6
						s-0.4,0.1-0.7,0.1c-0.4,0.1-0.7,0.1-0.7,0.1"/>
				</g>
				<g>
					<path fill="none" stroke="#0000FF" stroke-miterlimit="10" d="M35.3,85.2c0,0,0.2-0.3,0.3-0.6C35.8,84.3,36,84,36,84
						s-0.4,0-0.7,0c-0.4,0-0.7,0-0.7,0"/>
				</g>
				<g>
					<path fill="none" stroke="#0000FF" stroke-miterlimit="10" d="M34.4,83.7c0,0,0.2-0.3,0.4-0.6s0.5-0.5,0.5-0.5s-0.4,0-0.7-0.1
						c-0.4-0.1-0.7-0.1-0.7-0.1"/>
				</g>
				<g>
					<path fill="none" stroke="#0000FF" stroke-miterlimit="10" d="M33.7,82.1c0,0,0.3-0.3,0.5-0.5c0.3-0.2,0.5-0.5,0.5-0.5
						S34.3,81,34,80.9c-0.2-0.1-0.3-0.1-0.5-0.2s-0.2-0.1-0.2-0.1"/>
				</g>
				<g>
					<polyline fill="none" stroke="#0000FF" stroke-miterlimit="10" points="33.3,80.4 34.6,79.7 33.2,79 					"/>
				</g>
				<g>
					<polyline fill="none" stroke="#0000FF" stroke-miterlimit="10" points="33.2,78.8 34.4,78.1 33.1,77.4 					"/>
				</g>
				<g>
					<polyline fill="none" stroke="#0000FF" stroke-miterlimit="10" points="33.1,77.1 34.4,76.5 33,75.8 					"/>
				</g>
				<g>
					<polyline fill="none" stroke="#0000FF" stroke-miterlimit="10" points="33,75.5 34.3,74.9 32.9,74.1 					"/>
				</g>
				<g>
					<polyline fill="none" stroke="#0000FF" stroke-miterlimit="10" points="32.9,73.9 34.2,73.3 32.9,72.5 					"/>
				</g>
				<g>
					<polyline fill="none" stroke="#0000FF" stroke-miterlimit="10" points="32.9,72.3 34.1,71.7 32.9,70.9 					"/>
				</g>
				<g>
					<polyline fill="none" stroke="#0000FF" stroke-miterlimit="10" points="32.9,70.7 34.1,70.1 32.8,69.3 					"/>
				</g>
				<g>
					<polyline fill="none" stroke="#0000FF" stroke-miterlimit="10" points="32.8,69 34.1,68.5 32.9,67.7 					"/>
				</g>
				<g>
					<polyline fill="none" stroke="#0000FF" stroke-miterlimit="10" points="32.9,67.4 34.1,66.9 32.9,66.1 					"/>
				</g>
				<g>
					<polyline fill="none" stroke="#0000FF" stroke-miterlimit="10" points="32.9,65.8 34.2,65.2 32.9,64.4 					"/>
				</g>
				<g>
					<polyline fill="none" stroke="#0000FF" stroke-miterlimit="10" points="32.9,64.2 34.2,63.7 33,62.8 					"/>
				</g>
				<g>
					<polyline fill="none" stroke="#0000FF" stroke-miterlimit="10" points="33,62.6 34.3,62 33.1,61.2 					"/>
				</g>
				<g>
					<polyline fill="none" stroke="#0000FF" stroke-miterlimit="10" points="33.1,61 34.4,60.5 33.2,59.6 					"/>
				</g>
				<g>
					<path fill="none" stroke="#0000FF" stroke-miterlimit="10" d="M33.2,59.3l1.4-0.5c0,0-0.3-0.2-0.6-0.4s-0.6-0.5-0.6-0.5"/>
				</g>
				<g>
					<path fill="none" stroke="#0000FF" stroke-miterlimit="10" d="M33.4,57.7c0,0,0.3-0.1,0.7-0.2c0.3-0.1,0.7-0.2,0.7-0.2
						s-0.3-0.2-0.6-0.5c-0.3-0.2-0.6-0.5-0.6-0.5"/>
				</g>
				<g>
					<path fill="none" stroke="#0000FF" stroke-miterlimit="10" d="M33.6,56.1c0,0,0.3-0.1,0.7-0.2c0.3-0.1,0.7-0.2,0.7-0.2
						s-0.3-0.2-0.6-0.5s-0.6-0.5-0.6-0.5"/>
				</g>
				<g>
					<path fill="none" stroke="#0000FF" stroke-miterlimit="10" d="M33.9,54.5c0,0,0.3-0.1,0.7-0.2s0.7-0.1,0.7-0.1
						s-0.3-0.3-0.5-0.5c-0.3-0.3-0.5-0.5-0.5-0.5"/>
				</g>
				<g>
					<path fill="none" stroke="#0000FF" stroke-miterlimit="10" d="M34.2,52.9c0,0,0.3-0.1,0.7-0.1c0.3-0.1,0.7-0.1,0.7-0.1
						s-0.3-0.3-0.5-0.5c-0.3-0.3-0.5-0.5-0.5-0.5"/>
				</g>
				<g>
					<path fill="none" stroke="#0000FF" stroke-miterlimit="10" d="M34.6,51.2c0,0,0.3,0,0.7-0.1c0.3,0,0.7-0.1,0.7-0.1
						s-0.3-0.3-0.5-0.6S35,49.8,35,49.8"/>
				</g>
				<g>
					<path fill="none" stroke="#0000FF" stroke-miterlimit="10" d="M35.2,49.7c0,0,0.3,0,0.7,0c0.3,0,0.7,0,0.7,0s-0.2-0.3-0.4-0.6
						s-0.4-0.6-0.4-0.6"/>
				</g>
				<g>
					<path fill="none" stroke="#0000FF" stroke-miterlimit="10" d="M35.9,48.2c0,0,0.3,0,0.7,0c0.3,0,0.7,0.1,0.7,0.1
						S37.1,48,37,47.6c-0.2-0.3-0.3-0.7-0.3-0.7"/>
				</g>
				<g>
					<path fill="none" stroke="#0000FF" stroke-miterlimit="10" d="M36.8,46.7c0,0,0.3,0.1,0.7,0.1s0.7,0.2,0.7,0.2
						s-0.1-0.3-0.3-0.7c-0.1-0.4-0.2-0.7-0.2-0.7"/>
				</g>
				<g>
					<path fill="none" stroke="#0000FF" stroke-miterlimit="10" d="M38,45.3c0,0,0.3,0.1,0.7,0.3c0.3,0.1,0.6,0.3,0.6,0.3
						s-0.1-0.4-0.1-0.7c0-0.2,0-0.4,0.1-0.5c0-0.1,0-0.1,0.1-0.2c0-0.1,0-0.1,0-0.1"/>
				</g>
			</g>
		</g>
	</g>
	<g>
		<g>
			<path fill="none" stroke="#0000FF" stroke-miterlimit="10" d="M53.3,49.3"/>
		</g>
	</g>
</g>
<g id="leaf">
	<g>
		<path fill="#A8CF38" stroke="#010101" stroke-width="0.5" stroke-linecap="round" stroke-linejoin="round" d="M47.5,24.4
			c0,0-2.5-4.3-2.1-6.5l0.6,0.2c0,0-0.5-0.6,0.1-3.3l0.5,0.4c0,0-0.4-1.3,0.4-3l0.5,0.4c0,0,0.2-1.2,0.7-2.4l0.5,0.3
			c0,0-0.1-1.4,0.4-2.4l0.5,0.4c0,0,0.2-1.8,1.2-2.2l0.1,0.4c0,0,0.7-1.1,1.7-1.7L53,5.7c0,0,0-1.1,1.2-1.6l0.3,0.4
			c0,0,0.1-1.5,1.3-1.7l0.3,0.7c0,0,2-1.9,2.5-2l0.7,0.4c0.1,0.3,0,3.2,0,3.2l0.8-0.2C60.7,6,59.6,7,59.6,7h0.5c0.4,1.3-0.5,2-0.5,2
			l0.7,0.1c0.1,1.2-0.3,2.4-0.3,2.4l0.4-0.1c0.3,1-1,2.2-1,2.2l0.6,0.1c-0.5,1-1.7,1.8-1.7,1.8l0.6,0.2c-0.7,1.1-1.5,2-1.5,2
			l0.6,0.1c-0.7,1.7-2,2.2-2,2.2l0.6,0.1c-1.7,2.1-2.5,2-2.5,2l0.5,0.3c-1.5,1.6-6.4,2.2-6.4,2.2L47.5,24.4z"/>
		<path fill="#A8CF38" stroke="#010101" stroke-width="0.5" stroke-linecap="round" stroke-linejoin="round" d="M48,24.6
			c0,0-2.5-4.3-2.1-6.5l0.6,0.2c0,0-0.5-0.6,0.1-3.3l0.5,0.4c0,0-0.4-1.3,0.4-3l0.5,0.4c0,0,0.2-1.2,0.7-2.4l0.5,0.3
			c0,0-0.1-1.4,0.4-2.4L50,8.9c0,0,0.2-1.8,1.2-2.2l0.1,0.4c0,0,0.7-1.1,1.7-1.7l0.5,0.5c0,0,0-1.1,1.2-1.6L55,4.7
			c0,0,0.1-1.5,1.3-1.7l0.3,0.7c0,0,2-1.9,2.5-2l0.7,0.4c0.1,0.3,0,3.2,0,3.2l0.8-0.2C61.1,6.2,60,7.2,60,7.2h0.5
			c0.4,1.3-0.5,2-0.5,2l0.7,0.1c0.1,1.2-0.3,2.4-0.3,2.4l0.4-0.1c0.3,1-1,2.2-1,2.2l0.6,0.1c-0.5,1-1.7,1.8-1.7,1.8l0.6,0.2
			c-0.7,1.1-1.5,2-1.5,2l0.6,0.1c-0.8,1.7-2.1,2.2-2.1,2.2l0.6,0.1c-1.7,2.1-2.5,2-2.5,2l0.5,0.3c-1.5,1.6-6.4,2.2-6.4,2.2L48,24.6z
			"/>
		
			<line fill="none" stroke="#010101" stroke-width="0.5" stroke-linecap="round" stroke-linejoin="round" x1="59.3" y1="2.1" x2="48.2" y2="24.7"/>
		<g>
			
				<line fill="none" stroke="#010101" stroke-width="0.5" stroke-linecap="round" stroke-linejoin="round" x1="56.7" y1="3.4" x2="57.1" y2="5.3"/>
			
				<line fill="none" stroke="#010101" stroke-width="0.5" stroke-linecap="round" stroke-linejoin="round" x1="55" y1="4.8" x2="56.1" y2="7"/>
			
				<line fill="none" stroke="#010101" stroke-width="0.5" stroke-linecap="round" stroke-linejoin="round" x1="53.6" y1="5.8" x2="55" y2="8.7"/>
			
				<line fill="none" stroke="#010101" stroke-width="0.5" stroke-linecap="round" stroke-linejoin="round" x1="51.3" y1="7" x2="53.7" y2="10.4"/>
			
				<line fill="none" stroke="#010101" stroke-width="0.5" stroke-linecap="round" stroke-linejoin="round" x1="50.1" y1="8.7" x2="53.1" y2="12.3"/>
			
				<line fill="none" stroke="#010101" stroke-width="0.5" stroke-linecap="round" stroke-linejoin="round" x1="49" y1="10.8" x2="52" y2="14.1"/>
			
				<line fill="none" stroke="#010101" stroke-width="0.5" stroke-linecap="round" stroke-linejoin="round" x1="47.8" y1="12.7" x2="50.4" y2="16.2"/>
			
				<line fill="none" stroke="#010101" stroke-width="0.5" stroke-linecap="round" stroke-linejoin="round" x1="47" y1="15.4" x2="50" y2="19.2"/>
			
				<line fill="none" stroke="#010101" stroke-width="0.5" stroke-linecap="round" stroke-linejoin="round" x1="46.4" y1="18.2" x2="48.9" y2="22.3"/>
		</g>
		<g>
			
				<line fill="none" stroke="#010101" stroke-width="0.5" stroke-linecap="round" stroke-linejoin="round" x1="60.2" y1="5.1" x2="58.5" y2="5.9"/>
			
				<line fill="none" stroke="#010101" stroke-width="0.5" stroke-linecap="round" stroke-linejoin="round" x1="60.1" y1="7.3" x2="57.8" y2="7.8"/>
			
				<line fill="none" stroke="#010101" stroke-width="0.5" stroke-linecap="round" stroke-linejoin="round" x1="60.2" y1="9.1" x2="57.1" y2="9.7"/>
			
				<line fill="none" stroke="#010101" stroke-width="0.5" stroke-linecap="round" stroke-linejoin="round" x1="60.6" y1="11.7" x2="56.5" y2="11.8"/>
			
				<line fill="none" stroke="#010101" stroke-width="0.5" stroke-linecap="round" stroke-linejoin="round" x1="60" y1="13.6" x2="55.3" y2="13.4"/>
			
				<line fill="none" stroke="#010101" stroke-width="0.5" stroke-linecap="round" stroke-linejoin="round" x1="59" y1="15.8" x2="54.6" y2="15.4"/>
			
				<line fill="none" stroke="#010101" stroke-width="0.5" stroke-linecap="round" stroke-linejoin="round" x1="58.2" y1="17.8" x2="53.9" y2="17.9"/>
			
				<line fill="none" stroke="#010101" stroke-width="0.5" stroke-linecap="round" stroke-linejoin="round" x1="56.7" y1="20.2" x2="51.8" y2="20.1"/>
			
				<line fill="none" stroke="#010101" stroke-width="0.5" stroke-linecap="round" stroke-linejoin="round" x1="54.8" y1="22.3" x2="50" y2="22.8"/>
		</g>
		<path fill="#FFFFFF" stroke="#010101" stroke-width="0.5" stroke-linecap="round" stroke-linejoin="round" d="M61.2,9.4
			c0,0-1.6,0.4-1.2,1.3c0,0-2,0.3-1.1,1.9c0,0,0.5,1.1,1.4,0.7c0,0-0.5,0.9,0.3,0.7s0.6-0.2,0.6-0.2"/>
		<path fill="#FFFFFF" stroke="#010101" stroke-width="0.5" stroke-miterlimit="10" d="M50.5,11.6c-0.1,0.4-0.3,0.7-0.4,1
			c0.4,0.3,1-0.4,1.2-0.7c-0.2,0.6-0.1,1.8,0.7,1c-0.1,0.6,0.2,0.7,0.6,0.9c-0.1,0.5-0.6,0.6-0.9,1c-0.2,0.2-0.3,0.5-0.4,0.8
			C51,15.4,51,15,50.7,14.8c-0.2,0.1-0.7,0.9-1,0.8c-0.3,0-0.5-0.7-0.8-0.8c0.1-0.3,0.3-0.6,0.4-0.9c-0.1-0.1-0.1-0.1-0.1-0.1
			c0.1-0.4,0.8-2.3,1.2-1.8"/>
		<path fill="#FFFFFF" stroke="#010101" stroke-width="0.5" stroke-miterlimit="10" d="M56.1,7.3c0.5-0.4,0.5-1,1.2-1.3
			c0.1,0.2-0.1,0.8,0.1,0.9c0.4,0.3,1-0.4,1.3-0.7c-0.1,0.1-0.3,0.7-0.3,0.8c0.2,0.4,0.7,0.1,1,0.1c-0.2,0.6-0.7,1-1,1.6
			c-0.2,0.4-0.2,0.7-0.4,1.1c-0.7-0.2-1.1-0.7-1.2-1.4c-0.2,0.4-0.9,1.8-1,0.7c-0.1-0.7,0.5-1.3,0.5-2"/>
		<path fill="#FFFFFF" stroke="#010101" stroke-width="0.5" stroke-miterlimit="10" d="M55.3,16.6c0,0.4-0.6,0.9-0.6,1.3
			c0,0.5,0.7,0.9,1.2,1c-0.6,0.2-1.2,0.5-1.4,1.1c0.3,0.3,0.6,0.4,0.9,0.5c-0.3,0.1-1.6,0.8-0.8,1.1c-0.2,0.5-1.6-0.2-1.9-0.5
			c-0.7-0.6-0.5-1.4-0.1-2.2c0.5-1.1,1.4-2.3,2.8-2"/>
	</g>
</g>
<g id="water">
	<g>
		<path fill="#55C2E2" stroke="#070707" stroke-width="0.5" stroke-miterlimit="10" d="M75,25c0,0-10.4,12-1.2,14.8
			c0,0,7.5-0.2,4.2-8.9C78,30.8,75.1,27.5,75,25z"/>
		<path fill="none" stroke="#3A97AD" stroke-miterlimit="10" d="M74.4,38.8c1.5,0.7,3.9-3,3.7-4.3"/>
		
			<ellipse transform="matrix(-0.6127 -0.7903 0.7903 -0.6127 88.4013 117.1235)" opacity="0.8" fill="#FFFFFF" enable-background="new    " cx="72.9" cy="36.9" rx="1.7" ry="1.4"/>
		<path opacity="0.8" fill="#FFFFFF" enable-background="new    " d="M71.9,30.3c0,0,1.4-3.3,3-4.2"/>
	</g>
	<g>
		<path fill="#55C2E2" stroke="#070707" stroke-width="0.5" stroke-miterlimit="10" d="M23.9,45.2c0,0-10.4,12-1.2,14.8
			c0,0,7.5-0.2,4.2-8.9C26.9,51,24.1,47.7,23.9,45.2z"/>
		<path fill="none" stroke="#3A97AD" stroke-miterlimit="10" d="M23.3,58.9c1.5,0.7,3.9-3,3.7-4.3"/>
		
			<ellipse transform="matrix(-0.6127 -0.7903 0.7903 -0.6127 -9.9461 109.2948)" opacity="0.8" fill="#FFFFFF" enable-background="new    " cx="21.8" cy="57.1" rx="1.7" ry="1.4"/>
		<path opacity="0.8" fill="#FFFFFF" enable-background="new    " d="M20.9,50.4c0,0,1.4-3.3,3-4.2"/>
	</g>
	<g>
		<path fill="#55C2E2" stroke="#070707" stroke-width="0.5" stroke-miterlimit="10" d="M77.8,48.1c0,0-6.3,7.2-0.7,8.9
			c0,0,4.5-0.1,2.5-5.4C79.6,51.6,77.9,49.6,77.8,48.1z"/>
		<path fill="none" stroke="#3A97AD" stroke-miterlimit="10" d="M77.4,56.4c0.9,0.4,2.3-1.8,2.2-2.6"/>
		
			<ellipse transform="matrix(-0.6125 -0.7905 0.7905 -0.6125 78.9267 150.7337)" opacity="0.8" fill="#FFFFFF" enable-background="new    " cx="76.4" cy="56" rx="0.6" ry="0.5"/>
		<path opacity="0.8" fill="#FFFFFF" enable-background="new    " d="M76,51.3c0,0,0.8-2,1.8-2.5"/>
	</g>
	<g>
		<path fill="#55C2E2" stroke="#070707" stroke-width="0.5" stroke-miterlimit="10" d="M72.1,87.3c0,0-6.3,7.2-0.7,8.9
			c0,0,4.5-0.1,2.5-5.4C73.9,90.9,72.2,88.8,72.1,87.3z"/>
		<path fill="none" stroke="#3A97AD" stroke-miterlimit="10" d="M71.8,95.6c0.9,0.4,2.3-1.8,2.2-2.6"/>
		
			<ellipse transform="matrix(-0.6127 -0.7903 0.7903 -0.6127 38.733 209.572)" opacity="0.8" fill="#FFFFFF" enable-background="new    " cx="70.7" cy="95.3" rx="0.6" ry="0.5"/>
		<path opacity="0.8" fill="#FFFFFF" enable-background="new    " d="M70.3,90.5c0,0,0.8-2,1.8-2.5"/>
	</g>
	<g>
		<path fill="#55C2E2" stroke="#070707" stroke-width="0.5" stroke-miterlimit="10" d="M34,87.7c0,0-3.9,4.5-0.5,5.5
			c0,0,2.8-0.1,1.6-3.3C35.2,89.9,34.1,88.7,34,87.7z"/>
		<path fill="none" stroke="#3A97AD" stroke-miterlimit="10" d="M33.8,92.9c0.5,0.3,1.5-1.1,1.4-1.6"/>
		<ellipse opacity="0.8" fill="#FFFFFF" enable-background="new    " cx="33.1" cy="92.2" rx="0.3" ry="0.3"/>
		<path opacity="0.8" fill="#FFFFFF" enable-background="new    " d="M32.9,89.7c0,0,0.5-1.3,1.1-1.6"/>
	</g>
	<g>
		<path fill="#55C2E2" stroke="#070707" stroke-width="0.5" stroke-miterlimit="10" d="M33.6,34.1c0,0-3.9,4.5-0.5,5.5
			c0,0,2.8-0.1,1.6-3.3C34.7,36.3,33.6,35.1,33.6,34.1z"/>
		<path fill="none" stroke="#3A97AD" stroke-miterlimit="10" d="M33.3,39.3c0.5,0.3,1.5-1.1,1.4-1.6"/>
		<ellipse opacity="0.8" fill="#FFFFFF" enable-background="new    " cx="32.6" cy="38.6" rx="0.3" ry="0.3"/>
		<path opacity="0.8" fill="#FFFFFF" enable-background="new    " d="M32.4,36.1c0,0,0.5-1.3,1.1-1.6"/>
	</g>
</g>
<g id="eyes">
	<path fill="#FF9900" stroke="#010101" stroke-width="0.5" stroke-miterlimit="10" d="M44.3,30.3c0,0,3.6-5.3,6.4-2.9
		c0,0-0.6,6.7-6.8,3.7L44.3,30.3z"/>
	<path fill="#FF9900" stroke="#010101" stroke-width="0.5" stroke-miterlimit="10" d="M60.7,30.4c0,0-3.6-5.1-6.6-2.8
		c0,0,0.6,6.5,6.9,3.6L60.7,30.4z"/>
</g>
</svg>
