<?xml version="1.0" encoding="utf-8"?>
<!-- Generator: Adobe Illustrator 17.1.0, SVG Export Plug-In . SVG Version: 6.00 Build 0)  -->
<!DOCTYPE svg PUBLIC "-//W3C//DTD SVG 1.1//EN" "http://www.w3.org/Graphics/SVG/1.1/DTD/svg11.dtd">
<svg version="1.1" xmlns="http://www.w3.org/2000/svg" xmlns:xlink="http://www.w3.org/1999/xlink" x="0px" y="0px"
	 viewBox="0 0 211.7 362.1" enable-background="new 0 0 211.7 362.1" xml:space="preserve">
<pattern  x="-210.3" y="-178.5" width="8.7" height="8.7" patternUnits="userSpaceOnUse" id="New_Pattern_Swatch_12" viewBox="0 -8.7 8.7 8.7" overflow="visible">
	<g>
		<polygon fill="none" points="8.7,0 0,0 0,-8.7 8.7,-8.7 		"/>
		<g>
			<path fill="#010101" d="M5-4.5c0,0.4-0.3,0.7-0.7,0.7C4-3.8,3.7-4.1,3.7-4.5c0-0.4,0.3-0.7,0.7-0.7C4.7-5.2,5-4.9,5-4.5z"/>
		</g>
	</g>
</pattern>
<g id="legs">
	<path fill="#FFFFFF" stroke="#010101" stroke-miterlimit="10" d="M154,187c0,0,9.4-5.4,17.6-1.7l-1.2,5.4c0,0-4.2,6.8-10,9.2
		C160.3,199.9,159.6,188.8,154,187z"/>
	<path fill="#FFFFFF" stroke="#010101" stroke-miterlimit="10" d="M171.6,187.7c0,0,16.2,32,16.5,41.5c0,0,14,12,17.5,18.2
		s2.2,10,1.5,12.3c0,0,1.2-6.8-4-12l-17.5-16.2c0,0-14.3-42.1-15.2-40.8L171.6,187.7z"/>
	<path fill="#FFFFFF" stroke="#010101" stroke-miterlimit="10" d="M54,187.4c0,0-9.4-5.3-17.6-1.7l1.2,5.4c0,0,4.2,6.8,10,9.2
		C47.6,200.3,48.3,189.2,54,187.4z"/>
	<path fill="#FFFFFF" stroke="#010101" stroke-miterlimit="10" d="M36.3,188.1c0,0-16.2,32-16.5,41.5c0,0-14,12-17.5,18.2
		s-2.2,10-1.5,12.3c0,0-1.2-6.8,4-12l17.5-16.2c0,0,14.3-42.2,15.2-40.8L36.3,188.1z"/>
	<path fill="#FFFFFF" stroke="#010101" stroke-miterlimit="10" d="M162.2,256.5l-0.1,14.8c0,0,12.1-2.9,12.3-11.1
		C174.3,260.1,167.7,255.2,162.2,256.5z"/>
	<path fill="#FFFFFF" stroke="#010101" stroke-miterlimit="10" d="M174.3,262.5c0,0,6.8,8.2,7,15.2s0,29.2,0,29.2s19.2,28,15.5,34.2
		s-0.8,0-0.8,0s1.5-3.8-3-8.5c0,0,1,4,0,5c0,0-7.8-24-16-29.2l0.5-31.2c0,0-1.9-9.1-5.6-11.5L174.3,262.5z"/>
	<path fill="#FFFFFF" stroke="#010101" stroke-miterlimit="10" d="M46.2,256.5l0.1,14.8c0,0-12.1-2.9-12.3-11.1
		C34,260.1,40.6,255.2,46.2,256.5z"/>
	<path fill="#FFFFFF" stroke="#010101" stroke-miterlimit="10" d="M34,262.5c0,0-6.8,8.2-7,15.2s0,29.2,0,29.2s-19.2,28-15.5,34.2
		s0.8,0,0.8,0s-1.5-3.8,3-8.5c0,0-1,4,0,5c0,0,7.8-24,16-29.2l-0.5-31.2c0,0,1.9-9.1,5.6-11.5L34,262.5z"/>
	<path fill="#FFFFFF" stroke="#010101" stroke-miterlimit="10" d="M142.1,139.1c0,0,4.5-5.1,8.3-4.1c3.8,1,3.6,4.1,3.6,4.1
		s-1.1,8.4-3.4,11.3L142.1,139.1z"/>
	<path fill="#FFFFFF" stroke="#010101" stroke-miterlimit="10" d="M152.6,136.2c0,0,13.2-30.9,9.2-53.4c0,0,3,6.2,3,8.2
		c0,0,2.1-7.2-2.1-11.8c0,0,2.1-15.3,12.3-15.8c0,0-11.8-2.2-15.8,17c0,0,2.5,22.2-9,54.5L152.6,136.2z"/>
	<path fill="#FFFFFF" stroke="#010101" stroke-miterlimit="10" d="M66.3,138.4c0,0-4.5-5.1-8.3-4.1s-3.6,4.1-3.6,4.1
		s1.1,8.4,3.4,11.3L66.3,138.4z"/>
	<path fill="#FFFFFF" stroke="#010101" stroke-miterlimit="10" d="M55.7,135.4c0,0-13.2-30.9-9.2-53.4c0,0-3,6.2-3,8.2
		c0,0-2.1-7.2,2.1-11.8c0,0-2.1-15.2-12.3-15.8c0,0,11.8-2.2,15.8,17c0,0-2.5,22.2,9,54.5L55.7,135.4z"/>
</g>
<g id="basebody">
	<path fill="#FFFFFF" stroke="#010101" stroke-miterlimit="10" d="M94.6,113.8"/>
	<path fill="#FFFFFF" stroke="#000000" stroke-miterlimit="10" d="M105.2,354.6l-1.1,0.2c-1.5,0.3-3,0.4-4.6,0.4h0
		c-17.4,0-37.4-17.5-38.9-18.7c-20-14.5-16.2-91.4-14.6-124.3c0.3-6.8,0.6-11.7,0.5-13.4c-0.7-9.7,5.4-13.3,9.8-15.9
		c0.4-0.2,0.8-0.5,1.2-0.7c3.3-2,7.3-2.4,13.5-2.4c2.6,0,5.7,0.1,9.3,0.2l2.9,0.1c15.8,0.3,16.9,7.1,17,7.9c0.6,4.2,4.7,10,4.8,10
		l0.3,0.4"/>
	<path fill="#FFFFFF" stroke="#010101" stroke-miterlimit="10" d="M74.9,127.2c0,0,8.6-27.7,27.7-30c19.1-2.2,24,26.5,24,26.5
		S116.6,144.2,74.9,127.2z"/>
	<path fill="#FFFFFF" stroke="#010101" stroke-miterlimit="10" d="M133,127.2c0,0,27.2,32.3,27.2,39.7c0,7.3-15.6,14.9-15.6,14.9
		H63.4c0,0-15.6-7.5-15.6-14.9c0-7.3,27.2-39.7,27.2-39.7S103.6,115.9,133,127.2z"/>
	<path fill="#FFFFFF" stroke="#000000" stroke-miterlimit="10" d="M108.4,355.3c-1.6,0-3.1-0.2-4.6-0.4l-1.1-0.2V198.4l0.3-0.4
		c0-0.1,4.1-5.8,4.8-10.1c0.1-0.7,1.2-7.5,17-7.8l2.9-0.1c3.6-0.1,6.7-0.2,9.3-0.2c6.2,0,10.2,0.4,13.5,2.4c0.4,0.2,0.8,0.5,1.2,0.7
		c4.4,2.6,10.5,6.2,9.8,15.9c-0.1,1.6,0.1,6.6,0.5,13.4c1.6,32.8,5.4,109.7-14.6,124.3C145.8,337.9,125.8,355.3,108.4,355.3z"/>
</g>
<g id="bodycolor">
	<path fill="#6CBE45" stroke="#010101" stroke-miterlimit="10" d="M95.2,113.8"/>
	<path fill="#D0DD28" stroke="#010101" stroke-miterlimit="10" d="M105.4,354.6l-1.1,0.2c-1.5,0.3-3,0.4-4.6,0.4h0
		c-17.4,0-37.4-17.5-38.9-18.7c-20-14.5-16.2-91.4-14.6-124.3c0.3-6.8,0.6-11.7,0.5-13.4c-0.7-9.7,5.4-13.3,9.8-15.9
		c0.4-0.2,0.8-0.5,1.2-0.7c3.3-2,7.3-2.4,13.5-2.4c2.6,0,5.7,0.1,9.3,0.2l2.9,0.1c15.8,0.3,16.9,7.1,17,7.9c0.6,4.2,4.7,10,4.8,10
		l0.3,0.4"/>
	<path fill="#D0DD28" stroke="#010101" stroke-miterlimit="10" d="M75.4,127.2c0,0,8.6-27.7,27.7-30c19.1-2.2,24,26.5,24,26.5
		S117,144.2,75.4,127.2z"/>
	<path fill="#6CBE45" stroke="#010101" stroke-miterlimit="10" d="M133.1,127.2c0,0,27.2,32.3,27.2,39.7c0,7.3-15.6,14.9-15.6,14.9
		H63.5c0,0-15.6-7.5-15.6-14.9c0-7.3,27.2-39.7,27.2-39.7S103.8,115.9,133.1,127.2z"/>
	<path fill="#6CBE45" stroke="#010101" stroke-miterlimit="10" d="M108.5,355.3c-1.6,0-3.1-0.2-4.6-0.4l-1.1-0.2V198.4l0.3-0.4
		c0-0.1,4.1-5.8,4.8-10.1c0.1-0.7,1.2-7.5,17-7.8l2.9-0.1c3.6-0.1,6.7-0.2,9.3-0.2c6.2,0,10.2,0.4,13.5,2.4c0.4,0.2,0.8,0.5,1.2,0.7
		c4.4,2.6,10.5,6.2,9.8,15.9c-0.1,1.6,0.1,6.6,0.5,13.4c1.6,32.8,5.4,109.7-14.6,124.3C146,337.9,125.9,355.3,108.5,355.3z"/>
</g>
<g id="eyes">
	<path fill="#FFFFFF" stroke="#010101" stroke-miterlimit="10" d="M76.6,123.6c0,0-3.4-15.7,9.4-16.2
		C86,107.4,90.3,117.6,76.6,123.6z"/>
	<path fill="#FFFFFF" stroke="#010101" stroke-miterlimit="10" d="M131.8,123.6c0,0,3.4-15.7-9.4-16.2
		C122.4,107.4,118.2,117.6,131.8,123.6z"/>
</g>
<g id="antennae">
	<path fill="none" stroke="#010101" stroke-miterlimit="10" d="M120.6,107.5c0,0,2.9-6.6,14.4-4.3"/>
	<path fill="none" stroke="#010101" stroke-miterlimit="10" d="M86.5,107.5c0,0-2.9-6.6-14.4-4.3"/>
</g>
<g id="markings">
	<path fill="#010101" d="M45.3,271.9c3.7-3.8,10.2-10.5,15.8-10.5c7,0,7,7.5,12.3,10.2c5.7,2.9,9.6-2.9,12.4-7.2
		c3.9-6.1,8.3-8.6,16.1-8c6.2,0.5,8.6,4.6,12.5,9c2.9,3.2,8.9,9.5,13.1,5c1.4-1.4,1.4-6.3,2.9-8.5c2.7-3.9,6.2-6.5,11.4-6.5
		c5.5,0,9,5.5,13.6,8.1c1.7,1,3.8,2.3,5.7,2.9c1.1,5,1.6,9.8,1.6,14.9c0,7.3,1.8,11.6-7.3,13c-5.7,0.9-7.2,0.8-11-2.9
		c-3.1-2.9-4.3-5-8.8-5.1c-6.6-0.2-10.4,5.8-14.9,9.5c-4.2,3.5-16.1,6.2-21.3,2.3c-6.3-4.6-3.1-19.2-15.1-12.8
		c-6.9,3.6-8.3,11.6-16,15c-4,1.8-18.3,5.9-21.9,2c-3.4-3.7-1.1-30.3,1.5-32"/>
	<path fill="#010101" d="M45.3,221.6c3.7-3.8,10.2-10.5,15.8-10.5c7,0,7,7.5,12.3,10.2c5.7,2.9,9.6-2.9,12.4-7.2
		c3.9-6.1,8.3-8.6,16.1-8c6.2,0.5,8.6,4.6,12.5,9c2.9,3.2,8.9,9.5,13.1,5c1.4-1.4,1.4-6.3,2.9-8.5c2.7-3.9,6.2-6.5,11.4-6.5
		c5.5,0,9,5.5,13.6,8.1c1.7,1,3.8,2.3,5.7,2.9c1.1,5,1.6,9.8,1.6,14.9c0,7.3,1.8,11.6-7.3,13c-5.7,0.9-7.2,0.8-11-2.9
		c-3.1-2.9-4.3-5-8.8-5.1c-6.6-0.2-10.4,5.8-14.9,9.5c-4.2,3.5-16.1,6.2-21.3,2.3c-6.3-4.6-3.1-19.2-15.1-12.8
		c-6.9,3.6-8.3,11.6-16,15c-4,1.8-18.3,5.9-21.9,2c-3.4-3.7-1.1-30.3,1.5-32"/>
</g>
<g id="dots">
	<path fill="url(#New_Pattern_Swatch_12)" d="M104.2,198.6c0,0,4.3-6.1,5-10.8c0,0,0.7-6.4,15.7-6.7c15-0.3,20.7-0.7,25,2
		c4.3,2.7,11,5.7,10.3,15.5c-0.7,9.8,10,120.8-13.7,138c0,0-24.3,21.9-42.3,18.2V198.6z"/>
	<path fill="url(#New_Pattern_Swatch_12)" d="M104,198.6c0,0-4.3-6.1-5-10.8c0,0-0.7-6.4-15.7-6.7c-15-0.3-20.7-0.7-25,2
		c-4.3,2.7-11,5.7-10.3,15.5c0.7,9.8-10,120.8,13.7,138c0,0,24.3,21.9,42.3,18.2V198.6z"/>
</g>
<g id="fur">
	<g>
		<g>
			<path fill="none" stroke="#010101" stroke-miterlimit="10" d="M106.8,91"/>
		</g>
	</g>
	<g>
		<g>
			<path fill="none" stroke="#010101" stroke-miterlimit="10" d="M-76.3,353"/>
		</g>
	</g>
	<g>
		<g>
			<g>
				<g>
					<path fill="none" stroke="#010101" stroke-miterlimit="10" d="M154.9,182l-0.6,4.9c0,0,1.1-0.6,2.3-1.2
						c1.2-0.6,2.4-1.1,2.4-1.1"/>
				</g>
				<g>
					<path fill="none" stroke="#010101" stroke-miterlimit="10" d="M159.8,185.1c0,0-0.2,1.2-0.6,2.4c-0.2,0.6-0.4,1.2-0.5,1.6
						c-0.2,0.4-0.3,0.7-0.3,0.7s0.3-0.1,0.8-0.2c0.5-0.1,1.1-0.3,1.7-0.4c1.3-0.3,2.7-0.3,2.7-0.3"/>
				</g>
				<g>
					<path fill="none" stroke="#010101" stroke-miterlimit="10" d="M164.3,189.9c0,0-0.6,1.1-1.4,2.1c-0.8,1-1.6,1.8-1.6,1.8
						s0.3,0,0.8,0.1c0.5,0.1,1.1,0.2,1.8,0.3c1.3,0.3,2.6,0.9,2.6,0.9"/>
				</g>
				<g>
					<path fill="none" stroke="#010101" stroke-miterlimit="10" d="M166.6,196.1c0,0-0.3,0.2-0.6,0.5c-0.4,0.3-0.9,0.6-1.4,0.9
						c-1.1,0.6-2.2,1.1-2.2,1.1c0,0,0.3,0.1,0.7,0.4c0.4,0.2,1,0.6,1.5,0.9c0.6,0.3,1.1,0.8,1.5,1c0.4,0.3,0.7,0.4,0.7,0.4"/>
				</g>
				<g>
					<path fill="none" stroke="#010101" stroke-miterlimit="10" d="M166.8,202.2c0,0-1.1,0.4-2.2,0.9c-1.1,0.5-2.2,1-2.2,1
						s1.1,0.7,2.3,1.3c1.2,0.6,2.3,1.2,2.3,1.2"/>
				</g>
				<g>
					<polyline fill="none" stroke="#010101" stroke-miterlimit="10" points="166.9,207.5 162.5,209.7 167.2,212.2 					"/>
				</g>
				<g>
					<polyline fill="none" stroke="#010101" stroke-miterlimit="10" points="167.2,213.1 162.8,215.3 167.4,217.8 					"/>
				</g>
				<g>
					<polyline fill="none" stroke="#010101" stroke-miterlimit="10" points="167.5,218.7 163.1,220.9 167.7,223.4 					"/>
				</g>
				<g>
					<polyline fill="none" stroke="#010101" stroke-miterlimit="10" points="167.7,224.2 163.3,226.5 167.9,228.9 					"/>
				</g>
				<g>
					<polyline fill="none" stroke="#010101" stroke-miterlimit="10" points="168,229.8 163.5,232 168.1,234.5 					"/>
				</g>
				<g>
					<polyline fill="none" stroke="#010101" stroke-miterlimit="10" points="168.2,235.4 163.7,237.6 168.3,240.1 					"/>
				</g>
				<g>
					<polyline fill="none" stroke="#010101" stroke-miterlimit="10" points="168.3,241 163.9,243.2 168.5,245.7 					"/>
				</g>
				<g>
					<polyline fill="none" stroke="#010101" stroke-miterlimit="10" points="168.5,246.6 164,248.7 168.6,251.3 					"/>
				</g>
				<g>
					<polyline fill="none" stroke="#010101" stroke-miterlimit="10" points="168.6,252.2 164.1,254.3 168.6,256.9 					"/>
				</g>
				<g>
					<polyline fill="none" stroke="#010101" stroke-miterlimit="10" points="168.6,257.8 164.1,259.9 168.6,262.6 					"/>
				</g>
				<g>
					<polyline fill="none" stroke="#010101" stroke-miterlimit="10" points="168.6,263.4 164.1,265.4 168.5,268.2 					"/>
				</g>
				<g>
					<polyline fill="none" stroke="#010101" stroke-miterlimit="10" points="168.5,269.1 164,271 168.4,273.8 					"/>
				</g>
				<g>
					<polyline fill="none" stroke="#010101" stroke-miterlimit="10" points="168.4,274.7 163.8,276.5 168.2,279.4 					"/>
				</g>
				<g>
					<polyline fill="none" stroke="#010101" stroke-miterlimit="10" points="168.2,280.3 163.6,282.1 167.9,285 					"/>
				</g>
				<g>
					<polyline fill="none" stroke="#010101" stroke-miterlimit="10" points="167.9,285.9 163.2,287.6 167.5,290.6 					"/>
				</g>
				<g>
					<path fill="none" stroke="#010101" stroke-miterlimit="10" d="M167.4,291.5c0,0-1.2,0.4-2.3,0.8c-1.2,0.4-2.3,0.8-2.3,0.8
						l4.2,3.1"/>
				</g>
				<g>
					<path fill="none" stroke="#010101" stroke-miterlimit="10" d="M166.9,297.1l-4.7,1.5c0,0,1,0.8,2.1,1.6c1,0.8,2.1,1.6,2.1,1.6"
						/>
				</g>
				<g>
					<path fill="none" stroke="#010101" stroke-miterlimit="10" d="M166.3,302.8c0,0-1.2,0.4-2.4,0.7c-1.2,0.3-2.4,0.7-2.4,0.7
						s1,0.8,2,1.7c1,0.8,2,1.7,2,1.7"/>
				</g>
				<g>
					<path fill="none" stroke="#010101" stroke-miterlimit="10" d="M165.4,308.4c0,0-1.2,0.3-2.4,0.6c-1.2,0.3-2.4,0.6-2.4,0.6
						s1,0.9,2,1.7c1,0.9,2,1.8,2,1.8"/>
				</g>
				<g>
					<path fill="none" stroke="#010101" stroke-miterlimit="10" d="M164.4,314c0,0-1.2,0.3-2.4,0.5c-1.2,0.2-2.4,0.5-2.4,0.5
						s0.9,0.9,1.9,1.8c1,0.9,1.9,1.9,1.9,1.9"/>
				</g>
				<g>
					<path fill="none" stroke="#010101" stroke-miterlimit="10" d="M163,319.5c0,0-1.2,0.2-2.4,0.4c-1.2,0.2-2.4,0.3-2.4,0.3
						s0.9,0.9,1.8,1.9c0.9,1,1.7,2,1.7,2"/>
				</g>
				<g>
					<path fill="none" stroke="#010101" stroke-miterlimit="10" d="M161.4,325.1c0,0-1.3,0.1-2.5,0.2c-1.2,0.1-2.5,0.1-2.5,0.1
						s0.8,1,1.6,2.1c0.8,1,1.5,2.2,1.5,2.2"/>
				</g>
				<g>
					<path fill="none" stroke="#010101" stroke-miterlimit="10" d="M159.1,330.5c0,0-1.2,0-2.5-0.1c-1.3-0.1-2.5-0.2-2.5-0.2
						s0.7,1.1,1.3,2.3c0.3,0.6,0.6,1.2,0.8,1.6c0.2,0.5,0.3,0.8,0.3,0.8"/>
				</g>
				<g>
					<path fill="none" stroke="#010101" stroke-miterlimit="10" d="M156,335.7c0,0-0.3-0.1-0.8-0.1c-0.5-0.1-1-0.2-1.7-0.4
						c-1.2-0.3-2.4-0.7-2.4-0.7s0.4,1.2,0.8,2.5c0.3,1.2,0.4,2.6,0.4,2.6"/>
				</g>
				<g>
					<path fill="none" stroke="#010101" stroke-miterlimit="10" d="M151.6,340.3c-0.1,0-0.2-0.1-0.2-0.1c0-0.1,0.1-0.1,0.1-0.2
						c-1.4-0.6-2.8-1.3-4.2-2c0,0,0.2,1.3,0.4,2.6c0.2,1.3,0.3,2.6,0.3,2.6"/>
				</g>
				<g>
					<path fill="none" stroke="#010101" stroke-miterlimit="10" d="M147.3,343.8c0,0-1.1-0.6-2.2-1.2c-1.1-0.6-2.1-1.2-2.1-1.2
						s0.1,1.3,0.3,2.6c0.1,1.3,0.2,2.6,0.2,2.6"/>
				</g>
				<g>
					<path fill="none" stroke="#010101" stroke-miterlimit="10" d="M142.7,347.2c0,0-1.1-0.6-2.1-1.3c-1-0.7-2.1-1.3-2.1-1.3
						s0.1,1.3,0.1,2.6c0,1.3,0.1,2.6,0.1,2.6"/>
				</g>
				<g>
					<path fill="none" stroke="#010101" stroke-miterlimit="10" d="M137.9,350.3c0,0-1-0.7-2-1.4c-1-0.7-2-1.4-2-1.4s0,1.3,0,2.6
						c-0.1,1.3-0.1,2.6-0.1,2.6"/>
				</g>
				<g>
					<path fill="none" stroke="#010101" stroke-miterlimit="10" d="M132.9,353.2c0,0-1-0.8-1.9-1.5c-1-0.8-1.9-1.6-1.9-1.6
						s-0.1,1.3-0.2,2.6c-0.1,1.3-0.3,2.6-0.3,2.6"/>
				</g>
				<g>
					<path fill="none" stroke="#010101" stroke-miterlimit="10" d="M127.7,355.7c0,0-0.9-0.8-1.8-1.7c-0.9-0.8-1.8-1.7-1.8-1.7
						s-0.2,1.3-0.4,2.6c-0.3,1.3-0.6,2.6-0.6,2.6"/>
				</g>
				<g>
					<path fill="none" stroke="#010101" stroke-miterlimit="10" d="M122.2,357.7c0,0-0.8-0.9-1.6-1.9c-0.8-1-1.6-1.9-1.6-1.9
						s-0.3,1.3-0.7,2.5c-0.2,0.6-0.4,1.3-0.6,1.7c-0.2,0.5-0.3,0.8-0.3,0.8"/>
				</g>
				<g>
					<path fill="none" stroke="#010101" stroke-miterlimit="10" d="M116.4,359.1c0,0-0.7-1-1.4-2.1c-0.3-0.5-0.6-1-0.9-1.4
						c-0.2-0.4-0.4-0.7-0.4-0.7c0,0-0.5,1.2-1.1,2.3c-0.6,1.2-1.3,2.3-1.3,2.3"/>
				</g>
				<g>
					<path fill="none" stroke="#010101" stroke-miterlimit="10" d="M110.4,359.6c0,0-0.5-1.2-1-2.3c-0.2-0.6-0.4-1.1-0.6-1.6
						c-0.1-0.4-0.2-0.7-0.2-0.7s-0.7,1-1.6,2c-0.9,1-1.8,2-1.8,2"/>
				</g>
			</g>
		</g>
	</g>
	<g>
		<g>
			<path fill="none" stroke="#010101" stroke-miterlimit="10" d="M139.6,181.6"/>
		</g>
	</g>
	<g>
		<g>
			<path fill="none" stroke="#010101" stroke-miterlimit="10" d="M83.4,180.6"/>
		</g>
	</g>
	<g>
		<g>
			<path fill="none" stroke="#010101" stroke-miterlimit="10" d="M71.2,180.3"/>
		</g>
	</g>
	<g>
		<g>
			<g>
				<g>
					<path fill="none" stroke="#010101" stroke-miterlimit="10" d="M105.5,357.8c0,0-0.7-1-1.4-2c-0.7-1-1.3-2.1-1.3-2.1
						s-0.4,1.2-1,2.4c-0.6,1.2-1.3,2.3-1.3,2.3"/>
				</g>
				<g>
					<path fill="none" stroke="#010101" stroke-miterlimit="10" d="M99.4,358.4c0,0-0.5-1.1-1-2.3c-0.5-1.1-0.8-2.3-0.8-2.3
						c0,0-0.7,1.1-1.5,2.1c-0.8,1-1.7,2-1.7,2"/>
				</g>
				<g>
					<path fill="none" stroke="#010101" stroke-miterlimit="10" d="M93.3,357.7c0,0-0.3-1.2-0.6-2.4c-0.3-1.2-0.4-2.4-0.4-2.4
						s-0.9,0.9-1.9,1.8c-1,0.9-2,1.8-2,1.8"/>
				</g>
				<g>
					<path fill="none" stroke="#010101" stroke-miterlimit="10" d="M87.6,356.2c0,0-0.1-1.2-0.2-2.5c-0.1-1.2-0.2-2.5-0.2-2.5
						s-1,0.8-2.1,1.6c-1,0.8-2.1,1.5-2.1,1.5"/>
				</g>
				<g>
					<path fill="none" stroke="#010101" stroke-miterlimit="10" d="M82.2,354.1c0,0,0-1.2,0-2.5c0-1.2,0.1-2.5,0.1-2.5
						s-1.1,0.7-2.2,1.4c-1.1,0.7-2.3,1.4-2.3,1.4"/>
				</g>
				<g>
					<path fill="none" stroke="#010101" stroke-miterlimit="10" d="M77,351.5c0,0,0.1-1.2,0.2-2.5c0.1-1.2,0.2-2.5,0.2-2.5
						s-1.1,0.7-2.3,1.3c-1.2,0.6-2.3,1.2-2.3,1.2"/>
				</g>
				<g>
					<path fill="none" stroke="#010101" stroke-miterlimit="10" d="M72,348.6c0,0,0.2-1.2,0.3-2.5c0.2-1.2,0.4-2.4,0.4-2.4
						s-1.2,0.6-2.4,1.1c-1.2,0.5-2.4,1.1-2.4,1.1"/>
				</g>
				<g>
					<path fill="none" stroke="#010101" stroke-miterlimit="10" d="M67.3,345.4c0,0,0.2-1.2,0.5-2.4c0.3-1.2,0.5-2.4,0.5-2.4
						s-1.2,0.5-2.4,1c-1.2,0.5-2.4,1-2.4,1"/>
				</g>
				<g>
					<path fill="none" stroke="#010101" stroke-miterlimit="10" d="M62.7,342c0,0,0.3-1.2,0.6-2.4c0.3-1.2,0.6-2.4,0.6-2.4
						s-1.2,0.5-2.5,0.9c-0.6,0.2-1.2,0.4-1.7,0.6c-0.6,0.1-0.5,0.5-0.6,0.4"/>
				</g>
				<g>
					<path fill="none" stroke="#010101" stroke-miterlimit="10" d="M58.3,338.4c0,0,0.3-1.2,0.7-2.4c0.4-1.2,0.9-2.3,0.9-2.3
						s-1.2,0.3-2.5,0.5c-1.3,0.2-2.7,0.2-2.7,0.2"/>
				</g>
				<g>
					<path fill="none" stroke="#010101" stroke-miterlimit="10" d="M54.1,333.7c0,0,0.6-1.1,1.3-2.1c0.7-1,1.4-2,1.4-2
						s-1.3,0-2.6-0.1c-1.3-0.1-2.6-0.2-2.6-0.2"/>
				</g>
				<g>
					<path fill="none" stroke="#010101" stroke-miterlimit="10" d="M51.2,328.4c0,0,0.8-1,1.6-1.9c0.8-0.9,1.7-1.8,1.7-1.8
						s-1.3-0.2-2.6-0.4c-1.3-0.2-2.6-0.5-2.6-0.5"/>
				</g>
				<g>
					<path fill="none" stroke="#010101" stroke-miterlimit="10" d="M49.1,322.9c0,0,0.9-0.9,1.8-1.7c0.9-0.8,1.9-1.6,1.9-1.6
						s-1.3-0.3-2.5-0.6c-1.3-0.3-2.5-0.7-2.5-0.7"/>
				</g>
				<g>
					<path fill="none" stroke="#010101" stroke-miterlimit="10" d="M47.4,317.4c0,0,1-0.8,1.9-1.5c1-0.7,2-1.5,2-1.5
						s-1.2-0.4-2.5-0.8c-1.2-0.4-2.5-0.9-2.5-0.9"/>
				</g>
				<g>
					<path fill="none" stroke="#010101" stroke-miterlimit="10" d="M46.2,311.8c0,0,1-0.7,2-1.4c1-0.7,2-1.4,2-1.4s-1.2-0.5-2.5-0.9
						c-1.2-0.5-2.5-1-2.5-1"/>
				</g>
				<g>
					<path fill="none" stroke="#010101" stroke-miterlimit="10" d="M45.2,306.2c0,0,1-0.7,2.1-1.4c1-0.7,2.1-1.3,2.1-1.3
						s-1.2-0.5-2.4-1c-1.2-0.5-2.4-1-2.4-1"/>
				</g>
				<g>
					<path fill="none" stroke="#010101" stroke-miterlimit="10" d="M44.4,300.6c0,0,1.1-0.6,2.1-1.3c1.1-0.6,2.1-1.3,2.1-1.3
						s-1.2-0.5-2.4-1.1c-1.2-0.5-2.4-1.1-2.4-1.1"/>
				</g>
				<g>
					<path fill="none" stroke="#010101" stroke-miterlimit="10" d="M43.7,295l4.3-2.4c0,0-1.2-0.6-2.4-1.1c-1.2-0.6-2.4-1.2-2.4-1.2
						"/>
				</g>
				<g>
					<polyline fill="none" stroke="#010101" stroke-miterlimit="10" points="43.2,289.4 47.6,287 42.9,284.6 					"/>
				</g>
				<g>
					<polyline fill="none" stroke="#010101" stroke-miterlimit="10" points="42.8,283.8 47.2,281.5 42.6,279 					"/>
				</g>
				<g>
					<polyline fill="none" stroke="#010101" stroke-miterlimit="10" points="42.5,278.1 47,275.9 42.4,273.4 					"/>
				</g>
				<g>
					<polyline fill="none" stroke="#010101" stroke-miterlimit="10" points="42.3,272.5 46.8,270.4 42.2,267.8 					"/>
				</g>
				<g>
					<polyline fill="none" stroke="#010101" stroke-miterlimit="10" points="42.2,266.9 46.7,264.8 42.2,262.2 					"/>
				</g>
				<g>
					<polyline fill="none" stroke="#010101" stroke-miterlimit="10" points="42.1,261.3 46.6,259.3 42.1,256.6 					"/>
				</g>
				<g>
					<polyline fill="none" stroke="#010101" stroke-miterlimit="10" points="42.1,255.7 46.7,253.7 42.2,251 					"/>
				</g>
				<g>
					<polyline fill="none" stroke="#010101" stroke-miterlimit="10" points="42.2,250.1 46.7,248.1 42.3,245.4 					"/>
				</g>
				<g>
					<polyline fill="none" stroke="#010101" stroke-miterlimit="10" points="42.3,244.5 46.8,242.6 42.4,239.8 					"/>
				</g>
				<g>
					<polyline fill="none" stroke="#010101" stroke-miterlimit="10" points="42.4,238.9 47,237 42.6,234.2 					"/>
				</g>
				<g>
					<polyline fill="none" stroke="#010101" stroke-miterlimit="10" points="42.6,233.3 47.2,231.4 42.8,228.6 					"/>
				</g>
				<g>
					<polyline fill="none" stroke="#010101" stroke-miterlimit="10" points="42.8,227.7 47.4,225.9 43,223 					"/>
				</g>
				<g>
					<polyline fill="none" stroke="#010101" stroke-miterlimit="10" points="43.1,222.1 47.7,220.3 43.3,217.4 					"/>
				</g>
				<g>
					<polyline fill="none" stroke="#010101" stroke-miterlimit="10" points="43.3,216.5 47.9,214.7 43.6,211.8 					"/>
				</g>
				<g>
					<polyline fill="none" stroke="#010101" stroke-miterlimit="10" points="43.6,210.9 48.2,209.1 43.8,206.2 					"/>
				</g>
				<g>
					<path fill="none" stroke="#010101" stroke-miterlimit="10" d="M43.9,205.4l4.6-1.8c0,0-1.1-0.7-2.2-1.4
						c-1.1-0.7-2.2-1.3-2.2-1.3"/>
				</g>
				<g>
					<path fill="none" stroke="#010101" stroke-miterlimit="10" d="M44,200c0,0,1.1-0.4,2.2-1c1.1-0.6,2.2-1,2.2-1s-1.1-0.6-2.2-1.4
						c-1.1-0.8-2.1-1.7-2.1-1.7"/>
				</g>
				<g>
					<path fill="none" stroke="#010101" stroke-miterlimit="10" d="M44.4,193.8c0,0,1.2-0.4,2.5-0.5c1.2-0.2,2.4-0.2,2.4-0.2
						c0,0-0.9-0.9-1.6-2.1c-0.7-1.1-1.2-2.4-1.2-2.4"/>
				</g>
				<g>
					<path fill="none" stroke="#010101" stroke-miterlimit="10" d="M47.1,187.7c0,0,1.3,0.2,2.5,0.5c1.2,0.3,2.3,0.8,2.3,0.8
						s-0.4-1.2-0.6-2.5c-0.2-1.3-0.3-2.7-0.3-2.7"/>
				</g>
				<g>
					<path fill="none" stroke="#010101" stroke-miterlimit="10" d="M51.7,183.3c0,0,1.1,0.6,2.1,1.3c1,0.7,2,1.4,2,1.4s0-1.3,0-2.6
						c0-1.3,0-2.6,0-2.6"/>
				</g>
			</g>
		</g>
	</g>
	<g>
		<g>
			<path fill="none" stroke="#010101" stroke-miterlimit="10" d="M146.3,183.1"/>
		</g>
	</g>
	<g>
		<g>
			<g>
				<g>
					<path fill="none" stroke="#010101" stroke-miterlimit="10" d="M52.5,181.9c0,0,0.2-1.2,0.5-2.5c0.3-1.2,0.6-2.4,0.6-2.4
						s-1.2,0.5-2.5,0.8c-1.3,0.4-2.6,0.5-2.6,0.5"/>
				</g>
				<g>
					<path fill="none" stroke="#010101" stroke-miterlimit="10" d="M47.8,177.6c0,0,0.5-1.2,1.2-2.2c0.6-1.1,1.4-2,1.4-2
						c0,0-1.3,0.1-2.6-0.1c-1.3-0.2-2.6-0.7-2.6-0.7"/>
				</g>
				<g>
					<path fill="none" stroke="#010101" stroke-miterlimit="10" d="M44.9,171.4c0,0,1-0.8,2.1-1.4c1.1-0.6,2.2-1,2.2-1
						c-0.6-0.3-1.1-0.7-1.7-1.1c-0.3-0.2-0.5-0.5-0.8-0.7c-0.1-0.1-0.2-0.3-0.4-0.4c-0.1-0.1-0.3-0.2,0.8,0
						c-0.5-0.2-1.1-0.3-1.1-0.3c-0.4-0.1-0.7-0.3-1-0.5"/>
				</g>
				<g>
					<path fill="none" stroke="#010101" stroke-miterlimit="10" d="M45.4,164.8c0,0,0.3-0.1,0.8-0.2c0.5-0.1,1.1-0.2,1.7-0.2
						c1.2-0.1,2.5-0.1,2.5-0.1s-0.8-1-1.5-2.1c-0.7-1.1-1.4-2.3-1.4-2.3"/>
				</g>
				<g>
					<path fill="none" stroke="#010101" stroke-miterlimit="10" d="M47.9,159c0,0,1.2,0.1,2.5,0.2c1.2,0.1,2.4,0.3,2.4,0.3
						s-0.6-1.1-1.2-2.3c-0.6-1.2-1.2-2.3-1.2-2.3"/>
				</g>
				<g>
					<path fill="none" stroke="#010101" stroke-miterlimit="10" d="M50.8,154.1c0,0,1.2,0.2,2.4,0.4c1.2,0.2,2.4,0.4,2.4,0.4
						s-0.6-1.2-1.1-2.4c-0.5-1.2-1.1-2.4-1.1-2.4"/>
				</g>
				<g>
					<path fill="none" stroke="#010101" stroke-miterlimit="10" d="M54,149.4c0,0,1.2,0.2,2.4,0.5c1.2,0.2,2.4,0.5,2.4,0.5
						s-0.5-1.2-1.1-2.4c-0.5-1.2-1-2.4-1-2.4"/>
				</g>
				<g>
					<polyline fill="none" stroke="#010101" stroke-miterlimit="10" points="57.3,144.8 62.1,145.9 60.1,141 					"/>
				</g>
				<g>
					<polyline fill="none" stroke="#010101" stroke-miterlimit="10" points="60.7,140.3 65.5,141.5 63.6,136.6 					"/>
				</g>
				<g>
					<polyline fill="none" stroke="#010101" stroke-miterlimit="10" points="64.1,135.9 68.9,137.1 67,132.2 					"/>
				</g>
				<g>
					<polyline fill="none" stroke="#010101" stroke-miterlimit="10" points="67.6,131.5 72.4,132.8 70.6,127.8 					"/>
				</g>
				<g>
					<path fill="none" stroke="#010101" stroke-miterlimit="10" d="M71.1,127.1l4.8,1.3c0,0-0.1-0.3-0.3-0.8c-0.1-0.5-0.4-1-0.6-1.7
						c-0.1-0.4-0.1-0.7,0-1c0.1-0.3,0.2-0.6,0.3-0.9c0.3-0.5,0.3-0.8,0.3-0.9"/>
				</g>
				<g>
					<path fill="none" stroke="#010101" stroke-miterlimit="10" d="M76.5,122.9c0,0,0.9,0.9,1.7,1.8c0.8,0.9,1.6,1.9,1.6,1.9
						s0.3-1.3,0.6-2.5c0.3-1.3,0.7-2.5,0.7-2.5"/>
				</g>
				<g>
					<path fill="none" stroke="#010101" stroke-miterlimit="10" d="M82,121.2c0,0,0.8,1,1.5,1.9c0.7,1,1.5,2,1.5,2s0.4-1.2,0.8-2.5
						c0.4-1.2,0.9-2.5,0.9-2.5"/>
				</g>
				<g>
					<path fill="none" stroke="#010101" stroke-miterlimit="10" d="M87.6,120c0,0,0.7,1,1.4,2c0.7,1,1.4,2,1.4,2s0.5-1.2,0.9-2.4
						c0.5-1.2,1-2.4,1-2.4"/>
				</g>
				<g>
					<path fill="none" stroke="#010101" stroke-miterlimit="10" d="M93.3,119c0,0,0.7,1.1,1.3,2.1c0.6,1.1,1.3,2.1,1.3,2.1
						s0.5-1.2,1.1-2.4c0.6-1.2,1.1-2.4,1.1-2.4"/>
				</g>
				<g>
					<path fill="none" stroke="#010101" stroke-miterlimit="10" d="M99,118.4c0,0,0.6,1.1,1.2,2.2c0.6,1.1,1.1,2.2,1.1,2.2
						s0.6-1.2,1.2-2.3c0.6-1.1,1.3-2.3,1.3-2.3"/>
				</g>
				<g>
					<path fill="none" stroke="#010101" stroke-miterlimit="10" d="M104.7,118.2c0,0,0.5,1.1,1,2.2c0.5,1.1,1,2.3,1,2.3
						s0.7-1.1,1.4-2.2c0.7-1.1,1.4-2.2,1.4-2.2"/>
				</g>
				<g>
					<path fill="none" stroke="#010101" stroke-miterlimit="10" d="M110.4,118.3c0,0,0.5,1.2,0.9,2.3c0.4,1.2,0.8,2.3,0.8,2.3
						s0.7-1.1,1.5-2.1c0.8-1.1,1.6-2.1,1.6-2.1"/>
				</g>
				<g>
					<path fill="none" stroke="#010101" stroke-miterlimit="10" d="M116.2,118.7c0,0,0.4,1.2,0.7,2.4c0.3,1.2,0.7,2.4,0.7,2.4
						s0.8-1,1.6-2c0.8-1,1.7-2,1.7-2"/>
				</g>
				<g>
					<path fill="none" stroke="#010101" stroke-miterlimit="10" d="M121.9,119.6c0,0,0.3,1.2,0.6,2.4c0.3,1.2,0.5,2.4,0.5,2.4
						s0.9-1,1.8-1.9c0.9-1,1.8-1.9,1.8-1.9"/>
				</g>
				<g>
					<path fill="none" stroke="#010101" stroke-miterlimit="10" d="M127.5,120.8c0,0,0.2,1.2,0.4,2.4c0.2,1.2,0.4,2.4,0.4,2.4
						s0.9-0.9,1.9-1.8c1-0.9,2-1.7,2-1.7"/>
				</g>
				<g>
					<path fill="none" stroke="#010101" stroke-miterlimit="10" d="M133,122.4c0,0,0.1,1.2,0.2,2.5c0.1,1.2,0.2,2.5,0.2,2.5
						s0.1-0.1,0.2-0.1c0.1-0.1,0.3-0.2,0.4-0.4c0.2-0.2,0.4-0.4,0.6-0.5c0.2-0.2,0.6-0.4,0.9-0.5c0.6-0.2,1.4-0.1,1.8-0.2
						c0.5-0.1,0.8-0.1,0.8-0.1"/>
				</g>
				<g>
					<polyline fill="none" stroke="#010101" stroke-miterlimit="10" points="138.8,126.1 136.6,130.6 141.8,129.8 					"/>
				</g>
				<g>
					<polyline fill="none" stroke="#010101" stroke-miterlimit="10" points="142.3,130.5 140.1,134.9 145.3,134.2 					"/>
				</g>
				<g>
					<polyline fill="none" stroke="#010101" stroke-miterlimit="10" points="145.8,134.9 143.5,139.2 148.7,138.6 					"/>
				</g>
				<g>
					<polyline fill="none" stroke="#010101" stroke-miterlimit="10" points="149.3,139.3 146.9,143.6 152.1,143 					"/>
				</g>
				<g>
					<path fill="none" stroke="#010101" stroke-miterlimit="10" d="M152.7,143.8l-2.4,4.3c0,0,1.3-0.1,2.6-0.2
						c1.3-0.1,2.6-0.2,2.6-0.2"/>
				</g>
				<g>
					<path fill="none" stroke="#010101" stroke-miterlimit="10" d="M156,148.3c0,0-0.6,1.1-1.3,2.1c-0.6,1.1-1.3,2.1-1.3,2.1
						s1.3-0.1,2.6-0.2c1.3-0.1,2.6-0.1,2.6-0.1"/>
				</g>
				<g>
					<path fill="none" stroke="#010101" stroke-miterlimit="10" d="M159.2,153c0,0-0.7,1-1.3,2.1c-0.7,1-1.4,2.1-1.4,2.1
						s1.3,0,2.6-0.1c1.3,0,2.6,0,2.6,0"/>
				</g>
				<g>
					<path fill="none" stroke="#010101" stroke-miterlimit="10" d="M162.2,157.9c0,0-0.7,1-1.5,2c-0.7,1-1.5,1.9-1.5,1.9
						s1.3,0,2.6,0.2c1.3,0.1,2.6,0.4,2.6,0.4"/>
				</g>
				<g>
					<path fill="none" stroke="#010101" stroke-miterlimit="10" d="M164.9,163.3c0,0-0.8,1-1.8,1.8c-0.5,0.4-1,0.8-1.3,1
						c-0.4,0.2-0.6,0.4-0.6,0.4s0.3,0.1,0.7,0.2c0.4,0.1,1,0.5,1.5,0.9c1.1,0.8,1.9,2,1.9,2"/>
				</g>
				<g>
					<path fill="none" stroke="#010101" stroke-miterlimit="10" d="M164.9,170.6c0,0-1.3,0.2-2.5,0.1c-1.2,0-2.4-0.3-2.4-0.3
						c0,0,0.7,1.1,1.1,2.3c0.5,1.2,0.8,2.6,0.8,2.6"/>
				</g>
				<g>
					<path fill="none" stroke="#010101" stroke-miterlimit="10" d="M161.2,176c0,0-1.2-0.4-2.3-0.8c-1.2-0.5-2.2-1-2.2-1
						s0.3,1.3,0.5,2.6c0.2,1.3,0.3,2.6,0.3,2.6"/>
				</g>
				<g>
					<path fill="none" stroke="#010101" stroke-miterlimit="10" d="M156.8,180.3l-1.5,0.3c-0.2,0.1-0.5,0.1-0.7,0.1
						c-0.2,0-0.5,0.1,0.2,0.3c-0.9,0.1-1.7,0.6-2.6,0.9l4.7,2.3"/>
				</g>
			</g>
		</g>
	</g>
</g>
<g id="leaf">
	<g>
		<path fill="#A8CF38" stroke="#010101" stroke-width="0.5" stroke-linecap="round" stroke-linejoin="round" d="M96.1,79.1
			c0,0-8.6-15-7.4-22.4l2.1,0.7c0,0-1.8-2.2,0.2-11.3l1.7,1.5c0,0-1.5-4.5,1.4-10.4l1.7,1.5c0,0,0.8-4.1,2.5-8.3l1.9,1.2
			c0,0-0.4-5,1.3-8.5l1.7,1.5c0,0,0.7-6.3,4.1-7.5l0.5,1.5c0,0,2.3-3.9,5.8-6l1.6,1.7c0,0-0.1-3.9,4.3-5.5l0.9,1.4
			c0,0,0.5-5.2,4.6-6l1.2,2.5c0,0,7.1-6.6,8.7-6.8l2.6,1.3c0.3,1.2-0.1,11-0.1,11l2.7-0.6c1.8,3.8-2,7.3-2,7.3l1.7-0.1
			c1.5,4.5-1.7,6.8-1.7,6.8l2.4,0.2c0.5,4-1.2,8.3-1.2,8.3l1.5-0.5c1.2,3.4-3.4,7.8-3.4,7.8l2.2,0.5c-1.8,3.6-6,6.3-6,6.3L136,49
			c-2.3,3.9-5.1,7-5.1,7l2.2,0.5c-2.9,5.9-7.4,7.5-7.4,7.5l2.2,0.5c-6,7.2-8.8,7.1-8.8,7.1l1.9,1.2c-5.1,5.4-22.3,7.7-22.3,7.7
			L96.1,79.1z"/>
		<path fill="#A8CF38" stroke="#010101" stroke-width="0.5" stroke-linecap="round" stroke-linejoin="round" d="M97.6,79.8
			c0,0-8.6-15-7.4-22.4l2.1,0.7c0,0-1.8-2.2,0.2-11.3l1.7,1.5c0,0-1.5-4.5,1.4-10.4l1.7,1.5c0,0,0.8-4.1,2.5-8.3l1.9,1.2
			c0,0-0.4-5,1.3-8.5l1.7,1.5c0,0,0.7-6.3,4.1-7.5l0.5,1.5c0,0,2.3-3.9,5.8-6l1.6,1.7c0,0-0.1-3.9,4.3-5.5l0.9,1.4
			c0,0,0.5-5.2,4.6-6l1.2,2.5c0,0,7.1-6.6,8.7-6.8l2.6,1.3c0.3,1.2-0.1,11-0.1,11l2.7-0.6c1.8,3.8-2,7.3-2,7.3l1.7-0.1
			c1.5,4.5-1.7,6.8-1.7,6.8l2.4,0.2c0.5,4-1.2,8.3-1.2,8.3l1.5-0.5c1.2,3.4-3.4,7.8-3.4,7.8l2.2,0.5c-1.8,3.6-6,6.3-6,6.3l2.1,0.7
			c-2.3,3.9-5.1,7-5.1,7l2.2,0.5c-2.9,5.9-7.4,7.5-7.4,7.5l2.2,0.5c-6,7.2-8.8,7.1-8.8,7.1l1.9,1.2c-5.1,5.4-22.3,7.7-22.3,7.7
			L97.6,79.8z"/>
		
			<line fill="none" stroke="#010101" stroke-width="0.5" stroke-linecap="round" stroke-linejoin="round" x1="137.1" y1="2" x2="98.4" y2="80.3"/>
		<g>
			
				<line fill="none" stroke="#010101" stroke-width="0.5" stroke-linecap="round" stroke-linejoin="round" x1="127.9" y1="6.3" x2="129.2" y2="12.8"/>
			
				<line fill="none" stroke="#010101" stroke-width="0.5" stroke-linecap="round" stroke-linejoin="round" x1="122" y1="11.1" x2="125.8" y2="18.7"/>
			
				<line fill="none" stroke="#010101" stroke-width="0.5" stroke-linecap="round" stroke-linejoin="round" x1="117" y1="14.8" x2="122.1" y2="24.6"/>
			
				<line fill="none" stroke="#010101" stroke-width="0.5" stroke-linecap="round" stroke-linejoin="round" x1="109.1" y1="19" x2="117.4" y2="30.7"/>
			
				<line fill="none" stroke="#010101" stroke-width="0.5" stroke-linecap="round" stroke-linejoin="round" x1="105.1" y1="24.9" x2="115.5" y2="37.4"/>
			
				<line fill="none" stroke="#010101" stroke-width="0.5" stroke-linecap="round" stroke-linejoin="round" x1="101.2" y1="32.2" x2="111.6" y2="43.6"/>
			
				<line fill="none" stroke="#010101" stroke-width="0.5" stroke-linecap="round" stroke-linejoin="round" x1="97.2" y1="38.7" x2="106.2" y2="50.8"/>
			
				<line fill="none" stroke="#010101" stroke-width="0.5" stroke-linecap="round" stroke-linejoin="round" x1="94" y1="47.9" x2="104.5" y2="61.2"/>
			
				<line fill="none" stroke="#010101" stroke-width="0.5" stroke-linecap="round" stroke-linejoin="round" x1="92.1" y1="57.7" x2="100.6" y2="71.8"/>
		</g>
		<g>
			
				<line fill="none" stroke="#010101" stroke-width="0.5" stroke-linecap="round" stroke-linejoin="round" x1="140.1" y1="12.4" x2="134.2" y2="15.2"/>
			
				<line fill="none" stroke="#010101" stroke-width="0.5" stroke-linecap="round" stroke-linejoin="round" x1="139.9" y1="19.9" x2="131.6" y2="21.6"/>
			
				<line fill="none" stroke="#010101" stroke-width="0.5" stroke-linecap="round" stroke-linejoin="round" x1="140" y1="26.2" x2="129.2" y2="28.1"/>
			
				<line fill="none" stroke="#010101" stroke-width="0.5" stroke-linecap="round" stroke-linejoin="round" x1="141.5" y1="35" x2="127.1" y2="35.5"/>
			
				<line fill="none" stroke="#010101" stroke-width="0.5" stroke-linecap="round" stroke-linejoin="round" x1="139.3" y1="41.7" x2="123" y2="41.1"/>
			
				<line fill="none" stroke="#010101" stroke-width="0.5" stroke-linecap="round" stroke-linejoin="round" x1="135.8" y1="49.3" x2="120.4" y2="47.9"/>
			
				<line fill="none" stroke="#010101" stroke-width="0.5" stroke-linecap="round" stroke-linejoin="round" x1="133.1" y1="56.4" x2="118" y2="56.6"/>
			
				<line fill="none" stroke="#010101" stroke-width="0.5" stroke-linecap="round" stroke-linejoin="round" x1="127.7" y1="64.6" x2="110.8" y2="64.2"/>
			
				<line fill="none" stroke="#010101" stroke-width="0.5" stroke-linecap="round" stroke-linejoin="round" x1="121.1" y1="72" x2="104.7" y2="73.8"/>
		</g>
		<path fill="#FFFFFF" stroke="#010101" stroke-width="0.5" stroke-linecap="round" stroke-linejoin="round" d="M143.5,27.3
			c0,0-5.7,1.5-4.2,4.5c0,0-7,1-3.7,6.5c0,0,1.7,3.7,4.7,2.3c0,0-1.9,3,1,2.5c2.9-0.6,2.2-0.7,2.2-0.7"/>
		<path fill="#FFFFFF" stroke="#010101" stroke-width="0.5" stroke-miterlimit="10" d="M106.3,34.9c-0.2,1.3-1,2.4-1.5,3.6
			c1.5,1.2,3.4-1.3,4.1-2.5c-0.8,2-0.2,6.4,2.5,3.3c-0.5,2,0.6,2.3,2.2,3.1c-0.5,1.7-2.2,2.2-3.2,3.5c-0.6,0.8-0.9,1.9-1.4,2.7
			c-1-0.7-1.2-2.1-2.1-2.8c-0.6,0.5-2.5,3-3.3,2.9c-0.9-0.1-1.8-2.3-2.9-2.7c0.4-1,1-2,1.4-3.1c-0.2-0.2-0.4-0.2-0.5-0.3
			c0.3-1.3,2.7-8,4.2-6.4"/>
		<path fill="#FFFFFF" stroke="#010101" stroke-width="0.5" stroke-miterlimit="10" d="M125.8,19.8c1.7-1.5,1.8-3.4,4.2-4.6
			c0.2,0.6-0.3,2.8,0.2,3.1c1.3,1.1,3.5-1.5,4.5-2.3c-0.2,0.5-1.2,2.3-0.9,2.9c0.7,1.4,2.3,0.2,3.4,0.3c-0.7,2-2.4,3.4-3.4,5.4
			c-0.6,1.3-0.8,2.4-1.3,3.7c-2.3-0.8-3.8-2.5-4.3-4.8c-0.7,1.4-3.2,6.1-3.5,2.3c-0.2-2.3,1.6-4.6,1.9-6.8"/>
		<path fill="#FFFFFF" stroke="#010101" stroke-width="0.5" stroke-miterlimit="10" d="M123,52.2c-0.1,1.4-2,3-2,4.4
			c0,1.9,2.3,3.2,4,3.3c-2,0.6-4,1.8-4.7,3.9c0.9,0.9,2.1,1.3,3.2,1.9c-0.9,0.4-5.4,2.7-2.9,3.7c-0.7,1.7-5.4-0.8-6.6-1.8
			c-2.5-2.2-1.6-4.8-0.5-7.5c1.6-3.8,5-7.9,9.7-7"/>
	</g>
</g>
<g id="water">
	<g>
		<path fill="#55C2E2" stroke="#070707" stroke-width="0.5" stroke-miterlimit="10" d="M24.4,98c0,0-36.1,41.7-4.2,51.2
			c0,0,26.1-0.6,14.6-30.9C34.8,118.3,24.9,106.7,24.4,98z"/>
		<path fill="none" stroke="#3A97AD" stroke-miterlimit="10" d="M22.2,145.9c5.2,2.4,13.5-10.3,12.9-14.9"/>
		
			<ellipse transform="matrix(0.7903 -0.6127 0.6127 0.7903 -81.8466 39.6977)" opacity="0.8" fill="#FFFFFF" cx="17.1" cy="139.4" rx="4.8" ry="5.8"/>
		<path opacity="0.8" fill="#FFFFFF" d="M13.8,116.3c0,0,4.7-11.6,10.3-14.6"/>
	</g>
	<g>
		<path fill="#55C2E2" stroke="#070707" stroke-width="0.5" stroke-miterlimit="10" d="M191.2,124.8c0,0-36.1,41.7-4.2,51.2
			c0,0,26.1-0.6,14.6-30.9C201.5,145.1,191.6,133.4,191.2,124.8z"/>
		<path fill="none" stroke="#3A97AD" stroke-miterlimit="10" d="M189,172.6c5.2,2.4,13.5-10.3,12.9-14.9"/>
		
			<ellipse transform="matrix(0.7903 -0.6127 0.6127 0.7903 -63.2619 147.4707)" opacity="0.8" fill="#FFFFFF" cx="183.8" cy="166.2" rx="4.8" ry="5.8"/>
		<path opacity="0.8" fill="#FFFFFF" d="M180.5,143.1c0,0,4.7-11.6,10.3-14.6"/>
	</g>
	<g>
		<path fill="#55C2E2" stroke="#070707" stroke-width="0.5" stroke-miterlimit="10" d="M35.2,331.3c0,0-21.7,25.1-2.5,30.8
			c0,0,15.7-0.4,8.8-18.6C41.4,343.5,35.5,336.5,35.2,331.3z"/>
		<path fill="none" stroke="#3A97AD" stroke-miterlimit="10" d="M33.9,360.1c3.1,1.4,8.1-6.2,7.7-9"/>
		
			<ellipse transform="matrix(0.7901 -0.613 0.613 0.7901 -213.6161 93.9144)" opacity="0.8" fill="#FFFFFF" cx="30.3" cy="358.9" rx="1.7" ry="2.1"/>
		<path opacity="0.8" fill="#FFFFFF" d="M28.8,342.3c0,0,2.8-7,6.2-8.8"/>
	</g>
	<g>
		<path fill="#55C2E2" stroke="#070707" stroke-width="0.5" stroke-miterlimit="10" d="M14.5,258c0,0-13.5,15.7-1.6,19.2
			c0,0,9.8-0.2,5.5-11.6C18.4,265.6,14.7,261.3,14.5,258z"/>
		<path fill="none" stroke="#3A97AD" stroke-miterlimit="10" d="M13.7,276c1.9,0.9,5.1-3.9,4.8-5.6"/>
		
			<ellipse transform="matrix(0.7906 -0.6123 0.6123 0.7906 -165.1471 64.1482)" opacity="0.8" fill="#FFFFFF" cx="11.2" cy="273.5" rx="0.9" ry="1"/>
		<path opacity="0.8" fill="#FFFFFF" d="M10.6,264.9c0,0,1.8-4.4,3.9-5.5"/>
	</g>
	<g>
		<path fill="#55C2E2" stroke="#070707" stroke-width="0.5" stroke-miterlimit="10" d="M196.2,267.6c0,0-13.5,15.7-1.6,19.2
			c0,0,9.8-0.2,5.5-11.6C200.1,275.2,196.4,270.9,196.2,267.6z"/>
		<path fill="none" stroke="#3A97AD" stroke-miterlimit="10" d="M195.4,285.6c1.9,0.9,5.1-3.9,4.8-5.6"/>
		
			<ellipse transform="matrix(0.7906 -0.6123 0.6123 0.7906 -132.9931 177.3851)" opacity="0.8" fill="#FFFFFF" cx="192.9" cy="283.1" rx="0.9" ry="1"/>
		<path opacity="0.8" fill="#FFFFFF" d="M192.2,274.5c0,0,1.8-4.4,3.9-5.5"/>
	</g>
	<g>
		<path fill="#55C2E2" stroke="#070707" stroke-width="0.5" stroke-miterlimit="10" d="M171.5,327.5c0,0-13.5,15.7-1.6,19.2
			c0,0,9.8-0.2,5.5-11.6C175.4,335.1,171.7,330.7,171.5,327.5z"/>
		<path fill="none" stroke="#3A97AD" stroke-miterlimit="10" d="M170.7,345.4c1.9,0.9,5.1-3.9,4.8-5.6"/>
		
			<ellipse transform="matrix(0.7904 -0.6126 0.6126 0.7904 -174.885 174.9081)" opacity="0.8" fill="#FFFFFF" cx="168.2" cy="343" rx="0.9" ry="1"/>
		<path opacity="0.8" fill="#FFFFFF" d="M167.5,334.3c0,0,1.8-4.4,3.9-5.5"/>
	</g>
</g>
</svg>
