<?xml version="1.0" encoding="utf-8"?>
<!-- Generator: Adobe Illustrator 17.1.0, SVG Export Plug-In . SVG Version: 6.00 Build 0)  -->
<!DOCTYPE svg PUBLIC "-//W3C//DTD SVG 1.1//EN" "http://www.w3.org/Graphics/SVG/1.1/DTD/svg11.dtd">
<svg version="1.1" xmlns="http://www.w3.org/2000/svg" xmlns:xlink="http://www.w3.org/1999/xlink" x="0px" y="0px"
	 viewBox="0 0 300 371.5" enable-background="new 0 0 300 371.5" xml:space="preserve">
<pattern  x="-159" y="-178.5" width="8.7" height="8.7" patternUnits="userSpaceOnUse" id="New_Pattern_Swatch_12" viewBox="0 -8.7 8.7 8.7" overflow="visible">
	<g>
		<polygon fill="none" points="8.7,0 0,0 0,-8.7 8.7,-8.7 		"/>
		<g>
			<path fill="#010101" d="M5-4.5c0,0.4-0.3,0.7-0.7,0.7C4-3.8,3.7-4.1,3.7-4.5c0-0.4,0.3-0.7,0.7-0.7C4.7-5.2,5-4.9,5-4.5z"/>
		</g>
	</g>
</pattern>
<g id="legs">
	<path fill="#FFFFFF" stroke="#010101" stroke-miterlimit="10" d="M120,213.2c0,0-20.7,9.5-23.2,15c0,0,0.5-0.3,3.7,0
		c0,0-13.5,8.8-14.2,12.5c0,0,6.2-4.5,7.7-4.5c1.5,0-14.7,15.7-7.7,25c0,0-0.4-27,34.8-44.4"/>
	<path fill="#FFFFFF" stroke="#010101" stroke-miterlimit="10" d="M181.1,213.2c0,0,20.7,9.5,23.2,15c0,0-0.5-0.3-3.7,0
		c0,0,13.5,8.8,14.2,12.5c0,0-6.2-4.5-7.7-4.5s14.7,15.7,7.7,25c0,0,0.4-27-34.8-44.4"/>
	<path fill="#FFFFFF" stroke="#010101" stroke-miterlimit="10" d="M174.2,195.6c0,0,8.7-0.6,8.7-4.1c0-1.7-0.3-3.3-1.1-4.3
		c-0.8-1.1-2.1-1.7-4.1-1.5C177.6,185.6,173,194,174.2,195.6z"/>
	<path fill="#FFFFFF" stroke="#010101" stroke-miterlimit="10" d="M181.7,187.1c0,0,27-11.7,31.5-23.2c0,0,1,3.8-1.2,6
		c0,0,10.7-4.8,10.7-10.7c0,0,1.8,8-9.3,13.9c-11.2,5.9-6.5,5.1-6.5,5.1l-25.1,9.5"/>
	<path fill="#FFFFFF" stroke="#010101" stroke-miterlimit="10" d="M174,209.7c0,0,7.7,0,7.2,3.5c-0.5,3.5-1.5,5.2-4.6,4.6L174,209.7
		z"/>
	<path fill="#FFFFFF" stroke="#010101" stroke-miterlimit="10" d="M181.6,281c0,0,4.6,3.4,5.7,6.2c1.1,2.8,11.5,21.8,7.4,39.3
		c0,0,3-2,2.7-3.7c0,0-0.1,2.7-2.8,8.6c-2.8,5.9-2.4,10.5-6.5,13.9c0,0,6.9-19.7,4.5-28.5c-2.4-8.7,0.3-14.7-10.1-32.2L181.6,281z"
		/>
	<path fill="#FFFFFF" stroke="#010101" stroke-miterlimit="10" d="M172.8,260.7c0,0,15.4,19.8,16.7,24.3c0,0-5,2.5-9.5,1l-7.4-9.3
		L172.8,260.7z"/>
	<path fill="#FFFFFF" stroke="#010101" stroke-miterlimit="10" d="M127,195.6c0,0-8.7-0.6-8.7-4.1c0-1.7,0.3-3.3,1.1-4.3
		c0.8-1.1,2.1-1.7,4.1-1.5C123.6,185.6,128.2,194,127,195.6z"/>
	<path fill="#FFFFFF" stroke="#010101" stroke-miterlimit="10" d="M119.4,187.1c0,0-27-11.7-31.5-23.2c0,0-1,3.8,1.2,6
		c0,0-10.7-4.8-10.7-10.7c0,0-1.8,8,9.3,13.9c11.2,5.9,6.5,5.1,6.5,5.1l25.1,9.5"/>
	<path fill="#FFFFFF" stroke="#010101" stroke-miterlimit="10" d="M127.2,209.7c0,0-7.7,0-7.2,3.5c0.5,3.5,1.5,5.2,4.6,4.6
		L127.2,209.7z"/>
	<path fill="#FFFFFF" stroke="#010101" stroke-miterlimit="10" d="M119.5,281c0,0-4.6,3.4-5.7,6.2c-1.1,2.8-11.5,21.8-7.4,39.3
		c0,0-3-2-2.7-3.7c0,0,0.1,2.7,2.8,8.6c2.8,5.9,2.4,10.5,6.5,13.9c0,0-7-19.7-4.5-28.5c2.4-8.7-0.3-14.7,10.1-32.2L119.5,281z"/>
	<path fill="#FFFFFF" stroke="#010101" stroke-miterlimit="10" d="M128.3,260.7c0,0-15.4,19.8-16.7,24.3c0,0,5,2.5,9.5,1l7.4-9.3
		L128.3,260.7z"/>
	<g>
		<g>
			<path fill="none" stroke="#010101" stroke-miterlimit="10" d="M174.5,295.4"/>
		</g>
	</g>
	<g>
		<g>
			<path fill="none" stroke="#010101" stroke-miterlimit="10" d="M126.7,300.3"/>
		</g>
	</g>
</g>
<g id="basebody">
	<ellipse fill="#FFFFFF" stroke="#010101" stroke-miterlimit="10" cx="149.3" cy="147.6" rx="20.3" ry="22"/>
	<path fill="#FFFFFF" stroke="#010101" stroke-miterlimit="10" d="M124.5,164.4c0,0,26.5-33.6,50.4,2.4v76.8h-50.4V164.4z"/>
	<path fill="#FFFFFF" stroke="#010101" stroke-miterlimit="10" d="M124.5,307.7c0,0-1.2,52.7,19.5,55.4h10.3c0,0,20.6,8.1,20.6-57.8
		l-19-98h-19.2L124.5,307.7z"/>
	<path fill="#FFFFFF" stroke="#010101" stroke-miterlimit="10" d="M152.9,160.3c0,0-13,125.8,22,145V163.6
		C174.9,163.6,166.8,144.5,152.9,160.3z"/>
	<path fill="#FFFFFF" stroke="#010101" stroke-miterlimit="10" d="M146.5,160.3c0,0,13,125.8-22,145V163.6
		C124.5,163.6,132.7,144.5,146.5,160.3z"/>
	<path fill="#FFFFFF" stroke="#010101" stroke-miterlimit="10" d="M134.4,131c0,0-1.6-9.8,3.9-12.2c5.5-2.4,6.8-3.5,6.8-3.5
		s3.5-2.3,7.6,0c0,0,1.2,1.1,6.8,3.5c5.5,2.4,3.9,12.2,3.9,12.2S149.1,144.3,134.4,131z"/>
</g>
<g id="bodycolor">
	<ellipse fill="#D0DD28" stroke="#010101" stroke-miterlimit="10" cx="149.6" cy="147.4" rx="20.3" ry="22"/>
	<path fill="#D0DD28" stroke="#010101" stroke-miterlimit="10" d="M124.8,164.2c0,0,26.5-33.6,50.4,2.4v76.8h-50.4V164.2z"/>
	<path fill="#D0DD28" stroke="#010101" stroke-miterlimit="10" d="M124.8,307.6c0,0-1.2,52.7,19.5,55.4h10.3c0,0,20.6,8.1,20.6-57.8
		l-19-98H137L124.8,307.6z"/>
	<path fill="#6CBE45" stroke="#010101" stroke-miterlimit="10" d="M153.2,160.1c0,0-13,125.8,22,145V163.5
		C175.2,163.5,167.1,144.3,153.2,160.1z"/>
	<path fill="#6CBE45" stroke="#010101" stroke-miterlimit="10" d="M146.8,160.1c0,0,13,125.8-22,145V163.5
		C124.8,163.5,133,144.3,146.8,160.1z"/>
	<path fill="#6CBE45" stroke="#010101" stroke-miterlimit="10" d="M134.7,130.8c0,0-1.6-9.8,3.9-12.2c5.5-2.4,6.8-3.5,6.8-3.5
		s3.5-2.3,7.6,0c0,0,1.2,1.1,6.8,3.5c5.5,2.4,3.9,12.2,3.9,12.2S149.4,144.2,134.7,130.8z"/>
</g>
<g id="eyes">
	<path fill="#FFFFFF" stroke="#010101" stroke-miterlimit="10" d="M136.1,120.5c0,0,3.5-4.4,6.4-2.4c0,0-0.7,5.5-6.7,3L136.1,120.5z
		"/>
	<path fill="#FFFFFF" stroke="#010101" stroke-miterlimit="10" d="M161.7,120.5c0,0-3.5-4.4-6.4-2.4c0,0,0.7,5.5,6.6,3L161.7,120.5z
		"/>
</g>
<g id="antennae">
	<path fill="none" stroke="#010101" stroke-width="0.5" stroke-miterlimit="10" d="M159.4,117.9c0,0-2.2-23.9,13.6-23.3
		c15.7,0.5,89.6,16.8,116.7,31.5c27.1,14.7,48.9,15.7,56.5,15.2"/>
	<path fill="none" stroke="#010101" stroke-width="0.5" stroke-miterlimit="10" d="M140,117.3c0,0,2.2-23.9-13.6-23.3
		c-15.7,0.5-89.6,16.8-116.7,31.5c-27.1,14.7-48.9,15.7-56.5,15.2"/>
</g>
<g id="markings">
	<path fill="#010101" d="M160.6,270.4c0,0,1.4,17.5,10.5,25v-25H160.6z"/>
	<path fill="#010101" d="M138.8,270.4c0,0-1.4,17.5-10.5,25v-25H138.8z"/>
</g>
<g id="dots">
	<path fill="url(#New_Pattern_Swatch_12)" stroke="#010101" stroke-miterlimit="10" d="M156.5,207.3"/>
	<path fill="url(#New_Pattern_Swatch_12)" stroke="#010101" stroke-miterlimit="10" d="M175.5,305.3c0,66-20.6,57.8-20.6,57.8h-10.3
		c-20.6-2.7-19.5-55.4-19.5-55.4l-0.6-2.4c0,0,16.5-7.2,21.3-46.4c4.8-39.2,3.1-42.9,3.1-42.9s2.9,65.4,16.2,79.4l7.7,8.5
		L175.5,305.3z"/>
	<path fill="url(#New_Pattern_Swatch_12)" stroke="#010101" stroke-miterlimit="10" d="M137.3,207.3"/>
</g>
<g id="fur">
	<g>
		<g>
			<path fill="none" stroke="#010101" stroke-miterlimit="10" d="M158.1,91"/>
		</g>
	</g>
	<g>
		<g>
			<path fill="none" stroke="#010101" stroke-miterlimit="10" d="M-25,353"/>
		</g>
	</g>
	<g>
		<g>
			<g>
				<g>
					<path fill="none" stroke="#010101" stroke-miterlimit="10" d="M146.9,158.7c0.2-0.1,0.5-0.3,0.5-0.4c0.3,0.4,0.5,0.7,0.7,1.1
						c0.5-1.3,1.1-2.6,1.5-3.9c0,0-1.3,0.3-2.5,0.7c-1.2,0.4-2.4,0.9-2.4,0.9"/>
				</g>
				<g>
					<path fill="none" stroke="#010101" stroke-miterlimit="10" d="M144,156.8c0,0,0.3-1.2,0.6-2.4c0.2-1.2,0.4-2.4,0.4-2.4
						c0,0-1.2,0.6-2.3,1.3c-1.1,0.7-2.1,1.5-2.1,1.5"/>
				</g>
				<g>
					<path fill="none" stroke="#010101" stroke-miterlimit="10" d="M139.9,154.5c0,0,0-1.2-0.1-2.4c-0.1-1.2-0.5-2.4-0.5-2.4
						s-1,0.9-1.7,2c-0.8,1-1.3,2.2-1.3,2.2"/>
				</g>
				<g>
					<path fill="none" stroke="#010101" stroke-miterlimit="10" d="M135.6,153.8c0,0-0.4-1.1-1.1-2.2c-0.6-1.1-1.4-2-1.4-2
						s-0.5,1.3-0.7,2.5c-0.3,1.3-0.3,2.5-0.3,2.5"/>
				</g>
				<g>
					<path fill="none" stroke="#010101" stroke-miterlimit="10" d="M131.5,155c0,0-0.9-0.8-1.9-1.5c-1-0.7-2.1-1.3-2.1-1.3
						c0,0,0.1,1.3,0.3,2.6c0.2,1.3,0.6,2.5,0.6,2.5"/>
				</g>
				<g>
					<path fill="none" stroke="#010101" stroke-miterlimit="10" d="M127.8,157.8c0,0-1.1-0.5-2.3-0.8c-1.2-0.4-2.4-0.6-2.4-0.6
						s0.4,1.3,1,2.4c0.5,1.2,1.2,2.3,1.2,2.3"/>
				</g>
				<g>
					<path fill="none" stroke="#010101" stroke-miterlimit="10" d="M124.9,161.8c0,0-0.3,0-0.7-0.1c-0.4-0.1-1-0.3-1.6-0.2
						c-0.6,0.1-1.1,0.3-1.6,0.5c-0.2,0.1-0.4,0.2-0.5,0.3c-0.1,0.1-0.2,0.1-0.2,0.1l4.5,2.7"/>
				</g>
				<g>
					<polyline fill="none" stroke="#010101" stroke-miterlimit="10" points="124.8,165.8 120.3,167.8 124.8,170.4 					"/>
				</g>
				<g>
					<polyline fill="none" stroke="#010101" stroke-miterlimit="10" points="124.8,171.3 120.3,173.3 124.8,176 					"/>
				</g>
				<g>
					<polyline fill="none" stroke="#010101" stroke-miterlimit="10" points="124.8,176.8 120.3,178.8 124.8,181.5 					"/>
				</g>
				<g>
					<polyline fill="none" stroke="#010101" stroke-miterlimit="10" points="124.8,182.3 120.2,184.3 124.8,187 					"/>
				</g>
				<g>
					<polyline fill="none" stroke="#010101" stroke-miterlimit="10" points="124.8,187.9 120.2,189.8 124.7,192.5 					"/>
				</g>
				<g>
					<polyline fill="none" stroke="#010101" stroke-miterlimit="10" points="124.7,193.4 120.2,195.3 124.7,198 					"/>
				</g>
				<g>
					<polyline fill="none" stroke="#010101" stroke-miterlimit="10" points="124.7,198.9 120.2,200.8 124.7,203.5 					"/>
				</g>
				<g>
					<polyline fill="none" stroke="#010101" stroke-miterlimit="10" points="124.7,204.4 120.2,206.3 124.7,209 					"/>
				</g>
				<g>
					<polyline fill="none" stroke="#010101" stroke-miterlimit="10" points="124.7,209.9 120.2,211.8 124.7,214.5 					"/>
				</g>
				<g>
					<polyline fill="none" stroke="#010101" stroke-miterlimit="10" points="124.7,215.4 120.2,217.3 124.7,220.1 					"/>
				</g>
				<g>
					<polyline fill="none" stroke="#010101" stroke-miterlimit="10" points="124.7,220.9 120.2,222.8 124.7,225.6 					"/>
				</g>
				<g>
					<polyline fill="none" stroke="#010101" stroke-miterlimit="10" points="124.7,226.4 120.2,228.4 124.7,231.1 					"/>
				</g>
				<g>
					<polyline fill="none" stroke="#010101" stroke-miterlimit="10" points="124.7,232 120.2,233.9 124.7,236.6 					"/>
				</g>
				<g>
					<polyline fill="none" stroke="#010101" stroke-miterlimit="10" points="124.7,237.5 120.2,239.4 124.7,242.1 					"/>
				</g>
				<g>
					<polyline fill="none" stroke="#010101" stroke-miterlimit="10" points="124.7,243 120.2,244.9 124.7,247.6 					"/>
				</g>
				<g>
					<polyline fill="none" stroke="#010101" stroke-miterlimit="10" points="124.7,248.5 120.2,250.4 124.7,253.1 					"/>
				</g>
				<g>
					<polyline fill="none" stroke="#010101" stroke-miterlimit="10" points="124.7,254 120.2,255.9 124.7,258.6 					"/>
				</g>
				<g>
					<polyline fill="none" stroke="#010101" stroke-miterlimit="10" points="124.7,259.5 120.2,261.4 124.7,264.1 					"/>
				</g>
				<g>
					<polyline fill="none" stroke="#010101" stroke-miterlimit="10" points="124.7,265 120.2,266.9 124.7,269.7 					"/>
				</g>
				<g>
					<polyline fill="none" stroke="#010101" stroke-miterlimit="10" points="124.7,270.5 120.2,272.4 124.7,275.2 					"/>
				</g>
				<g>
					<polyline fill="none" stroke="#010101" stroke-miterlimit="10" points="124.7,276.1 120.2,277.9 124.7,280.7 					"/>
				</g>
				<g>
					<polyline fill="none" stroke="#010101" stroke-miterlimit="10" points="124.7,281.6 120.2,283.4 124.7,286.2 					"/>
				</g>
				<g>
					<polyline fill="none" stroke="#010101" stroke-miterlimit="10" points="124.7,287.1 120.2,288.9 124.7,291.7 					"/>
				</g>
				<g>
					<path fill="none" stroke="#010101" stroke-miterlimit="10" d="M124.6,292.6c0,0-1.2,0.5-2.3,0.9c-1.2,0.4-2.3,0.9-2.3,0.9
						l4.4,2.9"/>
				</g>
				<g>
					<path fill="none" stroke="#010101" stroke-miterlimit="10" d="M124.3,298.1l-4.6,1.8c0,0,1.1,0.7,2.2,1.4
						c1.1,0.7,2.2,1.4,2.2,1.4"/>
				</g>
				<g>
					<path fill="none" stroke="#010101" stroke-miterlimit="10" d="M124.1,303.6l-4.5,1.9c0,0,1.1,0.7,2.2,1.3
						c1.1,0.7,2.2,1.3,2.2,1.3"/>
				</g>
				<g>
					<path fill="none" stroke="#010101" stroke-miterlimit="10" d="M124.1,309l-4.5,2c0,0,1.1,0.6,2.3,1.3c1.1,0.6,2.3,1.3,2.3,1.3"
						/>
				</g>
				<g>
					<path fill="none" stroke="#010101" stroke-miterlimit="10" d="M124.2,314.4c0,0-1.1,0.5-2.2,1.1c-1.1,0.5-2.2,1.1-2.2,1.1
						s1.2,0.6,2.3,1.2c1.2,0.6,2.3,1.2,2.3,1.2"/>
				</g>
				<g>
					<path fill="none" stroke="#010101" stroke-miterlimit="10" d="M124.4,319.9c0,0-1.1,0.6-2.2,1.1c-1.1,0.6-2.2,1.2-2.2,1.2
						s1.2,0.6,2.3,1.2c1.2,0.6,2.4,1.1,2.4,1.1"/>
				</g>
				<g>
					<path fill="none" stroke="#010101" stroke-miterlimit="10" d="M124.9,325.3c0,0-1.1,0.6-2.1,1.2c-1.1,0.6-2.1,1.2-2.1,1.2
						s1.2,0.5,2.4,1.1c1.2,0.5,2.4,1,2.4,1"/>
				</g>
				<g>
					<path fill="none" stroke="#010101" stroke-miterlimit="10" d="M125.5,330.6c0,0-1,0.6-2.1,1.3c-1,0.7-2.1,1.3-2.1,1.3
						s1.2,0.5,2.4,1c1.2,0.5,2.4,0.9,2.4,0.9"/>
				</g>
				<g>
					<path fill="none" stroke="#010101" stroke-miterlimit="10" d="M126.3,335.9c0,0-1,0.7-2,1.4c-1,0.7-2,1.4-2,1.4
						s1.2,0.4,2.5,0.8c1.2,0.4,2.5,0.8,2.5,0.8"/>
				</g>
				<g>
					<path fill="none" stroke="#010101" stroke-miterlimit="10" d="M127.4,341.2c0,0-1,0.7-2,1.5c-1,0.8-1.9,1.5-1.9,1.5
						s1.3,0.4,2.5,0.7c1.3,0.3,2.5,0.6,2.5,0.6"/>
				</g>
				<g>
					<path fill="none" stroke="#010101" stroke-miterlimit="10" d="M128.9,346.3c0,0-0.9,0.8-1.8,1.6c-0.9,0.8-1.8,1.7-1.8,1.7
						c0,0,1.3,0.3,2.6,0.5c1.3,0.2,2.6,0.4,2.6,0.4"/>
				</g>
				<g>
					<path fill="none" stroke="#010101" stroke-miterlimit="10" d="M130.7,351.2c0,0-0.9,0.9-1.7,1.8c-0.8,0.9-1.6,1.8-1.6,1.8
						s1.3,0.1,2.6,0.2c1.3,0.1,2.6,0.1,2.6,0.1"/>
				</g>
				<g>
					<path fill="none" stroke="#010101" stroke-miterlimit="10" d="M133,355.9c0,0-0.8,1-1.5,2c-0.7,1-1.4,2.1-1.4,2.1
						s1.3,0,2.6-0.2c1.3-0.1,2.5-0.4,2.5-0.4"/>
				</g>
				<g>
					<path fill="none" stroke="#010101" stroke-miterlimit="10" d="M135.8,360c0,0-0.6,1.1-1,2.2c-0.5,1.1-0.8,2.3-0.8,2.3
						c0,0,1.3-0.3,2.5-0.9c0.6-0.3,1.1-0.6,1.4-1c0.3-0.3,0.3-0.6,0.3-0.6"/>
				</g>
				<g>
					<path fill="none" stroke="#010101" stroke-miterlimit="10" d="M141.3,362.3c0,0,0,1.2,0.1,2.4c0.1,1.2,0.2,2.5,0.2,2.5
						s1-0.9,1.9-1.8c0.9-0.9,1.8-1.9,1.8-1.9"/>
				</g>
				<g>
					<path fill="none" stroke="#010101" stroke-miterlimit="10" d="M146.2,363.7c0,0,0.2,1.2,0.5,2.4c0.3,1.2,0.7,2.4,0.7,2.4
						s0.9-1,1.6-2.1c0.8-1.1,1.4-2.2,1.4-2.2"/>
				</g>
				<g>
					<path fill="none" stroke="#010101" stroke-miterlimit="10" d="M151.1,364.3c0,0,0.4,1.1,1,2.2c0.5,1.1,1.1,2.2,1.1,2.2
						s0.6-1.2,1.1-2.4c0.5-1.2,0.8-2.4,0.8-2.4"/>
				</g>
				<g>
					<path fill="none" stroke="#010101" stroke-miterlimit="10" d="M155.9,363.7c0,0,0.7,1,1.5,1.9c0.8,0.9,1.7,1.8,1.7,1.8
						s0.3-1.3,0.4-2.6c0.2-1.3,0.1-2.6,0.1-2.6"/>
				</g>
				<g>
					<path fill="none" stroke="#010101" stroke-miterlimit="10" d="M160.3,362c0,0,0.9,0.8,2,1.4c1,0.7,2.1,1.3,2.1,1.3
						s-0.1-1.3-0.3-2.6c-0.2-1.3-0.6-2.5-0.6-2.5"/>
				</g>
				<g>
					<path fill="none" stroke="#010101" stroke-miterlimit="10" d="M164.1,359c0,0,1.1,0.5,2.3,0.9c1.2,0.4,2.4,0.7,2.4,0.7
						c-0.5-1.4-1.1-2.7-0.6-3.3c-0.4-0.3-0.7-0.6-0.7-0.6c-0.1-0.1-0.3-0.3-0.2-0.3l-0.4-0.6"/>
				</g>
				<g>
					<path fill="none" stroke="#010101" stroke-miterlimit="10" d="M167.1,355.1c0,0,1.2,0.2,2.4,0.4c1.2,0.2,2.5,0.2,2.5,0.2
						s-0.7-1.2-1.4-2.2c-0.7-1.1-1.5-2.1-1.5-2.1"/>
				</g>
				<g>
					<path fill="none" stroke="#010101" stroke-miterlimit="10" d="M169.5,350.6c0,0,1.2,0,2.4,0c1.2,0,2.5-0.1,2.5-0.1
						s-0.8-1-1.6-2c-0.8-1-1.7-2-1.7-2"/>
				</g>
				<g>
					<path fill="none" stroke="#010101" stroke-miterlimit="10" d="M171.3,345.7c0,0,1.2-0.1,2.4-0.3c1.2-0.2,2.4-0.3,2.4-0.3
						c0,0-0.9-1-1.8-1.9c-0.9-0.9-1.9-1.8-1.9-1.8"/>
				</g>
				<g>
					<path fill="none" stroke="#010101" stroke-miterlimit="10" d="M172.7,340.6c0,0,1.2-0.2,2.4-0.5c1.2-0.3,2.4-0.5,2.4-0.5
						s-1-0.9-2-1.7c-1-0.8-2-1.6-2-1.6"/>
				</g>
				<g>
					<path fill="none" stroke="#010101" stroke-miterlimit="10" d="M173.6,335.4c0,0,1.2-0.3,2.4-0.7c1.2-0.4,2.4-0.7,2.4-0.7
						s-1-0.8-2.1-1.6c-1.1-0.8-2.1-1.5-2.1-1.5"/>
				</g>
				<g>
					<path fill="none" stroke="#010101" stroke-miterlimit="10" d="M174.2,330.1c0,0,1.2-0.4,2.3-0.8c1.2-0.4,2.3-0.9,2.3-0.9
						s-1.1-0.7-2.2-1.4c-1.1-0.7-2.2-1.4-2.2-1.4"/>
				</g>
				<g>
					<path fill="none" stroke="#010101" stroke-miterlimit="10" d="M174.5,324.7c0,0,1.1-0.5,2.3-0.9c1.1-0.5,2.3-1,2.3-1
						s-1.1-0.7-2.3-1.3c-1.1-0.6-2.3-1.3-2.3-1.3"/>
				</g>
				<g>
					<path fill="none" stroke="#010101" stroke-miterlimit="10" d="M174.4,319.4c0,0,1.1-0.5,2.2-1.1c1.1-0.5,2.2-1.1,2.2-1.1
						s-0.3-0.2-0.7-0.4c-0.4-0.2-1-0.5-1.6-0.9c-1.1-0.7-2.2-1.4-2.2-1.4"/>
				</g>
				<g>
					<polyline fill="none" stroke="#010101" stroke-miterlimit="10" points="174.4,313.7 178.9,311.9 174.5,309.1 					"/>
				</g>
				<g>
					<polyline fill="none" stroke="#010101" stroke-miterlimit="10" points="174.6,308.2 179.1,306.3 174.7,303.6 					"/>
				</g>
				<g>
					<polyline fill="none" stroke="#010101" stroke-miterlimit="10" points="174.8,302.7 179.3,300.8 174.9,298.1 					"/>
				</g>
				<g>
					<polyline fill="none" stroke="#010101" stroke-miterlimit="10" points="175,297.2 179.5,295.3 175.1,292.6 					"/>
				</g>
				<g>
					<polyline fill="none" stroke="#010101" stroke-miterlimit="10" points="175.2,291.7 179.7,289.8 175.3,287.1 					"/>
				</g>
				<g>
					<polyline fill="none" stroke="#010101" stroke-miterlimit="10" points="175.3,286.2 179.9,284.3 175.3,281.6 					"/>
				</g>
				<g>
					<polyline fill="none" stroke="#010101" stroke-miterlimit="10" points="175.3,280.7 179.9,278.8 175.3,276.1 					"/>
				</g>
				<g>
					<polyline fill="none" stroke="#010101" stroke-miterlimit="10" points="175.3,275.2 179.9,273.3 175.3,270.5 					"/>
				</g>
				<g>
					<polyline fill="none" stroke="#010101" stroke-miterlimit="10" points="175.3,269.7 179.9,267.7 175.3,265 					"/>
				</g>
				<g>
					<polyline fill="none" stroke="#010101" stroke-miterlimit="10" points="175.3,264.2 179.9,262.2 175.3,259.5 					"/>
				</g>
				<g>
					<polyline fill="none" stroke="#010101" stroke-miterlimit="10" points="175.3,258.6 179.9,256.7 175.3,254 					"/>
				</g>
				<g>
					<polyline fill="none" stroke="#010101" stroke-miterlimit="10" points="175.3,253.1 179.9,251.2 175.3,248.5 					"/>
				</g>
				<g>
					<polyline fill="none" stroke="#010101" stroke-miterlimit="10" points="175.3,247.6 179.9,245.7 175.3,243 					"/>
				</g>
				<g>
					<polyline fill="none" stroke="#010101" stroke-miterlimit="10" points="175.3,242.1 179.9,240.2 175.3,237.5 					"/>
				</g>
				<g>
					<polyline fill="none" stroke="#010101" stroke-miterlimit="10" points="175.3,236.6 179.9,234.7 175.3,232 					"/>
				</g>
				<g>
					<polyline fill="none" stroke="#010101" stroke-miterlimit="10" points="175.3,231.1 179.9,229.2 175.3,226.5 					"/>
				</g>
				<g>
					<polyline fill="none" stroke="#010101" stroke-miterlimit="10" points="175.3,225.6 179.9,223.6 175.3,221 					"/>
				</g>
				<g>
					<polyline fill="none" stroke="#010101" stroke-miterlimit="10" points="175.3,220.1 179.9,218.1 175.3,215.4 					"/>
				</g>
				<g>
					<polyline fill="none" stroke="#010101" stroke-miterlimit="10" points="175.3,214.6 179.9,212.6 175.3,209.9 					"/>
				</g>
				<g>
					<polyline fill="none" stroke="#010101" stroke-miterlimit="10" points="175.3,209.1 179.9,207.1 175.3,204.4 					"/>
				</g>
				<g>
					<polyline fill="none" stroke="#010101" stroke-miterlimit="10" points="175.3,203.5 179.9,201.6 175.3,198.9 					"/>
				</g>
				<g>
					<polyline fill="none" stroke="#010101" stroke-miterlimit="10" points="175.3,198 179.9,196.1 175.3,193.4 					"/>
				</g>
				<g>
					<polyline fill="none" stroke="#010101" stroke-miterlimit="10" points="175.3,192.5 179.9,190.6 175.3,187.9 					"/>
				</g>
				<g>
					<polyline fill="none" stroke="#010101" stroke-miterlimit="10" points="175.3,187 179.9,185 175.3,182.4 					"/>
				</g>
				<g>
					<polyline fill="none" stroke="#010101" stroke-miterlimit="10" points="175.3,181.5 179.9,179.5 175.3,176.9 					"/>
				</g>
				<g>
					<polyline fill="none" stroke="#010101" stroke-miterlimit="10" points="175.3,176 179.9,174 175.3,171.4 					"/>
				</g>
				<g>
					<polyline fill="none" stroke="#010101" stroke-miterlimit="10" points="175.3,170.5 179.9,168.5 175.3,165.9 					"/>
				</g>
				<g>
					<path fill="none" stroke="#010101" stroke-miterlimit="10" d="M175.3,165l4.5-2c0,0-0.3-0.2-0.7-0.4c-0.4-0.2-1-0.6-1.5-0.9
						c-0.3-0.1-0.6-0.2-0.8-0.2c-0.3,0-0.6,0-0.8,0.1c-0.4,0.1-0.7,0.3-0.7,0.2"/>
				</g>
				<g>
					<path fill="none" stroke="#010101" stroke-miterlimit="10" d="M174.9,161.1c0,0,0.7-1,1.4-2c0.6-1,1.2-2.2,1.2-2.2
						c0,0-1.3,0.1-2.6,0.4c-1.3,0.2-2.5,0.6-2.5,0.6"/>
				</g>
				<g>
					<path fill="none" stroke="#010101" stroke-miterlimit="10" d="M171.8,157.4c0,0,0.5-1.1,0.8-2.3c0.4-1.2,0.6-2.4,0.6-2.4
						s-1.3,0.4-2.4,1c-1.2,0.6-2.2,1.3-2.2,1.3"/>
				</g>
				<g>
					<path fill="none" stroke="#010101" stroke-miterlimit="10" d="M168.1,154.7c0,0,0.1-1.2,0.1-2.4c0-1.2-0.3-2.5-0.3-2.5
						c0,0-1.1,0.9-1.9,1.9c-0.8,1-1.4,2.1-1.4,2.1"/>
				</g>
				<g>
					<path fill="none" stroke="#010101" stroke-miterlimit="10" d="M163.8,153.8c0,0-0.4-1.1-1-2.2c-0.6-1.1-1.3-2.1-1.3-2.1
						s-0.6,1.2-0.9,2.5c-0.4,1.3-0.5,2.5-0.5,2.5"/>
				</g>
				<g>
					<path fill="none" stroke="#010101" stroke-miterlimit="10" d="M159.5,154.7c0,0-0.8-0.9-1.7-1.7c-0.9-0.8-1.9-1.5-1.9-1.5
						s-0.1,1.3,0,2.6c0,1.3,0.2,2.6,0.2,2.6"/>
				</g>
				<g>
					<path fill="none" stroke="#010101" stroke-miterlimit="10" d="M155.4,157.1c0,0-1-0.6-2.1-1.2c-1.1-0.6-2.2-1-2.2-1
						c0.3,1.5,0.6,3,0.1,3.5c0.5-0.1,1-0.2,1.1-0.4l1,0.5"/>
				</g>
			</g>
		</g>
	</g>
</g>
<g id="leaf">
	<g>
		<path fill="#A8CF38" stroke="#010101" stroke-width="0.5" stroke-linecap="round" stroke-linejoin="round" d="M147.4,79.1
			c0,0-8.6-15-7.4-22.4l2.1,0.7c0,0-1.8-2.2,0.2-11.3l1.7,1.5c0,0-1.5-4.5,1.4-10.4l1.7,1.5c0,0,0.8-4.1,2.5-8.3l1.9,1.2
			c0,0-0.4-5,1.3-8.5l1.7,1.5c0,0,0.7-6.3,4.1-7.5l0.5,1.5c0,0,2.3-3.9,5.8-6l1.6,1.7c0,0-0.1-3.9,4.3-5.5l0.9,1.4
			c0,0,0.5-5.2,4.6-6l1.2,2.5c0,0,7.1-6.6,8.7-6.8l2.6,1.3c0.3,1.2-0.1,11-0.1,11l2.7-0.6c1.8,3.8-2,7.3-2,7.3l1.7-0.1
			c1.5,4.5-1.7,6.8-1.7,6.8l2.4,0.2c0.5,4-1.2,8.3-1.2,8.3l1.5-0.5c1.2,3.4-3.4,7.8-3.4,7.8l2.2,0.5c-1.8,3.6-6,6.3-6,6.3l2.1,0.7
			c-2.3,3.9-5.1,7-5.1,7l2.2,0.5c-2.9,5.9-7.4,7.5-7.4,7.5l2.2,0.5c-6,7.2-8.8,7.1-8.8,7.1l1.9,1.2c-5.1,5.4-22.3,7.7-22.3,7.7
			L147.4,79.1z"/>
		<path fill="#A8CF38" stroke="#010101" stroke-width="0.5" stroke-linecap="round" stroke-linejoin="round" d="M148.9,79.8
			c0,0-8.6-15-7.4-22.4l2.1,0.7c0,0-1.8-2.2,0.2-11.3l1.7,1.5c0,0-1.5-4.5,1.4-10.4l1.7,1.5c0,0,0.8-4.1,2.5-8.3l1.9,1.2
			c0,0-0.4-5,1.3-8.5l1.7,1.5c0,0,0.7-6.3,4.1-7.5l0.5,1.5c0,0,2.3-3.9,5.8-6l1.6,1.7c0,0-0.1-3.9,4.3-5.5l0.9,1.4
			c0,0,0.5-5.2,4.6-6l1.2,2.5c0,0,7.1-6.6,8.7-6.8l2.6,1.3c0.3,1.2-0.1,11-0.1,11l2.7-0.6c1.8,3.8-2,7.3-2,7.3l1.7-0.1
			c1.5,4.5-1.7,6.8-1.7,6.8l2.4,0.2c0.5,4-1.2,8.3-1.2,8.3l1.5-0.5c1.2,3.4-3.4,7.8-3.4,7.8l2.2,0.5c-1.8,3.6-6,6.3-6,6.3l2.1,0.7
			c-2.3,3.9-5.1,7-5.1,7l2.2,0.5c-2.9,5.9-7.4,7.5-7.4,7.5l2.2,0.5c-6,7.2-8.8,7.1-8.8,7.1l1.9,1.2c-5.1,5.4-22.3,7.7-22.3,7.7
			L148.9,79.8z"/>
		
			<line fill="none" stroke="#010101" stroke-width="0.5" stroke-linecap="round" stroke-linejoin="round" x1="188.4" y1="2" x2="149.7" y2="80.3"/>
		<g>
			
				<line fill="none" stroke="#010101" stroke-width="0.5" stroke-linecap="round" stroke-linejoin="round" x1="179.2" y1="6.3" x2="180.5" y2="12.8"/>
			
				<line fill="none" stroke="#010101" stroke-width="0.5" stroke-linecap="round" stroke-linejoin="round" x1="173.3" y1="11.1" x2="177.1" y2="18.7"/>
			
				<line fill="none" stroke="#010101" stroke-width="0.5" stroke-linecap="round" stroke-linejoin="round" x1="168.3" y1="14.8" x2="173.4" y2="24.6"/>
			
				<line fill="none" stroke="#010101" stroke-width="0.5" stroke-linecap="round" stroke-linejoin="round" x1="160.4" y1="19" x2="168.7" y2="30.7"/>
			
				<line fill="none" stroke="#010101" stroke-width="0.5" stroke-linecap="round" stroke-linejoin="round" x1="156.4" y1="24.9" x2="166.8" y2="37.4"/>
			
				<line fill="none" stroke="#010101" stroke-width="0.5" stroke-linecap="round" stroke-linejoin="round" x1="152.5" y1="32.2" x2="162.9" y2="43.6"/>
			
				<line fill="none" stroke="#010101" stroke-width="0.5" stroke-linecap="round" stroke-linejoin="round" x1="148.5" y1="38.7" x2="157.5" y2="50.8"/>
			
				<line fill="none" stroke="#010101" stroke-width="0.5" stroke-linecap="round" stroke-linejoin="round" x1="145.3" y1="47.9" x2="155.8" y2="61.2"/>
			
				<line fill="none" stroke="#010101" stroke-width="0.5" stroke-linecap="round" stroke-linejoin="round" x1="143.4" y1="57.7" x2="151.9" y2="71.8"/>
		</g>
		<g>
			
				<line fill="none" stroke="#010101" stroke-width="0.5" stroke-linecap="round" stroke-linejoin="round" x1="191.4" y1="12.4" x2="185.5" y2="15.2"/>
			
				<line fill="none" stroke="#010101" stroke-width="0.5" stroke-linecap="round" stroke-linejoin="round" x1="191.2" y1="19.9" x2="182.9" y2="21.6"/>
			
				<line fill="none" stroke="#010101" stroke-width="0.5" stroke-linecap="round" stroke-linejoin="round" x1="191.3" y1="26.2" x2="180.5" y2="28.1"/>
			
				<line fill="none" stroke="#010101" stroke-width="0.5" stroke-linecap="round" stroke-linejoin="round" x1="192.8" y1="35" x2="178.4" y2="35.5"/>
			
				<line fill="none" stroke="#010101" stroke-width="0.5" stroke-linecap="round" stroke-linejoin="round" x1="190.6" y1="41.7" x2="174.3" y2="41.1"/>
			
				<line fill="none" stroke="#010101" stroke-width="0.5" stroke-linecap="round" stroke-linejoin="round" x1="187.1" y1="49.3" x2="171.7" y2="47.9"/>
			
				<line fill="none" stroke="#010101" stroke-width="0.5" stroke-linecap="round" stroke-linejoin="round" x1="184.4" y1="56.4" x2="169.3" y2="56.6"/>
			
				<line fill="none" stroke="#010101" stroke-width="0.5" stroke-linecap="round" stroke-linejoin="round" x1="179" y1="64.6" x2="162.1" y2="64.2"/>
			
				<line fill="none" stroke="#010101" stroke-width="0.5" stroke-linecap="round" stroke-linejoin="round" x1="172.4" y1="72" x2="156" y2="73.8"/>
		</g>
		<path fill="#FFFFFF" stroke="#010101" stroke-width="0.5" stroke-linecap="round" stroke-linejoin="round" d="M194.8,27.3
			c0,0-5.7,1.5-4.2,4.5c0,0-7,1-3.7,6.5c0,0,1.7,3.7,4.7,2.3c0,0-1.9,3,1,2.5c2.9-0.6,2.2-0.7,2.2-0.7"/>
		<path fill="#FFFFFF" stroke="#010101" stroke-width="0.5" stroke-miterlimit="10" d="M157.6,34.9c-0.2,1.3-1,2.4-1.5,3.6
			c1.5,1.2,3.4-1.3,4.1-2.5c-0.8,2-0.2,6.4,2.5,3.3c-0.5,2,0.6,2.3,2.2,3.1c-0.5,1.7-2.2,2.2-3.2,3.5c-0.6,0.8-0.9,1.9-1.4,2.7
			c-1-0.7-1.2-2.1-2.1-2.8c-0.6,0.5-2.5,3-3.3,2.9c-0.9-0.1-1.8-2.3-2.9-2.7c0.4-1,1-2,1.4-3.1c-0.2-0.2-0.4-0.2-0.5-0.3
			c0.3-1.3,2.7-8,4.2-6.4"/>
		<path fill="#FFFFFF" stroke="#010101" stroke-width="0.5" stroke-miterlimit="10" d="M177.1,19.8c1.7-1.5,1.8-3.4,4.2-4.6
			c0.2,0.6-0.3,2.8,0.2,3.1c1.3,1.1,3.5-1.5,4.5-2.3c-0.2,0.5-1.2,2.3-0.9,2.9c0.7,1.4,2.3,0.2,3.4,0.3c-0.7,2-2.4,3.4-3.4,5.4
			c-0.6,1.3-0.8,2.4-1.3,3.7c-2.3-0.8-3.8-2.5-4.3-4.8c-0.7,1.4-3.2,6.1-3.5,2.3c-0.2-2.3,1.6-4.6,1.9-6.8"/>
		<path fill="#FFFFFF" stroke="#010101" stroke-width="0.5" stroke-miterlimit="10" d="M174.3,52.2c-0.1,1.4-2,3-2,4.4
			c0,1.9,2.3,3.2,4,3.3c-2,0.6-4,1.8-4.7,3.9c0.9,0.9,2.1,1.3,3.2,1.9c-0.9,0.4-5.4,2.7-2.9,3.7c-0.7,1.7-5.4-0.8-6.6-1.8
			c-2.5-2.2-1.6-4.8-0.5-7.5c1.6-3.8,5-7.9,9.7-7"/>
	</g>
</g>
<g id="water">
	<g>
		<path fill="#55C2E2" stroke="#070707" stroke-width="0.5" stroke-miterlimit="10" d="M98.1,22.3c0,0-36.1,41.7-4.2,51.2
			c0,0,26.1-0.6,14.6-30.9C108.4,42.6,98.6,31,98.1,22.3z"/>
		<path fill="none" stroke="#3A97AD" stroke-miterlimit="10" d="M95.9,70.1c5.2,2.4,13.5-10.3,12.9-14.9"/>
		
			<ellipse transform="matrix(0.7903 -0.6127 0.6127 0.7903 -19.993 68.9484)" opacity="0.8" fill="#FFFFFF" cx="90.7" cy="63.7" rx="4.8" ry="5.8"/>
		<path opacity="0.8" fill="#FFFFFF" d="M87.4,40.6c0,0,4.7-11.6,10.3-14.6"/>
	</g>
	<g>
		<path fill="#55C2E2" stroke="#070707" stroke-width="0.5" stroke-miterlimit="10" d="M236.3,269.1c0,0-36.1,41.7-4.2,51.2
			c0,0,26.1-0.6,14.6-30.9C246.6,289.4,236.8,277.8,236.3,269.1z"/>
		<path fill="none" stroke="#3A97AD" stroke-miterlimit="10" d="M234.1,316.9c5.2,2.4,13.5-10.3,12.9-14.9"/>
		
			<ellipse transform="matrix(0.7903 -0.6127 0.6127 0.7903 -142.2319 205.3889)" opacity="0.8" fill="#FFFFFF" cx="229" cy="310.5" rx="4.8" ry="5.8"/>
		<path opacity="0.8" fill="#FFFFFF" d="M225.7,287.4c0,0,4.7-11.6,10.3-14.6"/>
	</g>
	<g>
		<path fill="#55C2E2" stroke="#070707" stroke-width="0.5" stroke-miterlimit="10" d="M224.4,185.9c0,0-21.7,25.1-2.5,30.8
			c0,0,15.7-0.4,8.8-18.6C230.7,198.1,224.7,191.1,224.4,185.9z"/>
		<path fill="none" stroke="#3A97AD" stroke-miterlimit="10" d="M223.1,214.7c3.1,1.4,8.1-6.2,7.7-9"/>
		
			<ellipse transform="matrix(0.7902 -0.6129 0.6129 0.7902 -84.7517 179.3432)" opacity="0.8" fill="#FFFFFF" cx="219.6" cy="213.5" rx="1.7" ry="2.1"/>
		<path opacity="0.8" fill="#FFFFFF" d="M218,196.9c0,0,2.8-7,6.2-8.8"/>
	</g>
	<g>
		<path fill="#55C2E2" stroke="#070707" stroke-width="0.5" stroke-miterlimit="10" d="M79.6,185.9c0,0-21.7,25.1-2.5,30.8
			c0,0,15.7-0.4,8.8-18.6C85.8,198.1,79.9,191.1,79.6,185.9z"/>
		<path fill="none" stroke="#3A97AD" stroke-miterlimit="10" d="M78.3,214.7c3.1,1.4,8.1-6.2,7.7-9"/>
		
			<ellipse transform="matrix(0.7904 -0.6126 0.6126 0.7904 -115.0997 90.5015)" opacity="0.8" fill="#FFFFFF" cx="74.7" cy="213.5" rx="1.7" ry="2.1"/>
		<path opacity="0.8" fill="#FFFFFF" d="M73.2,196.9c0,0,2.8-7,6.2-8.8"/>
	</g>
	<g>
		<path fill="#55C2E2" stroke="#070707" stroke-width="0.5" stroke-miterlimit="10" d="M201.9,131.2c0,0-13.5,15.7-1.6,19.2
			c0,0,9.8-0.2,5.5-11.6C205.8,138.8,202.1,134.4,201.9,131.2z"/>
		<path fill="none" stroke="#3A97AD" stroke-miterlimit="10" d="M201.1,149.1c1.9,0.9,5.1-3.9,4.8-5.6"/>
		
			<ellipse transform="matrix(0.7906 -0.6123 0.6123 0.7906 -48.2585 152.2953)" opacity="0.8" fill="#FFFFFF" cx="198.5" cy="146.7" rx="0.9" ry="1"/>
		<path opacity="0.8" fill="#FFFFFF" d="M197.9,138c0,0,1.8-4.4,3.9-5.5"/>
	</g>
	<g>
		<path fill="#55C2E2" stroke="#070707" stroke-width="0.5" stroke-miterlimit="10" d="M84.7,280.1c0,0-13.5,15.7-1.6,19.2
			c0,0,9.8-0.2,5.5-11.6C88.6,287.8,84.9,283.4,84.7,280.1z"/>
		<path fill="none" stroke="#3A97AD" stroke-miterlimit="10" d="M83.9,298.1c1.9,0.9,5.1-3.9,4.8-5.6"/>
		
			<ellipse transform="matrix(0.7904 -0.6126 0.6126 0.7904 -164.0677 111.8215)" opacity="0.8" fill="#FFFFFF" cx="81.4" cy="295.7" rx="0.9" ry="1"/>
		<path opacity="0.8" fill="#FFFFFF" d="M80.7,287c0,0,1.8-4.4,3.9-5.5"/>
	</g>
</g>
</svg>
