<?xml version="1.0" encoding="utf-8"?>
<!-- Generator: Adobe Illustrator 17.1.0, SVG Export Plug-In . SVG Version: 6.00 Build 0)  -->
<!DOCTYPE svg PUBLIC "-//W3C//DTD SVG 1.1//EN" "http://www.w3.org/Graphics/SVG/1.1/DTD/svg11.dtd">
<svg version="1.1" xmlns="http://www.w3.org/2000/svg" xmlns:xlink="http://www.w3.org/1999/xlink" x="0px" y="0px"
	 viewBox="0 0 187.7 347.5" enable-background="new 0 0 187.7 347.5" xml:space="preserve">
<pattern  x="-215.9" y="-178.5" width="8.7" height="8.7" patternUnits="userSpaceOnUse" id="New_Pattern_Swatch_12" viewBox="0 -8.7 8.7 8.7" overflow="visible">
	<g>
		<polygon fill="none" points="8.7,0 0,0 0,-8.7 8.7,-8.7 		"/>
		<g>
			<path fill="#010101" d="M5-4.5c0,0.4-0.3,0.7-0.7,0.7C4-3.8,3.7-4.1,3.7-4.5c0-0.4,0.3-0.7,0.7-0.7C4.7-5.2,5-4.9,5-4.5z"/>
		</g>
	</g>
</pattern>
<g id="legs">
	<path fill="#FFFFFF" stroke="#010101" stroke-miterlimit="10" d="M31,143.1c0,0,12-1.5,19.5,1l-1.2,5.4L54,142
		c0.5-0.5,2.9-2.8,7.5-2.8c2.1,0,4.5,3,7.2,4.7l3.5-5.3c-3.7-2.5-7.4-3.4-10.6-3.4c-4.8,0-8.8,4.3-11.3,6.3
		C50.3,141.6,40.6,139.4,31,143.1"/>
	<path fill="#FFFFFF" stroke="#010101" stroke-miterlimit="10" d="M73.4,136.4c0,0-7.9,0-7.4,3.6c0.5,3.6,1.5,5.3,4.7,4.7
		L73.4,136.4z"/>
	<path fill="#FFFFFF" stroke="#010101" stroke-miterlimit="10" d="M154.6,146c0,0-12-1.5-19.5,1l1.2,5.4l-4.8-7.4
		c-0.5-0.5-2.9-2.8-7.5-2.8c-2.1,0-4.5,3-7.2,4.7l-3.5-5.3c3.7-2.5,7.4-3.4,10.6-3.4c4.8,0,8.8,4.3,11.3,6.3
		C135.3,144.5,145,142.3,154.6,146"/>
	<path fill="#FFFFFF" stroke="#010101" stroke-miterlimit="10" d="M113.8,139.2c0,0,7.9,0,7.4,3.6c-0.5,3.6-1.5,5.3-4.7,4.7
		L113.8,139.2z"/>
	<path fill="#FFFFFF" stroke="#010101" stroke-miterlimit="10" d="M123.8,157.9l17.9,14.7c0,0-2.5-0.5-3.8-0.7
		c0,0,12.8,20.9,6.1,32.4c0,0,1.9-16.3-6.6-29.3c0,0,2.6,7.7,0.6,8.9c0,0,0.2-7.4-5.8-15l-7.9-5.5L123.8,157.9z"/>
	<path fill="#FFFFFF" stroke="#010101" stroke-miterlimit="10" d="M117.1,153.8c0,0,9,0.7,9,4.3c0,1.8-0.4,3.4-1.2,4.5
		c-0.9,1.1-2.2,1.7-4.3,1.5C120.5,164.1,115.8,155.4,117.1,153.8z"/>
	<path fill="#FFFFFF" stroke="#010101" stroke-miterlimit="10" d="M63.8,157.3L45.9,172c0,0,2.5-0.5,3.8-0.7c0,0-12.8,20.9-6.1,32.4
		c0,0-1.9-16.3,6.6-29.3c0,0-2.6,7.7-0.6,8.9c0,0-0.2-7.4,5.8-15l7.9-5.5L63.8,157.3z"/>
	<path fill="#FFFFFF" stroke="#010101" stroke-miterlimit="10" d="M70.6,153.2c0,0-9,0.7-9,4.3c0,1.8,0.4,3.4,1.2,4.5
		c0.9,1.1,2.2,1.7,4.3,1.5C67.1,163.5,71.8,154.8,70.6,153.2z"/>
	<path fill="#FFFFFF" stroke="#010101" stroke-miterlimit="10" d="M112.1,111.6l15-17.6c0,0-0.5,2.5-0.8,3.8c0,0,21.1-12.4,32.5-5.4
		c0,0-16.2-2.2-29.4,6c0,0,7.7-2.5,8.9-0.4c0,0-7.4-0.4-15.1,5.5l-5.7,7.8L112.1,111.6z"/>
	<path fill="#FFFFFF" stroke="#010101" stroke-miterlimit="10" d="M116.2,120c0,0,3.1-8.5-0.2-9.9c-1.6-0.7-3.2-1.1-4.6-0.7
		c-1.4,0.3-2.5,1.3-3.2,3.3C108.2,112.6,114.2,120.4,116.2,120z"/>
	<path fill="#FFFFFF" stroke="#010101" stroke-miterlimit="10" d="M77.7,110.9l-15-17.6c0,0,0.5,2.5,0.8,3.8c0,0-21.1-12.4-32.5-5.4
		c0,0,16.2-2.2,29.4,6c0,0-7.7-2.5-8.9-0.4c0,0,7.4-0.4,15.1,5.5l5.7,7.8L77.7,110.9z"/>
	<path fill="#FFFFFF" stroke="#010101" stroke-miterlimit="10" d="M73.5,119.3c0,0-3.1-8.5,0.2-9.9c1.6-0.7,3.2-1.1,4.6-0.7
		c1.4,0.3,2.5,1.3,3.2,3.3C81.5,111.8,75.5,119.7,73.5,119.3z"/>
	<path fill="#FFFFFF" stroke="#010101" stroke-miterlimit="10" d="M28.4,140.7"/>
</g>
<g id="basebody">
	<path fill="#FFFFFF" stroke="#010101" stroke-miterlimit="10" d="M79.9,110.4c0,0-1.6-9.8,3.9-12.2c5.5-2.4,6.8-3.5,6.8-3.5
		s3.5-2.3,7.6,0c0,0,1.2,1.1,6.8,3.5c5.5,2.4,3.9,12.2,3.9,12.2S94.7,123.8,79.9,110.4z"/>
	<path fill="#FFFFFF" stroke="#010101" stroke-miterlimit="10" d="M109,132.7c0,0,12.5,3.5,4.3,16.7c0,0,12.2,10.1,2.8,20.6
		c0,0,12.6,5.1,3.6,16.4c0,0,12.9,5.5,3.3,21.8c0,0,11.4,10.5,1.7,22.6c0,0,14.5,9.7,3.9,21.8c0,0,10.5,10.1,1.9,24.9
		c0,0,5.8,13.2-2.7,18.3c0,0,2.2,10.9-6.3,13.2c0,0,1.6,14.8-8.9,14.8c0,0-3.1,16-18.3,17.1h-0.7c-15.2-1.2-18.3-17.1-18.3-17.1
		c-10.5,0-8.9-14.8-8.9-14.8c-8.5-2.3-6.3-13.2-6.3-13.2c-8.6-5.1-2.7-18.3-2.7-18.3c-8.6-14.8,1.9-24.9,1.9-24.9
		c-10.6-12.1,3.9-21.8,3.9-21.8c-9.7-12.1,1.7-22.6,1.7-22.6c-9.6-16.4,3.3-21.8,3.3-21.8c-9.1-11.3,3.6-16.4,3.6-16.4
		c-9.4-10.5,2.8-20.6,2.8-20.6c-8.2-13.2,4.3-16.7,4.3-16.7S96.1,141.8,109,132.7z"/>
	<path fill="#FFFFFF" stroke="#000000" stroke-miterlimit="10" d="M108.8,132.7c0,0,12.5,3.5,4.3,16.7c0,0,12.2,10.1,2.8,20.6
		c0,0,12.6,5.1,3.6,16.4c0,0,12.9,5.5,3.3,21.8c0,0,11.4,10.5,1.7,22.6c0,0,14.5,9.7,3.9,21.8c0,0,10.5,10.1,1.9,24.9
		c0,0,5.8,13.2-2.7,18.3c0,0,2.2,10.9-6.3,13.2c0,0,1.6,14.8-8.9,14.8c0,0-3.1,16-18.3,17.1h-0.7C78.1,339.8,75,323.9,75,323.9
		c-10.5,0-8.9-14.8-8.9-14.8c-8.5-2.3-6.3-13.2-6.3-13.2c-8.6-5.1-2.7-18.3-2.7-18.3c-8.6-14.8,1.9-24.9,1.9-24.9
		c-10.6-12.1,3.9-21.8,3.9-21.8c-9.7-12.1,1.7-22.6,1.7-22.6c-9.6-16.4,3.3-21.8,3.3-21.8c-9.1-11.3,3.6-16.4,3.6-16.4
		c-9.4-10.5,2.8-20.6,2.8-20.6c-8.2-13.2,4.3-16.7,4.3-16.7S95.8,141.8,108.8,132.7z"/>
	<path fill="none" stroke="#010101" stroke-width="0.5" stroke-miterlimit="10" d="M74.5,149.4c0,0,20.1,4.1,38.8,0"/>
	<path fill="#FFFFFF" stroke="#010101" stroke-miterlimit="10" d="M94.4,150.8c-13.9,0-25.3-9.2-25.3-20.5
		c0-11.3,11.3-20.5,25.3-20.5c13.9,0,25.3,9.2,25.3,20.5C119.7,141.6,108.4,150.8,94.4,150.8z"/>
	<path fill="none" stroke="#010101" stroke-width="0.5" stroke-miterlimit="10" d="M59.9,296.5c0,0,31.4,6.6,67.7,0"/>
	<path fill="none" stroke="#010101" stroke-width="0.5" stroke-miterlimit="10" d="M57.2,278.2c0,0,38.6,10.5,73.1,0"/>
	<path fill="none" stroke="#010101" stroke-width="0.5" stroke-miterlimit="10" d="M59.1,253.3c0,0,36.1,9,69.3,0"/>
	<path fill="none" stroke="#010101" stroke-width="0.5" stroke-miterlimit="10" d="M63,231.4c0,0,28,8.2,61.4,0"/>
	<path fill="none" stroke="#010101" stroke-width="0.5" stroke-miterlimit="10" d="M64.7,208.9c0,0,28.7,8.2,58.1,0"/>
	<path fill="none" stroke="#010101" stroke-width="0.5" stroke-miterlimit="10" d="M68,187.1c0,0,26.6,6.2,51.5,0"/>
	<path fill="none" stroke="#010101" stroke-width="0.5" stroke-miterlimit="10" d="M71.5,170.7c0,0,21.6,3.7,44.4,0"/>
	<path fill="none" stroke="#010101" stroke-width="0.5" stroke-miterlimit="10" d="M66.1,309.2c0,0,22.8,9.2,55.5,0"/>
	<path fill="none" stroke="#010101" stroke-width="0.5" stroke-miterlimit="10" d="M75.7,323.9c0,0,16.2,7.2,36,0"/>
</g>
<g id="bodycolor">
	<path fill="#D0DD28" stroke="#010101" stroke-miterlimit="10" d="M80,110.4c0,0-1.6-9.8,3.9-12.2c5.5-2.4,6.8-3.5,6.8-3.5
		s3.5-2.3,7.6,0c0,0,1.2,1.1,6.8,3.5c5.5,2.4,3.9,12.2,3.9,12.2S94.8,123.8,80,110.4z"/>
	<path fill="#FFFFFF" stroke="#010101" stroke-miterlimit="10" d="M109.2,132.7c0,0,12.5,3.5,4.3,16.7c0,0,12.2,10.1,2.8,20.6
		c0,0,12.6,5.1,3.6,16.4c0,0,12.9,5.5,3.3,21.8c0,0,11.4,10.5,1.7,22.6c0,0,14.5,9.7,3.9,21.8c0,0,10.5,10.1,1.9,24.9
		c0,0,5.8,13.2-2.7,18.3c0,0,2.2,10.9-6.3,13.2c0,0,1.6,14.8-8.9,14.8c0,0-3.1,16-18.3,17.1h-0.7c-15.2-1.2-18.3-17.1-18.3-17.1
		c-10.5,0-8.9-14.8-8.9-14.8c-8.5-2.3-6.3-13.2-6.3-13.2c-8.6-5.1-2.7-18.3-2.7-18.3c-8.6-14.8,1.9-24.9,1.9-24.9
		c-10.6-12.1,3.9-21.8,3.9-21.8c-9.7-12.1,1.7-22.6,1.7-22.6c-9.6-16.4,3.3-21.8,3.3-21.8c-9.1-11.3,3.6-16.4,3.6-16.4
		c-9.4-10.5,2.8-20.6,2.8-20.6c-8.2-13.2,4.3-16.7,4.3-16.7S96.2,141.8,109.2,132.7z"/>
	<path fill="#6CBE45" stroke="#010101" stroke-miterlimit="10" d="M108.9,132.7c0,0,12.5,3.5,4.3,16.7c0,0,12.2,10.1,2.8,20.6
		c0,0,12.6,5.1,3.6,16.4c0,0,12.9,5.5,3.3,21.8c0,0,11.4,10.5,1.7,22.6c0,0,14.5,9.7,3.9,21.8c0,0,10.5,10.1,1.9,24.9
		c0,0,5.8,13.2-2.7,18.3c0,0,2.2,10.9-6.3,13.2c0,0,1.6,14.8-8.9,14.8c0,0-3.1,16-18.3,17.1h-0.7c-15.2-1.2-18.3-17.1-18.3-17.1
		c-10.5,0-8.9-14.8-8.9-14.8c-8.5-2.3-6.3-13.2-6.3-13.2c-8.6-5.1-2.7-18.3-2.7-18.3c-8.6-14.8,1.9-24.9,1.9-24.9
		c-10.6-12.1,3.9-21.8,3.9-21.8c-9.7-12.1,1.7-22.6,1.7-22.6c-9.6-16.4,3.3-21.8,3.3-21.8c-9.1-11.3,3.6-16.4,3.6-16.4
		c-9.4-10.5,2.8-20.6,2.8-20.6c-8.2-13.2,4.3-16.7,4.3-16.7S96,141.8,108.9,132.7z"/>
	<path fill="none" stroke="#010101" stroke-width="0.5" stroke-miterlimit="10" d="M74.6,149.4c0,0,20.1,4.1,38.8,0"/>
	<path fill="#D0DD28" stroke="#010101" stroke-miterlimit="10" d="M94.5,150.8c-13.9,0-25.3-9.2-25.3-20.5
		c0-11.3,11.3-20.5,25.3-20.5c13.9,0,25.3,9.2,25.3,20.5C119.8,141.6,108.5,150.8,94.5,150.8z"/>
</g>
<g id="eyes">
	<path fill="#FFFFFF" stroke="#010101" stroke-miterlimit="10" d="M81.8,99.6c0,0,3.5-4.4,6.4-2.4c0,0-0.7,5.5-6.7,3L81.8,99.6z"/>
	<path fill="#FFFFFF" stroke="#010101" stroke-miterlimit="10" d="M107.5,99.6c0,0-3.5-4.4-6.4-2.4c0,0,0.7,5.5,6.6,3L107.5,99.6z"
		/>
</g>
<g id="antennae">
	<path fill="none" stroke="#010101" stroke-width="0.5" stroke-miterlimit="10" d="M100.1,95.6c0,0,5-12.1,12.7-12.1"/>
	<path fill="none" stroke="#010101" stroke-width="0.5" stroke-miterlimit="10" d="M88.7,95.3c0,0-5-11.9-12.7-11.9"/>
</g>
<g id="markings">
	<path fill="#010101" d="M97.7,289.1c1,8.6-2.9,14.2-11.5,13.9c-9-0.3-15.9-4.5-16.4-14c-0.3-7.2-1.2-17.8,7.5-20
		C77.3,269,98.1,273.4,97.7,289.1z"/>
	<path fill="#010101" d="M89.5,200.6c-1,8.6,2.9,14.2,11.5,13.9c9-0.3,15.9-4.5,16.4-14c0.3-7.2,1.2-17.8-7.5-20
		C110,180.5,89.2,184.9,89.5,200.6z"/>
</g>
<g id="dots">
	<path fill="url(#New_Pattern_Swatch_12)" stroke="#010101" stroke-miterlimit="10" d="M90.1,305.9"/>
	<path fill="url(#New_Pattern_Swatch_12)" stroke="#010101" stroke-miterlimit="10" d="M90.2,305.9"/>
	<path fill="url(#New_Pattern_Swatch_12)" stroke="#010101" stroke-miterlimit="10" d="M113.1,149.4c0,0,12.2,10.1,2.8,20.6
		c0,0,12.6,5.1,3.6,16.4c0,0,12.9,5.5,3.3,21.8c0,0,11.4,10.5,1.7,22.6c0,0,14.5,9.7,3.9,21.8c0,0,10.5,10.1,1.9,24.9
		c0,0,5.8,13.2-2.7,18.3c0,0,2.2,10.9-6.3,13.2c0,0,1.6,14.8-8.9,14.8c0,0-3.1,16-18.3,17.1h-0.7C78.1,339.8,75,323.9,75,323.9
		c-10.5,0-8.9-14.8-8.9-14.8c-8.5-2.3-6.3-13.2-6.3-13.2c-8.6-5.1-2.7-18.3-2.7-18.3c-8.6-14.8,1.9-24.9,1.9-24.9
		c-10.6-12.1,3.9-21.8,3.9-21.8c-9.7-12.1,1.7-22.6,1.7-22.6c-9.6-16.4,3.3-21.8,3.3-21.8c-9.1-11.3,3.6-16.4,3.6-16.4
		c-9.4-10.5,2.8-20.6,2.8-20.6l-2.7-9.4c0,0,10.6,11.8,22.4,10.3c11.8-1.5,9.7,1.8,21.9-8C115.8,142.4,114.7,149,113.1,149.4z"/>
	<path fill="url(#New_Pattern_Swatch_12)" stroke="#010101" stroke-miterlimit="10" d="M108.8,132.7"/>
</g>
<g id="fur">
	<g>
		<g>
			<path fill="none" stroke="#010101" stroke-miterlimit="10" d="M79.1,131.5"/>
		</g>
	</g>
	<g>
		<g>
			<path fill="none" stroke="#010101" stroke-miterlimit="10" d="M78.1,131.4"/>
		</g>
	</g>
	<g>
		<g>
			<path fill="none" stroke="#010101" stroke-miterlimit="10" d="M70.7,137.9"/>
		</g>
	</g>
	<g>
		<g>
			<g>
				<g>
					<path fill="none" stroke="#010101" stroke-miterlimit="10" d="M117,147.7c0,0-0.4,1.2-1,2.3c-0.5,1.1-1.1,2.1-1.1,2.1
						s1.2-0.3,2.5-0.5c1.3-0.2,2.6-0.3,2.6-0.3"/>
				</g>
				<g>
					<path fill="none" stroke="#010101" stroke-miterlimit="10" d="M120.5,152.1c0,0-0.7,1-1.4,2c-0.8,1-1.6,1.8-1.6,1.8
						s1.3,0,2.5,0.1c1.3,0.1,2.6,0.5,2.6,0.5"/>
				</g>
				<g>
					<path fill="none" stroke="#010101" stroke-miterlimit="10" d="M122.9,157.4c0,0-0.9,0.8-2,1.5c-1,0.7-2.1,1.2-2.1,1.2
						s1.2,0.4,2.3,0.9c1.2,0.6,2.2,1.4,2.2,1.4"/>
				</g>
				<g>
					<path fill="none" stroke="#010101" stroke-miterlimit="10" d="M123.3,163.4c0,0-1.2,0.4-2.4,0.7c-1.2,0.3-2.4,0.3-2.4,0.3
						s1,0.8,1.8,1.8c0.8,1,1.5,2.1,1.5,2.1"/>
				</g>
				<g>
					<path fill="none" stroke="#010101" stroke-miterlimit="10" d="M122.1,169.4c0,0-0.3,1.2-0.8,2.3c-0.5,1.1-1.1,2.1-1.1,2.1
						s1.2-0.4,2.4-0.6c1.3-0.2,2.6-0.1,2.6-0.1"/>
				</g>
				<g>
					<path fill="none" stroke="#010101" stroke-miterlimit="10" d="M125.7,174c0,0-0.8,1-1.7,1.8c-0.9,0.8-1.9,1.4-1.9,1.4
						c0,0,1.2,0.2,2.4,0.7c1.2,0.5,2.3,1.3,2.3,1.3"/>
				</g>
				<g>
					<path fill="none" stroke="#010101" stroke-miterlimit="10" d="M126.6,180.1c0,0-1.2,0.4-2.4,0.6c-1.2,0.2-2.4,0.3-2.4,0.3
						s1,0.8,1.8,1.7c0.8,1,1.6,2.1,1.6,2.1"/>
				</g>
				<g>
					<path fill="none" stroke="#010101" stroke-miterlimit="10" d="M125.5,185.9c0,0-0.4,1.2-0.9,2.3c-0.5,1.1-1.2,2.1-1.2,2.1
						c0,0,1.2-0.3,2.5-0.4c1.3-0.1,2.6,0.1,2.6,0.1"/>
				</g>
				<g>
					<path fill="none" stroke="#010101" stroke-miterlimit="10" d="M129,190.9c0,0-0.8,1-1.7,1.8c-0.9,0.8-1.9,1.5-1.9,1.5
						s1.2,0.2,2.4,0.7c1.2,0.4,2.4,1.1,2.4,1.1"/>
				</g>
				<g>
					<path fill="none" stroke="#010101" stroke-miterlimit="10" d="M130.3,196.9c0,0-1.1,0.6-2.3,1c-1.1,0.4-2.3,0.7-2.3,0.7
						s1.1,0.7,2.1,1.5c1,0.8,1.9,1.8,1.9,1.8"/>
				</g>
				<g>
					<path fill="none" stroke="#010101" stroke-miterlimit="10" d="M129.5,202.8c0,0-1.2,0.2-2.4,0.3c-1.2,0.1-2.4,0.1-2.4,0.1
						s0.9,0.9,1.7,1.9c0.8,1,1.5,2.1,1.5,2.1"/>
				</g>
				<g>
					<path fill="none" stroke="#010101" stroke-miterlimit="10" d="M127.9,208.2c0,0-0.6,1.1-1.3,2.1c-0.7,1-1.4,2-1.4,2
						c0,0,1.3-0.1,2.5-0.1c1.3,0,2.6,0.2,2.6,0.2"/>
				</g>
				<g>
					<path fill="none" stroke="#010101" stroke-miterlimit="10" d="M130.8,213.2c0,0-0.8,0.9-1.7,1.7c-0.9,0.8-1.9,1.6-1.9,1.6
						s1.2,0.2,2.5,0.6c1.2,0.4,2.5,0.9,2.5,0.9"/>
				</g>
				<g>
					<path fill="none" stroke="#010101" stroke-miterlimit="10" d="M132.2,218.9c0,0-1.1,0.7-2.2,1.2c-1.1,0.5-2.2,0.9-2.2,0.9
						c0,0,1.1,0.6,2.2,1.3c1.1,0.7,2,1.7,2,1.7"/>
				</g>
				<g>
					<path fill="none" stroke="#010101" stroke-miterlimit="10" d="M131.8,224.9c0,0-1.2,0.3-2.4,0.4c-1.2,0.1-2.4,0.1-2.4,0.1
						c0,0,0.9,0.9,1.6,1.9c0.8,1,1.4,2.2,1.4,2.2"/>
				</g>
				<g>
					<path fill="none" stroke="#010101" stroke-miterlimit="10" d="M130.2,230.6c0,0-0.4,1.2-1,2.3c-0.5,1.1-1.1,2.2-1.1,2.2
						s1.2-0.3,2.5-0.4c1.3-0.2,2.6-0.2,2.6-0.2"/>
				</g>
				<g>
					<path fill="none" stroke="#010101" stroke-miterlimit="10" d="M133.8,235.3c0,0-0.7,1-1.5,2c-0.8,0.9-1.7,1.8-1.7,1.8
						s1.3,0,2.5,0.3c1.3,0.2,2.5,0.7,2.5,0.7"/>
				</g>
				<g>
					<path fill="none" stroke="#010101" stroke-miterlimit="10" d="M135.9,241c0,0-1,0.8-2.1,1.4c-1.1,0.6-2.2,1-2.2,1
						c0,0,1.1,0.5,2.2,1.2c1.1,0.7,2.1,1.7,2.1,1.7"/>
				</g>
				<g>
					<path fill="none" stroke="#010101" stroke-miterlimit="10" d="M135.7,247.3c0,0-1.2,0.3-2.5,0.4c-1.2,0.1-2.4,0.1-2.4,0.1
						c0,0,0.8,0.9,1.6,2c0.7,1.1,1.3,2.3,1.3,2.3"/>
				</g>
				<g>
					<path fill="none" stroke="#010101" stroke-miterlimit="10" d="M133.8,253.2c0,0-0.6,1.1-1.3,2.1c-0.7,1-1.5,2-1.5,2
						s1.3,0.1,2.6,0.3c1.3,0.2,2.6,0.6,2.6,0.6"/>
				</g>
				<g>
					<path fill="none" stroke="#010101" stroke-miterlimit="10" d="M136.5,259.2c0,0-0.9,0.9-1.9,1.7c-1,0.8-2,1.5-2,1.5
						s1.2,0.4,2.4,1c1.2,0.6,2.4,1.3,2.4,1.3"/>
				</g>
				<g>
					<path fill="none" stroke="#010101" stroke-miterlimit="10" d="M137.6,265.7c0,0-1.1,0.6-2.3,1.1c-1.1,0.5-2.3,0.9-2.3,0.9
						s1.1,0.7,2.1,1.6c1,0.9,1.9,1.9,1.9,1.9"/>
				</g>
				<g>
					<path fill="none" stroke="#010101" stroke-miterlimit="10" d="M136.8,272.2c0,0-1.2,0.3-2.5,0.5c-1.2,0.2-2.5,0.3-2.5,0.3
						c0,0,0.8,1,1.6,2.1c0.8,1.1,1.4,2.3,1.4,2.3"/>
				</g>
				<g>
					<path fill="none" stroke="#010101" stroke-miterlimit="10" d="M134.8,278.5c0,0-0.9,0.9-1.8,1.7c-0.9,0.8-1.9,1.6-1.9,1.6
						s1.3,0.4,2.5,0.9c1.2,0.5,2.5,1.2,2.5,1.2"/>
				</g>
				<g>
					<path fill="none" stroke="#010101" stroke-miterlimit="10" d="M136.1,284.9c0,0-1.1,0.7-2.2,1.3c-1.1,0.6-2.3,1-2.3,1
						s1.1,0.7,2.1,1.5c1,0.9,1.9,2,1.9,2"/>
				</g>
				<g>
					<path fill="none" stroke="#010101" stroke-miterlimit="10" d="M135.5,291.9c0,0-1.3,0.3-2.5,0.4c-1.3,0.1-2.5-0.1-2.5-0.1
						s0.7,1,1.2,2.3c0.5,1.3,0.6,2.7,0.6,2.7"/>
				</g>
				<g>
					<path fill="none" stroke="#010101" stroke-miterlimit="10" d="M131.8,298.5c0,0-1.1,0.7-2.3,1.3c-1.2,0.6-2.3,0.9-2.3,0.9
						s1,0.8,2,1.9c0.9,1,1.7,2.3,1.7,2.3"/>
				</g>
				<g>
					<path fill="none" stroke="#010101" stroke-miterlimit="10" d="M130.4,306c0,0-1.3,0.2-2.6,0.2c-1.3,0-2.5-0.3-2.5-0.3
						c0,0,0.5,1.2,0.7,2.6c0.2,1.4,0,2.9,0,2.9"/>
				</g>
				<g>
					<path fill="none" stroke="#010101" stroke-miterlimit="10" d="M125.3,312.4c0,0-1.1,0.5-2.3,0.9c-1.2,0.4-2.3,0.7-2.3,0.7
						s1.1,0.7,2,1.6c1,0.8,1.9,1.9,1.9,1.9"/>
				</g>
				<g>
					<path fill="none" stroke="#010101" stroke-miterlimit="10" d="M124.3,318.5c0,0-1.2,0.2-2.5,0.3c-1.2,0.1-2.4,0-2.4,0
						s0.8,1,1.4,2.1c0.6,1.1,1,2.5,1,2.5"/>
				</g>
				<g>
					<path fill="none" stroke="#010101" stroke-miterlimit="10" d="M121.1,324.3c0,0-1.3-0.3-2.4-0.8c-1.1-0.5-2.1-1.2-2.1-1.2
						c0,0,0.2,1.2,0.1,2.5c-0.1,1.3-0.6,2.6-0.6,2.6"/>
				</g>
				<g>
					<path fill="none" stroke="#010101" stroke-miterlimit="10" d="M115.2,328.2c0,0-1.3,0.1-2.5,0.2c-1.2,0.1-2.5,0-2.5,0
						s0.8,1.1,1.4,2.2c0.7,1.1,1.3,2.4,1.3,2.4"/>
				</g>
				<g>
					<path fill="none" stroke="#010101" stroke-miterlimit="10" d="M112.3,334c0,0-1.3-0.1-2.5-0.3c-1.2-0.2-2.4-0.5-2.4-0.5
						c0,0,0.5,1.2,0.9,2.5c0.4,1.3,0.7,2.6,0.7,2.6"/>
				</g>
				<g>
					<path fill="none" stroke="#010101" stroke-miterlimit="10" d="M108.2,339c0,0-1.2-0.4-2.3-0.9c-1.1-0.5-2.2-1.1-2.2-1.1
						s0.2,1.3,0.2,2.6c0,1.3-0.1,2.7-0.1,2.7"/>
				</g>
				<g>
					<path fill="none" stroke="#010101" stroke-miterlimit="10" d="M102.8,342.8c0,0-1-0.7-2-1.6c-0.9-0.8-1.8-1.7-1.8-1.7
						c0,0-0.2,1.3-0.6,2.6c-0.4,1.3-0.9,2.6-0.9,2.6"/>
				</g>
				<g>
					<path fill="none" stroke="#010101" stroke-miterlimit="10" d="M96.5,344.8c0,0-0.8-1-1.4-2.1c-0.7-1.1-1.2-2.2-1.2-2.2
						c0,0-0.2,0.3-0.4,0.7c-0.1,0.2-0.2,0.5-0.4,0.7c-0.2,0.2-0.4,0.5-0.6,0.8c-0.8,1-1.8,2-1.8,2"/>
				</g>
				<g>
					<path fill="none" stroke="#010101" stroke-miterlimit="10" d="M89.7,344.6c0,0-0.4-1.2-0.6-2.5c-0.2-1.2-0.3-2.4-0.3-2.4
						s-0.9,0.9-2,1.7c-1.1,0.8-2.3,1.4-2.3,1.4"/>
				</g>
				<g>
					<path fill="none" stroke="#010101" stroke-miterlimit="10" d="M83.5,342.3c0,0,0-1.3,0.2-2.5c0.1-1.2,0.4-2.4,0.4-2.4
						s-1.2,0.6-2.4,1c-1.3,0.4-2.6,0.7-2.6,0.7"/>
				</g>
				<g>
					<path fill="none" stroke="#010101" stroke-miterlimit="10" d="M78.3,338.2c0,0,0.4-1.2,0.9-2.4c0.5-1.2,1.1-2.2,1.1-2.2
						s-1.3,0.2-2.6,0.3c-1.3,0.1-2.7,0-2.7,0"/>
				</g>
				<g>
					<path fill="none" stroke="#010101" stroke-miterlimit="10" d="M74.4,333.1c0,0,0.7-1.1,1.4-2.1c0.7-1,1.5-1.9,1.5-1.9
						s-1.3-0.1-2.6-0.3c-1.3-0.2-2.6-0.5-2.6-0.5"/>
				</g>
				<g>
					<path fill="none" stroke="#010101" stroke-miterlimit="10" d="M71.2,327.4c0,0-0.3-1.3-0.3-2.5c0-1.2,0.2-2.4,0.2-2.4
						c0,0-1,0.7-2.3,1.2c-1.2,0.5-2.7,0.6-2.7,0.6"/>
				</g>
				<g>
					<path fill="none" stroke="#010101" stroke-miterlimit="10" d="M65.4,323.4c0,0,0.5-1.2,1.2-2.2c0.7-1,1.5-1.9,1.5-1.9
						s-1.3,0-2.6-0.2c-1.3-0.2-2.6-0.6-2.6-0.6"/>
				</g>
				<g>
					<path fill="none" stroke="#010101" stroke-miterlimit="10" d="M62.7,317.5c0,0,1-0.8,2-1.5c1-0.7,2.1-1.3,2.1-1.3
						s-1.2-0.4-2.4-1c-1.2-0.6-2.3-1.2-2.3-1.2"/>
				</g>
				<g>
					<path fill="none" stroke="#010101" stroke-miterlimit="10" d="M61.3,311.3c0,0,0-1.4,0.3-2.6c0.3-1.3,0.8-2.4,0.8-2.4
						c0,0-1.3,0.3-2.7,0.2c-1.4-0.1-2.8-0.5-2.8-0.5"/>
				</g>
				<g>
					<path fill="none" stroke="#010101" stroke-miterlimit="10" d="M56.4,304.8c0,0,0.8-1,1.8-1.9c0.9-0.9,2-1.5,2-1.5
						c0,0-1.2-0.5-2.4-1.2c-1.2-0.7-2.3-1.7-2.3-1.7"/>
				</g>
				<g>
					<path fill="none" stroke="#010101" stroke-miterlimit="10" d="M55,297.2c0,0,0.3-1.3,0.9-2.4c0.5-1.1,1.3-2.1,1.3-2.1
						c0,0-1.3,0.1-2.6-0.1c-1.3-0.2-2.7-0.7-2.7-0.7"/>
				</g>
				<g>
					<path fill="none" stroke="#010101" stroke-miterlimit="10" d="M51.5,290.7c0,0,1-0.9,2-1.6c1-0.7,2.1-1.3,2.1-1.3
						s-1.2-0.5-2.3-1.3c-1.1-0.7-2.2-1.6-2.2-1.6"/>
				</g>
				<g>
					<path fill="none" stroke="#010101" stroke-miterlimit="10" d="M51.3,283.8c0,0,1.2-0.5,2.4-0.8c1.2-0.4,2.4-0.6,2.4-0.6
						s-1-0.9-1.9-1.9c-0.9-1-1.7-2.1-1.7-2.1"/>
				</g>
				<g>
					<path fill="none" stroke="#010101" stroke-miterlimit="10" d="M52.4,277.3c0,0,0.8-1,1.6-2c0.8-0.9,1.7-1.8,1.7-1.8
						c0,0-1.3-0.2-2.6-0.5c-1.3-0.3-2.6-0.8-2.6-0.8"/>
				</g>
				<g>
					<path fill="none" stroke="#010101" stroke-miterlimit="10" d="M50.2,271.2c0,0,1-0.8,2-1.5c1-0.7,2.1-1.3,2.1-1.3
						c0,0-1.2-0.5-2.4-1.2c-1.2-0.7-2.3-1.5-2.3-1.5"/>
				</g>
				<g>
					<path fill="none" stroke="#010101" stroke-miterlimit="10" d="M49.7,264.6c0,0,1.2-0.5,2.3-0.9c1.2-0.4,2.4-0.7,2.4-0.7
						c0,0-1-0.8-1.9-1.8c-0.9-1-1.8-2.1-1.8-2.1"/>
				</g>
				<g>
					<path fill="none" stroke="#010101" stroke-miterlimit="10" d="M51.1,258.1c0,0,1.3-0.2,2.5-0.2c1.2-0.1,2.5,0,2.5,0
						s-0.7-1.1-1.4-2.2c-0.6-1.2-1.2-2.4-1.2-2.4"/>
				</g>
				<g>
					<path fill="none" stroke="#010101" stroke-miterlimit="10" d="M53.5,252c0,0,0.7-1.1,1.5-2c0.8-1,1.6-1.8,1.6-1.8
						s-1.3,0-2.5-0.3c-1.3-0.2-2.6-0.7-2.6-0.7"/>
				</g>
				<g>
					<path fill="none" stroke="#010101" stroke-miterlimit="10" d="M51.3,246.3c0,0,1-0.8,2.1-1.4c1.1-0.6,2.2-1,2.2-1
						c0,0-1.1-0.5-2.2-1.2c-1.1-0.7-2.1-1.7-2.1-1.7"/>
				</g>
				<g>
					<path fill="none" stroke="#010101" stroke-miterlimit="10" d="M51.5,240c0,0,1.2-0.3,2.5-0.4c1.2-0.1,2.4-0.1,2.4-0.1
						s-0.9-0.9-1.6-2c-0.7-1.1-1.3-2.3-1.3-2.3"/>
				</g>
				<g>
					<path fill="none" stroke="#010101" stroke-miterlimit="10" d="M54,234.4c0,0,1.2,0.2,2.4,0.4c1.2,0.3,2.3,0.6,2.3,0.6
						s-0.5-1.1-1-2.4c-0.4-1.2-0.7-2.5-0.7-2.5"/>
				</g>
				<g>
					<path fill="none" stroke="#010101" stroke-miterlimit="10" d="M57.2,229.5c0,0,0.7-1,1.6-1.9c0.8-0.9,1.7-1.7,1.7-1.7
						c0,0-1.3-0.1-2.5-0.3c-1.3-0.2-2.5-0.7-2.5-0.7"/>
				</g>
				<g>
					<path fill="none" stroke="#010101" stroke-miterlimit="10" d="M55.2,223.9c0,0,1-0.7,2.1-1.3c1.1-0.6,2.2-1.1,2.2-1.1
						c0,0-1.2-0.5-2.3-1.1c-1.1-0.6-2.2-1.5-2.2-1.5"/>
				</g>
				<g>
					<path fill="none" stroke="#010101" stroke-miterlimit="10" d="M55.2,218c0,0,1.2-0.4,2.4-0.6c1.2-0.2,2.4-0.3,2.4-0.3
						s-1-0.8-1.8-1.8c-0.9-1-1.6-2-1.6-2"/>
				</g>
				<g>
					<path fill="none" stroke="#010101" stroke-miterlimit="10" d="M56.9,212.4c0,0,1.2,0,2.5,0.1c1.2,0.1,2.4,0.3,2.4,0.3
						c0,0-0.7-1-1.3-2.2c-0.6-1.1-1.1-2.4-1.1-2.4"/>
				</g>
				<g>
					<path fill="none" stroke="#010101" stroke-miterlimit="10" d="M59.4,207.2c0,0,0.8-0.9,1.7-1.8c0.8-0.9,1.7-1.7,1.7-1.7
						s-1.3-0.1-2.5-0.4c-1.3-0.2-2.5-0.6-2.5-0.6"/>
				</g>
				<g>
					<path fill="none" stroke="#010101" stroke-miterlimit="10" d="M57.5,201.8c0,0,1-0.8,2-1.4c1-0.7,2.1-1.2,2.1-1.2
						c0,0-1.2-0.4-2.4-1c-1.2-0.6-2.3-1.3-2.3-1.3"/>
				</g>
				<g>
					<path fill="none" stroke="#010101" stroke-miterlimit="10" d="M57,195.9c0,0,1.2-0.5,2.4-0.8c1.2-0.3,2.4-0.5,2.4-0.5
						s-1-0.8-1.9-1.7c-0.4-0.5-0.8-1-1.1-1.4c-0.3-0.4-0.5-0.7-0.5-0.7"/>
				</g>
				<g>
					<path fill="none" stroke="#010101" stroke-miterlimit="10" d="M58.7,190c0,0,1.3,0,2.5,0.2c1.2,0.2,2.4,0.5,2.4,0.5
						c0,0-0.6-1.1-1-2.3c-0.4-1.2-0.7-2.5-0.7-2.5"/>
				</g>
				<g>
					<path fill="none" stroke="#010101" stroke-miterlimit="10" d="M62,184.8c0,0,0.8-1,1.7-1.8c0.9-0.8,1.8-1.5,1.8-1.5
						c0,0-1.2-0.1-2.5-0.4c-1.2-0.3-2.4-0.9-2.4-0.9"/>
				</g>
				<g>
					<path fill="none" stroke="#010101" stroke-miterlimit="10" d="M60.6,179.1c0,0,1.1-0.6,2.3-1c1.2-0.4,2.3-0.5,2.3-0.5
						s-1-0.6-1.9-1.6c-0.9-0.9-1.6-2.1-1.6-2.1"/>
				</g>
				<g>
					<path fill="none" stroke="#010101" stroke-miterlimit="10" d="M62,173.1c0,0,1.3,0.1,2.4,0.3c1.2,0.3,2.3,0.7,2.3,0.7
						c0,0-0.6-1.1-1-2.3c-0.4-1.2-0.6-2.5-0.6-2.5"/>
				</g>
				<g>
					<path fill="none" stroke="#010101" stroke-miterlimit="10" d="M65.4,168.3c0,0,0.8-1,1.7-1.8c0.9-0.9,1.8-1.6,1.8-1.6
						s-1.2-0.1-2.5-0.5c-1.2-0.4-2.4-1-2.4-1"/>
				</g>
				<g>
					<path fill="none" stroke="#010101" stroke-miterlimit="10" d="M63.9,162.4c0,0,1.1-0.6,2.2-1.1c1.1-0.5,2.3-0.7,2.3-0.7
						c0,0-1.1-0.6-2.1-1.4c-1-0.8-1.9-1.8-1.9-1.8"/>
				</g>
				<g>
					<path fill="none" stroke="#010101" stroke-miterlimit="10" d="M64.7,156.5c0,0,1.2-0.2,2.5-0.2c1.2,0,2.4,0.1,2.4,0.1
						s-0.8-1-1.5-2.1c-0.7-1.1-1.3-2.3-1.3-2.3"/>
				</g>
				<g>
					<path fill="none" stroke="#010101" stroke-miterlimit="10" d="M67.3,151.3c0,0,1.2,0.2,2.4,0.5c1.2,0.3,2.3,0.7,2.3,0.7
						s-0.5-1.1-1-2.4c-0.4-1.2-0.8-2.5-0.8-2.5"/>
				</g>
			</g>
		</g>
	</g>
	<g>
		<g>
			<path fill="none" stroke="#010101" stroke-miterlimit="10" d="M116.6,137.9"/>
		</g>
	</g>
	<g>
		<g>
		</g>
	</g>
	<g>
		<g>
			<g>
				<g>
					<path fill="none" stroke="#010101" stroke-miterlimit="10" d="M93.9,155.4c0,0-0.5-1.1-1-2.3c-0.5-1.1-0.9-2.3-0.9-2.3
						s-0.2,0.3-0.5,0.7c-0.3,0.4-0.7,0.9-1.1,1.4c-0.8,1-1.7,2.1-1.7,2.1"/>
				</g>
				<g>
					<path fill="none" stroke="#010101" stroke-miterlimit="10" d="M87.9,154.8c0,0-0.3-1.2-0.6-2.4c-0.3-1.2-0.5-2.4-0.5-2.4
						s-0.2,0.2-0.6,0.6c-0.3,0.3-0.8,0.8-1.3,1.2c-1,0.9-2,1.7-2,1.7"/>
				</g>
				<g>
					<path fill="none" stroke="#010101" stroke-miterlimit="10" d="M82.1,153.3c0,0-0.1-1.3-0.2-2.5c-0.1-1.2,0-2.4,0-2.4
						s-0.3,0.2-0.7,0.5c-0.4,0.3-0.9,0.6-1.5,1c-1.1,0.7-2.3,1.4-2.3,1.4"/>
				</g>
				<g>
					<path fill="none" stroke="#010101" stroke-miterlimit="10" d="M76.6,150.6c0,0,0.1-1.3,0.3-2.5c0.1-0.6,0.2-1.2,0.3-1.6
						c0.1-0.5,0.2-0.8,0.2-0.8c0,0-1.1,0.6-2.4,1c-0.6,0.2-1.3,0.5-1.7,0.6c-0.5,0.1-0.8,0.2-0.8,0.2"/>
				</g>
				<g>
					<path fill="none" stroke="#010101" stroke-miterlimit="10" d="M71.7,147c0,0,0.4-1.2,0.8-2.3c0.4-1.2,1-2.3,1-2.3
						s-1.2,0.3-2.6,0.5c-1.3,0.2-2.6,0.2-2.6,0.2"/>
				</g>
				<g>
					<path fill="none" stroke="#010101" stroke-miterlimit="10" d="M67.7,142.3c0,0,0.2-0.3,0.4-0.7c0.2-0.4,0.6-0.9,0.9-1.5
						c0.7-1,1.5-2,1.5-2s-1.3,0-2.6-0.1c-1.3-0.1-2.6-0.4-2.6-0.4"/>
				</g>
				<g>
					<path fill="none" stroke="#010101" stroke-miterlimit="10" d="M64.9,136.7c0,0,0.9-0.9,1.8-1.7c0.5-0.4,0.9-0.8,1.3-1.1
						c0.4-0.3,0.6-0.4,0.6-0.4s-1.2-0.3-2.4-0.8c-0.6-0.2-1.3-0.5-1.7-0.7c-0.4-0.2-0.7-0.4-0.7-0.4"/>
				</g>
				<g>
					<path fill="none" stroke="#010101" stroke-miterlimit="10" d="M63.7,130.5c0,0,1.1-0.6,2.2-1.1c1.2-0.5,2.3-0.9,2.3-0.9
						s-1.1-0.7-2.2-1.5c-1-0.8-2-1.8-2-1.8"/>
				</g>
				<g>
					<path fill="none" stroke="#010101" stroke-miterlimit="10" d="M64.3,124.2c0,0,0.3-0.1,0.8-0.2c0.5-0.1,1.1-0.2,1.7-0.3
						c1.2-0.2,2.4-0.2,2.4-0.2s-0.2-0.2-0.5-0.6c-0.3-0.4-0.7-0.9-1.1-1.4c-0.8-1.1-1.5-2.3-1.5-2.3"/>
				</g>
				<g>
					<path fill="none" stroke="#010101" stroke-miterlimit="10" d="M66.6,118.4c0,0,1.3,0.1,2.5,0.2c1.2,0.1,2.4,0.4,2.4,0.4
						c0,0-0.6-1.1-1.1-2.4c-0.2-0.6-0.5-1.3-0.6-1.7c-0.1-0.5-0.2-0.8-0.2-0.8"/>
				</g>
				<g>
					<path fill="none" stroke="#010101" stroke-miterlimit="10" d="M70.3,113.4c0,0,0.3,0.1,0.7,0.2c0.4,0.1,1,0.3,1.6,0.6
						c1.2,0.5,2.3,1,2.3,1s-0.3-1.3-0.5-2.6c-0.2-1.3-0.3-2.6-0.3-2.6"/>
				</g>
				<g>
					<path fill="none" stroke="#010101" stroke-miterlimit="10" d="M74.9,109.4c0,0,0.3,0.2,0.7,0.4c0.4,0.2,0.9,0.6,1.5,0.9
						c1,0.7,2,1.4,2,1.4s-0.1-1.3,0-2.6c0.1-1.3,0.2-2.6,0.2-2.6"/>
				</g>
				<g>
					<path fill="none" stroke="#010101" stroke-miterlimit="10" d="M80.2,106.4c0,0,1,0.8,1.9,1.7c0.9,0.9,1.7,1.7,1.7,1.7
						s0.1-0.3,0.1-0.8c0.1-0.5,0.2-1.1,0.4-1.7c0.3-1.3,0.7-2.6,0.7-2.6"/>
				</g>
				<g>
					<path fill="none" stroke="#010101" stroke-miterlimit="10" d="M86,104.5c0,0,0.8,1,1.5,2c0.7,1,1.4,2,1.4,2s0.1-0.3,0.3-0.8
						c0.2-0.4,0.4-1,0.7-1.6c0.5-1.2,1.1-2.4,1.1-2.4"/>
				</g>
				<g>
					<path fill="none" stroke="#010101" stroke-miterlimit="10" d="M91.9,103.6c0,0,0.6,1.1,1.2,2.2c0.6,1.1,1,2.2,1,2.2
						s0.2-0.3,0.4-0.7c0.2-0.4,0.6-1,0.9-1.5c0.7-1.1,1.5-2.2,1.5-2.2"/>
				</g>
				<g>
					<path fill="none" stroke="#010101" stroke-miterlimit="10" d="M97.9,103.7c0,0,0.4,1.2,0.8,2.4c0.4,1.2,0.7,2.4,0.7,2.4
						s0.2-0.3,0.5-0.6c0.3-0.4,0.7-0.9,1.2-1.3c0.9-1,1.9-1.9,1.9-1.9"/>
				</g>
				<g>
					<path fill="none" stroke="#010101" stroke-miterlimit="10" d="M103.8,104.7c0,0,0.2,1.2,0.4,2.5c0.2,1.2,0.2,2.4,0.2,2.4
						s0.2-0.2,0.6-0.5c0.4-0.3,0.9-0.7,1.4-1.1c1-0.8,2.2-1.6,2.2-1.6"/>
				</g>
				<g>
					<path fill="none" stroke="#010101" stroke-miterlimit="10" d="M109.5,106.8c0,0,0,1.3-0.1,2.5c-0.1,1.2-0.2,2.4-0.2,2.4
						s1.1-0.7,2.3-1.2c0.6-0.3,1.2-0.6,1.7-0.8c0.5-0.2,0.8-0.3,0.8-0.3"/>
				</g>
				<g>
					<path fill="none" stroke="#010101" stroke-miterlimit="10" d="M114.7,110c0,0-0.2,1.2-0.5,2.4c-0.1,0.6-0.3,1.2-0.5,1.6
						c-0.1,0.4-0.2,0.7-0.2,0.7s1.2-0.4,2.5-0.8c0.6-0.2,1.3-0.3,1.8-0.4c0.5-0.1,0.8-0.1,0.8-0.1"/>
				</g>
				<g>
					<path fill="none" stroke="#010101" stroke-miterlimit="10" d="M119.2,114.1c0,0-0.1,0.3-0.3,0.7c-0.2,0.4-0.4,1-0.7,1.5
						c-0.6,1.1-1.2,2.1-1.2,2.1s0.3,0,0.8-0.1c0.5,0,1.2-0.1,1.8-0.1c1.3,0,2.7,0.1,2.7,0.1"/>
				</g>
				<g>
					<path fill="none" stroke="#010101" stroke-miterlimit="10" d="M122.7,119.3c0,0-0.8,1-1.6,2c-0.8,0.9-1.7,1.8-1.7,1.8
						s0.3,0,0.8,0.1c0.5,0.1,1.1,0.2,1.7,0.4c0.6,0.2,1.3,0.3,1.8,0.5c0.5,0.2,0.8,0.3,0.8,0.3"/>
				</g>
				<g>
					<path fill="none" stroke="#010101" stroke-miterlimit="10" d="M124.8,125.3c0,0-1,0.8-2,1.4c-0.5,0.3-1,0.6-1.5,0.9
						c-0.4,0.2-0.7,0.4-0.7,0.4c0,0,1.2,0.5,2.3,1.2c0.6,0.3,1.1,0.7,1.5,1c0.4,0.3,0.7,0.5,0.7,0.5"/>
				</g>
				<g>
					<path fill="none" stroke="#010101" stroke-miterlimit="10" d="M125.1,131.6c0,0-1.1,0.5-2.4,0.8c-1.2,0.3-2.4,0.6-2.4,0.6
						s0.2,0.2,0.6,0.5c0.4,0.3,0.9,0.8,1.3,1.2c0.9,0.9,1.7,2,1.7,2"/>
				</g>
				<g>
					<path fill="none" stroke="#010101" stroke-miterlimit="10" d="M123.6,137.7c0,0-1.3,0.1-2.5,0.1c-1.2,0-2.4-0.1-2.4-0.1
						c0,0,0.7,1,1.3,2.2c0.3,0.6,0.6,1.2,0.8,1.7c0.2,0.5,0.3,0.8,0.3,0.8"/>
				</g>
				<g>
					<path fill="none" stroke="#010101" stroke-miterlimit="10" d="M120.5,143.1c0,0-1.2-0.2-2.4-0.5c-1.2-0.3-2.4-0.7-2.4-0.7
						s0.4,1.2,0.8,2.5c0.3,1.3,0.5,2.6,0.5,2.6"/>
				</g>
				<g>
					<path fill="none" stroke="#010101" stroke-miterlimit="10" d="M116.3,147.7c0,0-1.1-0.5-2.3-1.1c-1.1-0.6-2.2-1.2-2.2-1.2
						s0,0.3,0.1,0.8c0.1,0.5,0.1,1.2,0.1,1.8c0.1,1.3,0,2.7,0,2.7"/>
				</g>
				<g>
					<path fill="none" stroke="#010101" stroke-miterlimit="10" d="M111.3,151.2c0,0-1-0.7-2-1.5c-1-0.8-1.9-1.6-1.9-1.6
						c0,0,0,0.3-0.1,0.8c0,0.5-0.1,1.1-0.2,1.8c-0.2,1.3-0.5,2.6-0.5,2.6"/>
				</g>
				<g>
					<path fill="none" stroke="#010101" stroke-miterlimit="10" d="M105.8,153.6c0,0-0.9-0.9-1.7-1.8c-0.8-0.9-1.6-1.9-1.6-1.9
						c0,0-0.1,0.3-0.2,0.8c-0.1,0.5-0.3,1.1-0.5,1.7c-0.4,1.2-0.9,2.5-0.9,2.5"/>
				</g>
				<g>
					<path fill="none" stroke="#010101" stroke-miterlimit="10" d="M99.9,155c0,0-0.7-1-1.3-2.1c-0.6-1.1-1.2-2.1-1.2-2.1
						s-0.1,0.3-0.3,0.7c-0.2,0.4-0.5,1-0.8,1.6c-0.6,1.2-1.3,2.3-1.3,2.3"/>
				</g>
			</g>
		</g>
	</g>
</g>
<g id="leaf">
	<g>
		<path fill="#A8CF38" stroke="#010101" stroke-width="0.5" stroke-linecap="round" stroke-linejoin="round" d="M90.4,79.1
			c0,0-8.6-15-7.4-22.4l2.1,0.7c0,0-1.8-2.2,0.2-11.3l1.7,1.5c0,0-1.5-4.5,1.4-10.4l1.7,1.5c0,0,0.8-4.1,2.5-8.3l1.9,1.2
			c0,0-0.4-5,1.3-8.5l1.7,1.5c0,0,0.7-6.3,4.1-7.5l0.5,1.5c0,0,2.3-3.9,5.8-6l1.6,1.7c0,0-0.1-3.9,4.3-5.5l0.9,1.4
			c0,0,0.5-5.2,4.6-6l1.2,2.5c0,0,7.1-6.6,8.7-6.8l2.6,1.3c0.3,1.2-0.1,11-0.1,11l2.7-0.6c1.8,3.8-2,7.3-2,7.3l1.7-0.1
			c1.5,4.5-1.7,6.8-1.7,6.8l2.4,0.2c0.5,4-1.2,8.3-1.2,8.3l1.5-0.5c1.2,3.4-3.4,7.8-3.4,7.8l2.2,0.5c-1.8,3.6-6,6.3-6,6.3l2.1,0.7
			c-2.3,3.9-5.1,7-5.1,7l2.2,0.5c-2.9,5.9-7.4,7.5-7.4,7.5l2.2,0.5c-6,7.2-8.8,7.1-8.8,7.1l1.9,1.2c-5.1,5.4-22.3,7.7-22.3,7.7
			L90.4,79.1z"/>
		<path fill="#A8CF38" stroke="#010101" stroke-width="0.5" stroke-linecap="round" stroke-linejoin="round" d="M91.9,79.8
			c0,0-8.6-15-7.4-22.4l2.1,0.7c0,0-1.8-2.2,0.2-11.3l1.7,1.5c0,0-1.5-4.5,1.4-10.4l1.7,1.5c0,0,0.8-4.1,2.5-8.3l1.9,1.2
			c0,0-0.4-5,1.3-8.5l1.7,1.5c0,0,0.7-6.3,4.1-7.5l0.5,1.5c0,0,2.3-3.9,5.8-6l1.6,1.7c0,0-0.1-3.9,4.3-5.5l0.9,1.4
			c0,0,0.5-5.2,4.6-6l1.2,2.5c0,0,7.1-6.6,8.7-6.8l2.6,1.3c0.3,1.2-0.1,11-0.1,11l2.7-0.6c1.8,3.8-2,7.3-2,7.3l1.7-0.1
			c1.5,4.5-1.7,6.8-1.7,6.8l2.4,0.2c0.5,4-1.2,8.3-1.2,8.3l1.5-0.5c1.2,3.4-3.4,7.8-3.4,7.8l2.2,0.5c-1.8,3.6-6,6.3-6,6.3l2.1,0.7
			c-2.3,3.9-5.1,7-5.1,7l2.2,0.5c-2.9,5.9-7.4,7.5-7.4,7.5l2.2,0.5c-6,7.2-8.8,7.1-8.8,7.1l1.9,1.2c-5.1,5.4-22.3,7.7-22.3,7.7
			L91.9,79.8z"/>
		
			<line fill="none" stroke="#010101" stroke-width="0.5" stroke-linecap="round" stroke-linejoin="round" x1="131.4" y1="2" x2="92.8" y2="80.3"/>
		<g>
			
				<line fill="none" stroke="#010101" stroke-width="0.5" stroke-linecap="round" stroke-linejoin="round" x1="122.2" y1="6.3" x2="123.6" y2="12.8"/>
			
				<line fill="none" stroke="#010101" stroke-width="0.5" stroke-linecap="round" stroke-linejoin="round" x1="116.4" y1="11.1" x2="120.1" y2="18.7"/>
			
				<line fill="none" stroke="#010101" stroke-width="0.5" stroke-linecap="round" stroke-linejoin="round" x1="111.4" y1="14.8" x2="116.5" y2="24.6"/>
			
				<line fill="none" stroke="#010101" stroke-width="0.5" stroke-linecap="round" stroke-linejoin="round" x1="103.4" y1="19" x2="111.8" y2="30.7"/>
			
				<line fill="none" stroke="#010101" stroke-width="0.5" stroke-linecap="round" stroke-linejoin="round" x1="99.5" y1="24.9" x2="109.8" y2="37.4"/>
			
				<line fill="none" stroke="#010101" stroke-width="0.5" stroke-linecap="round" stroke-linejoin="round" x1="95.6" y1="32.2" x2="106" y2="43.6"/>
			
				<line fill="none" stroke="#010101" stroke-width="0.5" stroke-linecap="round" stroke-linejoin="round" x1="91.6" y1="38.7" x2="100.6" y2="50.8"/>
			
				<line fill="none" stroke="#010101" stroke-width="0.5" stroke-linecap="round" stroke-linejoin="round" x1="88.4" y1="47.9" x2="98.9" y2="61.2"/>
			
				<line fill="none" stroke="#010101" stroke-width="0.5" stroke-linecap="round" stroke-linejoin="round" x1="86.5" y1="57.7" x2="95" y2="71.8"/>
		</g>
		<g>
			
				<line fill="none" stroke="#010101" stroke-width="0.5" stroke-linecap="round" stroke-linejoin="round" x1="134.5" y1="12.4" x2="128.5" y2="15.2"/>
			
				<line fill="none" stroke="#010101" stroke-width="0.5" stroke-linecap="round" stroke-linejoin="round" x1="134.2" y1="19.9" x2="125.9" y2="21.6"/>
			
				<line fill="none" stroke="#010101" stroke-width="0.5" stroke-linecap="round" stroke-linejoin="round" x1="134.4" y1="26.2" x2="123.5" y2="28.1"/>
			
				<line fill="none" stroke="#010101" stroke-width="0.5" stroke-linecap="round" stroke-linejoin="round" x1="135.9" y1="35" x2="121.5" y2="35.5"/>
			
				<line fill="none" stroke="#010101" stroke-width="0.5" stroke-linecap="round" stroke-linejoin="round" x1="133.6" y1="41.7" x2="117.4" y2="41.1"/>
			
				<line fill="none" stroke="#010101" stroke-width="0.5" stroke-linecap="round" stroke-linejoin="round" x1="130.2" y1="49.3" x2="114.8" y2="47.9"/>
			
				<line fill="none" stroke="#010101" stroke-width="0.5" stroke-linecap="round" stroke-linejoin="round" x1="127.4" y1="56.4" x2="112.4" y2="56.6"/>
			
				<line fill="none" stroke="#010101" stroke-width="0.5" stroke-linecap="round" stroke-linejoin="round" x1="122.1" y1="64.6" x2="105.1" y2="64.2"/>
			
				<line fill="none" stroke="#010101" stroke-width="0.5" stroke-linecap="round" stroke-linejoin="round" x1="115.5" y1="72" x2="99.1" y2="73.8"/>
		</g>
		<path fill="#FFFFFF" stroke="#010101" stroke-width="0.5" stroke-linecap="round" stroke-linejoin="round" d="M137.9,27.3
			c0,0-5.7,1.5-4.2,4.5c0,0-7,1-3.7,6.5c0,0,1.7,3.7,4.7,2.3c0,0-1.9,3,1,2.5c2.9-0.6,2.2-0.7,2.2-0.7"/>
		<path fill="#FFFFFF" stroke="#010101" stroke-width="0.5" stroke-miterlimit="10" d="M100.6,34.9c-0.2,1.3-1,2.4-1.5,3.6
			c1.5,1.2,3.4-1.3,4.1-2.5c-0.8,2-0.2,6.4,2.5,3.3c-0.5,2,0.6,2.3,2.2,3.1c-0.5,1.7-2.2,2.2-3.2,3.5c-0.6,0.8-0.9,1.9-1.4,2.7
			c-1-0.7-1.2-2.1-2.1-2.8c-0.6,0.5-2.5,3-3.3,2.9C97,48.7,96,46.5,94.9,46c0.4-1,1-2,1.4-3.1c-0.2-0.2-0.4-0.2-0.5-0.3
			c0.3-1.3,2.7-8,4.2-6.4"/>
		<path fill="#FFFFFF" stroke="#010101" stroke-width="0.5" stroke-miterlimit="10" d="M120.2,19.8c1.7-1.5,1.8-3.4,4.2-4.6
			c0.2,0.6-0.3,2.8,0.2,3.1c1.3,1.1,3.5-1.5,4.5-2.3c-0.2,0.5-1.2,2.3-0.9,2.9c0.7,1.4,2.3,0.2,3.4,0.3c-0.7,2-2.4,3.4-3.4,5.4
			c-0.6,1.3-0.8,2.4-1.3,3.7c-2.3-0.8-3.8-2.5-4.3-4.8c-0.7,1.4-3.2,6.1-3.5,2.3c-0.2-2.3,1.6-4.6,1.9-6.8"/>
		<path fill="#FFFFFF" stroke="#010101" stroke-width="0.5" stroke-miterlimit="10" d="M117.4,52.2c-0.1,1.4-2,3-2,4.4
			c0,1.9,2.3,3.2,4,3.3c-2,0.6-4,1.8-4.7,3.9c0.9,0.9,2.1,1.3,3.2,1.9c-0.9,0.4-5.4,2.7-2.9,3.7c-0.7,1.7-5.4-0.8-6.6-1.8
			c-2.5-2.2-1.6-4.8-0.5-7.5c1.6-3.8,5-7.9,9.7-7"/>
	</g>
</g>
<g id="water">
	<g>
		<path fill="#55C2E2" stroke="#070707" stroke-width="0.5" stroke-miterlimit="10" d="M174.4,89.7c0,0-36.1,41.7-4.2,51.2
			c0,0,26.1-0.6,14.6-30.9C184.8,110,174.9,98.4,174.4,89.7z"/>
		<path fill="none" stroke="#3A97AD" stroke-miterlimit="10" d="M172.3,137.5c5.2,2.4,13.5-10.3,12.9-14.9"/>
		
			<ellipse transform="matrix(0.7903 -0.6127 0.6127 0.7903 -45.2897 129.8703)" opacity="0.8" fill="#FFFFFF" cx="167.1" cy="131.1" rx="4.8" ry="5.8"/>
		<path opacity="0.8" fill="#FFFFFF" d="M163.8,108c0,0,4.7-11.6,10.3-14.6"/>
	</g>
	<g>
		<path fill="#55C2E2" stroke="#070707" stroke-width="0.5" stroke-miterlimit="10" d="M17.4,146.7c0,0-36.1,41.7-4.2,51.2
			c0,0,26.1-0.6,14.6-30.9C27.7,167,17.8,155.4,17.4,146.7z"/>
		<path fill="none" stroke="#3A97AD" stroke-miterlimit="10" d="M15.2,194.6c5.2,2.4,13.5-10.3,12.9-14.9"/>
		
			<ellipse transform="matrix(0.7903 -0.6127 0.6127 0.7903 -113.174 45.5835)" opacity="0.8" fill="#FFFFFF" cx="10" cy="188.1" rx="4.8" ry="5.8"/>
		<path opacity="0.8" fill="#FFFFFF" d="M6.7,165c0,0,4.7-11.6,10.3-14.6"/>
	</g>
	<g>
		<path fill="#55C2E2" stroke="#070707" stroke-width="0.5" stroke-miterlimit="10" d="M32.2,217.9c0,0-21.7,25.1-2.5,30.8
			c0,0,15.7-0.4,8.8-18.6C38.4,230.1,32.5,223.1,32.2,217.9z"/>
		<path fill="none" stroke="#3A97AD" stroke-miterlimit="10" d="M30.9,246.6c3.1,1.4,8.1-6.2,7.7-9"/>
		
			<ellipse transform="matrix(0.7902 -0.6128 0.6128 0.7902 -144.6603 68.2219)" opacity="0.8" fill="#FFFFFF" cx="27.3" cy="245.4" rx="1.7" ry="2.1"/>
		<path opacity="0.8" fill="#FFFFFF" d="M25.8,228.9c0,0,2.8-7,6.2-8.8"/>
	</g>
	<g>
		<path fill="#55C2E2" stroke="#070707" stroke-width="0.5" stroke-miterlimit="10" d="M168.3,156.9c0,0-21.7,25.1-2.5,30.8
			c0,0,15.7-0.4,8.8-18.6C174.5,169.2,168.6,162.2,168.3,156.9z"/>
		<path fill="none" stroke="#3A97AD" stroke-miterlimit="10" d="M167,185.7c3.1,1.4,8.1-6.2,7.7-9"/>
		
			<ellipse transform="matrix(0.7904 -0.6126 0.6126 0.7904 -78.7706 138.7997)" opacity="0.8" fill="#FFFFFF" cx="163.4" cy="184.5" rx="1.7" ry="2.1"/>
		<path opacity="0.8" fill="#FFFFFF" d="M161.9,168c0,0,2.8-7,6.2-8.8"/>
	</g>
	<g>
		<path fill="#55C2E2" stroke="#070707" stroke-width="0.5" stroke-miterlimit="10" d="M155.3,214.6c0,0-13.5,15.7-1.6,19.2
			c0,0,9.8-0.2,5.5-11.6C159.2,222.2,155.5,217.8,155.3,214.6z"/>
		<path fill="none" stroke="#3A97AD" stroke-miterlimit="10" d="M154.5,232.5c1.9,0.9,5.1-3.9,4.8-5.6"/>
		
			<ellipse transform="matrix(0.7906 -0.6123 0.6123 0.7906 -109.0601 141.2513)" opacity="0.8" fill="#FFFFFF" cx="152" cy="230.1" rx="0.9" ry="1"/>
		<path opacity="0.8" fill="#FFFFFF" d="M151.3,221.4c0,0,1.8-4.4,3.9-5.5"/>
	</g>
	<g>
		<path fill="#55C2E2" stroke="#070707" stroke-width="0.5" stroke-miterlimit="10" d="M24.5,109.8c0,0-13.5,15.7-1.6,19.2
			c0,0,9.8-0.2,5.5-11.6C28.4,117.5,24.7,113.1,24.5,109.8z"/>
		<path fill="none" stroke="#3A97AD" stroke-miterlimit="10" d="M23.7,127.8c1.9,0.9,5.1-3.9,4.8-5.6"/>
		
			<ellipse transform="matrix(0.7904 -0.6126 0.6126 0.7904 -72.3598 39.2721)" opacity="0.8" fill="#FFFFFF" cx="21.2" cy="125.4" rx="0.9" ry="1"/>
		<path opacity="0.8" fill="#FFFFFF" d="M20.5,116.7c0,0,1.8-4.4,3.9-5.5"/>
	</g>
</g>
</svg>
