<?xml version="1.0" encoding="utf-8"?>
<!-- Generator: Adobe Illustrator 17.1.0, SVG Export Plug-In . SVG Version: 6.00 Build 0)  -->
<!DOCTYPE svg PUBLIC "-//W3C//DTD SVG 1.1//EN" "http://www.w3.org/Graphics/SVG/1.1/DTD/svg11.dtd">
<svg version="1.1" xmlns="http://www.w3.org/2000/svg" xmlns:xlink="http://www.w3.org/1999/xlink" x="0px" y="0px"
	 viewBox="0 0 224.4 327.8" enable-background="new 0 0 224.4 327.8" xml:space="preserve">
<pattern  x="-211" y="-179.2" width="8.7" height="8.7" patternUnits="userSpaceOnUse" id="New_Pattern_Swatch_12" viewBox="0 -8.7 8.7 8.7" overflow="visible">
	<g>
		<polygon fill="none" points="8.7,0 0,0 0,-8.7 8.7,-8.7 		"/>
		<g>
			<path fill="#010101" d="M5-4.5c0,0.4-0.3,0.7-0.7,0.7C4-3.8,3.7-4.1,3.7-4.5c0-0.4,0.3-0.7,0.7-0.7C4.7-5.2,5-4.9,5-4.5z"/>
		</g>
	</g>
</pattern>
<g id="legs">
	<path fill="#FFFFFF" stroke="#010101" stroke-miterlimit="10" d="M153.8,152l7.5-21.1c0,0-1.8,1.7-2.8,2.5c0,0,0.2-23.7-11.2-29.8
		c0,0,9.7,12.5,9.2,27.5c0,0-1.7-7.7-4-7.7c0,0,3.9,6,2.7,15.3l-3.8,8.5L153.8,152z"/>
	<path fill="#FFFFFF" stroke="#010101" stroke-miterlimit="10" d="M51.7,153.5l-7.5-21.1c0,0,1.8,1.7,2.8,2.5
		c0,0-0.2-23.7,11.2-29.8c0,0-9.7,12.5-9.2,27.5c0,0,1.7-7.7,4-7.7c0,0-3.9,6-2.7,15.3l3.8,8.5L51.7,153.5z"/>
	<path fill="#FFFFFF" stroke="#010101" stroke-miterlimit="10" d="M44.2,190.7c0,0-13.8,1.4-18.5,5.2c0,0-8.4,9,2.5,8.2
		c10.9-0.8,10.9-0.8,10.9-0.8S39.3,194.7,44.2,190.7z"/>
	<path fill="#FFFFFF" stroke="#010101" stroke-miterlimit="10" d="M22.6,202.6c0,0-9.9,5.1-10.7,20.6s-0.5,29.3,3.2,30.5
		c0,0-3-13.8-1.3-18.5c0,0,1.3,0,1,3.7c0,0,2.2-4.2,0.2-8.8c0,0-5.7-12.6,9-25.9L22.6,202.6z"/>
	<path fill="#FFFFFF" stroke="#010101" stroke-miterlimit="10" d="M164.6,189.5c0,0,13.8,1.4,18.5,5.2c0,0,8.4,9-2.5,8.2
		c-10.9-0.8-10.9-0.8-10.9-0.8S169.5,193.6,164.6,189.5z"/>
	<path fill="#FFFFFF" stroke="#010101" stroke-miterlimit="10" d="M186.2,201.4c0,0,9.9,5.1,10.7,20.6s0.5,29.3-3.2,30.5
		c0,0,3-13.8,1.3-18.5c0,0-1.3,0-1,3.7c0,0-2.2-4.2-0.2-8.8c0,0,5.7-12.6-9-25.9L186.2,201.4z"/>
	<path fill="#FFFFFF" stroke="#010101" stroke-miterlimit="10" d="M38.5,234.2c0,0-15.4,19.8-16.7,24.3c0,0,5,2.5,9.5,1l7.4-9.3
		L38.5,234.2z"/>
	<path fill="#FFFFFF" stroke="#010101" stroke-miterlimit="10" d="M23.9,259.3c0,0,3.2,34.2-0.8,41.8c0,0,6.5-5.2,4.7-21.7
		c0,0,2.4,2.8,2.4,6.2c0,0,1-6.8-3.6-12l0.9-13.7L23.9,259.3z"/>
	<path fill="#FFFFFF" stroke="#010101" stroke-miterlimit="10" d="M167.8,234.2c0,0,15.4,19.8,16.7,24.3c0,0-5,2.5-9.5,1l-7.4-9.3
		L167.8,234.2z"/>
	<path fill="#FFFFFF" stroke="#010101" stroke-miterlimit="10" d="M182.4,259.3c0,0-3.2,34.2,0.8,41.8c0,0-6.5-5.2-4.7-21.7
		c0,0-2.4,2.8-2.4,6.2c0,0-1-6.8,3.6-12l-0.9-13.7L182.4,259.3z"/>
</g>
<g id="basebody">
	<path fill="#FFFFFF" stroke="#000000" stroke-miterlimit="10" d="M57.1,185.7c0,0-22-10.2-8-31.9c14-21.7,19.3-24.3,19.3-24.3
		s6.7,5,12.7,5s53.3-1.7,53.3-1.7s6.7-0.7,8.3-3.3c0,0,18.7,21.3,20.7,30.3s3.7,17.4-5,24.9C158.4,184.7,102.1,216.6,57.1,185.7z"/>
	<path fill="#FFFFFF" stroke="#000000" stroke-miterlimit="10" d="M60.7,186.5c0,0-18.3-6.7-19.7,15.7c-1.3,22.3,0,68.3,0,68.3
		s12.7,57.7,64.3,51.3c0,0,61.7,0.7,63.3-54.7c1.7-55.3,2-63.7,2-63.7s2-23.5-17.7-17.9C153,185.6,112.7,204.5,60.7,186.5z"/>
	<path fill="#FFFFFF" stroke="#000000" stroke-miterlimit="10" d="M138.4,131.6c0,0,1.4-18.5-14.6-19.2c0,0-3.9-5.7-18.3-5.3h-1.4
		c-14.4-0.3-18.3,5.3-18.3,5.3c-16,0.7-14.6,19.2-14.6,19.2s3,3,11.1,2.8c8.2-0.2,53.2-1.8,53.2-1.8S137.1,133.1,138.4,131.6z"/>
</g>
<g id="bodycolor">
	<path fill="#6CBE45" stroke="#010101" stroke-miterlimit="10" d="M57.1,185.7c0,0-22-10.2-8-31.9c14-21.7,19.3-24.3,19.3-24.3
		s6.7,5,12.7,5s53.3-1.7,53.3-1.7s6.7-0.7,8.3-3.3c0,0,18.7,21.3,20.7,30.3s3.7,17.4-5,24.9C158.4,184.7,102.1,216.6,57.1,185.7z"/>
	<path fill="#D0DD28" stroke="#010101" stroke-miterlimit="10" d="M60.7,186.5c0,0-18.3-6.7-19.7,15.7c-1.3,22.3,0,68.3,0,68.3
		s12.7,57.7,64.3,51.3c0,0,61.7,0.7,63.3-54.7c1.7-55.3,2-63.7,2-63.7s2-23.5-17.7-17.9C153,185.6,112.7,204.5,60.7,186.5z"/>
	<path fill="#6CBE45" stroke="#010101" stroke-miterlimit="10" d="M138.4,131.6c0,0,1.4-18.5-14.6-19.2c0,0-3.9-5.7-18.3-5.3h-1.4
		c-14.4-0.3-18.3,5.3-18.3,5.3c-16,0.7-14.6,19.2-14.6,19.2s3,3,11.1,2.8c8.2-0.2,53.2-1.8,53.2-1.8S137.1,133.1,138.4,131.6z"/>
</g>
<g id="eyes">
	<path fill="#FFFFFF" stroke="#010101" stroke-miterlimit="10" d="M70.9,131.9c0,0,0.1-19.7,14.6-19.2
		C85.5,112.8,89.5,130.1,70.9,131.9z"/>
	<path fill="#FFFFFF" stroke="#010101" stroke-miterlimit="10" d="M138.4,131.9c0,0-0.1-19.7-14.6-19.2
		C123.9,112.8,119.8,130.1,138.4,131.9z"/>
</g>
<g id="antennae">
	<path fill="none" stroke="#010101" stroke-width="0.5" stroke-miterlimit="10" d="M87.1,82.8c0,0,4.6,22.4,20.1,24.3
		c0,0,15.1-7.1,15.1-24.3"/>
</g>
<g id="markings">
	<path fill="#010101" d="M60.2,293.9c0,0,49.7,35.9,89-0.6"/>
	<path fill="#010101" d="M60.2,264.6c0,0,49.7,35.9,89-0.6"/>
</g>
<g id="dots">
	<path fill="url(#New_Pattern_Swatch_12)" stroke="#010101" stroke-miterlimit="10" d="M59.9,186.5c0,0-18.3-6.7-19.7,15.7
		c-1.3,22.3,0,68.3,0,68.3s12.7,57.7,64.3,51.3c0,0,61.7,0.7,63.3-54.7c1.7-55.3,2-63.7,2-63.7s2-23.5-17.7-17.9
		C152.3,185.6,111.9,204.5,59.9,186.5z"/>
</g>
<g id="fur">
	<g>
		<g>
			<path fill="none" stroke="#010101" stroke-miterlimit="10" d="M106.1,90.3"/>
		</g>
	</g>
	<g>
		<g>
			<g>
				<g>
					<polyline fill="none" stroke="#010101" stroke-miterlimit="10" points="47.6,184.3 50.3,180.2 45,180.2 					"/>
				</g>
				<g>
					<polyline fill="none" stroke="#010101" stroke-miterlimit="10" points="44.5,179.4 47.3,175.3 42,175.3 					"/>
				</g>
				<g>
					<path fill="none" stroke="#010101" stroke-miterlimit="10" d="M41.4,174.3c-0.1,0,0.7-1.4,1.8-2c1-0.8,2-1.4,2-1.4
						s-0.3-0.1-0.8-0.3c-0.4-0.2-1-0.4-1.6-0.7c-1.2-0.6-2.4-1.3-2.4-1.3"/>
				</g>
				<g>
					<path fill="none" stroke="#010101" stroke-miterlimit="10" d="M40.4,167.4c0,0,1.1-0.6,2.3-1c0.6-0.2,1.1-0.4,1.6-0.6
						c0.4-0.1,0.7-0.2,0.7-0.2s-1-0.8-2-1.7c-0.5-0.5-1-0.9-1.3-1.3c-0.3-0.4-0.6-0.6-0.6-0.6"/>
				</g>
				<g>
					<path fill="none" stroke="#010101" stroke-miterlimit="10" d="M41.4,161c0,0,0.3-0.1,0.8-0.1c0.5-0.1,1.1-0.2,1.7-0.2
						c1.3-0.1,2.5-0.2,2.5-0.2s-0.8-1-1.6-2.1c-0.7-1.1-1.4-2.2-1.4-2.2"/>
				</g>
				<g>
					<path fill="none" stroke="#010101" stroke-miterlimit="10" d="M43.7,155.2c0,0,1.2,0,2.5,0.1c1.3,0.1,2.5,0.3,2.5,0.3
						s-0.6-1.1-1.2-2.4c-0.6-1.2-1.1-2.4-1.1-2.4"/>
				</g>
				<g>
					<polyline fill="none" stroke="#010101" stroke-miterlimit="10" points="46.9,150.1 51.8,150.9 49.6,146 					"/>
				</g>
				<g>
					<path fill="none" stroke="#010101" stroke-miterlimit="10" d="M50.1,145.3c0,0,1.2,0.2,2.4,0.4c1.2,0.2,2.4,0.5,2.4,0.5
						s-0.5-1.2-1-2.4c-0.5-1.2-1-2.4-1-2.4"/>
				</g>
				<g>
					<path fill="none" stroke="#010101" stroke-miterlimit="10" d="M53.5,140.5c0,0,1.2,0.2,2.4,0.5c1.2,0.3,2.4,0.5,2.4,0.5
						s-0.5-1.2-1-2.4c-0.5-1.2-0.9-2.5-0.9-2.5"/>
				</g>
				<g>
					<path fill="none" stroke="#010101" stroke-miterlimit="10" d="M57,135.8c0,0,1.2,0.3,2.4,0.6c1.2,0.3,2.4,0.6,2.4,0.6
						s-0.4-1.2-0.8-2.5c-0.4-1.3-0.8-2.5-0.8-2.5"/>
				</g>
				<g>
					<path fill="none" stroke="#010101" stroke-miterlimit="10" d="M60.8,131.3c0,0,1.2,0.4,2.4,0.8c1.2,0.4,2.3,0.8,2.3,0.8
						s-0.1-0.3-0.2-0.8c-0.1-0.5-0.3-1.1-0.4-1.8c-0.3-1.3-0.4-2.7-0.4-2.7"/>
				</g>
				<g>
					<path fill="none" stroke="#010101" stroke-miterlimit="10" d="M71.8,127.3c0,0-0.2,1.2-0.4,2.4c-0.2,1.2-0.3,2.5-0.3,2.5
						s1.2-0.6,2.3-1.3c1.1-0.7,2.1-1.5,2.1-1.5"/>
				</g>
				<g>
					<path fill="none" stroke="#010101" stroke-miterlimit="10" d="M76.3,129.6c0,0,0,1.2,0.1,2.4c0,0.6,0.1,1.2,0.2,1.7
						c0.1,0.5,0.1,0.8,0.1,0.8s0.3-0.2,0.6-0.6c0.4-0.3,0.8-0.8,1.3-1.3c0.4-0.5,0.8-1,1.1-1.4c0.3-0.4,0.4-0.6,0.4-0.6"/>
				</g>
				<g>
					<path fill="none" stroke="#010101" stroke-miterlimit="10" d="M80.7,130.7c0,0,0.1,0.3,0.2,0.7c0.2,0.4,0.4,1,0.7,1.5
						c0.5,1.1,1,2.2,1,2.2l2.6-4.6"/>
				</g>
				<g>
					<polyline fill="none" stroke="#010101" stroke-miterlimit="10" points="86.2,130.6 88.2,135 90.8,130.5 					"/>
				</g>
				<g>
					<polyline fill="none" stroke="#010101" stroke-miterlimit="10" points="91.7,130.4 93.8,134.9 96.4,130.3 					"/>
				</g>
				<g>
					<polyline fill="none" stroke="#010101" stroke-miterlimit="10" points="97.2,130.3 99.3,134.7 101.9,130.1 					"/>
				</g>
				<g>
					<polyline fill="none" stroke="#010101" stroke-miterlimit="10" points="102.8,130.1 104.9,134.5 107.4,129.9 					"/>
				</g>
				<g>
					<polyline fill="none" stroke="#010101" stroke-miterlimit="10" points="108.3,129.9 110.5,134.4 112.9,129.8 					"/>
				</g>
				<g>
					<polyline fill="none" stroke="#010101" stroke-miterlimit="10" points="113.8,129.7 116,134.2 118.5,129.6 					"/>
				</g>
				<g>
					<polyline fill="none" stroke="#010101" stroke-miterlimit="10" points="119.4,129.6 121.6,134 124,129.4 					"/>
				</g>
				<g>
					<polyline fill="none" stroke="#010101" stroke-miterlimit="10" points="124.9,129.4 127.2,133.8 129.5,129.2 					"/>
				</g>
				<g>
					<path fill="none" stroke="#010101" stroke-miterlimit="10" d="M130.4,129.2l2.3,4.4c0,0,0.6-1.1,1.2-2.3
						c0.3-0.6,0.5-1.2,0.7-1.6c0.2-0.5,0.3-0.8,0.3-0.8"/>
				</g>
				<g>
					<path fill="none" stroke="#010101" stroke-miterlimit="10" d="M135.6,128.9c0,0,0.6,1,1.4,2c0.7,1,1.6,1.9,1.6,1.9
						s0.4-1.3,0.6-2.6c0.1-0.6,0.1-1.3,0.1-1.7c0-0.5-0.1-0.7-0.1-0.7"/>
				</g>
				<g>
					<path fill="none" stroke="#010101" stroke-miterlimit="10" d="M147.2,128.8l-2.2,4.4c0,0,1.3-0.2,2.6-0.4
						c1.3-0.2,2.6-0.4,2.6-0.4"/>
				</g>
				<g>
					<path fill="none" stroke="#010101" stroke-miterlimit="10" d="M150.7,133.1l-2.3,4.4c0,0,1.3-0.2,2.6-0.4
						c1.3-0.2,2.6-0.3,2.6-0.3"/>
				</g>
				<g>
					<path fill="none" stroke="#010101" stroke-miterlimit="10" d="M154.2,137.5l-2.4,4.3c0,0,1.3-0.2,2.6-0.3
						c1.3-0.1,2.6-0.3,2.6-0.3"/>
				</g>
				<g>
					<path fill="none" stroke="#010101" stroke-miterlimit="10" d="M157.6,142c0,0-0.6,1.1-1.2,2.1c-0.6,1.1-1.3,2.1-1.3,2.1
						s1.3-0.1,2.6-0.2c1.3-0.1,2.6-0.2,2.6-0.2"/>
				</g>
				<g>
					<path fill="none" stroke="#010101" stroke-miterlimit="10" d="M160.8,146.6c0,0-0.7,1-1.3,2.1c-0.7,1-1.4,2.1-1.4,2.1
						s1.3,0,2.6-0.1c1.3,0,2.6,0,2.6,0"/>
				</g>
				<g>
					<path fill="none" stroke="#010101" stroke-miterlimit="10" d="M163.9,151.4c0,0-0.7,1-1.4,2c-0.8,1-1.5,1.9-1.5,1.9
						s1.3,0,2.6,0.1c1.3,0.1,2.6,0.3,2.6,0.3"/>
				</g>
				<g>
					<path fill="none" stroke="#010101" stroke-miterlimit="10" d="M166.5,156.8c0,0-0.2,0.2-0.5,0.6c-0.3,0.4-0.8,0.8-1.2,1.2
						c-0.9,0.8-1.9,1.5-1.9,1.5c0,0,0,0,0.1,0c0,0,0.1,0.1,0.2,0.1c0.1,0.1,0.2,0.1,0.3,0.2c0.1,0,0.2,0,0.3,0
						c0.5,0.1,1.1,0.2,1.8,0.3c1.3,0.3,2.6,0.6,2.6,0.6"/>
				</g>
				<g>
					<path fill="none" stroke="#010101" stroke-miterlimit="10" d="M168.3,162.3c0,0-0.9,0.8-1.9,1.6c-1,0.8-2,1.5-2,1.5
						s1.2,0.4,2.5,0.8c1.2,0.5,2.4,1,2.4,1"/>
				</g>
				<g>
					<path fill="none" stroke="#010101" stroke-miterlimit="10" d="M169.4,168.1c0,0-1.1,0.7-2.1,1.3c-1.1,0.6-2.2,1.1-2.2,1.1
						s1.2,0.6,2.3,1.2c0.6,0.3,1.1,0.7,1.5,1c0.4,0.3,0.7,0.5,0.7,0.5"/>
				</g>
				<g>
					<path fill="none" stroke="#010101" stroke-miterlimit="10" d="M169.6,174.2c0,0-1.2,0.5-2.4,0.8c-1.2,0.4-2.4,0.6-2.4,0.6
						s1,0.8,1.9,1.8c0.9,0.9,1.7,2.1,1.7,2.1"/>
				</g>
				<g>
					<path fill="none" stroke="#010101" stroke-miterlimit="10" d="M168,180.4c0,0-1.3,0.1-2.5,0c-1.3-0.1-2.4-0.4-2.4-0.4
						s0.2,0.3,0.4,0.7c0.2,0.4,0.5,1,0.7,1.7c0.4,1.3,0.6,2.6,0.6,2.6"/>
				</g>
			</g>
		</g>
	</g>
	<g>
		<g>
			<g>
				<g>
					<path fill="none" stroke="#010101" stroke-miterlimit="10" d="M95.9,326.3c0,0-0.5-1.1-1-2.3c-0.5-1.1-0.9-2.3-0.9-2.3
						s-0.7,1.1-1.4,2.2c-0.7,1.1-1.6,2.1-1.6,2.1"/>
				</g>
				<g>
					<path fill="none" stroke="#010101" stroke-miterlimit="10" d="M90.1,326c0,0-0.4-1.2-0.8-2.4c-0.4-1.2-0.7-2.4-0.7-2.4
						s-0.8,1-1.7,2c-0.9,1-1.8,2-1.8,2"/>
				</g>
				<g>
					<path fill="none" stroke="#010101" stroke-miterlimit="10" d="M84.3,325.1c0,0-0.3-1.2-0.5-2.4c-0.2-1.2-0.4-2.4-0.4-2.4
						s-0.9,0.9-1.9,1.8c-1,0.9-2,1.8-2,1.8"/>
				</g>
				<g>
					<path fill="none" stroke="#010101" stroke-miterlimit="10" d="M78.6,323.5c0,0-0.1-1.2-0.2-2.5c-0.1-1.2-0.2-2.5-0.2-2.5
						s-1,0.8-2.1,1.6c-1,0.8-2.2,1.5-2.2,1.5"/>
				</g>
				<g>
					<path fill="none" stroke="#010101" stroke-miterlimit="10" d="M73.2,321.4c0,0,0-1.2,0-2.5c0-1.2,0.1-2.5,0.1-2.5
						s-1.1,0.7-2.2,1.4c-1.1,0.7-2.3,1.3-2.3,1.3"/>
				</g>
				<g>
					<path fill="none" stroke="#010101" stroke-miterlimit="10" d="M68,318.6c0,0,0.1-1.2,0.3-2.5c0.2-1.2,0.4-2.4,0.4-2.4
						s-1.2,0.6-2.4,1.1c-1.2,0.5-2.4,1-2.4,1"/>
				</g>
				<g>
					<path fill="none" stroke="#010101" stroke-miterlimit="10" d="M63.1,315.3c0,0,0.3-1.2,0.6-2.4c0.3-1.2,0.6-2.4,0.6-2.4
						s-1.2,0.5-2.5,0.9c-1.2,0.4-2.5,0.8-2.5,0.8"/>
				</g>
				<g>
					<path fill="none" stroke="#010101" stroke-miterlimit="10" d="M58.7,311.6c0,0,0.4-1.2,0.8-2.3c0.4-1.2,0.9-2.3,0.9-2.3
						s-1.3,0.3-2.5,0.6c-1.3,0.3-2.6,0.6-2.6,0.6"/>
				</g>
				<g>
					<path fill="none" stroke="#010101" stroke-miterlimit="10" d="M54.6,307.4c0,0,0.5-1.1,1-2.3c0.5-1.1,1.1-2.2,1.1-2.2
						s-1.3,0.2-2.6,0.4c-1.3,0.2-2.6,0.3-2.6,0.3"/>
				</g>
				<g>
					<path fill="none" stroke="#010101" stroke-miterlimit="10" d="M50.9,302.9c0,0,0.6-1.1,1.2-2.2c0.6-1.1,1.2-2.1,1.2-2.1
						s-1.3,0.1-2.6,0.2c-1.3,0.1-2.6,0.1-2.6,0.1"/>
				</g>
				<g>
					<path fill="none" stroke="#010101" stroke-miterlimit="10" d="M47.5,298.2c0,0,0.7-1,1.3-2.1c0.7-1,1.4-2,1.4-2s-1.3,0-2.6,0
						c-1.3,0-2.6-0.1-2.6-0.1"/>
				</g>
				<g>
					<path fill="none" stroke="#010101" stroke-miterlimit="10" d="M44.6,293.3c0,0,0.7-1,1.5-2c0.8-1,1.5-1.9,1.5-1.9
						s-1.3-0.1-2.6-0.2c-1.3-0.1-2.6-0.2-2.6-0.2"/>
				</g>
				<g>
					<path fill="none" stroke="#010101" stroke-miterlimit="10" d="M42,288.1c0,0,0.8-0.9,1.6-1.9c0.8-0.9,1.6-1.8,1.6-1.8
						s-1.3-0.2-2.6-0.3c-1.3-0.2-2.6-0.4-2.6-0.4"/>
				</g>
				<g>
					<path fill="none" stroke="#010101" stroke-miterlimit="10" d="M39.6,282.9c0,0,0.9-0.9,1.7-1.8c0.9-0.9,1.7-1.7,1.7-1.7
						s-1.3-0.2-2.6-0.5c-1.3-0.2-2.6-0.5-2.6-0.5"/>
				</g>
				<g>
					<path fill="none" stroke="#010101" stroke-miterlimit="10" d="M37.7,277.5c0,0,0.9-0.8,1.8-1.7c0.9-0.8,1.9-1.6,1.9-1.6
						s-1.3-0.3-2.5-0.6c-1.3-0.3-2.5-0.7-2.5-0.7"/>
				</g>
				<g>
					<path fill="none" stroke="#010101" stroke-miterlimit="10" d="M36,271.9c0,0,0.2-0.2,0.6-0.5c0.2-0.2,0.4-0.4,0.6-0.6
						c0.2-0.2,0.5-0.4,0.8-0.5c1.1-0.5,2.2-1.1,2.2-1.1l-4.6-2.6"/>
				</g>
				<g>
					<polyline fill="none" stroke="#010101" stroke-miterlimit="10" points="35.7,265.8 40.1,263.7 35.6,261.1 					"/>
				</g>
				<g>
					<polyline fill="none" stroke="#010101" stroke-miterlimit="10" points="35.6,260.2 40,258.1 35.5,255.5 					"/>
				</g>
				<g>
					<polyline fill="none" stroke="#010101" stroke-miterlimit="10" points="35.4,254.6 39.9,252.5 35.4,249.9 					"/>
				</g>
				<g>
					<polyline fill="none" stroke="#010101" stroke-miterlimit="10" points="35.4,249 39.8,246.9 35.3,244.3 					"/>
				</g>
				<g>
					<polyline fill="none" stroke="#010101" stroke-miterlimit="10" points="35.3,243.4 39.8,241.4 35.2,238.7 					"/>
				</g>
				<g>
					<polyline fill="none" stroke="#010101" stroke-miterlimit="10" points="35.2,237.8 39.7,235.8 35.2,233.1 					"/>
				</g>
				<g>
					<polyline fill="none" stroke="#010101" stroke-miterlimit="10" points="35.2,232.2 39.7,230.2 35.2,227.5 					"/>
				</g>
				<g>
					<polyline fill="none" stroke="#010101" stroke-miterlimit="10" points="35.2,226.6 39.7,224.6 35.2,221.9 					"/>
				</g>
				<g>
					<polyline fill="none" stroke="#010101" stroke-miterlimit="10" points="35.3,221 39.8,219.1 35.3,216.3 					"/>
				</g>
				<g>
					<polyline fill="none" stroke="#010101" stroke-miterlimit="10" points="35.3,215.4 39.9,213.5 35.4,210.7 					"/>
				</g>
				<g>
					<polyline fill="none" stroke="#010101" stroke-miterlimit="10" points="35.5,209.8 40,207.9 35.6,205.1 					"/>
				</g>
				<g>
					<path fill="none" stroke="#010101" stroke-miterlimit="10" d="M35.7,204.2l4.6-1.8c0,0-1.1-0.7-2.2-1.5
						c-1.1-0.8-2.1-1.6-2.1-1.6"/>
				</g>
				<g>
					<path fill="none" stroke="#010101" stroke-miterlimit="10" d="M36.2,198.3c0,0,1.2-0.4,2.4-0.7c1.2-0.3,2.4-0.5,2.4-0.5
						s-1-0.8-1.9-1.8c-0.9-1-1.7-2-1.7-2"/>
				</g>
				<g>
					<path fill="none" stroke="#010101" stroke-miterlimit="10" d="M37.8,192.4c0,0,1.3-0.1,2.5-0.1c1.2,0,2.4,0.1,2.4,0.1
						c0,0-0.7-1-1.3-2.2c-0.6-1.2-1-2.5-1-2.5"/>
				</g>
				<g>
					<path fill="none" stroke="#010101" stroke-miterlimit="10" d="M41.1,186.8c0,0,1.2,0.3,2.4,0.8c1.2,0.4,2.2,1.1,2.2,1.1
						c0,0-0.3-1.2-0.3-2.6c0-1.3,0.2-2.7,0.2-2.7"/>
				</g>
				<g>
					<path fill="none" stroke="#010101" stroke-miterlimit="10" d="M46.6,182.9c0,0,1,0.8,1.9,1.7c0.9,0.9,1.6,1.9,1.6,1.9
						s0.3-1.2,0.8-2.5c0.5-1.2,1.2-2.4,1.2-2.4"/>
				</g>
				<g>
					<path fill="none" stroke="#010101" stroke-miterlimit="10" d="M52.9,181.5c0,0,0.6,1.1,1.1,2.2c0.5,1.1,0.9,2.3,0.9,2.3
						s0.7-1.1,1.5-2.1c0.8-1,1.8-2,1.8-2"/>
				</g>
				<g>
					<path fill="none" stroke="#010101" stroke-miterlimit="10" d="M59.2,182.2c0,0,0.3,1.2,0.5,2.5c0.1,0.6,0.1,1.2,0.2,1.7
						c0,0.5,0.1,0.8,0.1,0.8s1-0.9,2-1.7c1-0.9,2-1.7,2-1.7"/>
				</g>
				<g>
					<path fill="none" stroke="#010101" stroke-miterlimit="10" d="M64.7,183.9c0,0,0.1,1.2,0.3,2.4c0.2,1.2,0.3,2.5,0.3,2.5
						s1-0.9,1.9-1.8c0.9-0.9,1.9-1.8,1.9-1.8"/>
				</g>
				<g>
					<path fill="none" stroke="#010101" stroke-miterlimit="10" d="M69.9,185.5c0,0,0.2,1.2,0.4,2.4c0.2,1.2,0.4,2.4,0.4,2.4
						s0.9-0.9,1.9-1.9c0.9-0.9,1.8-1.9,1.8-1.9"/>
				</g>
				<g>
					<path fill="none" stroke="#010101" stroke-miterlimit="10" d="M75.3,186.8c0,0,0.2,1.2,0.5,2.4c0.3,1.2,0.5,2.4,0.5,2.4
						s0.9-1,1.8-1.9c0.9-1,1.7-2,1.7-2"/>
				</g>
				<g>
					<path fill="none" stroke="#010101" stroke-miterlimit="10" d="M80.6,187.9c0,0,0.3,1.2,0.6,2.4c0.3,1.2,0.6,2.4,0.6,2.4
						s0.9-1,1.7-2c0.8-1,1.7-2,1.7-2"/>
				</g>
				<g>
					<path fill="none" stroke="#010101" stroke-miterlimit="10" d="M86,188.8c0,0,0.3,1.2,0.7,2.4c0.4,1.2,0.7,2.4,0.7,2.4
						s0.8-1,1.6-2.1c0.8-1,1.6-2.1,1.6-2.1"/>
				</g>
				<g>
					<path fill="none" stroke="#010101" stroke-miterlimit="10" d="M91.5,189.5c0,0,0.4,1.2,0.8,2.3c0.4,1.2,0.8,2.3,0.8,2.3
						s0.8-1.1,1.5-2.1c0.7-1.1,1.5-2.1,1.5-2.1"/>
				</g>
				<g>
					<path fill="none" stroke="#010101" stroke-miterlimit="10" d="M96.9,190c0,0,0.4,1.2,0.9,2.3c0.4,1.2,0.9,2.3,0.9,2.3
						s0.7-1.1,1.4-2.2c0.7-1.1,1.4-2.2,1.4-2.2"/>
				</g>
				<g>
					<path fill="none" stroke="#010101" stroke-miterlimit="10" d="M102.4,190.2c0,0,0.5,1.1,1,2.3c0.5,1.1,1,2.3,1,2.3
						s0.7-1.1,1.4-2.3c0.7-1.1,1.3-2.3,1.3-2.3"/>
				</g>
				<g>
					<path fill="none" stroke="#010101" stroke-miterlimit="10" d="M107.9,190.2c0,0,0.5,1.1,1,2.2c0.5,1.1,1.1,2.2,1.1,2.2
						s0.6-1.2,1.3-2.3c0.6-1.2,1.2-2.3,1.2-2.3"/>
				</g>
				<g>
					<path fill="none" stroke="#010101" stroke-miterlimit="10" d="M113.3,190c0,0,0.6,1.1,1.1,2.2c0.6,1.1,1.2,2.2,1.2,2.2
						s0.6-1.2,1.2-2.4c0.6-1.2,1.1-2.4,1.1-2.4"/>
				</g>
				<g>
					<path fill="none" stroke="#010101" stroke-miterlimit="10" d="M118.8,189.5c0,0,0.6,1.1,1.2,2.1c0.6,1.1,1.3,2.1,1.3,2.1
						s0.5-1.2,1.1-2.4c0.5-1.2,1-2.4,1-2.4"/>
				</g>
				<g>
					<path fill="none" stroke="#010101" stroke-miterlimit="10" d="M124.2,188.8c0,0,0.7,1,1.3,2.1c0.7,1,1.4,2.1,1.4,2.1
						s0.5-1.2,1-2.4c0.5-1.2,0.9-2.5,0.9-2.5"/>
				</g>
				<g>
					<path fill="none" stroke="#010101" stroke-miterlimit="10" d="M129.6,187.9c0,0,0.7,1,1.4,2c0.7,1,1.4,2,1.4,2s0.4-1.2,0.8-2.5
						c0.4-1.2,0.8-2.5,0.8-2.5"/>
				</g>
				<g>
					<path fill="none" stroke="#010101" stroke-miterlimit="10" d="M134.9,186.8c0,0,0.7,1,1.5,2c0.8,1,1.5,1.9,1.5,1.9
						s0.4-1.3,0.7-2.5c0.3-1.3,0.7-2.5,0.7-2.5"/>
				</g>
				<g>
					<path fill="none" stroke="#010101" stroke-miterlimit="10" d="M140.2,185.4c0,0,0.8,0.9,1.6,1.9c0.8,0.9,1.6,1.9,1.6,1.9
						s0.3-1.3,0.6-2.6c0.3-1.3,0.5-2.6,0.5-2.6"/>
				</g>
				<g>
					<path fill="none" stroke="#010101" stroke-miterlimit="10" d="M145.4,183.7c0,0,0.8,0.9,1.7,1.8c0.9,0.9,1.7,1.8,1.7,1.8
						s0.3-1.3,0.5-2.6c0.2-1.3,0.3-2.6,0.3-2.6"/>
				</g>
				<g>
					<path fill="none" stroke="#010101" stroke-miterlimit="10" d="M150.8,181.7c0,0,0.8,0.9,1.6,1.9c0.8,1,1.4,2,1.4,2
						s0.4-1.2,0.9-2.4c0.5-1.2,1.2-2.4,1.2-2.4"/>
				</g>
				<g>
					<path fill="none" stroke="#010101" stroke-miterlimit="10" d="M156.9,180.7c0,0,0.6,1.1,1.1,2.3c0.5,1.1,0.8,2.3,0.8,2.3
						s0.7-1.1,1.6-2c0.9-1,2-1.8,2-1.8"/>
				</g>
				<g>
					<path fill="none" stroke="#010101" stroke-miterlimit="10" d="M163.5,181.8c0,0,0.2,1.3,0.1,2.5c-0.1,1.2-0.3,2.4-0.3,2.4
						c0,0,1.1-0.7,2.3-1.1c1.3-0.4,2.6-0.6,2.6-0.6"/>
				</g>
				<g>
					<path fill="none" stroke="#010101" stroke-miterlimit="10" d="M168.9,185.9c0,0-0.5,1.2-1.1,2.3c-0.6,1.1-1.4,2-1.4,2
						s1.3-0.1,2.6,0.1c1.3,0.1,2.6,0.4,2.6,0.4"/>
				</g>
				<g>
					<path fill="none" stroke="#010101" stroke-miterlimit="10" d="M172,191.6c0,0-0.9,0.9-1.8,1.7c-0.9,0.8-1.9,1.5-1.9,1.5
						s1.2,0.3,2.5,0.8c1.2,0.4,2.5,1,2.5,1"/>
				</g>
				<g>
					<path fill="none" stroke="#010101" stroke-miterlimit="10" d="M173.4,197.6c0,0-1.1,0.7-2.1,1.3c-1.1,0.6-2.2,1.1-2.2,1.1
						c0,0,1.2,0.6,2.3,1.2c1.1,0.7,2.2,1.4,2.2,1.4"/>
				</g>
				<g>
					<path fill="none" stroke="#010101" stroke-miterlimit="10" d="M173.5,203.7c-0.1,0-0.1,0.1-0.1,0.1c-0.1,0-0.1,0-0.1,0
						c-1.4,0.5-2.9,1.1-4.3,1.7l4.4,2.8"/>
				</g>
				<g>
					<polyline fill="none" stroke="#010101" stroke-miterlimit="10" points="173.4,209.2 168.8,211 173.2,213.8 					"/>
				</g>
				<g>
					<polyline fill="none" stroke="#010101" stroke-miterlimit="10" points="173.2,214.7 168.6,216.6 173,219.4 					"/>
				</g>
				<g>
					<polyline fill="none" stroke="#010101" stroke-miterlimit="10" points="173,220.3 168.4,222.2 172.8,225 					"/>
				</g>
				<g>
					<polyline fill="none" stroke="#010101" stroke-miterlimit="10" points="172.8,225.9 168.2,227.8 172.7,230.6 					"/>
				</g>
				<g>
					<polyline fill="none" stroke="#010101" stroke-miterlimit="10" points="172.6,231.5 168.1,233.3 172.5,236.2 					"/>
				</g>
				<g>
					<polyline fill="none" stroke="#010101" stroke-miterlimit="10" points="172.5,237.1 167.9,238.9 172.3,241.7 					"/>
				</g>
				<g>
					<polyline fill="none" stroke="#010101" stroke-miterlimit="10" points="172.3,242.6 167.7,244.5 172.1,247.3 					"/>
				</g>
				<g>
					<polyline fill="none" stroke="#010101" stroke-miterlimit="10" points="172.1,248.2 167.6,250.1 172,252.9 					"/>
				</g>
				<g>
					<polyline fill="none" stroke="#010101" stroke-miterlimit="10" points="172,253.8 167.4,255.7 171.8,258.5 					"/>
				</g>
				<g>
					<polyline fill="none" stroke="#010101" stroke-miterlimit="10" points="171.8,259.4 167.2,261.3 171.6,264.1 					"/>
				</g>
				<g>
					<path fill="none" stroke="#010101" stroke-miterlimit="10" d="M171.6,265l-4.6,1.9c0,0,1.1,0.7,2.2,1.4
						c1.1,0.7,2.2,1.5,2.2,1.5"/>
				</g>
				<g>
					<path fill="none" stroke="#010101" stroke-miterlimit="10" d="M171.4,270.7c0,0-1.2,0.4-2.3,0.8c-1.2,0.4-2.3,0.8-2.3,0.8
						s1.1,0.8,2.1,1.6c1,0.8,2,1.7,2,1.7"/>
				</g>
				<g>
					<path fill="none" stroke="#010101" stroke-miterlimit="10" d="M170.7,276.4c0,0-1.2,0.3-2.4,0.6c-1.2,0.3-2.4,0.6-2.4,0.6
						s1,0.8,1.9,1.8c1,0.9,1.9,1.8,1.9,1.8"/>
				</g>
				<g>
					<path fill="none" stroke="#010101" stroke-miterlimit="10" d="M169.5,282.1c0,0-1.2,0.2-2.4,0.4c-1.2,0.2-2.4,0.3-2.4,0.3
						s0.9,0.9,1.8,1.9c0.9,1,1.7,2,1.7,2"/>
				</g>
				<g>
					<path fill="none" stroke="#010101" stroke-miterlimit="10" d="M167.8,287.7c0,0-1.2,0.1-2.5,0.2c-1.2,0.1-2.5,0.1-2.5,0.1
						s0.8,1,1.5,2.1c0.8,1.1,1.5,2.2,1.5,2.2"/>
				</g>
				<g>
					<path fill="none" stroke="#010101" stroke-miterlimit="10" d="M165.4,293.1c0,0-1.2,0-2.5-0.1c-1.2-0.1-2.5-0.2-2.5-0.2
						s0.7,1.1,1.3,2.3c0.6,1.2,1.2,2.4,1.2,2.4"/>
				</g>
				<g>
					<path fill="none" stroke="#010101" stroke-miterlimit="10" d="M162.5,298.2c0,0-1.2-0.2-2.4-0.4c-1.2-0.2-2.4-0.5-2.4-0.5
						s0.5,1.2,1,2.4c0.5,1.2,0.9,2.5,0.9,2.5"/>
				</g>
				<g>
					<path fill="none" stroke="#010101" stroke-miterlimit="10" d="M158.9,302.9c0,0-1.2-0.3-2.4-0.7c-1.2-0.4-2.3-0.8-2.3-0.8
						s0.4,1.2,0.7,2.5c0.3,1.3,0.6,2.6,0.6,2.6"/>
				</g>
				<g>
					<path fill="none" stroke="#010101" stroke-miterlimit="10" d="M154.9,307.2c0,0-1.2-0.5-2.3-0.9c-1.1-0.5-2.2-1-2.2-1
						s0.3,1.3,0.5,2.6c0.2,1.3,0.3,2.6,0.3,2.6"/>
				</g>
				<g>
					<path fill="none" stroke="#010101" stroke-miterlimit="10" d="M150.4,311c0,0-1.1-0.6-2.2-1.2c-1.1-0.6-2.1-1.2-2.1-1.2
						s0.1,1.3,0.2,2.6c0.1,1.3,0.1,2.6,0.1,2.6"/>
				</g>
				<g>
					<path fill="none" stroke="#010101" stroke-miterlimit="10" d="M145.6,314.3c0,0-1-0.7-2.1-1.4c-1-0.7-2-1.4-2-1.4
						s0,1.3-0.1,2.6c-0.1,1.3-0.2,2.6-0.2,2.6"/>
				</g>
				<g>
					<path fill="none" stroke="#010101" stroke-miterlimit="10" d="M140.5,317.2c0,0-1-0.8-1.9-1.6c-0.9-0.8-1.9-1.6-1.9-1.6
						s-0.1,1.3-0.3,2.6c-0.2,1.3-0.4,2.6-0.4,2.6"/>
				</g>
				<g>
					<path fill="none" stroke="#010101" stroke-miterlimit="10" d="M135.3,319.6c0,0-0.9-0.9-1.8-1.7c-0.9-0.9-1.7-1.8-1.7-1.8
						s-0.2,1.3-0.5,2.6c-0.3,1.3-0.6,2.6-0.6,2.6"/>
				</g>
				<g>
					<path fill="none" stroke="#010101" stroke-miterlimit="10" d="M129.8,321.5c0,0-0.8-0.9-1.7-1.8c-0.8-0.9-1.6-1.9-1.6-1.9
						s-0.3,1.3-0.7,2.5c-0.3,1.3-0.7,2.5-0.7,2.5"/>
				</g>
				<g>
					<path fill="none" stroke="#010101" stroke-miterlimit="10" d="M124.3,323.1c0,0-0.8-1-1.5-1.9c-0.7-1-1.5-2-1.5-2
						s-0.4,1.2-0.8,2.5c-0.4,1.2-0.9,2.5-0.9,2.5"/>
				</g>
				<g>
					<path fill="none" stroke="#010101" stroke-miterlimit="10" d="M118.7,324.3c0,0-0.7-1-1.4-2c-0.7-1-1.4-2.1-1.4-2.1
						s-0.5,1.2-1,2.4c-0.5,1.2-1,2.4-1,2.4"/>
				</g>
				<g>
					<path fill="none" stroke="#010101" stroke-miterlimit="10" d="M113,325.2c0,0-0.6-1.1-1.3-2.1c-0.6-1.1-1.2-2.1-1.2-2.1
						s-0.5,1.2-1.1,2.4c-0.6,1.2-1.2,2.4-1.2,2.4"/>
				</g>
				<g>
					<path fill="none" stroke="#010101" stroke-miterlimit="10" d="M107.3,325.8c0,0-0.6-1.1-1.1-2.2c-0.6-1.1-1.1-2.2-1.1-2.2
						c-0.3,0.5-0.5,0.9-0.8,0.9c-0.6,1.3-1,2.5-1.5,3.8"/>
				</g>
				<g>
					<path fill="none" stroke="#010101" stroke-miterlimit="10" d="M101.8,326.1c0,0-0.6-1.1-1.2-2.2c-0.6-1.1-1.1-2.2-1.1-2.2
						s-0.6,1.2-1.2,2.3c-0.6,1.1-1.3,2.3-1.3,2.3"/>
				</g>
			</g>
		</g>
	</g>
</g>
<g id="leaf">
	<g>
		<path fill="#A8CF38" stroke="#010101" stroke-width="0.5" stroke-linecap="round" stroke-linejoin="round" d="M95.4,78.3
			c0,0-8.6-15-7.4-22.4l2.1,0.7c0,0-1.8-2.2,0.2-11.3l1.7,1.5c0,0-1.5-4.5,1.4-10.4l1.7,1.5c0,0,0.8-4.1,2.5-8.3l1.9,1.2
			c0,0-0.4-5,1.3-8.5l1.7,1.5c0,0,0.7-6.3,4.1-7.5l0.5,1.5c0,0,2.3-3.9,5.8-6l1.6,1.7c0,0-0.1-3.9,4.3-5.5l0.9,1.4
			c0,0,0.5-5.2,4.6-6l1.2,2.5c0,0,7.1-6.6,8.7-6.8l2.6,1.3c0.3,1.2-0.1,11-0.1,11l2.7-0.6c1.8,3.8-2,7.3-2,7.3l1.7-0.1
			c1.5,4.5-1.7,6.8-1.7,6.8l2.4,0.2c0.5,4-1.2,8.3-1.2,8.3l1.5-0.5c1.2,3.4-3.4,7.8-3.4,7.8l2.2,0.5c-1.8,3.6-6,6.3-6,6.3l2.1,0.7
			c-2.3,3.9-5.1,7-5.1,7l2.2,0.5c-2.9,5.9-7.4,7.5-7.4,7.5l2.2,0.5c-6,7.2-8.8,7.1-8.8,7.1l1.9,1.2c-5.1,5.4-22.3,7.7-22.3,7.7
			L95.4,78.3z"/>
		<path fill="#A8CF38" stroke="#010101" stroke-width="0.5" stroke-linecap="round" stroke-linejoin="round" d="M96.9,79.1
			c0,0-8.6-15-7.4-22.4l2.1,0.7c0,0-1.8-2.2,0.2-11.3l1.7,1.5c0,0-1.5-4.5,1.4-10.4l1.7,1.5c0,0,0.8-4.1,2.5-8.3l1.9,1.2
			c0,0-0.4-5,1.3-8.5l1.7,1.5c0,0,0.7-6.3,4.1-7.5l0.5,1.5c0,0,2.3-3.9,5.8-6l1.6,1.7c0,0-0.1-3.9,4.3-5.5l0.9,1.4
			c0,0,0.5-5.2,4.6-6l1.2,2.5c0,0,7.1-6.6,8.7-6.8l2.6,1.3c0.3,1.2-0.1,11-0.1,11l2.7-0.6c1.8,3.8-2,7.3-2,7.3l1.7-0.1
			c1.5,4.5-1.7,6.8-1.7,6.8l2.4,0.2c0.5,4-1.2,8.3-1.2,8.3l1.5-0.5c1.2,3.4-3.4,7.8-3.4,7.8l2.2,0.5c-1.8,3.6-6,6.3-6,6.3l2.1,0.7
			c-2.3,3.9-5.1,7-5.1,7l2.2,0.5c-2.9,5.9-7.4,7.5-7.4,7.5l2.2,0.5c-6,7.2-8.8,7.1-8.8,7.1l1.9,1.2c-5.1,5.4-22.3,7.7-22.3,7.7
			L96.9,79.1z"/>
		
			<line fill="none" stroke="#010101" stroke-width="0.5" stroke-linecap="round" stroke-linejoin="round" x1="136.4" y1="1.3" x2="97.7" y2="79.5"/>
		<g>
			
				<line fill="none" stroke="#010101" stroke-width="0.5" stroke-linecap="round" stroke-linejoin="round" x1="127.2" y1="5.6" x2="128.5" y2="12.1"/>
			
				<line fill="none" stroke="#010101" stroke-width="0.5" stroke-linecap="round" stroke-linejoin="round" x1="121.4" y1="10.4" x2="125.1" y2="18"/>
			
				<line fill="none" stroke="#010101" stroke-width="0.5" stroke-linecap="round" stroke-linejoin="round" x1="116.3" y1="14.1" x2="121.4" y2="23.8"/>
			
				<line fill="none" stroke="#010101" stroke-width="0.5" stroke-linecap="round" stroke-linejoin="round" x1="108.4" y1="18.2" x2="116.7" y2="30"/>
			
				<line fill="none" stroke="#010101" stroke-width="0.5" stroke-linecap="round" stroke-linejoin="round" x1="104.4" y1="24.1" x2="114.8" y2="36.7"/>
			
				<line fill="none" stroke="#010101" stroke-width="0.5" stroke-linecap="round" stroke-linejoin="round" x1="100.5" y1="31.5" x2="110.9" y2="42.8"/>
			
				<line fill="none" stroke="#010101" stroke-width="0.5" stroke-linecap="round" stroke-linejoin="round" x1="96.5" y1="38" x2="105.5" y2="50.1"/>
			
				<line fill="none" stroke="#010101" stroke-width="0.5" stroke-linecap="round" stroke-linejoin="round" x1="93.3" y1="47.2" x2="103.9" y2="60.4"/>
			
				<line fill="none" stroke="#010101" stroke-width="0.5" stroke-linecap="round" stroke-linejoin="round" x1="91.4" y1="57" x2="99.9" y2="71.1"/>
		</g>
		<g>
			
				<line fill="none" stroke="#010101" stroke-width="0.5" stroke-linecap="round" stroke-linejoin="round" x1="139.4" y1="11.7" x2="133.5" y2="14.5"/>
			
				<line fill="none" stroke="#010101" stroke-width="0.5" stroke-linecap="round" stroke-linejoin="round" x1="139.2" y1="19.2" x2="130.9" y2="20.9"/>
			
				<line fill="none" stroke="#010101" stroke-width="0.5" stroke-linecap="round" stroke-linejoin="round" x1="139.3" y1="25.4" x2="128.5" y2="27.3"/>
			
				<line fill="none" stroke="#010101" stroke-width="0.5" stroke-linecap="round" stroke-linejoin="round" x1="140.8" y1="34.3" x2="126.4" y2="34.8"/>
			
				<line fill="none" stroke="#010101" stroke-width="0.5" stroke-linecap="round" stroke-linejoin="round" x1="138.6" y1="41" x2="122.3" y2="40.4"/>
			
				<line fill="none" stroke="#010101" stroke-width="0.5" stroke-linecap="round" stroke-linejoin="round" x1="135.1" y1="48.6" x2="119.7" y2="47.2"/>
			
				<line fill="none" stroke="#010101" stroke-width="0.5" stroke-linecap="round" stroke-linejoin="round" x1="132.4" y1="55.7" x2="117.3" y2="55.9"/>
			
				<line fill="none" stroke="#010101" stroke-width="0.5" stroke-linecap="round" stroke-linejoin="round" x1="127" y1="63.8" x2="110.1" y2="63.5"/>
			
				<line fill="none" stroke="#010101" stroke-width="0.5" stroke-linecap="round" stroke-linejoin="round" x1="120.4" y1="71.3" x2="104" y2="73.1"/>
		</g>
		<path fill="#FFFFFF" stroke="#010101" stroke-width="0.5" stroke-linecap="round" stroke-linejoin="round" d="M142.8,26.6
			c0,0-5.7,1.5-4.2,4.5c0,0-7,1-3.7,6.5c0,0,1.7,3.7,4.7,2.3c0,0-1.9,3,1,2.5c2.9-0.6,2.2-0.7,2.2-0.7"/>
		<path fill="#FFFFFF" stroke="#010101" stroke-width="0.5" stroke-miterlimit="10" d="M105.6,34.2c-0.2,1.3-1,2.4-1.5,3.6
			c1.5,1.2,3.4-1.3,4.1-2.5c-0.8,2-0.2,6.4,2.5,3.3c-0.5,2,0.6,2.3,2.2,3.1c-0.5,1.7-2.2,2.2-3.2,3.5c-0.6,0.8-0.9,1.9-1.4,2.7
			c-1-0.7-1.2-2.1-2.1-2.8c-0.6,0.5-2.5,3-3.3,2.9c-0.9-0.1-1.8-2.3-2.9-2.7c0.4-1,1-2,1.4-3.1c-0.2-0.2-0.4-0.2-0.5-0.3
			c0.3-1.3,2.7-8,4.2-6.4"/>
		<path fill="#FFFFFF" stroke="#010101" stroke-width="0.5" stroke-miterlimit="10" d="M125.2,19c1.7-1.5,1.8-3.4,4.2-4.6
			c0.2,0.6-0.3,2.8,0.2,3.1c1.3,1.1,3.5-1.5,4.5-2.3c-0.2,0.5-1.2,2.3-0.9,2.9c0.7,1.4,2.3,0.2,3.4,0.3c-0.7,2-2.4,3.4-3.4,5.4
			c-0.6,1.3-0.8,2.4-1.3,3.7c-2.3-0.8-3.8-2.5-4.3-4.8c-0.7,1.4-3.2,6.1-3.5,2.3c-0.2-2.3,1.6-4.6,1.9-6.8"/>
		<path fill="#FFFFFF" stroke="#010101" stroke-width="0.5" stroke-miterlimit="10" d="M122.4,51.5c-0.1,1.4-2,3-2,4.4
			c0,1.9,2.3,3.2,4,3.3c-2,0.6-4,1.8-4.7,3.9c0.9,0.9,2.1,1.3,3.2,1.9c-0.9,0.4-5.4,2.7-2.9,3.7c-0.7,1.7-5.4-0.8-6.6-1.8
			c-2.5-2.2-1.6-4.8-0.5-7.5c1.6-3.8,5-7.9,9.7-7"/>
	</g>
</g>
<g id="water">
	<g>
		<path fill="#55C2E2" stroke="#070707" stroke-width="0.5" stroke-miterlimit="10" d="M28.7,54c0,0-36.1,41.7-4.2,51.2
			c0,0,26.1-0.6,14.6-30.9C39,74.3,29.2,62.7,28.7,54z"/>
		<path fill="none" stroke="#3A97AD" stroke-miterlimit="10" d="M26.5,101.9C31.7,104.3,40,91.5,39.4,87"/>
		
			<ellipse transform="matrix(0.7903 -0.6127 0.6127 0.7903 -53.9982 33.0885)" opacity="0.8" fill="#FFFFFF" cx="21.3" cy="95.4" rx="4.8" ry="5.8"/>
		<path opacity="0.8" fill="#FFFFFF" d="M18.1,72.3c0,0,4.7-11.6,10.3-14.6"/>
	</g>
	<g>
		<path fill="#55C2E2" stroke="#070707" stroke-width="0.5" stroke-miterlimit="10" d="M211.1,262.6c0,0-36.1,41.7-4.2,51.2
			c0,0,26.1-0.6,14.6-30.9C221.4,282.9,211.6,271.3,211.1,262.6z"/>
		<path fill="none" stroke="#3A97AD" stroke-miterlimit="10" d="M208.9,310.4c5.2,2.4,13.5-10.3,12.9-14.9"/>
		
			<ellipse transform="matrix(0.7903 -0.6127 0.6127 0.7903 -143.5192 188.5826)" opacity="0.8" fill="#FFFFFF" cx="203.8" cy="304" rx="4.8" ry="5.8"/>
		<path opacity="0.8" fill="#FFFFFF" d="M200.5,280.9c0,0,4.7-11.6,10.3-14.6"/>
	</g>
	<g>
		<path fill="#55C2E2" stroke="#070707" stroke-width="0.5" stroke-miterlimit="10" d="M24.1,159.3c0,0-21.7,25.1-2.5,30.8
			c0,0,15.7-0.4,8.8-18.6C30.3,171.5,24.4,164.5,24.1,159.3z"/>
		<path fill="none" stroke="#3A97AD" stroke-miterlimit="10" d="M22.8,188c3.1,1.4,8.1-6.2,7.7-9"/>
		
			<ellipse transform="matrix(0.7903 -0.6128 0.6128 0.7903 -110.4445 50.9676)" opacity="0.8" fill="#FFFFFF" cx="19.2" cy="186.8" rx="1.7" ry="2.1"/>
		<path opacity="0.8" fill="#FFFFFF" d="M17.7,170.3c0,0,2.8-7,6.2-8.8"/>
	</g>
	<g>
		<path fill="#55C2E2" stroke="#070707" stroke-width="0.5" stroke-miterlimit="10" d="M185.8,150.5c0,0-21.7,25.1-2.5,30.8
			c0,0,15.7-0.4,8.8-18.6C192,162.7,186,155.7,185.8,150.5z"/>
		<path fill="none" stroke="#3A97AD" stroke-miterlimit="10" d="M184.4,179.3c3.1,1.4,8.1-6.2,7.7-9"/>
		
			<ellipse transform="matrix(0.7904 -0.6126 0.6126 0.7904 -71.1584 148.1243)" opacity="0.8" fill="#FFFFFF" cx="180.9" cy="178" rx="1.7" ry="2.1"/>
		<path opacity="0.8" fill="#FFFFFF" d="M179.4,161.5c0,0,2.8-7,6.2-8.8"/>
	</g>
	<g>
		<path fill="#55C2E2" stroke="#070707" stroke-width="0.5" stroke-miterlimit="10" d="M180.1,112.7c0,0-13.5,15.7-1.6,19.2
			c0,0,9.8-0.2,5.5-11.6C184,120.3,180.3,116,180.1,112.7z"/>
		<path fill="none" stroke="#3A97AD" stroke-miterlimit="10" d="M179.3,130.7c1.9,0.9,5.1-3.9,4.8-5.6"/>
		
			<ellipse transform="matrix(0.7906 -0.6123 0.6123 0.7906 -41.5066 135.1048)" opacity="0.8" fill="#FFFFFF" cx="176.8" cy="128.2" rx="0.9" ry="1"/>
		<path opacity="0.8" fill="#FFFFFF" d="M176.1,119.6c0,0,1.8-4.4,3.9-5.5"/>
	</g>
	<g>
		<path fill="#55C2E2" stroke="#070707" stroke-width="0.5" stroke-miterlimit="10" d="M6.5,262.6c0,0-13.5,15.7-1.6,19.2
			c0,0,9.8-0.2,5.5-11.6C10.4,270.2,6.7,265.8,6.5,262.6z"/>
		<path fill="none" stroke="#3A97AD" stroke-miterlimit="10" d="M5.7,280.5c1.9,0.9,5.1-3.9,4.8-5.6"/>
		
			<ellipse transform="matrix(0.7904 -0.6126 0.6126 0.7904 -169.6916 60.236)" opacity="0.8" fill="#FFFFFF" cx="3.2" cy="278.1" rx="0.9" ry="1"/>
		<path opacity="0.8" fill="#FFFFFF" d="M2.5,269.4c0,0,1.8-4.4,3.9-5.5"/>
	</g>
</g>
</svg>
