<?xml version="1.0" encoding="utf-8"?>
<!-- Generator: Adobe Illustrator 17.1.0, SVG Export Plug-In . SVG Version: 6.00 Build 0)  -->
<!DOCTYPE svg PUBLIC "-//W3C//DTD SVG 1.1//EN" "http://www.w3.org/Graphics/SVG/1.1/DTD/svg11.dtd">
<svg version="1.1" id="Layer_1" xmlns="http://www.w3.org/2000/svg" xmlns:xlink="http://www.w3.org/1999/xlink" x="0px" y="0px"
	 viewBox="0 0 100 100" enable-background="new 0 0 100 100" xml:space="preserve">
<pattern  y="100" width="2.3" height="2.3" patternUnits="userSpaceOnUse" id="New_Pattern_Swatch_12" viewBox="0 -2.3 2.3 2.3" overflow="visible">
	<g>
		<polygon fill="none" points="0,0 2.3,0 2.3,-2.3 0,-2.3 		"/>
		<g>
			<polygon fill="none" points="2.3,-2.3 0,-2.3 0,0 2.3,0 			"/>
			<g>
				<path fill="#010101" d="M1.3-1.1c0-0.1-0.1-0.2-0.2-0.2C1.1-1.3,1-1.2,1-1.1s0.1,0.2,0.2,0.2C1.3-0.9,1.3-1,1.3-1.1z"/>
			</g>
		</g>
	</g>
</pattern>
<g id="legs">
	<path fill="#FFFFFF" stroke="#010101" stroke-miterlimit="10" d="M61,56.7c0,0,0-0.1,0.1-0.2c0.5-1.3,3.5-8.9,1.2-13.5
		c0,0,0.4,2.4,0.3,2.6c0,0-1.7-8.7-4.4-9.4c0,0,2.7,3.7,2.9,6.9c0,0.1,0,0.2,0,0.3c0,0-0.9-2.6-1.6-2.6c0,0,2,4.8,2.5,6.9
		c0,0,0.7,3.9-1.3,8.3L61,56.7z"/>
	<path fill="#FFFFFF" stroke="#010101" stroke-miterlimit="10" d="M58.5,55c0,0,1.5-0.3,2.2,0c0.8,0.3,0.3,0,0.3,0l0.1,1.8
		c0,0-1.2,1.6-3.3,1.7C57.9,58.5,59,56.2,58.5,55z"/>
	<path fill="#FFFFFF" stroke="#010101" stroke-miterlimit="10" d="M32.5,57.2c0,0,0-0.1-0.1-0.2c-0.5-1.3-3.5-8.9-1.2-13.5
		c0,0-0.4,2.4-0.3,2.6c0,0,1.7-8.7,4.4-9.4c0,0-2.7,3.7-2.9,6.9c0,0.1,0,0.2,0,0.3c0,0,0.9-2.6,1.6-2.6c0,0-2,4.8-2.5,6.9
		c0,0-0.7,3.9,1.3,8.3L32.5,57.2z"/>
	<path fill="#FFFFFF" stroke="#010101" stroke-miterlimit="10" d="M35.1,55.6c0,0-1.5-0.3-2.2,0c-0.8,0.3-0.3,0-0.3,0l-0.1,1.8
		c0,0,1.2,1.6,3.3,1.7C35.7,59.1,34.6,56.7,35.1,55.6z"/>
	<path fill="#FFFFFF" stroke="#010101" stroke-miterlimit="10" d="M57.9,63.3c0,0,2.4-0.7,2.4,0.4c0.1,1.1-1.4,1.9-1.4,1.9
		L57.9,63.3z"/>
	<path fill="#FFFFFF" stroke="#010101" stroke-miterlimit="10" d="M60.3,63.7c0,0,4.4,0.5,5.3,10.2c0,0-0.3-1.6-0.8-1.7
		c0,0,2,8.6,1.9,10.6c-0.1,2.1,0,0.3,0,0.3s-1.6-9.4-3-10.6c0,0,0-5.8-3.6-8.2V63.7z"/>
	<path fill="#FFFFFF" stroke="#010101" stroke-miterlimit="10" d="M36.6,63.3c0,0-2.4-0.7-2.4,0.4c-0.1,1.1,1.4,1.9,1.4,1.9
		L36.6,63.3z"/>
	<path fill="#FFFFFF" stroke="#010101" stroke-miterlimit="10" d="M34.1,63.7c0,0-4.4,0.5-5.3,10.2c0,0,0.3-1.6,0.8-1.7
		c0,0-2,8.6-1.9,10.6c0.1,2.1,0,0.3,0,0.3s1.6-9.4,3-10.6c0,0,0-5.8,3.6-8.2L34.1,63.7L34.1,63.7z"/>
	<path fill="#FFFFFF" stroke="#010101" stroke-miterlimit="10" d="M60,72.9c0,0,2.4,0.5,2.6,5l-2.2,0.4c0,0,0.7-1.9-0.4-4.1
		C60,74.2,60,72.9,60,72.9z"/>
	<path fill="#FFFFFF" stroke="#010101" stroke-miterlimit="10" d="M61.7,78c0,0,1.6,3,0.5,5.8c-1.1,2.8-1.3,5.1-0.5,6.9
		c0,0-1.7-0.5-1.3-2.6c0.3-2.1,1.1-5.9,1.1-5.9s0-2.9-0.4-4L61.7,78z"/>
	<path fill="#FFFFFF" stroke="#010101" stroke-miterlimit="10" d="M34.6,72.9c0,0-2.4,0.5-2.6,5l2.2,0.4c0,0-0.7-1.9,0.4-4.1
		C34.6,74.2,34.6,72.9,34.6,72.9z"/>
	<path fill="#FFFFFF" stroke="#010101" stroke-miterlimit="10" d="M32.9,78c0,0-1.6,3-0.5,5.8c1.1,2.8,1.3,5.1,0.5,6.9
		c0,0,1.7-0.5,1.3-2.6c-0.3-2.1-1.1-5.9-1.1-5.9s0-2.9,0.4-4L32.9,78z"/>
</g>
<g id="basebody">
	<path fill="#FFFFFF" stroke="#010101" stroke-miterlimit="10" d="M58.2,48.7c0,0,0.5-12.7-5.3-12.2c0,0-1.2,0-2.7,1.7
		c0,0-2.9,0.6-3.4-1.1h-0.5c-0.5,1.7-3.4,1.1-3.4,1.1c-1.5-1.7-2.7-1.7-2.7-1.7c-5.8-0.5-5.3,12.2-5.3,12.2S47.4,60,58.2,48.7z"/>
	<path fill="#FFFFFF" stroke="#010101" stroke-miterlimit="10" d="M37,62.4c0,0-2.9-4.8-2.7-13.8c0,0,2.9,0.2,4.8,2.1
		c2,1.9,15.9,0,15.9,0s2-2.6,4-2.1c0,0-0.3,11.3-3.1,13.8C55.9,62.4,48.1,65.9,37,62.4z"/>
	<path fill="#FFFFFF" stroke="#010101" stroke-miterlimit="10" d="M35.4,64.6c0,0-5.8,25.7,7.5,33c0,0,3,0.7,3.9,0V65
		c0,0-1.9-3.4-3-3.2c-1.1,0.1-6.7,0.5-6.7,0.5S35.8,62.5,35.4,64.6z"/>
	<path fill="#FFFFFF" stroke="#010101" stroke-miterlimit="10" d="M58.7,64.6c0,0,5.8,25.7-7.5,33c0,0-3,0.7-3.9,0V65
		c0,0,1.9-3.4,3-3.2s6.7,0.5,6.7,0.5S58.3,62.5,58.7,64.6z"/>
	<path fill="#FFFFFF" stroke="#010101" stroke-miterlimit="10" d="M44.1,29.8c-1.1-0.3-0.7-1.6-0.7-1.6c3-2.4,2.2-3.5,2.2-3.5
		c-7.3,2.1-5.4,11.9-5.4,11.9c1.9,0.3,1.6,1.8,3.7,1.8c0.1,0,0.2,0,0.3,0c1.9-0.1,1.5-1.8,1.5-1.8s0.3-0.7-0.9-1.2s-0.6-3.6-0.6-3.6
		s1.1-0.7,1.2-1.2c0-0.5,0,0,0,0L44.1,29.8z"/>
	<path fill="#FFFFFF" stroke="#010101" stroke-miterlimit="10" d="M48.9,29.8c1.1-0.3,0.7-1.6,0.7-1.6c-3-2.4-2.2-3.5-2.2-3.5
		c7.3,2.1,5.4,11.9,5.4,11.9c-1.9,0.3-1.6,1.8-3.7,1.8c-0.1,0-0.2,0-0.3,0c-1.9-0.1-1.5-1.8-1.5-1.8s-0.3-0.7,0.9-1.2
		s0.6-3.6,0.6-3.6s-1.2-0.7-1.2-1.2c0-0.5,0,0,0,0L48.9,29.8z"/>
	<path fill="#FFFFFF" stroke="#010101" stroke-miterlimit="10" d="M45.3,30.6"/>
</g>
<g id="bodycolor">
	<path fill="#D0DD28" stroke="#010101" stroke-miterlimit="10" d="M58.4,48.7c0,0,0.5-12.7-5.3-12.2c0,0-1.2,0-2.7,1.7
		c0,0-2.9,0.6-3.4-1.1h-0.5c-0.5,1.7-3.4,1.1-3.4,1.1c-1.5-1.7-2.7-1.7-2.7-1.7C34.4,36,35,48.7,35,48.7S47.6,60,58.4,48.7z"/>
	<path fill="#6CBE45" stroke="#010101" stroke-miterlimit="10" d="M37.1,62.4c0,0-2.9-4.8-2.7-13.8c0,0,2.9,0.2,4.8,2.1
		c2,1.9,15.9,0,15.9,0s2-2.6,4-2.1c0,0-0.3,11.3-3.1,13.8C56.1,62.4,48.3,65.9,37.1,62.4z"/>
	<path fill="#D0DD28" stroke="#010101" stroke-miterlimit="10" d="M35.6,64.6c0,0-5.8,25.7,7.5,33c0,0,3,0.7,3.9,0V65
		c0,0-1.9-3.4-3-3.2c-1.1,0.1-6.7,0.5-6.7,0.5S36,62.5,35.6,64.6z"/>
	<path fill="#D0DD28" stroke="#010101" stroke-miterlimit="10" d="M58.9,64.6c0,0,5.8,25.7-7.5,33c0,0-3,0.7-3.9,0V65
		c0,0,1.9-3.4,3-3.2c1.1,0.1,6.7,0.5,6.7,0.5S58.5,62.5,58.9,64.6z"/>
	<path fill="#FFFFFF" stroke="#000000" stroke-miterlimit="10" d="M44.2,29.8c-1.1-0.3-0.7-1.6-0.7-1.6c3-2.4,2.2-3.5,2.2-3.5
		c-7.3,2.1-5.4,11.9-5.4,11.9c1.9,0.3,1.6,1.8,3.7,1.8c0.1,0,0.2,0,0.3,0c1.9-0.1,1.5-1.8,1.5-1.8s0.3-0.7-0.9-1.2s-0.6-3.6-0.6-3.6
		s1.1-0.7,1.2-1.2c0-0.5,0,0,0,0L44.2,29.8z"/>
	<path fill="#FFFFFF" stroke="#000000" stroke-miterlimit="10" d="M49.1,29.8c1.1-0.3,0.7-1.6,0.7-1.6c-3-2.4-2.2-3.5-2.2-3.5
		c7.3,2.1,5.4,11.9,5.4,11.9c-1.9,0.3-1.6,1.8-3.7,1.8c-0.1,0-0.2,0-0.3,0c-1.9-0.1-1.5-1.8-1.5-1.8s-0.3-0.7,0.9-1.2
		s0.6-3.6,0.6-3.6s-1.2-0.7-1.2-1.2c0-0.5,0,0,0,0L49.1,29.8z"/>
	<path fill="#6CBE45" stroke="#010101" stroke-miterlimit="10" d="M45.5,30.6"/>
</g>
<g id="eyes">
	<path fill="#FF9900" stroke="#010101" stroke-width="0.5" stroke-miterlimit="10" d="M35.7,41.9c0,0,0-5.3,3.9-5.2
		C39.7,36.8,40.8,41.5,35.7,41.9z"/>
	<path fill="#FF9900" stroke="#010101" stroke-width="0.5" stroke-miterlimit="10" d="M57.7,41.9c0,0,0-5.3-3.9-5.2
		C53.7,36.8,52.7,41.5,57.7,41.9z"/>
</g>
<g id="antennae">
	<path fill="none" stroke="#010101" stroke-miterlimit="10" d="M53.8,36.9c0,0,1.1-5.1,4-5.8c2.9-0.6,4.8-4.2,5.3-5.9"/>
	<path fill="none" stroke="#010101" stroke-miterlimit="10" d="M39,36.3c0,0-1.1-5.1-4-5.8c-2.9-0.6-4.8-4.2-5.3-5.9"/>
</g>
<g id="markings">
	<path fill="#010101" d="M42.9,92.4c0,0-5.1-11.3,0-22.9"/>
	<path fill="#010101" d="M51.6,92.4c0,0,5.1-11.3,0-22.9"/>
</g>
<g id="dots">
	
		<pattern  id="SVGID_1_" xlink:href="#New_Pattern_Swatch_12" patternTransform="matrix(0.2692 0 0 -0.2692 -5987.0737 -10317.8389)">
	</pattern>
	<path fill="url(#SVGID_1_)" stroke="#0C0C0C" stroke-miterlimit="10" d="M35.1,48.8"/>
	
		<pattern  id="SVGID_2_" xlink:href="#New_Pattern_Swatch_12" patternTransform="matrix(0.2692 0 0 -0.2692 -5987.0737 -10317.8389)">
	</pattern>
	<path fill="url(#SVGID_2_)" stroke="#0C0C0C" stroke-miterlimit="10" d="M58.4,48.8c0.5,0.1-0.8-6.9-0.8-6.9
		c-5-0.5-3.9-5.2-3.9-5.2l-0.6-0.1c0,0-1.2,0-2.7,1.7c0,0-2.9,0.6-3.4-1.1h-0.5c-0.5,1.7-3.4,1.1-3.4,1.1c-1.5-1.7-2.7-1.7-2.7-1.7
		l-0.7,0.1c0,0,1.1,4.8-3.9,5.2c0,0-1.5,5.6-0.7,6.6c0,0,3.2,0.7,4.3,2.1c0,0,2.2,1.9,15.7,0C55,50.7,56.5,48.3,58.4,48.8z"/>
	
		<pattern  id="SVGID_3_" xlink:href="#New_Pattern_Swatch_12" patternTransform="matrix(0.2692 0 0 -0.2692 -5987.0737 -10317.8389)">
	</pattern>
	<path fill="url(#SVGID_3_)" stroke="#0C0C0C" stroke-miterlimit="10" d="M35.7,64.9c0,0-5.8,25.7,7.5,33c0,0,3,0.7,3.9,0V65.3
		c0,0-1.9-3.4-3-3.2c-1.1,0.1-6.7,0.5-6.7,0.5S36.1,62.7,35.7,64.9z"/>
	
		<pattern  id="SVGID_4_" xlink:href="#New_Pattern_Swatch_12" patternTransform="matrix(0.2692 0 0 -0.2692 -5987.0737 -10317.8389)">
	</pattern>
	<path fill="url(#SVGID_4_)" stroke="#0C0C0C" stroke-miterlimit="10" d="M58.7,64.9c0,0,5.8,25.7-7.5,33c0,0-3,0.7-3.9,0V65.3
		c0,0,1.9-3.4,3-3.2c1.1,0.1,6.7,0.5,6.7,0.5S58.3,62.7,58.7,64.9z"/>
</g>
<g id="fur">
	<g>
		<g>
			<path fill="none" stroke="#0000FF" stroke-miterlimit="10" d="M48.6,24.5"/>
		</g>
	</g>
	<g>
		<g>
			<path fill="none" stroke="#0000FF" stroke-miterlimit="10" d="M-0.7,95"/>
		</g>
	</g>
	<g>
		<g>
			<g>
				<g>
					<path fill="none" stroke="#0000FF" stroke-miterlimit="10" d="M48,98.9c0,0-0.3-0.2-0.6-0.3c-0.3-0.2-0.5-0.4-0.5-0.4
						s0,0.1,0,0.2s0,0.3-0.1,0.5c-0.1,0.3-0.3,0.7-0.3,0.7"/>
				</g>
				<g>
					<path fill="none" stroke="#0000FF" stroke-miterlimit="10" d="M46.2,99.6c0,0-0.2-0.3-0.3-0.6c-0.2-0.3-0.3-0.6-0.3-0.6
						s-0.2,0.3-0.3,0.6c-0.2,0.3-0.4,0.6-0.4,0.6"/>
				</g>
				<g>
					<path fill="none" stroke="#0000FF" stroke-miterlimit="10" d="M44.6,99.6c0,0-0.1-0.3-0.2-0.6c-0.1-0.3-0.2-0.6-0.2-0.6
						s-0.2,0.3-0.4,0.5c-0.2,0.3-0.5,0.5-0.5,0.5"/>
				</g>
				<g>
					<path fill="none" stroke="#0000FF" stroke-miterlimit="10" d="M43,99.4c0,0-0.1-0.3-0.2-0.6c0-0.1,0-0.2-0.1-0.2
						c0,0,0-0.1,0-0.1v0l0,0l0,0l0,0c-0.1,0,0.1,0,0.1,0l0,0l0,0l0,0c0,0,0,0,0-0.1c0-0.1,0-0.2,0-0.2s-0.3,0.2-0.6,0.3
						c-0.3,0.2-0.6,0.3-0.6,0.3"/>
				</g>
				<g>
					<path fill="none" stroke="#0000FF" stroke-miterlimit="10" d="M41.4,98.6c0,0,0.1-0.3,0.1-0.7c0.1-0.3,0.1-0.6,0.1-0.6
						s-0.3,0.2-0.6,0.3c-0.3,0.1-0.7,0.3-0.7,0.3"/>
				</g>
				<g>
					<path fill="none" stroke="#0000FF" stroke-miterlimit="10" d="M40.1,97.7c0,0,0.1-0.3,0.2-0.6c0.1-0.3,0.2-0.6,0.2-0.6
						s-0.3,0.1-0.7,0.2c-0.3,0.1-0.7,0.2-0.7,0.2"/>
				</g>
				<g>
					<path fill="none" stroke="#0000FF" stroke-miterlimit="10" d="M38.9,96.6c0,0,0.1-0.3,0.2-0.6c0.1-0.3,0.2-0.6,0.2-0.6
						s-0.3,0.1-0.7,0.1c-0.3,0.1-0.7,0.1-0.7,0.1"/>
				</g>
				<g>
					<path fill="none" stroke="#0000FF" stroke-miterlimit="10" d="M37.9,95.5c0,0,0.1-0.3,0.3-0.6s0.3-0.6,0.3-0.6
						s-0.3,0.1-0.7,0.1c-0.3,0-0.7,0.1-0.7,0.1"/>
				</g>
				<g>
					<path fill="none" stroke="#0000FF" stroke-miterlimit="10" d="M36.9,94.2c0,0,0.2-0.3,0.3-0.6c0.2-0.3,0.4-0.6,0.4-0.6
						s-0.3,0-0.7,0s-0.7,0-0.7,0"/>
				</g>
				<g>
					<path fill="none" stroke="#0000FF" stroke-miterlimit="10" d="M36.1,92.8c0,0,0.2-0.3,0.4-0.5c0.2-0.3,0.4-0.5,0.4-0.5
						s-0.3,0-0.7-0.1c-0.3,0-0.7-0.1-0.7-0.1"/>
				</g>
				<g>
					<path fill="none" stroke="#0000FF" stroke-miterlimit="10" d="M35.4,91.4c0,0,0.2-0.2,0.4-0.5c0.2-0.2,0.5-0.5,0.5-0.5
						s-0.3-0.1-0.7-0.1c-0.3-0.1-0.7-0.1-0.7-0.1"/>
				</g>
				<g>
					<path fill="none" stroke="#0000FF" stroke-miterlimit="10" d="M34.8,90c0,0,0.2-0.2,0.5-0.5c0.2-0.2,0.5-0.5,0.5-0.5
						S35.4,89,35,88.9c-0.3-0.1-0.7-0.2-0.7-0.2"/>
				</g>
				<g>
					<path fill="none" stroke="#0000FF" stroke-miterlimit="10" d="M34.3,88.5c0,0,0.2-0.2,0.5-0.4c0.2-0.2,0.5-0.4,0.5-0.4
						s-0.3-0.1-0.7-0.2c-0.3-0.1-0.7-0.2-0.7-0.2"/>
				</g>
				<g>
					<path fill="none" stroke="#0000FF" stroke-miterlimit="10" d="M33.8,87.1c0,0,0.3-0.2,0.5-0.4c0.3-0.2,0.5-0.4,0.5-0.4
						s-0.3-0.1-0.7-0.2c-0.3-0.1-0.7-0.2-0.7-0.2"/>
				</g>
				<g>
					<path fill="none" stroke="#0000FF" stroke-miterlimit="10" d="M33.5,85.5c0,0,0.3-0.2,0.5-0.4c0.3-0.2,0.5-0.4,0.5-0.4
						s-0.3-0.1-0.7-0.2c-0.3-0.1-0.6-0.3-0.6-0.3"/>
				</g>
				<g>
					<path fill="none" stroke="#0000FF" stroke-miterlimit="10" d="M33.2,84c0,0,0.3-0.2,0.6-0.4c0.3-0.2,0.6-0.3,0.6-0.3
						S34,83.1,33.7,83c-0.3-0.1-0.6-0.3-0.6-0.3"/>
				</g>
				<g>
					<path fill="none" stroke="#0000FF" stroke-miterlimit="10" d="M33,82.5c0,0,0.3-0.2,0.6-0.3c0.3-0.2,0.6-0.3,0.6-0.3
						s-0.3-0.2-0.6-0.3c-0.3-0.2-0.6-0.3-0.6-0.3"/>
				</g>
				<g>
					<path fill="none" stroke="#0000FF" stroke-miterlimit="10" d="M32.9,80.9c0,0,0.3-0.2,0.6-0.3c0.3-0.2,0.6-0.3,0.6-0.3
						s-0.3-0.2-0.6-0.3c-0.3-0.2-0.6-0.3-0.6-0.3"/>
				</g>
				<g>
					<path fill="none" stroke="#0000FF" stroke-miterlimit="10" d="M32.8,79.4c0,0,0.3-0.2,0.6-0.3s0.6-0.3,0.6-0.3
						s-0.3-0.2-0.6-0.3c-0.3-0.2-0.6-0.3-0.6-0.3"/>
				</g>
				<g>
					<path fill="none" stroke="#0000FF" stroke-miterlimit="10" d="M32.7,77.9c0,0,0.3-0.1,0.6-0.3s0.6-0.3,0.6-0.3
						s-0.3-0.2-0.6-0.3c-0.3-0.2-0.6-0.4-0.6-0.4"/>
				</g>
				<g>
					<path fill="none" stroke="#0000FF" stroke-miterlimit="10" d="M32.7,76.3l1.2-0.5c0,0-0.3-0.2-0.6-0.4
						c-0.3-0.2-0.6-0.4-0.6-0.4"/>
				</g>
				<g>
					<path fill="none" stroke="#0000FF" stroke-miterlimit="10" d="M32.8,74.8l1.2-0.5c0,0-0.3-0.2-0.6-0.4
						c-0.3-0.2-0.6-0.4-0.6-0.4"/>
				</g>
				<g>
					<path fill="none" stroke="#0000FF" stroke-miterlimit="10" d="M32.9,73.3l1.2-0.5c0,0-0.3-0.2-0.6-0.4C33.2,72.2,33,72,33,72"
						/>
				</g>
				<g>
					<path fill="none" stroke="#0000FF" stroke-miterlimit="10" d="M33,71.7l1.3-0.4c0,0-0.3-0.2-0.6-0.4c-0.3-0.2-0.6-0.4-0.6-0.4"
						/>
				</g>
				<g>
					<path fill="none" stroke="#0000FF" stroke-miterlimit="10" d="M33.1,70.2l1.3-0.4c0,0-0.3-0.2-0.6-0.4
						c-0.3-0.2-0.6-0.4-0.6-0.4"/>
				</g>
				<g>
					<path fill="none" stroke="#0000FF" stroke-miterlimit="10" d="M33.3,68.7l1.3-0.4c0,0-0.3-0.2-0.5-0.5
						c-0.3-0.2-0.5-0.5-0.5-0.5"/>
				</g>
				<g>
					<path fill="none" stroke="#0000FF" stroke-miterlimit="10" d="M33.5,67.2l1.3-0.3c0,0-0.3-0.2-0.5-0.5
						c-0.3-0.2-0.5-0.5-0.5-0.5"/>
				</g>
				<g>
					<path fill="none" stroke="#0000FF" stroke-miterlimit="10" d="M33.8,65.7c0,0,0.3-0.1,0.6-0.2c0.3-0.1,0.6-0.2,0.6-0.2
						s-0.3-0.2-0.5-0.5c-0.1-0.1-0.1-0.1-0.2-0.2s-0.1-0.1-0.2-0.2c-0.1-0.1-0.2-0.2-0.2-0.2"/>
				</g>
				<g>
					<path fill="none" stroke="#0000FF" stroke-miterlimit="10" d="M34.1,64.1c0,0,0.3-0.1,0.7-0.1c0.3-0.1,0.6-0.1,0.6-0.1
						s-0.2-0.3-0.4-0.6c-0.2-0.3-0.3-0.6-0.3-0.6"/>
				</g>
				<g>
					<path fill="none" stroke="#0000FF" stroke-miterlimit="10" d="M34.8,62.5c0,0,0.3,0.1,0.7,0.1c0.3,0.1,0.6,0.2,0.6,0.2
						S36,62.6,36,62.2s0-0.7,0-0.7"/>
				</g>
				<g>
					<path fill="none" stroke="#0000FF" stroke-miterlimit="10" d="M36.3,61.3c0,0,0.3,0.2,0.5,0.5c0.2,0.2,0.4,0.5,0.3,0.5
						c0,0,0.1-0.3,0.3-0.6c0.2-0.3,0.3-0.6,0.3-0.6"/>
				</g>
				<g>
					<polyline fill="none" stroke="#0000FF" stroke-miterlimit="10" points="38,61 38.7,62.2 39.3,61 					"/>
				</g>
				<g>
					<polyline fill="none" stroke="#0000FF" stroke-miterlimit="10" points="39.5,60.9 40.2,62.1 40.8,60.8 					"/>
				</g>
				<g>
					<polyline fill="none" stroke="#0000FF" stroke-miterlimit="10" points="41,60.8 41.7,62 42.3,60.7 					"/>
				</g>
				<g>
					<path fill="none" stroke="#0000FF" stroke-miterlimit="10" d="M42.5,60.7l0.6,1.2c0,0,0.2-0.3,0.3-0.6c0.2-0.3,0.3-0.6,0.3-0.6
						"/>
				</g>
			</g>
		</g>
	</g>
	<g>
		<g>
			<g>
				<g>
					<path fill="none" stroke="#0000FF" stroke-miterlimit="10" d="M50.3,60.3c0,0,0.1,0.3,0.2,0.6c0.1,0.3,0.2,0.6,0.2,0.6l0.8-1.2
						"/>
				</g>
				<g>
					<polyline fill="none" stroke="#0000FF" stroke-miterlimit="10" points="51.8,60.5 52.3,61.7 53.1,60.6 					"/>
				</g>
				<g>
					<polyline fill="none" stroke="#0000FF" stroke-miterlimit="10" points="53.3,60.6 53.8,61.9 54.6,60.7 					"/>
				</g>
				<g>
					<polyline fill="none" stroke="#0000FF" stroke-miterlimit="10" points="54.8,60.7 55.3,62 56.1,60.8 					"/>
				</g>
				<g>
					<path fill="none" stroke="#0000FF" stroke-miterlimit="10" d="M56.4,60.8l0.5,1.2c0.1-0.1,0.1-0.1,0.1-0.1
						c0.1-0.2,0.2-0.3,0.4-0.5c0.2-0.1,0.3-0.3,0.5-0.4"/>
				</g>
				<g>
					<path fill="none" stroke="#0000FF" stroke-miterlimit="10" d="M58.1,61.2c0,0,0,0.3-0.1,0.7s-0.2,0.6-0.2,0.6s0.3-0.1,0.7-0.2
						c0.3-0.1,0.7-0.1,0.7-0.1"/>
				</g>
				<g>
					<path fill="none" stroke="#0000FF" stroke-miterlimit="10" d="M59.4,62.5c0,0-0.2,0.3-0.4,0.6c-0.2,0.3-0.4,0.5-0.4,0.5
						s0.3,0,0.7,0.1c0.3,0.1,0.7,0.2,0.7,0.2"/>
				</g>
				<g>
					<path fill="none" stroke="#0000FF" stroke-miterlimit="10" d="M60.1,64.1c0,0-0.1,0.1-0.2,0.1c-0.1,0.1-0.2,0.2-0.4,0.3
						c-0.3,0.2-0.5,0.4-0.5,0.4s0.3,0.1,0.7,0.2c0.3,0.1,0.7,0.2,0.7,0.2"/>
				</g>
				<g>
					<path fill="none" stroke="#0000FF" stroke-miterlimit="10" d="M60.4,65.7c0,0-0.3,0.2-0.5,0.4c-0.3,0.2-0.5,0.4-0.5,0.4
						s0.3,0.1,0.6,0.3c0.3,0.1,0.6,0.3,0.6,0.3"/>
				</g>
				<g>
					<path fill="none" stroke="#0000FF" stroke-miterlimit="10" d="M60.6,67.2l-1.1,0.7c0,0,0.3,0.1,0.6,0.3s0.6,0.3,0.6,0.3"/>
				</g>
				<g>
					<path fill="none" stroke="#0000FF" stroke-miterlimit="10" d="M60.8,68.7l-1.1,0.7c0,0,0.3,0.1,0.6,0.3C60.7,69.8,61,70,61,70"
						/>
				</g>
				<g>
					<path fill="none" stroke="#0000FF" stroke-miterlimit="10" d="M61,70.2l-1.2,0.7c0,0,0.3,0.2,0.6,0.3c0.3,0.2,0.6,0.3,0.6,0.3"
						/>
				</g>
				<g>
					<path fill="none" stroke="#0000FF" stroke-miterlimit="10" d="M61.2,71.7L60,72.4c0,0,0.3,0.2,0.6,0.3c0.3,0.2,0.6,0.3,0.6,0.3
						"/>
				</g>
				<g>
					<path fill="none" stroke="#0000FF" stroke-miterlimit="10" d="M61.3,73.3l-1.2,0.6c0,0,0.3,0.2,0.6,0.3
						c0.3,0.2,0.6,0.3,0.6,0.3"/>
				</g>
				<g>
					<path fill="none" stroke="#0000FF" stroke-miterlimit="10" d="M61.4,74.8l-1.2,0.6c0,0,0.3,0.2,0.6,0.3
						c0.3,0.2,0.6,0.3,0.6,0.3"/>
				</g>
				<g>
					<path fill="none" stroke="#0000FF" stroke-miterlimit="10" d="M61.4,76.3l-1.2,0.6c0,0,0.3,0.2,0.6,0.4
						c0.3,0.2,0.6,0.4,0.6,0.4"/>
				</g>
				<g>
					<path fill="none" stroke="#0000FF" stroke-miterlimit="10" d="M61.4,77.9c0,0-0.3,0.1-0.6,0.3c-0.3,0.1-0.6,0.2-0.6,0.2
						s0.3,0.2,0.6,0.4s0.6,0.4,0.6,0.4"/>
				</g>
				<g>
					<path fill="none" stroke="#0000FF" stroke-miterlimit="10" d="M61.3,79.4c0,0-0.3,0.1-0.6,0.2c-0.3,0.1-0.6,0.2-0.6,0.2
						s0.3,0.2,0.6,0.4c0.3,0.2,0.6,0.4,0.6,0.4"/>
				</g>
				<g>
					<path fill="none" stroke="#0000FF" stroke-miterlimit="10" d="M61.2,80.9c0,0-0.3,0.1-0.6,0.2c-0.3,0.1-0.6,0.2-0.6,0.2
						s0.3,0.2,0.6,0.4c0.3,0.2,0.6,0.4,0.6,0.4"/>
				</g>
				<g>
					<path fill="none" stroke="#0000FF" stroke-miterlimit="10" d="M61.1,82.5c0,0-0.3,0.1-0.6,0.2c-0.3,0.1-0.6,0.2-0.6,0.2
						s0.3,0.2,0.5,0.4c0.3,0.2,0.5,0.5,0.5,0.5"/>
				</g>
				<g>
					<path fill="none" stroke="#0000FF" stroke-miterlimit="10" d="M60.8,84c0,0-0.3,0.1-0.6,0.2c-0.3,0.1-0.6,0.2-0.6,0.2
						s0.3,0.2,0.5,0.5c0.3,0.2,0.5,0.5,0.5,0.5"/>
				</g>
				<g>
					<path fill="none" stroke="#0000FF" stroke-miterlimit="10" d="M60.6,85.5c0,0-0.3,0.1-0.6,0.1s-0.6,0.1-0.6,0.1
						s0.2,0.2,0.5,0.5c0.2,0.2,0.5,0.5,0.5,0.5"/>
				</g>
				<g>
					<path fill="none" stroke="#0000FF" stroke-miterlimit="10" d="M60.2,87c0,0-0.3,0.1-0.6,0.1c-0.3,0.1-0.6,0.1-0.6,0.1
						s0.2,0.3,0.5,0.5c0.2,0.3,0.5,0.5,0.5,0.5"/>
				</g>
				<g>
					<path fill="none" stroke="#0000FF" stroke-miterlimit="10" d="M59.8,88.5c0,0-0.3,0-0.7,0.1c-0.3,0-0.7,0.1-0.7,0.1
						s0.2,0.3,0.5,0.5c0.2,0.3,0.4,0.6,0.4,0.6"/>
				</g>
				<g>
					<path fill="none" stroke="#0000FF" stroke-miterlimit="10" d="M59.2,90c0,0-0.3,0-0.7,0c-0.3,0-0.7,0-0.7,0s0.2,0.3,0.4,0.6
						c0.2,0.3,0.4,0.6,0.4,0.6"/>
				</g>
				<g>
					<path fill="none" stroke="#0000FF" stroke-miterlimit="10" d="M58.6,91.4c0,0-0.3,0-0.7,0c-0.3,0-0.7,0-0.7,0s0.2,0.3,0.4,0.6
						c0.2,0.3,0.3,0.6,0.3,0.6"/>
				</g>
				<g>
					<path fill="none" stroke="#0000FF" stroke-miterlimit="10" d="M57.9,92.8c0,0-0.3,0-0.7-0.1c-0.3-0.1-0.6-0.1-0.6-0.1
						s0.2,0.3,0.3,0.6c0.2,0.3,0.3,0.6,0.3,0.6"/>
				</g>
				<g>
					<path fill="none" stroke="#0000FF" stroke-miterlimit="10" d="M57.1,94.1c0,0-0.3-0.1-0.6-0.1c-0.3-0.1-0.6-0.1-0.6-0.1
						s0.1,0.3,0.3,0.6c0.1,0.3,0.2,0.7,0.2,0.7"/>
				</g>
				<g>
					<path fill="none" stroke="#0000FF" stroke-miterlimit="10" d="M56.1,95.4c0,0-0.3-0.1-0.6-0.2S54.8,95,54.8,95s0.1,0.3,0.2,0.7
						c0.1,0.3,0.2,0.7,0.2,0.7"/>
				</g>
				<g>
					<path fill="none" stroke="#0000FF" stroke-miterlimit="10" d="M55,96.6c0,0-0.3-0.1-0.6-0.2c-0.3-0.1-0.6-0.3-0.6-0.3
						s0.1,0.3,0.1,0.7c0.1,0.3,0.1,0.7,0.1,0.7"/>
				</g>
				<g>
					<path fill="none" stroke="#0000FF" stroke-miterlimit="10" d="M53.8,97.6c0,0-0.3-0.2-0.6-0.3c-0.3-0.2-0.6-0.3-0.6-0.3
						s0,0.3,0.1,0.7c0,0.3,0,0.7,0,0.7"/>
				</g>
				<g>
					<path fill="none" stroke="#0000FF" stroke-miterlimit="10" d="M52.5,98.5c0,0-0.3-0.2-0.6-0.4c-0.1-0.1-0.3-0.2-0.4-0.3
						c-0.1,0-0.1-0.1-0.1-0.1c0,0-0.1,0-0.1,0s0,0.1,0,0.2s0,0.3-0.1,0.5c-0.1,0.3-0.2,0.7-0.2,0.7"/>
				</g>
				<g>
					<path fill="none" stroke="#0000FF" stroke-miterlimit="10" d="M50.9,99.2c0,0-0.2-0.3-0.4-0.6c-0.2-0.3-0.3-0.6-0.3-0.6
						s-0.1,0.3-0.3,0.6c-0.1,0.3-0.3,0.6-0.3,0.6"/>
				</g>
				<g>
					<path fill="none" stroke="#0000FF" stroke-miterlimit="10" d="M49.3,99.4c0,0-0.2-0.3-0.3-0.6c-0.2-0.3-0.3-0.6-0.3-0.6
						s-0.2,0.3-0.4,0.6c-0.2,0.3-0.5,0.6-0.5,0.6"/>
				</g>
				<g>
					<path fill="none" stroke="#0000FF" stroke-miterlimit="10" d="M47.6,99.3c0,0-0.1-0.3-0.2-0.6c-0.1-0.3-0.1-0.6-0.1-0.6
						s-0.2,0.2-0.6,0.4c-0.2,0.1-0.3,0.1-0.5,0.2s-0.2,0.1-0.2,0.1"/>
				</g>
			</g>
		</g>
	</g>
	<g>
		<g>
			<g>
				<g>
					<polyline fill="none" stroke="#0000FF" stroke-miterlimit="10" points="43.9,60.6 44.2,61.8 44.6,60.6 					"/>
				</g>
				<g>
					<polyline fill="none" stroke="#0000FF" stroke-miterlimit="10" points="45.9,61.2 45.5,62.6 47,62.5 					"/>
				</g>
				<g>
					<polyline fill="none" stroke="#0000FF" stroke-miterlimit="10" points="47.3,62.6 48.6,63.1 48.4,61.7 					"/>
				</g>
				<g>
					<polyline fill="none" stroke="#0000FF" stroke-miterlimit="10" points="48.6,61.5 49.9,62 49.7,60.6 					"/>
				</g>
			</g>
		</g>
	</g>
</g>
<g id="leaf">
	<g>
		<path fill="#A8CF38" stroke="#010101" stroke-width="0.5" stroke-linecap="round" stroke-linejoin="round" d="M45.7,22.3
			c0,0-2.3-4-2-6l0.6,0.2c0,0-0.5-0.6,0.1-3l0.5,0.4c0,0-0.4-1.2,0.4-2.8l0.5,0.4c0,0,0.2-1.1,0.7-2.2l0.5,0.3c0,0-0.1-1.3,0.3-2.3
			l0.5,0.4c0,0,0.2-1.7,1.1-2L48.9,6c0,0,0.6-1,1.6-1.6l0.4,0.5c0,0,0-1,1.2-1.5l0.2,0.4c0,0,0.1-1.4,1.2-1.6l0.3,0.7
			c0,0,1.9-1.8,2.3-1.8l0.7,0.3c0.1,0.3,0,3,0,3l0.7-0.2c0.5,1-0.5,2-0.5,2l0.6,0c0.4,1.2-0.5,1.8-0.5,1.8L57.8,8
			c0.1,1.1-0.3,2.2-0.3,2.2l0.4-0.1c0.3,0.9-0.9,2.1-0.9,2.1l0.6,0.1c-0.5,1-1.6,1.7-1.6,1.7l0.6,0.2c-0.6,1-1.4,1.9-1.4,1.9
			l0.6,0.1c-0.8,1.6-2,2-2,2l0.6,0.1c-1.6,1.9-2.4,1.9-2.4,1.9l0.5,0.3c-1.4,1.5-6,2.1-6,2.1L45.7,22.3z"/>
		<path fill="#A8CF38" stroke="#010101" stroke-width="0.5" stroke-linecap="round" stroke-linejoin="round" d="M46.1,22.5
			c0,0-2.3-4-2-6l0.6,0.2c0,0-0.5-0.6,0.1-3l0.5,0.4c0,0-0.4-1.2,0.4-2.8l0.5,0.4c0,0,0.2-1.1,0.7-2.2l0.5,0.3c0,0-0.1-1.3,0.3-2.3
			L48,7.8c0,0,0.2-1.7,1.1-2l0.1,0.4c0,0,0.6-1,1.6-1.6L51.3,5c0,0,0-1,1.2-1.5l0.2,0.4c0,0,0.1-1.4,1.2-1.6L54.2,3
			c0,0,1.9-1.8,2.3-1.8l0.7,0.3c0.1,0.3,0,3,0,3L58,4.3c0.5,1-0.5,2-0.5,2l0.5,0c0.4,1.2-0.5,1.8-0.5,1.8l0.6,0.1
			c0.1,1.1-0.3,2.2-0.3,2.2l0.4-0.1c0.3,0.9-0.9,2.1-0.9,2.1l0.6,0.1c-0.5,1-1.6,1.7-1.6,1.7l0.6,0.2c-0.6,1-1.4,1.9-1.4,1.9
			l0.6,0.1c-0.8,1.6-2,2-2,2l0.6,0.1c-1.6,1.9-2.4,1.9-2.4,1.9l0.5,0.3c-1.4,1.5-6,2.1-6,2.1L46.1,22.5z"/>
		
			<line fill="none" stroke="#010101" stroke-width="0.5" stroke-linecap="round" stroke-linejoin="round" x1="56.8" y1="1.5" x2="46.4" y2="22.6"/>
		<g>
			
				<line fill="none" stroke="#010101" stroke-width="0.5" stroke-linecap="round" stroke-linejoin="round" x1="54.3" y1="2.7" x2="54.7" y2="4.4"/>
			
				<line fill="none" stroke="#010101" stroke-width="0.5" stroke-linecap="round" stroke-linejoin="round" x1="52.7" y1="4" x2="53.7" y2="6"/>
			
				<line fill="none" stroke="#010101" stroke-width="0.5" stroke-linecap="round" stroke-linejoin="round" x1="51.4" y1="5" x2="52.7" y2="7.6"/>
			
				<line fill="none" stroke="#010101" stroke-width="0.5" stroke-linecap="round" stroke-linejoin="round" x1="49.2" y1="6.1" x2="51.5" y2="9.3"/>
			
				<line fill="none" stroke="#010101" stroke-width="0.5" stroke-linecap="round" stroke-linejoin="round" x1="48.1" y1="7.7" x2="50.9" y2="11.1"/>
			
				<line fill="none" stroke="#010101" stroke-width="0.5" stroke-linecap="round" stroke-linejoin="round" x1="47.1" y1="9.7" x2="49.9" y2="12.7"/>
			
				<line fill="none" stroke="#010101" stroke-width="0.5" stroke-linecap="round" stroke-linejoin="round" x1="46" y1="11.4" x2="48.4" y2="14.7"/>
			
				<line fill="none" stroke="#010101" stroke-width="0.5" stroke-linecap="round" stroke-linejoin="round" x1="45.2" y1="13.9" x2="48" y2="17.5"/>
			
				<line fill="none" stroke="#010101" stroke-width="0.5" stroke-linecap="round" stroke-linejoin="round" x1="44.6" y1="16.5" x2="47" y2="20.3"/>
		</g>
		<g>
			
				<line fill="none" stroke="#010101" stroke-width="0.5" stroke-linecap="round" stroke-linejoin="round" x1="57.6" y1="4.3" x2="56" y2="5.1"/>
			
				<line fill="none" stroke="#010101" stroke-width="0.5" stroke-linecap="round" stroke-linejoin="round" x1="57.5" y1="6.4" x2="55.3" y2="6.8"/>
			
				<line fill="none" stroke="#010101" stroke-width="0.5" stroke-linecap="round" stroke-linejoin="round" x1="57.5" y1="8.1" x2="54.6" y2="8.6"/>
			
				<line fill="none" stroke="#010101" stroke-width="0.5" stroke-linecap="round" stroke-linejoin="round" x1="58" y1="10.4" x2="54.1" y2="10.6"/>
			
				<line fill="none" stroke="#010101" stroke-width="0.5" stroke-linecap="round" stroke-linejoin="round" x1="57.3" y1="12.2" x2="53" y2="12.1"/>
			
				<line fill="none" stroke="#010101" stroke-width="0.5" stroke-linecap="round" stroke-linejoin="round" x1="56.4" y1="14.3" x2="52.3" y2="13.9"/>
			
				<line fill="none" stroke="#010101" stroke-width="0.5" stroke-linecap="round" stroke-linejoin="round" x1="55.7" y1="16.2" x2="51.6" y2="16.2"/>
			
				<line fill="none" stroke="#010101" stroke-width="0.5" stroke-linecap="round" stroke-linejoin="round" x1="54.3" y1="18.4" x2="49.7" y2="18.3"/>
			
				<line fill="none" stroke="#010101" stroke-width="0.5" stroke-linecap="round" stroke-linejoin="round" x1="52.5" y1="20.4" x2="48.1" y2="20.9"/>
		</g>
		<path fill="#FFFFFF" stroke="#010101" stroke-width="0.5" stroke-linecap="round" stroke-linejoin="round" d="M58.5,8.3
			c0,0-1.5,0.4-1.1,1.2c0,0-1.9,0.3-1,1.7c0,0,0.5,1,1.3,0.6c0,0-0.5,0.8,0.3,0.7c0.8-0.2,0.6-0.2,0.6-0.2"/>
		<path fill="#FFFFFF" stroke="#010101" stroke-width="0.5" stroke-miterlimit="10" d="M48.5,10.4c-0.1,0.3-0.3,0.6-0.4,1
			c0.4,0.3,0.9-0.3,1.1-0.7c-0.2,0.5-0.1,1.7,0.7,0.9c-0.1,0.5,0.2,0.6,0.6,0.8c-0.1,0.5-0.6,0.6-0.9,0.9c-0.2,0.2-0.2,0.5-0.4,0.7
			c-0.3-0.2-0.3-0.6-0.6-0.8c-0.2,0.1-0.7,0.8-0.9,0.8c-0.2,0-0.5-0.6-0.8-0.7c0.1-0.3,0.3-0.5,0.4-0.8c-0.1-0.1-0.1-0.1-0.1-0.1
			c0.1-0.3,0.7-2.2,1.1-1.7"/>
		<path fill="#FFFFFF" stroke="#010101" stroke-width="0.5" stroke-miterlimit="10" d="M53.7,6.3c0.5-0.4,0.5-0.9,1.1-1.2
			c0.1,0.2-0.1,0.8,0.1,0.8c0.3,0.3,0.9-0.4,1.2-0.6c-0.1,0.1-0.3,0.6-0.2,0.8c0.2,0.4,0.6,0.1,0.9,0.1c-0.2,0.5-0.6,0.9-0.9,1.5
			c-0.2,0.3-0.2,0.6-0.3,1c-0.6-0.2-1-0.7-1.2-1.3c-0.2,0.4-0.9,1.6-0.9,0.6c-0.1-0.6,0.4-1.2,0.5-1.8"/>
		<path fill="#FFFFFF" stroke="#010101" stroke-width="0.5" stroke-miterlimit="10" d="M53,15.1c0,0.4-0.5,0.8-0.5,1.2
			c0,0.5,0.6,0.9,1.1,0.9c-0.5,0.2-1.1,0.5-1.3,1c0.2,0.2,0.6,0.3,0.9,0.5c-0.2,0.1-1.5,0.7-0.8,1c-0.2,0.5-1.5-0.2-1.8-0.5
			c-0.7-0.6-0.4-1.3-0.1-2c0.4-1,1.3-2.1,2.6-1.9"/>
	</g>
</g>
<g id="water">
	<g>
		<path fill="#55C2E2" stroke="#070707" stroke-width="0.5" stroke-miterlimit="10" d="M32.4,9.8c0,0-9.7,11.2-1.1,13.8
			c0,0,7-0.2,3.9-8.3C35.2,15.3,32.6,12.2,32.4,9.8z"/>
		<path fill="none" stroke="#3A97AD" stroke-miterlimit="10" d="M31.9,22.7c1.4,0.6,3.6-2.8,3.5-4"/>
		
			<ellipse transform="matrix(-0.6127 -0.7903 0.7903 -0.6127 32.556 57.8728)" opacity="0.8" fill="#FFFFFF" enable-background="new    " cx="30.5" cy="21" rx="1.6" ry="1.3"/>
		<path opacity="0.8" fill="#FFFFFF" enable-background="new    " d="M29.6,14.7c0,0,1.3-3.1,2.8-3.9"/>
	</g>
	<g>
		<path fill="#55C2E2" stroke="#070707" stroke-width="0.5" stroke-miterlimit="10" d="M69.9,52c0,0-9.7,11.2-1.1,13.8
			c0,0,7-0.2,3.9-8.3C72.7,57.5,70.1,54.3,69.9,52z"/>
		<path fill="none" stroke="#3A97AD" stroke-miterlimit="10" d="M69.4,64.9c1.4,0.6,3.6-2.8,3.5-4"/>
		
			<ellipse transform="matrix(-0.6127 -0.7903 0.7903 -0.6127 59.6701 155.5461)" opacity="0.8" fill="#FFFFFF" enable-background="new    " cx="67.9" cy="63.2" rx="1.6" ry="1.3"/>
		<path opacity="0.8" fill="#FFFFFF" enable-background="new    " d="M67.1,56.9c0,0,1.3-3.1,2.8-3.9"/>
	</g>
	<g>
		<path fill="#55C2E2" stroke="#070707" stroke-width="0.5" stroke-miterlimit="10" d="M25.9,87.9c0,0-5.8,6.8-0.7,8.3
			c0,0,4.2-0.1,2.4-5C27.6,91.2,26,89.3,25.9,87.9z"/>
		<path fill="none" stroke="#3A97AD" stroke-miterlimit="10" d="M25.6,95.7c0.8,0.4,2.2-1.7,2.1-2.4"/>
		
			<ellipse transform="matrix(-0.6129 -0.7901 0.7901 -0.6129 -35.5936 173.2317)" opacity="0.8" fill="#FFFFFF" enable-background="new    " cx="24.6" cy="95.3" rx="0.6" ry="0.5"/>
		<path opacity="0.8" fill="#FFFFFF" enable-background="new    " d="M24.2,90.9c0,0,0.8-1.9,1.7-2.4"/>
	</g>
	<g>
		<path fill="#55C2E2" stroke="#070707" stroke-width="0.5" stroke-miterlimit="10" d="M26.9,56.4c0,0-5.8,6.8-0.7,8.3
			c0,0,4.2-0.1,2.4-5C28.6,59.7,27,57.9,26.9,56.4z"/>
		<path fill="none" stroke="#3A97AD" stroke-miterlimit="10" d="M26.6,64.2c0.8,0.4,2.2-1.7,2.1-2.4"/>
		
			<ellipse transform="matrix(-0.6126 -0.7904 0.7904 -0.6126 -9.1853 123.2552)" opacity="0.8" fill="#FFFFFF" enable-background="new    " cx="25.6" cy="63.9" rx="0.6" ry="0.5"/>
		<path opacity="0.8" fill="#FFFFFF" enable-background="new    " d="M25.2,59.4c0,0,0.8-1.9,1.7-2.4"/>
	</g>
	<g>
		<path fill="#55C2E2" stroke="#070707" stroke-width="0.5" stroke-miterlimit="10" d="M59.7,19.1c0,0-3.6,4.2-0.4,5.2
			c0,0,2.6-0.1,1.5-3.1C60.8,21.1,59.8,19.9,59.7,19.1z"/>
		<path fill="none" stroke="#3A97AD" stroke-miterlimit="10" d="M59.5,23.9c0.5,0.2,1.4-1,1.3-1.5"/>
		
			<ellipse transform="matrix(-0.6123 -0.7906 0.7906 -0.6123 76.4193 83.9784)" opacity="0.8" fill="#FFFFFF" enable-background="new    " cx="58.8" cy="23.3" rx="0.3" ry="0.2"/>
		<path opacity="0.8" fill="#FFFFFF" enable-background="new    " d="M58.6,20.9c0,0,0.5-1.2,1-1.5"/>
	</g>
	<g>
		<path fill="#55C2E2" stroke="#070707" stroke-width="0.5" stroke-miterlimit="10" d="M66,88.2c0,0-3.6,4.2-0.4,5.2
			c0,0,2.6-0.1,1.5-3.1C67.1,90.2,66.1,89,66,88.2z"/>
		<path fill="none" stroke="#3A97AD" stroke-miterlimit="10" d="M65.8,93c0.5,0.2,1.4-1,1.3-1.5"/>
		
			<ellipse transform="matrix(-0.6126 -0.7904 0.7904 -0.6126 32.0441 200.3681)" opacity="0.8" fill="#FFFFFF" enable-background="new    " cx="65.1" cy="92.3" rx="0.3" ry="0.2"/>
		<path opacity="0.8" fill="#FFFFFF" enable-background="new    " d="M64.9,90c0,0,0.5-1.2,1-1.5"/>
	</g>
</g>
</svg>
