<?xml version="1.0" encoding="utf-8"?>
<!-- Generator: Adobe Illustrator 17.1.0, SVG Export Plug-In . SVG Version: 6.00 Build 0)  -->
<!DOCTYPE svg PUBLIC "-//W3C//DTD SVG 1.1//EN" "http://www.w3.org/Graphics/SVG/1.1/DTD/svg11.dtd">
<svg version="1.1" xmlns="http://www.w3.org/2000/svg" xmlns:xlink="http://www.w3.org/1999/xlink" x="0px" y="0px"
	 viewBox="0 0 212.4 368.5" enable-background="new 0 0 212.4 368.5" xml:space="preserve">
<pattern  x="-208.1" y="-178.5" width="8.7" height="8.7" patternUnits="userSpaceOnUse" id="New_Pattern_Swatch_12" viewBox="0 -8.7 8.7 8.7" overflow="visible">
	<g>
		<polygon fill="none" points="8.7,0 0,0 0,-8.7 8.7,-8.7 		"/>
		<g>
			<path fill="#010101" d="M5-4.5c0,0.4-0.3,0.7-0.7,0.7C4-3.8,3.7-4.1,3.7-4.5c0-0.4,0.3-0.7,0.7-0.7C4.7-5.2,5-4.9,5-4.5z"/>
		</g>
	</g>
</pattern>
<g id="legs">
	<path fill="#FFFFFF" stroke="#010101" stroke-miterlimit="10" d="M63,209.3c0,0-23.5,10.8-26.4,17.1c0,0,0.6-0.4,4.2,0
		c0,0-15.4,10.1-16.1,14.2c0,0,7-5.1,8.7-5.1c1.7,0-16.7,17.8-8.7,28.5c0,0-0.5-30.7,39.6-50.6"/>
	<path fill="#FFFFFF" stroke="#010101" stroke-miterlimit="10" d="M159.5,211.3c0,0,23.5,10.8,26.4,17.1c0,0-0.6-0.4-4.2,0
		c0,0,15.4,10.1,16.1,14.2c0,0-7-5.1-8.7-5.1c-1.7,0,16.7,17.8,8.7,28.5c0,0,0.4-30.7-39.6-50.6"/>
	<path fill="#FFFFFF" stroke="#010101" stroke-miterlimit="10" d="M156.7,280.7c0,0,3.6,5.5,3.6,8.9s3.4,27.9-8,44.8
		c0,0,4.1-1,4.4-2.8c0,0-1.2,2.8-6.5,8c-5.3,5.1-6.8,10.3-12.5,12.2c0,0,15.4-18.2,16.3-28.5c0.9-10.3,6.3-15.6,2.3-38.3
		L156.7,280.7z"/>
	<path fill="#FFFFFF" stroke="#010101" stroke-miterlimit="10" d="M71.1,205.3c0,0-8.7,0.1-8.2,4c0.6,4,1.7,5.9,5.2,5.2L71.1,205.3z
		"/>
	<path fill="#FFFFFF" stroke="#010101" stroke-miterlimit="10" d="M63.6,280.7c0,0-3.6,5.5-3.6,8.9s-3.4,27.9,8,44.8
		c0,0-4.1-0.9-4.4-2.8c0,0,1.2,2.8,6.5,8c5.3,5.1,6.8,10.3,12.5,12.2c0,0-15.4-18.2-16.3-28.5c-1-10.3-6.3-15.6-2.3-38.3L63.6,280.7
		z"/>
	<path fill="#FFFFFF" stroke="#010101" stroke-miterlimit="10" d="M151.4,207.3c0,0,8.7,0.1,8.2,4c-0.6,4-1.7,5.9-5.2,5.2
		L151.4,207.3z"/>
	<path fill="#FFFFFF" stroke="#010101" stroke-miterlimit="10" d="M64.1,139.9c0,0,4-19.9,1.1-25.5c-2.8-5.6-19.1-22.1-23.4-22.1
		c0,0,5.7,4.1,6.3,5.9c0,0-2.8-1.5-6.3,0c0,0,8.1,1.1,12.2,7.6c4,6.5,7.5,6.7,7.3,15.7c-0.1,9,0,18.4,0,18.4H64.1z"/>
	<path fill="#FFFFFF" stroke="#010101" stroke-miterlimit="10" d="M156.7,140.7c0,0-4-19.9-1.1-25.5c2.8-5.6,19.1-22.1,23.4-22.1
		c0,0-5.7,4.1-6.3,5.9c0,0,2.8-1.5,6.3,0c0,0-8.1,1.1-12.2,7.6c-4,6.5-7.5,6.7-7.3,15.7c0.1,9,0,18.4,0,18.4H156.7z"/>
	<path fill="#FFFFFF" stroke="#010101" stroke-miterlimit="10" d="M148.6,145.3c0,0,2.7-5.1,8.4-4.9c0,0,3.4,0,2.6,2.4
		c-0.9,2.4-1,6.7-8.5,10.7C151.1,153.5,150.1,144.2,148.6,145.3z"/>
	<path fill="#FFFFFF" stroke="#010101" stroke-miterlimit="10" d="M72.5,144.1c0,0-2.7-5.1-8.4-4.9c0,0-3.4,0-2.6,2.4
		c0.9,2.4,1,6.7,8.5,10.7C70,152.3,71,143,72.5,144.1z"/>
</g>
<g id="basebody">
	<path fill="#FFFFFF" stroke="#010101" stroke-miterlimit="10" d="M108.6,219.6l-25.5-31.5c-0.7-4.2-3.8-21.5-12.1-32.8
		c-0.4-1.2-1.7-5.8,0.7-9.4c2.6-3.9,9.1-6,18.8-6l0.8,0h38.6l0.9,0c9.6,0,16.1,2.1,18.8,6c2.4,3.6,1.1,8.2,0.7,9.4
		c-8.3,11.3-11.5,28.6-12.1,32.8l-26.4,32.1L108.6,219.6z"/>
	<path fill="#FFFFFF" stroke="#010101" stroke-miterlimit="10" d="M65.1,296.6c0,0,32.2,58.1,46.1,60c0,0,37-30.4,45.2-60
		C156.4,296.6,110.7,272.7,65.1,296.6z"/>
	<path fill="#FFFFFF" stroke="#010101" stroke-miterlimit="10" d="M79.2,189.5c0,0-14,6.5-14,46.7c0,40.2,0,60.4,0,60.4
		s27.7,11.8,45.2-3.8v-70.6C110.3,222.2,99.3,188.4,79.2,189.5z"/>
	<path fill="#FFFFFF" stroke="#010101" stroke-miterlimit="10" d="M142.4,189.5c0,0,14,6.5,14,46.7c0,40.2,0,60.4,0,60.4
		s-27.7,11.8-45.2-3.8v-70.6C111.2,222.2,122.2,188.4,142.4,189.5z"/>
	<path fill="#FFFFFF" stroke="#010101" stroke-miterlimit="10" d="M93,136.8"/>
	<path fill="#FFFFFF" stroke="#010101" stroke-miterlimit="10" d="M81.5,131.2c0,0-3.3-20,8-25c11.3-5,13.9-7.2,13.9-7.2
		s7.2-4.7,15.6,0c0,0,2.6,2.2,13.9,7.2c11.3,5,8,25,8,25S111.7,158.7,81.5,131.2z"/>
</g>
<g id="bodycolor">
	<path fill="#6CBE45" stroke="#010101" stroke-miterlimit="10" d="M108.2,219.6l-25.5-31.5c-0.7-4.2-3.8-21.5-12.1-32.8
		c-0.4-1.2-1.7-5.8,0.7-9.4c2.6-3.9,9.1-6,18.8-6l0.8,0h38.6l0.9,0c9.6,0,16.1,2.1,18.8,6c2.4,3.6,1.1,8.2,0.7,9.4
		c-8.3,11.3-11.5,28.6-12.1,32.8l-26.4,32.1L108.2,219.6z"/>
	<path fill="#6CBE45" stroke="#010101" stroke-miterlimit="10" d="M64.7,296.6c0,0,32.2,58.1,46.1,60c0,0,37-30.4,45.2-60
		C156,296.6,110.2,272.7,64.7,296.6z"/>
	<path fill="#D0DD28" stroke="#010101" stroke-miterlimit="10" d="M78.7,189.5c0,0-14,6.5-14,46.7c0,40.2,0,60.4,0,60.4
		s27.7,11.8,45.2-3.8v-70.6C109.9,222.2,98.8,188.4,78.7,189.5z"/>
	<path fill="#D0DD28" stroke="#010101" stroke-miterlimit="10" d="M141.9,189.5c0,0,14,6.5,14,46.7c0,40.2,0,60.4,0,60.4
		s-27.7,11.8-45.2-3.8v-70.6C110.8,222.2,121.8,188.4,141.9,189.5z"/>
	<path fill="#FFFFFF" stroke="#010101" stroke-miterlimit="10" d="M92.6,136.8"/>
	<path fill="#6CBE45" stroke="#010101" stroke-miterlimit="10" d="M81.1,131.2c0,0-3.3-20,8-25c11.3-5,13.9-7.2,13.9-7.2
		s7.2-4.7,15.6,0c0,0,2.6,2.2,13.9,7.2c11.3,5,8,25,8,25S111.3,158.7,81.1,131.2z"/>
</g>
<g id="eyes">
	<path fill="#FFFFFF" stroke="#010101" stroke-miterlimit="10" d="M85,110.4c0,0,7.2-9,13-4.9c0,0-1.4,11.3-13.6,6.2L85,110.4z"/>
	<path fill="#FFFFFF" stroke="#010101" stroke-miterlimit="10" d="M137.5,110.4c0,0-7.2-9-13-4.9c0,0,1.4,11.3,13.6,6.2L137.5,110.4
		z"/>
</g>
<g id="antennae">
	<path fill="none" stroke="#010101" stroke-width="0.5" stroke-miterlimit="10" d="M119.5,100.5c0,0,2.4-2.8,8.4-3.2
		c6.1-0.4,13.8-4.2,17.3-12.1c3.5-7.9,20.8-22.9,19.7-28.3"/>
	<path fill="none" stroke="#010101" stroke-width="0.5" stroke-miterlimit="10" d="M103,99.3c0,0-2.4-2.8-8.4-3.2
		c-6.1-0.4-13.8-4.2-17.3-12.1c-3.5-7.9-20.8-22.9-19.7-28.3"/>
</g>
<g id="markings">
	<path fill="#010101" d="M69.4,304.2c0,0,33.6,21.6,40.2-12.4"/>
	<path fill="#010101" d="M110.9,291.8c6.6,34,40.2,12.4,40.2,12.4l2-1.1"/>
	<path fill="#010101" d="M119.2,215.5c-1,8.6,2.9,14.2,11.6,13.9c9-0.3,15.9-4.5,16.4-14c0.3-7.2,1.2-17.8-7.5-20
		C139.6,195.4,118.8,199.7,119.2,215.5z"/>
	<path fill="#010101" d="M100.3,215.5c1,8.6-2.9,14.2-11.5,13.9c-9-0.3-15.9-4.5-16.4-14c-0.3-7.2-1.2-17.8,7.5-20
		C79.9,195.4,100.7,199.7,100.3,215.5z"/>
</g>
<g id="dots">
	<path fill="url(#New_Pattern_Swatch_12)" stroke="#070707" stroke-miterlimit="10" d="M78.8,189.9c0,0-14,6.5-14,46.7
		c0,40.2,0,60.4,0,60.4s27.7,11.8,45.2-3.8v-70.6C109.9,222.6,98.9,188.8,78.8,189.9z"/>
	<path fill="url(#New_Pattern_Swatch_12)" stroke="#070707" stroke-miterlimit="10" d="M142,189.9c0,0,14,6.5,14,46.7
		c0,40.2,0,60.4,0,60.4s-27.7,11.8-45.2-3.8v-70.6C110.9,222.6,121.9,188.8,142,189.9z"/>
</g>
<g id="fur">
	<g>
		<g>
			<path fill="none" stroke="#010101" stroke-miterlimit="10" d="M-74.2,353"/>
		</g>
	</g>
	<g>
		<g>
			<g>
				<g>
					<path fill="none" stroke="#010101" stroke-miterlimit="10" d="M91.9,139.7c0,0-0.5-1.1-1-2.2c-0.5-1.1-1.1-2.2-1.1-2.2
						s-0.2,0.3-0.4,0.7c-0.2,0.4-0.6,1-0.9,1.6c-0.6,1.2-1.2,2.3-1.2,2.3"/>
				</g>
				<g>
					<path fill="none" stroke="#010101" stroke-miterlimit="10" d="M86.5,139.9c0,0-0.6-1.1-1.2-2.1c-0.6-1.1-1.3-2.1-1.3-2.1
						s-0.6,1.2-1,2.4c-0.5,1.2-0.9,2.4-0.9,2.4"/>
				</g>
				<g>
					<path fill="none" stroke="#010101" stroke-miterlimit="10" d="M81.4,140.6c0,0-0.2-0.2-0.4-0.6c-0.3-0.4-0.6-0.9-1-1.3
						c-0.8-1-1.6-1.9-1.6-1.9s-0.1,0.3-0.2,0.8c-0.1,0.5-0.3,1.1-0.4,1.8c-0.1,0.6-0.2,1.3-0.3,1.7c0,0.5-0.1,0.8-0.1,0.8"/>
				</g>
				<g>
					<path fill="none" stroke="#010101" stroke-miterlimit="10" d="M76.7,142.2c0,0-0.2-0.2-0.6-0.5c-0.3-0.3-0.8-0.7-1.3-1
						c-0.5-0.4-1-0.7-1.4-1c-0.4-0.3-0.7-0.4-0.7-0.4c0,0,0,1.4,0.2,2.6c0.1,0.7,0.2,1.3,0.4,1.7c0.1,0.4,0.2,0.8,0.2,0.8"/>
				</g>
				<g>
					<path fill="none" stroke="#010101" stroke-miterlimit="10" d="M73,144.9c0,0-1.1-0.5-2.3-0.7c-1.2-0.3-2.5-0.4-2.5-0.4
						c0,0,0.1,0.3,0.4,0.8c0.2,0.5,0.6,1,0.9,1.6c0.4,0.5,0.8,1,1.1,1.4c0.3,0.3,0.6,0.5,0.6,0.5"/>
				</g>
				<g>
					<path fill="none" stroke="#010101" stroke-miterlimit="10" d="M71.1,148.7c0,0-0.3,0-0.7,0.1c-0.4,0.1-1.1,0.2-1.6,0.3
						c-0.6,0.2-1.2,0.3-1.6,0.5c-0.4,0.2-0.7,0.3-0.7,0.3c0,0,1.1,0.9,2.2,1.5c1.1,0.7,2.3,1.1,2.3,1.1"/>
				</g>
				<g>
					<path fill="none" stroke="#010101" stroke-miterlimit="10" d="M70.9,153.2c0,0-1.1,0.6-2.1,1.3c-1,0.7-1.9,1.5-1.9,1.5
						c0,0,1.3,0.5,2.6,0.6c0.6,0.1,1.1-0.3,1.7-0.2c0.5,0,0.8,0,0.8,0"/>
				</g>
				<g>
					<path fill="none" stroke="#010101" stroke-miterlimit="10" d="M72.5,157.2c0,0-0.6,1.1-1.3,2.1c-0.7,1-1.4,2-1.4,2
						c0,0,1.3,0,2.6,0c0.7,0,1.3,0,1.8,0.1c0.5,0,0.8,0.1,0.8,0.1"/>
				</g>
				<g>
					<path fill="none" stroke="#010101" stroke-miterlimit="10" d="M75.5,162.3c0,0-0.8,1-1.5,1.9c-0.8,0.9-1.6,1.9-1.6,1.9
						s1.3,0.1,2.6,0.3c1.3,0.2,2.6,0.4,2.6,0.4"/>
				</g>
				<g>
					<path fill="none" stroke="#010101" stroke-miterlimit="10" d="M77.9,167.6c0,0-0.9,0.9-1.7,1.8c-0.9,0.9-1.8,1.7-1.8,1.7
						s1.3,0.2,2.6,0.5c1.3,0.3,2.6,0.6,2.6,0.6"/>
				</g>
				<g>
					<path fill="none" stroke="#010101" stroke-miterlimit="10" d="M79.9,173.1c0,0-0.9,0.8-1.8,1.7c-0.9,0.8-1.9,1.6-1.9,1.6
						s1.3,0.3,2.5,0.6c1.3,0.3,2.5,0.7,2.5,0.7"/>
				</g>
				<g>
					<path fill="none" stroke="#010101" stroke-miterlimit="10" d="M81.5,178.6c0,0-1,0.8-1.9,1.6c-1,0.8-1.9,1.5-1.9,1.5
						s1.3,0.4,2.5,0.8c1.2,0.4,2.5,0.8,2.5,0.8"/>
				</g>
				<g>
					<path fill="none" stroke="#010101" stroke-miterlimit="10" d="M82.8,184.1c0,0-1,0.7-2,1.5c-1,0.7-2,1.4-2,1.4s1.2,0.5,2.5,0.9
						c1.2,0.5,2.4,1,2.4,1"/>
				</g>
			</g>
		</g>
	</g>
	<g>
		<g>
			<g>
				<g>
					<path fill="none" stroke="#010101" stroke-miterlimit="10" d="M138.8,189.1c0,0,1.2-0.4,2.4-0.7c1.2-0.3,2.4-0.6,2.4-0.6
						s-1-0.8-2-1.7c-1-0.9-1.9-1.8-1.9-1.8"/>
				</g>
				<g>
					<path fill="none" stroke="#010101" stroke-miterlimit="10" d="M139.9,183.4c0,0,1.2-0.3,2.4-0.5c1.2-0.2,2.4-0.5,2.4-0.5
						s-0.9-0.9-1.9-1.8c-0.9-0.9-1.8-1.9-1.8-1.9"/>
				</g>
				<g>
					<path fill="none" stroke="#010101" stroke-miterlimit="10" d="M141.2,177.9c0,0,1.2-0.2,2.4-0.4c1.2-0.2,2.4-0.3,2.4-0.3
						s-0.9-1-1.8-1.9c-0.9-1-1.7-2-1.7-2"/>
				</g>
				<g>
					<path fill="none" stroke="#010101" stroke-miterlimit="10" d="M142.9,172.4c0,0,1.2-0.1,2.5-0.2c1.2-0.1,2.5-0.2,2.5-0.2
						s-0.8-1-1.7-2c-0.8-1-1.6-2.1-1.6-2.1"/>
				</g>
				<g>
					<path fill="none" stroke="#010101" stroke-miterlimit="10" d="M144.9,167c0,0,1.2-0.1,2.5-0.1c1.2,0,2.5,0,2.5,0
						s-0.8-1.1-1.5-2.2c-0.7-1.1-1.4-2.2-1.4-2.2"/>
				</g>
				<g>
					<path fill="none" stroke="#010101" stroke-miterlimit="10" d="M147.4,161.7c0,0,1.2,0.1,2.5,0.2c1.2,0.1,2.5,0.3,2.5,0.3
						s-0.6-1.1-1.3-2.3c-0.3-0.6-0.6-1.2-0.8-1.6c-0.2-0.5-0.3-0.8-0.3-0.8"/>
				</g>
				<g>
					<path fill="none" stroke="#010101" stroke-miterlimit="10" d="M150.5,156.6c0,0,0.3,0.1,0.8,0.1c0.2,0,0.5,0.1,0.8,0.1
						c0.3,0.1,0.5,0.2,0.8,0.2c0.6,0.1,1.2,0,1.7-0.1c0.5-0.1,0.8-0.1,0.8-0.1c0,0-0.9-1.1-1.8-1.9c-0.9-0.9-2-1.6-2-1.6"/>
				</g>
				<g>
					<path fill="none" stroke="#010101" stroke-miterlimit="10" d="M151.6,152.7c0,0,1.2-0.3,2.3-0.8c1.1-0.4,2.3-1.1,2.3-1.1
						c0,0-1.2-0.7-2.4-1.2c-0.6-0.2-1.2-0.4-1.7-0.6c-0.5-0.1-0.8-0.2-0.8-0.2"/>
				</g>
				<g>
					<path fill="none" stroke="#010101" stroke-miterlimit="10" d="M151.2,148.2c0,0,0.2-0.2,0.6-0.5c0.3-0.3,0.8-0.7,1.2-1.1
						c0.4-0.4,0.8-0.9,1.1-1.3c0.3-0.4,0.5-0.6,0.5-0.6c0,0-0.3,0-0.8-0.1c-0.5,0-1.2,0-1.8,0c-1.3,0.1-2.5,0.5-2.5,0.5"/>
				</g>
				<g>
					<path fill="none" stroke="#010101" stroke-miterlimit="10" d="M148.9,144.6c0,0,0.1-0.3,0.3-0.7c0.2-0.4,0.4-1,0.5-1.6
						c0.4-1.2,0.5-2.4,0.5-2.4s-0.3,0.1-0.8,0.3c-0.5,0.2-1,0.5-1.6,0.8c-0.6,0.3-1.1,0.7-1.5,0.9c-0.4,0.3-0.6,0.5-0.6,0.5"/>
				</g>
				<g>
					<path fill="none" stroke="#010101" stroke-miterlimit="10" d="M145.1,142.1c0,0,0.1-1.2,0-2.4c-0.1-1.2-0.2-2.5-0.2-2.5
						s-0.3,0.2-0.6,0.5c-0.4,0.3-0.9,0.8-1.3,1.2c-0.9,0.9-1.8,1.9-1.8,1.9"/>
				</g>
				<g>
					<path fill="none" stroke="#010101" stroke-miterlimit="10" d="M140.3,140.7c0,0-0.2-1.2-0.5-2.4c-0.3-1.2-0.7-2.4-0.7-2.4
						s-0.9,1-1.6,2.1c-0.8,1.1-1.5,2.1-1.5,2.1"/>
				</g>
				<g>
					<path fill="none" stroke="#010101" stroke-miterlimit="10" d="M135.1,140c0,0-0.4-1.1-0.8-2.3c-0.4-1.2-0.9-2.3-0.9-2.3
						c0,0-0.7,1.1-1.4,2.2c-0.7,1.1-1.3,2.2-1.3,2.2"/>
				</g>
			</g>
		</g>
	</g>
	<g>
		<g>
			<g>
				<g>
					<polyline fill="none" stroke="#010101" stroke-miterlimit="10" points="62.9,303.3 64.7,299.2 63,303.3 					"/>
				</g>
				<g>
					<polyline fill="none" stroke="#010101" stroke-miterlimit="10" points="59.6,297.7 64.1,295.7 59.6,293.1 					"/>
				</g>
				<g>
					<polyline fill="none" stroke="#010101" stroke-miterlimit="10" points="59.6,292.2 64.1,290.2 59.6,287.5 					"/>
				</g>
				<g>
					<polyline fill="none" stroke="#010101" stroke-miterlimit="10" points="59.6,286.6 64.1,284.6 59.6,281.9 					"/>
				</g>
				<g>
					<polyline fill="none" stroke="#010101" stroke-miterlimit="10" points="59.6,281 64.1,279 59.6,276.3 					"/>
				</g>
				<g>
					<polyline fill="none" stroke="#010101" stroke-miterlimit="10" points="59.6,275.5 64.1,273.5 59.6,270.8 					"/>
				</g>
				<g>
					<polyline fill="none" stroke="#010101" stroke-miterlimit="10" points="59.6,269.9 64.1,267.9 59.6,265.2 					"/>
				</g>
				<g>
					<polyline fill="none" stroke="#010101" stroke-miterlimit="10" points="59.6,264.3 64.1,262.3 59.6,259.6 					"/>
				</g>
				<g>
					<polyline fill="none" stroke="#010101" stroke-miterlimit="10" points="59.6,258.7 64.1,256.7 59.6,254.1 					"/>
				</g>
				<g>
					<polyline fill="none" stroke="#010101" stroke-miterlimit="10" points="59.6,253.2 64.1,251.2 59.6,248.5 					"/>
				</g>
				<g>
					<polyline fill="none" stroke="#010101" stroke-miterlimit="10" points="59.6,247.6 64.1,245.6 59.6,242.9 					"/>
				</g>
				<g>
					<polyline fill="none" stroke="#010101" stroke-miterlimit="10" points="59.6,242 64.1,240 59.6,237.3 					"/>
				</g>
				<g>
					<path fill="none" stroke="#010101" stroke-miterlimit="10" d="M59.6,236.4c0,0,1.1-0.5,2.3-1c1.1-0.5,2.3-1,2.3-1
						s-1.1-0.7-2.2-1.4c-1.1-0.7-2.2-1.4-2.2-1.4"/>
				</g>
				<g>
					<path fill="none" stroke="#010101" stroke-miterlimit="10" d="M59.7,230.8c0,0,1.1-0.5,2.3-0.9c1.2-0.4,2.3-0.9,2.3-0.9
						s-1.1-0.7-2.2-1.5c-1.1-0.8-2.2-1.5-2.2-1.5"/>
				</g>
				<g>
					<path fill="none" stroke="#010101" stroke-miterlimit="10" d="M60.1,225.1c0,0,1.2-0.4,2.3-0.8c1.2-0.4,2.3-0.8,2.3-0.8
						s-1.1-0.8-2.1-1.6c-1-0.8-2.1-1.6-2.1-1.6"/>
				</g>
				<g>
					<path fill="none" stroke="#010101" stroke-miterlimit="10" d="M60.7,219.5c0,0,1.2-0.4,2.4-0.7c1.2-0.3,2.4-0.7,2.4-0.7
						s-1-0.8-2-1.7c-1-0.9-2-1.7-2-1.7"/>
				</g>
				<g>
					<path fill="none" stroke="#010101" stroke-miterlimit="10" d="M61.6,213.8c0,0,1.2-0.3,2.4-0.6c1.2-0.3,2.4-0.5,2.4-0.5
						s-1-0.9-1.9-1.8c-0.9-0.9-1.9-1.9-1.9-1.9"/>
				</g>
				<g>
					<path fill="none" stroke="#010101" stroke-miterlimit="10" d="M62.9,208.2c0,0,1.2-0.2,2.4-0.4c1.2-0.2,2.4-0.3,2.4-0.3
						s-0.9-0.9-1.8-1.9c-0.9-1-1.7-2-1.7-2"/>
				</g>
				<g>
					<path fill="none" stroke="#010101" stroke-miterlimit="10" d="M64.7,202.6c0,0,1.2-0.1,2.5-0.2c1.2-0.1,2.5-0.1,2.5-0.1
						s-0.8-1-1.5-2.1c-0.8-1.1-1.4-2.2-1.4-2.2"/>
				</g>
				<g>
					<path fill="none" stroke="#010101" stroke-miterlimit="10" d="M67,197.3c0,0,1.2,0,2.5,0.1c1.2,0.1,2.4,0.3,2.4,0.3
						s-0.7-1.1-1.2-2.3c-0.6-1.2-1.1-2.4-1.1-2.4"/>
				</g>
				<g>
					<path fill="none" stroke="#010101" stroke-miterlimit="10" d="M70.2,192.1c0,0,1.2,0.2,2.4,0.6c1.2,0.3,2.3,0.7,2.3,0.7
						s-0.4-1.2-0.7-2.5c-0.3-1.3-0.5-2.6-0.5-2.6"/>
				</g>
				<g>
					<path fill="none" stroke="#010101" stroke-miterlimit="10" d="M74.6,187.7c0,0,1.2,0.5,2.2,1.2c0.5,0.3,1,0.7,1.4,1
						c0.3,0.3,0.5,0.5,0.5,0.5s0-0.1,0-0.2c0-0.1,0-0.3,0-0.5c0-0.4,0.2-1.1,0.6-1.6c0.6-1.2,1.4-2.3,1.4-2.3"/>
				</g>
				<g>
					<path fill="none" stroke="#010101" stroke-miterlimit="10" d="M81.6,185.7c0,0,0.5,1.2,0.9,2.3c0.4,1.2,0.6,2.4,0.6,2.4
						s0.8-1,1.7-2c0.9-0.9,2-1.8,2-1.8"/>
				</g>
				<g>
					<path fill="none" stroke="#010101" stroke-miterlimit="10" d="M87.7,187c0,0,0.2,1.3,0.2,2.5c0.1,1.2,0,2.5,0,2.5
						s1-0.8,2.2-1.5c1.1-0.7,2.3-1.3,2.3-1.3"/>
				</g>
				<g>
					<path fill="none" stroke="#010101" stroke-miterlimit="10" d="M93.3,189.7c0,0-0.1,1.2-0.4,2.5c-0.2,1.2-0.5,2.4-0.5,2.4
						s1.2-0.5,2.4-1c1.2-0.5,2.5-0.8,2.5-0.8"/>
				</g>
				<g>
					<path fill="none" stroke="#010101" stroke-miterlimit="10" d="M98,193.4c0,0-0.4,1.2-0.8,2.4c-0.4,1.2-0.9,2.3-0.9,2.3
						s1.3-0.3,2.5-0.6c1.3-0.3,2.6-0.5,2.6-0.5"/>
				</g>
				<g>
					<path fill="none" stroke="#010101" stroke-miterlimit="10" d="M102.1,197.7c0,0-0.5,1.1-1.1,2.2c-0.6,1.1-1.2,2.2-1.2,2.2
						s1.3-0.2,2.6-0.3c1.3-0.1,2.6-0.2,2.6-0.2"/>
				</g>
				<g>
					<path fill="none" stroke="#010101" stroke-miterlimit="10" d="M105.6,202.4c0,0-0.6,1.1-1.3,2.1c-0.7,1-1.4,2.1-1.4,2.1
						s1.3-0.1,2.6-0.1c1.3,0,2.6,0,2.6,0"/>
				</g>
				<g>
					<path fill="none" stroke="#010101" stroke-miterlimit="10" d="M108.7,207.3c0,0-0.7,1-1.5,2c-0.8,1-1.5,2-1.5,2s1.3,0,2.6,0.1
						c1.3,0.1,2.6,0.2,2.6,0.2"/>
				</g>
				<g>
					<path fill="none" stroke="#010101" stroke-miterlimit="10" d="M111.3,212.4c0,0-0.8,0.9-1.6,1.9c-0.8,0.9-1.6,1.9-1.6,1.9
						s1.3,0.1,2.6,0.3c1.3,0.2,2.6,0.3,2.6,0.3"/>
				</g>
				<g>
					<path fill="none" stroke="#010101" stroke-miterlimit="10" d="M113.7,217.6c0,0-0.9,0.9-1.7,1.8c-0.9,0.9-1.7,1.8-1.7,1.8
						s1.3,0.2,2.6,0.4c1.3,0.2,2.6,0.5,2.6,0.5"/>
				</g>
			</g>
		</g>
	</g>
	<g>
		<g>
		</g>
	</g>
	<g>
		<g>
			<g>
				<polyline fill="none" stroke="#010101" stroke-miterlimit="10" points="114.7,297.8 111.4,294.7 113.9,298.5 				"/>
			</g>
		</g>
	</g>
	<g>
		<g>
			<path fill="none" stroke="#070707" stroke-miterlimit="10" d="M134.6,305.9"/>
		</g>
	</g>
	<g>
		<g>
			<g>
				<g>
					<path fill="none" stroke="#010101" stroke-miterlimit="10" d="M106.2,222.2c0,0,1.2-0.1,2.5-0.2c1.2-0.1,2.5-0.1,2.5-0.1
						s-0.8-1-1.6-2.1c-0.8-1-1.6-2.1-1.6-2.1"/>
				</g>
				<g>
					<path fill="none" stroke="#010101" stroke-miterlimit="10" d="M108.3,216.9c0,0,1.2,0,2.5,0c1.2,0,2.5,0,2.5,0
						s-0.7-1.1-1.5-2.2c-0.7-1.1-1.4-2.2-1.4-2.2"/>
				</g>
				<g>
					<path fill="none" stroke="#010101" stroke-miterlimit="10" d="M110.7,211.7c0,0,1.2,0.1,2.5,0.1c1.2,0.1,2.5,0.2,2.5,0.2
						s-0.7-1.1-1.3-2.2c-0.7-1.1-1.3-2.3-1.3-2.3"/>
				</g>
				<g>
					<path fill="none" stroke="#010101" stroke-miterlimit="10" d="M113.5,206.7c0,0,1.2,0.1,2.5,0.3c1.2,0.2,2.4,0.4,2.4,0.4
						s-0.6-1.1-1.2-2.3c-0.6-1.2-1.1-2.4-1.1-2.4"/>
				</g>
				<g>
					<path fill="none" stroke="#010101" stroke-miterlimit="10" d="M116.6,201.8c0,0,1.2,0.2,2.4,0.5c1.2,0.3,2.4,0.6,2.4,0.6
						s-0.5-1.2-1-2.4c-0.5-1.2-0.9-2.5-0.9-2.5"/>
				</g>
				<g>
					<path fill="none" stroke="#010101" stroke-miterlimit="10" d="M120.2,197.3c0,0,1.2,0.3,2.4,0.7c1.2,0.4,2.3,0.8,2.3,0.8
						s-0.4-1.2-0.7-2.5c-0.3-1.3-0.5-2.6-0.5-2.6"/>
				</g>
				<g>
					<path fill="none" stroke="#010101" stroke-miterlimit="10" d="M124.4,193.1c0,0,1.1,0.5,2.2,1.1c1.1,0.6,2.2,1.2,2.2,1.2
						s-0.2-1.3-0.3-2.6c-0.1-1.3-0.1-2.7-0.1-2.7"/>
				</g>
				<g>
					<path fill="none" stroke="#010101" stroke-miterlimit="10" d="M129.4,189.6c0,0,1,0.7,2,1.5c1,0.8,1.9,1.6,1.9,1.6
						s0.1-1.3,0.3-2.6c0.2-1.3,0.6-2.6,0.6-2.6"/>
				</g>
				<g>
					<path fill="none" stroke="#010101" stroke-miterlimit="10" d="M135,187.1c0,0,0.9,0.9,1.6,1.9c0.8,1,1.4,2,1.4,2
						c0,0,0.4-1.2,0.9-2.4c0.5-1.2,1.2-2.4,1.2-2.4"/>
				</g>
				<g>
					<path fill="none" stroke="#010101" stroke-miterlimit="10" d="M141.2,186.3c0,0,0.1,0.3,0.4,0.7c0.2,0.4,0.4,1,0.7,1.6
						c0.3,0.6,0.4,1.1,0.4,1.6c0,0.2,0,0.4,0,0.5c0,0.1,0,0.2,0,0.2c0,0,0.1,0,0.1-0.2c0.1-0.1,0.2-0.3,0.3-0.4
						c0.3-0.3,0.9-0.6,1.5-0.9c1.2-0.6,2.5-0.9,2.5-0.9"/>
				</g>
				<g>
					<path fill="none" stroke="#010101" stroke-miterlimit="10" d="M148,189.1c0,0-0.3,1.2-0.8,2.4c-0.4,1.2-1,2.3-1,2.3
						s1.2-0.3,2.5-0.5c1.3-0.2,2.6-0.3,2.6-0.3"/>
				</g>
				<g>
					<path fill="none" stroke="#010101" stroke-miterlimit="10" d="M152,193.8c0,0-0.6,1.1-1.3,2.1c-0.7,1-1.4,2-1.4,2s1.3,0,2.6,0
						c1.3,0,2.6,0.2,2.6,0.2"/>
				</g>
				<g>
					<path fill="none" stroke="#010101" stroke-miterlimit="10" d="M155,198.9c0,0-0.8,1-1.6,1.9c-0.8,0.9-1.7,1.8-1.7,1.8
						s1.3,0.1,2.6,0.4c1.3,0.2,2.6,0.5,2.6,0.5"/>
				</g>
				<g>
					<path fill="none" stroke="#010101" stroke-miterlimit="10" d="M157.2,204.3c0,0-0.9,0.9-1.8,1.7c-0.9,0.8-1.8,1.6-1.8,1.6
						s1.3,0.3,2.5,0.6c1.3,0.3,2.5,0.7,2.5,0.7"/>
				</g>
				<g>
					<path fill="none" stroke="#010101" stroke-miterlimit="10" d="M158.9,209.9c0,0-1,0.8-1.9,1.5c-1,0.7-2,1.5-2,1.5
						c0,0,1.2,0.4,2.5,0.8c1.2,0.4,2.5,0.9,2.5,0.9"/>
				</g>
				<g>
					<path fill="none" stroke="#010101" stroke-miterlimit="10" d="M160.1,215.5c0,0-1,0.7-2,1.4c-1,0.7-2.1,1.3-2.1,1.3
						s1.2,0.5,2.4,1c1.2,0.5,2.4,1,2.4,1"/>
				</g>
				<g>
					<path fill="none" stroke="#010101" stroke-miterlimit="10" d="M160.9,221.1c0,0-1.1,0.6-2.1,1.3c-1.1,0.6-2.1,1.2-2.1,1.2
						s1.2,0.5,2.4,1.1c1.2,0.6,2.4,1.1,2.4,1.1"/>
				</g>
				<g>
					<path fill="none" stroke="#010101" stroke-miterlimit="10" d="M161.5,226.8c0,0-1.1,0.6-2.2,1.2c-1.1,0.6-2.2,1.1-2.2,1.1
						s1.2,0.6,2.3,1.2c1.2,0.6,2.3,1.2,2.3,1.2"/>
				</g>
				<g>
					<path fill="none" stroke="#010101" stroke-miterlimit="10" d="M161.8,232.4c0,0-1.1,0.5-2.2,1.1c-1.1,0.5-2.2,1.1-2.2,1.1
						s1.1,0.6,2.3,1.3c1.1,0.7,2.3,1.3,2.3,1.3"/>
				</g>
				<g>
					<polyline fill="none" stroke="#010101" stroke-miterlimit="10" points="161.9,238.1 157.4,240.1 161.9,242.8 					"/>
				</g>
				<g>
					<polyline fill="none" stroke="#010101" stroke-miterlimit="10" points="161.9,243.7 157.4,245.7 161.9,248.3 					"/>
				</g>
				<g>
					<polyline fill="none" stroke="#010101" stroke-miterlimit="10" points="161.9,249.2 157.4,251.2 161.9,253.9 					"/>
				</g>
				<g>
					<polyline fill="none" stroke="#010101" stroke-miterlimit="10" points="161.9,254.8 157.4,256.8 161.9,259.4 					"/>
				</g>
				<g>
					<polyline fill="none" stroke="#010101" stroke-miterlimit="10" points="161.9,260.3 157.4,262.3 161.9,265 					"/>
				</g>
				<g>
					<polyline fill="none" stroke="#010101" stroke-miterlimit="10" points="161.9,265.9 157.4,267.9 161.9,270.5 					"/>
				</g>
				<g>
					<polyline fill="none" stroke="#010101" stroke-miterlimit="10" points="161.9,271.4 157.4,273.4 161.9,276.1 					"/>
				</g>
				<g>
					<polyline fill="none" stroke="#010101" stroke-miterlimit="10" points="161.9,277 157.4,279 161.9,281.7 					"/>
				</g>
				<g>
					<polyline fill="none" stroke="#010101" stroke-miterlimit="10" points="161.9,282.5 157.4,284.5 161.9,287.2 					"/>
				</g>
				<g>
					<polyline fill="none" stroke="#010101" stroke-miterlimit="10" points="161.9,288.1 157.4,290.1 161.9,292.8 					"/>
				</g>
				<g>
					<polyline fill="none" stroke="#010101" stroke-miterlimit="10" points="161.9,293.7 157.4,295.7 161.9,298.3 					"/>
				</g>
				<g>
					<polyline fill="none" stroke="#010101" stroke-miterlimit="10" points="158.5,303.9 156.7,299.7 158.5,303.9 					"/>
				</g>
			</g>
		</g>
	</g>
	<g>
		<g>
			<g>
				<g>
					<polyline fill="none" stroke="#010101" stroke-miterlimit="10" points="156.6,308.9 151.6,308.8 154.5,313.1 					"/>
				</g>
				<g>
					<path fill="none" stroke="#010101" stroke-miterlimit="10" d="M154.1,313.9l-4.9-0.3c0,0,0.7,1.1,1.4,2.2
						c0.7,1.1,1.4,2.2,1.4,2.2"/>
				</g>
				<g>
					<path fill="none" stroke="#010101" stroke-miterlimit="10" d="M151.6,318.8l-4.9-0.4c0,0,0.7,1.1,1.3,2.2
						c0.7,1.1,1.3,2.3,1.3,2.3"/>
				</g>
				<g>
					<path fill="none" stroke="#010101" stroke-miterlimit="10" d="M148.9,323.7l-4.9-0.5c0,0,0.2,0.3,0.4,0.7
						c0.2,0.4,0.5,1,0.9,1.6c0.6,1.1,1.2,2.3,1.2,2.3"/>
				</g>
				<g>
					<path fill="none" stroke="#010101" stroke-miterlimit="10" d="M146.1,328.5c0,0-1.2-0.2-2.4-0.3c-1.2-0.2-2.4-0.4-2.4-0.4
						s0.6,1.2,1.2,2.3c0.6,1.2,1.2,2.4,1.2,2.4"/>
				</g>
				<g>
					<path fill="none" stroke="#010101" stroke-miterlimit="10" d="M143.1,333.2c0,0-1.2-0.2-2.4-0.4c-1.2-0.2-2.4-0.5-2.4-0.5
						s0.5,1.2,1.1,2.4c0.5,1.2,1.1,2.4,1.1,2.4"/>
				</g>
				<g>
					<path fill="none" stroke="#010101" stroke-miterlimit="10" d="M139.9,337.8c0,0-1.2-0.3-2.4-0.5c-1.2-0.3-2.4-0.6-2.4-0.6
						s0.5,1.2,1,2.4c0.5,1.2,0.9,2.4,0.9,2.4"/>
				</g>
				<g>
					<path fill="none" stroke="#010101" stroke-miterlimit="10" d="M136.5,342.2c0,0-1.2-0.3-2.4-0.6c-1.2-0.3-2.3-0.7-2.3-0.7
						s0.1,0.3,0.3,0.8c0.2,0.5,0.4,1.1,0.6,1.7c0.4,1.2,0.8,2.5,0.8,2.5"/>
				</g>
				<g>
					<path fill="none" stroke="#010101" stroke-miterlimit="10" d="M132.9,346.5c0,0-1.2-0.4-2.3-0.8c-1.1-0.4-2.3-0.8-2.3-0.8
						s0.1,0.3,0.2,0.8c0.1,0.5,0.3,1.1,0.5,1.7c0.3,1.2,0.6,2.5,0.6,2.5"/>
				</g>
				<g>
					<path fill="none" stroke="#010101" stroke-miterlimit="10" d="M128.9,350.5c0,0-1.1-0.5-2.3-0.9c-1.1-0.5-2.2-1-2.2-1
						s0.3,1.2,0.5,2.5c0.2,1.3,0.4,2.6,0.4,2.6"/>
				</g>
				<g>
					<path fill="none" stroke="#010101" stroke-miterlimit="10" d="M124.7,354.3c0,0-1.1-0.5-2.2-1.1c-1.1-0.6-2.2-1.2-2.2-1.2
						s0.2,1.3,0.3,2.6c0,0.7,0.1,1.3,0.1,1.8c0,0.5,0,0.8,0,0.8"/>
				</g>
				<g>
					<path fill="none" stroke="#010101" stroke-miterlimit="10" d="M120,357.7c0,0-1.1-0.7-2.1-1.4c-1-0.7-2-1.4-2-1.4s0,0.3,0,0.8
						c0,0.5,0,1.1-0.1,1.8c-0.1,1.3-0.2,2.6-0.2,2.6"/>
				</g>
				<g>
					<path fill="none" stroke="#010101" stroke-miterlimit="10" d="M114.8,360.5c0,0-1-0.8-1.8-1.7c-0.4-0.4-0.9-0.9-1.2-1.2
						c-0.3-0.3-0.5-0.6-0.5-0.6s-0.2,1.2-0.5,2.5c-0.2,0.6-0.4,1.3-0.6,1.7c-0.1,0.2-0.3,0.5-0.3,0.6c-0.1,0.1-0.2,0.2-0.2,0.2"/>
				</g>
				<g>
					<path fill="none" stroke="#010101" stroke-miterlimit="10" d="M108.1,362.3c-0.1-0.1-0.2-0.2-0.3-0.2c-0.3-1-0.4-1.9-0.3-2.7
						c0.1-0.8,0.3-1.5,0.4-2.3c0,0-1.2,0.6-2.3,1.1c-1.2,0.5-2.4,1.1-2.4,1.1"/>
				</g>
				<g>
					<path fill="none" stroke="#010101" stroke-miterlimit="10" d="M102.4,358.8c0,0,0.3-1.2,0.5-2.4c0.3-1.2,0.6-2.4,0.6-2.4
						s-1.2,0.5-2.4,1c-1.2,0.5-2.4,0.9-2.4,0.9"/>
				</g>
				<g>
					<path fill="none" stroke="#010101" stroke-miterlimit="10" d="M98,355.3c0,0,0.3-1.2,0.7-2.4c0.4-1.2,0.7-2.3,0.7-2.3
						s-1.2,0.4-2.5,0.8c-1.2,0.4-2.5,0.8-2.5,0.8"/>
				</g>
				<g>
					<path fill="none" stroke="#010101" stroke-miterlimit="10" d="M93.8,351.7c0,0,0.4-1.2,0.8-2.3c0.4-1.2,0.8-2.3,0.8-2.3
						s-1.2,0.4-2.5,0.7c-1.3,0.4-2.5,0.7-2.5,0.7"/>
				</g>
				<g>
					<path fill="none" stroke="#010101" stroke-miterlimit="10" d="M89.7,347.8c0,0,0.4-1.2,0.9-2.3c0.5-1.1,0.9-2.3,0.9-2.3
						s-1.3,0.3-2.5,0.6c-1.3,0.3-2.6,0.6-2.6,0.6"/>
				</g>
				<g>
					<path fill="none" stroke="#010101" stroke-miterlimit="10" d="M85.8,343.8c0,0,0.5-1.1,1-2.3c0.5-1.1,1-2.2,1-2.2
						s-1.3,0.3-2.6,0.5c-1.3,0.2-2.6,0.5-2.6,0.5"/>
				</g>
				<g>
					<path fill="none" stroke="#010101" stroke-miterlimit="10" d="M82.1,339.6c0,0,0.6-1.1,1.1-2.2c0.6-1.1,1.1-2.2,1.1-2.2
						s-1.3,0.2-2.6,0.4c-1.3,0.2-2.6,0.4-2.6,0.4"/>
				</g>
				<g>
					<path fill="none" stroke="#010101" stroke-miterlimit="10" d="M78.6,335.2c0,0,0.6-1.1,1.2-2.2c0.6-1.1,1.2-2.1,1.2-2.1
						s-1.3,0.1-2.6,0.3c-1.3,0.1-2.6,0.2-2.6,0.2"/>
				</g>
				<g>
					<path fill="none" stroke="#010101" stroke-miterlimit="10" d="M75.3,330.7c0,0,0.7-1.1,1.3-2.1c0.7-1,1.3-2.1,1.3-2.1
						s-1.3,0.1-2.6,0.1c-1.3,0-2.6,0.1-2.6,0.1"/>
				</g>
				<g>
					<path fill="none" stroke="#010101" stroke-miterlimit="10" d="M72.3,326c0,0,0.7-1,1.4-2c0.7-1,1.4-2,1.4-2s-1.3,0-2.6,0
						c-1.3,0-2.6,0-2.6,0"/>
				</g>
				<g>
					<path fill="none" stroke="#010101" stroke-miterlimit="10" d="M69.5,321.1c0,0,0.7-1,1.5-1.9c0.8-1,1.5-1.9,1.5-1.9
						s-1.3-0.1-2.6-0.1c-1.3-0.1-2.6-0.2-2.6-0.2"/>
				</g>
				<g>
					<path fill="none" stroke="#010101" stroke-miterlimit="10" d="M66.9,316.1c0,0,0.8-0.9,1.6-1.9c0.8-0.9,1.6-1.8,1.6-1.8
						s-1.3-0.1-2.6-0.2c-1.3-0.2-2.6-0.3-2.6-0.3"/>
				</g>
				<g>
					<path fill="none" stroke="#010101" stroke-miterlimit="10" d="M64.6,311c0,0,0.8-0.9,1.7-1.8c0.9-0.9,1.7-1.8,1.7-1.8
						s-1.3-0.2-2.6-0.4c-1.3-0.2-2.6-0.4-2.6-0.4"/>
				</g>
			</g>
		</g>
	</g>
</g>
<g id="leaf">
	<g>
		<path fill="#A8CF38" stroke="#010101" stroke-width="0.5" stroke-linecap="round" stroke-linejoin="round" d="M98.2,79.1
			c0,0-8.6-15-7.4-22.4l2.1,0.7c0,0-1.8-2.2,0.2-11.3l1.7,1.5c0,0-1.5-4.5,1.4-10.4l1.7,1.5c0,0,0.8-4.1,2.5-8.3l1.9,1.2
			c0,0-0.4-5,1.3-8.5l1.7,1.5c0,0,0.7-6.3,4.1-7.5l0.5,1.5c0,0,2.3-3.9,5.8-6l1.6,1.7c0,0-0.1-3.9,4.3-5.5l0.9,1.4
			c0,0,0.5-5.2,4.6-6l1.2,2.5c0,0,7.1-6.6,8.7-6.8l2.6,1.3c0.3,1.2-0.1,11-0.1,11l2.7-0.6c1.8,3.8-2,7.3-2,7.3l1.7-0.1
			c1.5,4.5-1.7,6.8-1.7,6.8l2.4,0.2c0.5,4-1.2,8.3-1.2,8.3l1.5-0.5c1.2,3.4-3.4,7.8-3.4,7.8L142,42c-1.8,3.6-6,6.3-6,6.3l2.1,0.7
			c-2.3,3.9-5.1,7-5.1,7l2.2,0.5c-2.9,5.9-7.4,7.5-7.4,7.5l2.2,0.5c-6,7.2-8.8,7.1-8.8,7.1l1.9,1.2c-5.1,5.4-22.3,7.7-22.3,7.7
			L98.2,79.1z"/>
		<path fill="#A8CF38" stroke="#010101" stroke-width="0.5" stroke-linecap="round" stroke-linejoin="round" d="M99.7,79.8
			c0,0-8.6-15-7.4-22.4l2.1,0.7c0,0-1.8-2.2,0.2-11.3l1.7,1.5c0,0-1.5-4.5,1.4-10.4l1.7,1.5c0,0,0.8-4.1,2.5-8.3l1.9,1.2
			c0,0-0.4-5,1.3-8.5l1.7,1.5c0,0,0.7-6.3,4.1-7.5l0.5,1.5c0,0,2.3-3.9,5.8-6l1.6,1.7c0,0-0.1-3.9,4.3-5.5l0.9,1.4
			c0,0,0.5-5.2,4.6-6l1.2,2.5c0,0,7.1-6.6,8.7-6.8l2.6,1.3c0.3,1.2-0.1,11-0.1,11l2.7-0.6c1.8,3.8-2,7.3-2,7.3l1.7-0.1
			c1.5,4.5-1.7,6.8-1.7,6.8l2.4,0.2c0.5,4-1.2,8.3-1.2,8.3l1.5-0.5c1.2,3.4-3.4,7.8-3.4,7.8l2.2,0.5c-1.8,3.6-6,6.3-6,6.3l2.1,0.7
			c-2.3,3.9-5.1,7-5.1,7l2.2,0.5c-2.9,5.9-7.4,7.5-7.4,7.5l2.2,0.5c-6,7.2-8.8,7.1-8.8,7.1l1.9,1.2c-5.1,5.4-22.3,7.7-22.3,7.7
			L99.7,79.8z"/>
		
			<line fill="none" stroke="#010101" stroke-width="0.5" stroke-linecap="round" stroke-linejoin="round" x1="139.2" y1="2" x2="100.6" y2="80.3"/>
		<g>
			
				<line fill="none" stroke="#010101" stroke-width="0.5" stroke-linecap="round" stroke-linejoin="round" x1="130" y1="6.3" x2="131.4" y2="12.8"/>
			
				<line fill="none" stroke="#010101" stroke-width="0.5" stroke-linecap="round" stroke-linejoin="round" x1="124.2" y1="11.1" x2="127.9" y2="18.7"/>
			
				<line fill="none" stroke="#010101" stroke-width="0.5" stroke-linecap="round" stroke-linejoin="round" x1="119.2" y1="14.8" x2="124.2" y2="24.6"/>
			
				<line fill="none" stroke="#010101" stroke-width="0.5" stroke-linecap="round" stroke-linejoin="round" x1="111.2" y1="19" x2="119.6" y2="30.7"/>
			
				<line fill="none" stroke="#010101" stroke-width="0.5" stroke-linecap="round" stroke-linejoin="round" x1="107.3" y1="24.9" x2="117.6" y2="37.4"/>
			
				<line fill="none" stroke="#010101" stroke-width="0.5" stroke-linecap="round" stroke-linejoin="round" x1="103.4" y1="32.2" x2="113.8" y2="43.6"/>
			
				<line fill="none" stroke="#010101" stroke-width="0.5" stroke-linecap="round" stroke-linejoin="round" x1="99.3" y1="38.7" x2="108.3" y2="50.8"/>
			
				<line fill="none" stroke="#010101" stroke-width="0.5" stroke-linecap="round" stroke-linejoin="round" x1="96.2" y1="47.9" x2="106.7" y2="61.2"/>
			
				<line fill="none" stroke="#010101" stroke-width="0.5" stroke-linecap="round" stroke-linejoin="round" x1="94.3" y1="57.7" x2="102.8" y2="71.8"/>
		</g>
		<g>
			
				<line fill="none" stroke="#010101" stroke-width="0.5" stroke-linecap="round" stroke-linejoin="round" x1="142.3" y1="12.4" x2="136.3" y2="15.2"/>
			
				<line fill="none" stroke="#010101" stroke-width="0.5" stroke-linecap="round" stroke-linejoin="round" x1="142" y1="19.9" x2="133.7" y2="21.6"/>
			
				<line fill="none" stroke="#010101" stroke-width="0.5" stroke-linecap="round" stroke-linejoin="round" x1="142.2" y1="26.2" x2="131.3" y2="28.1"/>
			
				<line fill="none" stroke="#010101" stroke-width="0.5" stroke-linecap="round" stroke-linejoin="round" x1="143.7" y1="35" x2="129.3" y2="35.5"/>
			
				<line fill="none" stroke="#010101" stroke-width="0.5" stroke-linecap="round" stroke-linejoin="round" x1="141.4" y1="41.7" x2="125.2" y2="41.1"/>
			
				<line fill="none" stroke="#010101" stroke-width="0.5" stroke-linecap="round" stroke-linejoin="round" x1="138" y1="49.3" x2="122.6" y2="47.9"/>
			
				<line fill="none" stroke="#010101" stroke-width="0.5" stroke-linecap="round" stroke-linejoin="round" x1="135.2" y1="56.4" x2="120.2" y2="56.6"/>
			
				<line fill="none" stroke="#010101" stroke-width="0.5" stroke-linecap="round" stroke-linejoin="round" x1="129.9" y1="64.6" x2="112.9" y2="64.2"/>
			
				<line fill="none" stroke="#010101" stroke-width="0.5" stroke-linecap="round" stroke-linejoin="round" x1="123.3" y1="72" x2="106.9" y2="73.8"/>
		</g>
		<path fill="#FFFFFF" stroke="#010101" stroke-width="0.5" stroke-linecap="round" stroke-linejoin="round" d="M145.7,27.3
			c0,0-5.7,1.5-4.2,4.5c0,0-7,1-3.7,6.5c0,0,1.7,3.7,4.7,2.3c0,0-1.9,3,1,2.5c2.9-0.6,2.2-0.7,2.2-0.7"/>
		<path fill="#FFFFFF" stroke="#010101" stroke-width="0.5" stroke-miterlimit="10" d="M108.4,34.9c-0.2,1.3-1,2.4-1.5,3.6
			c1.5,1.2,3.4-1.3,4.1-2.5c-0.8,2-0.2,6.4,2.5,3.3c-0.5,2,0.6,2.3,2.2,3.1c-0.5,1.7-2.2,2.2-3.2,3.5c-0.6,0.8-0.9,1.9-1.4,2.7
			c-1-0.7-1.2-2.1-2.1-2.8c-0.6,0.5-2.5,3-3.3,2.9c-0.9-0.1-1.8-2.3-2.9-2.7c0.4-1,1-2,1.4-3.1c-0.2-0.2-0.4-0.2-0.5-0.3
			c0.3-1.3,2.7-8,4.2-6.4"/>
		<path fill="#FFFFFF" stroke="#010101" stroke-width="0.5" stroke-miterlimit="10" d="M128,19.8c1.7-1.5,1.8-3.4,4.2-4.6
			c0.2,0.6-0.3,2.8,0.2,3.1c1.3,1.1,3.5-1.5,4.5-2.3c-0.2,0.5-1.2,2.3-0.9,2.9c0.7,1.4,2.3,0.2,3.4,0.3c-0.7,2-2.4,3.4-3.4,5.4
			c-0.6,1.3-0.8,2.4-1.3,3.7c-2.3-0.8-3.8-2.5-4.3-4.8c-0.7,1.4-3.2,6.1-3.5,2.3c-0.2-2.3,1.6-4.6,1.9-6.8"/>
		<path fill="#FFFFFF" stroke="#010101" stroke-width="0.5" stroke-miterlimit="10" d="M125.2,52.2c-0.1,1.4-2,3-2,4.4
			c0,1.9,2.3,3.2,4,3.3c-2,0.6-4,1.8-4.7,3.9c0.9,0.9,2.1,1.3,3.2,1.9c-0.9,0.4-5.4,2.7-2.9,3.7c-0.7,1.7-5.4-0.8-6.6-1.8
			c-2.5-2.2-1.6-4.8-0.5-7.5c1.6-3.8,5-7.9,9.7-7"/>
	</g>
</g>
<g id="water">
	<g>
		<path fill="#55C2E2" stroke="#070707" stroke-width="0.5" stroke-miterlimit="10" d="M17.4,94.6c0,0-36.1,41.7-4.2,51.2
			c0,0,26.1-0.6,14.6-30.9C27.7,114.8,17.8,103.2,17.4,94.6z"/>
		<path fill="none" stroke="#3A97AD" stroke-miterlimit="10" d="M15.2,142.4c5.2,2.4,13.5-10.3,12.9-14.9"/>
		
			<ellipse transform="matrix(0.7903 -0.6127 0.6127 0.7903 -81.1998 34.6412)" opacity="0.8" fill="#FFFFFF" cx="10" cy="136" rx="4.8" ry="5.8"/>
		<path opacity="0.8" fill="#FFFFFF" d="M6.7,112.8c0,0,4.7-11.6,10.3-14.6"/>
	</g>
	<g>
		<path fill="#55C2E2" stroke="#070707" stroke-width="0.5" stroke-miterlimit="10" d="M193.3,124.8c0,0-36.1,41.7-4.2,51.2
			c0,0,26.1-0.6,14.6-30.9C203.7,145.1,193.8,133.4,193.3,124.8z"/>
		<path fill="none" stroke="#3A97AD" stroke-miterlimit="10" d="M191.2,172.6c5.2,2.4,13.5-10.3,12.9-14.9"/>
		
			<ellipse transform="matrix(0.7903 -0.6127 0.6127 0.7903 -62.807 148.7997)" opacity="0.8" fill="#FFFFFF" cx="186" cy="166.2" rx="4.8" ry="5.8"/>
		<path opacity="0.8" fill="#FFFFFF" d="M182.7,143.1c0,0,4.7-11.6,10.3-14.6"/>
	</g>
	<g>
		<path fill="#55C2E2" stroke="#070707" stroke-width="0.5" stroke-miterlimit="10" d="M43.1,164.7c0,0-21.7,25.1-2.5,30.8
			c0,0,15.7-0.4,8.8-18.6C49.3,176.9,43.4,169.9,43.1,164.7z"/>
		<path fill="none" stroke="#3A97AD" stroke-miterlimit="10" d="M41.8,193.5c3.1,1.4,8.1-6.2,7.7-9"/>
		
			<ellipse transform="matrix(0.7901 -0.613 0.613 0.7901 -109.8186 63.7778)" opacity="0.8" fill="#FFFFFF" cx="38.2" cy="192.2" rx="1.7" ry="2.1"/>
		<path opacity="0.8" fill="#FFFFFF" d="M36.7,175.7c0,0,2.8-7,6.2-8.8"/>
	</g>
	<g>
		<path fill="#55C2E2" stroke="#070707" stroke-width="0.5" stroke-miterlimit="10" d="M38.1,273.2c0,0-13.5,15.7-1.6,19.2
			c0,0,9.8-0.2,5.5-11.6C42,280.8,38.2,276.5,38.1,273.2z"/>
		<path fill="none" stroke="#3A97AD" stroke-miterlimit="10" d="M37.3,291.2c1.9,0.9,5.1-3.9,4.8-5.6"/>
		
			<ellipse transform="matrix(0.7906 -0.6123 0.6123 0.7906 -169.5362 81.7318)" opacity="0.8" fill="#FFFFFF" cx="34.7" cy="288.8" rx="0.9" ry="1"/>
		<path opacity="0.8" fill="#FFFFFF" d="M34.1,280.1c0,0,1.8-4.4,3.9-5.5"/>
	</g>
	<g>
		<path fill="#55C2E2" stroke="#070707" stroke-width="0.5" stroke-miterlimit="10" d="M198.4,267.6c0,0-13.5,15.7-1.6,19.2
			c0,0,9.8-0.2,5.5-11.6C202.3,275.2,198.5,270.9,198.4,267.6z"/>
		<path fill="none" stroke="#3A97AD" stroke-miterlimit="10" d="M197.6,285.6c1.9,0.9,5.1-3.9,4.8-5.6"/>
		
			<ellipse transform="matrix(0.7906 -0.6123 0.6123 0.7906 -132.539 178.7132)" opacity="0.8" fill="#FFFFFF" cx="195" cy="283.1" rx="0.9" ry="1"/>
		<path opacity="0.8" fill="#FFFFFF" d="M194.4,274.5c0,0,1.8-4.4,3.9-5.5"/>
	</g>
	<g>
		<path fill="#55C2E2" stroke="#070707" stroke-width="0.5" stroke-miterlimit="10" d="M207.4,199.7c0,0-13.5,15.7-1.6,19.2
			c0,0,9.8-0.2,5.5-11.6C211.3,207.3,207.6,203,207.4,199.7z"/>
		<path fill="none" stroke="#3A97AD" stroke-miterlimit="10" d="M206.6,217.7c1.9,0.9,5.1-3.9,4.8-5.6"/>
		
			<ellipse transform="matrix(0.7904 -0.6126 0.6126 0.7904 -89.0884 170.1145)" opacity="0.8" fill="#FFFFFF" cx="204" cy="215.2" rx="0.9" ry="1"/>
		<path opacity="0.8" fill="#FFFFFF" d="M203.4,206.6c0,0,1.8-4.4,3.9-5.5"/>
	</g>
</g>
</svg>
