<?xml version="1.0" encoding="utf-8"?>
<!-- Generator: Adobe Illustrator 17.1.0, SVG Export Plug-In . SVG Version: 6.00 Build 0)  -->
<!DOCTYPE svg PUBLIC "-//W3C//DTD SVG 1.1//EN" "http://www.w3.org/Graphics/SVG/1.1/DTD/svg11.dtd">
<svg version="1.1" xmlns="http://www.w3.org/2000/svg" xmlns:xlink="http://www.w3.org/1999/xlink" x="0px" y="0px"
	 viewBox="0 0 184.4 373.5" enable-background="new 0 0 184.4 373.5" xml:space="preserve">
<pattern  x="-230.5" y="-178.5" width="8.7" height="8.7" patternUnits="userSpaceOnUse" id="New_Pattern_Swatch_12" viewBox="0 -8.7 8.7 8.7" overflow="visible">
	<g>
		<polygon fill="none" points="8.7,0 0,0 0,-8.7 8.7,-8.7 		"/>
		<g>
			<path fill="#010101" d="M5-4.5c0,0.4-0.3,0.7-0.7,0.7C4-3.8,3.7-4.1,3.7-4.5c0-0.4,0.3-0.7,0.7-0.7C4.7-5.2,5-4.9,5-4.5z"/>
		</g>
	</g>
</pattern>
<g id="legs">
	<path fill="#FFFFFF" stroke="#010101" stroke-miterlimit="10" d="M108,154.2l20.7-16.6c0,0-2.9,0.5-4.4,0.8c0,0,14.9-23.8,7.3-37
		c0,0,2,18.7-7.9,33.4c0,0,3.1-8.8,0.7-10.2c0,0,0.2,8.5-6.8,17.1l-9.1,6.2L108,154.2z"/>
	<path fill="#FFFFFF" stroke="#010101" stroke-miterlimit="10" d="M100.3,158.9c0,0,10.3-0.7,10.3-4.8c0-2.1-0.4-3.9-1.4-5.1
		c-1-1.3-2.5-2-4.9-1.8C104.3,147.1,98.8,157,100.3,158.9z"/>
	<path fill="#FFFFFF" stroke="#010101" stroke-miterlimit="10" d="M127,194.4c0,0,11.8,26.4,12.8,44.8c1,18.4,0.6,34.8-3.7,36.2
		c0,0,3.6-16.4,1.6-22c0,0-1.6,0-1.2,4.4c0,0-2.6-4.9-0.2-10.5c0,0-1.2-31.2-15.8-49.2L127,194.4z"/>
	<path fill="#FFFFFF" stroke="#010101" stroke-miterlimit="10" d="M101.5,182.3c0,0,16.3,1.6,21.9,6.2c0,0,10,10.7-3,9.7
		c-12.9-1-12.9-1-12.9-1S107.3,187,101.5,182.3z"/>
	<path fill="#FFFFFF" stroke="#010101" stroke-miterlimit="10" d="M114.7,252.3c0,0,18.2,23.5,19.8,28.8c0,0-5.9,3-11.3,1.2
		l-8.7-11.1L114.7,252.3z"/>
	<path fill="#FFFFFF" stroke="#010101" stroke-miterlimit="10" d="M131.3,282.4c0,0-3.1,67.7,1.6,76.8c0,0-7.7-6.1-5.5-25.7
		c0,0-2.8,3.4-2.9,7.3c0,0-1.2-8.1,4.2-14.2l-1.7-43.5L131.3,282.4z"/>
	<path fill="#FFFFFF" stroke="#010101" stroke-miterlimit="10" d="M50.1,154.2l-20.7-16.6c0,0,2.9,0.5,4.4,0.8c0,0-14.9-23.8-7.3-37
		c0,0-2,18.7,7.9,33.4c0,0-3.1-8.8-0.7-10.2c0,0-0.2,8.5,6.8,17.1l9.1,6.2L50.1,154.2z"/>
	<path fill="#FFFFFF" stroke="#010101" stroke-miterlimit="10" d="M57.8,158.9c0,0-10.3-0.7-10.3-4.8c0-2.1,0.4-3.9,1.4-5.1
		c1-1.3,2.5-2,4.9-1.8C53.8,147.1,59.3,157,57.8,158.9z"/>
	<path fill="#FFFFFF" stroke="#010101" stroke-miterlimit="10" d="M31.2,194.4c0,0-11.8,26.4-12.8,44.8c-1,18.4-0.6,34.8,3.8,36.2
		c0,0-3.6-16.4-1.6-22c0,0,1.6,0,1.2,4.4c0,0,2.6-4.9,0.2-10.5c0,0,1.2-31.2,15.8-49.2L31.2,194.4z"/>
	<path fill="#FFFFFF" stroke="#010101" stroke-miterlimit="10" d="M56.6,182.3c0,0-16.3,1.6-21.9,6.2c0,0-10,10.7,3,9.7
		c12.9-1,12.9-1,12.9-1S50.8,187,56.6,182.3z"/>
	<path fill="#FFFFFF" stroke="#010101" stroke-miterlimit="10" d="M43.4,252.3c0,0-18.2,23.5-19.8,28.8c0,0,5.9,3,11.3,1.2l8.7-11.1
		L43.4,252.3z"/>
	<path fill="#FFFFFF" stroke="#010101" stroke-miterlimit="10" d="M26.8,282.4c0,0,3.1,67.7-1.6,76.8c0,0,7.7-6.1,5.5-25.7
		c0,0,2.8,3.4,2.9,7.3c0,0,1.2-8.1-4.2-14.2l1.7-43.5L26.8,282.4z"/>
</g>
<g id="basebody">
	<path fill="#FFFFFF" stroke="#000000" stroke-miterlimit="10" d="M110.2,327.5c9.6-2.6,7.1-15,7.1-15l3.1-20.7
		c9.7-16.7-2.2-28.2-2.2-28.2l-4.4-24.7c11-13.7-1.9-25.5-1.9-25.5l-3.7-24.7c10.3-12.8-4-18.5-4-18.5l-3.2-23.3
		c9.3-15-4.8-18.9-4.8-18.9c-14.6,10.3-34.3,0-34.3,0s-14.1,4-4.8,18.9l-3.1,23.3c0,0-14.3,5.7-4,18.5l-3.7,24.7
		c0,0-12.9,11.9-1.9,25.5l-4.4,24.7c0,0-11.9,11.5-2.2,28.2l3.1,20.7c0,0-2.5,12.3,7.1,15L58,345.4"/>
	<path fill="#FFFFFF" stroke="#000000" stroke-miterlimit="10" d="M58,344.3c0,0,3.5,18.1,20.7,19.4h0.8
		c17.2-1.3,20.7-19.4,20.7-19.4l10.5-17.4"/>
	<path fill="#FFFFFF" stroke="#000000" stroke-miterlimit="10" d="M117.3,312.5c-41.1,7.5-76.5,0-76.5,0l-3.1-20.7
		c0,0,43.6,11.9,82.7,0L117.3,312.5z"/>
	<path fill="#FFFFFF" stroke="#000000" stroke-miterlimit="10" d="M118.2,263.7c-37.5,10.1-78.4,0-78.4,0l4.4-24.7
		c0,0,31.7,9.2,69.5,0L118.2,263.7z"/>
	<path fill="#FFFFFF" stroke="#000000" stroke-miterlimit="10" d="M111.9,213.4c-33.3,9.2-65.7,0-65.7,0l3.7-24.7c0,0,30.1,7,58.3,0
		L111.9,213.4z"/>
	<path fill="#FFFFFF" stroke="#000000" stroke-miterlimit="10" d="M104.2,170.3c-25.8,4.2-50.2,0-50.2,0l3.1-23.3
		c0,0,22.7,4.6,43.9,0L104.2,170.3z"/>
	<path fill="#FFFFFF" stroke="#000000" stroke-miterlimit="10" d="M110.6,326.9c-37,10.4-62.8,0-62.8,0l10.9,16.7
		c0,0,18.3,8.1,40.7,0L110.6,326.9z"/>
	<path fill="#FFFFFF" stroke="#000000" stroke-miterlimit="10" d="M75.9,138.4c0,0-12.5-6-18.6-4c0,0-4.9-22.5,7.1-26.6
		c0,0,2.2,2.3,6.5,2.2c4.3-0.1,20.7,0,20.7,0s3.1-0.8,3.3-1.5c0,0,10.9,6.7,6.4,25.7c0,0-6.7-0.5-16.4,3.6l-5.2,3.5L75.9,138.4z"/>
	<path fill="#FFFFFF" stroke="#000000" stroke-miterlimit="10" d="M59.6,109.9c0,0,21.5-19.9,40.2,0.8c0,0-1.7,2-8.1,2
		c-6.4,0-26.4,0-26.4,0S61,112.3,59.6,109.9z"/>
</g>
<g id="bodycolor">
	<path fill="#6CBE45" stroke="#010101" stroke-miterlimit="10" d="M110.2,327.6c9.6-2.6,7.1-15,7.1-15l3.1-20.7
		c9.7-16.7-2.2-28.2-2.2-28.2l-4.4-24.7c11-13.7-1.9-25.5-1.9-25.5l-3.7-24.7c10.3-12.8-4-18.5-4-18.5L101,147
		c9.3-15-4.8-18.9-4.8-18.9c-14.6,10.3-34.3,0-34.3,0s-14.1,4-4.8,18.9l-3.1,23.3c0,0-14.3,5.7-4,18.5l-3.7,24.7
		c0,0-12.9,11.9-1.9,25.5l-4.4,24.7c0,0-11.9,11.5-2.2,28.2l3.1,20.7c0,0-2.5,12.3,7.1,15L58,345.5"/>
	<path fill="#6CBE45" stroke="#010101" stroke-miterlimit="10" d="M58,344.4c0,0,3.5,18.1,20.7,19.4h0.8
		c17.2-1.3,20.7-19.4,20.7-19.4l10.5-17.4"/>
	<path fill="#D0DD28" stroke="#010101" stroke-miterlimit="10" d="M117.3,312.7c-41.1,7.5-76.5,0-76.5,0L37.7,292
		c0,0,43.6,11.9,82.7,0L117.3,312.7z"/>
	<path fill="#D0DD28" stroke="#010101" stroke-miterlimit="10" d="M118.2,263.8c-37.5,10.1-78.4,0-78.4,0l4.4-24.7
		c0,0,31.7,9.2,69.5,0L118.2,263.8z"/>
	<path fill="#D0DD28" stroke="#010101" stroke-miterlimit="10" d="M111.9,213.5c-33.3,9.2-65.7,0-65.7,0l3.7-24.7c0,0,30.1,7,58.3,0
		L111.9,213.5z"/>
	<path fill="#D0DD28" stroke="#010101" stroke-miterlimit="10" d="M104.2,170.4c-25.8,4.2-50.2,0-50.2,0l3.1-23.3
		c0,0,22.7,4.6,43.9,0L104.2,170.4z"/>
	<path fill="#D0DD28" stroke="#010101" stroke-miterlimit="10" d="M110.6,327c-37,10.4-62.8,0-62.8,0l10.9,16.7c0,0,18.3,8.1,40.7,0
		L110.6,327z"/>
	<path fill="#D0DD28" stroke="#010101" stroke-miterlimit="10" d="M75.9,138.5c0,0-12.5-6-18.6-4c0,0-4.9-22.5,7.1-26.6
		c0,0,2.2,2.3,6.5,2.2c4.3-0.1,20.7,0,20.7,0s3.1-0.8,3.3-1.5c0,0,10.9,6.7,6.4,25.7c0,0-6.7-0.5-16.4,3.6l-5.2,3.5L75.9,138.5z"/>
	<g>
		<g>
			<path fill="none" stroke="#010101" stroke-miterlimit="10" d="M91.6,109.4"/>
		</g>
	</g>
	<path fill="#6CBE45" stroke="#010101" stroke-miterlimit="10" d="M59.6,110c0,0,21.5-19.9,40.2,0.8c0,0-1.7,2-8.1,2
		c-6.4,0-26.4,0-26.4,0S61,112.4,59.6,110z"/>
</g>
<g id="eyes">
	<path fill="#FFFFFF" stroke="#010101" stroke-miterlimit="10" d="M60.2,110.5c0,0,4.7-5.8,8.4-3.2c0,0-0.9,7.3-8.8,4L60.2,110.5z"
		/>
	<path fill="#FFFFFF" stroke="#010101" stroke-miterlimit="10" d="M99.3,110.5c0,0-4.7-5.8-8.4-3.2c0,0,0.9,7.3,8.8,4L99.3,110.5z"
		/>
</g>
<g id="antennae">
	<path fill="none" stroke="#010101" stroke-width="0.5" stroke-miterlimit="10" d="M84.1,101.4c0,0,29.3-30.1,56.2-3.6"/>
	<path fill="none" stroke="#010101" stroke-width="0.5" stroke-miterlimit="10" d="M74,101.4c0,0-29.3-30.1-56.2-3.6"/>
</g>
<g id="markings">
	<path fill="#010101" d="M67,162.9c0,0-16.4,27.9,0,79.4C67,242.3,84.6,191.1,67,162.9z"/>
	<path fill="#010101" d="M93.7,253.4c0,0-16.4,27.9,0,79.4C93.7,332.8,111.3,281.5,93.7,253.4z"/>
</g>
<g id="dots">
	<path fill="url(#New_Pattern_Swatch_12)" stroke="#010101" stroke-miterlimit="10" d="M117,313.3c-41.1,7.5-76.5,0-76.5,0
		l-3.1-20.7c0,0,43.6,11.9,82.7,0L117,313.3z"/>
	<path fill="url(#New_Pattern_Swatch_12)" stroke="#010101" stroke-miterlimit="10" d="M117.9,264.4c-37.5,10.1-78.4,0-78.4,0
		l4.4-24.7c0,0,31.7,9.2,69.5,0L117.9,264.4z"/>
	<path fill="url(#New_Pattern_Swatch_12)" stroke="#010101" stroke-miterlimit="10" d="M111.6,214.2c-33.3,9.2-65.7,0-65.7,0
		l3.7-24.7c0,0,30.1,7,58.3,0L111.6,214.2z"/>
	<pattern  id="SVGID_1_" xlink:href="#New_Pattern_Swatch_12" patternTransform="matrix(1 0 0 1 -4.792 -1.2412)">
	</pattern>
	<path fill="url(#SVGID_1_)" stroke="#010101" stroke-miterlimit="10" d="M104.2,171c-25.8,4.2-50.2,0-50.2,0l3.1-23.3
		c0,0,22.7,4.6,43.9,0L104.2,171z"/>
	<path fill="url(#New_Pattern_Swatch_12)" stroke="#010101" stroke-miterlimit="10" d="M110.9,327.7c-37,10.4-62.8,0-62.8,0
		l10.9,16.7c0,0,18.3,8.1,40.7,0L110.9,327.7z"/>
</g>
<g id="fur">
	<g>
		<g>
			<path fill="none" stroke="#010101" stroke-miterlimit="10" d="M86.6,91"/>
		</g>
	</g>
	<g>
		<g>
			<path fill="none" stroke="#010101" stroke-miterlimit="10" d="M-96.6,353"/>
		</g>
	</g>
	<g>
		<g>
			<path fill="none" stroke="#010101" stroke-miterlimit="10" d="M114.1,311.7"/>
		</g>
	</g>
	<g>
		<g>
			<g>
				<g>
					<path fill="none" stroke="#010101" stroke-miterlimit="10" d="M108.5,131.9c0,0-0.9,1-1.8,1.8c-0.5,0.4-1,0.8-1.4,1
						c-0.4,0.2-0.6,0.4-0.6,0.4s0.3,0.1,0.8,0.3c0.5,0.2,1,0.5,1.6,0.8c0.6,0.3,1.1,0.7,1.6,1c0.4,0.3,0.7,0.5,0.7,0.5"/>
				</g>
				<g>
					<path fill="none" stroke="#010101" stroke-miterlimit="10" d="M109.2,138.8c0,0-1.2,0.5-2.4,0.8c-1.2,0.3-2.4,0.5-2.4,0.5
						s0.3,0.2,0.6,0.6c0.3,0.3,0.8,0.8,1.2,1.3c0.4,0.5,0.8,1.1,1.1,1.5c0.3,0.4,0.5,0.7,0.5,0.7"/>
				</g>
				<g>
					<path fill="none" stroke="#010101" stroke-miterlimit="10" d="M107.3,145.1c0,0-0.3,0-0.8,0c-0.5,0-1.1,0-1.7,0
						c-1.3,0-2.5-0.2-2.5-0.1c0,0,0.1,0.4,0.4,0.8c0.1,0.2,0.2,0.4,0.5,0.7c0.3,0.2,0.6,0.4,0.9,0.6c0.3,0.2,0.6,0.2,0.9,0.3
						c0.3,0.1,0.5,0.2,0.8,0.3c0.5,0.2,0.8,0.3,0.8,0.3"/>
				</g>
				<g>
					<polyline fill="none" stroke="#010101" stroke-miterlimit="10" points="106.6,149.1 102.4,151.7 107.3,153.8 					"/>
				</g>
				<g>
					<polyline fill="none" stroke="#010101" stroke-miterlimit="10" points="107.4,154.8 103.2,157.4 108,159.6 					"/>
				</g>
				<g>
					<polyline fill="none" stroke="#010101" stroke-miterlimit="10" points="108.2,160.5 104,163.1 108.8,165.3 					"/>
				</g>
				<g>
					<path fill="none" stroke="#010101" stroke-miterlimit="10" d="M109.4,166.2c0,0-0.1,1.2-0.4,2.5c-0.1,0.6-0.3,1.2-0.4,1.6
						c-0.1,0.4-0.2,0.7-0.2,0.7s1.2-0.5,2.5-0.8c1.3-0.3,2.7-0.4,2.7-0.4"/>
				</g>
				<g>
					<path fill="none" stroke="#010101" stroke-miterlimit="10" d="M114.2,170.7c0,0-0.5,1.2-1.2,2.2c-0.7,1.1-1.5,2-1.5,2
						s1.3,0,2.6,0.3c0.6,0.1,1.3,0.3,1.8,0.5c0.3,0.1,0.5,0.2,0.6,0.2c0.1,0.1,0.2,0.1,0.2,0.1"/>
				</g>
				<g>
					<path fill="none" stroke="#010101" stroke-miterlimit="10" d="M116.9,177c0,0-0.3,0.2-0.6,0.5c-0.4,0.3-0.9,0.6-1.5,0.9
						c-0.5,0.3-1.1,0.6-1.5,0.7c-0.4,0.2-0.7,0.3-0.7,0.3s1.1,0.6,2.1,1.5c1,0.8,1.9,1.9,1.9,1.9"/>
				</g>
				<g>
					<path fill="none" stroke="#010101" stroke-miterlimit="10" d="M116.3,183.8c0,0-1.2,0.2-2.5,0.3c-1.3,0.1-2.5,0-2.5,0
						s0.2,0.3,0.5,0.7c0.3,0.4,0.6,0.9,0.9,1.5c0.3,0.6,0.6,1.2,0.9,1.6c0.2,0.5,0.3,0.8,0.3,0.8"/>
				</g>
				<g>
					<polyline fill="none" stroke="#010101" stroke-miterlimit="10" points="113.7,189.8 109.5,192.4 114.4,194.4 					"/>
				</g>
				<g>
					<polyline fill="none" stroke="#010101" stroke-miterlimit="10" points="114.5,195.3 110.4,198 115.2,200 					"/>
				</g>
				<g>
					<polyline fill="none" stroke="#010101" stroke-miterlimit="10" points="115.4,200.9 111.2,203.6 116.1,205.6 					"/>
				</g>
				<g>
					<path fill="none" stroke="#010101" stroke-miterlimit="10" d="M116.2,206.5l-4.2,2.7c0,0,1.2,0.5,2.4,1
						c0.6,0.2,1.2,0.2,1.6,0.1c0.5-0.1,0.7-0.3,0.7-0.3"/>
				</g>
				<g>
					<path fill="none" stroke="#010101" stroke-miterlimit="10" d="M117.1,210.4c0,0-0.5,1.2-1.1,2.3c-0.5,1.1-1.2,2.1-1.2,2.1
						s0.3,0,0.8-0.1c0.5,0,1.2-0.1,1.8-0.1c1.3,0,2.7,0.1,2.7,0.1"/>
				</g>
				<g>
					<path fill="none" stroke="#010101" stroke-miterlimit="10" d="M120.6,215.6c0,0-0.2,0.3-0.5,0.6c-0.3,0.4-0.7,0.9-1.1,1.3
						c-0.8,1-1.7,1.8-1.7,1.8s0.3,0,0.8,0.1c0.5,0.1,1.1,0.2,1.8,0.3c0.6,0.1,1.3,0.3,1.8,0.5c0.5,0.2,0.8,0.3,0.8,0.3"/>
				</g>
				<g>
					<path fill="none" stroke="#010101" stroke-miterlimit="10" d="M122.8,221.5c0,0-0.9,0.8-2,1.5c-1,0.7-2.1,1.3-2.1,1.3
						s0.3,0.1,0.7,0.3c0.4,0.2,1,0.5,1.6,0.8c0.6,0.3,1.2,0.7,1.6,0.9c0.4,0.3,0.7,0.5,0.7,0.5"/>
				</g>
				<g>
					<path fill="none" stroke="#010101" stroke-miterlimit="10" d="M123.3,227.9c0,0-0.3,0.1-0.7,0.3c-0.4,0.2-1,0.4-1.6,0.6
						c-1.2,0.4-2.4,0.6-2.4,0.6s1,0.8,1.9,1.7c0.9,0.9,1.8,2,1.8,2"/>
				</g>
				<g>
					<path fill="none" stroke="#010101" stroke-miterlimit="10" d="M122,234.1c0,0-1.3,0.1-2.5,0.2c-0.6,0-1.2,0-1.7,0
						c-0.5,0-0.8,0-0.8,0s0.7,1,1.4,2.2c0.3,0.6,0.6,1.2,0.8,1.6c0.2,0.5,0.3,0.8,0.3,0.8"/>
				</g>
				<g>
					<polyline fill="none" stroke="#010101" stroke-miterlimit="10" points="119.4,239.9 115.3,242.7 120.2,244.5 					"/>
				</g>
				<g>
					<polyline fill="none" stroke="#010101" stroke-miterlimit="10" points="120.3,245.4 116.3,248.2 121.2,250 					"/>
				</g>
				<g>
					<polyline fill="none" stroke="#010101" stroke-miterlimit="10" points="121.3,250.9 117.3,253.7 122.2,255.5 					"/>
				</g>
				<g>
					<path fill="none" stroke="#010101" stroke-miterlimit="10" d="M122.3,256.4l-4.1,2.8c0,0,1.2,0.5,2.5,0.9
						c0.3,0.1,0.6,0.2,0.9,0.3c0.3,0,0.5,0,0.7,0c0.4-0.1,0.7-0.2,0.7-0.2"/>
				</g>
				<g>
					<path fill="none" stroke="#010101" stroke-miterlimit="10" d="M123.2,260.5c0,0-0.5,1.1-1.1,2.2c-0.6,1.1-1.3,2.1-1.3,2.1
						s0.3,0,0.8-0.1c0.5,0,1.1-0.1,1.8,0c1.3,0,2.7,0.1,2.7,0.1"/>
				</g>
				<g>
					<path fill="none" stroke="#010101" stroke-miterlimit="10" d="M126.5,265.7c0,0-0.8,1-1.6,1.9c-0.8,0.9-1.7,1.8-1.7,1.8
						s0.3,0,0.8,0.1c0.5,0.1,1.2,0.2,1.8,0.3c1.3,0.3,2.6,0.7,2.6,0.7"/>
				</g>
				<g>
					<path fill="none" stroke="#010101" stroke-miterlimit="10" d="M128.6,271.5c0,0-1,0.8-2,1.5c-0.5,0.4-1,0.7-1.4,0.9
						c-0.4,0.2-0.7,0.4-0.7,0.4s1.2,0.4,2.4,1c0.6,0.3,1.2,0.6,1.6,0.8c0.4,0.3,0.7,0.4,0.7,0.4"/>
				</g>
				<g>
					<path fill="none" stroke="#010101" stroke-miterlimit="10" d="M129.3,277.7c0,0-1.1,0.6-2.3,1c-0.6,0.2-1.1,0.5-1.6,0.6
						c-0.4,0.1-0.7,0.2-0.7,0.2c0,0,1.1,0.7,2.1,1.5c0.5,0.4,1,0.8,1.4,1.2c0.4,0.3,0.6,0.6,0.6,0.6"/>
				</g>
				<g>
					<path fill="none" stroke="#010101" stroke-miterlimit="10" d="M128.6,283.8c0,0-1.2,0.3-2.4,0.5c-0.6,0.1-1.2,0.2-1.6,0.3
						c-0.5,0.1-0.8,0.1-0.8,0.1s0.9,0.9,1.7,1.9c0.8,1,1.6,2.1,1.6,2.1"/>
				</g>
				<g>
					<path fill="none" stroke="#010101" stroke-miterlimit="10" d="M126.8,289.6c0,0-1.3,0-2.5,0c-1.2,0-2.5-0.1-2.5-0.1
						s0.7,1.1,1.4,2.2c0.2,0.2,0.4,0.4,0.7,0.6c0.1,0.1,0.2,0.1,0.4,0.2c0.1,0.1,0.2,0.2,0.3,0.3c0.4,0.3,0.6,0.5,0.6,0.5"/>
				</g>
				<g>
					<polyline fill="none" stroke="#010101" stroke-miterlimit="10" points="125.1,294.2 120.4,295.5 124.4,298.8 					"/>
				</g>
				<g>
					<polyline fill="none" stroke="#010101" stroke-miterlimit="10" points="124.3,299.7 119.5,301 123.6,304.3 					"/>
				</g>
				<g>
					<polyline fill="none" stroke="#010101" stroke-miterlimit="10" points="123.5,305.2 118.7,306.6 122.8,309.9 					"/>
				</g>
				<g>
					<path fill="none" stroke="#010101" stroke-miterlimit="10" d="M122.6,310.8c0,0-0.3,0.1-0.7,0.2c-0.4,0.1-1,0.3-1.6,0.4
						c-0.3,0.1-0.6,0.2-0.8,0.4c-0.2,0.1-0.5,0.3-0.7,0.5c-0.4,0.2-0.7,0.4-0.7,0.4s0.3,0.1,0.7,0.3c0.4,0.2,1,0.5,1.6,0.8
						c0.6,0.3,1.1,0.6,1.6,0.9c0.4,0.3,0.7,0.5,0.7,0.5"/>
				</g>
				<g>
					<path fill="none" stroke="#010101" stroke-miterlimit="10" d="M122.7,316.1c0,0-0.3,0.1-0.7,0.3c-0.4,0.2-1,0.4-1.6,0.6
						c-1.2,0.4-2.4,0.7-2.4,0.7s0.3,0.2,0.6,0.5c0.4,0.3,0.9,0.7,1.3,1.2c0.5,0.5,0.9,0.9,1.3,1.3c0.3,0.4,0.5,0.7,0.5,0.7"/>
				</g>
				<g>
					<path fill="none" stroke="#010101" stroke-miterlimit="10" d="M121.6,322.3c0,0-1.3,0.2-2.5,0.2c-0.6,0-1.2,0-1.7-0.1
						c-0.5,0-0.8-0.1-0.8-0.1s0.2,0.3,0.4,0.7c0.3,0.4,0.6,1,0.8,1.6c0.3,0.6,0.5,1.3,0.7,1.7c0.1,0.5,0.2,0.8,0.2,0.8"/>
				</g>
				<g>
					<path fill="none" stroke="#010101" stroke-miterlimit="10" d="M118,328c0,0-1.3-0.4-2.4-0.9c-1.1-0.5-2.1-1.2-2.1-1.2
						s0,0.3,0.1,0.8c0,0.5,0.1,1.2,0,1.8c-0.1,1.3-0.4,2.7-0.4,2.7"/>
				</g>
				<g>
					<polyline fill="none" stroke="#010101" stroke-miterlimit="10" points="112.4,331.9 107.5,332.2 110.7,336.4 					"/>
				</g>
				<g>
					<polyline fill="none" stroke="#010101" stroke-miterlimit="10" points="110.4,337.2 105.4,337.5 108.6,341.7 					"/>
				</g>
				<g>
					<path fill="none" stroke="#010101" stroke-miterlimit="10" d="M108.3,342.6l-4.9,0.3c0,0,0.8,1,1.6,2.1c0.4,0.5,0.8,1,1.1,1.4
						c0.1,0.2,0.3,0.2,0.4,0.4c0.1,0.1,0.1,0.2,0.1,0.2"/>
				</g>
				<g>
					<path fill="none" stroke="#010101" stroke-miterlimit="10" d="M106.3,347.9c0,0-1.2,0.1-2.5,0.2c-1.2,0-2.5,0-2.5,0
						s0.8,1.1,1.5,2.2c0.7,1.1,1.4,2.3,1.4,2.3"/>
				</g>
				<g>
					<path fill="none" stroke="#010101" stroke-miterlimit="10" d="M103.8,353.3c0,0-1.3,0-2.5-0.1c-1.2-0.1-2.5-0.2-2.5-0.2
						s0.6,1.1,1.2,2.3c0.6,1.2,1.1,2.4,1.1,2.4"/>
				</g>
				<g>
					<path fill="none" stroke="#010101" stroke-miterlimit="10" d="M100.7,358.5c0,0-1.2-0.2-2.5-0.4c-1.2-0.2-2.4-0.5-2.4-0.5
						s0.5,1.2,0.9,2.5c0.4,1.2,0.8,2.5,0.8,2.5"/>
				</g>
				<g>
					<path fill="none" stroke="#010101" stroke-miterlimit="10" d="M96.9,363.2c0,0-1.2-0.4-2.4-0.8c-1.2-0.4-2.3-0.9-2.3-0.9
						c0,0,0.3,1.3,0.5,2.6c0.2,1.3,0.3,2.7,0.3,2.7"/>
				</g>
				<g>
					<path fill="none" stroke="#010101" stroke-miterlimit="10" d="M92.3,367.4c0,0-1.1-0.6-2.2-1.2c-1.1-0.6-2.1-1.3-2.1-1.3
						s0,0.3,0,0.8c0,0.5,0,1.2,0,1.8c0,0.7-0.1,1.3-0.1,1.8c-0.1,0.5-0.1,0.8-0.1,0.8"/>
				</g>
				<g>
					<path fill="none" stroke="#010101" stroke-miterlimit="10" d="M86.9,370.5c0,0-0.2-0.2-0.6-0.5c-0.4-0.3-0.8-0.7-1.3-1.2
						c-0.4-0.4-0.9-0.9-1.2-1.2c-0.3-0.3-0.5-0.6-0.5-0.6s-0.2,1.3-0.6,2.5c-0.4,1.2-0.9,2.5-0.9,2.5"/>
				</g>
				<g>
					<path fill="none" stroke="#010101" stroke-miterlimit="10" d="M80.7,372.3c0,0-0.2-0.3-0.5-0.6c-0.1-0.2-0.3-0.4-0.5-0.7
						c-0.2-0.2-0.3-0.5-0.5-0.8c-0.3-0.6-0.4-1.2-0.5-1.6c-0.1-0.4-0.2-0.7-0.2-0.7s-0.8,1-1.8,1.9c-0.9,0.9-1.9,1.8-1.9,1.8"/>
				</g>
				<g>
					<path fill="none" stroke="#010101" stroke-miterlimit="10" d="M74,371.3c0,0-0.2-1.2-0.3-2.5c-0.1-1.2-0.2-2.5-0.2-2.5
						s-1,0.8-2.1,1.6c-1.1,0.8-2.2,1.5-2.2,1.5"/>
				</g>
				<g>
					<path fill="none" stroke="#010101" stroke-miterlimit="10" d="M68.3,369.1c0,0,0-1.2,0.1-2.5c0.1-1.2,0.2-2.5,0.2-2.5
						c0,0-1.1,0.7-2.3,1.2c-0.6,0.3-1.2,0.6-1.7,0.8c-0.5,0.2-0.8,0.3-0.8,0.3"/>
				</g>
				<g>
					<path fill="none" stroke="#010101" stroke-miterlimit="10" d="M63,365.9c0,0,0.2-1.2,0.5-2.4c0.3-1.2,0.7-2.4,0.7-2.4
						s-0.3,0.1-0.8,0.3c-0.5,0.2-1.1,0.3-1.7,0.5c-0.6,0.2-1.3,0.3-1.8,0.4c-0.5,0.1-0.8,0.1-0.8,0.1"/>
				</g>
				<g>
					<path fill="none" stroke="#010101" stroke-miterlimit="10" d="M58.4,361.6c0,0,0.5-1.2,1.1-2.3c0.6-1.1,1.2-2.1,1.2-2.1
						s-0.3,0-0.8,0.1c-0.5,0-1.2,0.1-1.8,0c-0.7,0-1.3,0-1.8-0.1c-0.5,0-0.8-0.1-0.8-0.1"/>
				</g>
				<g>
					<path fill="none" stroke="#010101" stroke-miterlimit="10" d="M55,356.2c0,0,0.7-1,1.6-1.9c0.8-0.9,1.7-1.7,1.7-1.7
						c0,0-0.3,0-0.8-0.1c-0.5-0.1-1.1-0.2-1.8-0.4c-0.6-0.2-1.3-0.4-1.8-0.5c-0.5-0.2-0.8-0.3-0.8-0.3"/>
				</g>
				<g>
					<path fill="none" stroke="#010101" stroke-miterlimit="10" d="M53,350.2c0,0,1-0.8,2-1.5c1-0.7,2.1-1.3,2.1-1.3
						s-0.3-0.1-0.7-0.3c-0.4-0.2-1-0.5-1.6-0.8c-0.3-0.1-0.6-0.2-0.9-0.2c-0.3,0-0.6,0-0.8,0.1c-0.2,0.1-0.4,0.1-0.6,0.1
						c-0.1,0-0.2,0-0.2,0"/>
				</g>
				<g>
					<polyline fill="none" stroke="#010101" stroke-miterlimit="10" points="51.9,345.5 54.9,341.5 49.6,341.4 					"/>
				</g>
				<g>
					<polyline fill="none" stroke="#010101" stroke-miterlimit="10" points="49.2,340.6 52.1,336.6 46.8,336.4 					"/>
				</g>
				<g>
					<polyline fill="none" stroke="#010101" stroke-miterlimit="10" points="46.4,335.6 49.3,331.6 44,331.4 					"/>
				</g>
				<g>
					<path fill="none" stroke="#010101" stroke-miterlimit="10" d="M43.2,330.7c0,0,0-0.3,0-0.8c0-0.5,0-1.1,0.1-1.7
						c0.1-0.6,0.2-1.2,0.3-1.6c0.1-0.4,0.2-0.7,0.2-0.7s-0.3,0.1-0.7,0.3c-0.4,0.2-1.1,0.5-1.7,0.6c-0.6,0.2-1.3,0.3-1.8,0.4
						c-0.5,0.1-0.9,0.1-0.9,0.1"/>
				</g>
				<g>
					<path fill="none" stroke="#010101" stroke-miterlimit="10" d="M38,326.4c0,0,0.1-0.3,0.3-0.7c0.2-0.4,0.6-1,0.9-1.5
						c0.3-0.5,0.7-1,1-1.3c0.3-0.3,0.5-0.6,0.5-0.6s-0.3,0-0.8,0c-0.5,0-1.1-0.1-1.8-0.2c-0.6-0.1-1.3-0.3-1.8-0.4
						c-0.5-0.1-0.8-0.2-0.8-0.2"/>
				</g>
				<g>
					<path fill="none" stroke="#010101" stroke-miterlimit="10" d="M35.3,320.4c0,0,1-0.8,2-1.5c0.5-0.4,1-0.7,1.4-0.9
						c0.4-0.2,0.7-0.4,0.7-0.4s-1.2-0.4-2.4-1c-1.2-0.6-2.3-1.3-2.3-1.3"/>
				</g>
				<g>
					<path fill="none" stroke="#010101" stroke-miterlimit="10" d="M34.7,314.2c0,0,1.1-0.5,2.3-0.9c1.2-0.4,2.3-0.7,2.3-0.7
						s-0.1,0-0.2-0.1c-0.1-0.1-0.3-0.2-0.5-0.4c-0.2-0.2-0.4-0.4-0.7-0.6c-0.3-0.2-0.6-0.3-0.9-0.4c-1.2-0.5-2.4-1-2.4-1"/>
				</g>
				<g>
					<polyline fill="none" stroke="#010101" stroke-miterlimit="10" points="34.5,309.2 38.7,306.5 33.9,304.6 					"/>
				</g>
				<g>
					<polyline fill="none" stroke="#010101" stroke-miterlimit="10" points="33.7,303.7 37.9,301.1 33,299.1 					"/>
				</g>
				<g>
					<polyline fill="none" stroke="#010101" stroke-miterlimit="10" points="32.9,298.2 37.1,295.6 32.2,293.6 					"/>
				</g>
				<g>
					<path fill="none" stroke="#010101" stroke-miterlimit="10" d="M32.1,292.7c0,0,0.1,0,0.2-0.1c0.1,0,0.3-0.1,0.5-0.2
						c0.4-0.2,0.9-0.4,1.3-0.9c0.8-1,1.6-1.9,1.6-1.9s-1.3-0.1-2.6-0.2c-0.7-0.1-1.3-0.2-1.8-0.2c-0.5-0.1-0.8-0.1-0.8-0.1"/>
				</g>
				<g>
					<path fill="none" stroke="#010101" stroke-miterlimit="10" d="M30.1,288.2c0,0,0.9-0.9,1.8-1.7c0.9-0.8,1.8-1.6,1.8-1.6
						s-0.3-0.1-0.8-0.2c-0.5-0.1-1.1-0.3-1.7-0.5c-1.2-0.4-2.5-0.9-2.5-0.9"/>
				</g>
				<g>
					<path fill="none" stroke="#010101" stroke-miterlimit="10" d="M28.5,282.4c0,0,1-0.7,2.1-1.4c1.1-0.6,2.1-1.2,2.1-1.2
						s-0.3-0.1-0.7-0.3c-0.5-0.2-1-0.5-1.6-0.8c-1.1-0.6-2.2-1.4-2.2-1.4"/>
				</g>
				<g>
					<path fill="none" stroke="#010101" stroke-miterlimit="10" d="M28.1,276.3c0,0,0.3-0.1,0.7-0.3c0.4-0.2,1-0.4,1.6-0.6
						c1.2-0.4,2.3-0.7,2.3-0.7c0,0-1.1-0.8-2-1.6c-1-0.9-1.9-1.9-1.9-1.9"/>
				</g>
				<g>
					<path fill="none" stroke="#010101" stroke-miterlimit="10" d="M29.2,270.2c0,0,1.2-0.2,2.5-0.3c1.2-0.1,2.5-0.2,2.5-0.2
						c0,0-0.8-1-1.6-2c-0.4-0.5-0.8-1.1-1-1.5c-0.3-0.4-0.4-0.7-0.4-0.7"/>
				</g>
				<g>
					<path fill="none" stroke="#010101" stroke-miterlimit="10" d="M31.5,264.6c0,0,1.3,0.1,2.5,0.2c0.6,0.1,1.2,0.1,1.7,0.2
						c0.5,0.1,0.8,0.1,0.8,0.1c0,0-0.6-1.1-1.1-2.3c-0.3-0.6-0.5-1.2-0.7-1.7c-0.2-0.5-0.3-0.8-0.3-0.8"/>
				</g>
				<g>
					<path fill="none" stroke="#010101" stroke-miterlimit="10" d="M34.4,260.2c0,0,0.3,0.1,0.7,0.2c0.2,0,0.5,0,0.7,0
						c0.3-0.1,0.6-0.1,0.9-0.2c1.2-0.3,2.4-0.6,2.4-0.6l-4-3.4"/>
				</g>
				<g>
					<polyline fill="none" stroke="#010101" stroke-miterlimit="10" points="35.3,255.3 40.1,254.2 36.1,250.8 					"/>
				</g>
				<g>
					<polyline fill="none" stroke="#010101" stroke-miterlimit="10" points="36.3,249.9 41,248.7 37.1,245.3 					"/>
				</g>
				<g>
					<polyline fill="none" stroke="#010101" stroke-miterlimit="10" points="37.2,244.4 42,243.3 38.1,239.8 					"/>
				</g>
				<g>
					<path fill="none" stroke="#010101" stroke-miterlimit="10" d="M37.8,238.8c0,0,0.6-1.1,1.3-2.1c0.7-1,1.5-2,1.5-2
						c0,0-1.3,0-2.6-0.2c-1.3-0.2-2.6-0.5-2.6-0.5"/>
				</g>
				<g>
					<path fill="none" stroke="#010101" stroke-miterlimit="10" d="M35.1,233.1c0,0,0.9-0.9,1.9-1.7c1-0.8,1.9-1.5,1.9-1.5
						s-1.2-0.4-2.4-0.9c-1.2-0.5-2.4-1.2-2.4-1.2"/>
				</g>
				<g>
					<path fill="none" stroke="#010101" stroke-miterlimit="10" d="M34.1,226.8c0,0,1.1-0.6,2.3-1.1c1.2-0.5,2.3-0.8,2.3-0.8
						s-0.3-0.2-0.7-0.5c-0.4-0.3-0.9-0.7-1.4-1.1c-0.5-0.4-1-0.9-1.4-1.3c-0.3-0.4-0.6-0.6-0.6-0.6"/>
				</g>
				<g>
					<path fill="none" stroke="#010101" stroke-miterlimit="10" d="M34.9,220.5c0,0,1.2-0.3,2.5-0.4c1.2-0.1,2.4-0.2,2.4-0.2
						c0,0-0.2-0.2-0.5-0.6c-0.3-0.4-0.7-0.9-1.1-1.4c-0.8-1.1-1.4-2.3-1.4-2.3"/>
				</g>
				<g>
					<path fill="none" stroke="#010101" stroke-miterlimit="10" d="M37.3,214.7c0,0,1.3,0.1,2.5,0.2c0.6,0.1,1.2,0.2,1.7,0.2
						c0.5,0.1,0.8,0.1,0.8,0.1s-0.6-1.1-1.1-2.4c-0.5-1.2-0.8-2.5-0.8-2.5"/>
				</g>
				<g>
					<path fill="none" stroke="#010101" stroke-miterlimit="10" d="M40.7,210c0,0,0.2,0.2,0.7,0.3c0.4,0.2,1,0.2,1.6,0.2
						c0.6-0.1,1.2-0.3,1.6-0.4c0.4-0.1,0.7-0.2,0.7-0.2l-4.1-3.3"/>
				</g>
				<g>
					<polyline fill="none" stroke="#010101" stroke-miterlimit="10" points="41.3,205.6 46.1,204.2 42.1,200.9 					"/>
				</g>
				<g>
					<polyline fill="none" stroke="#010101" stroke-miterlimit="10" points="42.2,200 46.9,198.7 42.9,195.3 					"/>
				</g>
				<g>
					<polyline fill="none" stroke="#010101" stroke-miterlimit="10" points="43,194.4 47.8,193.1 43.7,189.7 					"/>
				</g>
				<g>
					<path fill="none" stroke="#010101" stroke-miterlimit="10" d="M43.5,188.7c0,0,0.2-0.3,0.4-0.7c0.3-0.4,0.6-0.9,1-1.4
						c0.7-1,1.5-1.9,1.5-1.9s-0.3,0-0.8,0c-0.5,0-1.1-0.1-1.8-0.2c-0.7-0.1-1.3-0.2-1.8-0.4c-0.5-0.1-0.8-0.2-0.8-0.2"/>
				</g>
				<g>
					<path fill="none" stroke="#010101" stroke-miterlimit="10" d="M40.8,182.7c0,0,1-0.9,2-1.6c0.5-0.3,1-0.7,1.4-0.9
						c0.4-0.2,0.7-0.3,0.7-0.3s-0.3-0.1-0.7-0.3c-0.2-0.1-0.5-0.2-0.8-0.4c-0.3-0.2-0.5-0.3-0.8-0.5c-0.5-0.4-1.1-0.8-1.5-1.2
						c-0.4-0.3-0.6-0.6-0.6-0.6"/>
				</g>
				<g>
					<path fill="none" stroke="#010101" stroke-miterlimit="10" d="M40.8,175.9c0,0,0.3-0.1,0.8-0.2c0.5-0.1,1.1-0.2,1.7-0.3
						c1.2-0.1,2.4-0.1,2.4-0.1s-0.8-1-1.4-2.2c-0.3-0.6-0.6-1.2-0.8-1.7c-0.2-0.5-0.3-0.8-0.3-0.8"/>
				</g>
				<g>
					<path fill="none" stroke="#010101" stroke-miterlimit="10" d="M43.9,169.8c0,0,1.3,0.3,2.4,0.7c0.6,0.2,1.2,0.4,1.6,0.6
						c0.4,0.2,0.7,0.3,0.7,0.3s-0.1-0.3-0.2-0.8c-0.1-0.5-0.2-1.1-0.3-1.8c-0.2-1.3-0.1-2.7-0.1-2.7"/>
				</g>
				<g>
					<polyline fill="none" stroke="#010101" stroke-miterlimit="10" points="48.6,165.2 53.4,163.8 49.3,160.4 					"/>
				</g>
				<g>
					<polyline fill="none" stroke="#010101" stroke-miterlimit="10" points="49.4,159.5 54.1,158.1 50,154.7 					"/>
				</g>
				<g>
					<polyline fill="none" stroke="#010101" stroke-miterlimit="10" points="50.1,153.8 54.9,152.4 50.8,149 					"/>
				</g>
				<g>
					<path fill="none" stroke="#010101" stroke-miterlimit="10" d="M50.9,148.1c0,0,1.2-0.4,2.4-0.7c0.6-0.1,1.2-0.5,1.7-0.8
						c0.2-0.2,0.5-0.3,0.5-0.4c0.1-0.1,0.1-0.2,0.1-0.2s-0.4-0.2-1-0.4c-0.6-0.2-1.2-0.2-1.9-0.2c-1.3-0.1-2.7-0.3-2.7-0.3"/>
				</g>
				<g>
					<path fill="none" stroke="#010101" stroke-miterlimit="10" d="M49.7,144.1c0,0,0.8-1,1.7-1.8c0.9-0.9,1.8-1.6,1.8-1.6
						s-0.3-0.1-0.8-0.2c-0.5-0.1-1.1-0.3-1.7-0.6c-0.6-0.2-1.3-0.5-1.7-0.7c-0.4-0.2-0.7-0.4-0.7-0.4"/>
				</g>
				<g>
					<path fill="none" stroke="#010101" stroke-miterlimit="10" d="M48.1,137.7c0,0,0.3-0.2,0.7-0.4c0.4-0.2,1-0.5,1.6-0.8
						c0.6-0.3,1.1-0.5,1.6-0.6c0.4-0.1,0.7-0.2,0.7-0.2s-1-0.7-2-1.6c-0.5-0.5-0.9-1-1.2-1.4c-0.3-0.4-0.5-0.7-0.5-0.7"/>
				</g>
			</g>
		</g>
	</g>
	<g>
		<g>
			<path fill="none" stroke="#010101" stroke-miterlimit="10" d="M95.3,124"/>
		</g>
	</g>
</g>
<g id="leaf">
	<g>
		<path fill="#A8CF38" stroke="#010101" stroke-width="0.5" stroke-linecap="round" stroke-linejoin="round" d="M75.8,79.1
			c0,0-8.6-15-7.4-22.4l2.1,0.7c0,0-1.8-2.2,0.2-11.3l1.7,1.5c0,0-1.5-4.5,1.4-10.4l1.7,1.5c0,0,0.8-4.1,2.5-8.3l1.9,1.2
			c0,0-0.4-5,1.3-8.5l1.7,1.5c0,0,0.7-6.3,4.1-7.5l0.5,1.5c0,0,2.3-3.9,5.8-6l1.6,1.7c0,0-0.1-3.9,4.3-5.5l0.9,1.4
			c0,0,0.5-5.2,4.6-6l1.2,2.5c0,0,7.1-6.6,8.7-6.8l2.6,1.3c0.3,1.2-0.1,11-0.1,11l2.7-0.6c1.8,3.8-2,7.3-2,7.3l1.7-0.1
			c1.5,4.5-1.7,6.8-1.7,6.8l2.4,0.2c0.5,4-1.2,8.3-1.2,8.3l1.5-0.5c1.2,3.4-3.4,7.8-3.4,7.8l2.2,0.5c-1.8,3.6-6,6.3-6,6.3l2.1,0.7
			c-2.3,3.9-5.1,7-5.1,7l2.2,0.5c-2.9,5.9-7.4,7.5-7.4,7.5l2.2,0.5c-6,7.2-8.8,7.1-8.8,7.1l1.9,1.2c-5.1,5.4-22.3,7.7-22.3,7.7
			L75.8,79.1z"/>
		<path fill="#A8CF38" stroke="#010101" stroke-width="0.5" stroke-linecap="round" stroke-linejoin="round" d="M77.4,79.8
			c0,0-8.6-15-7.4-22.4l2.1,0.7c0,0-1.8-2.2,0.2-11.3l1.7,1.5c0,0-1.5-4.5,1.4-10.4l1.7,1.5c0,0,0.8-4.1,2.5-8.3l1.9,1.2
			c0,0-0.4-5,1.3-8.5l1.7,1.5c0,0,0.7-6.3,4.1-7.5l0.5,1.5c0,0,2.3-3.9,5.8-6l1.6,1.7c0,0-0.1-3.9,4.3-5.5l0.9,1.4
			c0,0,0.5-5.2,4.6-6l1.2,2.5c0,0,7.1-6.6,8.7-6.8L119,2c0.3,1.2-0.1,11-0.1,11l2.7-0.6c1.8,3.8-2,7.3-2,7.3l1.7-0.1
			c1.5,4.5-1.7,6.8-1.7,6.8l2.4,0.2c0.5,4-1.2,8.3-1.2,8.3l1.5-0.5c1.2,3.4-3.4,7.8-3.4,7.8l2.2,0.5c-1.8,3.6-6,6.3-6,6.3l2.1,0.7
			c-2.3,3.9-5.1,7-5.1,7l2.2,0.5c-2.9,5.9-7.4,7.5-7.4,7.5l2.2,0.5c-6,7.2-8.8,7.1-8.8,7.1l1.9,1.2C97.1,78.8,80,81.1,80,81.1
			L77.4,79.8z"/>
		
			<line fill="none" stroke="#010101" stroke-width="0.5" stroke-linecap="round" stroke-linejoin="round" x1="116.8" y1="2" x2="78.2" y2="80.3"/>
		<g>
			
				<line fill="none" stroke="#010101" stroke-width="0.5" stroke-linecap="round" stroke-linejoin="round" x1="107.7" y1="6.3" x2="109" y2="12.8"/>
			
				<line fill="none" stroke="#010101" stroke-width="0.5" stroke-linecap="round" stroke-linejoin="round" x1="101.8" y1="11.1" x2="105.5" y2="18.7"/>
			
				<line fill="none" stroke="#010101" stroke-width="0.5" stroke-linecap="round" stroke-linejoin="round" x1="96.8" y1="14.8" x2="101.9" y2="24.6"/>
			
				<line fill="none" stroke="#010101" stroke-width="0.5" stroke-linecap="round" stroke-linejoin="round" x1="88.9" y1="19" x2="97.2" y2="30.7"/>
			
				<line fill="none" stroke="#010101" stroke-width="0.5" stroke-linecap="round" stroke-linejoin="round" x1="84.9" y1="24.9" x2="95.3" y2="37.4"/>
			
				<line fill="none" stroke="#010101" stroke-width="0.5" stroke-linecap="round" stroke-linejoin="round" x1="81" y1="32.2" x2="91.4" y2="43.6"/>
			
				<line fill="none" stroke="#010101" stroke-width="0.5" stroke-linecap="round" stroke-linejoin="round" x1="77" y1="38.7" x2="86" y2="50.8"/>
			
				<line fill="none" stroke="#010101" stroke-width="0.5" stroke-linecap="round" stroke-linejoin="round" x1="73.8" y1="47.9" x2="84.3" y2="61.2"/>
			
				<line fill="none" stroke="#010101" stroke-width="0.5" stroke-linecap="round" stroke-linejoin="round" x1="71.9" y1="57.7" x2="80.4" y2="71.8"/>
		</g>
		<g>
			
				<line fill="none" stroke="#010101" stroke-width="0.5" stroke-linecap="round" stroke-linejoin="round" x1="119.9" y1="12.4" x2="114" y2="15.2"/>
			
				<line fill="none" stroke="#010101" stroke-width="0.5" stroke-linecap="round" stroke-linejoin="round" x1="119.7" y1="19.9" x2="111.4" y2="21.6"/>
			
				<line fill="none" stroke="#010101" stroke-width="0.5" stroke-linecap="round" stroke-linejoin="round" x1="119.8" y1="26.2" x2="109" y2="28.1"/>
			
				<line fill="none" stroke="#010101" stroke-width="0.5" stroke-linecap="round" stroke-linejoin="round" x1="121.3" y1="35" x2="106.9" y2="35.5"/>
			
				<line fill="none" stroke="#010101" stroke-width="0.5" stroke-linecap="round" stroke-linejoin="round" x1="119.1" y1="41.7" x2="102.8" y2="41.1"/>
			
				<line fill="none" stroke="#010101" stroke-width="0.5" stroke-linecap="round" stroke-linejoin="round" x1="115.6" y1="49.3" x2="100.2" y2="47.9"/>
			
				<line fill="none" stroke="#010101" stroke-width="0.5" stroke-linecap="round" stroke-linejoin="round" x1="112.9" y1="56.4" x2="97.8" y2="56.6"/>
			
				<line fill="none" stroke="#010101" stroke-width="0.5" stroke-linecap="round" stroke-linejoin="round" x1="107.5" y1="64.6" x2="90.6" y2="64.2"/>
			
				<line fill="none" stroke="#010101" stroke-width="0.5" stroke-linecap="round" stroke-linejoin="round" x1="100.9" y1="72" x2="84.5" y2="73.8"/>
		</g>
		<path fill="#FFFFFF" stroke="#010101" stroke-width="0.5" stroke-linecap="round" stroke-linejoin="round" d="M123.3,27.3
			c0,0-5.7,1.5-4.2,4.5c0,0-7,1-3.7,6.5c0,0,1.7,3.7,4.7,2.3c0,0-1.9,3,1,2.5c2.9-0.6,2.2-0.7,2.2-0.7"/>
		<path fill="#FFFFFF" stroke="#010101" stroke-width="0.5" stroke-miterlimit="10" d="M86,34.9c-0.2,1.3-1,2.4-1.5,3.6
			c1.5,1.2,3.4-1.3,4.1-2.5c-0.8,2-0.2,6.4,2.5,3.3c-0.5,2,0.6,2.3,2.2,3.1c-0.5,1.7-2.2,2.2-3.2,3.5c-0.6,0.8-0.9,1.9-1.4,2.7
			c-1-0.7-1.2-2.1-2.1-2.8c-0.6,0.5-2.5,3-3.3,2.9c-0.9-0.1-1.8-2.3-2.9-2.7c0.4-1,1-2,1.4-3.1c-0.2-0.2-0.4-0.2-0.5-0.3
			c0.3-1.3,2.7-8,4.2-6.4"/>
		<path fill="#FFFFFF" stroke="#010101" stroke-width="0.5" stroke-miterlimit="10" d="M105.6,19.8c1.7-1.5,1.8-3.4,4.2-4.6
			c0.2,0.6-0.3,2.8,0.2,3.1c1.3,1.1,3.5-1.5,4.5-2.3c-0.2,0.5-1.2,2.3-0.9,2.9c0.7,1.4,2.3,0.2,3.4,0.3c-0.7,2-2.4,3.4-3.4,5.4
			c-0.6,1.3-0.8,2.4-1.3,3.7c-2.3-0.8-3.8-2.5-4.3-4.8c-0.7,1.4-3.2,6.1-3.5,2.3c-0.2-2.3,1.6-4.6,1.9-6.8"/>
		<path fill="#FFFFFF" stroke="#010101" stroke-width="0.5" stroke-miterlimit="10" d="M102.8,52.2c-0.1,1.4-2,3-2,4.4
			c0,1.9,2.3,3.2,4,3.3c-2,0.6-4,1.8-4.7,3.9c0.9,0.9,2.1,1.3,3.2,1.9c-0.9,0.4-5.4,2.7-2.9,3.7c-0.7,1.7-5.4-0.8-6.6-1.8
			c-2.5-2.2-1.6-4.8-0.5-7.5c1.6-3.8,5-7.9,9.7-7"/>
	</g>
</g>
<g id="water">
	<g>
		<path fill="#55C2E2" stroke="#070707" stroke-width="0.5" stroke-miterlimit="10" d="M26.6,22.3c0,0-36.1,41.7-4.2,51.2
			c0,0,26.1-0.6,14.6-30.9C36.9,42.6,27,31,26.6,22.3z"/>
		<path fill="none" stroke="#3A97AD" stroke-miterlimit="10" d="M24.4,70.1c5.2,2.4,13.5-10.3,12.9-14.9"/>
		
			<ellipse transform="matrix(0.7903 -0.6127 0.6127 0.7903 -34.9888 25.1313)" opacity="0.8" fill="#FFFFFF" cx="19.2" cy="63.7" rx="4.8" ry="5.8"/>
		<path opacity="0.8" fill="#FFFFFF" d="M15.9,40.6c0,0,4.7-11.6,10.3-14.6"/>
	</g>
	<g>
		<path fill="#55C2E2" stroke="#070707" stroke-width="0.5" stroke-miterlimit="10" d="M171.1,178.3c0,0-36.1,41.7-4.2,51.2
			c0,0,26.1-0.6,14.6-30.9C181.4,198.6,171.6,187,171.1,178.3z"/>
		<path fill="none" stroke="#3A97AD" stroke-miterlimit="10" d="M168.9,226.1c5.2,2.4,13.5-10.3,12.9-14.9"/>
		
			<ellipse transform="matrix(0.7903 -0.6127 0.6127 0.7903 -100.2799 146.4021)" opacity="0.8" fill="#FFFFFF" cx="163.8" cy="219.7" rx="4.8" ry="5.8"/>
		<path opacity="0.8" fill="#FFFFFF" d="M160.5,196.6c0,0,4.7-11.6,10.3-14.6"/>
	</g>
	<g>
		<path fill="#55C2E2" stroke="#070707" stroke-width="0.5" stroke-miterlimit="10" d="M10.4,286.6c0,0-21.7,25.1-2.5,30.8
			c0,0,15.7-0.4,8.8-18.6C16.7,298.8,10.7,291.9,10.4,286.6z"/>
		<path fill="none" stroke="#3A97AD" stroke-miterlimit="10" d="M9.1,315.4c3.1,1.4,8.1-6.2,7.7-9"/>
		
			<ellipse transform="matrix(0.7901 -0.6129 0.6129 0.7901 -191.4183 69.3463)" opacity="0.8" fill="#FFFFFF" cx="5.6" cy="314.2" rx="1.7" ry="2.1"/>
		<path opacity="0.8" fill="#FFFFFF" d="M4,297.6c0,0,2.8-7,6.2-8.8"/>
	</g>
	<g>
		<path fill="#55C2E2" stroke="#070707" stroke-width="0.5" stroke-miterlimit="10" d="M15.2,151.9c0,0-21.7,25.1-2.5,30.8
			c0,0,15.7-0.4,8.8-18.6C21.5,164.1,15.5,157.1,15.2,151.9z"/>
		<path fill="none" stroke="#3A97AD" stroke-miterlimit="10" d="M13.9,180.7c3.1,1.4,8.1-6.2,7.7-9"/>
		
			<ellipse transform="matrix(0.7904 -0.6126 0.6126 0.7904 -107.7719 43.9653)" opacity="0.8" fill="#FFFFFF" cx="10.4" cy="179.5" rx="1.7" ry="2.1"/>
		<path opacity="0.8" fill="#FFFFFF" d="M8.8,162.9c0,0,2.8-7,6.2-8.8"/>
	</g>
	<g>
		<path fill="#55C2E2" stroke="#070707" stroke-width="0.5" stroke-miterlimit="10" d="M143.2,149.2c0,0-13.5,15.7-1.6,19.2
			c0,0,9.8-0.2,5.5-11.6C147.1,156.9,143.4,152.5,143.2,149.2z"/>
		<path fill="none" stroke="#3A97AD" stroke-miterlimit="10" d="M142.4,167.2c1.9,0.9,5.1-3.9,4.8-5.6"/>
		
			<ellipse transform="matrix(0.7906 -0.6123 0.6123 0.7906 -71.5934 120.1632)" opacity="0.8" fill="#FFFFFF" cx="139.9" cy="164.8" rx="0.9" ry="1"/>
		<path opacity="0.8" fill="#FFFFFF" d="M139.3,156.1c0,0,1.8-4.4,3.9-5.5"/>
	</g>
	<g>
		<path fill="#55C2E2" stroke="#070707" stroke-width="0.5" stroke-miterlimit="10" d="M154.5,282.3c0,0-13.5,15.7-1.6,19.2
			c0,0,9.8-0.2,5.5-11.6C158.4,290,154.7,285.6,154.5,282.3z"/>
		<path fill="none" stroke="#3A97AD" stroke-miterlimit="10" d="M153.7,300.3c1.9,0.9,5.1-3.9,4.8-5.6"/>
		
			<ellipse transform="matrix(0.7904 -0.6126 0.6126 0.7904 -150.7898 155.0437)" opacity="0.8" fill="#FFFFFF" cx="151.2" cy="297.9" rx="0.9" ry="1"/>
		<path opacity="0.8" fill="#FFFFFF" d="M150.5,289.2c0,0,1.8-4.4,3.9-5.5"/>
	</g>
</g>
</svg>
