<?xml version="1.0" encoding="utf-8"?>
<!-- Generator: Adobe Illustrator 17.1.0, SVG Export Plug-In . SVG Version: 6.00 Build 0)  -->
<!DOCTYPE svg PUBLIC "-//W3C//DTD SVG 1.1//EN" "http://www.w3.org/Graphics/SVG/1.1/DTD/svg11.dtd">
<svg version="1.1" id="Layer_1" xmlns="http://www.w3.org/2000/svg" xmlns:xlink="http://www.w3.org/1999/xlink" x="0px" y="0px"
	 viewBox="0 0 100 100" enable-background="new 0 0 100 100" xml:space="preserve">
<pattern  y="100" width="2.4" height="2.4" patternUnits="userSpaceOnUse" id="SVGID_1_" viewBox="0 -2.4 2.4 2.4" overflow="visible">
	<g>
		<polygon fill="none" points="0,0 2.4,0 2.4,-2.4 0,-2.4 		"/>
		<g>
			<polygon fill="none" points="0,-2.4 2.4,-2.4 2.4,0 0,0 			"/>
			<g>
				<polygon fill="none" points="2.4,0 0,0 0,-2.4 2.4,-2.4 				"/>
				<g>
					<path fill="#010101" d="M1.4-1.2C1.4-1.1,1.3-1,1.2-1C1.1-1,1-1.1,1-1.2c0-0.2,0.1-0.2,0.2-0.2C1.3-1.4,1.4-1.4,1.4-1.2z"/>
				</g>
			</g>
		</g>
	</g>
</pattern>
<pattern  y="100" width="2.4" height="2.4" patternUnits="userSpaceOnUse" id="SVGID_2_" viewBox="0 -2.4 2.4 2.4" overflow="visible">
	<g>
		<polygon fill="none" points="0,0 2.4,0 2.4,-2.4 0,-2.4 		"/>
		<g>
			<polygon fill="none" points="0,-2.4 2.4,-2.4 2.4,0 0,0 			"/>
			<g>
				<polygon fill="none" points="2.4,0 0,0 0,-2.4 2.4,-2.4 				"/>
				<g>
					<path fill="#010101" d="M1.4-1.2C1.4-1.1,1.3-1,1.2-1C1.1-1,1-1.1,1-1.2c0-0.2,0.1-0.2,0.2-0.2C1.3-1.4,1.4-1.4,1.4-1.2z"/>
				</g>
			</g>
		</g>
	</g>
</pattern>
<g id="legs">
	<path fill="#FFFFFF" stroke="#010101" stroke-miterlimit="10" d="M63.3,51.6c0,0,2.6-1.5,4.9-0.5l-0.3,1.5c0,0-1.2,1.9-2.8,2.5
		C65,55.2,64.8,52.1,63.3,51.6z"/>
	<path fill="#FFFFFF" stroke="#010101" stroke-miterlimit="10" d="M68.2,51.8c0,0,4.5,8.8,4.6,11.5c0,0,3.9,3.3,4.8,5
		s0.6,2.8,0.4,3.4c0,0,0.3-1.9-1.1-3.3L72,63.9c0,0-3.9-11.6-4.2-11.3L68.2,51.8z"/>
	<path fill="#FFFFFF" stroke="#010101" stroke-miterlimit="10" d="M35.7,51.8c0,0-2.6-1.5-4.9-0.5l0.3,1.5c0,0,1.2,1.9,2.8,2.5
		C33.9,55.3,34.1,52.3,35.7,51.8z"/>
	<path fill="#FFFFFF" stroke="#010101" stroke-miterlimit="10" d="M30.8,51.9c0,0-4.5,8.8-4.6,11.5c0,0-3.9,3.3-4.8,5
		s-0.6,2.8-0.4,3.4c0,0-0.3-1.9,1.1-3.3l4.8-4.5c0,0,3.9-11.7,4.2-11.3L30.8,51.9z"/>
	<path fill="#FFFFFF" stroke="#010101" stroke-miterlimit="10" d="M65.6,70.8v4.1c0,0,3.3-0.8,3.4-3.1
		C68.9,71.8,67.1,70.5,65.6,70.8z"/>
	<path fill="#FFFFFF" stroke="#010101" stroke-miterlimit="10" d="M68.9,72.5c0,0,1.9,2.3,1.9,4.2c0.1,1.9,0,8.1,0,8.1
		s5.3,7.7,4.3,9.4c-1,1.7-0.2,0-0.2,0s0.4-1-0.8-2.3c0,0,0.3,1.1,0,1.4c0,0-2.2-6.6-4.4-8.1l0.1-8.6c0,0-0.5-2.5-1.5-3.2L68.9,72.5z
		"/>
	<path fill="#FFFFFF" stroke="#010101" stroke-miterlimit="10" d="M33.5,70.8v4.1c0,0-3.3-0.8-3.4-3.1C30.2,71.8,32,70.5,33.5,70.8z
		"/>
	<path fill="#FFFFFF" stroke="#010101" stroke-miterlimit="10" d="M30.2,72.5c0,0-1.9,2.3-1.9,4.2c-0.1,1.9,0,8.1,0,8.1
		S23,92.5,24,94.2c1,1.7,0.2,0,0.2,0s-0.4-1,0.8-2.3c0,0-0.3,1.1,0,1.4c0,0,2.2-6.6,4.4-8.1l-0.1-8.6c0,0,0.5-2.5,1.5-3.2L30.2,72.5
		z"/>
	<path fill="#FFFFFF" stroke="#010101" stroke-miterlimit="10" d="M60,38.4c0,0,1.2-1.4,2.3-1.1c1,0.3,1,1.1,1,1.1s-0.3,2.3-0.9,3.1
		L60,38.4z"/>
	<path fill="#FFFFFF" stroke="#010101" stroke-miterlimit="10" d="M62.9,37.6c0,0,3.6-8.5,2.5-14.7c0,0,0.8,1.7,0.8,2.3
		c0,0,0.6-2-0.6-3.3c0,0,0.6-4.2,3.4-4.4c0,0-3.3-0.6-4.4,4.7c0,0,0.7,6.1-2.5,15.1L62.9,37.6z"/>
	<path fill="#FFFFFF" stroke="#010101" stroke-miterlimit="10" d="M39.1,38.2c0,0-1.2-1.4-2.3-1.1c-1,0.3-1,1.1-1,1.1
		s0.3,2.3,0.9,3.1L39.1,38.2z"/>
	<path fill="#FFFFFF" stroke="#010101" stroke-miterlimit="10" d="M36.2,37.4c0,0-3.6-8.5-2.5-14.7c0,0-0.8,1.7-0.8,2.3
		c0,0-0.6-2,0.6-3.3c0,0-0.6-4.2-3.4-4.4c0,0,3.3-0.6,4.4,4.7c0,0-0.7,6.1,2.5,15.1L36.2,37.4z"/>
</g>
<g id="basebody">
	<path fill="#FFFFFF" stroke="#010101" stroke-miterlimit="10" d="M46.9,31.4"/>
	<path fill="#FFFFFF" stroke="#000000" stroke-miterlimit="10" d="M49.8,97.9L49.5,98c-0.4,0.1-0.8,0.1-1.3,0.1l0,0
		c-4.8,0-10.3-4.8-10.7-5.2c-5.5-4-4.5-25.2-4-34.3c0.1-1.9,0.2-3.2,0.1-3.7c-0.2-2.7,1.5-3.7,2.7-4.4c0.1-0.1,0.2-0.1,0.3-0.2
		c0.9-0.6,2-0.7,3.7-0.7c0.7,0,1.6,0,2.6,0.1h0.8c4.4,0.1,4.7,2,4.7,2.2c0.2,1.2,1.3,2.8,1.3,2.8l0.1,0.1"/>
	<path fill="#FFFFFF" stroke="#010101" stroke-miterlimit="10" d="M41.5,35.1c0,0,2.4-7.6,7.6-8.3c5.3-0.6,6.6,7.3,6.6,7.3
		S53,39.8,41.5,35.1z"/>
	<path fill="#FFFFFF" stroke="#010101" stroke-miterlimit="10" d="M57.5,35.1c0,0,7.5,8.9,7.5,11c0,2-4.3,4.1-4.3,4.1H38.3
		c0,0-4.3-2.1-4.3-4.1s7.5-11,7.5-11S49.4,32,57.5,35.1z"/>
	<path fill="#FFFFFF" stroke="#000000" stroke-miterlimit="10" d="M50.7,98.1c-0.4,0-0.9-0.1-1.3-0.1h-0.3V54.8l0.1-0.1
		c0,0,1.1-1.6,1.3-2.8c0-0.2,0.3-2.1,4.7-2.2H56c1,0,1.9-0.1,2.6-0.1c1.7,0,2.8,0.1,3.7,0.7c0.1,0.1,0.2,0.1,0.3,0.2
		c1.2,0.7,2.9,1.7,2.7,4.4c0,0.4,0,1.8,0.1,3.7c0.4,9.1,1.5,30.3-4,34.3C61,93.3,55.5,98.1,50.7,98.1z"/>
</g>
<g id="bodycolor">
	<path fill="#6CBE45" stroke="#010101" stroke-miterlimit="10" d="M47.1,31.4"/>
	<path fill="#D0DD28" stroke="#010101" stroke-miterlimit="10" d="M49.9,97.9L49.6,98c-0.4,0.1-0.8,0.1-1.3,0.1l0,0
		c-4.8,0-10.3-4.8-10.7-5.2c-5.5-4-4.5-25.2-4-34.3c0.1-1.9,0.2-3.2,0.1-3.7c-0.2-2.7,1.5-3.7,2.7-4.4c0.1-0.1,0.2-0.1,0.3-0.2
		c0.9-0.6,2-0.7,3.7-0.7c0.7,0,1.6,0,2.6,0.1h0.8c4.4,0.1,4.7,2,4.7,2.2c0.2,1.2,1.3,2.8,1.3,2.8l0.1,0.1"/>
	<path fill="#D0DD28" stroke="#010101" stroke-miterlimit="10" d="M41.6,35.1c0,0,2.4-7.6,7.6-8.3c5.3-0.6,6.6,7.3,6.6,7.3
		S53.1,39.8,41.6,35.1z"/>
	<path fill="#6CBE45" stroke="#010101" stroke-miterlimit="10" d="M57.5,35.1c0,0,7.5,8.9,7.5,11c0,2-4.3,4.1-4.3,4.1H38.3
		c0,0-4.3-2.1-4.3-4.1s7.5-11,7.5-11S49.4,32,57.5,35.1z"/>
	<path fill="#6CBE45" stroke="#010101" stroke-miterlimit="10" d="M50.7,98.1c-0.4,0-0.9-0.1-1.3-0.1h-0.2V54.8l0.1-0.1
		c0,0,1.1-1.6,1.3-2.8c0-0.2,0.3-2.1,4.7-2.2h0.8c1,0,1.9-0.1,2.6-0.1c1.7,0,2.8,0.1,3.7,0.7c0.1,0.1,0.2,0.1,0.3,0.2
		c1.2,0.7,2.9,1.7,2.7,4.4c0,0.4,0,1.8,0.1,3.7c0.4,9.1,1.5,30.3-4,34.3C61.1,93.3,55.5,98.1,50.7,98.1z"/>
</g>
<g id="eyes">
	<path fill="#FF9900" stroke="#010101" stroke-width="0.5" stroke-miterlimit="10" d="M42.2,34.1c0,0-1.2-5.6,3.3-5.8
		C45.5,28.3,47,32,42.2,34.1z"/>
	<path fill="#FF9900" stroke="#010101" stroke-width="0.5" stroke-miterlimit="10" d="M57.1,34.1c0,0,1.3-5.5-3.5-5.6
		C53.6,28.5,52.1,32,57.1,34.1z"/>
</g>
<g id="antennae">
	<path fill="none" stroke="#010101" stroke-miterlimit="10" d="M53.7,28.5c0,0,0.9-13.8,4.4-9"/>
	<path fill="none" stroke="#010101" stroke-miterlimit="10" d="M45.3,28.5c0,0-0.9-13.8-4.4-9"/>
</g>
<g id="markings">
	<path fill="#010101" d="M33.3,75.1c1-1,2.8-2.9,4.4-2.9c1.9,0,1.9,2.1,3.4,2.8c1.6,0.8,2.7-0.8,3.4-2c1.1-1.7,2.3-2.4,4.4-2.2
		c1.7,0.1,2.4,1.3,3.5,2.5c0.8,0.9,2.5,2.6,3.6,1.4c0.4-0.4,0.4-1.7,0.8-2.3c0.7-1.1,1.7-1.8,3.1-1.8c1.5,0,2.5,1.5,3.8,2.2
		c0.5,0.3,1,0.6,1.6,0.8c0.3,1.4,0.4,2.7,0.4,4.1c0,2,0.5,3.2-2,3.6c-1.6,0.2-2,0.2-3-0.8c-0.9-0.8-1.2-1.4-2.4-1.4
		c-1.8-0.1-2.9,1.6-4.1,2.6c-1.2,1-4.4,1.7-5.9,0.6c-1.7-1.3-0.9-5.3-4.2-3.5c-1.9,1-2.3,3.2-4.4,4.1c-1.1,0.5-5.1,1.6-6,0.6
		s-0.3-8.4,0.4-8.8"/>
	<path fill="#010101" d="M33.3,61.2c1-1,2.8-2.9,4.4-2.9c1.9,0,1.9,2.1,3.4,2.8c1.6,0.8,2.7-0.8,3.4-2c1.1-1.7,2.3-2.4,4.4-2.2
		c1.7,0.1,2.4,1.3,3.5,2.5c0.8,0.9,2.5,2.6,3.6,1.4c0.4-0.4,0.4-1.7,0.8-2.3c0.7-1.1,1.7-1.8,3.1-1.8c1.5,0,2.5,1.5,3.8,2.2
		c0.5,0.3,1,0.6,1.6,0.8c0.3,1.4,0.4,2.7,0.4,4.1c0,2,0.5,3.2-2,3.6c-1.6,0.2-2,0.2-3-0.8c-0.9-0.8-1.2-1.4-2.4-1.4
		c-1.8-0.1-2.9,1.6-4.1,2.6c-1.2,1-4.4,1.7-5.9,0.6c-1.7-1.3-0.9-5.3-4.2-3.5c-1.9,1-2.3,3.2-4.4,4.1c-1.1,0.5-5.1,1.6-6,0.6
		s-0.3-8.4,0.4-8.8"/>
</g>
<g id="dots">
	<pattern  id="SVGID_3_" xlink:href="#SVGID_1_" patternTransform="matrix(0.2762 0 0 0.2762 -11823.9395 4404.6426)">
	</pattern>
	<path fill="url(#SVGID_3_)" d="M49.5,54.8c0,0,1.2-1.7,1.4-3c0,0,0.2-1.8,4.3-1.9s5.7-0.2,6.9,0.6c1.2,0.7,3,1.6,2.8,4.3
		c-0.2,2.7,2.8,33.4-3.8,38.1c0,0-6.7,6-11.7,5L49.5,54.8L49.5,54.8z"/>
	<pattern  id="SVGID_4_" xlink:href="#SVGID_2_" patternTransform="matrix(0.2762 0 0 0.2762 -11823.9395 4404.6426)">
	</pattern>
	<path fill="url(#SVGID_4_)" d="M49.5,54.8c0,0-1.2-1.7-1.4-3c0,0-0.2-1.8-4.3-1.9s-5.7-0.2-6.9,0.6c-1.2,0.7-3,1.6-2.8,4.3
		s-2.8,33.4,3.8,38.1c0,0,6.7,6,11.7,5L49.5,54.8L49.5,54.8z"/>
</g>
<g id="fur">
	<g>
		<g>
			<path fill="none" stroke="#0000FF" stroke-miterlimit="10" d="M50.3,25.1"/>
		</g>
	</g>
	<g>
		<g>
			<path fill="none" stroke="#0000FF" stroke-miterlimit="10" d="M-0.3,97.5"/>
		</g>
	</g>
	<g>
		<g>
			<g>
				<g>
					<path fill="none" stroke="#0000FF" stroke-miterlimit="10" d="M63.5,50.3l-0.2,1.4c0,0,0.3-0.2,0.6-0.3
						c0.3-0.2,0.7-0.3,0.7-0.3"/>
				</g>
				<g>
					<path fill="none" stroke="#0000FF" stroke-miterlimit="10" d="M64.9,51.1c0,0-0.1,0.3-0.2,0.7c-0.1,0.2-0.1,0.3-0.1,0.4
						c-0.1,0.1-0.1,0.2-0.1,0.2s0.1,0,0.2-0.1c0.1,0,0.3-0.1,0.5-0.1c0.4-0.1,0.7-0.1,0.7-0.1"/>
				</g>
				<g>
					<path fill="none" stroke="#0000FF" stroke-miterlimit="10" d="M66.1,52.4c0,0-0.2,0.3-0.4,0.6s-0.4,0.5-0.4,0.5s0.1,0,0.2,0
						s0.3,0.1,0.5,0.1c0.4,0.1,0.7,0.2,0.7,0.2"/>
				</g>
				<g>
					<path fill="none" stroke="#0000FF" stroke-miterlimit="10" d="M66.8,54.2c0,0-0.1,0.1-0.2,0.1c-0.1,0.1-0.2,0.2-0.4,0.2
						c-0.3,0.2-0.6,0.3-0.6,0.3s0.1,0,0.2,0.1s0.3,0.2,0.4,0.2c0.2,0.1,0.3,0.2,0.4,0.3s0.2,0.1,0.2,0.1"/>
				</g>
				<g>
					<path fill="none" stroke="#0000FF" stroke-miterlimit="10" d="M66.8,55.8c0,0-0.3,0.1-0.6,0.2c-0.3,0.1-0.6,0.3-0.6,0.3
						s0.3,0.2,0.6,0.4s0.6,0.3,0.6,0.3"/>
				</g>
				<g>
					<polyline fill="none" stroke="#0000FF" stroke-miterlimit="10" points="66.9,57.3 65.6,57.9 66.9,58.6 					"/>
				</g>
				<g>
					<polyline fill="none" stroke="#0000FF" stroke-miterlimit="10" points="66.9,58.9 65.7,59.5 67,60.1 					"/>
				</g>
				<g>
					<polyline fill="none" stroke="#0000FF" stroke-miterlimit="10" points="67,60.4 65.8,61 67.1,61.7 					"/>
				</g>
				<g>
					<polyline fill="none" stroke="#0000FF" stroke-miterlimit="10" points="67.1,61.9 65.9,62.6 67.1,63.2 					"/>
				</g>
				<g>
					<polyline fill="none" stroke="#0000FF" stroke-miterlimit="10" points="67.2,63.5 65.9,64.1 67.2,64.8 					"/>
				</g>
				<g>
					<polyline fill="none" stroke="#0000FF" stroke-miterlimit="10" points="67.2,65 66,65.6 67.2,66.3 					"/>
				</g>
				<g>
					<polyline fill="none" stroke="#0000FF" stroke-miterlimit="10" points="67.2,66.6 66,67.2 67.3,67.9 					"/>
				</g>
				<g>
					<polyline fill="none" stroke="#0000FF" stroke-miterlimit="10" points="67.3,68.1 66.1,68.7 67.3,69.4 					"/>
				</g>
				<g>
					<polyline fill="none" stroke="#0000FF" stroke-miterlimit="10" points="67.3,69.6 66.1,70.2 67.3,70.9 					"/>
				</g>
				<g>
					<polyline fill="none" stroke="#0000FF" stroke-miterlimit="10" points="67.3,71.2 66.1,71.8 67.3,72.5 					"/>
				</g>
				<g>
					<polyline fill="none" stroke="#0000FF" stroke-miterlimit="10" points="67.3,72.7 66.1,73.3 67.3,74.1 					"/>
				</g>
				<g>
					<polyline fill="none" stroke="#0000FF" stroke-miterlimit="10" points="67.3,74.3 66.1,74.8 67.3,75.6 					"/>
				</g>
				<g>
					<polyline fill="none" stroke="#0000FF" stroke-miterlimit="10" points="67.3,75.9 66,76.4 67.2,77.2 					"/>
				</g>
				<g>
					<polyline fill="none" stroke="#0000FF" stroke-miterlimit="10" points="67.2,77.4 65.9,77.9 67.1,78.7 					"/>
				</g>
				<g>
					<polyline fill="none" stroke="#0000FF" stroke-miterlimit="10" points="67.1,79 65.8,79.4 67,80.3 					"/>
				</g>
				<g>
					<path fill="none" stroke="#0000FF" stroke-miterlimit="10" d="M67,80.5c0,0-0.3,0.1-0.6,0.2c-0.3,0.1-0.6,0.2-0.6,0.2l1.2,0.9"
						/>
				</g>
				<g>
					<path fill="none" stroke="#0000FF" stroke-miterlimit="10" d="M66.9,82l-1.3,0.4c0,0,0.3,0.2,0.6,0.4c0.3,0.2,0.6,0.4,0.6,0.4"
						/>
				</g>
				<g>
					<path fill="none" stroke="#0000FF" stroke-miterlimit="10" d="M66.7,83.6c0,0-0.3,0.1-0.7,0.2c-0.3,0.1-0.7,0.2-0.7,0.2
						s0.3,0.2,0.6,0.5c0.3,0.2,0.6,0.5,0.6,0.5"/>
				</g>
				<g>
					<path fill="none" stroke="#0000FF" stroke-miterlimit="10" d="M66.4,85.2c0,0-0.3,0.1-0.7,0.2c-0.3,0.1-0.7,0.2-0.7,0.2
						s0.3,0.2,0.6,0.5c0.3,0.2,0.6,0.5,0.6,0.5"/>
				</g>
				<g>
					<path fill="none" stroke="#0000FF" stroke-miterlimit="10" d="M66.2,86.7c0,0-0.3,0.1-0.7,0.1S64.8,87,64.8,87s0.2,0.2,0.5,0.5
						s0.5,0.5,0.5,0.5"/>
				</g>
				<g>
					<path fill="none" stroke="#0000FF" stroke-miterlimit="10" d="M65.8,88.2c0,0-0.3,0.1-0.7,0.1c-0.3,0.1-0.7,0.1-0.7,0.1
						s0.2,0.2,0.5,0.5c0.2,0.3,0.5,0.6,0.5,0.6"/>
				</g>
				<g>
					<path fill="none" stroke="#0000FF" stroke-miterlimit="10" d="M65.3,89.8c0,0-0.4,0-0.7,0.1c-0.3,0-0.7,0-0.7,0
						s0.2,0.3,0.4,0.6c0.2,0.3,0.4,0.6,0.4,0.6"/>
				</g>
				<g>
					<path fill="none" stroke="#0000FF" stroke-miterlimit="10" d="M64.7,91.3c0,0-0.3,0-0.7,0s-0.7-0.1-0.7-0.1s0.2,0.3,0.4,0.6
						c0.1,0.2,0.2,0.3,0.2,0.4c0.1,0.1,0.1,0.2,0.1,0.2"/>
				</g>
				<g>
					<path fill="none" stroke="#0000FF" stroke-miterlimit="10" d="M63.8,92.7c0,0-0.1,0-0.2,0c-0.1,0-0.3-0.1-0.5-0.1
						c-0.3-0.1-0.7-0.2-0.7-0.2s0.1,0.3,0.2,0.7c0.1,0.3,0.1,0.7,0.1,0.7"/>
				</g>
				<g>
					<path fill="none" stroke="#0000FF" stroke-miterlimit="10" d="M62.6,94L62.6,94C62.6,93.9,62.6,93.9,62.6,94
						c-0.4-0.2-0.8-0.4-1.2-0.6c0,0,0.1,0.4,0.1,0.7s0.1,0.7,0.1,0.7"/>
				</g>
				<g>
					<path fill="none" stroke="#0000FF" stroke-miterlimit="10" d="M61.4,94.9c0,0-0.3-0.2-0.6-0.3s-0.6-0.3-0.6-0.3s0,0.4,0.1,0.7
						c0,0.4,0.1,0.7,0.1,0.7"/>
				</g>
				<g>
					<path fill="none" stroke="#0000FF" stroke-miterlimit="10" d="M60.2,95.9c0,0-0.3-0.2-0.6-0.4c-0.3-0.2-0.6-0.4-0.6-0.4
						s0,0.4,0,0.7c0,0.4,0,0.7,0,0.7"/>
				</g>
				<g>
					<path fill="none" stroke="#0000FF" stroke-miterlimit="10" d="M58.9,96.7c0,0-0.3-0.2-0.6-0.4C58,96.2,57.7,96,57.7,96
						s0,0.4,0,0.7c0,0.4,0,0.7,0,0.7"/>
				</g>
				<g>
					<path fill="none" stroke="#0000FF" stroke-miterlimit="10" d="M57.5,97.5c0,0-0.3-0.2-0.5-0.4c-0.3-0.2-0.5-0.4-0.5-0.4
						s0,0.4-0.1,0.7c0,0.4-0.1,0.7-0.1,0.7"/>
				</g>
				<g>
					<path fill="none" stroke="#0000FF" stroke-miterlimit="10" d="M56,98.2c0,0-0.2-0.2-0.5-0.5c-0.2-0.2-0.5-0.5-0.5-0.5
						s0,0.5-0.1,0.8c-0.1,0.4-0.2,0.7-0.2,0.7"/>
				</g>
				<g>
					<path fill="none" stroke="#0000FF" stroke-miterlimit="10" d="M54.5,98.8c0,0-0.2-0.2-0.4-0.5s-0.4-0.5-0.4-0.5
						s-0.1,0.4-0.2,0.7c-0.1,0.2-0.1,0.4-0.2,0.5c-0.1,0.1-0.1,0.2-0.1,0.2"/>
				</g>
				<g>
					<path fill="none" stroke="#0000FF" stroke-miterlimit="10" d="M52.9,99.2c0,0-0.2-0.3-0.4-0.6c-0.1-0.1-0.2-0.3-0.2-0.4
						c-0.1-0.1-0.1-0.2-0.1-0.2s-0.1,0.3-0.3,0.6c-0.2,0.3-0.4,0.6-0.4,0.6"/>
				</g>
				<g>
					<path fill="none" stroke="#0000FF" stroke-miterlimit="10" d="M51.3,99.3c0,0-0.1-0.3-0.3-0.6c-0.1-0.2-0.1-0.3-0.2-0.4
						c0-0.1-0.1-0.2-0.1-0.2s-0.2,0.3-0.4,0.6s-0.5,0.6-0.5,0.6"/>
				</g>
			</g>
		</g>
	</g>
	<g>
		<g>
			<path fill="none" stroke="#0000FF" stroke-miterlimit="10" d="M59.3,50.2"/>
		</g>
	</g>
	<g>
		<g>
			<path fill="none" stroke="#0000FF" stroke-miterlimit="10" d="M43.8,49.9"/>
		</g>
	</g>
	<g>
		<g>
			<path fill="none" stroke="#0000FF" stroke-miterlimit="10" d="M40.4,49.8"/>
		</g>
	</g>
	<g>
		<g>
			<g>
				<g>
					<path fill="none" stroke="#0000FF" stroke-miterlimit="10" d="M49.9,98.8c0,0-0.2-0.3-0.4-0.6c-0.2-0.3-0.4-0.6-0.4-0.6
						S49,98,48.9,98.3c-0.2,0.3-0.4,0.6-0.4,0.6"/>
				</g>
				<g>
					<path fill="none" stroke="#0000FF" stroke-miterlimit="10" d="M48.2,99c0,0-0.1-0.3-0.3-0.6c-0.1-0.3-0.2-0.6-0.2-0.6
						s-0.2,0.3-0.4,0.6c-0.2,0.3-0.5,0.6-0.5,0.6"/>
				</g>
				<g>
					<path fill="none" stroke="#0000FF" stroke-miterlimit="10" d="M46.5,98.8c0,0-0.1-0.3-0.2-0.7c-0.1-0.3-0.1-0.7-0.1-0.7
						S46,97.7,45.7,98s-0.6,0.5-0.6,0.5"/>
				</g>
				<g>
					<path fill="none" stroke="#0000FF" stroke-miterlimit="10" d="M45,98.4c0,0,0-0.3-0.1-0.7c0-0.3-0.1-0.7-0.1-0.7
						s-0.3,0.2-0.6,0.4c-0.3,0.2-0.6,0.4-0.6,0.4"/>
				</g>
				<g>
					<path fill="none" stroke="#0000FF" stroke-miterlimit="10" d="M43.5,97.8c0,0,0-0.3,0-0.7c0-0.3,0-0.7,0-0.7s-0.3,0.2-0.6,0.4
						c-0.3,0.2-0.6,0.4-0.6,0.4"/>
				</g>
				<g>
					<path fill="none" stroke="#0000FF" stroke-miterlimit="10" d="M42,97.1c0,0,0-0.3,0.1-0.7c0-0.3,0.1-0.7,0.1-0.7
						s-0.3,0.2-0.6,0.4c-0.3,0.2-0.6,0.3-0.6,0.3"/>
				</g>
				<g>
					<path fill="none" stroke="#0000FF" stroke-miterlimit="10" d="M40.7,96.3c0,0,0.1-0.3,0.1-0.7c0.1-0.3,0.1-0.7,0.1-0.7
						s-0.3,0.2-0.7,0.3c-0.3,0.1-0.7,0.3-0.7,0.3"/>
				</g>
				<g>
					<path fill="none" stroke="#0000FF" stroke-miterlimit="10" d="M39.4,95.4c0,0,0.1-0.3,0.1-0.7c0.1-0.3,0.1-0.7,0.1-0.7
						s-0.3,0.1-0.7,0.3c-0.3,0.1-0.7,0.3-0.7,0.3"/>
				</g>
				<g>
					<path fill="none" stroke="#0000FF" stroke-miterlimit="10" d="M38.1,94.4c0,0,0.1-0.3,0.2-0.7c0.1-0.3,0.2-0.7,0.2-0.7
						s-0.3,0.1-0.7,0.2c-0.2,0.1-0.3,0.1-0.5,0.2c-0.2,0-0.1,0.1-0.2,0.1"/>
				</g>
				<g>
					<path fill="none" stroke="#0000FF" stroke-miterlimit="10" d="M36.9,93.5c0,0,0.1-0.3,0.2-0.7c0.1-0.3,0.2-0.6,0.2-0.6
						s-0.3,0.1-0.7,0.1c-0.4,0.1-0.7,0.1-0.7,0.1"/>
				</g>
				<g>
					<path fill="none" stroke="#0000FF" stroke-miterlimit="10" d="M35.7,92.2c0,0,0.2-0.3,0.4-0.6s0.4-0.6,0.4-0.6s-0.4,0-0.7,0
						S35,90.9,35,90.9"/>
				</g>
				<g>
					<path fill="none" stroke="#0000FF" stroke-miterlimit="10" d="M34.9,90.7c0,0,0.2-0.3,0.4-0.5s0.5-0.5,0.5-0.5
						s-0.4-0.1-0.7-0.1c-0.4-0.1-0.7-0.1-0.7-0.1"/>
				</g>
				<g>
					<path fill="none" stroke="#0000FF" stroke-miterlimit="10" d="M34.3,89.2c0,0,0.2-0.2,0.5-0.5s0.5-0.4,0.5-0.4
						s-0.4-0.1-0.7-0.2S34,87.9,34,87.9"/>
				</g>
				<g>
					<path fill="none" stroke="#0000FF" stroke-miterlimit="10" d="M33.9,87.7c0,0,0.3-0.2,0.5-0.4c0.3-0.2,0.6-0.4,0.6-0.4
						s-0.3-0.1-0.7-0.2c-0.3-0.1-0.7-0.2-0.7-0.2"/>
				</g>
				<g>
					<path fill="none" stroke="#0000FF" stroke-miterlimit="10" d="M33.5,86.1c0,0,0.3-0.2,0.6-0.4c0.3-0.2,0.6-0.4,0.6-0.4
						s-0.3-0.1-0.7-0.2c-0.3-0.1-0.7-0.3-0.7-0.3"/>
				</g>
				<g>
					<path fill="none" stroke="#0000FF" stroke-miterlimit="10" d="M33.3,84.6c0,0,0.3-0.2,0.6-0.4c0.3-0.2,0.6-0.4,0.6-0.4
						s-0.3-0.1-0.7-0.3c-0.3-0.1-0.7-0.3-0.7-0.3"/>
				</g>
				<g>
					<path fill="none" stroke="#0000FF" stroke-miterlimit="10" d="M33,83c0,0,0.3-0.2,0.6-0.4c0.3-0.2,0.6-0.4,0.6-0.4
						s-0.3-0.1-0.7-0.3c-0.3-0.1-0.7-0.3-0.7-0.3"/>
				</g>
				<g>
					<path fill="none" stroke="#0000FF" stroke-miterlimit="10" d="M32.8,81.5l1.2-0.7c0,0-0.3-0.2-0.7-0.3
						c-0.3-0.2-0.7-0.3-0.7-0.3"/>
				</g>
				<g>
					<polyline fill="none" stroke="#0000FF" stroke-miterlimit="10" points="32.7,79.9 33.9,79.3 32.6,78.6 					"/>
				</g>
				<g>
					<polyline fill="none" stroke="#0000FF" stroke-miterlimit="10" points="32.6,78.4 33.8,77.7 32.5,77.1 					"/>
				</g>
				<g>
					<polyline fill="none" stroke="#0000FF" stroke-miterlimit="10" points="32.5,76.8 33.7,76.2 32.5,75.5 					"/>
				</g>
				<g>
					<polyline fill="none" stroke="#0000FF" stroke-miterlimit="10" points="32.4,75.3 33.7,74.7 32.4,74 					"/>
				</g>
				<g>
					<polyline fill="none" stroke="#0000FF" stroke-miterlimit="10" points="32.4,73.7 33.7,73.1 32.4,72.4 					"/>
				</g>
				<g>
					<polyline fill="none" stroke="#0000FF" stroke-miterlimit="10" points="32.4,72.2 33.6,71.6 32.4,70.9 					"/>
				</g>
				<g>
					<polyline fill="none" stroke="#0000FF" stroke-miterlimit="10" points="32.4,70.6 33.7,70.1 32.4,69.3 					"/>
				</g>
				<g>
					<polyline fill="none" stroke="#0000FF" stroke-miterlimit="10" points="32.4,69.1 33.7,68.5 32.4,67.8 					"/>
				</g>
				<g>
					<polyline fill="none" stroke="#0000FF" stroke-miterlimit="10" points="32.4,67.5 33.7,67 32.5,66.2 					"/>
				</g>
				<g>
					<polyline fill="none" stroke="#0000FF" stroke-miterlimit="10" points="32.5,66 33.7,65.5 32.5,64.7 					"/>
				</g>
				<g>
					<polyline fill="none" stroke="#0000FF" stroke-miterlimit="10" points="32.5,64.4 33.8,63.9 32.6,63.1 					"/>
				</g>
				<g>
					<polyline fill="none" stroke="#0000FF" stroke-miterlimit="10" points="32.6,62.9 33.9,62.4 32.6,61.6 					"/>
				</g>
				<g>
					<polyline fill="none" stroke="#0000FF" stroke-miterlimit="10" points="32.7,61.3 33.9,60.8 32.7,60 					"/>
				</g>
				<g>
					<polyline fill="none" stroke="#0000FF" stroke-miterlimit="10" points="32.7,59.8 34,59.3 32.8,58.5 					"/>
				</g>
				<g>
					<polyline fill="none" stroke="#0000FF" stroke-miterlimit="10" points="32.8,58.2 34.1,57.7 32.9,56.9 					"/>
				</g>
				<g>
					<path fill="none" stroke="#0000FF" stroke-miterlimit="10" d="M32.9,56.7l1.3-0.5c0,0-0.3-0.2-0.6-0.4S33,55.4,33,55.4"/>
				</g>
				<g>
					<path fill="none" stroke="#0000FF" stroke-miterlimit="10" d="M32.9,55.2c0,0,0.3-0.1,0.6-0.3s0.6-0.3,0.6-0.3
						s-0.3-0.2-0.6-0.4s-0.6-0.5-0.6-0.5"/>
				</g>
				<g>
					<path fill="none" stroke="#0000FF" stroke-miterlimit="10" d="M33,53.5c0,0,0.3-0.1,0.7-0.1c0.3-0.1,0.7-0.1,0.7-0.1
						s-0.2-0.2-0.4-0.6c-0.2-0.3-0.3-0.7-0.3-0.7"/>
				</g>
				<g>
					<path fill="none" stroke="#0000FF" stroke-miterlimit="10" d="M33.8,51.8c0,0,0.4,0.1,0.7,0.1c0.3,0.1,0.6,0.2,0.6,0.2
						s-0.1-0.3-0.2-0.7s-0.1-0.7-0.1-0.7"/>
				</g>
				<g>
					<path fill="none" stroke="#0000FF" stroke-miterlimit="10" d="M35,50.6c0,0,0.3,0.2,0.6,0.4s0.6,0.4,0.6,0.4s0-0.4,0-0.7
						c0-0.4,0-0.7,0-0.7"/>
				</g>
			</g>
		</g>
	</g>
	<g>
		<g>
			<path fill="none" stroke="#0000FF" stroke-miterlimit="10" d="M61.2,50.6"/>
		</g>
	</g>
	<g>
		<g>
			<g>
				<g>
					<path fill="none" stroke="#0000FF" stroke-miterlimit="10" d="M35.3,50.2c0,0,0.1-0.3,0.1-0.7c0.1-0.3,0.2-0.7,0.2-0.7
						s-0.3,0.1-0.7,0.2c-0.4,0.1-0.7,0.1-0.7,0.1"/>
				</g>
				<g>
					<path fill="none" stroke="#0000FF" stroke-miterlimit="10" d="M34,49c0,0,0.1-0.3,0.3-0.6s0.4-0.6,0.4-0.6s-0.4,0-0.7,0
						c-0.4-0.1-0.7-0.2-0.7-0.2"/>
				</g>
				<g>
					<path fill="none" stroke="#0000FF" stroke-miterlimit="10" d="M33.2,47.3c0,0,0.3-0.2,0.6-0.4s0.6-0.3,0.6-0.3
						c-0.2-0.1-0.3-0.2-0.5-0.3c-0.1-0.1-0.1-0.1-0.2-0.2L33.6,46c0,0-0.1-0.1,0.2,0c-0.2,0-0.3,0-0.3,0c-0.1,0-0.2-0.1-0.3-0.1"/>
				</g>
				<g>
					<path fill="none" stroke="#0000FF" stroke-miterlimit="10" d="M33.3,45.5c0,0,0.1,0,0.2-0.1c0.1,0,0.3-0.1,0.5-0.1
						c0.3,0,0.7,0,0.7,0s-0.2-0.3-0.4-0.6s-0.4-0.6-0.4-0.6"/>
				</g>
				<g>
					<path fill="none" stroke="#0000FF" stroke-miterlimit="10" d="M34,43.9c0,0,0.3,0,0.7,0.1c0.3,0,0.7,0.1,0.7,0.1
						s-0.2-0.3-0.3-0.6c-0.2-0.3-0.3-0.6-0.3-0.6"/>
				</g>
				<g>
					<path fill="none" stroke="#0000FF" stroke-miterlimit="10" d="M34.8,42.6c0,0,0.3,0.1,0.7,0.1c0.3,0.1,0.7,0.1,0.7,0.1
						s-0.2-0.3-0.3-0.7s-0.3-0.7-0.3-0.7"/>
				</g>
				<g>
					<path fill="none" stroke="#0000FF" stroke-miterlimit="10" d="M35.7,41.3c0,0,0.3,0.1,0.7,0.1c0.3,0.1,0.7,0.1,0.7,0.1
						s-0.1-0.3-0.3-0.7c-0.1-0.3-0.3-0.7-0.3-0.7"/>
				</g>
				<g>
					<polyline fill="none" stroke="#0000FF" stroke-miterlimit="10" points="36.6,40 37.9,40.3 37.4,38.9 					"/>
				</g>
				<g>
					<polyline fill="none" stroke="#0000FF" stroke-miterlimit="10" points="37.5,38.7 38.9,39.1 38.3,37.7 					"/>
				</g>
				<g>
					<polyline fill="none" stroke="#0000FF" stroke-miterlimit="10" points="38.5,37.5 39.8,37.9 39.3,36.5 					"/>
				</g>
				<g>
					<polyline fill="none" stroke="#0000FF" stroke-miterlimit="10" points="39.4,36.3 40.8,36.7 40.3,35.3 					"/>
				</g>
				<g>
					<path fill="none" stroke="#0000FF" stroke-miterlimit="10" d="M40.4,35.1l1.3,0.4c0,0,0-0.1-0.1-0.2c0-0.1-0.1-0.3-0.2-0.5
						c0-0.1,0-0.2,0-0.3s0.1-0.2,0.1-0.2c0.1-0.1,0.1-0.2,0.1-0.2"/>
				</g>
				<g>
					<path fill="none" stroke="#0000FF" stroke-miterlimit="10" d="M41.9,33.9c0,0,0.2,0.2,0.5,0.5c0.2,0.2,0.4,0.5,0.4,0.5
						s0.1-0.4,0.2-0.7c0.1-0.4,0.2-0.7,0.2-0.7"/>
				</g>
				<g>
					<path fill="none" stroke="#0000FF" stroke-miterlimit="10" d="M43.4,33.5c0,0,0.2,0.3,0.4,0.5c0.2,0.3,0.4,0.6,0.4,0.6
						s0.1-0.3,0.2-0.7c0.1-0.3,0.2-0.7,0.2-0.7"/>
				</g>
				<g>
					<path fill="none" stroke="#0000FF" stroke-miterlimit="10" d="M45,33.1c0,0,0.2,0.3,0.4,0.6s0.4,0.6,0.4,0.6s0.1-0.3,0.2-0.7
						c0.1-0.3,0.3-0.7,0.3-0.7"/>
				</g>
				<g>
					<path fill="none" stroke="#0000FF" stroke-miterlimit="10" d="M46.5,32.9c0,0,0.2,0.3,0.4,0.6s0.4,0.6,0.4,0.6s0.1-0.3,0.3-0.7
						c0.2-0.3,0.3-0.7,0.3-0.7"/>
				</g>
				<g>
					<path fill="none" stroke="#0000FF" stroke-miterlimit="10" d="M48.1,32.7c0,0,0.2,0.3,0.3,0.6c0.2,0.3,0.3,0.6,0.3,0.6
						s0.2-0.3,0.3-0.6c0.2-0.3,0.4-0.6,0.4-0.6"/>
				</g>
				<g>
					<path fill="none" stroke="#0000FF" stroke-miterlimit="10" d="M49.7,32.6c0,0,0.1,0.3,0.3,0.6c0.1,0.3,0.3,0.6,0.3,0.6
						s0.2-0.3,0.4-0.6s0.4-0.6,0.4-0.6"/>
				</g>
				<g>
					<path fill="none" stroke="#0000FF" stroke-miterlimit="10" d="M51.3,32.7c0,0,0.1,0.3,0.2,0.6c0.1,0.3,0.2,0.6,0.2,0.6
						s0.2-0.3,0.4-0.6s0.4-0.6,0.4-0.6"/>
				</g>
				<g>
					<path fill="none" stroke="#0000FF" stroke-miterlimit="10" d="M52.9,32.8c0,0,0.1,0.3,0.2,0.7c0.1,0.3,0.2,0.7,0.2,0.7
						s0.2-0.3,0.4-0.6s0.5-0.6,0.5-0.6"/>
				</g>
				<g>
					<path fill="none" stroke="#0000FF" stroke-miterlimit="10" d="M54.4,33c0,0,0.1,0.3,0.2,0.7c0.1,0.3,0.1,0.7,0.1,0.7
						s0.2-0.3,0.5-0.5c0.2-0.3,0.5-0.5,0.5-0.5"/>
				</g>
				<g>
					<path fill="none" stroke="#0000FF" stroke-miterlimit="10" d="M56,33.4c0,0,0.1,0.3,0.1,0.7c0.1,0.3,0.1,0.7,0.1,0.7
						s0.2-0.2,0.5-0.5c0.3-0.2,0.6-0.5,0.6-0.5"/>
				</g>
				<g>
					<path fill="none" stroke="#0000FF" stroke-miterlimit="10" d="M57.5,33.8c0,0,0,0.3,0.1,0.7c0,0.3,0.1,0.7,0.1,0.7s0,0,0.1,0
						l0.1-0.1C58,35,58,35,58.1,35c0.1-0.1,0.2-0.1,0.2-0.1c0.2-0.1,0.4,0,0.5-0.1c0.1,0,0.2,0,0.2,0"/>
				</g>
				<g>
					<polyline fill="none" stroke="#0000FF" stroke-miterlimit="10" points="59.1,34.8 58.5,36.1 59.9,35.8 					"/>
				</g>
				<g>
					<polyline fill="none" stroke="#0000FF" stroke-miterlimit="10" points="60.1,36 59.5,37.3 60.9,37.1 					"/>
				</g>
				<g>
					<polyline fill="none" stroke="#0000FF" stroke-miterlimit="10" points="61,37.3 60.4,38.4 61.8,38.3 					"/>
				</g>
				<g>
					<polyline fill="none" stroke="#0000FF" stroke-miterlimit="10" points="62,38.5 61.3,39.7 62.8,39.5 					"/>
				</g>
				<g>
					<path fill="none" stroke="#0000FF" stroke-miterlimit="10" d="M62.9,39.7l-0.7,1.2c0,0,0.4,0,0.7-0.1c0.4,0,0.7-0.1,0.7-0.1"/>
				</g>
				<g>
					<path fill="none" stroke="#0000FF" stroke-miterlimit="10" d="M63.8,41c0,0-0.2,0.3-0.4,0.6S63,42.2,63,42.2s0.4,0,0.7-0.1
						c0.4,0,0.7,0,0.7,0"/>
				</g>
				<g>
					<path fill="none" stroke="#0000FF" stroke-miterlimit="10" d="M64.7,42.3c0,0-0.2,0.3-0.4,0.6c-0.2,0.3-0.4,0.6-0.4,0.6
						s0.4,0,0.7,0c0.4,0,0.7,0,0.7,0"/>
				</g>
				<g>
					<path fill="none" stroke="#0000FF" stroke-miterlimit="10" d="M65.6,43.6c0,0-0.2,0.3-0.4,0.6c-0.2,0.3-0.4,0.5-0.4,0.5
						s0.4,0,0.7,0.1c0.4,0,0.7,0.1,0.7,0.1"/>
				</g>
				<g>
					<path fill="none" stroke="#0000FF" stroke-miterlimit="10" d="M66.3,45.1c0,0-0.2,0.3-0.5,0.5c-0.1,0.1-0.3,0.2-0.4,0.3
						S65.2,46,65.2,46s0.1,0,0.2,0.1c0.1,0,0.3,0.1,0.4,0.2c0.3,0.2,0.5,0.6,0.5,0.6"/>
				</g>
				<g>
					<path fill="none" stroke="#0000FF" stroke-miterlimit="10" d="M66.3,47.1c0,0-0.4,0.1-0.7,0c-0.3,0-0.7-0.1-0.7-0.1
						s0.2,0.3,0.3,0.6c0.1,0.3,0.2,0.7,0.2,0.7"/>
				</g>
				<g>
					<path fill="none" stroke="#0000FF" stroke-miterlimit="10" d="M65.3,48.6c0,0-0.3-0.1-0.6-0.2c-0.3-0.1-0.6-0.3-0.6-0.3
						s0.1,0.4,0.1,0.7c0.1,0.4,0.1,0.7,0.1,0.7"/>
				</g>
				<g>
					<path fill="none" stroke="#0000FF" stroke-miterlimit="10" d="M64.1,49.8l-0.4,0.1c-0.1,0-0.1,0-0.2,0c-0.1,0-0.1,0,0.1,0.1
						c-0.2,0-0.5,0.2-0.7,0.2l1.3,0.6"/>
				</g>
			</g>
		</g>
	</g>
</g>
<g id="leaf">
	<g>
		<path fill="#A8CF38" stroke="#010101" stroke-width="0.5" stroke-linecap="round" stroke-linejoin="round" d="M46.3,21.8
			c0,0-2.4-4.1-2-6.2l0.6,0.2c0,0-0.5-0.6,0.1-3.1l0.5,0.4c0,0-0.4-1.2,0.4-2.9l0.5,0.4c0,0,0.2-1.1,0.7-2.3l0.5,0.3
			c0,0-0.1-1.4,0.4-2.3l0.5,0.4c0,0,0.2-1.7,1.1-2.1L49.7,5c0,0,0.6-1.1,1.6-1.7l0.4,0.5c0,0,0-1.1,1.2-1.5L53,2.8
			c0,0,0.1-1.4,1.3-1.7l0.3,0.7c0,0,2-1.8,2.4-1.9l0.7,0.4c0.1,0.3,0,3,0,3l0.7-0.2c0.5,1-0.6,2-0.6,2h0.5C58.7,6.3,57.8,7,57.8,7
			l0.7,0.1c0.1,1.1-0.3,2.3-0.3,2.3l0.4-0.1c0.3,0.9-0.9,2.2-0.9,2.2l0.6,0.1c-0.5,1-1.7,1.7-1.7,1.7l0.7,0.2
			c-0.6,1.1-1.4,1.9-1.4,1.9l0.6,0.1c-0.8,1.6-2,2.1-2,2.1l0.6,0.1c-1.7,2-2.4,2-2.4,2l0.5,0.3c-1.4,1.5-6.2,2.1-6.2,2.1L46.3,21.8z
			"/>
		<path fill="#A8CF38" stroke="#010101" stroke-width="0.5" stroke-linecap="round" stroke-linejoin="round" d="M46.7,22
			c0,0-2.4-4.1-2-6.2l0.6,0.2c0,0-0.5-0.6,0.1-3.1l0.5,0.4c0,0-0.4-1.2,0.4-2.9l0.5,0.4c0,0,0.2-1.1,0.7-2.3L48,8.8
			c0,0-0.1-1.4,0.4-2.3L48.7,7c0,0,0.2-1.7,1.1-2.1L50,5.3c0,0,0.6-1.1,1.6-1.7L52,4.1c0,0,0-1.1,1.2-1.5L53.4,3
			c0,0,0.1-1.4,1.3-1.7L55,2c0,0,2-1.8,2.4-1.9l0.7,0.4c0.1,0.3,0,3,0,3l0.7-0.2c0.5,1-0.6,2-0.6,2h0.5c0.4,1.2-0.5,1.9-0.5,1.9
			L59,7.3c0.1,1.1-0.3,2.3-0.3,2.3l0.4-0.1c0.3,0.9-0.9,2.2-0.9,2.2l0.6,0.1c-0.5,1-1.7,1.7-1.7,1.7l0.6,0.2
			c-0.6,1.1-1.4,1.9-1.4,1.9l0.6,0.1c-0.8,1.6-2,2.1-2,2.1l0.6,0.1c-1.7,2-2.4,2-2.4,2l0.5,0.3c-1.4,1.5-6.2,2.1-6.2,2.1L46.7,22z"
			/>
		
			<line fill="none" stroke="#010101" stroke-width="0.5" stroke-linecap="round" stroke-linejoin="round" x1="57.6" y1="0.6" x2="46.9" y2="22.2"/>
		<g>
			
				<line fill="none" stroke="#010101" stroke-width="0.5" stroke-linecap="round" stroke-linejoin="round" x1="55.1" y1="1.7" x2="55.4" y2="3.5"/>
			
				<line fill="none" stroke="#010101" stroke-width="0.5" stroke-linecap="round" stroke-linejoin="round" x1="53.5" y1="3.1" x2="54.5" y2="5.2"/>
			
				<line fill="none" stroke="#010101" stroke-width="0.5" stroke-linecap="round" stroke-linejoin="round" x1="52.1" y1="4.1" x2="53.5" y2="6.8"/>
			
				<line fill="none" stroke="#010101" stroke-width="0.5" stroke-linecap="round" stroke-linejoin="round" x1="49.9" y1="5.2" x2="52.2" y2="8.5"/>
			
				<line fill="none" stroke="#010101" stroke-width="0.5" stroke-linecap="round" stroke-linejoin="round" x1="48.8" y1="6.9" x2="51.7" y2="10.3"/>
			
				<line fill="none" stroke="#010101" stroke-width="0.5" stroke-linecap="round" stroke-linejoin="round" x1="47.7" y1="8.9" x2="50.6" y2="12"/>
			
				<line fill="none" stroke="#010101" stroke-width="0.5" stroke-linecap="round" stroke-linejoin="round" x1="46.6" y1="10.7" x2="49.1" y2="14"/>
			
				<line fill="none" stroke="#010101" stroke-width="0.5" stroke-linecap="round" stroke-linejoin="round" x1="45.7" y1="13.2" x2="48.6" y2="16.9"/>
			
				<line fill="none" stroke="#010101" stroke-width="0.5" stroke-linecap="round" stroke-linejoin="round" x1="45.2" y1="15.9" x2="47.6" y2="19.8"/>
		</g>
		<g>
			
				<line fill="none" stroke="#010101" stroke-width="0.5" stroke-linecap="round" stroke-linejoin="round" x1="58.5" y1="3.4" x2="56.8" y2="4.2"/>
			
				<line fill="none" stroke="#010101" stroke-width="0.5" stroke-linecap="round" stroke-linejoin="round" x1="58.4" y1="5.5" x2="56.1" y2="6"/>
			
				<line fill="none" stroke="#010101" stroke-width="0.5" stroke-linecap="round" stroke-linejoin="round" x1="58.4" y1="7.2" x2="55.4" y2="7.8"/>
			
				<line fill="none" stroke="#010101" stroke-width="0.5" stroke-linecap="round" stroke-linejoin="round" x1="58.8" y1="9.7" x2="54.9" y2="9.8"/>
			
				<line fill="none" stroke="#010101" stroke-width="0.5" stroke-linecap="round" stroke-linejoin="round" x1="58.2" y1="11.5" x2="53.7" y2="11.4"/>
			
				<line fill="none" stroke="#010101" stroke-width="0.5" stroke-linecap="round" stroke-linejoin="round" x1="57.3" y1="13.6" x2="53" y2="13.2"/>
			
				<line fill="none" stroke="#010101" stroke-width="0.5" stroke-linecap="round" stroke-linejoin="round" x1="56.5" y1="15.6" x2="52.4" y2="15.6"/>
			
				<line fill="none" stroke="#010101" stroke-width="0.5" stroke-linecap="round" stroke-linejoin="round" x1="55" y1="17.8" x2="50.4" y2="17.7"/>
			
				<line fill="none" stroke="#010101" stroke-width="0.5" stroke-linecap="round" stroke-linejoin="round" x1="53.2" y1="19.9" x2="48.7" y2="20.4"/>
		</g>
		<path fill="#FFFFFF" stroke="#010101" stroke-width="0.5" stroke-linecap="round" stroke-linejoin="round" d="M59.4,7.5
			c0,0-1.6,0.4-1.2,1.2c0,0-1.9,0.3-1,1.8c0,0,0.5,1,1.3,0.6c0,0-0.5,0.8,0.3,0.7c0.8-0.2,0.6-0.2,0.6-0.2"/>
		<path fill="#FFFFFF" stroke="#010101" stroke-width="0.5" stroke-miterlimit="10" d="M49.1,9.6c-0.1,0.4-0.3,0.7-0.4,1
			c0.4,0.3,0.9-0.4,1.1-0.7c-0.2,0.6-0.1,1.8,0.7,0.9c-0.1,0.6,0.2,0.6,0.6,0.9c-0.1,0.5-0.6,0.6-0.9,1c-0.2,0.2-0.2,0.5-0.4,0.7
			c-0.3-0.2-0.3-0.6-0.6-0.8c-0.2,0.1-0.7,0.8-0.9,0.8s-0.5-0.6-0.8-0.7c0.1-0.3,0.3-0.6,0.4-0.9c-0.1-0.1-0.1-0.1-0.1-0.1
			c0.1-0.4,0.7-2.2,1.2-1.8"/>
		<path fill="#FFFFFF" stroke="#010101" stroke-width="0.5" stroke-miterlimit="10" d="M54.5,5.5c0.5-0.4,0.5-1,1.2-1.3
			c0.1,0.2-0.1,0.8,0.1,0.9c0.4,0.3,1-0.4,1.2-0.6c-0.1,0.1-0.3,0.6-0.2,0.8c0.2,0.4,0.6,0.1,0.9,0.1C57.5,6,57,6.3,56.8,6.9
			c-0.2,0.4-0.2,0.7-0.4,1c-0.6-0.2-1-0.7-1.2-1.3c-0.2,0.4-0.9,1.7-1,0.6c-0.1-0.6,0.4-1.3,0.5-1.9"/>
		<path fill="#FFFFFF" stroke="#010101" stroke-width="0.5" stroke-miterlimit="10" d="M53.7,14.4c0,0.4-0.6,0.8-0.6,1.2
			c0,0.5,0.6,0.9,1.1,0.9c-0.6,0.2-1.1,0.5-1.3,1.1c0.2,0.2,0.6,0.4,0.9,0.5c-0.2,0.1-1.5,0.7-0.8,1c-0.2,0.5-1.5-0.2-1.8-0.5
			c-0.7-0.6-0.4-1.3-0.1-2.1c0.4-1,1.4-2.2,2.7-1.9"/>
	</g>
</g>
<g id="water">
	<g>
		<path fill="#55C2E2" stroke="#070707" stroke-width="0.5" stroke-miterlimit="10" d="M27.5,27.1c0,0-10,11.5-1.2,14.1
			c0,0,7.2-0.2,4-8.5C30.4,32.7,27.6,29.5,27.5,27.1z"/>
		<path fill="none" stroke="#3A97AD" stroke-miterlimit="10" d="M26.9,40.3c1.4,0.7,3.7-2.8,3.6-4.1"/>
		
			<ellipse transform="matrix(-0.7903 0.6127 -0.6127 -0.7903 69.191 53.2784)" opacity="0.8" fill="#FFFFFF" enable-background="new    " cx="25.5" cy="38.5" rx="1.3" ry="1.6"/>
		<path opacity="0.8" fill="#FFFFFF" enable-background="new    " d="M24.6,32.1c0,0,1.3-3.2,2.8-4"/>
	</g>
	<g>
		<path fill="#55C2E2" stroke="#070707" stroke-width="0.5" stroke-miterlimit="10" d="M73.6,34.5c0,0-10,11.5-1.2,14.1
			c0,0,7.2-0.2,4-8.5C76.4,40.1,73.7,36.8,73.6,34.5z"/>
		<path fill="none" stroke="#3A97AD" stroke-miterlimit="10" d="M73,47.7c1.4,0.7,3.7-2.8,3.6-4.1"/>
		
			<ellipse transform="matrix(-0.7903 0.6127 -0.6127 -0.7903 156.2471 38.3836)" opacity="0.8" fill="#FFFFFF" enable-background="new    " cx="71.6" cy="45.9" rx="1.3" ry="1.6"/>
		<path opacity="0.8" fill="#FFFFFF" enable-background="new    " d="M70.6,39.5c0,0,1.3-3.2,2.8-4"/>
	</g>
	<g>
		<path fill="#55C2E2" stroke="#070707" stroke-width="0.5" stroke-miterlimit="10" d="M30.5,91.5c0,0-6,6.9-0.7,8.5
			c0,0,4.3-0.1,2.4-5.1C32.2,94.9,30.6,92.9,30.5,91.5z"/>
		<path fill="none" stroke="#3A97AD" stroke-miterlimit="10" d="M30.1,99.4c0.9,0.4,2.2-1.7,2.1-2.5"/>
		
			<ellipse transform="matrix(-0.7901 0.613 -0.613 -0.7901 112.9797 159.6376)" opacity="0.8" fill="#FFFFFF" enable-background="new    " cx="29.2" cy="99.2" rx="0.5" ry="0.6"/>
		<path opacity="0.8" fill="#FFFFFF" enable-background="new    " d="M28.7,94.5c0,0,0.8-1.9,1.7-2.4"/>
	</g>
	<g>
		<path fill="#55C2E2" stroke="#070707" stroke-width="0.5" stroke-miterlimit="10" d="M24.8,71.3c0,0-3.7,4.3-0.4,5.3
			c0,0,2.7-0.1,1.5-3.2C25.8,73.3,24.8,72.2,24.8,71.3z"/>
		<path fill="none" stroke="#3A97AD" stroke-miterlimit="10" d="M24.6,76.2c0.5,0.2,1.4-1.1,1.3-1.5"/>
		
			<ellipse transform="matrix(-0.7906 0.6123 -0.6123 -0.7906 88.8501 120.6648)" opacity="0.8" fill="#FFFFFF" enable-background="new    " cx="23.8" cy="75.5" rx="0.2" ry="0.3"/>
		<path opacity="0.8" fill="#FFFFFF" enable-background="new    " d="M23.7,73.2c0,0,0.5-1.2,1.1-1.5"/>
	</g>
	<g>
		<path fill="#55C2E2" stroke="#070707" stroke-width="0.5" stroke-miterlimit="10" d="M75,73.9c0,0-3.7,4.3-0.4,5.3
			c0,0,2.7-0.1,1.5-3.2C76,76,75,74.8,75,73.9z"/>
		<path fill="none" stroke="#3A97AD" stroke-miterlimit="10" d="M74.7,78.9c0.5,0.2,1.4-1.1,1.3-1.5"/>
		
			<ellipse transform="matrix(-0.7906 0.6123 -0.6123 -0.7906 180.4922 94.6653)" opacity="0.8" fill="#FFFFFF" enable-background="new    " cx="74.1" cy="78.2" rx="0.2" ry="0.3"/>
		<path opacity="0.8" fill="#FFFFFF" enable-background="new    " d="M73.8,75.8c0,0,0.5-1.2,1.1-1.5"/>
	</g>
	<g>
		<path fill="#55C2E2" stroke="#070707" stroke-width="0.5" stroke-miterlimit="10" d="M68.1,90.4c0,0-3.7,4.3-0.4,5.3
			c0,0,2.7-0.1,1.5-3.2C69.2,92.5,68.2,91.3,68.1,90.4z"/>
		<path fill="none" stroke="#3A97AD" stroke-miterlimit="10" d="M67.9,95.4c0.5,0.2,1.4-1.1,1.3-1.5"/>
		
			<ellipse transform="matrix(-0.7904 0.6126 -0.6126 -0.7904 178.3669 128.4515)" opacity="0.8" fill="#FFFFFF" enable-background="new    " cx="67.2" cy="94.7" rx="0.2" ry="0.3"/>
		<path opacity="0.8" fill="#FFFFFF" enable-background="new    " d="M67,92.3c0,0,0.5-1.2,1.1-1.5"/>
	</g>
</g>
</svg>
