<?xml version="1.0" encoding="utf-8"?>
<!-- Generator: Adobe Illustrator 17.1.0, SVG Export Plug-In . SVG Version: 6.00 Build 0)  -->
<!DOCTYPE svg PUBLIC "-//W3C//DTD SVG 1.1//EN" "http://www.w3.org/Graphics/SVG/1.1/DTD/svg11.dtd">
<svg version="1.1" xmlns="http://www.w3.org/2000/svg" xmlns:xlink="http://www.w3.org/1999/xlink" x="0px" y="0px"
	 viewBox="0 0 210 350.4" enable-background="new 0 0 210 350.4" xml:space="preserve">
<pattern  x="-210" y="-178.5" width="8.7" height="8.7" patternUnits="userSpaceOnUse" id="New_Pattern_Swatch_12" viewBox="0 -8.7 8.7 8.7" overflow="visible">
	<g>
		<polygon fill="none" points="8.7,0 0,0 0,-8.7 8.7,-8.7 		"/>
		<g>
			<path fill="#010101" d="M5-4.5c0,0.4-0.3,0.7-0.7,0.7C4-3.8,3.7-4.1,3.7-4.5c0-0.4,0.3-0.7,0.7-0.7C4.7-5.2,5-4.9,5-4.5z"/>
		</g>
	</g>
</pattern>
<g id="legs">
	<path fill="#FFFFFF" stroke="#010101" stroke-miterlimit="10" d="M56.7,111.5c1.1-14.2,6.6-24.8,16.1-31.2c0,0-25.9,23.8-5.2,75.7
		l-3.4,1.3c-0.2-0.6-5.5-14.2-7.3-30.5c0,0-7.8-13.1-4.9-21.6c0,0,1.5,12.7,3.9,15L56.7,111.5z"/>
	<path fill="#FFFFFF" stroke="#010101" stroke-miterlimit="10" d="M69.2,163.9c-8.5-5.6-5.9-13.2-5.9-13.2
		c5.5-0.8,10.5,3.7,10.5,3.7L69.2,163.9z"/>
	<path fill="#FFFFFF" stroke="#010101" stroke-miterlimit="10" d="M145.9,111.5c-1.1-14.2-6.6-24.8-16.1-31.2
		c0,0,25.9,23.8,5.2,75.7l3.4,1.3c0.2-0.6,5.5-14.2,7.3-30.5c0,0,7.8-13.1,4.9-21.6c0,0-1.5,12.7-3.9,15L145.9,111.5z"/>
	<path fill="#FFFFFF" stroke="#010101" stroke-miterlimit="10" d="M133.4,163.9c8.5-5.6,5.9-13.2,5.9-13.2
		c-5.5-0.8-10.5,3.7-10.5,3.7L133.4,163.9z"/>
	<path fill="#FFFFFF" stroke="#010101" stroke-miterlimit="10" d="M136.2,247.9c0,0,13.3-6.5,17.2-4c0,0-6.4,19.2-14.5,25.9
		C138.9,269.8,135.9,259.7,136.2,247.9z"/>
	<path fill="#FFFFFF" stroke="#010101" stroke-miterlimit="10" d="M153.4,243.9c0,0,3.7,72.7,5.4,75.5c1.7,2.8,23.7,24.8,24,29.8
		c0,0-7.8-7.4-11-7.4L155.5,322c0,0-2.5-1.4-2.1,2.1l-2-74.9L153.4,243.9z"/>
	<path fill="#FFFFFF" stroke="#010101" stroke-miterlimit="10" d="M125.9,194.9c0,0,12.6-13.4,19-12.3c0,0-1.2,13.9-14.6,23.4
		c0,0-0.1-4.6-5.1-12.1"/>
	<path fill="#FFFFFF" stroke="#010101" stroke-miterlimit="10" d="M182.5,270.4c-0.3,4.1-16-27.8-27.6-34.3c-1-0.6-2-0.9-2.9-1.1
		l4.6-2.8c0,0-9.6-50-12.4-49.7c0,0,4.3-1.5,7.4,11.7c3.2,13.1,10.7,42.6,10.7,42.6s26.2,23.4,26.2,30.5c0,0-1.8-6-8.5-6.4
		C180,261,182.7,267.6,182.5,270.4z"/>
	<path fill="#FFFFFF" stroke="#010101" stroke-miterlimit="10" d="M65.9,249c0,0-13.3-6.5-17.2-4c0,0,6.4,19.2,14.5,25.9
		C63.2,270.9,66.2,260.8,65.9,249z"/>
	<path fill="#FFFFFF" stroke="#010101" stroke-miterlimit="10" d="M48.6,245c0,0-3.7,72.7-5.4,75.5c-1.7,2.8-23.7,24.8-24,29.8
		c0,0,7.8-7.4,11-7.4L46.5,323c0,0,2.5-1.4,2.1,2.1l2-74.8L48.6,245z"/>
	<path fill="#FFFFFF" stroke="#010101" stroke-miterlimit="10" d="M78,193.8c0,0-12.6-13.4-19-12.3c0,0,1.2,13.9,14.6,23.4
		c0,0,0.1-4.6,5.1-12.1"/>
	<path fill="#FFFFFF" stroke="#010101" stroke-miterlimit="10" d="M21.4,269.3c0.3,4.1,16-27.8,27.6-34.3c1-0.6,2-0.9,2.9-1.1
		l-4.6-2.8c0,0,9.6-50,12.4-49.7c0,0-4.3-1.5-7.4,11.7c-3.2,13.1-10.7,42.6-10.7,42.6s-26.1,23.4-26.1,30.5c0,0,1.8-6,8.5-6.4
		C23.9,259.9,21.3,266.6,21.4,269.3z"/>
	<g>
		<g>
			<path fill="none" stroke="#010101" stroke-miterlimit="10" d="M116.8,142.1"/>
		</g>
	</g>
</g>
<g id="basebody">
	<path fill="#FFFFFF" stroke="#010101" stroke-miterlimit="10" d="M100.4,174.2c0,0-3.9-24.4,15.7-24.4c0,0,19.7-0.8,15.7,24.4
		c0,0-2.9,37.7,0.5,51.1c3.4,13.4,34.1,91.2-24.9,108.5l-3.9-22.8L100.4,174.2z"/>
	<g>
		<path fill="#FFFFFF" d="M104.7,176.7"/>
		<g>
			<path fill="none" stroke="#010101" stroke-miterlimit="10" d="M104.7,176.7"/>
		</g>
	</g>
	<path fill="#FFFFFF" stroke="#010101" stroke-miterlimit="10" d="M103.5,176.6c0,0,3.9-24.4-15.7-24.4c0,0-19.7-0.8-15.7,24.4
		c0,0,2.9,37.7-0.5,51.1c-3.4,13.4-34.1,91.2,24.9,108.5l3.9-22.8L103.5,176.6z"/>
	<path fill="#FFFFFF" stroke="#010101" stroke-miterlimit="10" d="M96.7,169.9c0,0-17.1-8.2-25.3-5.4c0,0-6.7-30.7,9.7-36.3
		c0,0,3,3.1,8.9,3c5.9-0.2,28.2,0,28.2,0s4.2-1,4.5-2.1c0,0,14.8,9.1,8.7,35c0,0-9.2-0.7-22.4,4.9l-7.1,4.7L96.7,169.9z"/>
	<path fill="#FFFFFF" stroke="#010101" stroke-miterlimit="10" d="M81.1,128.2c0,0,22.3-20.6,41.7,0.9c0,0-1.7,2.1-8.4,2.1
		c-6.6,0-27.4,0-27.4,0S82.5,130.7,81.1,128.2z"/>
</g>
<g id="bodycolor">
	<path fill="#6CBE45" stroke="#010101" stroke-miterlimit="10" d="M99.6,174.2c0,0-3.9-24.4,15.7-24.4c0,0,19.7-0.8,15.7,24.4
		c0,0-2.9,37.7,0.5,51.1c3.4,13.4,34.1,91.2-24.9,108.5l-3.9-22.8L99.6,174.2z"/>
	<g>
		<path fill="#FFFFFF" d="M103.9,176.7"/>
		<g>
			<path fill="none" stroke="#010101" stroke-miterlimit="10" d="M103.9,176.7"/>
		</g>
	</g>
	<path fill="#6CBE45" stroke="#010101" stroke-miterlimit="10" d="M102.8,176.6c0,0,3.9-24.4-15.7-24.4c0,0-19.7-0.8-15.7,24.4
		c0,0,2.9,37.7-0.5,51.1c-3.4,13.4-34.1,91.2,24.9,108.5l3.9-22.8L102.8,176.6z"/>
	<path fill="#D0DD28" stroke="#010101" stroke-miterlimit="10" d="M96,169.9c0,0-17.1-8.2-25.3-5.4c0,0-6.7-30.7,9.7-36.3
		c0,0,3,3.1,8.9,3c5.9-0.2,28.2,0,28.2,0s4.2-1,4.5-2.1c0,0,14.8,9.1,8.7,35c0,0-9.2-0.7-22.4,4.9l-7.1,4.7L96,169.9z"/>
	<g>
		<path fill="#D0DD28" d="M117.4,130.2"/>
		<g>
			<path fill="none" stroke="#010101" stroke-miterlimit="10" d="M117.4,130.2"/>
		</g>
	</g>
	<path fill="#6CBE45" stroke="#010101" stroke-miterlimit="10" d="M80.4,128.2c0,0,22.3-20.6,41.7,0.9c0,0-1.7,2.1-8.4,2.1
		c-6.6,0-27.4,0-27.4,0S81.8,130.7,80.4,128.2z"/>
</g>
<g id="eyes">
	<path fill="#FFFFFF" stroke="#010101" stroke-miterlimit="10" d="M81.7,128.6c0,0,4.8-6,8.7-3.3c0,0-0.9,7.6-9.1,4.1L81.7,128.6z"
		/>
	<path fill="#FFFFFF" stroke="#010101" stroke-miterlimit="10" d="M122.2,128.6c0,0-4.8-6-8.7-3.3c0,0,0.9,7.6,9.1,4.1L122.2,128.6z
		"/>
</g>
<g id="antennae">
	<path fill="none" stroke="#010101" stroke-miterlimit="10" d="M115.4,122.7c3.7,0,6.8-0.1,10.3-1c2-0.6,8.7-2.6,8.1-5.4
		c-0.1-0.1-0.5-0.2-0.7-0.3c-0.8,1.1-1.5,2.1-2,3.4"/>
	<path fill="none" stroke="#010101" stroke-miterlimit="10" d="M89.3,122.7c-3.7,0-6.8-0.1-10.3-1c-2-0.6-8.7-2.6-8.1-5.4
		c0.1-0.1,0.5-0.2,0.7-0.3c0.8,1.1,1.5,2.1,2,3.4"/>
</g>
<g id="markings">
	<path fill="#010101" d="M116.3,320.3c0,0,28.8-19,16.3-56.8c0,0-19.1,6.2-20.8,58.7"/>
	<path fill="#010101" d="M87.3,320.3c0,0-28.8-19-16.3-56.8c0,0,19.1,6.2,20.8,58.7"/>
</g>
<g id="dots">
	<pattern  id="SVGID_1_" xlink:href="#New_Pattern_Swatch_12" patternTransform="matrix(1 0 0 1 -15.2461 3.0859)">
	</pattern>
	<path fill="url(#SVGID_1_)" stroke="#010101" stroke-miterlimit="10" d="M71.9,165.9l1.3,40.5c0,0,0.7,15.5-7.4,40.9
		c0,0-24.3,74.6,30.6,88.8l4-24.8l1.2-54.3l1.9,53.9l3.9,22.8c0,0,43.8-10.5,34.7-68.8c0,0-5.3-29.1-10.2-41.5c0,0-2.4-46.8,1-54.1
		l-1.5-5.4c0,0-13.5-0.2-30,9.3C101.5,173.3,81.4,158,71.9,165.9z"/>
</g>
<g id="fur">
	<g>
		<g>
			<path fill="none" stroke="#010101" stroke-miterlimit="10" d="M107.1,91"/>
		</g>
	</g>
	<g>
		<g>
			<path fill="none" stroke="#010101" stroke-miterlimit="10" d="M129.9,154.5"/>
		</g>
	</g>
	<g>
		<g>
			<g>
				<g>
					<path fill="none" stroke="#010101" stroke-miterlimit="10" d="M126.3,126.1c0,0,0,1.3-0.2,2.5c-0.2,1.2-0.5,2.4-0.5,2.4
						s1.2-0.6,2.4-0.9c1.3-0.4,2.6-0.6,2.6-0.6"/>
				</g>
				<g>
					<path fill="none" stroke="#010101" stroke-miterlimit="10" d="M131.3,130.3c0,0-0.5,1.2-1.1,2.3c-0.6,1.1-1.3,2.1-1.3,2.1
						s0.3,0,0.8-0.1c0.5,0,1.2-0.1,1.8,0c0.7,0,1.3,0.1,1.8,0.1c0.5,0,0.8,0.1,0.8,0.1"/>
				</g>
				<g>
					<path fill="none" stroke="#010101" stroke-miterlimit="10" d="M134.6,135.6c0,0-0.8,1-1.7,1.9c-0.9,0.9-1.8,1.7-1.8,1.7
						s1.3,0.2,2.5,0.5c1.3,0.3,2.5,0.8,2.5,0.8"/>
				</g>
				<g>
					<path fill="none" stroke="#010101" stroke-miterlimit="10" d="M136.5,141.4c0,0-1,0.8-2,1.5c-1,0.7-2,1.4-2,1.4s1.2,0.4,2.4,1
						c1.2,0.5,2.4,1.1,2.4,1.1"/>
				</g>
				<g>
					<path fill="none" stroke="#010101" stroke-miterlimit="10" d="M137.4,147.2c0,0-1.1,0.6-2.2,1.2c-1.1,0.6-2.2,1.1-2.2,1.1
						c0,0,1.2,0.6,2.3,1.2c1.1,0.6,2.3,1.4,2.3,1.4"/>
				</g>
				<g>
					<path fill="none" stroke="#010101" stroke-miterlimit="10" d="M137.6,153.1c0,0-1.1,0.5-2.3,1c-1.1,0.5-2.3,0.9-2.3,0.9
						s1.1,0.7,2.2,1.5c1.1,0.7,2.1,1.5,2.1,1.5"/>
				</g>
				<g>
					<path fill="none" stroke="#010101" stroke-miterlimit="10" d="M137.2,158.8c0,0-1.2,0.4-2.4,0.8c-1.2,0.4-2.4,0.7-2.4,0.7
						s1,0.8,2,1.6c1,0.8,2,1.7,2,1.7"/>
				</g>
				<g>
					<polyline fill="none" stroke="#010101" stroke-miterlimit="10" points="136.5,164.1 132,166 136.4,168.8 					"/>
				</g>
				<g>
					<polyline fill="none" stroke="#010101" stroke-miterlimit="10" points="136.4,169.6 131.9,171.6 136.3,174.3 					"/>
				</g>
				<g>
					<polyline fill="none" stroke="#010101" stroke-miterlimit="10" points="136.3,175.2 131.8,177.2 136.4,179.8 					"/>
				</g>
				<g>
					<polyline fill="none" stroke="#010101" stroke-miterlimit="10" points="136.4,180.7 131.9,182.7 136.4,185.4 					"/>
				</g>
				<g>
					<polyline fill="none" stroke="#010101" stroke-miterlimit="10" points="136.4,186.3 132,188.3 136.5,190.9 					"/>
				</g>
				<g>
					<polyline fill="none" stroke="#010101" stroke-miterlimit="10" points="136.5,191.8 132,193.8 136.6,196.5 					"/>
				</g>
				<g>
					<polyline fill="none" stroke="#010101" stroke-miterlimit="10" points="136.6,197.4 132.1,199.4 136.6,202.1 					"/>
				</g>
				<g>
					<polyline fill="none" stroke="#010101" stroke-miterlimit="10" points="136.6,202.9 132.2,205 136.7,207.6 					"/>
				</g>
				<g>
					<polyline fill="none" stroke="#010101" stroke-miterlimit="10" points="136.7,208.5 132.2,210.5 136.8,213.2 					"/>
				</g>
				<g>
					<polyline fill="none" stroke="#010101" stroke-miterlimit="10" points="136.8,214 132.3,216.1 136.8,218.7 					"/>
				</g>
				<g>
					<polyline fill="none" stroke="#010101" stroke-miterlimit="10" points="136.8,219.6 132.4,221.6 136.9,224.3 					"/>
				</g>
				<g>
					<path fill="none" stroke="#010101" stroke-miterlimit="10" d="M136.9,224.8c0,0-0.3,0.1-0.7,0.2c-0.2,0.1-0.4,0.2-0.6,0.4
						c-0.2,0.2-0.5,0.4-0.7,0.6c-0.9,0.8-1.9,1.5-1.9,1.5s1.3,0.3,2.6,0.7c1.3,0.3,2.5,0.6,2.5,0.6"/>
				</g>
				<g>
					<polyline fill="none" stroke="#010101" stroke-miterlimit="10" points="138.4,229.7 134.6,233 139.7,234.2 					"/>
				</g>
				<g>
					<polyline fill="none" stroke="#010101" stroke-miterlimit="10" points="140,235.1 136.2,238.3 141.3,239.6 					"/>
				</g>
				<g>
					<path fill="none" stroke="#010101" stroke-miterlimit="10" d="M141.5,240.5l-3.8,3.1c0,0,1.3,0.4,2.5,0.7
						c1.3,0.4,2.5,0.7,2.5,0.7"/>
				</g>
				<g>
					<path fill="none" stroke="#010101" stroke-miterlimit="10" d="M143,245.9l-3.9,3c0,0,1.2,0.4,2.5,0.8c1.2,0.4,2.5,0.8,2.5,0.8"
						/>
				</g>
				<g>
					<path fill="none" stroke="#010101" stroke-miterlimit="10" d="M144.3,251.4l-4,2.9c0,0,1.2,0.4,2.5,0.8
						c1.2,0.4,2.5,0.9,2.5,0.9"/>
				</g>
				<g>
					<path fill="none" stroke="#010101" stroke-miterlimit="10" d="M145.4,256.9c0,0-1,0.7-2,1.4c-1,0.7-2,1.4-2,1.4
						s1.2,0.5,2.4,0.9c1.2,0.5,2.4,1,2.4,1"/>
				</g>
				<g>
					<path fill="none" stroke="#010101" stroke-miterlimit="10" d="M146.4,262.4c0,0-1,0.7-2.1,1.3c-1,0.7-2.1,1.3-2.1,1.3
						s1.2,0.5,2.4,1c1.2,0.5,2.4,1.1,2.4,1.1"/>
				</g>
				<g>
					<path fill="none" stroke="#010101" stroke-miterlimit="10" d="M147.2,268.1c0,0-1.1,0.6-2.1,1.3c-1.1,0.6-2.1,1.2-2.1,1.2
						s1.2,0.6,2.4,1.1c1.2,0.6,2.4,1.2,2.4,1.2"/>
				</g>
				<g>
					<path fill="none" stroke="#010101" stroke-miterlimit="10" d="M147.7,273.7c0,0-1.1,0.6-2.2,1.2c-1.1,0.6-2.2,1.1-2.2,1.1
						c0,0,1.2,0.6,2.3,1.2c1.2,0.6,2.3,1.3,2.3,1.3"/>
				</g>
				<g>
					<path fill="none" stroke="#010101" stroke-miterlimit="10" d="M148,279.4c0,0-1.1,0.5-2.2,1c-1.1,0.5-2.2,1-2.2,1
						s1.1,0.7,2.2,1.3c1.1,0.7,2.2,1.4,2.2,1.4"/>
				</g>
				<g>
					<path fill="none" stroke="#010101" stroke-miterlimit="10" d="M147.9,285.1c0,0-1.2,0.5-2.3,0.9c-1.2,0.4-2.3,0.9-2.3,0.9
						s1.1,0.7,2.2,1.5c1.1,0.8,2.1,1.5,2.1,1.5"/>
				</g>
				<g>
					<path fill="none" stroke="#010101" stroke-miterlimit="10" d="M147.5,290.8c0,0-1.2,0.4-2.4,0.8c-1.2,0.4-2.4,0.7-2.4,0.7
						c0,0,1,0.8,2.1,1.6c1,0.8,2,1.7,2,1.7"/>
				</g>
				<g>
					<path fill="none" stroke="#010101" stroke-miterlimit="10" d="M146.7,296.5c0,0-1.2,0.3-2.4,0.6c-1.2,0.3-2.4,0.5-2.4,0.5
						s1,0.9,1.9,1.8c0.9,0.9,1.8,1.9,1.8,1.9"/>
				</g>
				<g>
					<path fill="none" stroke="#010101" stroke-miterlimit="10" d="M145.4,302.2c0,0-1.2,0.2-2.5,0.4c-1.2,0.2-2.5,0.3-2.5,0.3
						c0,0,0.9,1,1.7,2c0.8,1,1.7,2,1.7,2"/>
				</g>
				<g>
					<path fill="none" stroke="#010101" stroke-miterlimit="10" d="M143.6,307.7c0,0-1.2,0.1-2.5,0.1c-1.2,0-2.5,0-2.5,0
						s0.8,1,1.5,2.1c0.7,1.1,1.4,2.2,1.4,2.2"/>
				</g>
				<g>
					<path fill="none" stroke="#010101" stroke-miterlimit="10" d="M141.2,313c0,0-0.3,0-0.8,0c-0.5,0-1.1-0.1-1.7-0.1
						c-1.3-0.1-2.5-0.3-2.5-0.3s0.6,1.1,1.3,2.3c0.6,1.2,1.2,2.4,1.2,2.4"/>
				</g>
				<g>
					<path fill="none" stroke="#010101" stroke-miterlimit="10" d="M138.1,318.1c0,0-1.3-0.2-2.5-0.5c-1.2-0.3-2.4-0.6-2.4-0.6
						c0,0,0.5,1.2,1,2.4c0.2,0.6,0.5,1.3,0.6,1.7c0.2,0.5,0.3,0.8,0.3,0.8"/>
				</g>
				<g>
					<path fill="none" stroke="#010101" stroke-miterlimit="10" d="M134.5,322.7c0,0-1.2-0.4-2.4-0.8c-1.2-0.4-2.3-0.8-2.3-0.8
						s0.4,1.2,0.7,2.6c0.2,0.7,0.3,1.3,0.4,1.8c0.1,0.5,0.1,0.8,0.1,0.8"/>
				</g>
				<g>
					<path fill="none" stroke="#010101" stroke-miterlimit="10" d="M130.3,326.8c0,0-1.1-0.5-2.2-1c-1.1-0.5-2.2-1.1-2.2-1.1
						s0.1,0.3,0.1,0.8c0.1,0.5,0.2,1.1,0.2,1.8c0.1,1.3,0.2,2.6,0.2,2.6"/>
				</g>
				<g>
					<path fill="none" stroke="#010101" stroke-miterlimit="10" d="M125.6,330.4c0,0-1.1-0.6-2.1-1.3c-1-0.7-2-1.3-2-1.3
						s0,0.3,0,0.8c0,0.5,0,1.1,0,1.8c0,1.3-0.1,2.6-0.1,2.6"/>
				</g>
				<g>
					<path fill="none" stroke="#010101" stroke-miterlimit="10" d="M120.6,333.4c0,0-1-0.7-1.9-1.5c-0.9-0.7-1.9-1.6-1.9-1.6
						s-0.1,1.3-0.3,2.6c-0.1,1.3-0.3,2.6-0.3,2.6"/>
				</g>
				<g>
					<path fill="none" stroke="#010101" stroke-miterlimit="10" d="M115.4,335.9c0,0-0.9-0.8-1.8-1.7c-0.9-0.9-1.7-1.8-1.7-1.8
						s-0.2,1.3-0.5,2.5c-0.3,1.3-0.6,2.6-0.6,2.6"/>
				</g>
				<g>
					<polyline fill="none" stroke="#010101" stroke-miterlimit="10" points="103.2,333.5 106.8,330 101.6,328.5 					"/>
				</g>
				<g>
					<polyline fill="none" stroke="#010101" stroke-miterlimit="10" points="101.2,327.5 104.8,324 99.6,322.5 					"/>
				</g>
				<g>
					<polyline fill="none" stroke="#010101" stroke-miterlimit="10" points="99.3,321.6 102.9,318 97.7,316.5 					"/>
				</g>
			</g>
		</g>
	</g>
	<g>
		<g>
			<path fill="none" stroke="#010101" stroke-miterlimit="10" d="M100,156.8"/>
		</g>
	</g>
	<g>
		<g>
			<g>
				<g>
					<polyline fill="none" stroke="#010101" stroke-miterlimit="10" points="103.8,315.2 99,316.4 103,319.7 					"/>
				</g>
				<g>
					<polyline fill="none" stroke="#010101" stroke-miterlimit="10" points="102.9,320.5 98.1,321.7 102.1,325 					"/>
				</g>
				<g>
					<polyline fill="none" stroke="#010101" stroke-miterlimit="10" points="101.9,325.8 97.2,327 101.2,330.3 					"/>
				</g>
				<g>
					<polyline fill="none" stroke="#010101" stroke-miterlimit="10" points="101,331.1 96.3,332.3 100.3,335.6 					"/>
				</g>
				<g>
					<path fill="none" stroke="#010101" stroke-miterlimit="10" d="M92.5,340.2c0,0-0.1-1.2-0.2-2.5c-0.1-1.2-0.2-2.4-0.2-2.4
						s-1,0.9-2,1.7c-1,0.8-2.1,1.5-2.1,1.5"/>
				</g>
				<g>
					<path fill="none" stroke="#010101" stroke-miterlimit="10" d="M87.1,338.2c0,0,0-1.2,0-2.5c0-1.2,0-2.4,0-2.4s-1.1,0.8-2.2,1.4
						c-1.1,0.7-2.3,1.3-2.3,1.3"/>
				</g>
				<g>
					<path fill="none" stroke="#010101" stroke-miterlimit="10" d="M81.9,335.6c0,0,0.1-1.2,0.2-2.5c0.1-1.2,0.3-2.4,0.3-2.4
						s-0.3,0.2-0.7,0.4c-0.4,0.2-1,0.5-1.6,0.8c-1.2,0.6-2.4,1.1-2.4,1.1"/>
				</g>
				<g>
					<path fill="none" stroke="#010101" stroke-miterlimit="10" d="M76.9,332.4c0,0,0.2-1.2,0.5-2.4c0.1-0.6,0.3-1.2,0.4-1.6
						c0.1-0.5,0.2-0.8,0.2-0.8s-1.2,0.5-2.4,0.9c-1.2,0.4-2.5,0.8-2.5,0.8"/>
				</g>
				<g>
					<path fill="none" stroke="#010101" stroke-miterlimit="10" d="M72.3,328.7c0,0,0.3-1.2,0.8-2.3c0.4-1.2,0.9-2.3,0.9-2.3
						s-1.2,0.3-2.5,0.6c-1.3,0.3-2.6,0.5-2.6,0.5"/>
				</g>
				<g>
					<path fill="none" stroke="#010101" stroke-miterlimit="10" d="M68.3,324.5c0,0,0.5-1.1,1.1-2.2c0.6-1.1,1.2-2.2,1.2-2.2
						s-1.3,0.2-2.6,0.3c-0.7,0.1-1.3,0.1-1.8,0.1c-0.5,0-0.8,0-0.8,0"/>
				</g>
				<g>
					<path fill="none" stroke="#010101" stroke-miterlimit="10" d="M64.8,319.7c0,0,0.7-1.1,1.4-2.1c0.7-1,1.4-2,1.4-2s-1.3,0-2.6,0
						c-1.3-0.1-2.6-0.2-2.6-0.2"/>
				</g>
				<g>
					<path fill="none" stroke="#010101" stroke-miterlimit="10" d="M61.9,314.6c0,0,0.8-1,1.6-1.9c0.8-0.9,1.7-1.8,1.7-1.8
						s-1.3-0.1-2.6-0.3c-1.3-0.2-2.6-0.5-2.6-0.5"/>
				</g>
				<g>
					<path fill="none" stroke="#010101" stroke-miterlimit="10" d="M59.7,309.2c0,0,0.9-0.9,1.8-1.7c0.9-0.8,1.8-1.6,1.8-1.6
						s-1.3-0.3-2.5-0.6c-1.3-0.3-2.5-0.7-2.5-0.7"/>
				</g>
				<g>
					<path fill="none" stroke="#010101" stroke-miterlimit="10" d="M58,303.6c0,0,1-0.8,1.9-1.5c1-0.7,2-1.5,2-1.5s-1.2-0.4-2.5-0.8
						c-1.3-0.4-2.5-0.9-2.5-0.9"/>
				</g>
				<g>
					<path fill="none" stroke="#010101" stroke-miterlimit="10" d="M56.8,297.9c0,0,1-0.7,2.1-1.4c1.1-0.6,2.1-1.3,2.1-1.3
						s-1.2-0.5-2.4-1c-1.2-0.5-2.4-1.1-2.4-1.1"/>
				</g>
				<g>
					<path fill="none" stroke="#010101" stroke-miterlimit="10" d="M56.1,292.2c0,0,1.1-0.6,2.2-1.2c1.1-0.6,2.2-1.1,2.2-1.1
						s-1.2-0.6-2.3-1.2c-1.2-0.6-2.3-1.3-2.3-1.3"/>
				</g>
				<g>
					<path fill="none" stroke="#010101" stroke-miterlimit="10" d="M55.8,286.5c0,0,1.1-0.5,2.2-1.1c1.1-0.5,2.2-1,2.2-1
						s-1.1-0.7-2.2-1.3c-1.1-0.7-2.2-1.4-2.2-1.4"/>
				</g>
				<g>
					<path fill="none" stroke="#010101" stroke-miterlimit="10" d="M55.9,280.8c0,0,1.1-0.5,2.3-0.9c1.1-0.4,2.3-0.9,2.3-0.9
						s-1.1-0.7-2.2-1.5c-1.1-0.8-2.2-1.5-2.2-1.5"/>
				</g>
				<g>
					<path fill="none" stroke="#010101" stroke-miterlimit="10" d="M56.2,275.1c0,0,1.2-0.4,2.3-0.8c1.2-0.4,2.3-0.8,2.3-0.8
						s-1-0.8-2.1-1.6c-1-0.8-2.1-1.6-2.1-1.6"/>
				</g>
				<g>
					<path fill="none" stroke="#010101" stroke-miterlimit="10" d="M56.8,269.4c0,0,1.2-0.4,2.4-0.7c1.2-0.3,2.4-0.7,2.4-0.7
						s-1-0.8-2-1.6c-1-0.8-2-1.7-2-1.7"/>
				</g>
				<g>
					<path fill="none" stroke="#010101" stroke-miterlimit="10" d="M57.6,263.8c0,0,1.2-0.3,2.4-0.6c1.2-0.3,2.4-0.6,2.4-0.6
						s-1-0.9-2-1.7c-1-0.9-2-1.7-2-1.7"/>
				</g>
				<g>
					<path fill="none" stroke="#010101" stroke-miterlimit="10" d="M58.6,258.3c0,0,1.2-0.3,2.4-0.5c1.2-0.3,2.4-0.5,2.4-0.5
						s-1-0.9-1.9-1.8c-1-0.9-1.9-1.8-1.9-1.8"/>
				</g>
				<g>
					<path fill="none" stroke="#010101" stroke-miterlimit="10" d="M59.8,252.7c0,0,1.2-0.2,2.4-0.5c1.2-0.2,2.4-0.4,2.4-0.4
						s-0.9-0.9-1.9-1.8c-0.9-0.9-1.9-1.9-1.9-1.9"/>
				</g>
				<g>
					<path fill="none" stroke="#010101" stroke-miterlimit="10" d="M61.2,247.3l4.9-0.8c0,0-0.9-0.9-1.8-1.9
						c-0.9-0.9-1.8-1.9-1.8-1.9"/>
				</g>
				<g>
					<polyline fill="none" stroke="#010101" stroke-miterlimit="10" points="62.7,241.8 67.5,241.2 64,237.3 					"/>
				</g>
				<g>
					<path fill="none" stroke="#010101" stroke-miterlimit="10" d="M64.2,236.5l4.9-0.6c0,0-0.9-1-1.8-1.9c-0.9-1-1.8-1.9-1.8-1.9"
						/>
				</g>
				<g>
					<path fill="none" stroke="#010101" stroke-miterlimit="10" d="M65.8,231.2c0,0,1.2-0.2,2.4-0.3c1.2-0.2,2.5-0.4,2.5-0.4
						s-0.9-0.9-1.8-1.9c-0.5-0.5-0.9-0.9-1.3-1.2c-0.4-0.3-0.6-0.5-0.6-0.5"/>
				</g>
				<g>
					<path fill="none" stroke="#010101" stroke-miterlimit="10" d="M67.2,226c0,0,1.2-0.2,2.4-0.5c1.2-0.3,2.4-0.7,2.4-0.7
						s-1-0.9-2.1-1.6c-0.5-0.4-1-0.8-1.4-1.1c-0.4-0.3-0.7-0.5-0.7-0.5"/>
				</g>
				<g>
					<path fill="none" stroke="#010101" stroke-miterlimit="10" d="M67.9,220.8c0,0,1.2-0.4,2.3-0.8c1.2-0.4,2.3-0.8,2.3-0.8
						s-1.1-0.7-2.2-1.5c-1.1-0.7-2.2-1.4-2.2-1.4"/>
				</g>
				<g>
					<path fill="none" stroke="#010101" stroke-miterlimit="10" d="M68.3,215.4c0,0,1.1-0.5,2.3-0.9c1.1-0.5,2.3-0.9,2.3-0.9
						s-1.1-0.7-2.2-1.4c-1.1-0.7-2.2-1.4-2.2-1.4"/>
				</g>
				<g>
					<path fill="none" stroke="#010101" stroke-miterlimit="10" d="M68.4,209.9l4.5-2c0,0-1.1-0.7-2.2-1.3c-1.1-0.7-2.3-1.3-2.3-1.3
						"/>
				</g>
				<g>
					<polyline fill="none" stroke="#010101" stroke-miterlimit="10" points="68.4,204.4 72.9,202.3 68.4,199.7 					"/>
				</g>
				<g>
					<polyline fill="none" stroke="#010101" stroke-miterlimit="10" points="68.4,198.9 72.8,196.7 68.2,194.2 					"/>
				</g>
				<g>
					<polyline fill="none" stroke="#010101" stroke-miterlimit="10" points="68.2,193.3 72.6,191.2 68,188.7 					"/>
				</g>
				<g>
					<polyline fill="none" stroke="#010101" stroke-miterlimit="10" points="67.9,187.8 72.3,185.6 67.7,183.2 					"/>
				</g>
				<g>
					<path fill="none" stroke="#010101" stroke-miterlimit="10" d="M67.6,182.3L72,180c0,0-1.2-0.6-2.3-1.2
						c-0.6-0.3-1.2-0.6-1.6-0.8c-0.2-0.1-0.4-0.1-0.5-0.1c-0.1,0-0.2,0-0.2,0"/>
				</g>
				<g>
					<path fill="none" stroke="#010101" stroke-miterlimit="10" d="M67.2,177.1c0,0,1-0.7,2-1.5c1-0.7,2-1.4,2-1.4s-1.2-0.4-2.5-0.9
						c-1.2-0.5-2.5-0.9-2.5-0.9"/>
				</g>
				<g>
					<path fill="none" stroke="#010101" stroke-miterlimit="10" d="M66.1,171.5c0,0,1-0.7,2.1-1.4c1-0.7,2.1-1.3,2.1-1.3
						s-1.2-0.5-2.4-1c-1.2-0.5-2.4-1-2.4-1"/>
				</g>
				<g>
					<path fill="none" stroke="#010101" stroke-miterlimit="10" d="M65.3,165.9c0,0,1.1-0.6,2.1-1.3c1.1-0.6,2.1-1.2,2.1-1.2
						s-1.2-0.6-2.4-1.1c-1.2-0.6-2.4-1.2-2.4-1.2"/>
				</g>
				<g>
					<path fill="none" stroke="#010101" stroke-miterlimit="10" d="M64.8,160.3c0,0,1.1-0.6,2.2-1.2c1.1-0.6,2.2-1.1,2.2-1.1
						s-1.2-0.6-2.3-1.2c-1.2-0.6-2.3-1.3-2.3-1.3"/>
				</g>
				<g>
					<path fill="none" stroke="#010101" stroke-miterlimit="10" d="M64.6,154.5c0,0,1.1-0.5,2.2-1c1.1-0.5,2.3-1,2.3-1
						s-1.1-0.7-2.2-1.4c-1.1-0.7-2.2-1.5-2.2-1.5"/>
				</g>
				<g>
					<path fill="none" stroke="#010101" stroke-miterlimit="10" d="M64.7,148.8c0,0,1.2-0.5,2.3-0.9c1.2-0.4,2.3-0.8,2.3-0.8
						s-1-0.7-2.1-1.6c-0.5-0.4-1-0.8-1.4-1.1c-0.4-0.3-0.6-0.5-0.6-0.5"/>
				</g>
				<g>
					<path fill="none" stroke="#010101" stroke-miterlimit="10" d="M65.4,142.9c0,0,1.2-0.3,2.4-0.6c1.2-0.3,2.4-0.5,2.4-0.5
						c0,0-1-0.9-1.9-1.8c-0.9-0.9-1.7-2-1.7-2"/>
				</g>
				<g>
					<path fill="none" stroke="#010101" stroke-miterlimit="10" d="M66.9,137.1c0,0,1.3-0.1,2.5-0.2c1.2-0.1,2.5,0,2.5,0
						s-0.8-1-1.4-2.2c-0.6-1.1-1.1-2.4-1.1-2.4"/>
				</g>
				<g>
					<path fill="none" stroke="#010101" stroke-miterlimit="10" d="M69.9,131.5c0,0,1.3,0.2,2.4,0.6c0.6,0.2,1.1,0.4,1.6,0.6
						c0.4,0.2,0.7,0.3,0.7,0.3s-0.1-0.3-0.2-0.8c-0.1-0.5-0.3-1.1-0.3-1.8c-0.1-1.3,0-2.7,0-2.7"/>
				</g>
				<g>
					<path fill="none" stroke="#010101" stroke-miterlimit="10" d="M75,127.2c0,0,1.1,0.7,2,1.6c0.4,0.4,0.9,0.9,1.2,1.2
						c0.3,0.4,0.5,0.6,0.5,0.6s0-0.3,0.1-0.8c0.1-0.5,0.3-1.1,0.5-1.7c0.4-1.2,1.1-2.4,1.1-2.4"/>
				</g>
			</g>
		</g>
	</g>
</g>
<g id="leaf">
	<g>
		<path fill="#A8CF38" stroke="#010101" stroke-width="0.5" stroke-linecap="round" stroke-linejoin="round" d="M96.3,79.1
			c0,0-8.6-15-7.4-22.4l2.1,0.7c0,0-1.8-2.2,0.2-11.3l1.7,1.5c0,0-1.5-4.5,1.4-10.4l1.7,1.5c0,0,0.8-4.1,2.5-8.3l1.9,1.2
			c0,0-0.4-5,1.3-8.5l1.7,1.5c0,0,0.7-6.3,4.1-7.5l0.5,1.5c0,0,2.3-3.9,5.8-6l1.6,1.7c0,0-0.1-3.9,4.3-5.5l0.9,1.4
			c0,0,0.5-5.2,4.6-6l1.2,2.5c0,0,7.1-6.6,8.7-6.8l2.6,1.3c0.3,1.2-0.1,11-0.1,11l2.7-0.6c1.8,3.8-2,7.3-2,7.3l1.7-0.1
			c1.5,4.5-1.7,6.8-1.7,6.8L141,26c0.5,4-1.2,8.3-1.2,8.3l1.5-0.5c1.2,3.4-3.4,7.8-3.4,7.8l2.2,0.5c-1.8,3.6-6,6.3-6,6.3l2.1,0.7
			c-2.3,3.9-5.1,7-5.1,7l2.2,0.5c-2.9,5.9-7.4,7.5-7.4,7.5l2.2,0.5c-6,7.2-8.8,7.1-8.8,7.1l1.9,1.2c-5.1,5.4-22.3,7.7-22.3,7.7
			L96.3,79.1z"/>
		<path fill="#A8CF38" stroke="#010101" stroke-width="0.5" stroke-linecap="round" stroke-linejoin="round" d="M97.8,79.8
			c0,0-8.6-15-7.4-22.4l2.1,0.7c0,0-1.8-2.2,0.2-11.3l1.7,1.5c0,0-1.5-4.5,1.4-10.4l1.7,1.5c0,0,0.8-4.1,2.5-8.3l1.9,1.2
			c0,0-0.4-5,1.3-8.5l1.7,1.5c0,0,0.7-6.3,4.1-7.5l0.5,1.5c0,0,2.3-3.9,5.8-6l1.6,1.7c0,0-0.1-3.9,4.3-5.5l0.9,1.4
			c0,0,0.5-5.2,4.6-6l1.2,2.5c0,0,7.1-6.6,8.7-6.8l2.6,1.3c0.3,1.2-0.1,11-0.1,11l2.7-0.6c1.8,3.8-2,7.3-2,7.3l1.7-0.1
			c1.5,4.5-1.7,6.8-1.7,6.8l2.4,0.2c0.5,4-1.2,8.3-1.2,8.3l1.5-0.5c1.2,3.4-3.4,7.8-3.4,7.8l2.2,0.5c-1.8,3.6-6,6.3-6,6.3l2.1,0.7
			c-2.3,3.9-5.1,7-5.1,7l2.2,0.5c-2.9,5.9-7.4,7.5-7.4,7.5l2.2,0.5c-6,7.2-8.8,7.1-8.8,7.1l1.9,1.2c-5.1,5.4-22.3,7.7-22.3,7.7
			L97.8,79.8z"/>
		
			<line fill="none" stroke="#010101" stroke-width="0.5" stroke-linecap="round" stroke-linejoin="round" x1="137.3" y1="2" x2="98.7" y2="80.3"/>
		<g>
			
				<line fill="none" stroke="#010101" stroke-width="0.5" stroke-linecap="round" stroke-linejoin="round" x1="128.1" y1="6.3" x2="129.5" y2="12.8"/>
			
				<line fill="none" stroke="#010101" stroke-width="0.5" stroke-linecap="round" stroke-linejoin="round" x1="122.3" y1="11.1" x2="126" y2="18.7"/>
			
				<line fill="none" stroke="#010101" stroke-width="0.5" stroke-linecap="round" stroke-linejoin="round" x1="117.3" y1="14.8" x2="122.4" y2="24.6"/>
			
				<line fill="none" stroke="#010101" stroke-width="0.5" stroke-linecap="round" stroke-linejoin="round" x1="109.4" y1="19" x2="117.7" y2="30.7"/>
			
				<line fill="none" stroke="#010101" stroke-width="0.5" stroke-linecap="round" stroke-linejoin="round" x1="105.4" y1="24.9" x2="115.7" y2="37.4"/>
			
				<line fill="none" stroke="#010101" stroke-width="0.5" stroke-linecap="round" stroke-linejoin="round" x1="101.5" y1="32.2" x2="111.9" y2="43.6"/>
			
				<line fill="none" stroke="#010101" stroke-width="0.5" stroke-linecap="round" stroke-linejoin="round" x1="97.5" y1="38.7" x2="106.5" y2="50.8"/>
			
				<line fill="none" stroke="#010101" stroke-width="0.5" stroke-linecap="round" stroke-linejoin="round" x1="94.3" y1="47.9" x2="104.8" y2="61.2"/>
			
				<line fill="none" stroke="#010101" stroke-width="0.5" stroke-linecap="round" stroke-linejoin="round" x1="92.4" y1="57.7" x2="100.9" y2="71.8"/>
		</g>
		<g>
			
				<line fill="none" stroke="#010101" stroke-width="0.5" stroke-linecap="round" stroke-linejoin="round" x1="140.4" y1="12.4" x2="134.4" y2="15.2"/>
			
				<line fill="none" stroke="#010101" stroke-width="0.5" stroke-linecap="round" stroke-linejoin="round" x1="140.2" y1="19.9" x2="131.8" y2="21.6"/>
			
				<line fill="none" stroke="#010101" stroke-width="0.5" stroke-linecap="round" stroke-linejoin="round" x1="140.3" y1="26.2" x2="129.5" y2="28.1"/>
			
				<line fill="none" stroke="#010101" stroke-width="0.5" stroke-linecap="round" stroke-linejoin="round" x1="141.8" y1="35" x2="127.4" y2="35.5"/>
			
				<line fill="none" stroke="#010101" stroke-width="0.5" stroke-linecap="round" stroke-linejoin="round" x1="139.5" y1="41.7" x2="123.3" y2="41.1"/>
			
				<line fill="none" stroke="#010101" stroke-width="0.5" stroke-linecap="round" stroke-linejoin="round" x1="136.1" y1="49.3" x2="120.7" y2="47.9"/>
			
				<line fill="none" stroke="#010101" stroke-width="0.5" stroke-linecap="round" stroke-linejoin="round" x1="133.3" y1="56.4" x2="118.3" y2="56.6"/>
			
				<line fill="none" stroke="#010101" stroke-width="0.5" stroke-linecap="round" stroke-linejoin="round" x1="128" y1="64.6" x2="111.1" y2="64.2"/>
			
				<line fill="none" stroke="#010101" stroke-width="0.5" stroke-linecap="round" stroke-linejoin="round" x1="121.4" y1="72" x2="105" y2="73.8"/>
		</g>
		<path fill="#FFFFFF" stroke="#010101" stroke-width="0.5" stroke-linecap="round" stroke-linejoin="round" d="M143.8,27.3
			c0,0-5.7,1.5-4.2,4.5c0,0-7,1-3.7,6.5c0,0,1.7,3.7,4.7,2.3c0,0-1.9,3,1,2.5c2.9-0.6,2.2-0.7,2.2-0.7"/>
		<path fill="#FFFFFF" stroke="#010101" stroke-width="0.5" stroke-miterlimit="10" d="M106.5,34.9c-0.2,1.3-1,2.4-1.5,3.6
			c1.5,1.2,3.4-1.3,4.1-2.5c-0.8,2-0.2,6.4,2.5,3.3c-0.5,2,0.6,2.3,2.2,3.1c-0.5,1.7-2.2,2.2-3.2,3.5c-0.6,0.8-0.9,1.9-1.4,2.7
			c-1-0.7-1.2-2.1-2.1-2.8c-0.6,0.5-2.5,3-3.3,2.9c-0.9-0.1-1.8-2.3-2.9-2.7c0.4-1,1-2,1.4-3.1c-0.2-0.2-0.4-0.2-0.5-0.3
			c0.3-1.3,2.7-8,4.2-6.4"/>
		<path fill="#FFFFFF" stroke="#010101" stroke-width="0.5" stroke-miterlimit="10" d="M126.1,19.8c1.7-1.5,1.8-3.4,4.2-4.6
			c0.2,0.6-0.3,2.8,0.2,3.1c1.3,1.1,3.5-1.5,4.5-2.3c-0.2,0.5-1.2,2.3-0.9,2.9c0.7,1.4,2.3,0.2,3.4,0.3c-0.7,2-2.4,3.4-3.4,5.4
			c-0.6,1.3-0.8,2.4-1.3,3.7c-2.3-0.8-3.8-2.5-4.3-4.8c-0.7,1.4-3.2,6.1-3.5,2.3c-0.2-2.3,1.6-4.6,1.9-6.8"/>
		<path fill="#FFFFFF" stroke="#010101" stroke-width="0.5" stroke-miterlimit="10" d="M123.3,52.2c-0.1,1.4-2,3-2,4.4
			c0,1.9,2.3,3.2,4,3.3c-2,0.6-4,1.8-4.7,3.9c0.9,0.9,2.1,1.3,3.2,1.9c-0.9,0.4-5.4,2.7-2.9,3.7c-0.7,1.7-5.4-0.8-6.6-1.8
			c-2.5-2.2-1.6-4.8-0.5-7.5c1.6-3.8,5-7.9,9.7-7"/>
	</g>
</g>
<g id="water">
	<g>
		<path fill="#55C2E2" stroke="#070707" stroke-width="0.5" stroke-miterlimit="10" d="M29.6,54.8c0,0-36.1,41.7-4.2,51.2
			c0,0,26.1-0.6,14.6-30.9C40,75.1,30.1,63.5,29.6,54.8z"/>
		<path fill="none" stroke="#3A97AD" stroke-miterlimit="10" d="M27.5,102.6C32.7,105,41,92.3,40.3,87.7"/>
		
			<ellipse transform="matrix(0.7903 -0.6127 0.6127 0.7903 -54.2514 33.835)" opacity="0.8" fill="#FFFFFF" cx="22.3" cy="96.2" rx="4.8" ry="5.8"/>
		<path opacity="0.8" fill="#FFFFFF" d="M19,73.1c0,0,4.7-11.6,10.3-14.6"/>
	</g>
	<g>
		<path fill="#55C2E2" stroke="#070707" stroke-width="0.5" stroke-miterlimit="10" d="M196.7,273.7c0,0-36.1,41.7-4.2,51.2
			c0,0,26.1-0.6,14.6-30.9C207.1,294,197.2,282.4,196.7,273.7z"/>
		<path fill="none" stroke="#3A97AD" stroke-miterlimit="10" d="M194.6,321.5c5.2,2.4,13.5-10.3,12.9-14.9"/>
		
			<ellipse transform="matrix(0.7903 -0.6127 0.6127 0.7903 -153.3281 182.1122)" opacity="0.8" fill="#FFFFFF" cx="189.4" cy="315.1" rx="4.8" ry="5.8"/>
		<path opacity="0.8" fill="#FFFFFF" d="M186.1,292c0,0,4.7-11.6,10.3-14.6"/>
	</g>
	<g>
		<path fill="#55C2E2" stroke="#070707" stroke-width="0.5" stroke-miterlimit="10" d="M23.5,291.2c0,0-21.7,25.1-2.5,30.8
			c0,0,15.7-0.4,8.8-18.6C29.8,303.4,23.8,296.4,23.5,291.2z"/>
		<path fill="none" stroke="#3A97AD" stroke-miterlimit="10" d="M22.2,320c3.1,1.4,8.1-6.2,7.7-9"/>
		
			<ellipse transform="matrix(0.7902 -0.6128 0.6128 0.7902 -191.4281 78.2931)" opacity="0.8" fill="#FFFFFF" cx="18.6" cy="318.8" rx="1.7" ry="2.1"/>
		<path opacity="0.8" fill="#FFFFFF" d="M17.1,302.2c0,0,2.8-7,6.2-8.8"/>
	</g>
	<g>
		<path fill="#55C2E2" stroke="#070707" stroke-width="0.5" stroke-miterlimit="10" d="M176.8,189.5c0,0-21.7,25.1-2.5,30.8
			c0,0,15.7-0.4,8.8-18.6C183,201.7,177.1,194.7,176.8,189.5z"/>
		<path fill="none" stroke="#3A97AD" stroke-miterlimit="10" d="M175.5,218.3c3.1,1.4,8.1-6.2,7.7-9"/>
		
			<ellipse transform="matrix(0.7904 -0.6126 0.6126 0.7904 -96.9542 150.8078)" opacity="0.8" fill="#FFFFFF" cx="171.9" cy="217.1" rx="1.7" ry="2.1"/>
		<path opacity="0.8" fill="#FFFFFF" d="M170.4,200.5c0,0,2.8-7,6.2-8.8"/>
	</g>
	<g>
		<path fill="#55C2E2" stroke="#070707" stroke-width="0.5" stroke-miterlimit="10" d="M159.9,147.7c0,0-13.5,15.7-1.6,19.2
			c0,0,9.8-0.2,5.5-11.6C163.8,155.3,160.1,150.9,159.9,147.7z"/>
		<path fill="none" stroke="#3A97AD" stroke-miterlimit="10" d="M159.1,165.6c1.9,0.9,5.1-3.9,4.8-5.6"/>
		
			<ellipse transform="matrix(0.7906 -0.6123 0.6123 0.7906 -67.1427 130.05)" opacity="0.8" fill="#FFFFFF" cx="156.6" cy="163.2" rx="0.9" ry="1"/>
		<path opacity="0.8" fill="#FFFFFF" d="M155.9,154.5c0,0,1.8-4.4,3.9-5.5"/>
	</g>
	<g>
		<path fill="#55C2E2" stroke="#070707" stroke-width="0.5" stroke-miterlimit="10" d="M35.7,154.3c0,0-13.5,15.7-1.6,19.2
			c0,0,9.8-0.2,5.5-11.6C39.6,161.9,35.8,157.6,35.7,154.3z"/>
		<path fill="none" stroke="#3A97AD" stroke-miterlimit="10" d="M34.8,172.3c1.9,0.9,5.1-3.9,4.8-5.6"/>
		
			<ellipse transform="matrix(0.7904 -0.6126 0.6126 0.7904 -97.262 55.4031)" opacity="0.8" fill="#FFFFFF" cx="32.3" cy="169.8" rx="0.9" ry="1"/>
		<path opacity="0.8" fill="#FFFFFF" d="M31.7,161.2c0,0,1.8-4.4,3.9-5.5"/>
	</g>
</g>
</svg>
