<?xml version="1.0" encoding="utf-8"?>
<!-- Generator: Adobe Illustrator 17.1.0, SVG Export Plug-In . SVG Version: 6.00 Build 0)  -->
<!DOCTYPE svg PUBLIC "-//W3C//DTD SVG 1.1//EN" "http://www.w3.org/Graphics/SVG/1.1/DTD/svg11.dtd">
<svg version="1.1" id="Layer_1" xmlns="http://www.w3.org/2000/svg" xmlns:xlink="http://www.w3.org/1999/xlink" x="0px" y="0px"
	 viewBox="0 0 100 100" enable-background="new 0 0 100 100" xml:space="preserve">
<pattern  y="100" width="4" height="4" patternUnits="userSpaceOnUse" id="New_Pattern_Swatch_12" viewBox="0 -4 4 4" overflow="visible">
	<g>
		<polygon fill="none" points="0,-4 4,-4 4,0 0,0 		"/>
		<path fill="#010101" d="M2.8-2.2c0,0.5-0.5,0.9-0.9,0.9S0.9-1.7,0.9-2.2c0.5-0.5,0.5-0.9,1.4-0.9C2.3-3.1,2.8-2.6,2.8-2.2z"/>
	</g>
</pattern>
<g id="legs">
	<path fill="#FFFFFF" stroke="#010101" stroke-miterlimit="10" d="M59.7,47.3c0,0,2.2-2.1,3.8-2c0,0-0.8,0.4-0.4,0.6
		c0.4,0.3,3.8,2,5.6,1.4c1.7-0.6,2.8-10.2-8.5-14.3c0,0,5.4,0.8,6.5,1.8c0,0,0.8-7.1-7.9-9.3c0,0-1,0.3-1.1,0.8c0,0-1.7-2.2-3.8-0.8
		c0,0,1.9-3.4,9.3-0.5c0,0,4.9,1.2,6.1,9.9c0,0,4.1,11.3,3.1,13.3c0,0-0.1,1.3-1.9,1.3c-1.8,0.1-10.3-0.3-10.3-0.3
		S60.2,47.2,59.7,47.3z"/>
	<path fill="#FFFFFF" stroke="#010101" stroke-miterlimit="10" d="M36.3,47.3c0,0-2.2-2.1-3.8-2c0,0,0.8,0.4,0.4,0.6s-3.8,2-5.6,1.4
		S24.5,37.1,35.8,33c0,0-5.4,0.8-6.5,1.8c0,0-0.8-7.1,7.9-9.3c0,0,1,0.3,1.1,0.8c0,0,1.7-2.2,3.8-0.8c0,0-1.9-3.4-9.2-0.5
		c0,0-4.9,1.2-6.1,9.9c0,0-4.1,11.3-3.1,13.3c0,0,0.1,1.3,1.9,1.3c1.8,0.1,10.3-0.3,10.3-0.3S35.7,47.2,36.3,47.3z"/>
	<path fill="#FFFFFF" stroke="#010101" stroke-miterlimit="10" d="M24.4,62.8c0,0-2.8,6.3-3.1,10.8c-0.2,4.4-0.1,8.4,0.9,8.7
		c0,0-0.9-4-0.4-5.3c0,0,0.4,0,0.3,1.1c0,0,0.6-1.2,0.1-2.5c0,0,0.3-7.5,3.8-11.8L24.4,62.8z"/>
	<path fill="#FFFFFF" stroke="#010101" stroke-miterlimit="10" d="M30.5,59.9c0,0-3.9,0.4-5.3,1.5c0,0-2.4,2.6,0.7,2.3
		s3.1-0.2,3.1-0.2S29.1,61,30.5,59.9z"/>
	<path fill="#FFFFFF" stroke="#010101" stroke-miterlimit="10" d="M29.3,81.7c0,0-1.3,1-1.6,1.8c-0.3,0.8-3.3,6.2-2.1,11.2
		c0,0-0.9-0.6-0.8-1.1c0,0,0,0.8,0.8,2.4c0.8,1.7,0.7,3,1.9,4c0,0-2-5.6-1.3-8.1s-0.1-4.2,2.9-9.2L29.3,81.7z"/>
	<path fill="#FFFFFF" stroke="#010101" stroke-miterlimit="10" d="M31.8,76c0,0-4.4,5.6-4.8,6.9c0,0,1.4,0.7,2.7,0.3l2.1-2.6
		L31.8,76z"/>
	<path fill="#FFFFFF" stroke="#010101" stroke-miterlimit="10" d="M71.6,62.8c0,0,2.8,6.3,3.1,10.8c0.2,4.4,0.1,8.4-0.9,8.7
		c0,0,0.9-4,0.4-5.3c0,0-0.4,0-0.3,1.1c0,0-0.6-1.2-0.1-2.5c0,0-0.3-7.5-3.8-11.8L71.6,62.8z"/>
	<path fill="#FFFFFF" stroke="#010101" stroke-miterlimit="10" d="M65.5,59.9c0,0,3.9,0.4,5.3,1.5c0,0,2.4,2.6-0.7,2.3
		S67,63.5,67,63.5S66.9,61,65.5,59.9z"/>
	<path fill="#FFFFFF" stroke="#010101" stroke-miterlimit="10" d="M66.7,81.7c0,0,1.3,1,1.6,1.8c0.3,0.8,3.3,6.2,2.1,11.2
		c0,0,0.9-0.6,0.8-1.1c0,0,0,0.8-0.8,2.4c-0.8,1.7-0.7,3-1.9,4c0,0,2-5.6,1.3-8.1s0.1-4.2-2.9-9.2L66.7,81.7z"/>
	<path fill="#FFFFFF" stroke="#010101" stroke-miterlimit="10" d="M64.1,76c0,0,4.4,5.6,4.8,6.9c0,0-1.4,0.7-2.7,0.3l-2.1-2.6
		L64.1,76z"/>
</g>
<g id="basebody">
	<path fill="#FFFFFF" stroke="#010101" stroke-miterlimit="10" d="M34.7,57.4c0,0-4.2-10.5,6.3-13.7c0,0,8.7,2.7,16.4,0
		c0,0,9.2,3.1,5.1,13.7C62.5,57.4,52.3,62.2,34.7,57.4z"/>
	<path fill="#FFFFFF" stroke="#000000" stroke-miterlimit="10" d="M48.1,56.5c0,0,5.8-4.9,8.5-4.9s9.7-0.2,9.9,4.9s2.3,16.5,0,21
		s-6,10.3-12.9,11.1c-6.9,0.9-5.5,0-5.5,0V56.5z"/>
	<path fill="#FFFFFF" stroke="#000000" stroke-miterlimit="10" d="M48.2,56.5c0,0-5.8-4.9-8.5-4.9c-2.8,0-9.7-0.2-9.9,4.9
		s-2.3,16.5,0,21s6,10.3,12.9,11.1c6.9,0.9,5.5,0,5.5,0"/>
	<path fill="#FFFFFF" stroke="#010101" stroke-miterlimit="10" d="M42,43.7c0,0,7-8.5,14.4,0C56.4,43.7,48.9,47.2,42,43.7z"/>
</g>
<g id="bodycolor">
	<path fill="#D0DD28" stroke="#010101" stroke-miterlimit="10" d="M34.6,57.4c0,0-4.2-10.5,6.3-13.7c0,0,8.7,2.7,16.4,0
		c0,0,9.2,3.1,5.1,13.7C62.3,57.4,52.2,62.2,34.6,57.4z"/>
	<path fill="#6CBE45" stroke="#010101" stroke-miterlimit="10" d="M48,56.5c0,0,5.8-4.9,8.5-4.9c2.8,0,9.7-0.2,9.9,4.9
		s2.3,16.5,0,21s-6,10.3-12.9,11.1c-6.9,0.9-5.5,0-5.5,0V56.5z"/>
	<path fill="#6CBE45" stroke="#010101" stroke-miterlimit="10" d="M48,56.5c0,0-5.8-4.9-8.5-4.9s-9.7-0.2-9.9,4.9
		c-0.2,5-2.3,16.5,0,21s6,10.3,12.9,11.1c6.9,0.9,5.5,0,5.5,0"/>
	<path fill="#6CBE45" stroke="#010101" stroke-miterlimit="10" d="M41.9,43.7c0,0,7-8.5,14.4,0C56.3,43.7,48.8,47.2,41.9,43.7z"/>
</g>
<g id="eyes">
	<path fill="#FF9900" stroke="#010101" stroke-width="0.5" stroke-miterlimit="10" d="M42.3,43.4c0,0,2.1-3.2,3.8-1.8
		c0,0-0.4,4.1-4,2.2L42.3,43.4z"/>
	<path fill="#FF9900" stroke="#010101" stroke-width="0.5" stroke-miterlimit="10" d="M56.2,43.4c0,0-2.1-3.2-3.8-1.8
		c0,0,0.4,4.1,4,2.2L56.2,43.4z"/>
</g>
<g id="antennae">
	<path fill="none" stroke="#010101" stroke-miterlimit="10" d="M40.7,27.7c0,0-0.3,12.9,4.6,13.3"/>
	<path fill="none" stroke="#010101" stroke-miterlimit="10" d="M57.8,27.7c0,0,0.3,12.9-4.6,13.3"/>
</g>
<g id="markings">
	<path fill="#010101" d="M38.1,83c0,0-7.2-15.3,0.9-17.3C39,65.7,46.1,68.1,38.1,83z"/>
	<path fill="#010101" d="M56.8,83c0,0-7.2-15.3,0.9-17.3C57.7,65.7,64.8,68.1,56.8,83z"/>
</g>
<g id="dots">
	<pattern  id="SVGID_1_" xlink:href="#New_Pattern_Swatch_12" patternTransform="matrix(0.2847 0 0 0.2847 -11687.541 4542.7808)">
	</pattern>
	<path fill="url(#SVGID_1_)" stroke="#010101" stroke-miterlimit="10" d="M48.1,56.5c0,0,5.8-4.9,8.5-4.9s9.7-0.2,9.9,4.9
		s2.3,16.5,0,21s-6,10.3-12.9,11.1c-6.9,0.9-5.5,0-5.5,0V56.5z"/>
	<pattern  id="SVGID_2_" xlink:href="#New_Pattern_Swatch_12" patternTransform="matrix(0.2847 0 0 0.2847 -11687.541 4542.7808)">
	</pattern>
	<path fill="url(#SVGID_2_)" stroke="#010101" stroke-miterlimit="10" d="M48.2,56.5c0,0-5.8-4.9-8.5-4.9c-2.8,0-9.7-0.2-9.9,4.9
		s-2.3,16.5,0,21s6,10.3,12.9,11.1c6.9,0.9,5.5,0,5.5,0V56.5z"/>
</g>
<g id="fur">
	<g>
		<g>
			<path fill="none" stroke="#0000FF" stroke-miterlimit="10" d="M50.4,25.9"/>
		</g>
	</g>
	<g>
		<g>
			<path fill="none" stroke="#0000FF" stroke-miterlimit="10" d="M120.8,92.4"/>
		</g>
	</g>
	<g>
		<g>
			<g>
				<g>
					<path fill="none" stroke="#0000FF" stroke-miterlimit="10" d="M47.6,55.5c0,0,0.3,0.1,0.6,0.3s0.6,0.3,0.6,0.3
						s-0.1-0.4-0.1-0.7c-0.1-0.4-0.1-0.7-0.1-0.7"/>
				</g>
				<g>
					<path fill="none" stroke="#0000FF" stroke-miterlimit="10" d="M48.8,54.5c0,0,0.3,0.2,0.6,0.3c0.3,0.2,0.6,0.3,0.6,0.3
						s0-0.4-0.1-0.7c0-0.4-0.1-0.7-0.1-0.7"/>
				</g>
				<g>
					<path fill="none" stroke="#0000FF" stroke-miterlimit="10" d="M50.1,53.6c0,0,0.3,0.2,0.6,0.4s0.6,0.4,0.6,0.4s0-0.4-0.1-0.7
						c0-0.4-0.1-0.7-0.1-0.7"/>
				</g>
				<g>
					<path fill="none" stroke="#0000FF" stroke-miterlimit="10" d="M51.4,52.6c0,0,0.3,0.2,0.6,0.4s0.6,0.4,0.6,0.4s0-0.4,0-0.7
						c0-0.4,0-0.7,0-0.7"/>
				</g>
				<g>
					<path fill="none" stroke="#0000FF" stroke-miterlimit="10" d="M52.8,51.8c0,0,0.3,0.2,0.6,0.4s0.5,0.4,0.5,0.4s0-0.4,0-0.7
						c0-0.4,0.1-0.7,0.1-0.7"/>
				</g>
				<g>
					<path fill="none" stroke="#0000FF" stroke-miterlimit="10" d="M54.2,51.1c0,0,0.3,0.2,0.5,0.5c0.3,0.2,0.5,0.5,0.5,0.5
						s0.1-0.4,0.1-0.7c0-0.2,0.1-0.4,0.1-0.5s0.1-0.2,0.1-0.2"/>
				</g>
				<g>
					<path fill="none" stroke="#0000FF" stroke-miterlimit="10" d="M55.8,50.5c0,0,0.2,0.3,0.4,0.6s0.3,0.6,0.3,0.6s0.1-0.3,0.3-0.7
						s0.4-0.7,0.4-0.7"/>
				</g>
				<g>
					<path fill="none" stroke="#0000FF" stroke-miterlimit="10" d="M57.6,50.3l0.6,1.3c0,0,0.2-0.3,0.4-0.6s0.4-0.6,0.4-0.6"/>
				</g>
				<g>
					<path fill="none" stroke="#0000FF" stroke-miterlimit="10" d="M59.2,50.4c0,0,0.1,0.3,0.3,0.7c0.1,0.3,0.2,0.7,0.2,0.7
						s0.2-0.3,0.4-0.6s0.5-0.6,0.5-0.6"/>
				</g>
				<g>
					<path fill="none" stroke="#0000FF" stroke-miterlimit="10" d="M60.8,50.5c0,0,0.1,0.3,0.2,0.7c0.1,0.3,0.2,0.7,0.2,0.7
						s0.2-0.3,0.5-0.6c0.2-0.3,0.5-0.6,0.5-0.6"/>
				</g>
				<g>
					<path fill="none" stroke="#0000FF" stroke-miterlimit="10" d="M62.4,50.8c0,0,0.1,0.3,0.1,0.7c0.1,0.3,0.1,0.7,0.1,0.7
						s0.3-0.3,0.5-0.5c0.3-0.3,0.6-0.5,0.6-0.5"/>
				</g>
				<g>
					<path fill="none" stroke="#0000FF" stroke-miterlimit="10" d="M64,51.3c0,0,0,0.3,0,0.7c0,0.3,0,0.7,0,0.7s0.1-0.1,0.2-0.1
						s0.3-0.2,0.4-0.3c0.3-0.2,0.7-0.3,0.7-0.3"/>
				</g>
				<g>
					<path fill="none" stroke="#0000FF" stroke-miterlimit="10" d="M65.6,52.1c0,0-0.1,0.3-0.1,0.7c-0.1,0.3-0.2,0.7-0.2,0.7
						s0.1,0,0.2-0.1s0.3-0.1,0.5-0.1c0.4-0.1,0.7-0.1,0.7-0.1"/>
				</g>
				<g>
					<path fill="none" stroke="#0000FF" stroke-miterlimit="10" d="M66.9,53.3c0,0,0,0.1-0.1,0.2c-0.1,0.1-0.1,0.3-0.3,0.4
						c-0.2,0.3-0.4,0.6-0.4,0.6s0.1,0,0.2,0s0.3,0,0.5,0c0.4,0,0.7,0.1,0.7,0.1"/>
				</g>
				<g>
					<path fill="none" stroke="#0000FF" stroke-miterlimit="10" d="M67.7,55c0,0-0.3,0.3-0.5,0.5c-0.3,0.2-0.6,0.4-0.6,0.4
						s0.3,0.1,0.7,0.3c0.2,0.1,0.3,0.2,0.5,0.2c0.1,0.1,0.2,0.1,0.2,0.1"/>
				</g>
				<g>
					<path fill="none" stroke="#0000FF" stroke-miterlimit="10" d="M68,56.7c0,0-0.3,0.2-0.6,0.3c-0.3,0.2-0.6,0.3-0.6,0.3
						s0.3,0.2,0.7,0.3c0.3,0.2,0.7,0.3,0.7,0.3"/>
				</g>
				<g>
					<polyline fill="none" stroke="#0000FF" stroke-miterlimit="10" points="68.1,58.2 66.8,58.9 68.2,59.5 					"/>
				</g>
				<g>
					<polyline fill="none" stroke="#0000FF" stroke-miterlimit="10" points="68.2,59.7 67,60.4 68.3,61 					"/>
				</g>
				<g>
					<polyline fill="none" stroke="#0000FF" stroke-miterlimit="10" points="68.4,61.3 67.2,62 68.5,62.6 					"/>
				</g>
				<g>
					<polyline fill="none" stroke="#0000FF" stroke-miterlimit="10" points="68.5,62.9 67.3,63.6 68.6,64.2 					"/>
				</g>
				<g>
					<polyline fill="none" stroke="#0000FF" stroke-miterlimit="10" points="68.7,64.4 67.4,65.1 68.8,65.7 					"/>
				</g>
				<g>
					<polyline fill="none" stroke="#0000FF" stroke-miterlimit="10" points="68.8,66 67.6,66.7 68.9,67.3 					"/>
				</g>
				<g>
					<path fill="none" stroke="#0000FF" stroke-miterlimit="10" d="M68.9,67.6c0,0-0.3,0.2-0.6,0.3c-0.3,0.2-0.6,0.3-0.6,0.3
						s0.3,0.2,0.7,0.3c0.3,0.2,0.7,0.3,0.7,0.3"/>
				</g>
				<g>
					<path fill="none" stroke="#0000FF" stroke-miterlimit="10" d="M69,69.2c0,0-0.3,0.1-0.6,0.3c-0.3,0.1-0.6,0.3-0.6,0.3
						s0.3,0.2,0.7,0.4c0.3,0.2,0.7,0.4,0.7,0.4"/>
				</g>
				<g>
					<path fill="none" stroke="#0000FF" stroke-miterlimit="10" d="M69,70.8c0,0-0.3,0.1-0.7,0.3c-0.3,0.1-0.7,0.3-0.7,0.3
						s0.3,0.2,0.6,0.4s0.6,0.4,0.6,0.4"/>
				</g>
				<g>
					<path fill="none" stroke="#0000FF" stroke-miterlimit="10" d="M68.9,72.4c0,0-0.3,0.1-0.7,0.3c-0.3,0.1-0.7,0.2-0.7,0.2
						s0.3,0.2,0.6,0.4c0.3,0.2,0.6,0.5,0.6,0.5"/>
				</g>
				<g>
					<path fill="none" stroke="#0000FF" stroke-miterlimit="10" d="M68.8,74c0,0-0.3,0.1-0.7,0.2c-0.3,0.1-0.7,0.2-0.7,0.2
						s0.3,0.2,0.6,0.5c0.3,0.2,0.6,0.5,0.6,0.5"/>
				</g>
				<g>
					<path fill="none" stroke="#0000FF" stroke-miterlimit="10" d="M68.6,75.6c0,0-0.3,0.1-0.7,0.1s-0.7,0.1-0.7,0.1
						s0.1,0.1,0.2,0.2s0.2,0.2,0.3,0.4c0.3,0.3,0.5,0.6,0.5,0.6"/>
				</g>
				<g>
					<path fill="none" stroke="#0000FF" stroke-miterlimit="10" d="M68.1,77.2c0,0-0.4,0-0.7,0c-0.3,0-0.7,0-0.7,0s0.1,0.1,0.1,0.2
						c0.1,0.1,0.2,0.3,0.3,0.4c0.2,0.3,0.4,0.6,0.4,0.6"/>
				</g>
				<g>
					<path fill="none" stroke="#0000FF" stroke-miterlimit="10" d="M67.4,78.7c0,0-0.3,0-0.7-0.1c-0.3,0-0.7-0.1-0.7-0.1
						s0.2,0.3,0.4,0.6c0.2,0.3,0.4,0.7,0.4,0.7"/>
				</g>
				<g>
					<path fill="none" stroke="#0000FF" stroke-miterlimit="10" d="M66.6,80.1c0,0-0.3,0-0.7-0.1c-0.3,0-0.7,0-0.7,0
						s0.2,0.3,0.3,0.7c0.2,0.3,0.3,0.7,0.3,0.7"/>
				</g>
				<g>
					<path fill="none" stroke="#0000FF" stroke-miterlimit="10" d="M65.8,81.5c0,0-0.3-0.1-0.7-0.1c-0.3-0.1-0.7-0.1-0.7-0.1
						s0.2,0.3,0.3,0.7c0.1,0.3,0.3,0.7,0.3,0.7"/>
				</g>
				<g>
					<path fill="none" stroke="#0000FF" stroke-miterlimit="10" d="M64.8,82.8c0,0-0.3-0.1-0.7-0.1c-0.3-0.1-0.7-0.2-0.7-0.2
						s0.1,0.3,0.3,0.7c0.1,0.3,0.3,0.7,0.3,0.7"/>
				</g>
				<g>
					<path fill="none" stroke="#0000FF" stroke-miterlimit="10" d="M63.8,84.1c0,0-0.3-0.1-0.7-0.2c-0.3-0.1-0.7-0.2-0.7-0.2
						s0.1,0.3,0.2,0.7c0.1,0.4,0.2,0.7,0.2,0.7"/>
				</g>
				<g>
					<path fill="none" stroke="#0000FF" stroke-miterlimit="10" d="M62.7,85.3c0,0-0.3-0.1-0.7-0.3c-0.3-0.1-0.7-0.3-0.7-0.3
						s0.1,0.4,0.2,0.7c0,0.2,0.1,0.4,0.1,0.5s0,0.2,0,0.2"/>
				</g>
				<g>
					<path fill="none" stroke="#0000FF" stroke-miterlimit="10" d="M61.5,86.4c0,0-0.3-0.1-0.6-0.3c-0.3-0.2-0.6-0.3-0.6-0.3
						s0.1,0.4,0.1,0.7c0,0.4,0.1,0.7,0.1,0.7"/>
				</g>
				<g>
					<path fill="none" stroke="#0000FF" stroke-miterlimit="10" d="M60.2,87.3c0,0-0.3-0.2-0.6-0.4c-0.1-0.1-0.3-0.2-0.4-0.3
						c-0.2,0-0.2-0.1-0.2-0.1s0,0.4,0,0.7c0,0.4,0,0.7,0,0.7"/>
				</g>
				<g>
					<path fill="none" stroke="#0000FF" stroke-miterlimit="10" d="M58.7,88.2c0,0-0.3-0.2-0.5-0.5c-0.3-0.2-0.5-0.5-0.5-0.5
						s0,0.4-0.1,0.7c0,0.2-0.1,0.4-0.1,0.5s0,0.2,0,0.2"/>
				</g>
				<g>
					<path fill="none" stroke="#0000FF" stroke-miterlimit="10" d="M57.2,88.8c0,0-0.3-0.3-0.5-0.5c-0.2-0.3-0.5-0.5-0.5-0.5
						s0,0.1-0.1,0.2c0,0.1-0.1,0.3-0.1,0.5c-0.1,0.3-0.2,0.7-0.2,0.7"/>
				</g>
				<g>
					<path fill="none" stroke="#0000FF" stroke-miterlimit="10" d="M55.6,89.3c0,0-0.2-0.3-0.4-0.5c-0.1-0.1-0.2-0.3-0.3-0.4
						s-0.1-0.2-0.1-0.2s-0.1,0.3-0.3,0.7c-0.1,0.3-0.3,0.7-0.3,0.7"/>
				</g>
				<g>
					<polyline fill="none" stroke="#0000FF" stroke-miterlimit="10" points="54,89.6 53.3,88.4 52.7,89.7 					"/>
				</g>
				<g>
					<path fill="none" stroke="#0000FF" stroke-miterlimit="10" d="M52.4,89.8l-0.7-1.2c0,0-0.2,0.3-0.3,0.7
						c-0.2,0.3-0.3,0.7-0.3,0.7"/>
				</g>
				<g>
					<path fill="none" stroke="#0000FF" stroke-miterlimit="10" d="M50.8,89.9c0,0-0.2-0.3-0.3-0.6c-0.1-0.3-0.3-0.6-0.3-0.6
						S50,89,49.9,89.3c-0.2,0.3-0.4,0.7-0.4,0.7"/>
				</g>
			</g>
		</g>
	</g>
	<g>
		<g>
			<g>
				<g>
					<path fill="none" stroke="#0000FF" stroke-miterlimit="10" d="M49.3,88.2c0,0,0,0.1-0.1,0.3c-0.1,0.2-0.2,0.3-0.4,0.4
						c-0.1,0-0.1,0-0.1,0c-0.1,0-0.1,0-0.1,0c-0.1,0-0.2,0-0.2,0c-0.1,0-0.2-0.1-0.2-0.1s0,0,0.1,0c0,0,0,0,0.1,0v0.1
						c0,0.1,0,0.1,0,0.2s0,0.2-0.1,0.3c-0.1,0.2-0.1,0.4-0.2,0.5C48,90,48,90.1,48,90.1"/>
				</g>
				<g>
					<path fill="none" stroke="#0000FF" stroke-miterlimit="10" d="M47.6,90.1c0,0-0.2-0.3-0.3-0.6c-0.1-0.3-0.3-0.7-0.3-0.7
						s-0.2,0.3-0.4,0.6c-0.2,0.3-0.4,0.6-0.4,0.6"/>
				</g>
				<g>
					<path fill="none" stroke="#0000FF" stroke-miterlimit="10" d="M46,90.1c0,0-0.1-0.3-0.3-0.7c-0.1-0.3-0.2-0.7-0.2-0.7
						s-0.2,0.3-0.4,0.6c-0.2,0.3-0.4,0.6-0.4,0.6"/>
				</g>
				<g>
					<polyline fill="none" stroke="#0000FF" stroke-miterlimit="10" points="44.3,89.9 43.9,88.6 43,89.8 					"/>
				</g>
				<g>
					<path fill="none" stroke="#0000FF" stroke-miterlimit="10" d="M42.8,89.8c0,0-0.1-0.3-0.2-0.7c-0.1-0.3-0.2-0.7-0.2-0.7
						s-0.2,0.3-0.5,0.6c-0.3,0.3-0.5,0.6-0.5,0.6"/>
				</g>
				<g>
					<path fill="none" stroke="#0000FF" stroke-miterlimit="10" d="M41.1,89.5c0,0-0.1-0.3-0.1-0.7c-0.1-0.3-0.1-0.7-0.1-0.7
						s-0.3,0.3-0.5,0.5c-0.1,0.1-0.3,0.3-0.4,0.3C39.9,89,39.8,89,39.8,89"/>
				</g>
				<g>
					<path fill="none" stroke="#0000FF" stroke-miterlimit="10" d="M39.5,89c0,0,0-0.3-0.1-0.7c0-0.3,0-0.7,0-0.7s-0.3,0.2-0.6,0.5
						c-0.3,0.2-0.6,0.4-0.6,0.4"/>
				</g>
				<g>
					<path fill="none" stroke="#0000FF" stroke-miterlimit="10" d="M38,88.4c0,0,0-0.3,0-0.7c0-0.2,0-0.3,0-0.5c0-0.1,0-0.2,0-0.2
						s-0.3,0.2-0.6,0.4c-0.3,0.2-0.7,0.3-0.7,0.3"/>
				</g>
				<g>
					<path fill="none" stroke="#0000FF" stroke-miterlimit="10" d="M36.5,87.6c0,0,0-0.3,0.1-0.7c0.1-0.3,0.1-0.7,0.1-0.7
						s-0.3,0.2-0.7,0.3c-0.3,0.1-0.7,0.3-0.7,0.3"/>
				</g>
				<g>
					<path fill="none" stroke="#0000FF" stroke-miterlimit="10" d="M35.2,86.6c0,0,0.1-0.3,0.2-0.7c0.1-0.3,0.2-0.7,0.2-0.7
						s-0.3,0.1-0.7,0.2c-0.3,0.1-0.7,0.2-0.7,0.2"/>
				</g>
				<g>
					<path fill="none" stroke="#0000FF" stroke-miterlimit="10" d="M33.9,85.5c0,0,0.1-0.3,0.2-0.7c0.1-0.3,0.3-0.7,0.3-0.7
						s-0.3,0.1-0.7,0.2S33,84.4,33,84.4"/>
				</g>
				<g>
					<path fill="none" stroke="#0000FF" stroke-miterlimit="10" d="M32.8,84.3c0,0,0.1-0.3,0.3-0.7c0.1-0.3,0.3-0.6,0.3-0.6
						s-0.4,0.1-0.7,0.1c-0.4,0.1-0.7,0.1-0.7,0.1"/>
				</g>
				<g>
					<path fill="none" stroke="#0000FF" stroke-miterlimit="10" d="M31.8,83.1c0,0,0.2-0.3,0.3-0.6c0.2-0.3,0.3-0.6,0.3-0.6
						s-0.4,0-0.7,0.1c-0.4,0-0.7,0.1-0.7,0.1"/>
				</g>
				<g>
					<path fill="none" stroke="#0000FF" stroke-miterlimit="10" d="M30.8,81.7c0,0,0.2-0.3,0.4-0.6c0.2-0.3,0.4-0.6,0.4-0.6
						s-0.4,0-0.7,0c-0.4,0-0.7,0-0.7,0"/>
				</g>
				<g>
					<path fill="none" stroke="#0000FF" stroke-miterlimit="10" d="M30,80.4c0,0,0.2-0.3,0.4-0.6c0.2-0.3,0.4-0.6,0.4-0.6
						s-0.4,0-0.7,0c-0.4,0-0.7,0-0.7,0"/>
				</g>
				<g>
					<path fill="none" stroke="#0000FF" stroke-miterlimit="10" d="M29.2,79c0,0,0.2-0.3,0.4-0.6c0.2-0.3,0.4-0.5,0.4-0.5
						s-0.4,0-0.7,0c-0.4,0-0.7-0.1-0.7-0.1"/>
				</g>
				<g>
					<path fill="none" stroke="#0000FF" stroke-miterlimit="10" d="M28.5,77.5c0,0,0.1-0.1,0.1-0.2c0.1-0.1,0.2-0.2,0.3-0.3
						c0.3-0.3,0.5-0.5,0.5-0.5s-0.4-0.1-0.7-0.2c-0.2-0.1-0.4-0.1-0.5-0.1c-0.1-0.1-0.2-0.1-0.2-0.1"/>
				</g>
				<g>
					<path fill="none" stroke="#0000FF" stroke-miterlimit="10" d="M27.9,75.8c0,0,0.3-0.2,0.6-0.4s0.6-0.4,0.6-0.4
						s-0.3-0.1-0.7-0.3c-0.3-0.1-0.7-0.3-0.7-0.3"/>
				</g>
				<g>
					<path fill="none" stroke="#0000FF" stroke-miterlimit="10" d="M27.7,74.2c0,0,0.3-0.2,0.6-0.4c0.3-0.2,0.6-0.3,0.6-0.3
						s-0.1,0-0.2-0.1s-0.3-0.1-0.5-0.2c-0.3-0.2-0.7-0.3-0.7-0.3"/>
				</g>
				<g>
					<path fill="none" stroke="#0000FF" stroke-miterlimit="10" d="M27.5,72.6c0,0,0.3-0.2,0.6-0.3c0.3-0.1,0.6-0.3,0.6-0.3
						s-0.3-0.2-0.7-0.4c-0.3-0.2-0.7-0.4-0.7-0.4"/>
				</g>
				<g>
					<path fill="none" stroke="#0000FF" stroke-miterlimit="10" d="M27.5,71c0,0,0.3-0.1,0.7-0.3c0.3-0.1,0.7-0.3,0.7-0.3
						s-0.3-0.2-0.6-0.4c-0.3-0.2-0.6-0.4-0.6-0.4"/>
				</g>
				<g>
					<path fill="none" stroke="#0000FF" stroke-miterlimit="10" d="M27.5,69.4c0,0,0.3-0.1,0.7-0.3c0.3-0.1,0.7-0.3,0.7-0.3
						s-0.3-0.2-0.6-0.4C28,68.2,27.7,68,27.7,68"/>
				</g>
				<g>
					<path fill="none" stroke="#0000FF" stroke-miterlimit="10" d="M27.6,67.7l1.3-0.5c0,0-0.3-0.2-0.6-0.4
						c-0.3-0.2-0.6-0.4-0.6-0.4"/>
				</g>
				<g>
					<polyline fill="none" stroke="#0000FF" stroke-miterlimit="10" points="27.7,66.1 29,65.7 27.8,64.8 					"/>
				</g>
				<g>
					<polyline fill="none" stroke="#0000FF" stroke-miterlimit="10" points="27.8,64.6 29.1,64.1 27.9,63.2 					"/>
				</g>
				<g>
					<polyline fill="none" stroke="#0000FF" stroke-miterlimit="10" points="28,63 29.3,62.6 28.1,61.7 					"/>
				</g>
				<g>
					<polyline fill="none" stroke="#0000FF" stroke-miterlimit="10" points="28.1,61.4 29.5,61 28.3,60.1 					"/>
				</g>
				<g>
					<polyline fill="none" stroke="#0000FF" stroke-miterlimit="10" points="28.3,59.9 29.6,59.4 28.4,58.5 					"/>
				</g>
				<g>
					<path fill="none" stroke="#0000FF" stroke-miterlimit="10" d="M28.4,58.3c0,0,0.3-0.1,0.7-0.2c0.3-0.1,0.7-0.2,0.7-0.2
						s-0.3-0.2-0.6-0.4c-0.3-0.2-0.6-0.4-0.6-0.4"/>
				</g>
				<g>
					<path fill="none" stroke="#0000FF" stroke-miterlimit="10" d="M28.5,56.7c0,0,0.3-0.1,0.7-0.3c0.3-0.1,0.7-0.2,0.7-0.2
						s-0.3-0.2-0.6-0.4c-0.1-0.1-0.3-0.3-0.4-0.4c-0.1-0.1-0.2-0.2-0.2-0.2"/>
				</g>
				<g>
					<path fill="none" stroke="#0000FF" stroke-miterlimit="10" d="M28.8,55c0,0,0.1,0,0.2,0s0.3,0,0.5-0.1c0.2,0,0.3,0,0.5,0
						c0.1,0,0.2,0,0.2,0s-0.1-0.1-0.1-0.2c-0.1-0.1-0.2-0.3-0.3-0.4c-0.1-0.2-0.2-0.3-0.2-0.5c-0.1-0.1-0.1-0.2-0.1-0.2"/>
				</g>
				<g>
					<path fill="none" stroke="#0000FF" stroke-miterlimit="10" d="M29.7,53.3c0,0,0.1,0,0.2,0.1c0.1,0,0.3,0.1,0.5,0.1
						c0.2,0.1,0.3,0.1,0.5,0.2c0.1,0.1,0.2,0.1,0.2,0.1s0-0.1-0.1-0.2c0-0.1-0.1-0.3-0.1-0.5s-0.1-0.4-0.1-0.5s0-0.2,0-0.2"/>
				</g>
				<g>
					<path fill="none" stroke="#0000FF" stroke-miterlimit="10" d="M31,52.1c0,0,0.1,0.1,0.2,0.1c0.1,0.1,0.3,0.2,0.4,0.3
						c0.3,0.2,0.6,0.4,0.5,0.4c0,0,0-0.4,0-0.7c0-0.2,0.1-0.4,0.1-0.5s0-0.2,0-0.2"/>
				</g>
				<g>
					<path fill="none" stroke="#0000FF" stroke-miterlimit="10" d="M32.6,51.3c0,0,0.3,0.3,0.5,0.5c0.2,0.3,0.5,0.5,0.5,0.5
						s0.1-0.4,0.2-0.7c0.1-0.4,0.2-0.7,0.2-0.7"/>
				</g>
				<g>
					<path fill="none" stroke="#0000FF" stroke-miterlimit="10" d="M34.2,50.9c0,0,0.2,0.3,0.4,0.6C34.8,51.7,35,52,35,52
						s0.1-0.3,0.3-0.7c0.1-0.3,0.3-0.7,0.3-0.7"/>
				</g>
				<g>
					<path fill="none" stroke="#0000FF" stroke-miterlimit="10" d="M35.8,50.6c0,0,0.2,0.3,0.3,0.6c0.2,0.3,0.3,0.6,0.3,0.6
						s0.2-0.3,0.3-0.7c0.2-0.3,0.3-0.7,0.3-0.7"/>
				</g>
				<g>
					<path fill="none" stroke="#0000FF" stroke-miterlimit="10" d="M37.5,50.5c0,0,0.1,0.3,0.3,0.6c0.1,0.3,0.3,0.6,0.3,0.6
						s0.2-0.3,0.4-0.7c0.2-0.3,0.4-0.7,0.4-0.7"/>
				</g>
				<g>
					<path fill="none" stroke="#0000FF" stroke-miterlimit="10" d="M39.1,50.5c0,0,0.1,0.3,0.3,0.7c0.1,0.2,0.1,0.3,0.2,0.5
						c0.1,0.1,0.1,0.2,0.1,0.2s0-0.1,0.1-0.2c0.1-0.1,0.2-0.3,0.3-0.4c0.2-0.3,0.5-0.6,0.5-0.6"/>
				</g>
				<g>
					<path fill="none" stroke="#0000FF" stroke-miterlimit="10" d="M40.8,50.7c0,0,0.1,0.3,0.1,0.7c0,0.3,0.1,0.7,0.1,0.7
						s0.3-0.2,0.6-0.5c0.3-0.2,0.6-0.4,0.6-0.4"/>
				</g>
				<g>
					<path fill="none" stroke="#0000FF" stroke-miterlimit="10" d="M42.4,51.3c0,0,0,0.3,0,0.7c0,0.3,0,0.7,0,0.7s0.3-0.2,0.6-0.4
						s0.7-0.4,0.7-0.4"/>
				</g>
				<g>
					<path fill="none" stroke="#0000FF" stroke-miterlimit="10" d="M43.9,52.1c0,0,0,0.3-0.1,0.7c-0.1,0.3-0.1,0.7-0.1,0.7
						s0.3-0.2,0.7-0.3c0.3-0.2,0.7-0.3,0.7-0.3"/>
				</g>
				<g>
					<path fill="none" stroke="#0000FF" stroke-miterlimit="10" d="M45.3,52.9c0,0-0.1,0.3-0.1,0.7c-0.1,0.3-0.1,0.7-0.1,0.7
						s0.3-0.1,0.7-0.3c0.3-0.1,0.7-0.3,0.7-0.3"/>
				</g>
				<g>
					<path fill="none" stroke="#0000FF" stroke-miterlimit="10" d="M46.6,53.8c0,0-0.1,0.3-0.1,0.7c-0.1,0.3-0.1,0.7-0.1,0.7
						s0.3-0.1,0.7-0.3s0.7-0.3,0.7-0.3"/>
				</g>
				<g>
					<path fill="none" stroke="#0000FF" stroke-miterlimit="10" d="M47.9,54.8c0,0-0.1,0.3-0.2,0.7c-0.1,0.3-0.2,0.7-0.2,0.7
						s0.3-0.1,0.7-0.3c0.3-0.1,0.7-0.3,0.7-0.3"/>
				</g>
			</g>
		</g>
	</g>
</g>
<g id="leaf">
	<g>
		<path fill="#A8CF38" stroke="#010101" stroke-width="0.5" stroke-linecap="round" stroke-linejoin="round" d="M47.3,22.5
			c0,0-2.4-4.3-2.1-6.4l0.6,0.2c0,0-0.5-0.6,0.1-3.2l0.5,0.4c0,0-0.4-1.3,0.4-3l0.5,0.4c0,0,0.2-1.2,0.7-2.4L48.5,9
			c0,0-0.1-1.4,0.4-2.4L49.4,7c0,0,0.2-1.8,1.2-2.1l0.1,0.4c0,0,0.7-1.1,1.7-1.7l0.5,0.5c0,0,0-1.1,1.2-1.6l0.3,0.4
			c0,0,0.1-1.5,1.3-1.7L56,1.9c0,0,2-1.9,2.5-1.9l0.7,0.4c0.1,0.3,0,3.1,0,3.1L60,3.3c0.5,1.1-0.6,2.1-0.6,2.1h0.5
			c0.4,1.3-0.5,1.9-0.5,1.9l0.6,0c0.1,1.1-0.3,2.4-0.3,2.4l0.4-0.1c0.3,1-1,2.2-1,2.2l0.6,0.1c-0.5,1-1.7,1.8-1.7,1.8l0.6,0.2
			c-0.7,1.1-1.5,2-1.5,2l0.6,0.1c-0.8,1.7-2.1,2.1-2.1,2.1l0.6,0.1c-1.7,2.1-2.5,2-2.5,2l0.5,0.3c-1.5,1.5-6.3,2.2-6.3,2.2
			L47.3,22.5z"/>
		<path fill="#A8CF38" stroke="#010101" stroke-width="0.5" stroke-linecap="round" stroke-linejoin="round" d="M47.8,22.7
			c0,0-2.4-4.3-2.1-6.4l0.6,0.2c0,0-0.5-0.6,0.1-3.2l0.5,0.4c0,0-0.4-1.3,0.4-3l0.5,0.4c0,0,0.2-1.2,0.7-2.4L49,9
			c0,0-0.1-1.4,0.4-2.4L49.9,7c0,0,0.2-1.8,1.2-2.1l0.1,0.4c0,0,0.7-1.1,1.7-1.7l0.5,0.5c0,0,0-1.1,1.2-1.6l0.3,0.4
			c0,0,0.1-1.5,1.3-1.7l0.3,0.7c0,0,2-1.9,2.5-1.9l0.7,0.4c0.1,0.3,0,3.1,0,3.1l0.8-0.2c0.5,1.1-0.6,2.1-0.6,2.1h0.5
			c0.4,1.3-0.5,1.9-0.5,1.9l0.7,0.1c0.1,1.1-0.3,2.4-0.3,2.4l0.4-0.1c0.3,1-1,2.2-1,2.2l0.6,0.1c-0.5,1-1.7,1.8-1.7,1.8l0.6,0.2
			c-0.7,1.1-1.5,2-1.5,2l0.6,0.1c-0.8,1.7-2.1,2.1-2.1,2.1l0.6,0.1c-1.7,2.1-2.5,2-2.5,2l0.5,0.3c-1.5,1.5-6.3,2.2-6.3,2.2
			L47.8,22.7z"/>
		
			<line fill="none" stroke="#010101" stroke-width="0.5" stroke-linecap="round" stroke-linejoin="round" x1="59" y1="0.6" x2="48" y2="22.9"/>
		<g>
			
				<line fill="none" stroke="#010101" stroke-width="0.5" stroke-linecap="round" stroke-linejoin="round" x1="56.4" y1="1.8" x2="56.8" y2="3.6"/>
			
				<line fill="none" stroke="#010101" stroke-width="0.5" stroke-linecap="round" stroke-linejoin="round" x1="54.7" y1="3.2" x2="55.8" y2="5.3"/>
			
				<line fill="none" stroke="#010101" stroke-width="0.5" stroke-linecap="round" stroke-linejoin="round" x1="53.3" y1="4.2" x2="54.7" y2="7"/>
			
				<line fill="none" stroke="#010101" stroke-width="0.5" stroke-linecap="round" stroke-linejoin="round" x1="51" y1="5.4" x2="53.4" y2="8.7"/>
			
				<line fill="none" stroke="#010101" stroke-width="0.5" stroke-linecap="round" stroke-linejoin="round" x1="49.9" y1="7.1" x2="52.9" y2="10.6"/>
			
				<line fill="none" stroke="#010101" stroke-width="0.5" stroke-linecap="round" stroke-linejoin="round" x1="48.8" y1="9.2" x2="51.8" y2="12.4"/>
			
				<line fill="none" stroke="#010101" stroke-width="0.5" stroke-linecap="round" stroke-linejoin="round" x1="47.7" y1="11" x2="50.2" y2="14.5"/>
			
				<line fill="none" stroke="#010101" stroke-width="0.5" stroke-linecap="round" stroke-linejoin="round" x1="46.7" y1="13.6" x2="49.7" y2="17.4"/>
			
				<line fill="none" stroke="#010101" stroke-width="0.5" stroke-linecap="round" stroke-linejoin="round" x1="46.2" y1="16.4" x2="48.6" y2="20.4"/>
		</g>
		<g>
			
				<line fill="none" stroke="#010101" stroke-width="0.5" stroke-linecap="round" stroke-linejoin="round" x1="59.9" y1="3.5" x2="58.2" y2="4.3"/>
			
				<line fill="none" stroke="#010101" stroke-width="0.5" stroke-linecap="round" stroke-linejoin="round" x1="59.8" y1="5.7" x2="57.4" y2="6.2"/>
			
				<line fill="none" stroke="#010101" stroke-width="0.5" stroke-linecap="round" stroke-linejoin="round" x1="59.8" y1="7.5" x2="56.8" y2="8"/>
			
				<line fill="none" stroke="#010101" stroke-width="0.5" stroke-linecap="round" stroke-linejoin="round" x1="60.3" y1="10" x2="56.2" y2="10.1"/>
			
				<line fill="none" stroke="#010101" stroke-width="0.5" stroke-linecap="round" stroke-linejoin="round" x1="59.6" y1="11.9" x2="55" y2="11.7"/>
			
				<line fill="none" stroke="#010101" stroke-width="0.5" stroke-linecap="round" stroke-linejoin="round" x1="58.6" y1="14" x2="54.3" y2="13.6"/>
			
				<line fill="none" stroke="#010101" stroke-width="0.5" stroke-linecap="round" stroke-linejoin="round" x1="57.9" y1="16.1" x2="53.6" y2="16.1"/>
			
				<line fill="none" stroke="#010101" stroke-width="0.5" stroke-linecap="round" stroke-linejoin="round" x1="56.3" y1="18.4" x2="51.5" y2="18.3"/>
			
				<line fill="none" stroke="#010101" stroke-width="0.5" stroke-linecap="round" stroke-linejoin="round" x1="54.5" y1="20.5" x2="49.8" y2="21"/>
		</g>
		<path fill="#FFFFFF" stroke="#010101" stroke-width="0.5" stroke-linecap="round" stroke-linejoin="round" d="M60.8,7.8
			c0,0-1.6,0.4-1.2,1.3c0,0-2,0.3-1.1,1.9c0,0,0.5,1.1,1.3,0.7c0,0-0.5,0.9,0.3,0.7s0.6-0.2,0.6-0.2"/>
		<path fill="#FFFFFF" stroke="#010101" stroke-width="0.5" stroke-miterlimit="10" d="M50.2,9.9c-0.1,0.4-0.3,0.7-0.4,1
			c0.4,0.3,1-0.4,1.2-0.7c-0.2,0.6-0.1,1.8,0.7,0.9c-0.1,0.6,0.2,0.7,0.6,0.9c-0.1,0.5-0.6,0.6-0.9,1c-0.2,0.2-0.3,0.5-0.4,0.8
			c-0.3-0.2-0.3-0.6-0.6-0.8c-0.2,0.1-0.7,0.9-0.9,0.8c-0.3,0-0.5-0.7-0.8-0.8c0.1-0.3,0.3-0.6,0.4-0.9C49,12,49,12,49,12
			c0.1-0.4,0.8-2.3,1.2-1.8"/>
		<path fill="#FFFFFF" stroke="#010101" stroke-width="0.5" stroke-miterlimit="10" d="M55.8,5.6c0.5-0.4,0.5-1,1.2-1.3
			c0,0.2-0.1,0.8,0,0.9c0.4,0.3,1-0.4,1.3-0.7C58.2,4.6,58,5.2,58,5.3c0.2,0.4,0.7,0.1,1,0.1c-0.2,0.6-0.7,1-1,1.5
			c-0.2,0.4-0.2,0.7-0.4,1.1c-0.7-0.2-1.1-0.7-1.2-1.4c-0.2,0.4-0.9,1.7-1,0.7c0-0.6,0.5-1.3,0.6-1.9"/>
		<path fill="#FFFFFF" stroke="#010101" stroke-width="0.5" stroke-miterlimit="10" d="M55,14.9c0,0.4-0.6,0.9-0.6,1.3
			c0,0.5,0.7,0.9,1.1,0.9c-0.6,0.2-1.1,0.5-1.3,1.1c0.3,0.3,0.6,0.4,0.9,0.5c-0.3,0.1-1.5,0.8-0.8,1.1c-0.2,0.5-1.5-0.2-1.9-0.5
			c-0.7-0.6-0.5-1.4-0.1-2.1c0.5-1.1,1.4-2.2,2.8-2"/>
	</g>
</g>
<g id="water">
	<g>
		<path fill="#55C2E2" stroke="#070707" stroke-width="0.5" stroke-miterlimit="10" d="M33.3,6.3c0,0-10.3,11.9-1.2,14.6
			c0,0,7.4-0.2,4.2-8.8C36.2,12.1,33.4,8.8,33.3,6.3z"/>
		<path fill="none" stroke="#3A97AD" stroke-miterlimit="10" d="M32.7,20c1.5,0.7,3.8-2.9,3.7-4.2"/>
		
			<ellipse transform="matrix(-0.7903 0.6127 -0.6127 -0.7903 66.922 13.433)" opacity="0.8" fill="#FFFFFF" enable-background="new    " cx="31.2" cy="18.2" rx="1.4" ry="1.7"/>
		<path opacity="0.8" fill="#FFFFFF" enable-background="new    " d="M30.3,11.6c0,0,1.3-3.3,2.9-4.2"/>
	</g>
	<g>
		<path fill="#55C2E2" stroke="#070707" stroke-width="0.5" stroke-miterlimit="10" d="M79.7,45.2c0,0-10.3,11.9-1.2,14.6
			c0,0,7.4-0.2,4.2-8.8C82.7,51,79.9,47.7,79.7,45.2z"/>
		<path fill="none" stroke="#3A97AD" stroke-miterlimit="10" d="M79.1,58.9c1.5,0.7,3.8-2.9,3.7-4.2"/>
		
			<ellipse transform="matrix(-0.7903 0.6127 -0.6127 -0.7903 173.911 54.5337)" opacity="0.8" fill="#FFFFFF" enable-background="new    " cx="77.6" cy="57" rx="1.4" ry="1.7"/>
		<path opacity="0.8" fill="#FFFFFF" enable-background="new    " d="M76.7,50.5c0,0,1.3-3.3,2.9-4.2"/>
	</g>
	<g>
		<path fill="#55C2E2" stroke="#070707" stroke-width="0.5" stroke-miterlimit="10" d="M20.5,86.7c0,0-6.2,7.1-0.7,8.8
			c0,0,4.5-0.1,2.5-5.3C22.3,90.2,20.6,88.2,20.5,86.7z"/>
		<path fill="none" stroke="#3A97AD" stroke-miterlimit="10" d="M20.2,94.9c0.9,0.4,2.3-1.8,2.2-2.6"/>
		
			<ellipse transform="matrix(-0.7903 0.6128 -0.6128 -0.7903 92.203 157.5443)" opacity="0.8" fill="#FFFFFF" enable-background="new    " cx="19.1" cy="94.6" rx="0.5" ry="0.6"/>
		<path opacity="0.8" fill="#FFFFFF" enable-background="new    " d="M18.7,89.9c0,0,0.8-2,1.8-2.5"/>
	</g>
	<g>
		<path fill="#55C2E2" stroke="#070707" stroke-width="0.5" stroke-miterlimit="10" d="M63.6,89.2c0,0-6.2,7.1-0.7,8.8
			c0,0,4.5-0.1,2.5-5.3C65.3,92.7,63.7,90.7,63.6,89.2z"/>
		<path fill="none" stroke="#3A97AD" stroke-miterlimit="10" d="M63.2,97.4c0.9,0.4,2.3-1.8,2.2-2.6"/>
		
			<ellipse transform="matrix(-0.7904 0.6126 -0.6126 -0.7904 170.7441 135.6432)" opacity="0.8" fill="#FFFFFF" enable-background="new    " cx="62.2" cy="97" rx="0.5" ry="0.6"/>
		<path opacity="0.8" fill="#FFFFFF" enable-background="new    " d="M61.7,92.4c0,0,0.8-2,1.8-2.5"/>
	</g>
	<g>
		<path fill="#55C2E2" stroke="#070707" stroke-width="0.5" stroke-miterlimit="10" d="M72.8,25.9c0,0-3.8,4.5-0.5,5.5
			c0,0,2.8-0.1,1.6-3.3C73.9,28.1,72.8,26.9,72.8,25.9z"/>
		<path fill="none" stroke="#3A97AD" stroke-miterlimit="10" d="M72.5,31c0.5,0.3,1.5-1.1,1.4-1.6"/>
		<ellipse opacity="0.8" fill="#FFFFFF" enable-background="new    " cx="71.8" cy="30.3" rx="0.3" ry="0.3"/>
		<path opacity="0.8" fill="#FFFFFF" enable-background="new    " d="M71.6,27.9c0,0,0.5-1.3,1.1-1.6"/>
	</g>
	<g>
		<path fill="#55C2E2" stroke="#070707" stroke-width="0.5" stroke-miterlimit="10" d="M21.4,52.7c0,0-3.8,4.5-0.5,5.5
			c0,0,2.8-0.1,1.6-3.3C22.5,54.9,21.5,53.7,21.4,52.7z"/>
		<path fill="none" stroke="#3A97AD" stroke-miterlimit="10" d="M21.2,57.9c0.5,0.3,1.5-1.1,1.4-1.6"/>
		<ellipse opacity="0.8" fill="#FFFFFF" enable-background="new    " cx="20.4" cy="57.1" rx="0.3" ry="0.3"/>
		<path opacity="0.8" fill="#FFFFFF" enable-background="new    " d="M20.3,54.7c0,0,0.5-1.3,1.1-1.6"/>
	</g>
</g>
</svg>
