<?xml version="1.0" encoding="utf-8"?>
<!-- Generator: Adobe Illustrator 17.1.0, SVG Export Plug-In . SVG Version: 6.00 Build 0)  -->
<!DOCTYPE svg PUBLIC "-//W3C//DTD SVG 1.1//EN" "http://www.w3.org/Graphics/SVG/1.1/DTD/svg11.dtd">
<svg version="1.1" id="Layer_1" xmlns="http://www.w3.org/2000/svg" xmlns:xlink="http://www.w3.org/1999/xlink" x="0px" y="0px"
	 viewBox="0 0 100 100" enable-background="new 0 0 100 100" xml:space="preserve">
<pattern  y="100" width="2.3" height="2.3" patternUnits="userSpaceOnUse" id="SVGID_1_" viewBox="6.9 -9.2 2.3 2.3" overflow="visible">
	<g>
		<polygon fill="none" points="6.9,-6.9 9.2,-6.9 9.2,-9.2 6.9,-9.2 		"/>
		<g>
			<polygon fill="none" points="6.9,-6.9 9.2,-6.9 9.2,-9.2 6.9,-9.2 			"/>
			<g>
				<polygon fill="none" points="9.2,-16.1 16.1,-16.1 16.1,-9.2 9.2,-9.2 				"/>
				<g>
					<polygon fill="none" points="16.1,-9.2 9.2,-9.2 9.2,-16.1 16.1,-16.1 					"/>
				</g>
			</g>
			<g>
				<polygon fill="none" points="6.9,-16.1 13.8,-16.1 13.8,-9.2 6.9,-9.2 				"/>
				<g>
					<polygon fill="none" points="13.8,-9.2 6.9,-9.2 6.9,-16.1 13.8,-16.1 					"/>
				</g>
			</g>
			<g>
				<polygon fill="none" points="4.6,-16.1 11.5,-16.1 11.5,-9.2 4.6,-9.2 				"/>
				<g>
					<polygon fill="none" points="11.5,-9.2 4.6,-9.2 4.6,-16.1 11.5,-16.1 					"/>
				</g>
			</g>
			<g>
				<polygon fill="none" points="2.3,-16.1 9.2,-16.1 9.2,-9.2 2.3,-9.2 				"/>
				<g>
					<polygon fill="none" points="9.2,-9.2 2.3,-9.2 2.3,-16.1 9.2,-16.1 					"/>
				</g>
			</g>
			<g>
				<polygon fill="none" points="0,-16.1 6.9,-16.1 6.9,-9.2 0,-9.2 				"/>
				<g>
					<polygon fill="none" points="6.9,-9.2 0,-9.2 0,-16.1 6.9,-16.1 					"/>
				</g>
			</g>
			<g>
				<polygon fill="none" points="9.2,-13.8 16.1,-13.8 16.1,-6.9 9.2,-6.9 				"/>
				<g>
					<polygon fill="none" points="16.1,-6.9 9.2,-6.9 9.2,-13.8 16.1,-13.8 					"/>
				</g>
			</g>
			<g>
				<polygon fill="none" points="6.9,-13.8 13.8,-13.8 13.8,-6.9 6.9,-6.9 				"/>
				<g>
					<polygon fill="none" points="13.8,-6.9 6.9,-6.9 6.9,-13.8 13.8,-13.8 					"/>
				</g>
			</g>
			<g>
				<polygon fill="none" points="4.6,-13.8 11.5,-13.8 11.5,-6.9 4.6,-6.9 				"/>
				<g>
					<polygon fill="none" points="11.5,-6.9 4.6,-6.9 4.6,-13.8 11.5,-13.8 					"/>
				</g>
			</g>
			<g>
				<polygon fill="none" points="2.3,-13.8 9.2,-13.8 9.2,-6.9 2.3,-6.9 				"/>
				<g>
					<polygon fill="none" points="9.2,-6.9 2.3,-6.9 2.3,-13.8 9.2,-13.8 					"/>
				</g>
			</g>
			<g>
				<polygon fill="none" points="0,-13.8 6.9,-13.8 6.9,-6.9 0,-6.9 				"/>
				<g>
					<polygon fill="none" points="6.9,-6.9 0,-6.9 0,-13.8 6.9,-13.8 					"/>
				</g>
			</g>
			<g>
				<polygon fill="none" points="9.2,-11.5 16.1,-11.5 16.1,-4.6 9.2,-4.6 				"/>
				<g>
					<polygon fill="none" points="16.1,-4.6 9.2,-4.6 9.2,-11.5 16.1,-11.5 					"/>
				</g>
			</g>
			<g>
				<polygon fill="none" points="6.9,-11.5 13.8,-11.5 13.8,-4.6 6.9,-4.6 				"/>
				<g>
					<polygon fill="none" points="13.8,-4.6 6.9,-4.6 6.9,-11.5 13.8,-11.5 					"/>
				</g>
			</g>
			<g>
				<polygon fill="none" points="4.6,-11.5 11.5,-11.5 11.5,-4.6 4.6,-4.6 				"/>
				<g>
					<polygon fill="none" points="11.5,-4.6 4.6,-4.6 4.6,-11.5 11.5,-11.5 					"/>
					<path fill="#010101" d="M8.5-8.2c0,0.3-0.3,0.6-0.6,0.6c0,0-0.3-0.3-0.3-0.6c0-0.3,0.3-0.6,0.6-0.6C8.5-8.8,8.5-8.5,8.5-8.2z"
						/>
				</g>
			</g>
			<g>
				<polygon fill="none" points="2.3,-11.5 9.2,-11.5 9.2,-4.6 2.3,-4.6 				"/>
				<g>
					<polygon fill="none" points="9.2,-4.6 2.3,-4.6 2.3,-11.5 9.2,-11.5 					"/>
				</g>
			</g>
			<g>
				<polygon fill="none" points="0,-11.5 6.9,-11.5 6.9,-4.6 0,-4.6 				"/>
				<g>
					<polygon fill="none" points="6.9,-4.6 0,-4.6 0,-11.5 6.9,-11.5 					"/>
				</g>
			</g>
			<g>
				<polygon fill="none" points="9.2,-9.2 16.1,-9.2 16.1,-2.3 9.2,-2.3 				"/>
				<g>
					<polygon fill="none" points="16.1,-2.3 9.2,-2.3 9.2,-9.2 16.1,-9.2 					"/>
				</g>
			</g>
			<g>
				<polygon fill="none" points="6.9,-9.2 13.8,-9.2 13.8,-2.3 6.9,-2.3 				"/>
				<g>
					<polygon fill="none" points="13.8,-2.3 6.9,-2.3 6.9,-9.2 13.8,-9.2 					"/>
				</g>
			</g>
			<g>
				<polygon fill="none" points="4.6,-9.2 11.5,-9.2 11.5,-2.3 4.6,-2.3 				"/>
				<g>
					<polygon fill="none" points="11.5,-2.3 4.6,-2.3 4.6,-9.2 11.5,-9.2 					"/>
				</g>
			</g>
			<g>
				<polygon fill="none" points="2.3,-9.2 9.2,-9.2 9.2,-2.3 2.3,-2.3 				"/>
				<g>
					<polygon fill="none" points="9.2,-2.3 2.3,-2.3 2.3,-9.2 9.2,-9.2 					"/>
				</g>
			</g>
			<g>
				<polygon fill="none" points="0,-9.2 6.9,-9.2 6.9,-2.3 0,-2.3 				"/>
				<g>
					<polygon fill="none" points="6.9,-2.3 0,-2.3 0,-9.2 6.9,-9.2 					"/>
				</g>
			</g>
			<g>
				<polygon fill="none" points="9.2,-6.9 16.1,-6.9 16.1,0 9.2,0 				"/>
				<g>
					<polygon fill="none" points="16.1,0 9.2,0 9.2,-6.9 16.1,-6.9 					"/>
				</g>
			</g>
			<g>
				<polygon fill="none" points="6.9,-6.9 13.8,-6.9 13.8,0 6.9,0 				"/>
				<g>
					<polygon fill="none" points="13.8,0 6.9,0 6.9,-6.9 13.8,-6.9 					"/>
				</g>
			</g>
			<g>
				<polygon fill="none" points="4.6,-6.9 11.5,-6.9 11.5,0 4.6,0 				"/>
				<g>
					<polygon fill="none" points="11.5,0 4.6,0 4.6,-6.9 11.5,-6.9 					"/>
				</g>
			</g>
			<g>
				<polygon fill="none" points="2.3,-6.9 9.2,-6.9 9.2,0 2.3,0 				"/>
				<g>
					<polygon fill="none" points="9.2,0 2.3,0 2.3,-6.9 9.2,-6.9 					"/>
				</g>
			</g>
			<g>
				<polygon fill="none" points="0,-6.9 6.9,-6.9 6.9,0 0,0 				"/>
				<g>
					<polygon fill="none" points="6.9,0 0,0 0,-6.9 6.9,-6.9 					"/>
				</g>
			</g>
		</g>
	</g>
</pattern>
<pattern  y="100" width="2.3" height="2.3" patternUnits="userSpaceOnUse" id="SVGID_3_" viewBox="4.5 -6.9 2.3 2.3" overflow="visible">
	<g>
		<polygon fill="none" points="4.5,-4.6 6.8,-4.6 6.8,-6.9 4.5,-6.9 		"/>
		<g>
			<polygon fill="none" points="4.5,-4.6 6.8,-4.6 6.8,-6.9 4.5,-6.9 			"/>
			<g>
				<polygon fill="none" points="4.6,-11.4 11.4,-11.4 11.4,-4.6 4.6,-4.6 				"/>
				<g>
					<polygon fill="none" points="11.4,-4.6 4.6,-4.6 4.6,-11.4 11.4,-11.4 					"/>
				</g>
			</g>
			<g>
				<polygon fill="none" points="2.3,-11.4 9.1,-11.4 9.1,-4.6 2.3,-4.6 				"/>
				<g>
					<polygon fill="none" points="9.1,-4.6 2.3,-4.6 2.3,-11.4 9.1,-11.4 					"/>
				</g>
			</g>
			<g>
				<polygon fill="none" points="0,-11.4 6.8,-11.4 6.8,-4.6 0,-4.6 				"/>
				<g>
					<polygon fill="none" points="6.8,-4.6 0,-4.6 0,-11.4 6.8,-11.4 					"/>
				</g>
			</g>
			<g>
				<polygon fill="none" points="4.6,-9.1 11.4,-9.1 11.4,-2.3 4.6,-2.3 				"/>
				<g>
					<polygon fill="none" points="11.4,-2.3 4.6,-2.3 4.6,-9.1 11.4,-9.1 					"/>
				</g>
			</g>
			<g>
				<polygon fill="none" points="2.3,-9.1 9.1,-9.1 9.1,-2.3 2.3,-2.3 				"/>
				<g>
					<polygon fill="none" points="9.1,-2.3 2.3,-2.3 2.3,-9.1 9.1,-9.1 					"/>
					<path fill="#010101" d="M6.1-5.9c0,0.3-0.3,0.6-0.6,0.6c0,0-0.3-0.3-0.3-0.6s0.3-0.6,0.6-0.6S6.1-6.2,6.1-5.9z"/>
				</g>
			</g>
			<g>
				<polygon fill="none" points="0,-9.1 6.8,-9.1 6.8,-2.3 0,-2.3 				"/>
				<g>
					<polygon fill="none" points="6.8,-2.3 0,-2.3 0,-9.1 6.8,-9.1 					"/>
				</g>
			</g>
			<g>
				<polygon fill="none" points="4.6,-6.8 11.4,-6.8 11.4,0 4.6,0 				"/>
				<g>
					<polygon fill="none" points="11.4,0 4.6,0 4.6,-6.8 11.4,-6.8 					"/>
				</g>
			</g>
			<g>
				<polygon fill="none" points="2.3,-6.8 9.1,-6.8 9.1,0 2.3,0 				"/>
				<g>
					<polygon fill="none" points="9.1,0 2.3,0 2.3,-6.8 9.1,-6.8 					"/>
				</g>
			</g>
			<g>
				<polygon fill="none" points="0,-6.8 6.8,-6.8 6.8,0 0,0 				"/>
				<g>
					<polygon fill="none" points="6.8,0 0,0 0,-6.8 6.8,-6.8 					"/>
				</g>
			</g>
		</g>
	</g>
</pattern>
<g id="legs">
	<path fill="#FFFFFF" stroke="#010101" stroke-miterlimit="10" d="M41.9,57.4c0,0-5.6,2.6-6.2,4c0,0,0.1-0.1,1,0
		c0,0-3.6,2.4-3.8,3.4c0,0,1.7-1.2,2.1-1.2c0.4,0-4,4.2-2.1,6.7c0,0-0.1-7.3,9.4-12"/>
	<path fill="#FFFFFF" stroke="#010101" stroke-miterlimit="10" d="M58.4,57.4c0,0,5.6,2.6,6.2,4c0,0-0.1-0.1-1,0
		c0,0,3.6,2.4,3.8,3.4c0,0-1.7-1.2-2.1-1.2s4,4.2,2.1,6.7c0,0,0.1-7.3-9.4-12"/>
	<path fill="#FFFFFF" stroke="#010101" stroke-miterlimit="10" d="M56.5,52.7c0,0,2.3-0.2,2.3-1.1c0-0.5-0.1-0.9-0.3-1.2
		s-0.6-0.5-1.1-0.4C57.4,50,56.2,52.2,56.5,52.7z"/>
	<path fill="#FFFFFF" stroke="#010101" stroke-miterlimit="10" d="M58.5,50.4c0,0,7.3-3.1,8.5-6.2c0,0,0.3,1-0.3,1.6
		c0,0,2.9-1.3,2.9-2.9c0,0,0.5,2.2-2.5,3.7c-3,1.6-1.7,1.4-1.7,1.4l-6.8,2.6"/>
	<path fill="#FFFFFF" stroke="#010101" stroke-miterlimit="10" d="M56.5,56.4c0,0,2.1,0,1.9,0.9s-0.4,1.4-1.2,1.2L56.5,56.4z"/>
	<path fill="#FFFFFF" stroke="#010101" stroke-miterlimit="10" d="M58.5,75.6c0,0,1.2,0.9,1.5,1.7c0.3,0.8,3.1,5.9,2,10.6
		c0,0,0.8-0.5,0.7-1c0,0,0,0.7-0.8,2.3c-0.8,1.6-0.6,2.8-1.7,3.7c0,0,1.9-5.3,1.2-7.7c-0.6-2.3,0.1-4-2.7-8.7L58.5,75.6z"/>
	<path fill="#FFFFFF" stroke="#010101" stroke-miterlimit="10" d="M56.1,70.2c0,0,4.1,5.3,4.5,6.5c0,0-1.3,0.7-2.6,0.3l-2-2.5
		L56.1,70.2z"/>
	<path fill="#FFFFFF" stroke="#010101" stroke-miterlimit="10" d="M43.8,52.7c0,0-2.3-0.2-2.3-1.1c0-0.5,0.1-0.9,0.3-1.2
		s0.6-0.5,1.1-0.4C42.9,50,44.1,52.2,43.8,52.7z"/>
	<path fill="#FFFFFF" stroke="#010101" stroke-miterlimit="10" d="M41.8,50.4c0,0-7.3-3.1-8.5-6.2c0,0-0.3,1,0.3,1.6
		c0,0-2.9-1.3-2.9-2.9c0,0-0.5,2.2,2.5,3.7c3,1.6,1.7,1.4,1.7,1.4l6.8,2.6"/>
	<path fill="#FFFFFF" stroke="#010101" stroke-miterlimit="10" d="M43.9,56.4c0,0-2.1,0-1.9,0.9s0.4,1.4,1.2,1.2L43.9,56.4z"/>
	<path fill="#FFFFFF" stroke="#010101" stroke-miterlimit="10" d="M41.8,75.6c0,0-1.2,0.9-1.5,1.7c-0.3,0.8-3.1,5.9-2,10.6
		c0,0-0.8-0.5-0.7-1c0,0,0,0.7,0.8,2.3c0.8,1.6,0.6,2.8,1.7,3.7c0,0-1.9-5.3-1.2-7.7c0.6-2.3-0.1-4,2.7-8.7L41.8,75.6z"/>
	<path fill="#FFFFFF" stroke="#010101" stroke-miterlimit="10" d="M44.2,70.2c0,0-4.1,5.3-4.5,6.5c0,0,1.3,0.7,2.6,0.3l2-2.5
		L44.2,70.2z"/>
	<g>
		<g>
			<path fill="none" stroke="#010101" stroke-miterlimit="10" d="M56.6,79.5"/>
		</g>
	</g>
	<g>
		<g>
			<path fill="none" stroke="#010101" stroke-miterlimit="10" d="M43.7,80.8"/>
		</g>
	</g>
</g>
<g id="basebody">
	<ellipse fill="#FFFFFF" stroke="#010101" stroke-miterlimit="10" cx="49.8" cy="39.7" rx="5.5" ry="5.9"/>
	<path fill="#FFFFFF" stroke="#010101" stroke-miterlimit="10" d="M43.1,44.3c0,0,7.1-9,13.6,0.6v20.7H43.1V44.3z"/>
	<path fill="#FFFFFF" stroke="#010101" stroke-miterlimit="10" d="M43.1,82.8c0,0-0.3,14.2,5.2,14.9h2.8c0,0,5.5,2.2,5.5-15.6
		l-5.1-26.4h-5.2L43.1,82.8z"/>
	<path fill="#FFFFFF" stroke="#010101" stroke-miterlimit="10" d="M50.8,43.1c0,0-3.5,33.9,5.9,39V44C56.7,44,54.5,38.9,50.8,43.1z"
		/>
	<path fill="#FFFFFF" stroke="#010101" stroke-miterlimit="10" d="M49.1,43.1c0,0,3.5,33.9-5.9,39V44C43.1,44,45.3,38.9,49.1,43.1z"
		/>
	<path fill="#FFFFFF" stroke="#010101" stroke-miterlimit="10" d="M45.8,35.3c0,0-0.4-2.6,1-3.3c1.5-0.6,1.8-0.9,1.8-0.9
		s0.9-0.6,2,0c0,0,0.3,0.3,1.8,0.9c1.5,0.6,1,3.3,1,3.3S49.8,38.8,45.8,35.3z"/>
</g>
<g id="bodycolor">
	<ellipse fill="#D0DD28" stroke="#010101" stroke-miterlimit="10" cx="49.9" cy="39.7" rx="5.5" ry="5.9"/>
	<path fill="#D0DD28" stroke="#010101" stroke-miterlimit="10" d="M43.2,44.2c0,0,7.1-9,13.6,0.6v20.7H43.2V44.2z"/>
	<path fill="#D0DD28" stroke="#010101" stroke-miterlimit="10" d="M43.2,82.8c0,0-0.3,14.2,5.2,14.9h2.8c0,0,5.5,2.2,5.5-15.6
		l-5.1-26.4h-5.2L43.2,82.8z"/>
	<path fill="#6CBE45" stroke="#010101" stroke-miterlimit="10" d="M50.9,43.1c0,0-3.5,33.9,5.9,39V44C56.8,44,54.6,38.8,50.9,43.1z"
		/>
	<path fill="#6CBE45" stroke="#010101" stroke-miterlimit="10" d="M49.1,43.1c0,0,3.5,33.9-5.9,39V44C43.2,44,45.4,38.8,49.1,43.1z"
		/>
	<path fill="#6CBE45" stroke="#010101" stroke-miterlimit="10" d="M45.9,35.2c0,0-0.4-2.6,1-3.3c1.5-0.6,1.8-0.9,1.8-0.9
		s0.9-0.6,2,0c0,0,0.3,0.3,1.8,0.9c1.5,0.6,1,3.3,1,3.3S49.8,38.8,45.9,35.2z"/>
</g>
<g id="eyes">
	<path fill="#FC8300" stroke="#010101" stroke-width="0.5" stroke-miterlimit="10" d="M45.3,34.6c0,0,1.9-5.1,3.7-2.8
		c0,0-0.4,6.3-3.9,3.5L45.3,34.6z"/>
	<path fill="#FC8300" stroke="#010101" stroke-width="0.5" stroke-miterlimit="10" d="M54,34.6c0,0-1.9-5.1-3.7-2.8
		c0,0,0.5,6.3,4.1,3.5L54,34.6z"/>
</g>
<g id="antennae">
	<path fill="none" stroke="#010101" stroke-miterlimit="10" d="M52.5,31.7c0,0-0.6-6.4,3.4-6.3s22.7,4.5,29.5,8.5s12.4,4.2,14.3,4.1
		"/>
	<path fill="none" stroke="#010101" stroke-miterlimit="10" d="M47.3,31.6c0,0,0.6-6.4-3.4-6.3c-4,0.1-22.7,4.5-29.5,8.5
		S1.9,38,0,37.9"/>
</g>
<g id="markings">
	<path fill="#010101" d="M52.9,69c0,0,0.4,7.4,2.8,10.5V69H52.9z"/>
	<path fill="#010101" d="M47,69c0,0-0.4,7.4-2.8,10.5V69H47z"/>
</g>
<g id="dots">
	<pattern  id="SVGID_4_" xlink:href="#SVGID_1_" patternTransform="matrix(0.2692 0 0 0.2692 -23830.8516 8726.1592)">
	</pattern>
	<path fill="url(#SVGID_4_)" stroke="#010101" stroke-miterlimit="10" d="M51.7,55.8"/>
	<path fill="url(#SVGID_3_)" stroke="#010101" stroke-miterlimit="10" d="M56.9,82.2c0,17.8-5.5,15.6-5.5,15.6h-2.8
		c-5.6-0.8-5.3-15-5.3-15l-0.2-0.6c0,0,4.4-1.9,5.7-12.5s0.8-11.5,0.8-11.5s0.8,17.6,4.4,21.4l2.1,2.3L56.9,82.2z"/>
	<pattern  id="SVGID_5_" xlink:href="#SVGID_3_" patternTransform="matrix(0.2692 0 0 0.2692 -23831.9375 8727.2305)">
	</pattern>
	<path fill="url(#SVGID_5_)" stroke="#010101" stroke-miterlimit="10" d="M46.6,55.8"/>
</g>
<g id="fur">
	<g>
		<g>
			<path fill="none" stroke="#0000FF" stroke-miterlimit="10" d="M52.2,24.5"/>
		</g>
	</g>
	<g>
		<g>
			<path fill="none" stroke="#0000FF" stroke-miterlimit="10" d="M2.9,95"/>
		</g>
	</g>
	<g>
		<g>
			<g>
				<g>
					<path fill="none" stroke="#0000FF" stroke-miterlimit="10" d="M49.2,42.7C49.3,42.7,49.3,42.6,49.2,42.7c0.2,0,0.2,0.1,0.3,0.2
						c0.1-0.3,0.3-0.7,0.4-1c0,0-0.3,0.1-0.7,0.2c-0.3,0.1-0.6,0.2-0.6,0.2"/>
				</g>
				<g>
					<path fill="none" stroke="#0000FF" stroke-miterlimit="10" d="M48.4,42.2c0,0,0.1-0.3,0.2-0.6c0.1-0.3,0.1-0.6,0.1-0.6
						s-0.3,0.2-0.6,0.3c-0.3,0.2-0.6,0.4-0.6,0.4"/>
				</g>
				<g>
					<path fill="none" stroke="#0000FF" stroke-miterlimit="10" d="M47.3,41.6c0,0,0-0.3,0-0.6s-0.1-0.6-0.1-0.6s-0.3,0.2-0.5,0.5
						s-0.3,0.6-0.3,0.6"/>
				</g>
				<g>
					<path fill="none" stroke="#0000FF" stroke-miterlimit="10" d="M46.1,41.4c0,0-0.1-0.3-0.3-0.6s-0.4-0.5-0.4-0.5
						s-0.1,0.3-0.2,0.7c-0.1,0.3-0.1,0.7-0.1,0.7"/>
				</g>
				<g>
					<path fill="none" stroke="#0000FF" stroke-miterlimit="10" d="M45,41.7c0,0-0.2-0.2-0.5-0.4S43.9,41,43.9,41s0,0.3,0.1,0.7
						s0.2,0.7,0.2,0.7"/>
				</g>
				<g>
					<path fill="none" stroke="#0000FF" stroke-miterlimit="10" d="M44,42.5c0,0-0.3-0.1-0.6-0.2c-0.3-0.1-0.6-0.2-0.6-0.2
						s0.1,0.3,0.3,0.6c0.1,0.3,0.3,0.6,0.3,0.6"/>
				</g>
				<g>
					<path fill="none" stroke="#0000FF" stroke-miterlimit="10" d="M43.2,43.6c0,0-0.1,0-0.2,0s-0.3-0.1-0.4-0.1s-0.3,0.1-0.4,0.1
						c-0.1,0-0.1,0.1-0.1,0.1H42l1.2,0.7"/>
				</g>
				<g>
					<polyline fill="none" stroke="#0000FF" stroke-miterlimit="10" points="43.2,44.6 42,45.2 43.2,45.9 					"/>
				</g>
				<g>
					<polyline fill="none" stroke="#0000FF" stroke-miterlimit="10" points="43.2,46.1 42,46.6 43.2,47.4 					"/>
				</g>
				<g>
					<polyline fill="none" stroke="#0000FF" stroke-miterlimit="10" points="43.2,47.6 42,48.1 43.2,48.9 					"/>
				</g>
				<g>
					<polyline fill="none" stroke="#0000FF" stroke-miterlimit="10" points="43.2,49.1 42,49.6 43.2,50.3 					"/>
				</g>
				<g>
					<polyline fill="none" stroke="#0000FF" stroke-miterlimit="10" points="43.2,50.6 42,51.1 43.2,51.8 					"/>
				</g>
				<g>
					<polyline fill="none" stroke="#0000FF" stroke-miterlimit="10" points="43.2,52.1 42,52.6 43.2,53.3 					"/>
				</g>
				<g>
					<polyline fill="none" stroke="#0000FF" stroke-miterlimit="10" points="43.2,53.5 42,54.1 43.2,54.8 					"/>
				</g>
				<g>
					<polyline fill="none" stroke="#0000FF" stroke-miterlimit="10" points="43.2,55 42,55.5 43.2,56.3 					"/>
				</g>
				<g>
					<polyline fill="none" stroke="#0000FF" stroke-miterlimit="10" points="43.2,56.5 42,57 43.2,57.7 					"/>
				</g>
				<g>
					<polyline fill="none" stroke="#0000FF" stroke-miterlimit="10" points="43.2,58 42,58.5 43.2,59.2 					"/>
				</g>
				<g>
					<polyline fill="none" stroke="#0000FF" stroke-miterlimit="10" points="43.2,59.5 42,60 43.2,60.7 					"/>
				</g>
				<g>
					<polyline fill="none" stroke="#0000FF" stroke-miterlimit="10" points="43.2,60.9 42,61.5 43.2,62.2 					"/>
				</g>
				<g>
					<polyline fill="none" stroke="#0000FF" stroke-miterlimit="10" points="43.2,62.4 42,63 43.2,63.7 					"/>
				</g>
				<g>
					<polyline fill="none" stroke="#0000FF" stroke-miterlimit="10" points="43.2,63.9 42,64.4 43.2,65.2 					"/>
				</g>
				<g>
					<polyline fill="none" stroke="#0000FF" stroke-miterlimit="10" points="43.2,65.4 42,65.9 43.2,66.6 					"/>
				</g>
				<g>
					<polyline fill="none" stroke="#0000FF" stroke-miterlimit="10" points="43.2,66.9 42,67.4 43.2,68.1 					"/>
				</g>
				<g>
					<polyline fill="none" stroke="#0000FF" stroke-miterlimit="10" points="43.2,68.4 42,68.9 43.2,69.6 					"/>
				</g>
				<g>
					<polyline fill="none" stroke="#0000FF" stroke-miterlimit="10" points="43.2,69.9 42,70.4 43.2,71.1 					"/>
				</g>
				<g>
					<polyline fill="none" stroke="#0000FF" stroke-miterlimit="10" points="43.2,71.3 42,71.8 43.2,72.6 					"/>
				</g>
				<g>
					<polyline fill="none" stroke="#0000FF" stroke-miterlimit="10" points="43.2,72.8 42,73.3 43.2,74.1 					"/>
				</g>
				<g>
					<polyline fill="none" stroke="#0000FF" stroke-miterlimit="10" points="43.2,74.3 42,74.8 43.2,75.6 					"/>
				</g>
				<g>
					<polyline fill="none" stroke="#0000FF" stroke-miterlimit="10" points="43.2,75.8 42,76.3 43.2,77 					"/>
				</g>
				<g>
					<polyline fill="none" stroke="#0000FF" stroke-miterlimit="10" points="43.2,77.3 42,77.8 43.2,78.5 					"/>
				</g>
				<g>
					<path fill="none" stroke="#0000FF" stroke-miterlimit="10" d="M43.2,78.8c0,0-0.3,0.1-0.6,0.2S42,79.2,42,79.2l1.2,0.8"/>
				</g>
				<g>
					<path fill="none" stroke="#0000FF" stroke-miterlimit="10" d="M43.1,80.2l-1.2,0.5c0,0,0.3,0.2,0.6,0.4
						c0.3,0.2,0.6,0.4,0.6,0.4"/>
				</g>
				<g>
					<path fill="none" stroke="#0000FF" stroke-miterlimit="10" d="M43,81.7l-1.2,0.5c0,0,0.3,0.2,0.6,0.3c0.3,0.2,0.6,0.3,0.6,0.3"
						/>
				</g>
				<g>
					<path fill="none" stroke="#0000FF" stroke-miterlimit="10" d="M43,83.2l-1.2,0.5c0,0,0.3,0.2,0.6,0.3c0.3,0.2,0.6,0.3,0.6,0.3"
						/>
				</g>
				<g>
					<path fill="none" stroke="#0000FF" stroke-miterlimit="10" d="M43.1,84.6c0,0-0.3,0.1-0.6,0.3c-0.3,0.1-0.6,0.3-0.6,0.3
						s0.3,0.2,0.6,0.3c0.3,0.2,0.6,0.3,0.6,0.3"/>
				</g>
				<g>
					<path fill="none" stroke="#0000FF" stroke-miterlimit="10" d="M43.1,86.1c0,0-0.3,0.2-0.6,0.3c-0.3,0.2-0.6,0.3-0.6,0.3
						s0.3,0.2,0.6,0.3c0.3,0.2,0.6,0.3,0.6,0.3"/>
				</g>
				<g>
					<path fill="none" stroke="#0000FF" stroke-miterlimit="10" d="M43.2,87.6c0,0-0.3,0.2-0.6,0.3c-0.3,0.2-0.6,0.3-0.6,0.3
						s0.3,0.1,0.6,0.3c0.3,0.1,0.6,0.3,0.6,0.3"/>
				</g>
				<g>
					<path fill="none" stroke="#0000FF" stroke-miterlimit="10" d="M43.4,89c0,0-0.3,0.2-0.6,0.3c-0.3,0.2-0.6,0.3-0.6,0.3
						s0.3,0.1,0.6,0.3c0.3,0.1,0.6,0.2,0.6,0.2"/>
				</g>
				<g>
					<path fill="none" stroke="#0000FF" stroke-miterlimit="10" d="M43.6,90.4c0,0-0.3,0.2-0.5,0.4c-0.3,0.2-0.5,0.4-0.5,0.4
						s0.3,0.1,0.7,0.2c0.3,0.1,0.7,0.2,0.7,0.2"/>
				</g>
				<g>
					<path fill="none" stroke="#0000FF" stroke-miterlimit="10" d="M43.9,91.8c0,0-0.3,0.2-0.5,0.4c-0.3,0.2-0.5,0.4-0.5,0.4
						s0.3,0.1,0.7,0.2c0.3,0.1,0.7,0.2,0.7,0.2"/>
				</g>
				<g>
					<path fill="none" stroke="#0000FF" stroke-miterlimit="10" d="M44.3,93.2c0,0-0.2,0.2-0.5,0.4c-0.2,0.2-0.5,0.5-0.5,0.5
						s0.3,0.1,0.7,0.1c0.3,0.1,0.7,0.1,0.7,0.1"/>
				</g>
				<g>
					<path fill="none" stroke="#0000FF" stroke-miterlimit="10" d="M44.8,94.5c0,0-0.2,0.2-0.5,0.5c-0.2,0.2-0.4,0.5-0.4,0.5
						s0.3,0,0.7,0.1c0.3,0,0.7,0,0.7,0"/>
				</g>
				<g>
					<path fill="none" stroke="#0000FF" stroke-miterlimit="10" d="M45.4,95.8c0,0-0.2,0.3-0.4,0.5c-0.2,0.3-0.4,0.6-0.4,0.6
						s0.3,0,0.7-0.1c0.3,0,0.7-0.1,0.7-0.1"/>
				</g>
				<g>
					<path fill="none" stroke="#0000FF" stroke-miterlimit="10" d="M46.2,96.9c0,0-0.2,0.3-0.3,0.6c-0.1,0.3-0.2,0.6-0.2,0.6
						s0.3-0.1,0.7-0.2c0.2-0.1,0.3-0.2,0.4-0.3c0.1-0.1,0.1-0.2,0.1-0.2"/>
				</g>
				<g>
					<path fill="none" stroke="#0000FF" stroke-miterlimit="10" d="M47.7,97.5c0,0,0,0.3,0,0.6c0,0.3,0.1,0.7,0.1,0.7
						s0.3-0.2,0.5-0.5c0.2-0.2,0.5-0.5,0.5-0.5"/>
				</g>
				<g>
					<path fill="none" stroke="#0000FF" stroke-miterlimit="10" d="M49,97.9c0,0,0.1,0.3,0.1,0.6c0.1,0.3,0.2,0.6,0.2,0.6
						s0.2-0.3,0.4-0.6c0.2-0.3,0.4-0.6,0.4-0.6"/>
				</g>
				<g>
					<path fill="none" stroke="#0000FF" stroke-miterlimit="10" d="M50.3,98.1c0,0,0.1,0.3,0.3,0.6c0.1,0.3,0.3,0.6,0.3,0.6
						s0.2-0.3,0.3-0.6c0.1-0.3,0.2-0.6,0.2-0.6"/>
				</g>
				<g>
					<path fill="none" stroke="#0000FF" stroke-miterlimit="10" d="M51.6,97.9c0,0,0.2,0.3,0.4,0.5s0.5,0.5,0.5,0.5s0.1-0.3,0.1-0.7
						c0.1-0.3,0-0.7,0-0.7"/>
				</g>
				<g>
					<path fill="none" stroke="#0000FF" stroke-miterlimit="10" d="M52.8,97.4c0,0,0.2,0.2,0.5,0.4c0.3,0.2,0.6,0.3,0.6,0.3
						s0-0.3-0.1-0.7c-0.1-0.3-0.2-0.7-0.2-0.7"/>
				</g>
				<g>
					<path fill="none" stroke="#0000FF" stroke-miterlimit="10" d="M53.8,96.6c0,0,0.3,0.1,0.6,0.2S55,97,55,97
						c-0.1-0.4-0.3-0.7-0.2-0.9c-0.1-0.1-0.2-0.2-0.2-0.2l-0.1-0.1l-0.1-0.2"/>
				</g>
				<g>
					<path fill="none" stroke="#0000FF" stroke-miterlimit="10" d="M54.6,95.6c0,0,0.3,0.1,0.6,0.1c0.3,0.1,0.7,0.1,0.7,0.1
						s-0.2-0.3-0.4-0.6c-0.2-0.3-0.4-0.6-0.4-0.6"/>
				</g>
				<g>
					<path fill="none" stroke="#0000FF" stroke-miterlimit="10" d="M55.2,94.4c0,0,0.3,0,0.6,0s0.7,0,0.7,0s-0.2-0.3-0.4-0.5
						s-0.5-0.5-0.5-0.5"/>
				</g>
				<g>
					<path fill="none" stroke="#0000FF" stroke-miterlimit="10" d="M55.7,93.1c0,0,0.3,0,0.6-0.1s0.6-0.1,0.6-0.1s-0.2-0.3-0.5-0.5
						c-0.2-0.2-0.5-0.5-0.5-0.5"/>
				</g>
				<g>
					<path fill="none" stroke="#0000FF" stroke-miterlimit="10" d="M56.1,91.7c0,0,0.3-0.1,0.6-0.1s0.6-0.1,0.6-0.1S57,91.3,56.8,91
						c-0.3-0.2-0.5-0.4-0.5-0.4"/>
				</g>
				<g>
					<path fill="none" stroke="#0000FF" stroke-miterlimit="10" d="M56.4,90.3c0,0,0.3-0.1,0.6-0.2s0.6-0.2,0.6-0.2
						s-0.3-0.2-0.6-0.4c-0.3-0.2-0.6-0.4-0.6-0.4"/>
				</g>
				<g>
					<path fill="none" stroke="#0000FF" stroke-miterlimit="10" d="M56.5,88.9c0,0,0.3-0.1,0.6-0.2s0.6-0.2,0.6-0.2
						s-0.3-0.2-0.6-0.4c-0.3-0.2-0.6-0.4-0.6-0.4"/>
				</g>
				<g>
					<path fill="none" stroke="#0000FF" stroke-miterlimit="10" d="M56.6,87.4c0,0,0.3-0.1,0.6-0.2s0.6-0.3,0.6-0.3
						s-0.3-0.2-0.6-0.3c-0.3-0.2-0.6-0.3-0.6-0.3"/>
				</g>
				<g>
					<path fill="none" stroke="#0000FF" stroke-miterlimit="10" d="M56.6,86c0,0,0.3-0.1,0.6-0.3c0.3-0.1,0.6-0.3,0.6-0.3
						s-0.1-0.1-0.2-0.1s-0.3-0.1-0.4-0.2c-0.3-0.2-0.6-0.4-0.6-0.4"/>
				</g>
				<g>
					<polyline fill="none" stroke="#0000FF" stroke-miterlimit="10" points="56.6,84.4 57.8,84 56.6,83.2 					"/>
				</g>
				<g>
					<polyline fill="none" stroke="#0000FF" stroke-miterlimit="10" points="56.6,83 57.8,82.4 56.6,81.7 					"/>
				</g>
				<g>
					<polyline fill="none" stroke="#0000FF" stroke-miterlimit="10" points="56.7,81.5 57.9,81 56.7,80.2 					"/>
				</g>
				<g>
					<polyline fill="none" stroke="#0000FF" stroke-miterlimit="10" points="56.7,80 57.9,79.5 56.8,78.8 					"/>
				</g>
				<g>
					<polyline fill="none" stroke="#0000FF" stroke-miterlimit="10" points="56.8,78.5 58,78 56.8,77.3 					"/>
				</g>
				<g>
					<polyline fill="none" stroke="#0000FF" stroke-miterlimit="10" points="56.8,77 58,76.5 56.8,75.8 					"/>
				</g>
				<g>
					<polyline fill="none" stroke="#0000FF" stroke-miterlimit="10" points="56.8,75.6 58,75 56.8,74.3 					"/>
				</g>
				<g>
					<polyline fill="none" stroke="#0000FF" stroke-miterlimit="10" points="56.8,74.1 58,73.6 56.8,72.8 					"/>
				</g>
				<g>
					<polyline fill="none" stroke="#0000FF" stroke-miterlimit="10" points="56.8,72.6 58,72.1 56.8,71.3 					"/>
				</g>
				<g>
					<polyline fill="none" stroke="#0000FF" stroke-miterlimit="10" points="56.8,71.1 58,70.6 56.8,69.9 					"/>
				</g>
				<g>
					<polyline fill="none" stroke="#0000FF" stroke-miterlimit="10" points="56.8,69.6 58,69.1 56.8,68.4 					"/>
				</g>
				<g>
					<polyline fill="none" stroke="#0000FF" stroke-miterlimit="10" points="56.8,68.1 58,67.6 56.8,66.9 					"/>
				</g>
				<g>
					<polyline fill="none" stroke="#0000FF" stroke-miterlimit="10" points="56.8,66.6 58,66.1 56.8,65.4 					"/>
				</g>
				<g>
					<polyline fill="none" stroke="#0000FF" stroke-miterlimit="10" points="56.8,65.2 58,64.7 56.8,63.9 					"/>
				</g>
				<g>
					<polyline fill="none" stroke="#0000FF" stroke-miterlimit="10" points="56.8,63.7 58,63.2 56.8,62.4 					"/>
				</g>
				<g>
					<polyline fill="none" stroke="#0000FF" stroke-miterlimit="10" points="56.8,62.2 58,61.7 56.8,61 					"/>
				</g>
				<g>
					<polyline fill="none" stroke="#0000FF" stroke-miterlimit="10" points="56.8,60.7 58,60.2 56.8,59.5 					"/>
				</g>
				<g>
					<polyline fill="none" stroke="#0000FF" stroke-miterlimit="10" points="56.8,59.2 58,58.7 56.8,58 					"/>
				</g>
				<g>
					<polyline fill="none" stroke="#0000FF" stroke-miterlimit="10" points="56.8,57.8 58,57.2 56.8,56.5 					"/>
				</g>
				<g>
					<polyline fill="none" stroke="#0000FF" stroke-miterlimit="10" points="56.8,56.3 58,55.7 56.8,55 					"/>
				</g>
				<g>
					<polyline fill="none" stroke="#0000FF" stroke-miterlimit="10" points="56.8,54.8 58,54.3 56.8,53.5 					"/>
				</g>
				<g>
					<polyline fill="none" stroke="#0000FF" stroke-miterlimit="10" points="56.8,53.3 58,52.8 56.8,52.1 					"/>
				</g>
				<g>
					<polyline fill="none" stroke="#0000FF" stroke-miterlimit="10" points="56.8,51.8 58,51.3 56.8,50.6 					"/>
				</g>
				<g>
					<polyline fill="none" stroke="#0000FF" stroke-miterlimit="10" points="56.8,50.3 58,49.8 56.8,49.1 					"/>
				</g>
				<g>
					<polyline fill="none" stroke="#0000FF" stroke-miterlimit="10" points="56.8,48.9 58,48.3 56.8,47.6 					"/>
				</g>
				<g>
					<polyline fill="none" stroke="#0000FF" stroke-miterlimit="10" points="56.8,47.4 58,46.8 56.8,46.1 					"/>
				</g>
				<g>
					<polyline fill="none" stroke="#0000FF" stroke-miterlimit="10" points="56.8,45.9 58,45.4 56.8,44.7 					"/>
				</g>
				<g>
					<path fill="none" stroke="#0000FF" stroke-miterlimit="10" d="M56.8,44.4l1.2-0.5c0,0-0.1-0.1-0.2-0.1
						c-0.1-0.1-0.3-0.2-0.4-0.2c-0.1,0-0.2-0.1-0.2-0.1c-0.1,0-0.2,0-0.2,0c-0.1,0-0.2,0.1-0.2,0.1"/>
				</g>
				<g>
					<path fill="none" stroke="#0000FF" stroke-miterlimit="10" d="M56.7,43.4c0,0,0.2-0.3,0.4-0.5c0.2-0.3,0.3-0.6,0.3-0.6
						s-0.3,0-0.7,0.1c-0.3,0.1-0.7,0.2-0.7,0.2"/>
				</g>
				<g>
					<path fill="none" stroke="#0000FF" stroke-miterlimit="10" d="M55.9,42.4c0,0,0.1-0.3,0.2-0.6c0.1-0.3,0.2-0.6,0.2-0.6
						s-0.3,0.1-0.6,0.3s-0.6,0.3-0.6,0.3"/>
				</g>
				<g>
					<path fill="none" stroke="#0000FF" stroke-miterlimit="10" d="M54.9,41.6c0,0,0-0.3,0-0.6s-0.1-0.7-0.1-0.7s-0.3,0.2-0.5,0.5
						s-0.4,0.6-0.4,0.6"/>
				</g>
				<g>
					<path fill="none" stroke="#0000FF" stroke-miterlimit="10" d="M53.7,41.4c0,0-0.1-0.3-0.3-0.6s-0.3-0.6-0.3-0.6
						s-0.2,0.3-0.2,0.7c-0.1,0.3-0.1,0.7-0.1,0.7"/>
				</g>
				<g>
					<path fill="none" stroke="#0000FF" stroke-miterlimit="10" d="M52.6,41.6c0,0-0.2-0.2-0.5-0.5c-0.2-0.2-0.5-0.4-0.5-0.4
						s0,0.3,0,0.7c0,0.3,0.1,0.7,0.1,0.7"/>
				</g>
				<g>
					<path fill="none" stroke="#0000FF" stroke-miterlimit="10" d="M51.5,42.3c0,0-0.3-0.2-0.6-0.3c-0.3-0.2-0.6-0.3-0.6-0.3
						c0.1,0.4,0.2,0.8,0,0.9c0.1,0,0.3-0.1,0.3-0.1l0.3,0.1"/>
				</g>
			</g>
		</g>
	</g>
</g>
<g id="leaf">
	<g>
		<path fill="#A8CF38" stroke="#010101" stroke-width="0.5" stroke-linecap="round" stroke-linejoin="round" d="M48.3,23.3
			c0,0-2.3-4-2-6l0.6,0.2c0,0-0.5-0.6,0.1-3l0.5,0.4c0,0-0.4-1.2,0.4-2.8l0.5,0.4c0,0,0.2-1.1,0.7-2.2l0.5,0.3c0,0-0.1-1.3,0.3-2.3
			l0.5,0.4c0,0,0.2-1.7,1.1-2L51.4,7c0,0,0.6-1,1.6-1.6l0.4,0.5c0,0,0-1,1.2-1.5l0.2,0.4c0,0,0.1-1.4,1.2-1.6l0.3,0.7
			c0,0,1.9-1.8,2.3-1.8l0.7,0.3c0.1,0.3,0,3,0,3L60,5.2c0.5,1-0.5,2-0.5,2H60C60.4,8.4,59.5,9,59.5,9l0.6,0.1
			c0.1,1.1-0.3,2.2-0.3,2.2l0.4-0.1c0.3,0.9-0.9,2.1-0.9,2.1l0.6,0.1c-0.5,1-1.6,1.7-1.6,1.7l0.6,0.2c-0.6,1-1.4,1.9-1.4,1.9
			l0.6,0.1c-0.8,1.6-2,2-2,2l0.6,0.1c-1.6,1.9-2.4,1.9-2.4,1.9l0.5,0.3c-1.4,1.5-6,2.1-6,2.1L48.3,23.3z"/>
		<path fill="#A8CF38" stroke="#010101" stroke-width="0.5" stroke-linecap="round" stroke-linejoin="round" d="M48.7,23.5
			c0,0-2.3-4-2-6l0.6,0.2c0,0-0.5-0.6,0.1-3l0.5,0.4c0,0-0.4-1.2,0.4-2.8l0.5,0.4c0,0,0.2-1.1,0.7-2.2l0.5,0.3c0,0-0.1-1.3,0.3-2.3
			l0.5,0.4c0,0,0.2-1.7,1.1-2L52,7.3c0,0,0.6-1,1.6-1.6L53.8,6c0,0,0-1,1.2-1.5l0.2,0.4c0,0,0.1-1.4,1.2-1.6L56.8,4
			c0,0,1.9-1.8,2.3-1.8l0.7,0.3c0.1,0.3,0,3,0,3l0.7-0.2c0.5,1-0.5,2-0.5,2h0.5C60.9,8.5,60,9.1,60,9.1l0.6,0.1
			c0.1,1.1-0.3,2.2-0.3,2.2l0.4-0.1c0.3,0.9-0.9,2.1-0.9,2.1l0.6,0.1c-0.5,1-1.6,1.7-1.6,1.7l0.6,0.2c-0.6,1-1.4,1.9-1.4,1.9
			l0.6,0.1c-0.8,1.6-2,2-2,2l0.6,0.1c-1.6,1.9-2.4,1.9-2.4,1.9l0.5,0.3c-1.4,1.5-6,2.1-6,2.1L48.7,23.5z"/>
		
			<line fill="none" stroke="#010101" stroke-width="0.5" stroke-linecap="round" stroke-linejoin="round" x1="59.3" y1="2.5" x2="48.9" y2="23.6"/>
		<g>
			
				<line fill="none" stroke="#010101" stroke-width="0.5" stroke-linecap="round" stroke-linejoin="round" x1="56.9" y1="3.7" x2="57.2" y2="5.4"/>
			
				<line fill="none" stroke="#010101" stroke-width="0.5" stroke-linecap="round" stroke-linejoin="round" x1="55.3" y1="5" x2="56.3" y2="7"/>
			
				<line fill="none" stroke="#010101" stroke-width="0.5" stroke-linecap="round" stroke-linejoin="round" x1="53.9" y1="6" x2="55.3" y2="8.6"/>
			
				<line fill="none" stroke="#010101" stroke-width="0.5" stroke-linecap="round" stroke-linejoin="round" x1="51.8" y1="7.1" x2="54" y2="10.3"/>
			
				<line fill="none" stroke="#010101" stroke-width="0.5" stroke-linecap="round" stroke-linejoin="round" x1="50.7" y1="8.7" x2="53.5" y2="12.1"/>
			
				<line fill="none" stroke="#010101" stroke-width="0.5" stroke-linecap="round" stroke-linejoin="round" x1="49.7" y1="10.7" x2="52.5" y2="13.7"/>
			
				<line fill="none" stroke="#010101" stroke-width="0.5" stroke-linecap="round" stroke-linejoin="round" x1="48.6" y1="12.4" x2="51" y2="15.7"/>
			
				<line fill="none" stroke="#010101" stroke-width="0.5" stroke-linecap="round" stroke-linejoin="round" x1="47.7" y1="14.9" x2="50.6" y2="18.5"/>
			
				<line fill="none" stroke="#010101" stroke-width="0.5" stroke-linecap="round" stroke-linejoin="round" x1="47.2" y1="17.5" x2="49.5" y2="21.3"/>
		</g>
		<g>
			
				<line fill="none" stroke="#010101" stroke-width="0.5" stroke-linecap="round" stroke-linejoin="round" x1="60.1" y1="5.3" x2="58.6" y2="6.1"/>
			
				<line fill="none" stroke="#010101" stroke-width="0.5" stroke-linecap="round" stroke-linejoin="round" x1="60.1" y1="7.4" x2="57.9" y2="7.8"/>
			
				<line fill="none" stroke="#010101" stroke-width="0.5" stroke-linecap="round" stroke-linejoin="round" x1="60.1" y1="9.1" x2="57.2" y2="9.6"/>
			
				<line fill="none" stroke="#010101" stroke-width="0.5" stroke-linecap="round" stroke-linejoin="round" x1="60.5" y1="11.4" x2="56.6" y2="11.6"/>
			
				<line fill="none" stroke="#010101" stroke-width="0.5" stroke-linecap="round" stroke-linejoin="round" x1="59.9" y1="13.2" x2="55.5" y2="13.1"/>
			
				<line fill="none" stroke="#010101" stroke-width="0.5" stroke-linecap="round" stroke-linejoin="round" x1="59" y1="15.3" x2="54.8" y2="14.9"/>
			
				<line fill="none" stroke="#010101" stroke-width="0.5" stroke-linecap="round" stroke-linejoin="round" x1="58.3" y1="17.2" x2="54.2" y2="17.2"/>
			
				<line fill="none" stroke="#010101" stroke-width="0.5" stroke-linecap="round" stroke-linejoin="round" x1="56.8" y1="19.4" x2="52.3" y2="19.3"/>
			
				<line fill="none" stroke="#010101" stroke-width="0.5" stroke-linecap="round" stroke-linejoin="round" x1="55" y1="21.4" x2="50.6" y2="21.9"/>
		</g>
		<path fill="#FFFFFF" stroke="#010101" stroke-width="0.5" stroke-linecap="round" stroke-linejoin="round" d="M61.1,9.3
			c0,0-1.5,0.4-1.1,1.2c0,0-1.9,0.3-1,1.7c0,0,0.5,1,1.3,0.6c0,0-0.5,0.8,0.3,0.7c0.8-0.2,0.6-0.2,0.6-0.2"/>
		<path fill="#FFFFFF" stroke="#010101" stroke-width="0.5" stroke-miterlimit="10" d="M51,11.4c-0.1,0.3-0.3,0.6-0.4,1
			c0.4,0.3,0.9-0.3,1.1-0.7c-0.2,0.5-0.1,1.7,0.7,0.9c-0.1,0.5,0.2,0.6,0.6,0.8c-0.1,0.5-0.6,0.6-0.9,0.9c-0.2,0.2-0.2,0.5-0.4,0.7
			c-0.3-0.2-0.3-0.6-0.6-0.8c-0.2,0.1-0.7,0.8-0.9,0.8s-0.5-0.6-0.8-0.7c0.1-0.3,0.3-0.5,0.4-0.8c-0.1-0.1-0.1-0.1-0.1-0.1
			c0.1-0.3,0.7-2.2,1.1-1.7"/>
		<path fill="#FFFFFF" stroke="#010101" stroke-width="0.5" stroke-miterlimit="10" d="M56.3,7.3c0.5-0.4,0.5-0.9,1.1-1.2
			c0.1,0.2-0.1,0.8,0.1,0.8c0.3,0.3,0.9-0.4,1.2-0.6c-0.1,0.1-0.3,0.6-0.2,0.8c0.2,0.4,0.6,0.1,0.9,0.1c-0.2,0.5-0.6,0.9-0.9,1.5
			c-0.2,0.3-0.2,0.6-0.3,1c-0.6-0.2-1-0.7-1.2-1.3c-0.2,0.3-0.9,1.6-1,0.5c-0.1-0.6,0.4-1.2,0.5-1.8"/>
		<path fill="#FFFFFF" stroke="#010101" stroke-width="0.5" stroke-miterlimit="10" d="M55.5,16.1c0,0.4-0.5,0.8-0.5,1.2
			c0,0.5,0.6,0.9,1.1,0.9c-0.5,0.2-1.1,0.5-1.3,1c0.2,0.2,0.6,0.3,0.9,0.5c-0.2,0.1-1.5,0.7-0.8,1c-0.2,0.5-1.5-0.2-1.8-0.5
			c-0.7-0.6-0.4-1.3-0.1-2c0.4-1,1.3-2.1,2.6-1.9"/>
	</g>
</g>
<g id="water">
	<g>
		<path fill="#55C2E2" stroke="#070707" stroke-width="0.5" stroke-miterlimit="10" d="M36,6c0,0-9.7,11.2-1.1,13.8
			c0,0,7-0.2,3.9-8.3C38.8,11.5,36.2,8.3,36,6z"/>
		<path fill="none" stroke="#3A97AD" stroke-miterlimit="10" d="M35.4,18.9c1.4,0.6,3.6-2.8,3.5-4"/>
		
			<ellipse transform="matrix(0.7903 -0.6127 0.6127 0.7903 -3.3367 24.4874)" opacity="0.8" fill="#FFFFFF" enable-background="new    " cx="34.1" cy="17.1" rx="1.3" ry="1.6"/>
		<path opacity="0.8" fill="#FFFFFF" enable-background="new    " d="M33.1,10.9c0,0,1.3-3.1,2.8-3.9"/>
	</g>
	<g>
		<path fill="#55C2E2" stroke="#070707" stroke-width="0.5" stroke-miterlimit="10" d="M73.2,72.4c0,0-9.7,11.2-1.1,13.8
			c0,0,7-0.2,3.9-8.3C76,77.9,73.4,74.8,73.2,72.4z"/>
		<path fill="none" stroke="#3A97AD" stroke-miterlimit="10" d="M72.6,85.3c1.4,0.6,3.6-2.8,3.5-4"/>
		
			<ellipse transform="matrix(0.7903 -0.6127 0.6127 0.7903 -36.262 61.1415)" opacity="0.8" fill="#FFFFFF" enable-background="new    " cx="71.2" cy="83.5" rx="1.3" ry="1.6"/>
		<path opacity="0.8" fill="#FFFFFF" enable-background="new    " d="M70.4,77.4c0,0,1.3-3.1,2.8-3.9"/>
	</g>
	<g>
		<path fill="#55C2E2" stroke="#070707" stroke-width="0.5" stroke-miterlimit="10" d="M70,50c0,0-5.8,6.8-0.7,8.3
			c0,0,4.2-0.1,2.4-5C71.7,53.3,70.1,51.4,70,50z"/>
		<path fill="none" stroke="#3A97AD" stroke-miterlimit="10" d="M69.7,57.8c0.8,0.4,2.2-1.7,2.1-2.4"/>
		
			<ellipse transform="matrix(0.7902 -0.6129 0.6129 0.7902 -20.7592 54.2286)" opacity="0.8" fill="#FFFFFF" enable-background="new    " cx="68.8" cy="57.4" rx="0.5" ry="0.6"/>
		<path opacity="0.8" fill="#FFFFFF" enable-background="new    " d="M68.3,53c0,0,0.8-1.9,1.7-2.4"/>
	</g>
	<g>
		<path fill="#55C2E2" stroke="#070707" stroke-width="0.5" stroke-miterlimit="10" d="M31,50c0,0-5.8,6.8-0.7,8.3
			c0,0,4.2-0.1,2.4-5C32.7,53.3,31.1,51.4,31,50z"/>
		<path fill="none" stroke="#3A97AD" stroke-miterlimit="10" d="M30.7,57.8c0.8,0.4,2.2-1.7,2.1-2.4"/>
		
			<ellipse transform="matrix(0.7904 -0.6126 0.6126 0.7904 -28.9936 30.2866)" opacity="0.8" fill="#FFFFFF" enable-background="new    " cx="29.8" cy="57.5" rx="0.5" ry="0.6"/>
		<path opacity="0.8" fill="#FFFFFF" enable-background="new    " d="M29.3,53c0,0,0.8-1.9,1.7-2.4"/>
	</g>
	<g>
		<path fill="#55C2E2" stroke="#070707" stroke-width="0.5" stroke-miterlimit="10" d="M64,35.3c0,0-3.6,4.2-0.4,5.2
			c0,0,2.6-0.1,1.5-3.1C65,37.4,64,36.2,64,35.3z"/>
		<path fill="none" stroke="#3A97AD" stroke-miterlimit="10" d="M63.8,40.1c0.5,0.2,1.4-1,1.3-1.5"/>
		
			<ellipse transform="matrix(0.7906 -0.6123 0.6123 0.7906 -10.9163 46.8357)" opacity="0.8" fill="#FFFFFF" enable-background="new    " cx="63" cy="39.4" rx="0.2" ry="0.3"/>
		<path opacity="0.8" fill="#FFFFFF" enable-background="new    " d="M62.9,37.1c0,0,0.5-1.2,1-1.5"/>
	</g>
	<g>
		<path fill="#55C2E2" stroke="#070707" stroke-width="0.5" stroke-miterlimit="10" d="M32.4,75.4c0,0-3.6,4.2-0.4,5.2
			c0,0,2.6-0.1,1.5-3.1C33.5,77.5,32.5,76.3,32.4,75.4z"/>
		<path fill="none" stroke="#3A97AD" stroke-miterlimit="10" d="M32.2,80.2c0.5,0.2,1.4-1,1.3-1.5"/>
		
			<ellipse transform="matrix(0.7904 -0.6126 0.6126 0.7904 -42.1676 36.0638)" opacity="0.8" fill="#FFFFFF" enable-background="new    " cx="31.6" cy="79.7" rx="0.2" ry="0.3"/>
		<path opacity="0.8" fill="#FFFFFF" enable-background="new    " d="M31.3,77.3c0,0,0.5-1.2,1-1.5"/>
	</g>
</g>
</svg>
