<?xml version="1.0" encoding="utf-8"?>
<!-- Generator: Adobe Illustrator 17.1.0, SVG Export Plug-In . SVG Version: 6.00 Build 0)  -->
<!DOCTYPE svg PUBLIC "-//W3C//DTD SVG 1.1//EN" "http://www.w3.org/Graphics/SVG/1.1/DTD/svg11.dtd">
<svg version="1.1" id="Layer_1" xmlns="http://www.w3.org/2000/svg" xmlns:xlink="http://www.w3.org/1999/xlink" x="0px" y="0px"
	 viewBox="0 0 100 100" enable-background="new 0 0 100 100" xml:space="preserve">
<pattern  y="100" width="5" height="5" patternUnits="userSpaceOnUse" id="SVGID_1" viewBox="0 -5 5 5" overflow="visible">
	<g>
		<polygon fill="none" points="0,-5 5,-5 5,0 0,0 		"/>
		<path fill="#010101" d="M3-2.3C3-2.7,2.7-3,2.3-3S1.7-2.7,1.7-2.3s0.3,0.7,1,0.7C2.7-1.7,3-2,3-2.3z"/>
	</g>
</pattern>
<g id="legs">
	<path fill="#FFFFFF" stroke="#010101" stroke-miterlimit="10" d="M36.2,31.8c0.3-4.1,1.9-7.1,4.6-8.9c0,0-7.4,6.8-1.5,21.6l-1,0.4
		c-0.1-0.2-1.6-4.1-2.1-8.7c0,0-2.2-3.7-1.4-6.2c0,0,0.4,3.6,1.1,4.3L36.2,31.8z"/>
	<path fill="#FFFFFF" stroke="#010101" stroke-miterlimit="10" d="M39.8,46.8c-2.4-1.6-1.7-3.8-1.7-3.8c1.6-0.2,3,1.1,3,1.1
		L39.8,46.8z"/>
	<path fill="#FFFFFF" stroke="#010101" stroke-miterlimit="10" d="M61.7,31.8c-0.3-4.1-1.9-7.1-4.6-8.9c0,0,7.4,6.8,1.5,21.6l1,0.4
		c0.1-0.2,1.6-4.1,2.1-8.7c0,0,2.2-3.7,1.4-6.2c0,0-0.4,3.6-1.1,4.3L61.7,31.8z"/>
	<path fill="#FFFFFF" stroke="#010101" stroke-miterlimit="10" d="M58.1,46.8c2.4-1.6,1.7-3.8,1.7-3.8c-1.6-0.2-3,1.1-3,1.1
		L58.1,46.8z"/>
	<path fill="#FFFFFF" stroke="#010101" stroke-miterlimit="10" d="M58.9,70.7c0,0,3.8-1.9,4.9-1.1c0,0-1.8,5.5-4.1,7.4
		C59.7,77,58.8,74.1,58.9,70.7z"/>
	<path fill="#FFFFFF" stroke="#010101" stroke-miterlimit="10" d="M63.8,69.6c0,0,1.1,20.7,1.5,21.5c0.5,0.8,6.8,7.1,6.8,8.5
		c0,0-2.2-2.1-3.1-2.1l-4.7-5.7c0,0-0.7-0.4-0.6,0.6L63.1,71L63.8,69.6z"/>
	<path fill="#FFFFFF" stroke="#010101" stroke-miterlimit="10" d="M56,55.6c0,0,3.6-3.8,5.4-3.5c0,0-0.3,4-4.2,6.7
		c0,0,0-1.3-1.5-3.5"/>
	<path fill="#FFFFFF" stroke="#010101" stroke-miterlimit="10" d="M72.1,77.2c-0.1,1.2-4.6-7.9-7.9-9.8c-0.3-0.2-0.6-0.3-0.8-0.3
		l1.3-0.8c0,0-2.7-14.3-3.5-14.2c0,0,1.2-0.4,2.1,3.3c0.9,3.7,3.1,12.2,3.1,12.2s7.5,6.7,7.5,8.7c0,0-0.5-1.7-2.4-1.8
		C71.4,74.5,72.2,76.4,72.1,77.2z"/>
	<path fill="#FFFFFF" stroke="#010101" stroke-miterlimit="10" d="M38.8,71.1c0,0-3.8-1.9-4.9-1.1c0,0,1.8,5.5,4.1,7.4
		C38.1,77.3,38.9,74.4,38.8,71.1z"/>
	<path fill="#FFFFFF" stroke="#010101" stroke-miterlimit="10" d="M33.9,69.9c0,0-1.1,20.7-1.5,21.5c-0.5,0.8-6.8,7.1-6.8,8.5
		c0,0,2.2-2.1,3.1-2.1l4.7-5.7c0,0,0.7-0.4,0.6,0.6l0.6-21.3L33.9,69.9z"/>
	<path fill="#FFFFFF" stroke="#010101" stroke-miterlimit="10" d="M42.3,55.3c0,0-3.6-3.8-5.4-3.5c0,0,0.3,4,4.2,6.7
		c0,0,0-1.3,1.5-3.5"/>
	<path fill="#FFFFFF" stroke="#010101" stroke-miterlimit="10" d="M26.1,76.9c0.1,1.2,4.6-7.9,7.9-9.8c0.3-0.2,0.6-0.3,0.8-0.3
		L33.5,66c0,0,2.7-14.3,3.5-14.2c0,0-1.2-0.4-2.1,3.3c-0.9,3.7-3.1,12.2-3.1,12.2S24.4,74,24.4,76c0,0,0.5-1.7,2.4-1.8
		C26.9,74.2,26.1,76.1,26.1,76.9z"/>
	<g>
		<g>
			<path fill="none" stroke="#010101" stroke-miterlimit="10" d="M53.4,40.6"/>
		</g>
	</g>
</g>
<g id="basebody">
	<path fill="#FFFFFF" stroke="#010101" stroke-miterlimit="10" d="M48.7,49.7c0,0-1.1-7,4.5-7c0,0,5.6-0.2,4.5,7
		c0,0-0.8,10.8,0.1,14.6c1,3.8,9.7,26-7.1,31l-1.1-6.5L48.7,49.7z"/>
	<g>
		<path fill="#FFFFFF" d="M49.9,50.4"/>
		<g>
			<path fill="none" stroke="#010101" stroke-miterlimit="10" d="M49.9,50.4"/>
		</g>
	</g>
	<path fill="#FFFFFF" stroke="#010101" stroke-miterlimit="10" d="M49.6,50.4c0,0,1.1-7-4.5-7c0,0-5.6-0.2-4.5,7
		c0,0,0.8,10.8-0.1,14.6c-1,3.8-9.7,26,7.1,31l1.1-6.5L49.6,50.4z"/>
	<path fill="#FFFFFF" stroke="#010101" stroke-miterlimit="10" d="M47.6,48.5c0,0-4.9-2.3-7.2-1.5c0,0-1.9-8.8,2.8-10.4
		c0,0,0.9,0.9,2.5,0.9c1.7-0.1,8,0,8,0s1.2-0.3,1.3-0.6c0,0,4.2,2.6,2.5,10c0,0-2.6-0.2-6.4,1.4l-2,1.3L47.6,48.5z"/>
	<path fill="#FFFFFF" stroke="#010101" stroke-miterlimit="10" d="M43.2,36.6c0,0,6.4-5.9,11.9,0.3c0,0-0.5,0.6-2.4,0.6
		s-7.8,0-7.8,0S43.6,37.3,43.2,36.6z"/>
</g>
<g id="bodycolor">
	<path fill="#6CBE45" stroke="#010101" stroke-miterlimit="10" d="M48.5,49.7c0,0-1.1-7,4.5-7c0,0,5.6-0.2,4.5,7
		c0,0-0.8,10.8,0.1,14.6c1,3.8,9.7,26-7.1,31l-1.1-6.5L48.5,49.7z"/>
	<g>
		<path fill="#FFFFFF" d="M49.7,50.4"/>
		<g>
			<path fill="none" stroke="#010101" stroke-miterlimit="10" d="M49.7,50.4"/>
		</g>
	</g>
	<path fill="#6CBE45" stroke="#010101" stroke-miterlimit="10" d="M49.4,50.4c0,0,1.1-7-4.5-7c0,0-5.6-0.2-4.5,7
		c0,0,0.8,10.8-0.1,14.6c-1,3.8-9.7,26,7.1,31l1.1-6.5L49.4,50.4z"/>
	<path fill="#D0DD28" stroke="#010101" stroke-miterlimit="10" d="M47.4,48.5c0,0-4.9-2.3-7.2-1.5c0,0-1.9-8.8,2.8-10.4
		c0,0,0.9,0.9,2.5,0.9c1.7-0.1,8,0,8,0s1.2-0.3,1.3-0.6c0,0,4.2,2.6,2.5,10c0,0-2.6-0.2-6.4,1.4l-2,1.3L47.4,48.5z"/>
	<g>
		<path fill="#D0DD28" d="M53.5,37.2"/>
		<g>
			<path fill="none" stroke="#010101" stroke-miterlimit="10" d="M53.5,37.2"/>
		</g>
	</g>
	<path fill="#6CBE45" stroke="#010101" stroke-miterlimit="10" d="M43,36.6c0,0,6.4-5.9,11.9,0.3c0,0-0.5,0.6-2.4,0.6s-7.8,0-7.8,0
		S43.4,37.3,43,36.6z"/>
</g>
<g id="antennae">
	<path fill="none" stroke="#010101" stroke-miterlimit="10" d="M53,35.3c1.1,0,1.9-0.1,2.9-1.2c0.6-0.7,2.5-3.1,2.3-6.4
		c0-0.1-0.1-0.2-0.2-0.4c-0.2,1.3-0.4,2.5-0.6,4"/>
	<path fill="none" stroke="#010101" stroke-miterlimit="10" d="M45.5,35.3c-1.1,0-1.9-0.1-2.9-1.2c-0.6-0.7-2.5-3.1-2.3-6.4
		c0-0.1,0.1-0.2,0.2-0.4c0.2,1.3,0.4,2.5,0.6,4"/>
</g>
<g id="eyes">
	<path fill="#FF9900" stroke="#010101" stroke-width="0.5" stroke-miterlimit="10" d="M43.4,36c0,0,3-4.8,5.1-2.3
		c0,0-0.9,6.2-5.3,2.9L43.4,36z"/>
	<path fill="#FF9900" stroke="#010101" stroke-width="0.5" stroke-miterlimit="10" d="M54.8,36.1c0,0-2.7-5.3-4.8-2.9
		c0,0,0.5,6.7,5.1,3.6L54.8,36.1z"/>
</g>
<g id="markings">
	<path fill="#010101" d="M53.2,91.4c0,0,8.2-5.4,4.7-16.2c0,0-5.5,1.8-5.9,16.8"/>
	<path fill="#010101" d="M44.9,91.4c0,0-8.2-5.4-4.7-16.2c0,0,5.5,1.8,5.9,16.8"/>
</g>
<g id="dots">
	<pattern  id="SVGID_1_" xlink:href="#SVGID_1" patternTransform="matrix(0.2854 0 0 -0.2854 -17499.1641 -15158.9551)">
	</pattern>
	<path fill="url(#SVGID_1_)" stroke="#010101" stroke-miterlimit="10" d="M40.6,47.3L41,58.9c0,0,0.2,4.4-2.1,11.7
		c0,0-6.9,21.3,8.7,25.3l1.1-7.1L49,73.3l0.5,15.4l1.1,6.5c0,0,12.5-3,9.9-19.6c0,0-1.5-8.3-2.9-11.8c0,0-0.7-13.4,0.3-15.4
		l-0.4-1.5c0,0-3.9-0.1-8.6,2.7C49,49.5,43.3,45.1,40.6,47.3z"/>
</g>
<g id="fur">
	<g>
		<g>
			<path fill="none" stroke="#0000FF" stroke-miterlimit="10" d="M50.6,26"/>
		</g>
	</g>
	<g>
		<g>
			<path fill="none" stroke="#0000FF" stroke-miterlimit="10" d="M57.1,44.1"/>
		</g>
	</g>
	<g>
		<g>
			<g>
				<g>
					<path fill="none" stroke="#0000FF" stroke-miterlimit="10" d="M56.1,36c0,0,0,0.4-0.1,0.7s-0.1,0.7-0.1,0.7s0.3-0.2,0.7-0.3
						s0.7-0.2,0.7-0.2"/>
				</g>
				<g>
					<path fill="none" stroke="#0000FF" stroke-miterlimit="10" d="M57.5,37.2c0,0-0.1,0.3-0.3,0.7c-0.2,0.3-0.4,0.6-0.4,0.6
						s0.1,0,0.2,0c0.1,0,0.3,0,0.5,0s0.4,0,0.5,0s0.2,0,0.2,0"/>
				</g>
				<g>
					<path fill="none" stroke="#0000FF" stroke-miterlimit="10" d="M58.4,38.7c0,0-0.2,0.3-0.5,0.5c-0.3,0.3-0.5,0.5-0.5,0.5
						s0.4,0.1,0.7,0.1c0.4,0.1,0.7,0.2,0.7,0.2"/>
				</g>
				<g>
					<path fill="none" stroke="#0000FF" stroke-miterlimit="10" d="M59,40.4c0,0-0.3,0.2-0.6,0.4s-0.6,0.4-0.6,0.4s0.3,0.1,0.7,0.3
						c0.3,0.1,0.7,0.3,0.7,0.3"/>
				</g>
				<g>
					<path fill="none" stroke="#0000FF" stroke-miterlimit="10" d="M59.2,42c0,0-0.3,0.2-0.6,0.3c-0.3,0.2-0.6,0.3-0.6,0.3
						s0.3,0.2,0.7,0.3c0.3,0.2,0.7,0.4,0.7,0.4"/>
				</g>
				<g>
					<path fill="none" stroke="#0000FF" stroke-miterlimit="10" d="M59.3,43.7c0,0-0.3,0.1-0.7,0.3c-0.3,0.1-0.7,0.3-0.7,0.3
						s0.3,0.2,0.6,0.4s0.6,0.4,0.6,0.4"/>
				</g>
				<g>
					<path fill="none" stroke="#0000FF" stroke-miterlimit="10" d="M59.2,45.3c0,0-0.3,0.1-0.7,0.2c-0.3,0.1-0.7,0.2-0.7,0.2
						s0.3,0.2,0.6,0.5c0.3,0.2,0.6,0.5,0.6,0.5"/>
				</g>
				<g>
					<polyline fill="none" stroke="#0000FF" stroke-miterlimit="10" points="59,46.8 57.7,47.4 59,48.2 					"/>
				</g>
				<g>
					<polyline fill="none" stroke="#0000FF" stroke-miterlimit="10" points="59,48.4 57.7,49 58.9,49.7 					"/>
				</g>
				<g>
					<polyline fill="none" stroke="#0000FF" stroke-miterlimit="10" points="58.9,50 57.6,50.6 59,51.3 					"/>
				</g>
				<g>
					<polyline fill="none" stroke="#0000FF" stroke-miterlimit="10" points="59,51.6 57.7,52.1 59,52.9 					"/>
				</g>
				<g>
					<polyline fill="none" stroke="#0000FF" stroke-miterlimit="10" points="59,53.2 57.7,53.7 59,54.5 					"/>
				</g>
				<g>
					<polyline fill="none" stroke="#0000FF" stroke-miterlimit="10" points="59,54.7 57.7,55.3 59,56.1 					"/>
				</g>
				<g>
					<polyline fill="none" stroke="#0000FF" stroke-miterlimit="10" points="59,56.3 57.7,56.9 59,57.7 					"/>
				</g>
				<g>
					<polyline fill="none" stroke="#0000FF" stroke-miterlimit="10" points="59,57.9 57.8,58.5 59,59.2 					"/>
				</g>
				<g>
					<polyline fill="none" stroke="#0000FF" stroke-miterlimit="10" points="59,59.5 57.8,60.1 59.1,60.8 					"/>
				</g>
				<g>
					<polyline fill="none" stroke="#0000FF" stroke-miterlimit="10" points="59.1,61.1 57.8,61.7 59.1,62.4 					"/>
				</g>
				<g>
					<polyline fill="none" stroke="#0000FF" stroke-miterlimit="10" points="59.1,62.7 57.8,63.2 59.1,64 					"/>
				</g>
				<g>
					<path fill="none" stroke="#0000FF" stroke-miterlimit="10" d="M59.1,64.2c0,0-0.1,0-0.2,0.1c-0.1,0-0.1,0.1-0.2,0.1
						s-0.1,0.1-0.2,0.2C58.2,64.8,58,65,58,65s0.4,0.1,0.7,0.2c0.4,0.1,0.7,0.2,0.7,0.2"/>
				</g>
				<g>
					<polyline fill="none" stroke="#0000FF" stroke-miterlimit="10" points="59.5,65.6 58.4,66.5 59.9,66.8 					"/>
				</g>
				<g>
					<polyline fill="none" stroke="#0000FF" stroke-miterlimit="10" points="60,67.1 58.9,68 60.4,68.4 					"/>
				</g>
				<g>
					<path fill="none" stroke="#0000FF" stroke-miterlimit="10" d="M60.4,68.6l-1.1,0.9c0,0,0.4,0.1,0.7,0.2
						c0.4,0.1,0.7,0.2,0.7,0.2"/>
				</g>
				<g>
					<path fill="none" stroke="#0000FF" stroke-miterlimit="10" d="M60.8,70.2L59.7,71c0,0,0.3,0.1,0.7,0.2c0.3,0.1,0.7,0.2,0.7,0.2
						"/>
				</g>
				<g>
					<path fill="none" stroke="#0000FF" stroke-miterlimit="10" d="M61.2,71.7l-1.1,0.8c0,0,0.3,0.1,0.7,0.2
						c0.3,0.1,0.7,0.3,0.7,0.3"/>
				</g>
				<g>
					<path fill="none" stroke="#0000FF" stroke-miterlimit="10" d="M61.5,73.3c0,0-0.3,0.2-0.6,0.4c-0.3,0.2-0.6,0.4-0.6,0.4
						s0.3,0.1,0.7,0.3c0.3,0.1,0.7,0.3,0.7,0.3"/>
				</g>
				<g>
					<path fill="none" stroke="#0000FF" stroke-miterlimit="10" d="M61.8,74.9c0,0-0.3,0.2-0.6,0.4c-0.3,0.2-0.6,0.4-0.6,0.4
						s0.3,0.1,0.7,0.3c0.3,0.1,0.7,0.3,0.7,0.3"/>
				</g>
				<g>
					<path fill="none" stroke="#0000FF" stroke-miterlimit="10" d="M62,76.5c0,0-0.3,0.2-0.6,0.4c-0.3,0.2-0.6,0.3-0.6,0.3
						s0.3,0.2,0.7,0.3c0.3,0.2,0.7,0.3,0.7,0.3"/>
				</g>
				<g>
					<path fill="none" stroke="#0000FF" stroke-miterlimit="10" d="M62.2,78.1c0,0-0.3,0.2-0.6,0.3c-0.3,0.2-0.6,0.3-0.6,0.3
						s0.3,0.2,0.7,0.3c0.3,0.2,0.7,0.4,0.7,0.4"/>
				</g>
				<g>
					<path fill="none" stroke="#0000FF" stroke-miterlimit="10" d="M62.3,79.7c0,0-0.3,0.1-0.6,0.3c-0.3,0.1-0.6,0.3-0.6,0.3
						s0.3,0.2,0.6,0.4c0.3,0.2,0.6,0.4,0.6,0.4"/>
				</g>
				<g>
					<path fill="none" stroke="#0000FF" stroke-miterlimit="10" d="M62.2,81.4c0,0-0.3,0.1-0.7,0.3c-0.3,0.1-0.7,0.3-0.7,0.3
						s0.3,0.2,0.6,0.4s0.6,0.4,0.6,0.4"/>
				</g>
				<g>
					<path fill="none" stroke="#0000FF" stroke-miterlimit="10" d="M62.1,83c0,0-0.3,0.1-0.7,0.2c-0.3,0.1-0.7,0.2-0.7,0.2
						s0.3,0.2,0.6,0.5c0.3,0.2,0.6,0.5,0.6,0.5"/>
				</g>
				<g>
					<path fill="none" stroke="#0000FF" stroke-miterlimit="10" d="M61.9,84.6c0,0-0.3,0.1-0.7,0.2c-0.3,0.1-0.7,0.1-0.7,0.1
						s0.3,0.3,0.5,0.5c0.3,0.3,0.5,0.5,0.5,0.5"/>
				</g>
				<g>
					<path fill="none" stroke="#0000FF" stroke-miterlimit="10" d="M61.5,86.2c0,0-0.3,0.1-0.7,0.1c-0.3,0.1-0.7,0.1-0.7,0.1
						s0.3,0.3,0.5,0.6c0.2,0.3,0.5,0.6,0.5,0.6"/>
				</g>
				<g>
					<path fill="none" stroke="#0000FF" stroke-miterlimit="10" d="M61,87.8c0,0-0.3,0-0.7,0c-0.3,0-0.7,0-0.7,0s0.2,0.3,0.4,0.6
						c0.2,0.3,0.4,0.6,0.4,0.6"/>
				</g>
				<g>
					<path fill="none" stroke="#0000FF" stroke-miterlimit="10" d="M60.3,89.3c0,0-0.1,0-0.2,0c-0.1,0-0.3,0-0.5,0
						c-0.4,0-0.7-0.1-0.7-0.1s0.2,0.3,0.4,0.7c0.2,0.3,0.3,0.7,0.3,0.7"/>
				</g>
				<g>
					<path fill="none" stroke="#0000FF" stroke-miterlimit="10" d="M59.4,90.8c0,0-0.4-0.1-0.7-0.1c-0.3-0.1-0.7-0.2-0.7-0.2
						s0.1,0.3,0.3,0.7c0.1,0.2,0.1,0.4,0.2,0.5c0.1,0.1,0.1,0.2,0.1,0.2"/>
				</g>
				<g>
					<path fill="none" stroke="#0000FF" stroke-miterlimit="10" d="M58.4,92.1c0,0-0.3-0.1-0.7-0.2c-0.3-0.1-0.7-0.2-0.7-0.2
						s0.1,0.3,0.2,0.7c0.1,0.2,0.1,0.4,0.1,0.5s0,0.2,0,0.2"/>
				</g>
				<g>
					<path fill="none" stroke="#0000FF" stroke-miterlimit="10" d="M57.2,93.3c0,0-0.3-0.1-0.6-0.3c-0.3-0.1-0.6-0.3-0.6-0.3
						s0,0.1,0,0.2s0.1,0.3,0.1,0.5c0,0.4,0.1,0.7,0.1,0.7"/>
				</g>
				<g>
					<path fill="none" stroke="#0000FF" stroke-miterlimit="10" d="M55.9,94.3c0,0-0.3-0.2-0.6-0.4c-0.3-0.2-0.6-0.4-0.6-0.4
						s0,0.1,0,0.2s0,0.3,0,0.5c0,0.4,0,0.7,0,0.7"/>
				</g>
				<g>
					<path fill="none" stroke="#0000FF" stroke-miterlimit="10" d="M54.5,95.1c0,0-0.3-0.2-0.5-0.4c-0.3-0.2-0.5-0.5-0.5-0.5
						s0,0.4-0.1,0.7c0,0.4-0.1,0.7-0.1,0.7"/>
				</g>
				<g>
					<path fill="none" stroke="#0000FF" stroke-miterlimit="10" d="M53,95.9c0,0-0.3-0.2-0.5-0.5c-0.3-0.3-0.5-0.5-0.5-0.5
						s-0.1,0.4-0.1,0.7c-0.1,0.4-0.2,0.7-0.2,0.7"/>
				</g>
				<g>
					<polyline fill="none" stroke="#0000FF" stroke-miterlimit="10" points="49.5,95.2 50.5,94.2 49,93.8 					"/>
				</g>
				<g>
					<polyline fill="none" stroke="#0000FF" stroke-miterlimit="10" points="48.9,93.5 49.9,92.5 48.5,92 					"/>
				</g>
				<g>
					<polyline fill="none" stroke="#0000FF" stroke-miterlimit="10" points="48.4,91.8 49.4,90.8 47.9,90.3 					"/>
				</g>
			</g>
		</g>
	</g>
	<g>
		<g>
			<path fill="none" stroke="#0000FF" stroke-miterlimit="10" d="M48.6,44.7"/>
		</g>
	</g>
	<g>
		<g>
			<g>
				<g>
					<polyline fill="none" stroke="#0000FF" stroke-miterlimit="10" points="49.7,90 48.3,90.3 49.4,91.2 					"/>
				</g>
				<g>
					<polyline fill="none" stroke="#0000FF" stroke-miterlimit="10" points="49.4,91.5 48,91.8 49.2,92.8 					"/>
				</g>
				<g>
					<polyline fill="none" stroke="#0000FF" stroke-miterlimit="10" points="49.1,93 47.8,93.3 48.9,94.3 					"/>
				</g>
				<g>
					<polyline fill="none" stroke="#0000FF" stroke-miterlimit="10" points="48.9,94.5 47.5,94.8 48.7,95.8 					"/>
				</g>
				<g>
					<path fill="none" stroke="#0000FF" stroke-miterlimit="10" d="M46.4,97.1c0,0,0-0.3-0.1-0.7c0-0.3-0.1-0.7-0.1-0.7
						s-0.3,0.3-0.6,0.5S45,96.6,45,96.6"/>
				</g>
				<g>
					<path fill="none" stroke="#0000FF" stroke-miterlimit="10" d="M44.9,96.5c0,0,0-0.3,0-0.7c0-0.3,0-0.7,0-0.7s-0.3,0.2-0.6,0.4
						c-0.3,0.2-0.7,0.4-0.7,0.4"/>
				</g>
				<g>
					<path fill="none" stroke="#0000FF" stroke-miterlimit="10" d="M43.4,95.8c0,0,0-0.3,0.1-0.7c0-0.3,0.1-0.7,0.1-0.7
						s-0.1,0.1-0.2,0.1c-0.1,0.1-0.3,0.1-0.5,0.2c-0.3,0.2-0.7,0.3-0.7,0.3"/>
				</g>
				<g>
					<path fill="none" stroke="#0000FF" stroke-miterlimit="10" d="M42,94.9c0,0,0.1-0.3,0.1-0.7c0-0.2,0.1-0.3,0.1-0.5
						c0-0.1,0.1-0.2,0.1-0.2s-0.3,0.1-0.7,0.3c-0.3,0.1-0.7,0.2-0.7,0.2"/>
				</g>
				<g>
					<path fill="none" stroke="#0000FF" stroke-miterlimit="10" d="M40.7,93.8c0,0,0.1-0.3,0.2-0.7c0.1-0.3,0.3-0.7,0.3-0.7
						s-0.3,0.1-0.7,0.2s-0.7,0.1-0.7,0.1"/>
				</g>
				<g>
					<path fill="none" stroke="#0000FF" stroke-miterlimit="10" d="M39.5,92.6c0,0,0.1-0.3,0.3-0.6c0.2-0.3,0.3-0.6,0.3-0.6
						s-0.4,0.1-0.7,0.1c-0.2,0-0.4,0-0.5,0s-0.2,0-0.2,0"/>
				</g>
				<g>
					<path fill="none" stroke="#0000FF" stroke-miterlimit="10" d="M38.5,91.2c0,0,0.2-0.3,0.4-0.6c0.2-0.3,0.4-0.6,0.4-0.6
						s-0.4,0-0.7,0c-0.4,0-0.7-0.1-0.7-0.1"/>
				</g>
				<g>
					<path fill="none" stroke="#0000FF" stroke-miterlimit="10" d="M37.7,89.8c0,0,0.2-0.3,0.5-0.5c0.2-0.3,0.5-0.5,0.5-0.5
						s-0.4,0-0.7-0.1c-0.4-0.1-0.7-0.1-0.7-0.1"/>
				</g>
				<g>
					<path fill="none" stroke="#0000FF" stroke-miterlimit="10" d="M37.1,88.2c0,0,0.3-0.3,0.5-0.5c0.3-0.2,0.5-0.5,0.5-0.5
						s-0.4-0.1-0.7-0.2c-0.4-0.1-0.7-0.2-0.7-0.2"/>
				</g>
				<g>
					<path fill="none" stroke="#0000FF" stroke-miterlimit="10" d="M36.6,86.6c0,0,0.3-0.2,0.5-0.4c0.3-0.2,0.6-0.4,0.6-0.4
						s-0.3-0.1-0.7-0.2s-0.7-0.3-0.7-0.3"/>
				</g>
				<g>
					<path fill="none" stroke="#0000FF" stroke-miterlimit="10" d="M36.2,85c0,0,0.3-0.2,0.6-0.4c0.3-0.2,0.6-0.4,0.6-0.4
						s-0.3-0.1-0.7-0.3S36,83.6,36,83.6"/>
				</g>
				<g>
					<path fill="none" stroke="#0000FF" stroke-miterlimit="10" d="M36,83.4c0,0,0.3-0.2,0.6-0.3c0.3-0.2,0.6-0.3,0.6-0.3
						s-0.3-0.2-0.7-0.3C36.3,82.2,36,82,36,82"/>
				</g>
				<g>
					<path fill="none" stroke="#0000FF" stroke-miterlimit="10" d="M36,81.8c0,0,0.3-0.1,0.6-0.3c0.3-0.1,0.6-0.3,0.6-0.3
						s-0.3-0.2-0.6-0.4c-0.3-0.2-0.6-0.4-0.6-0.4"/>
				</g>
				<g>
					<path fill="none" stroke="#0000FF" stroke-miterlimit="10" d="M36,80.1c0,0,0.3-0.1,0.7-0.3c0.3-0.1,0.7-0.3,0.7-0.3
						s-0.3-0.2-0.6-0.4C36.4,79,36,78.8,36,78.8"/>
				</g>
				<g>
					<path fill="none" stroke="#0000FF" stroke-miterlimit="10" d="M36.1,78.5c0,0,0.3-0.1,0.7-0.2c0.3-0.1,0.7-0.2,0.7-0.2
						s-0.3-0.2-0.6-0.5c-0.3-0.2-0.6-0.5-0.6-0.5"/>
				</g>
				<g>
					<path fill="none" stroke="#0000FF" stroke-miterlimit="10" d="M36.2,76.9c0,0,0.3-0.1,0.7-0.2c0.3-0.1,0.7-0.2,0.7-0.2
						S37.3,76.3,37,76c-0.3-0.2-0.6-0.5-0.6-0.5"/>
				</g>
				<g>
					<path fill="none" stroke="#0000FF" stroke-miterlimit="10" d="M36.5,75.3c0,0,0.3-0.1,0.7-0.2c0.3-0.1,0.7-0.2,0.7-0.2
						s-0.3-0.3-0.6-0.5C37,74.2,36.7,74,36.7,74"/>
				</g>
				<g>
					<path fill="none" stroke="#0000FF" stroke-miterlimit="10" d="M36.8,73.7c0,0,0.3-0.1,0.7-0.1c0.3-0.1,0.7-0.1,0.7-0.1
						s-0.3-0.3-0.5-0.5c-0.3-0.3-0.5-0.5-0.5-0.5"/>
				</g>
				<g>
					<path fill="none" stroke="#0000FF" stroke-miterlimit="10" d="M37.1,72.1c0,0,0.3-0.1,0.7-0.1c0.3-0.1,0.7-0.1,0.7-0.1
						s-0.3-0.3-0.5-0.5c-0.3-0.3-0.5-0.5-0.5-0.5"/>
				</g>
				<g>
					<path fill="none" stroke="#0000FF" stroke-miterlimit="10" d="M37.5,70.6l1.4-0.2c0,0-0.3-0.3-0.5-0.5
						c-0.3-0.3-0.5-0.5-0.5-0.5"/>
				</g>
				<g>
					<polyline fill="none" stroke="#0000FF" stroke-miterlimit="10" points="37.9,69 39.3,68.8 38.3,67.7 					"/>
				</g>
				<g>
					<path fill="none" stroke="#0000FF" stroke-miterlimit="10" d="M38.4,67.5l1.4-0.2c0,0-0.3-0.3-0.5-0.5
						c-0.3-0.3-0.5-0.5-0.5-0.5"/>
				</g>
				<g>
					<path fill="none" stroke="#0000FF" stroke-miterlimit="10" d="M38.8,66c0,0,0.3-0.1,0.7-0.1c0.3-0.1,0.7-0.1,0.7-0.1
						s-0.3-0.3-0.5-0.5c-0.1-0.1-0.3-0.3-0.4-0.3c-0.1-0.1-0.2-0.1-0.2-0.1"/>
				</g>
				<g>
					<path fill="none" stroke="#0000FF" stroke-miterlimit="10" d="M39.2,64.5c0,0,0.3-0.1,0.7-0.1c0.3-0.1,0.7-0.2,0.7-0.2
						s-0.3-0.3-0.6-0.5c-0.1-0.1-0.3-0.2-0.4-0.3s-0.2-0.1-0.2-0.1"/>
				</g>
				<g>
					<path fill="none" stroke="#0000FF" stroke-miterlimit="10" d="M39.4,63c0,0,0.3-0.1,0.7-0.2c0.3-0.1,0.7-0.2,0.7-0.2
						s-0.3-0.2-0.6-0.4s-0.6-0.4-0.6-0.4"/>
				</g>
				<g>
					<path fill="none" stroke="#0000FF" stroke-miterlimit="10" d="M39.5,61.5c0,0,0.3-0.1,0.7-0.3c0.3-0.1,0.7-0.3,0.7-0.3
						s-0.3-0.2-0.6-0.4s-0.6-0.4-0.6-0.4"/>
				</g>
				<g>
					<path fill="none" stroke="#0000FF" stroke-miterlimit="10" d="M39.6,59.9l1.3-0.6c0,0-0.3-0.2-0.6-0.4s-0.7-0.4-0.7-0.4"/>
				</g>
				<g>
					<polyline fill="none" stroke="#0000FF" stroke-miterlimit="10" points="39.6,58.3 40.8,57.7 39.6,57 					"/>
				</g>
				<g>
					<polyline fill="none" stroke="#0000FF" stroke-miterlimit="10" points="39.6,56.8 40.8,56.1 39.5,55.4 					"/>
				</g>
				<g>
					<polyline fill="none" stroke="#0000FF" stroke-miterlimit="10" points="39.5,55.2 40.8,54.6 39.4,53.9 					"/>
				</g>
				<g>
					<polyline fill="none" stroke="#0000FF" stroke-miterlimit="10" points="39.4,53.6 40.7,53 39.4,52.3 					"/>
				</g>
				<g>
					<path fill="none" stroke="#0000FF" stroke-miterlimit="10" d="M39.3,52l1.3-0.7c0,0-0.3-0.2-0.7-0.3c-0.2-0.1-0.3-0.2-0.5-0.2
						c-0.1,0-0.1,0-0.1,0h-0.1"/>
				</g>
				<g>
					<path fill="none" stroke="#0000FF" stroke-miterlimit="10" d="M39.2,50.5c0,0,0.3-0.2,0.6-0.4s0.6-0.4,0.6-0.4
						s-0.3-0.1-0.7-0.3c-0.3-0.1-0.7-0.3-0.7-0.3"/>
				</g>
				<g>
					<path fill="none" stroke="#0000FF" stroke-miterlimit="10" d="M38.9,48.9c0,0,0.3-0.2,0.6-0.4s0.6-0.4,0.6-0.4
						s-0.3-0.1-0.7-0.3c-0.3-0.1-0.7-0.3-0.7-0.3"/>
				</g>
				<g>
					<path fill="none" stroke="#0000FF" stroke-miterlimit="10" d="M38.7,47.3c0,0,0.3-0.2,0.6-0.4s0.6-0.3,0.6-0.3
						s-0.3-0.2-0.7-0.3c-0.3-0.2-0.7-0.3-0.7-0.3"/>
				</g>
				<g>
					<path fill="none" stroke="#0000FF" stroke-miterlimit="10" d="M38.5,45.7c0,0,0.3-0.2,0.6-0.3c0.3-0.2,0.6-0.3,0.6-0.3
						s-0.3-0.2-0.7-0.3c-0.3-0.2-0.7-0.4-0.7-0.4"/>
				</g>
				<g>
					<path fill="none" stroke="#0000FF" stroke-miterlimit="10" d="M38.5,44.1c0,0,0.3-0.1,0.6-0.3c0.3-0.1,0.7-0.3,0.7-0.3
						s-0.3-0.2-0.6-0.4s-0.6-0.4-0.6-0.4"/>
				</g>
				<g>
					<path fill="none" stroke="#0000FF" stroke-miterlimit="10" d="M38.5,42.5c0,0,0.3-0.1,0.7-0.3c0.3-0.1,0.7-0.2,0.7-0.2
						s-0.3-0.2-0.6-0.5c-0.1-0.1-0.3-0.2-0.4-0.3s-0.2-0.1-0.2-0.1"/>
				</g>
				<g>
					<path fill="none" stroke="#0000FF" stroke-miterlimit="10" d="M38.7,40.8c0,0,0.3-0.1,0.7-0.2s0.7-0.1,0.7-0.1
						s-0.3-0.3-0.5-0.5c-0.3-0.3-0.5-0.6-0.5-0.6"/>
				</g>
				<g>
					<path fill="none" stroke="#0000FF" stroke-miterlimit="10" d="M39.1,39.1c0,0,0.4,0,0.7-0.1c0.3,0,0.7,0,0.7,0
						s-0.2-0.3-0.4-0.6s-0.3-0.7-0.3-0.7"/>
				</g>
				<g>
					<path fill="none" stroke="#0000FF" stroke-miterlimit="10" d="M40,37.5c0,0,0.4,0.1,0.7,0.2c0.2,0.1,0.3,0.1,0.5,0.2
						c0.1,0.1,0.2,0.1,0.2,0.1s0-0.1-0.1-0.2c0-0.1-0.1-0.3-0.1-0.5c0-0.4,0-0.8,0-0.8"/>
				</g>
				<g>
					<path fill="none" stroke="#0000FF" stroke-miterlimit="10" d="M41.4,36.3c0,0,0.3,0.2,0.6,0.5c0.1,0.1,0.3,0.3,0.3,0.3
						c0.1,0.1,0.1,0.2,0.1,0.2s0-0.1,0-0.2c0-0.1,0.1-0.3,0.1-0.5c0.1-0.3,0.3-0.7,0.3-0.7"/>
				</g>
			</g>
		</g>
	</g>
</g>
<g id="leaf">
	<g>
		<path fill="#A8CF38" stroke="#010101" stroke-width="0.5" stroke-linecap="round" stroke-linejoin="round" d="M45.5,23.6
			c0,0-2.5-4.3-2.1-6.4l0.6,0.2c0,0-0.5-0.6,0.1-3.2l0.5,0.4c0,0-0.4-1.3,0.4-3l0.5,0.4c0,0,0.2-1.2,0.7-2.4l0.5,0.3
			c0,0-0.1-1.4,0.4-2.4L47.5,8c0,0,0.2-1.8,1.2-2.1l0.1,0.4c0,0,0.7-1.1,1.7-1.7L51,5.1c0,0,0-1.1,1.2-1.6l0.3,0.4
			c0,0,0.1-1.5,1.3-1.7l0.3,0.7c0,0,2-1.9,2.5-1.9l0.7,0.4c0.1,0.3,0,3.1,0,3.1l0.8-0.2c0.5,1.1-0.6,2.1-0.6,2.1H58
			c0.4,1.3-0.5,1.9-0.5,1.9l0.8,0.1c0.1,1.1-0.3,2.4-0.3,2.4l0.4-0.1c0.3,1-1,2.2-1,2.2L58,13c-0.5,1-1.7,1.8-1.7,1.8l0.6,0.2
			c-0.7,1.1-1.5,2-1.5,2l0.6,0.1c-0.8,1.7-2.1,2.1-2.1,2.1l0.6,0.1c-1.7,2.1-2.5,2-2.5,2l0.5,0.3c-1.5,1.5-6.4,2.2-6.4,2.2
			L45.5,23.6z"/>
		<path fill="#A8CF38" stroke="#010101" stroke-width="0.5" stroke-linecap="round" stroke-linejoin="round" d="M45.9,23.8
			c0,0-2.5-4.3-2.1-6.4l0.6,0.2c0,0-0.5-0.6,0.1-3.2l0.5,0.4c0,0-0.4-1.3,0.4-3l0.5,0.4c0,0,0.2-1.2,0.7-2.4l0.5,0.3
			c0,0-0.1-1.4,0.4-2.4L48,8.2c0,0,0.2-1.8,1.2-2.1l0.1,0.4c0,0,0.7-1.1,1.7-1.7l0.5,0.5c0,0,0-1.1,1.2-1.6L53,4.1
			c0,0,0.1-1.5,1.3-1.7l0.3,0.7c0,0,2-1.9,2.5-1.9l0.7,0.4c0.1,0.3,0,3.1,0,3.1l0.8-0.2C59.1,5.6,58,6.6,58,6.6h0.5
			C58.9,7.9,58,8.5,58,8.5l0.7,0.1c0.1,1.1-0.3,2.4-0.3,2.4l0.4-0.1c0.3,1-1,2.2-1,2.2l0.6,0.1c-0.5,1-1.7,1.8-1.7,1.8l0.6,0.2
			c-0.7,1.1-1.5,2-1.5,2l0.6,0.1c-0.8,1.7-2.1,2.1-2.1,2.1l0.6,0.1c-1.7,2.1-2.5,2-2.5,2l0.5,0.3c-1.5,1.5-6.4,2.2-6.4,2.2
			L45.9,23.8z"/>
		
			<line fill="none" stroke="#010101" stroke-width="0.5" stroke-linecap="round" stroke-linejoin="round" x1="57.2" y1="1.6" x2="46.2" y2="23.9"/>
		<g>
			
				<line fill="none" stroke="#010101" stroke-width="0.5" stroke-linecap="round" stroke-linejoin="round" x1="54.6" y1="2.8" x2="55" y2="4.7"/>
			
				<line fill="none" stroke="#010101" stroke-width="0.5" stroke-linecap="round" stroke-linejoin="round" x1="52.9" y1="4.2" x2="54" y2="6.3"/>
			
				<line fill="none" stroke="#010101" stroke-width="0.5" stroke-linecap="round" stroke-linejoin="round" x1="51.5" y1="5.2" x2="53" y2="8"/>
			
				<line fill="none" stroke="#010101" stroke-width="0.5" stroke-linecap="round" stroke-linejoin="round" x1="49.3" y1="6.4" x2="51.6" y2="9.8"/>
			
				<line fill="none" stroke="#010101" stroke-width="0.5" stroke-linecap="round" stroke-linejoin="round" x1="48.1" y1="8.1" x2="51.1" y2="11.7"/>
			
				<line fill="none" stroke="#010101" stroke-width="0.5" stroke-linecap="round" stroke-linejoin="round" x1="47" y1="10.2" x2="50" y2="13.4"/>
			
				<line fill="none" stroke="#010101" stroke-width="0.5" stroke-linecap="round" stroke-linejoin="round" x1="45.9" y1="12" x2="48.4" y2="15.5"/>
			
				<line fill="none" stroke="#010101" stroke-width="0.5" stroke-linecap="round" stroke-linejoin="round" x1="44.9" y1="14.7" x2="47.9" y2="18.5"/>
			
				<line fill="none" stroke="#010101" stroke-width="0.5" stroke-linecap="round" stroke-linejoin="round" x1="44.4" y1="17.5" x2="46.8" y2="21.5"/>
		</g>
		<g>
			
				<line fill="none" stroke="#010101" stroke-width="0.5" stroke-linecap="round" stroke-linejoin="round" x1="58.1" y1="4.5" x2="56.4" y2="5.3"/>
			
				<line fill="none" stroke="#010101" stroke-width="0.5" stroke-linecap="round" stroke-linejoin="round" x1="58" y1="6.7" x2="55.6" y2="7.2"/>
			
				<line fill="none" stroke="#010101" stroke-width="0.5" stroke-linecap="round" stroke-linejoin="round" x1="58.1" y1="8.5" x2="55" y2="9"/>
			
				<line fill="none" stroke="#010101" stroke-width="0.5" stroke-linecap="round" stroke-linejoin="round" x1="58.5" y1="11" x2="54.4" y2="11.1"/>
			
				<line fill="none" stroke="#010101" stroke-width="0.5" stroke-linecap="round" stroke-linejoin="round" x1="57.8" y1="12.9" x2="53.2" y2="12.7"/>
			
				<line fill="none" stroke="#010101" stroke-width="0.5" stroke-linecap="round" stroke-linejoin="round" x1="56.9" y1="15.1" x2="52.5" y2="14.7"/>
			
				<line fill="none" stroke="#010101" stroke-width="0.5" stroke-linecap="round" stroke-linejoin="round" x1="56.1" y1="17.1" x2="51.8" y2="17.2"/>
			
				<line fill="none" stroke="#010101" stroke-width="0.5" stroke-linecap="round" stroke-linejoin="round" x1="54.6" y1="19.4" x2="49.7" y2="19.3"/>
			
				<line fill="none" stroke="#010101" stroke-width="0.5" stroke-linecap="round" stroke-linejoin="round" x1="52.7" y1="21.5" x2="48" y2="22.1"/>
		</g>
		<path fill="#FFFFFF" stroke="#010101" stroke-width="0.5" stroke-linecap="round" stroke-linejoin="round" d="M59.1,8.8
			c0,0-1.6,0.4-1.2,1.3c0,0-2,0.3-1.1,1.9c0,0,0.5,1.1,1.3,0.7c0,0-0.5,0.9,0.3,0.7s0.6-0.2,0.6-0.2"/>
		<path fill="#FFFFFF" stroke="#010101" stroke-width="0.5" stroke-miterlimit="10" d="M48.4,11c-0.1,0.4-0.3,0.7-0.4,1
			c0.4,0.3,1-0.4,1.2-0.7c-0.2,0.6-0.1,1.8,0.7,0.9c-0.1,0.6,0.2,0.7,0.6,0.9c-0.1,0.5-0.6,0.6-0.9,1c-0.2,0.2-0.3,0.5-0.4,0.8
			c-0.3-0.2-0.3-0.6-0.6-0.8c-0.2,0.1-0.7,0.9-0.9,0.8c-0.3,0-0.5-0.7-0.8-0.8c0.1-0.3,0.3-0.6,0.4-0.9c-0.1-0.1-0.1-0.1-0.1-0.1
			c0.1-0.4,0.8-2.3,1.2-1.8"/>
		<path fill="#FFFFFF" stroke="#010101" stroke-width="0.5" stroke-miterlimit="10" d="M54,6.7c0.5-0.4,0.5-1,1.2-1.3
			c0.1,0.2-0.1,0.8,0.1,0.9c0.4,0.3,1-0.4,1.3-0.7c-0.1,0.1-0.3,0.7-0.3,0.8c0.2,0.4,0.7,0.1,1,0.1c-0.2,0.6-0.7,1-1,1.5
			c-0.2,0.4-0.2,0.7-0.4,1.1c-0.7-0.2-1.1-0.7-1.2-1.4c-0.2,0.4-0.9,1.7-1,0.7c-0.1-0.7,0.5-1.3,0.5-1.9"/>
		<path fill="#FFFFFF" stroke="#010101" stroke-width="0.5" stroke-miterlimit="10" d="M53.2,15.9c0,0.4-0.6,0.9-0.6,1.3
			c0,0.5,0.7,0.9,1.1,0.9c-0.6,0.2-1.1,0.5-1.3,1.1c0.3,0.3,0.6,0.4,0.9,0.5c-0.3,0.1-1.5,0.8-0.8,1.1c-0.2,0.5-1.5-0.2-1.9-0.5
			c-0.7-0.6-0.5-1.4-0.1-2.1c0.5-1.1,1.4-2.3,2.8-2"/>
	</g>
</g>
<g id="water">
	<g>
		<path fill="#55C2E2" stroke="#070707" stroke-width="0.5" stroke-miterlimit="10" d="M28.5,15.6c0,0-10.3,11.9-1.2,14.6
			c0,0,7.4-0.2,4.2-8.8C31.4,21.4,28.6,18.1,28.5,15.6z"/>
		<path fill="none" stroke="#3A97AD" stroke-miterlimit="10" d="M27.9,29.3c1.5,0.7,3.9-2.9,3.7-4.3"/>
		
			<ellipse transform="matrix(0.6127 0.7903 -0.7903 0.6127 31.9341 -10.3132)" opacity="0.8" fill="#FFFFFF" enable-background="new    " cx="26.5" cy="27.4" rx="1.7" ry="1.4"/>
		<path opacity="0.8" fill="#FFFFFF" enable-background="new    " d="M25.5,20.9c0,0,1.3-3.3,2.9-4.2"/>
	</g>
	<g>
		<path fill="#55C2E2" stroke="#070707" stroke-width="0.5" stroke-miterlimit="10" d="M76.2,78.1c0,0-10.3,11.9-1.2,14.6
			c0,0,7.4-0.2,4.2-8.8C79.1,83.9,76.3,80.6,76.2,78.1z"/>
		<path fill="none" stroke="#3A97AD" stroke-miterlimit="10" d="M75.6,91.8c1.5,0.7,3.9-2.9,3.7-4.3"/>
		
			<ellipse transform="matrix(0.6127 0.7903 -0.7903 0.6127 99.7938 -23.6853)" opacity="0.8" fill="#FFFFFF" enable-background="new    " cx="74.1" cy="90" rx="1.7" ry="1.4"/>
		<path opacity="0.8" fill="#FFFFFF" enable-background="new    " d="M73.1,83.3c0,0,1.3-3.3,2.9-4.2"/>
	</g>
	<g>
		<path fill="#55C2E2" stroke="#070707" stroke-width="0.5" stroke-miterlimit="10" d="M26.7,83.1c0,0-6.2,7.2-0.7,8.8
			c0,0,4.5-0.1,2.5-5.3C28.5,86.6,26.8,84.6,26.7,83.1z"/>
		<path fill="none" stroke="#3A97AD" stroke-miterlimit="10" d="M26.4,91.3c0.9,0.4,2.3-1.8,2.2-2.6"/>
		
			<ellipse transform="matrix(0.6128 0.7902 -0.7902 0.6128 81.7005 15.1572)" opacity="0.8" fill="#FFFFFF" enable-background="new    " cx="25.4" cy="91" rx="0.6" ry="0.5"/>
		<path opacity="0.8" fill="#FFFFFF" enable-background="new    " d="M24.9,86.2c0,0,0.8-2,1.8-2.5"/>
	</g>
	<g>
		<path fill="#55C2E2" stroke="#070707" stroke-width="0.5" stroke-miterlimit="10" d="M70.5,54.1c0,0-6.2,7.2-0.7,8.8
			c0,0,4.5-0.1,2.5-5.3C72.3,57.6,70.6,55.6,70.5,54.1z"/>
		<path fill="none" stroke="#3A97AD" stroke-miterlimit="10" d="M70.1,62.3c0.9,0.4,2.3-1.8,2.2-2.6"/>
		
			<ellipse transform="matrix(0.6126 0.7904 -0.7904 0.6126 75.7448 -30.6744)" opacity="0.8" fill="#FFFFFF" enable-background="new    " cx="69.2" cy="61.9" rx="0.6" ry="0.5"/>
		<path opacity="0.8" fill="#FFFFFF" enable-background="new    " d="M68.7,57.2c0,0,0.8-2,1.8-2.5"/>
	</g>
	<g>
		<path fill="#55C2E2" stroke="#070707" stroke-width="0.5" stroke-miterlimit="10" d="M65.7,42.2c0,0-3.9,4.5-0.5,5.5
			c0,0,2.8-0.1,1.6-3.3C66.8,44.3,65.7,43.1,65.7,42.2z"/>
		<path fill="none" stroke="#3A97AD" stroke-miterlimit="10" d="M65.4,47.3c0.5,0.3,1.5-1.1,1.4-1.6"/>
		<ellipse opacity="0.8" fill="#FFFFFF" enable-background="new    " cx="64.8" cy="46.6" rx="0.3" ry="0.3"/>
		<path opacity="0.8" fill="#FFFFFF" enable-background="new    " d="M64.5,44.1c0,0,0.5-1.3,1.1-1.6"/>
	</g>
	<g>
		<path fill="#55C2E2" stroke="#070707" stroke-width="0.5" stroke-miterlimit="10" d="M30.2,44c0,0-3.9,4.5-0.5,5.5
			c0,0,2.8-0.1,1.6-3.3C31.3,46.2,30.3,45,30.2,44z"/>
		<path fill="none" stroke="#3A97AD" stroke-miterlimit="10" d="M30,49.2c0.5,0.3,1.5-1.1,1.4-1.6"/>
		<ellipse opacity="0.8" fill="#FFFFFF" enable-background="new    " cx="29.3" cy="48.5" rx="0.3" ry="0.3"/>
		<path opacity="0.8" fill="#FFFFFF" enable-background="new    " d="M29.1,46c0,0,0.5-1.3,1.1-1.6"/>
	</g>
</g>
</svg>
