<?xml version="1.0" encoding="utf-8"?>
<!-- Generator: Adobe Illustrator 17.1.0, SVG Export Plug-In . SVG Version: 6.00 Build 0)  -->
<!DOCTYPE svg PUBLIC "-//W3C//DTD SVG 1.1//EN" "http://www.w3.org/Graphics/SVG/1.1/DTD/svg11.dtd">
<svg version="1.1" id="Layer_1" xmlns="http://www.w3.org/2000/svg" xmlns:xlink="http://www.w3.org/1999/xlink" x="0px" y="0px"
	 viewBox="0 0 100 100" enable-background="new 0 0 100 100" xml:space="preserve">
<pattern  y="100" width="2.4" height="2.4" patternUnits="userSpaceOnUse" id="SVGID_3" viewBox="4.3 -6.7 2.4 2.4" overflow="visible">
	<g>
		<polygon fill="none" points="4.3,-6.7 6.7,-6.7 6.7,-4.3 4.3,-4.3 		"/>
		<g>
			<polygon fill="none" points="11,-6.2 4.8,-6.2 4.8,0 11,0 			"/>
		</g>
		<g>
			<polygon fill="none" points="8.6,-6.2 2.4,-6.2 2.4,0 8.6,0 			"/>
		</g>
		<g>
			<polygon fill="none" points="6.2,-6.2 0,-6.2 0,0 6.2,0 			"/>
		</g>
		<g>
			<polygon fill="none" points="11,-8.6 4.8,-8.6 4.8,-2.4 11,-2.4 			"/>
		</g>
		<g>
			<polygon fill="none" points="8.6,-8.6 2.4,-8.6 2.4,-2.4 8.6,-2.4 			"/>
			<path fill="#010101" d="M6-5.3c0-0.3-0.3-0.5-0.5-0.5C5.3-5.8,5-5.5,5-5.3C5-5,5.3-4.7,5.5-4.7C5.8-4.7,6-5,6-5.3z"/>
		</g>
		<g>
			<polygon fill="none" points="6.2,-8.6 0,-8.6 0,-2.4 6.2,-2.4 			"/>
		</g>
		<g>
			<polygon fill="none" points="11,-11 4.8,-11 4.8,-4.8 11,-4.8 			"/>
		</g>
		<g>
			<polygon fill="none" points="8.6,-11 2.4,-11 2.4,-4.8 8.6,-4.8 			"/>
		</g>
		<g>
			<polygon fill="none" points="6.2,-11 0,-11 0,-4.8 6.2,-4.8 			"/>
		</g>
	</g>
</pattern>
<g id="legs">
	<path fill="#FFFFFF" stroke="#010101" stroke-miterlimit="10" d="M38.3,56.8c0,0-6.4,2.9-7.2,4.6c0,0,0.2-0.1,1.1,0
		c0,0-4.2,2.7-4.4,3.9c0,0,1.9-1.4,2.4-1.4s-4.5,4.8-2.4,7.7c0,0-0.1-8.3,10.7-13.7"/>
	<path fill="#FFFFFF" stroke="#010101" stroke-miterlimit="10" d="M64.5,57.3c0,0,6.4,2.9,7.2,4.6c0,0-0.2-0.1-1.1,0
		c0,0,4.2,2.7,4.4,3.9c0,0-1.9-1.4-2.4-1.4s4.5,4.8,2.4,7.7c0,0,0.1-8.3-10.7-13.7"/>
	<path fill="#FFFFFF" stroke="#010101" stroke-miterlimit="10" d="M63.7,76.2c0,0,1,1.5,1,2.4s0.9,7.6-2.2,12.2c0,0,1.1-0.3,1.2-0.8
		c0,0-0.3,0.8-1.8,2.2c-1.4,1.4-1.8,2.8-3.4,3.3c0,0,4.2-4.9,4.4-7.7c0.2-2.8,1.7-4.2,0.6-10.4L63.7,76.2z"/>
	<path fill="#FFFFFF" stroke="#010101" stroke-miterlimit="10" d="M40.5,55.7c0,0-2.4,0-2.2,1.1s0.5,1.6,1.4,1.4L40.5,55.7z"/>
	<path fill="#FFFFFF" stroke="#010101" stroke-miterlimit="10" d="M38.4,76.2c0,0-1,1.5-1,2.4s-0.9,7.6,2.2,12.2
		c0,0-1.1-0.2-1.2-0.8c0,0,0.3,0.8,1.8,2.2c1.4,1.4,1.8,2.8,3.4,3.3c0,0-4.2-4.9-4.4-7.7c-0.3-2.8-1.7-4.2-0.6-10.4L38.4,76.2z"/>
	<path fill="#FFFFFF" stroke="#010101" stroke-miterlimit="10" d="M62.3,56.3c0,0,2.4,0,2.2,1.1S64,59,63.1,58.8L62.3,56.3z"/>
	<path fill="#FFFFFF" stroke="#010101" stroke-miterlimit="10" d="M38.6,38c0,0,1.1-5.4,0.3-6.9c-0.8-1.5-5.2-6-6.4-6
		c0,0,1.5,1.1,1.7,1.6c0,0-0.8-0.4-1.7,0c0,0,2.2,0.3,3.3,2.1c1.1,1.8,2,1.8,2,4.3c0,2.4,0,5,0,5h0.8C38.6,38.1,38.6,38,38.6,38z"/>
	<path fill="#FFFFFF" stroke="#010101" stroke-miterlimit="10" d="M63.7,38.2c0,0-1.1-5.4-0.3-6.9c0.8-1.5,5.2-6,6.4-6
		c0,0-1.5,1.1-1.7,1.6c0,0,0.8-0.4,1.7,0c0,0-2.2,0.3-3.3,2.1c-1.1,1.8-2,1.8-2,4.3c0,2.4,0,5,0,5h-0.8V38.2z"/>
	<path fill="#FFFFFF" stroke="#010101" stroke-miterlimit="10" d="M61.5,39.4c0,0,0.7-1.4,2.3-1.3c0,0,0.9,0,0.7,0.7
		s-0.3,1.8-2.3,2.9C62.2,41.7,61.9,39.1,61.5,39.4z"/>
	<path fill="#FFFFFF" stroke="#010101" stroke-miterlimit="10" d="M40.9,39.1c0,0-0.7-1.4-2.3-1.3c0,0-0.9,0-0.7,0.7
		s0.3,1.8,2.3,2.9C40.2,41.3,40.4,38.8,40.9,39.1z"/>
</g>
<g id="basebody">
	<path fill="#FFFFFF" stroke="#010101" stroke-miterlimit="10" d="M50.7,59.6l-7-8.6c-0.2-1.1-1-5.8-3.3-8.9
		c-0.1-0.3-0.5-1.6,0.2-2.6c0.7-1.1,2.5-1.6,5.1-1.6H46h10.5h0.2c2.6,0,4.4,0.6,5.1,1.6c0.7,1,0.3,2.2,0.2,2.6
		c-2.3,3.1-3.1,7.8-3.3,8.9l-7.2,8.7L50.7,59.6z"/>
	<path fill="#FFFFFF" stroke="#010101" stroke-miterlimit="10" d="M38.8,80.5c0,0,8.7,15.8,12.5,16.3c0,0,10-8.2,12.3-16.3
		C63.6,80.5,51.2,74,38.8,80.5z"/>
	<path fill="#FFFFFF" stroke="#010101" stroke-miterlimit="10" d="M42.7,51.4c0,0-3.8,1.8-3.8,12.7s0,16.4,0,16.4s7.5,3.2,12.3-1
		V60.3C51.1,60.3,48.1,51.1,42.7,51.4z"/>
	<path fill="#FFFFFF" stroke="#010101" stroke-miterlimit="10" d="M59.8,51.4c0,0,3.8,1.8,3.8,12.7s0,16.4,0,16.4s-7.5,3.2-12.3-1
		V60.3C51.4,60.3,54.3,51.1,59.8,51.4z"/>
	<path fill="#FFFFFF" stroke="#010101" stroke-miterlimit="10" d="M46.4,37.1"/>
	<path fill="#FFFFFF" stroke="#010101" stroke-miterlimit="10" d="M43.3,35.6c0,0-0.9-5.4,2.2-6.8c3.1-1.4,3.8-2,3.8-2s2-1.3,4.2,0
		c0,0,0.7,0.6,3.8,2s2.2,6.8,2.2,6.8S51.5,43.1,43.3,35.6z"/>
</g>
<g id="bodycolor">
	<path fill="#6CBE45" stroke="#010101" stroke-miterlimit="10" d="M50.5,59.6L43.6,51c-0.2-1.1-1-5.8-3.3-8.9
		c-0.1-0.3-0.5-1.6,0.2-2.6c0.7-1.1,2.5-1.6,5.1-1.6h0.2h10.5h0.2c2.6,0,4.4,0.6,5.1,1.6c0.7,1,0.3,2.2,0.2,2.6
		c-2.3,3.1-3.1,7.8-3.3,8.9l-7.2,8.7L50.5,59.6z"/>
	<path fill="#6CBE45" stroke="#010101" stroke-miterlimit="10" d="M38.7,80.5c0,0,8.7,15.8,12.5,16.3c0,0,10-8.2,12.3-16.3
		C63.5,80.5,51.1,74,38.7,80.5z"/>
	<path fill="#D0DD28" stroke="#010101" stroke-miterlimit="10" d="M42.5,51.4c0,0-3.8,1.8-3.8,12.7s0,16.4,0,16.4s7.5,3.2,12.3-1
		V60.3C51,60.3,48,51.1,42.5,51.4z"/>
	<path fill="#D0DD28" stroke="#010101" stroke-miterlimit="10" d="M59.7,51.4c0,0,3.8,1.8,3.8,12.7s0,16.4,0,16.4s-7.5,3.2-12.3-1
		V60.3C51.2,60.3,54.2,51.1,59.7,51.4z"/>
	<path fill="#FFFFFF" stroke="#010101" stroke-miterlimit="10" d="M46.3,37.1"/>
	<path fill="#6CBE45" stroke="#010101" stroke-miterlimit="10" d="M43.2,35.6c0,0-0.9-5.4,2.2-6.8c3.1-1.4,3.8-2,3.8-2s2-1.3,4.2,0
		c0,0,0.7,0.6,3.8,2s2.2,6.8,2.2,6.8S51.4,43.1,43.2,35.6z"/>
</g>
<g id="eyes">
	<path fill="#FF9900" stroke="#010101" stroke-width="0.5" stroke-miterlimit="10" d="M43.4,32.6c0,0,2.8-6.2,5-3.4
		c0,0-0.6,7.8-5.3,4.3L43.4,32.6z"/>
	<path fill="#FF9900" stroke="#010101" stroke-width="0.5" stroke-miterlimit="10" d="M59.5,32.6c0,0-2.8-6.2-5-3.4
		c0,0,0.6,7.8,5.3,4.3L59.5,32.6z"/>
</g>
<g id="antennae">
	<path fill="none" stroke="#010101" stroke-miterlimit="10" d="M53.6,27.3c0,0,0.7-0.9,2.3-1c1.7-0.1,3.7-1.2,4.7-3.7
		s5.6-6.9,5.3-8.6"/>
	<path fill="none" stroke="#010101" stroke-miterlimit="10" d="M49.1,26.9c0,0-0.7-0.9-2.3-1c-1.7-0.1-3.7-1.2-4.7-3.7
		c-0.9-2.4-5.6-6.9-5.3-8.6"/>
</g>
<g id="markings">
	<path fill="#010101" d="M40,82.6c0,0,9.1,5.9,10.9-3.4"/>
	<path fill="#010101" d="M51.3,79.2c1.8,9.2,10.9,3.4,10.9,3.4l0.5-0.3"/>
	<path fill="#010101" d="M53.5,58.5c-0.3,2.3,0.8,3.9,3.1,3.8c2.4-0.1,4.3-1.2,4.5-3.8c0.1-2,0.3-4.8-2-5.4
		C59.1,53,53.4,54.2,53.5,58.5z"/>
	<path fill="#010101" d="M48.4,58.5c0.3,2.3-0.8,3.9-3.1,3.8c-2.4-0.1-4.3-1.2-4.5-3.8c-0.1-2-0.3-4.8,2-5.4
		C42.9,53,48.5,54.2,48.4,58.5z"/>
</g>
<g id="dots">
	<pattern  id="SVGID_1_" xlink:href="#SVGID_3" patternTransform="matrix(0.2714 0 0 -0.2714 -17829.1738 -14816.1016)">
	</pattern>
	<path fill="url(#SVGID_1_)" stroke="#070707" stroke-miterlimit="10" d="M42.6,51.5c0,0-3.8,1.8-3.8,12.7s0,16.4,0,16.4
		s7.5,3.2,12.3-1V60.4C51,60.4,48,51.2,42.6,51.5z"/>
	<pattern  id="SVGID_2_" xlink:href="#SVGID_3" patternTransform="matrix(0.2714 0 0 -0.2714 -17829.1738 -14816.1016)">
	</pattern>
	<path fill="url(#SVGID_2_)" stroke="#070707" stroke-miterlimit="10" d="M59.7,51.5c0,0,3.8,1.8,3.8,12.7s0,16.4,0,16.4
		s-7.5,3.2-12.3-1V60.4C51.3,60.4,54.3,51.2,59.7,51.5z"/>
</g>
<g id="fur">
	<g>
		<g>
			<path fill="none" stroke="#0000FF" stroke-miterlimit="10" d="M1,95.8"/>
		</g>
	</g>
	<g>
		<g>
			<g>
				<g>
					<path fill="none" stroke="#0000FF" stroke-miterlimit="10" d="M46.1,37.9c0,0-0.1-0.3-0.3-0.6c-0.1-0.3-0.3-0.6-0.3-0.6
						s-0.1,0.1-0.1,0.2c-0.1,0.1-0.2,0.3-0.2,0.4C45,37.7,44.9,38,44.9,38"/>
				</g>
				<g>
					<path fill="none" stroke="#0000FF" stroke-miterlimit="10" d="M44.7,38c0,0-0.2-0.3-0.3-0.6c-0.2-0.3-0.4-0.6-0.4-0.6
						s-0.2,0.3-0.3,0.7c-0.1,0.3-0.2,0.7-0.2,0.7"/>
				</g>
				<g>
					<path fill="none" stroke="#0000FF" stroke-miterlimit="10" d="M43.3,38.2c0,0-0.1-0.1-0.1-0.2c-0.1-0.1-0.2-0.2-0.3-0.4
						c-0.2-0.3-0.4-0.5-0.4-0.5s0,0.1-0.1,0.2s-0.1,0.3-0.1,0.5s-0.1,0.4-0.1,0.5s0,0.2,0,0.2"/>
				</g>
				<g>
					<path fill="none" stroke="#0000FF" stroke-miterlimit="10" d="M42,38.6c0,0-0.1-0.1-0.2-0.1c-0.1-0.1-0.2-0.2-0.4-0.3
						c-0.1-0.1-0.3-0.2-0.4-0.3c-0.1-0.1-0.2-0.1-0.2-0.1s0,0.4,0.1,0.7c0,0.2,0.1,0.4,0.1,0.5s0.1,0.2,0.1,0.2"/>
				</g>
				<g>
					<path fill="none" stroke="#0000FF" stroke-miterlimit="10" d="M41,39.3c0,0-0.3-0.1-0.6-0.2c-0.4,0-0.7-0.1-0.7-0.1
						s0,0.1,0.1,0.2c0.1,0.1,0.2,0.3,0.2,0.4c0.1,0.1,0.2,0.3,0.3,0.4c0.1,0.1,0.2,0.1,0.2,0.1"/>
				</g>
				<g>
					<path fill="none" stroke="#0000FF" stroke-miterlimit="10" d="M40.5,40.4c0,0-0.1,0-0.2,0c-0.1,0-0.3,0.1-0.4,0.1
						c-0.2,0.1-0.3,0.1-0.4,0.1c-0.1,0.1-0.2,0.1-0.2,0.1s0.3,0.2,0.6,0.4s0.6,0.3,0.6,0.3"/>
				</g>
				<g>
					<path fill="none" stroke="#0000FF" stroke-miterlimit="10" d="M40.4,41.6c0,0-0.3,0.2-0.6,0.4s-0.5,0.4-0.5,0.4
						s0.4,0.1,0.7,0.2c0.2,0,0.3-0.1,0.5-0.1c0.1,0,0.2,0,0.2,0"/>
				</g>
				<g>
					<path fill="none" stroke="#0000FF" stroke-miterlimit="10" d="M40.9,42.7c0,0-0.2,0.3-0.4,0.6s-0.4,0.5-0.4,0.5s0.4,0,0.7,0
						c0.2,0,0.4,0,0.5,0s0.2,0,0.2,0"/>
				</g>
				<g>
					<path fill="none" stroke="#0000FF" stroke-miterlimit="10" d="M41.7,44c0,0-0.2,0.3-0.4,0.5S40.9,45,40.9,45s0.4,0,0.7,0.1
						c0.4,0.1,0.7,0.1,0.7,0.1"/>
				</g>
				<g>
					<path fill="none" stroke="#0000FF" stroke-miterlimit="10" d="M42.3,45.5c0,0-0.2,0.2-0.5,0.5c-0.2,0.2-0.5,0.5-0.5,0.5
						s0.4,0.1,0.7,0.1c0.4,0.1,0.7,0.2,0.7,0.2"/>
				</g>
				<g>
					<path fill="none" stroke="#0000FF" stroke-miterlimit="10" d="M42.9,47c0,0-0.2,0.2-0.5,0.5c-0.2,0.2-0.5,0.4-0.5,0.4
						s0.4,0.1,0.7,0.2c0.4,0.1,0.7,0.2,0.7,0.2"/>
				</g>
				<g>
					<path fill="none" stroke="#0000FF" stroke-miterlimit="10" d="M43.3,48.5c0,0-0.3,0.2-0.5,0.4c-0.3,0.2-0.5,0.4-0.5,0.4
						s0.4,0.1,0.7,0.2c0.3,0.1,0.7,0.2,0.7,0.2"/>
				</g>
				<g>
					<path fill="none" stroke="#0000FF" stroke-miterlimit="10" d="M43.6,50c0,0-0.3,0.2-0.5,0.4c-0.3,0.2-0.5,0.4-0.5,0.4
						s0.3,0.1,0.7,0.2c0.3,0.1,0.7,0.3,0.7,0.3"/>
				</g>
			</g>
		</g>
	</g>
	<g>
		<g>
			<g>
				<g>
					<path fill="none" stroke="#0000FF" stroke-miterlimit="10" d="M58.8,51.3c0,0,0.3-0.1,0.7-0.2c0.3-0.1,0.7-0.2,0.7-0.2
						s-0.3-0.2-0.5-0.5c-0.3-0.2-0.5-0.5-0.5-0.5"/>
				</g>
				<g>
					<path fill="none" stroke="#0000FF" stroke-miterlimit="10" d="M59.1,49.8c0,0,0.3-0.1,0.7-0.1c0.3-0.1,0.7-0.1,0.7-0.1
						s-0.2-0.2-0.5-0.5c-0.2-0.2-0.5-0.5-0.5-0.5"/>
				</g>
				<g>
					<path fill="none" stroke="#0000FF" stroke-miterlimit="10" d="M59.5,48.3c0,0,0.3-0.1,0.7-0.1c0.3-0.1,0.7-0.1,0.7-0.1
						s-0.2-0.3-0.5-0.5c-0.2-0.3-0.5-0.5-0.5-0.5"/>
				</g>
				<g>
					<path fill="none" stroke="#0000FF" stroke-miterlimit="10" d="M60,46.8c0,0,0.3,0,0.7-0.1c0.3,0,0.7-0.1,0.7-0.1
						s-0.2-0.3-0.5-0.5c-0.2-0.3-0.4-0.6-0.4-0.6"/>
				</g>
				<g>
					<path fill="none" stroke="#0000FF" stroke-miterlimit="10" d="M60.5,45.3c0,0,0.3,0,0.7,0c0.3,0,0.7,0,0.7,0s-0.2-0.3-0.4-0.6
						s-0.4-0.6-0.4-0.6"/>
				</g>
				<g>
					<path fill="none" stroke="#0000FF" stroke-miterlimit="10" d="M61.2,43.9c0,0,0.3,0,0.7,0.1c0.3,0,0.7,0.1,0.7,0.1
						s-0.2-0.3-0.4-0.6C62.1,43.2,62,43.1,62,43c-0.1-0.1-0.1-0.2-0.1-0.2"/>
				</g>
				<g>
					<path fill="none" stroke="#0000FF" stroke-miterlimit="10" d="M62,42.5c0,0,0.1,0,0.2,0c0.1,0,0.1,0,0.2,0
						c0.1,0,0.1,0.1,0.2,0.1c0.2,0,0.3,0,0.5,0c0.1,0,0.2,0,0.2,0s-0.2-0.3-0.5-0.5c-0.2-0.2-0.5-0.4-0.5-0.4"/>
				</g>
				<g>
					<path fill="none" stroke="#0000FF" stroke-miterlimit="10" d="M62.3,41.4c0,0,0.3-0.1,0.6-0.2c0.3-0.1,0.6-0.3,0.6-0.3
						s-0.3-0.2-0.7-0.3c-0.2-0.1-0.3-0.1-0.5-0.2c-0.1,0-0.2-0.1-0.2-0.1"/>
				</g>
				<g>
					<path fill="none" stroke="#0000FF" stroke-miterlimit="10" d="M62.2,40.2c0,0,0.1-0.1,0.2-0.1c0.1-0.1,0.2-0.2,0.3-0.3
						s0.2-0.2,0.3-0.4c0.1-0.1,0.1-0.2,0.1-0.2s-0.1,0-0.2,0c-0.1,0-0.3,0-0.5,0c-0.4,0-0.7,0.1-0.7,0.1"/>
				</g>
				<g>
					<path fill="none" stroke="#0000FF" stroke-miterlimit="10" d="M61.6,39.2c0,0,0-0.1,0.1-0.2c0.1-0.1,0.1-0.3,0.1-0.4
						c0.1-0.3,0.1-0.7,0.1-0.7s-0.1,0-0.2,0.1s-0.3,0.1-0.4,0.2c-0.2,0.1-0.3,0.2-0.4,0.2c-0.1,0.1-0.2,0.1-0.2,0.1"/>
				</g>
				<g>
					<path fill="none" stroke="#0000FF" stroke-miterlimit="10" d="M60.6,38.6c0,0,0-0.3,0-0.7c0-0.3-0.1-0.7-0.1-0.7
						s-0.1,0.1-0.2,0.1c-0.1,0.1-0.2,0.2-0.4,0.3c-0.2,0.2-0.5,0.5-0.5,0.5"/>
				</g>
				<g>
					<path fill="none" stroke="#0000FF" stroke-miterlimit="10" d="M59.3,38.2c0,0-0.1-0.3-0.1-0.7c-0.1-0.3-0.2-0.7-0.2-0.7
						s-0.2,0.3-0.4,0.6S58.2,38,58.2,38"/>
				</g>
				<g>
					<path fill="none" stroke="#0000FF" stroke-miterlimit="10" d="M57.8,38c0,0-0.1-0.3-0.2-0.6c-0.1-0.3-0.2-0.6-0.2-0.6
						S57.2,37,57,37.3s-0.4,0.6-0.4,0.6"/>
				</g>
			</g>
		</g>
	</g>
	<g>
		<g>
			<g>
				<g>
					<polyline fill="none" stroke="#0000FF" stroke-miterlimit="10" points="38.2,82.3 38.7,81.2 38.3,82.3 					"/>
				</g>
				<g>
					<polyline fill="none" stroke="#0000FF" stroke-miterlimit="10" points="37.4,80.8 38.6,80.2 37.4,79.5 					"/>
				</g>
				<g>
					<polyline fill="none" stroke="#0000FF" stroke-miterlimit="10" points="37.4,79.3 38.6,78.8 37.4,78 					"/>
				</g>
				<g>
					<polyline fill="none" stroke="#0000FF" stroke-miterlimit="10" points="37.4,77.8 38.6,77.2 37.4,76.5 					"/>
				</g>
				<g>
					<polyline fill="none" stroke="#0000FF" stroke-miterlimit="10" points="37.4,76.3 38.6,75.7 37.4,75 					"/>
				</g>
				<g>
					<polyline fill="none" stroke="#0000FF" stroke-miterlimit="10" points="37.4,74.8 38.6,74.2 37.4,73.5 					"/>
				</g>
				<g>
					<polyline fill="none" stroke="#0000FF" stroke-miterlimit="10" points="37.4,73.2 38.6,72.7 37.4,72 					"/>
				</g>
				<g>
					<polyline fill="none" stroke="#0000FF" stroke-miterlimit="10" points="37.4,71.7 38.6,71.2 37.4,70.4 					"/>
				</g>
				<g>
					<polyline fill="none" stroke="#0000FF" stroke-miterlimit="10" points="37.4,70.2 38.6,69.7 37.4,69 					"/>
				</g>
				<g>
					<polyline fill="none" stroke="#0000FF" stroke-miterlimit="10" points="37.4,68.7 38.6,68.2 37.4,67.4 					"/>
				</g>
				<g>
					<polyline fill="none" stroke="#0000FF" stroke-miterlimit="10" points="37.4,67.2 38.6,66.6 37.4,65.9 					"/>
				</g>
				<g>
					<polyline fill="none" stroke="#0000FF" stroke-miterlimit="10" points="37.4,65.7 38.6,65.1 37.4,64.4 					"/>
				</g>
				<g>
					<path fill="none" stroke="#0000FF" stroke-miterlimit="10" d="M37.4,64.2c0,0,0.3-0.1,0.6-0.3c0.3-0.1,0.6-0.3,0.6-0.3
						s-0.3-0.2-0.6-0.4s-0.6-0.4-0.6-0.4"/>
				</g>
				<g>
					<path fill="none" stroke="#0000FF" stroke-miterlimit="10" d="M37.4,62.6c0,0,0.3-0.1,0.6-0.2c0.3-0.1,0.6-0.2,0.6-0.2
						S38.3,62,38,61.7c-0.3-0.2-0.6-0.4-0.6-0.4"/>
				</g>
				<g>
					<path fill="none" stroke="#0000FF" stroke-miterlimit="10" d="M37.5,61.1c0,0,0.3-0.1,0.6-0.2c0.3-0.1,0.6-0.2,0.6-0.2
						s-0.3-0.2-0.6-0.4s-0.6-0.4-0.6-0.4"/>
				</g>
				<g>
					<path fill="none" stroke="#0000FF" stroke-miterlimit="10" d="M37.7,59.6c0,0,0.3-0.1,0.7-0.2c0.3-0.1,0.7-0.2,0.7-0.2
						s-0.3-0.2-0.5-0.5c-0.3-0.2-0.5-0.5-0.5-0.5"/>
				</g>
				<g>
					<path fill="none" stroke="#0000FF" stroke-miterlimit="10" d="M37.9,58c0,0,0.3-0.1,0.7-0.2c0.3-0.1,0.7-0.1,0.7-0.1
						s-0.3-0.2-0.5-0.5c-0.2-0.2-0.5-0.5-0.5-0.5"/>
				</g>
				<g>
					<path fill="none" stroke="#0000FF" stroke-miterlimit="10" d="M38.2,56.5c0,0,0.3-0.1,0.7-0.1c0.3-0.1,0.7-0.1,0.7-0.1
						s-0.2-0.2-0.5-0.5s-0.5-0.5-0.5-0.5"/>
				</g>
				<g>
					<path fill="none" stroke="#0000FF" stroke-miterlimit="10" d="M38.7,55c0,0,0.3,0,0.7-0.1c0.3,0,0.7,0,0.7,0s-0.2-0.3-0.4-0.6
						s-0.4-0.6-0.4-0.6"/>
				</g>
				<g>
					<path fill="none" stroke="#0000FF" stroke-miterlimit="10" d="M39.4,53.5c0,0,0.3,0,0.7,0c0.3,0,0.7,0.1,0.7,0.1
						s-0.2-0.3-0.3-0.6c-0.2-0.3-0.3-0.7-0.3-0.7"/>
				</g>
				<g>
					<path fill="none" stroke="#0000FF" stroke-miterlimit="10" d="M40.2,52.1c0,0,0.3,0.1,0.7,0.2c0.3,0.1,0.6,0.2,0.6,0.2
						s-0.1-0.3-0.2-0.7c-0.1-0.4-0.1-0.7-0.1-0.7"/>
				</g>
				<g>
					<path fill="none" stroke="#0000FF" stroke-miterlimit="10" d="M41.4,50.9c0,0,0.3,0.1,0.6,0.3c0.1,0.1,0.3,0.2,0.4,0.3
						c0.1,0.1,0.1,0.1,0.1,0.1s0,0,0-0.1v-0.1c0-0.1,0.1-0.3,0.2-0.4c0.2-0.3,0.4-0.6,0.4-0.6"/>
				</g>
				<g>
					<path fill="none" stroke="#0000FF" stroke-miterlimit="10" d="M43.3,50.4c0,0,0.1,0.3,0.2,0.6c0.1,0.3,0.2,0.7,0.2,0.7
						s0.2-0.3,0.5-0.5c0.2-0.2,0.5-0.5,0.5-0.5"/>
				</g>
				<g>
					<path fill="none" stroke="#0000FF" stroke-miterlimit="10" d="M45,50.7c0,0,0.1,0.4,0.1,0.7s0,0.7,0,0.7s0.3-0.2,0.6-0.4
						s0.6-0.4,0.6-0.4"/>
				</g>
				<g>
					<path fill="none" stroke="#0000FF" stroke-miterlimit="10" d="M46.5,51.5c0,0,0,0.3-0.1,0.7c-0.1,0.3-0.1,0.7-0.1,0.7
						s0.3-0.1,0.7-0.3s0.7-0.2,0.7-0.2"/>
				</g>
				<g>
					<path fill="none" stroke="#0000FF" stroke-miterlimit="10" d="M47.8,52.5c0,0-0.1,0.3-0.2,0.7s-0.2,0.6-0.2,0.6
						s0.4-0.1,0.7-0.2c0.4-0.1,0.7-0.1,0.7-0.1"/>
				</g>
				<g>
					<path fill="none" stroke="#0000FF" stroke-miterlimit="10" d="M48.9,53.6c0,0-0.1,0.3-0.3,0.6s-0.3,0.6-0.3,0.6
						s0.4-0.1,0.7-0.1c0.4,0,0.7-0.1,0.7-0.1"/>
				</g>
				<g>
					<path fill="none" stroke="#0000FF" stroke-miterlimit="10" d="M49.8,54.9c0,0-0.2,0.3-0.4,0.6S49,56.1,49,56.1s0.4,0,0.7,0
						c0.4,0,0.7,0,0.7,0"/>
				</g>
				<g>
					<path fill="none" stroke="#0000FF" stroke-miterlimit="10" d="M50.7,56.3c0,0-0.2,0.3-0.4,0.5c-0.2,0.3-0.4,0.5-0.4,0.5
						s0.4,0,0.7,0c0.4,0,0.7,0.1,0.7,0.1"/>
				</g>
				<g>
					<path fill="none" stroke="#0000FF" stroke-miterlimit="10" d="M51.4,57.6c0,0-0.2,0.2-0.4,0.5c-0.2,0.2-0.4,0.5-0.4,0.5
						s0.4,0,0.7,0.1c0.4,0.1,0.7,0.1,0.7,0.1"/>
				</g>
				<g>
					<path fill="none" stroke="#0000FF" stroke-miterlimit="10" d="M52,59.1c0,0-0.2,0.2-0.5,0.5c-0.2,0.2-0.5,0.5-0.5,0.5
						s0.4,0.1,0.7,0.1c0.4,0.1,0.7,0.1,0.7,0.1"/>
				</g>
			</g>
		</g>
	</g>
	<g>
		<g>
			<g>
				<polyline fill="none" stroke="#0000FF" stroke-miterlimit="10" points="52.3,80.8 51.4,80 52.1,81 				"/>
			</g>
		</g>
	</g>
	<g>
		<g>
			<path fill="none" stroke="#0000FF" stroke-miterlimit="10" d="M57.7,83"/>
		</g>
	</g>
	<g>
		<g>
			<g>
				<g>
					<path fill="none" stroke="#0000FF" stroke-miterlimit="10" d="M50,60.3c0,0,0.3,0,0.7-0.1c0.3,0,0.7,0,0.7,0s-0.2-0.3-0.4-0.6
						S50.6,59,50.6,59"/>
				</g>
				<g>
					<path fill="none" stroke="#0000FF" stroke-miterlimit="10" d="M50.6,58.9c0,0,0.3,0,0.7,0c0.3,0,0.7,0,0.7,0s-0.2-0.3-0.4-0.6
						s-0.4-0.6-0.4-0.6"/>
				</g>
				<g>
					<path fill="none" stroke="#0000FF" stroke-miterlimit="10" d="M51.2,57.4c0,0,0.3,0,0.7,0c0.3,0,0.7,0.1,0.7,0.1
						s-0.2-0.3-0.4-0.6s-0.4-0.6-0.4-0.6"/>
				</g>
				<g>
					<path fill="none" stroke="#0000FF" stroke-miterlimit="10" d="M52,56.1c0,0,0.3,0,0.7,0.1c0.3,0.1,0.7,0.1,0.7,0.1
						S53.1,56,53,55.7c-0.2-0.3-0.3-0.7-0.3-0.7"/>
				</g>
				<g>
					<path fill="none" stroke="#0000FF" stroke-miterlimit="10" d="M52.8,54.8c0,0,0.3,0.1,0.7,0.1s0.7,0.2,0.7,0.2
						s-0.1-0.3-0.3-0.7c-0.1-0.3-0.2-0.7-0.2-0.7"/>
				</g>
				<g>
					<path fill="none" stroke="#0000FF" stroke-miterlimit="10" d="M53.8,53.5c0,0,0.3,0.1,0.7,0.2c0.3,0.1,0.6,0.2,0.6,0.2
						s-0.1-0.3-0.2-0.7c-0.1-0.4-0.1-0.7-0.1-0.7"/>
				</g>
				<g>
					<path fill="none" stroke="#0000FF" stroke-miterlimit="10" d="M54.9,52.4c0,0,0.3,0.1,0.6,0.3s0.6,0.3,0.6,0.3S56,52.6,56,52.3
						c0-0.4,0-0.7,0-0.7"/>
				</g>
				<g>
					<path fill="none" stroke="#0000FF" stroke-miterlimit="10" d="M56.3,51.5c0,0,0.3,0.2,0.5,0.4s0.5,0.4,0.5,0.4s0-0.4,0.1-0.7
						c0.1-0.4,0.2-0.7,0.2-0.7"/>
				</g>
				<g>
					<path fill="none" stroke="#0000FF" stroke-miterlimit="10" d="M57.8,50.8c0,0,0.2,0.2,0.4,0.5s0.4,0.5,0.4,0.5s0.1-0.3,0.2-0.7
						c0.1-0.3,0.3-0.7,0.3-0.7"/>
				</g>
				<g>
					<path fill="none" stroke="#0000FF" stroke-miterlimit="10" d="M59.5,50.6c0,0,0,0.1,0.1,0.2c0.1,0.1,0.1,0.3,0.2,0.4
						c0.1,0.2,0.1,0.3,0.1,0.4c0,0.1,0,0.1,0,0.1v0.1c0,0,0,0,0-0.1l0.1-0.1c0.1-0.1,0.2-0.2,0.4-0.2c0.3-0.2,0.7-0.2,0.7-0.2"/>
				</g>
				<g>
					<path fill="none" stroke="#0000FF" stroke-miterlimit="10" d="M61.3,51.3c0,0-0.1,0.3-0.2,0.7c-0.1,0.3-0.3,0.6-0.3,0.6
						s0.3-0.1,0.7-0.1c0.4-0.1,0.7-0.1,0.7-0.1"/>
				</g>
				<g>
					<path fill="none" stroke="#0000FF" stroke-miterlimit="10" d="M62.4,52.6c0,0-0.2,0.3-0.4,0.6s-0.4,0.5-0.4,0.5s0.4,0,0.7,0
						c0.4,0,0.7,0.1,0.7,0.1"/>
				</g>
				<g>
					<path fill="none" stroke="#0000FF" stroke-miterlimit="10" d="M63.2,54c0,0-0.2,0.3-0.4,0.5S62.3,55,62.3,55s0.4,0,0.7,0.1
						c0.4,0.1,0.7,0.1,0.7,0.1"/>
				</g>
				<g>
					<path fill="none" stroke="#0000FF" stroke-miterlimit="10" d="M63.8,55.4c0,0-0.2,0.2-0.5,0.5c-0.2,0.2-0.5,0.4-0.5,0.4
						s0.4,0.1,0.7,0.2c0.4,0.1,0.7,0.2,0.7,0.2"/>
				</g>
				<g>
					<path fill="none" stroke="#0000FF" stroke-miterlimit="10" d="M64.3,57c0,0-0.3,0.2-0.5,0.4c-0.3,0.2-0.5,0.4-0.5,0.4
						s0.3,0.1,0.7,0.2c0.3,0.1,0.7,0.2,0.7,0.2"/>
				</g>
				<g>
					<path fill="none" stroke="#0000FF" stroke-miterlimit="10" d="M64.6,58.5c0,0-0.3,0.2-0.5,0.4c-0.3,0.2-0.6,0.4-0.6,0.4
						s0.3,0.1,0.7,0.3c0.3,0.1,0.7,0.3,0.7,0.3"/>
				</g>
				<g>
					<path fill="none" stroke="#0000FF" stroke-miterlimit="10" d="M64.8,60c0,0-0.3,0.2-0.6,0.4c-0.3,0.2-0.6,0.3-0.6,0.3
						s0.3,0.1,0.7,0.3c0.3,0.2,0.7,0.3,0.7,0.3"/>
				</g>
				<g>
					<path fill="none" stroke="#0000FF" stroke-miterlimit="10" d="M65,61.5c0,0-0.3,0.2-0.6,0.3c-0.3,0.2-0.6,0.3-0.6,0.3
						s0.3,0.2,0.6,0.3c0.3,0.2,0.6,0.3,0.6,0.3"/>
				</g>
				<g>
					<path fill="none" stroke="#0000FF" stroke-miterlimit="10" d="M65.1,63.1c0,0-0.3,0.1-0.6,0.3c-0.3,0.1-0.6,0.3-0.6,0.3
						s0.3,0.2,0.6,0.4c0.3,0.2,0.6,0.4,0.6,0.4"/>
				</g>
				<g>
					<polyline fill="none" stroke="#0000FF" stroke-miterlimit="10" points="65.1,64.6 63.9,65.2 65.1,65.9 					"/>
				</g>
				<g>
					<polyline fill="none" stroke="#0000FF" stroke-miterlimit="10" points="65.1,66.1 63.9,66.7 65.1,67.4 					"/>
				</g>
				<g>
					<polyline fill="none" stroke="#0000FF" stroke-miterlimit="10" points="65.1,67.6 63.9,68.2 65.1,68.9 					"/>
				</g>
				<g>
					<polyline fill="none" stroke="#0000FF" stroke-miterlimit="10" points="65.1,69.1 63.9,69.7 65.1,70.4 					"/>
				</g>
				<g>
					<polyline fill="none" stroke="#0000FF" stroke-miterlimit="10" points="65.1,70.6 63.9,71.2 65.1,71.9 					"/>
				</g>
				<g>
					<polyline fill="none" stroke="#0000FF" stroke-miterlimit="10" points="65.1,72.2 63.9,72.7 65.1,73.4 					"/>
				</g>
				<g>
					<polyline fill="none" stroke="#0000FF" stroke-miterlimit="10" points="65.1,73.6 63.9,74.2 65.1,74.9 					"/>
				</g>
				<g>
					<polyline fill="none" stroke="#0000FF" stroke-miterlimit="10" points="65.1,75.2 63.9,75.7 65.1,76.4 					"/>
				</g>
				<g>
					<polyline fill="none" stroke="#0000FF" stroke-miterlimit="10" points="65.1,76.7 63.9,77.2 65.1,77.9 					"/>
				</g>
				<g>
					<polyline fill="none" stroke="#0000FF" stroke-miterlimit="10" points="65.1,78.2 63.9,78.7 65.1,79.5 					"/>
				</g>
				<g>
					<polyline fill="none" stroke="#0000FF" stroke-miterlimit="10" points="65.1,79.7 63.9,80.2 65.1,80.9 					"/>
				</g>
				<g>
					<polyline fill="none" stroke="#0000FF" stroke-miterlimit="10" points="64.2,82.5 63.7,81.3 64.2,82.5 					"/>
				</g>
			</g>
		</g>
	</g>
	<g>
		<g>
			<g>
				<g>
					<polyline fill="none" stroke="#0000FF" stroke-miterlimit="10" points="63.7,83.8 62.3,83.8 63.1,85 					"/>
				</g>
				<g>
					<path fill="none" stroke="#0000FF" stroke-miterlimit="10" d="M63,85.2l-1.3-0.1c0,0,0.2,0.3,0.4,0.6c0.2,0.3,0.4,0.6,0.4,0.6"
						/>
				</g>
				<g>
					<path fill="none" stroke="#0000FF" stroke-miterlimit="10" d="M62.3,86.5L61,86.4c0,0,0.2,0.3,0.4,0.6c0.2,0.3,0.4,0.6,0.4,0.6
						"/>
				</g>
				<g>
					<path fill="none" stroke="#0000FF" stroke-miterlimit="10" d="M61.6,87.8l-1.3-0.1c0,0,0.1,0.1,0.1,0.2
						c0.1,0.1,0.1,0.3,0.2,0.4c0.2,0.3,0.3,0.6,0.3,0.6"/>
				</g>
				<g>
					<path fill="none" stroke="#0000FF" stroke-miterlimit="10" d="M60.8,89.1c0,0-0.3-0.1-0.7-0.1c-0.2,0-0.6,0-0.6,0
						s0.2,0.3,0.3,0.6c0.2,0.3,0.3,0.7,0.3,0.7"/>
				</g>
				<g>
					<path fill="none" stroke="#0000FF" stroke-miterlimit="10" d="M60,90.4c0,0-0.3-0.1-0.7-0.1c-0.3-0.1-0.7-0.1-0.7-0.1
						s0.1,0.3,0.3,0.7c0.1,0.3,0.3,0.7,0.3,0.7"/>
				</g>
				<g>
					<path fill="none" stroke="#0000FF" stroke-miterlimit="10" d="M59.1,91.7c0,0-0.3-0.1-0.7-0.1c-0.3-0.1-0.7-0.2-0.7-0.2
						s0.1,0.3,0.3,0.7c0.1,0.3,0.2,0.7,0.2,0.7"/>
				</g>
				<g>
					<path fill="none" stroke="#0000FF" stroke-miterlimit="10" d="M58.2,92.9c0,0-0.3-0.1-0.7-0.2c-0.3-0.1-0.6-0.2-0.6-0.2
						s0,0.1,0.1,0.2s0.1,0.3,0.2,0.5c0.1,0.3,0.2,0.7,0.2,0.7"/>
				</g>
				<g>
					<path fill="none" stroke="#0000FF" stroke-miterlimit="10" d="M57.2,94c0,0-0.3-0.1-0.6-0.2S56,93.6,56,93.6s0,0.1,0.1,0.2
						c0,0.1,0.1,0.3,0.1,0.5c0.1,0.3,0.2,0.7,0.2,0.7"/>
				</g>
				<g>
					<path fill="none" stroke="#0000FF" stroke-miterlimit="10" d="M56.2,95.1c0,0-0.3-0.1-0.6-0.2S55,94.6,55,94.6s0.1,0.3,0.1,0.7
						c0.1,0.4,0.1,0.7,0.1,0.7"/>
				</g>
				<g>
					<path fill="none" stroke="#0000FF" stroke-miterlimit="10" d="M55,96.1c0,0-0.3-0.1-0.6-0.3c-0.3-0.2-0.6-0.3-0.6-0.3
						s0.1,0.4,0.1,0.7c0,0.2,0,0.4,0,0.5s0,0.2,0,0.2"/>
				</g>
				<g>
					<path fill="none" stroke="#0000FF" stroke-miterlimit="10" d="M53.7,97.1c0,0-0.3-0.2-0.6-0.4c-0.3-0.2-0.5-0.4-0.5-0.4
						s0,0.1,0,0.2s0,0.3,0,0.5c0,0.4-0.1,0.7-0.1,0.7"/>
				</g>
				<g>
					<path fill="none" stroke="#0000FF" stroke-miterlimit="10" d="M52.3,97.8c0,0-0.3-0.2-0.5-0.5c-0.1-0.1-0.2-0.2-0.3-0.3
						c-0.1-0.1-0.1-0.2-0.1-0.2s-0.1,0.3-0.1,0.7c-0.1,0.2-0.1,0.4-0.2,0.5c0,0.1-0.1,0.1-0.1,0.2l-0.1,0.1"/>
				</g>
				<g>
					<path fill="none" stroke="#0000FF" stroke-miterlimit="10" d="M50.5,98.3L50.5,98.3c-0.2-0.3-0.2-0.6-0.2-0.8
						c0-0.2,0.1-0.4,0.1-0.6c0,0-0.3,0.2-0.6,0.3c-0.3,0.1-0.7,0.3-0.7,0.3"/>
				</g>
				<g>
					<path fill="none" stroke="#0000FF" stroke-miterlimit="10" d="M49,97.4c0,0,0.1-0.3,0.1-0.7c0.1-0.3,0.2-0.7,0.2-0.7
						s-0.3,0.1-0.7,0.3c-0.3,0.1-0.7,0.2-0.7,0.2"/>
				</g>
				<g>
					<path fill="none" stroke="#0000FF" stroke-miterlimit="10" d="M47.8,96.4c0,0,0.1-0.3,0.2-0.7c0.1-0.3,0.2-0.6,0.2-0.6
						s-0.3,0.1-0.7,0.2c-0.3,0.1-0.7,0.2-0.7,0.2"/>
				</g>
				<g>
					<path fill="none" stroke="#0000FF" stroke-miterlimit="10" d="M46.6,95.4c0,0,0.1-0.3,0.2-0.6c0.1-0.3,0.2-0.6,0.2-0.6
						s-0.3,0.1-0.7,0.2s-0.7,0.2-0.7,0.2"/>
				</g>
				<g>
					<path fill="none" stroke="#0000FF" stroke-miterlimit="10" d="M45.5,94.4c0,0,0.1-0.3,0.2-0.6c0.1-0.3,0.2-0.6,0.2-0.6
						s-0.4,0.1-0.7,0.2c-0.4,0.1-0.7,0.2-0.7,0.2"/>
				</g>
				<g>
					<path fill="none" stroke="#0000FF" stroke-miterlimit="10" d="M44.5,93.3c0,0,0.1-0.3,0.3-0.6c0.1-0.3,0.3-0.6,0.3-0.6
						s-0.4,0.1-0.7,0.1c-0.4,0.1-0.7,0.1-0.7,0.1"/>
				</g>
				<g>
					<path fill="none" stroke="#0000FF" stroke-miterlimit="10" d="M43.5,92.2c0,0,0.2-0.3,0.3-0.6c0.2-0.3,0.3-0.6,0.3-0.6
						s-0.4,0.1-0.7,0.1c-0.4,0.1-0.7,0.1-0.7,0.1"/>
				</g>
				<g>
					<path fill="none" stroke="#0000FF" stroke-miterlimit="10" d="M42.5,91c0,0,0.2-0.3,0.3-0.6c0.2-0.3,0.3-0.6,0.3-0.6
						s-0.4,0-0.7,0.1c-0.4,0-0.7,0.1-0.7,0.1"/>
				</g>
				<g>
					<path fill="none" stroke="#0000FF" stroke-miterlimit="10" d="M41.6,89.7c0,0,0.2-0.3,0.4-0.6c0.2-0.3,0.4-0.6,0.4-0.6
						s-0.4,0-0.7,0c-0.4,0-0.7,0-0.7,0"/>
				</g>
				<g>
					<path fill="none" stroke="#0000FF" stroke-miterlimit="10" d="M40.8,88.5c0,0,0.2-0.3,0.4-0.5c0.2-0.3,0.4-0.5,0.4-0.5
						s-0.4,0-0.7,0c-0.4,0-0.7,0-0.7,0"/>
				</g>
				<g>
					<path fill="none" stroke="#0000FF" stroke-miterlimit="10" d="M40,87.1c0,0,0.2-0.3,0.4-0.5c0.2-0.3,0.4-0.5,0.4-0.5
						s-0.4,0-0.7,0c-0.4,0-0.7-0.1-0.7-0.1"/>
				</g>
				<g>
					<path fill="none" stroke="#0000FF" stroke-miterlimit="10" d="M39.3,85.8c0,0,0.2-0.2,0.4-0.5c0.2-0.2,0.4-0.5,0.4-0.5
						s-0.4,0-0.7-0.1c-0.4-0.1-0.7-0.1-0.7-0.1"/>
				</g>
				<g>
					<path fill="none" stroke="#0000FF" stroke-miterlimit="10" d="M38.7,84.4c0,0,0.2-0.2,0.5-0.5c0.2-0.2,0.5-0.5,0.5-0.5
						s-0.4-0.1-0.7-0.1c-0.4-0.1-0.7-0.1-0.7-0.1"/>
				</g>
			</g>
		</g>
	</g>
</g>
<g id="leaf">
	<g>
		<path fill="#A8CF38" stroke="#010101" stroke-width="0.5" stroke-linecap="round" stroke-linejoin="round" d="M47.8,22.5
			c0,0-2.3-4.1-2-6.1l0.6,0.2c0,0-0.5-0.6,0.1-3.1l0.5,0.4c0,0-0.4-1.2,0.4-2.8l0.5,0.4c0,0,0.2-1.1,0.7-2.3l0.5,0.3
			c0,0-0.1-1.4,0.4-2.3L50,7.6c0,0,0.2-1.7,1.1-2L51,6c0,0,0.6-1.1,1.6-1.6L53,4.9c0,0,0-1.1,1.2-1.5l0.2,0.4c0,0,0.1-1.4,1.2-1.6
			L56,2.8c0,0,1.9-1.8,2.4-1.8l0.7,0.4c0.1,0.3,0,3,0,3l0.7-0.2c0.5,1-0.5,2-0.5,2h0.5C60.2,7.4,59.3,8,59.3,8h0.6
			c0.1,1.1-0.3,2.3-0.3,2.3l0.4-0.1c0.3,0.9-0.9,2.1-0.9,2.1l0.7,0.2c-0.5,1-1.6,1.7-1.6,1.7l0.6,0.2c-0.6,1.1-1.4,1.9-1.4,1.9
			l0.6,0.1c-0.8,1.6-2,2-2,2l0.6,0.1c-1.6,2-2.4,1.9-2.4,1.9l0.5,0.3c-1.4,1.5-6.1,2.1-6.1,2.1L47.8,22.5z"/>
		<path fill="#A8CF38" stroke="#010101" stroke-width="0.5" stroke-linecap="round" stroke-linejoin="round" d="M48.2,22.7
			c0,0-2.3-4.1-2-6.1l0.6,0.2c0,0-0.5-0.6,0.1-3.1l0.5,0.4c0,0-0.4-1.2,0.4-2.8l0.5,0.4c0,0,0.2-1.1,0.7-2.3l0.5,0.3
			c0,0-0.1-1.4,0.4-2.3l0.5,0.4c0,0,0.2-1.7,1.1-2l0.1,0.4c0,0,0.6-1.1,1.6-1.6l0.4,0.5c0,0,0-1.1,1.2-1.5V4c0,0,0.1-1.4,1.2-1.6
			L56.4,3c0,0,1.9-1.8,2.4-1.8l0.7,0.4c0.1,0.3,0,3,0,3l0.7-0.2c0.5,1-0.5,2-0.5,2h0.5c0.4,1.2-0.5,1.8-0.5,1.8l0.7,0.1
			c0.1,1.1-0.3,2.3-0.3,2.3l0.4-0.1c0.3,0.9-0.9,2.1-0.9,2.1l0.6,0.1c-0.5,1-1.6,1.7-1.6,1.7l0.6,0.2c-0.6,1.1-1.4,1.9-1.4,1.9
			l0.6,0.1c-0.8,1.6-2,2-2,2l0.6,0.1c-1.6,2-2.4,1.9-2.4,1.9l0.5,0.3C53.7,22.4,49,23,49,23L48.2,22.7z"/>
		
			<line fill="none" stroke="#010101" stroke-width="0.5" stroke-linecap="round" stroke-linejoin="round" x1="59" y1="1.5" x2="48.5" y2="22.8"/>
		<g>
			
				<line fill="none" stroke="#010101" stroke-width="0.5" stroke-linecap="round" stroke-linejoin="round" x1="56.5" y1="2.7" x2="56.8" y2="4.5"/>
			
				<line fill="none" stroke="#010101" stroke-width="0.5" stroke-linecap="round" stroke-linejoin="round" x1="54.9" y1="4" x2="55.9" y2="6.1"/>
			
				<line fill="none" stroke="#010101" stroke-width="0.5" stroke-linecap="round" stroke-linejoin="round" x1="53.5" y1="5" x2="54.9" y2="7.7"/>
			
				<line fill="none" stroke="#010101" stroke-width="0.5" stroke-linecap="round" stroke-linejoin="round" x1="51.4" y1="6.2" x2="53.6" y2="9.3"/>
			
				<line fill="none" stroke="#010101" stroke-width="0.5" stroke-linecap="round" stroke-linejoin="round" x1="50.3" y1="7.8" x2="53.1" y2="11.1"/>
			
				<line fill="none" stroke="#010101" stroke-width="0.5" stroke-linecap="round" stroke-linejoin="round" x1="49.2" y1="9.7" x2="52.1" y2="12.8"/>
			
				<line fill="none" stroke="#010101" stroke-width="0.5" stroke-linecap="round" stroke-linejoin="round" x1="48.1" y1="11.5" x2="50.6" y2="14.8"/>
			
				<line fill="none" stroke="#010101" stroke-width="0.5" stroke-linecap="round" stroke-linejoin="round" x1="47.3" y1="14" x2="50.1" y2="17.6"/>
			
				<line fill="none" stroke="#010101" stroke-width="0.5" stroke-linecap="round" stroke-linejoin="round" x1="46.8" y1="16.7" x2="49.1" y2="20.5"/>
		</g>
		<g>
			
				<line fill="none" stroke="#010101" stroke-width="0.5" stroke-linecap="round" stroke-linejoin="round" x1="59.8" y1="4.4" x2="58.2" y2="5.1"/>
			
				<line fill="none" stroke="#010101" stroke-width="0.5" stroke-linecap="round" stroke-linejoin="round" x1="59.7" y1="6.4" x2="57.5" y2="6.9"/>
			
				<line fill="none" stroke="#010101" stroke-width="0.5" stroke-linecap="round" stroke-linejoin="round" x1="59.8" y1="8.1" x2="56.8" y2="8.6"/>
			
				<line fill="none" stroke="#010101" stroke-width="0.5" stroke-linecap="round" stroke-linejoin="round" x1="60.2" y1="10.5" x2="56.3" y2="10.6"/>
			
				<line fill="none" stroke="#010101" stroke-width="0.5" stroke-linecap="round" stroke-linejoin="round" x1="59.6" y1="12.3" x2="55.2" y2="12.2"/>
			
				<line fill="none" stroke="#010101" stroke-width="0.5" stroke-linecap="round" stroke-linejoin="round" x1="58.6" y1="14.4" x2="54.5" y2="14"/>
			
				<line fill="none" stroke="#010101" stroke-width="0.5" stroke-linecap="round" stroke-linejoin="round" x1="57.9" y1="16.3" x2="53.8" y2="16.4"/>
			
				<line fill="none" stroke="#010101" stroke-width="0.5" stroke-linecap="round" stroke-linejoin="round" x1="56.4" y1="18.5" x2="51.8" y2="18.4"/>
			
				<line fill="none" stroke="#010101" stroke-width="0.5" stroke-linecap="round" stroke-linejoin="round" x1="54.6" y1="20.5" x2="50.2" y2="21"/>
		</g>
		<path fill="#FFFFFF" stroke="#010101" stroke-width="0.5" stroke-linecap="round" stroke-linejoin="round" d="M60.7,8.4
			c0,0-1.5,0.4-1.1,1.2c0,0-1.9,0.3-1,1.8c0,0,0.5,1,1.3,0.6c0,0-0.5,0.8,0.3,0.7c0.8-0.2,0.6-0.2,0.6-0.2"/>
		<path fill="#FFFFFF" stroke="#010101" stroke-width="0.5" stroke-miterlimit="10" d="M50.6,10.5c-0.1,0.4-0.3,0.7-0.4,1
			c0.4,0.3,0.9-0.4,1.1-0.7c-0.2,0.5-0.1,1.7,0.7,0.9c-0.1,0.5,0.2,0.6,0.6,0.8c-0.1,0.5-0.6,0.6-0.9,0.9c-0.2,0.2-0.2,0.5-0.4,0.7
			c-0.3-0.2-0.3-0.6-0.6-0.8c-0.2,0.1-0.7,0.8-0.9,0.8s-0.5-0.6-0.8-0.7c0.1-0.3,0.3-0.5,0.4-0.8c-0.1-0.1-0.1-0.1-0.1-0.1
			c0.1-0.4,0.7-2.2,1.1-1.7"/>
		<path fill="#FFFFFF" stroke="#010101" stroke-width="0.5" stroke-miterlimit="10" d="M55.9,6.4C56.4,6,56.4,5.5,57,5.2
			c0.1,0.1,0,0.7,0.1,0.8c0.4,0.3,0.9-0.4,1.2-0.6c0,0.1-0.3,0.6-0.2,0.7c0.2,0.4,0.6,0.1,0.9,0.1c-0.2,0.5-0.7,0.9-0.9,1.5
			c-0.2,0.4-0.2,0.7-0.4,1c-0.6-0.2-1-0.7-1.2-1.3C56.4,7.8,55.7,9,55.6,8c-0.1-0.6,0.4-1.2,0.5-1.8"/>
		<path fill="#FFFFFF" stroke="#010101" stroke-width="0.5" stroke-miterlimit="10" d="M55.2,15.2c0,0.4-0.5,0.8-0.5,1.2
			c0,0.5,0.6,0.9,1.1,0.9c-0.5,0.2-1.1,0.5-1.3,1.1c0.2,0.2,0.6,0.4,0.9,0.5c-0.2,0.1-1.5,0.7-0.8,1c-0.2,0.5-1.5-0.2-1.8-0.5
			c-0.7-0.6-0.4-1.3-0.1-2c0.4-1,1.4-2.1,2.6-1.9"/>
	</g>
</g>
<g id="water">
	<g>
		<path fill="#55C2E2" stroke="#070707" stroke-width="0.5" stroke-miterlimit="10" d="M25.9,25.7c0,0-9.8,11.3-1.1,13.9
			c0,0,7.1-0.2,4-8.4C28.7,31.2,26,28,25.9,25.7z"/>
		<path fill="none" stroke="#3A97AD" stroke-miterlimit="10" d="M25.3,38.6c1.4,0.7,3.7-2.8,3.5-4"/>
		
			<ellipse transform="matrix(0.6127 0.7903 -0.7903 0.6127 38.4364 -4.595)" opacity="0.8" fill="#FFFFFF" enable-background="new    " cx="23.9" cy="36.9" rx="1.6" ry="1.3"/>
		<path opacity="0.8" fill="#FFFFFF" enable-background="new    " d="M23,30.6c0,0,1.3-3.1,2.8-4"/>
	</g>
	<g>
		<path fill="#55C2E2" stroke="#070707" stroke-width="0.5" stroke-miterlimit="10" d="M73.6,33.9c0,0-9.8,11.3-1.1,13.9
			c0,0,7.1-0.2,4-8.4C76.5,39.4,73.8,36.2,73.6,33.9z"/>
		<path fill="none" stroke="#3A97AD" stroke-miterlimit="10" d="M73.1,46.8c1.4,0.7,3.7-2.8,3.5-4"/>
		
			<ellipse transform="matrix(0.6127 0.7903 -0.7903 0.6127 63.3259 -39.1907)" opacity="0.8" fill="#FFFFFF" enable-background="new    " cx="71.6" cy="45" rx="1.6" ry="1.3"/>
		<path opacity="0.8" fill="#FFFFFF" enable-background="new    " d="M70.8,38.8c0,0,1.3-3.1,2.8-4"/>
	</g>
	<g>
		<path fill="#55C2E2" stroke="#070707" stroke-width="0.5" stroke-miterlimit="10" d="M32.9,44.7c0,0-5.9,6.8-0.7,8.4
			c0,0,4.3-0.1,2.4-5C34.6,48,33,46.1,32.9,44.7z"/>
		<path fill="none" stroke="#3A97AD" stroke-miterlimit="10" d="M32.5,52.5c0.8,0.4,2.2-1.7,2.1-2.4"/>
		
			<ellipse transform="matrix(0.613 0.7901 -0.7901 0.613 53.4243 -4.7663)" opacity="0.8" fill="#FFFFFF" enable-background="new    " cx="31.6" cy="52.2" rx="0.6" ry="0.5"/>
		<path opacity="0.8" fill="#FFFFFF" enable-background="new    " d="M31.1,47.7c0,0,0.8-1.9,1.7-2.4"/>
	</g>
	<g>
		<path fill="#55C2E2" stroke="#070707" stroke-width="0.5" stroke-miterlimit="10" d="M31.5,74.1c0,0-3.7,4.3-0.4,5.2
			c0,0,2.7-0.1,1.5-3.1C32.6,76.2,31.5,75,31.5,74.1z"/>
		<path fill="none" stroke="#3A97AD" stroke-miterlimit="10" d="M31.3,79c0.5,0.2,1.4-1.1,1.3-1.5"/>
		
			<ellipse transform="matrix(0.6123 0.7906 -0.7906 0.6123 73.7959 6.1482)" opacity="0.8" fill="#FFFFFF" enable-background="new    " cx="30.6" cy="78.3" rx="0.3" ry="0.2"/>
		<path opacity="0.8" fill="#FFFFFF" enable-background="new    " d="M30.4,76c0,0,0.5-1.2,1.1-1.5"/>
	</g>
	<g>
		<path fill="#55C2E2" stroke="#070707" stroke-width="0.5" stroke-miterlimit="10" d="M75,72.6c0,0-3.7,4.3-0.4,5.2
			c0,0,2.7-0.1,1.5-3.1C76.1,74.7,75,73.5,75,72.6z"/>
		<path fill="none" stroke="#3A97AD" stroke-miterlimit="10" d="M74.8,77.5c0.5,0.2,1.4-1.1,1.3-1.5"/>
		
			<ellipse transform="matrix(0.6123 0.7906 -0.7906 0.6123 89.5194 -28.7287)" opacity="0.8" fill="#FFFFFF" enable-background="new    " cx="74.1" cy="76.9" rx="0.3" ry="0.2"/>
		<path opacity="0.8" fill="#FFFFFF" enable-background="new    " d="M73.9,74.5c0,0,0.5-1.2,1.1-1.5"/>
	</g>
	<g>
		<path fill="#55C2E2" stroke="#070707" stroke-width="0.5" stroke-miterlimit="10" d="M77.5,54.2c0,0-3.7,4.3-0.4,5.2
			c0,0,2.7-0.1,1.5-3.1C78.5,56.3,77.5,55.1,77.5,54.2z"/>
		<path fill="none" stroke="#3A97AD" stroke-miterlimit="10" d="M77.2,59.1c0.5,0.2,1.4-1.1,1.3-1.5"/>
		
			<ellipse transform="matrix(0.6126 0.7904 -0.7904 0.6126 75.8943 -37.8289)" opacity="0.8" fill="#FFFFFF" enable-background="new    " cx="76.5" cy="58.5" rx="0.3" ry="0.2"/>
		<path opacity="0.8" fill="#FFFFFF" enable-background="new    " d="M76.4,56.1c0,0,0.5-1.2,1.1-1.5"/>
	</g>
</g>
</svg>
