<?xml version="1.0" encoding="utf-8"?>
<!-- Generator: Adobe Illustrator 17.1.0, SVG Export Plug-In . SVG Version: 6.00 Build 0)  -->
<!DOCTYPE svg PUBLIC "-//W3C//DTD SVG 1.1//EN" "http://www.w3.org/Graphics/SVG/1.1/DTD/svg11.dtd">
<svg version="1.1" xmlns="http://www.w3.org/2000/svg" xmlns:xlink="http://www.w3.org/1999/xlink" x="0px" y="0px"
	 viewBox="0 0 192.8 339.5" enable-background="new 0 0 192.8 339.5" xml:space="preserve">
<pattern  x="-217.5" y="-178.5" width="8.7" height="8.7" patternUnits="userSpaceOnUse" id="New_Pattern_Swatch_12" viewBox="0 -8.7 8.7 8.7" overflow="visible">
	<g>
		<polygon fill="none" points="8.7,0 0,0 0,-8.7 8.7,-8.7 		"/>
		<g>
			<path fill="#010101" d="M5-4.5c0,0.4-0.3,0.7-0.7,0.7C4-3.8,3.7-4.1,3.7-4.5c0-0.4,0.3-0.7,0.7-0.7C4.7-5.2,5-4.9,5-4.5z"/>
		</g>
	</g>
</pattern>
<g id="legs">
	<path fill="#FFFFFF" stroke="#010101" stroke-miterlimit="10" d="M26.8,140.7"/>
	<path fill="#FFFFFF" stroke="#010101" stroke-miterlimit="10" d="M38.9,97.7C40,84.4,45.1,74.4,54,68.4c0,0-24.3,22.3-4.9,71.2
		l-3.2,1.2c-0.2-0.5-5.2-13.3-6.8-28.6c0,0-7.3-12.3-4.6-20.3c0,0,1.4,11.9,3.7,14.1L38.9,97.7z"/>
	<path fill="none" stroke="#010101" stroke-miterlimit="10" d="M38.3,112"/>
	<path fill="none" stroke="#010101" stroke-miterlimit="10" d="M33.4,102.8"/>
	<path fill="#FFFFFF" stroke="#010101" stroke-miterlimit="10" d="M50.7,147c-7.9-5.2-5.5-12.4-5.5-12.4c5.2-0.7,9.9,3.5,9.9,3.5
		L50.7,147z"/>
	<path fill="#FFFFFF" stroke="#010101" stroke-miterlimit="10" d="M148.1,97.7c-1.1-13.3-6.2-23.4-15.1-29.4c0,0,24.3,22.3,4.9,71.2
		l3.2,1.2c0.2-0.5,5.2-13.3,6.8-28.6c0,0,7.3-12.3,4.6-20.3c0,0-1.4,11.9-3.7,14.1L148.1,97.7z"/>
	<path fill="none" stroke="#010101" stroke-miterlimit="10" d="M148.7,112"/>
	<path fill="#FFFFFF" stroke="#010101" stroke-miterlimit="10" d="M136.4,147c7.9-5.2,5.5-12.4,5.5-12.4c-5.2-0.7-9.9,3.5-9.9,3.5
		L136.4,147z"/>
	<path fill="#FFFFFF" stroke="#010101" stroke-miterlimit="10" d="M51.9,191.7c0,0-13.8,1.4-18.5,5.2c0,0-8.4,9,2.5,8.2
		c10.9-0.8,10.9-0.8,10.9-0.8S47.1,195.7,51.9,191.7z"/>
	<path fill="#FFFFFF" stroke="#010101" stroke-miterlimit="10" d="M30.4,203.5c0,0-9.9,5.1-10.7,20.6s-0.5,29.3,3.2,30.5
		c0,0-3-13.8-1.3-18.5c0,0,1.3,0,1,3.7c0,0,2.2-4.2,0.2-8.8c0,0-5.7-12.6,9-25.9L30.4,203.5z"/>
	<path fill="#FFFFFF" stroke="#010101" stroke-miterlimit="10" d="M136.9,191.7c0,0,13.8,1.4,18.5,5.2c0,0,8.4,9-2.5,8.2
		c-10.9-0.8-10.9-0.8-10.9-0.8S141.8,195.7,136.9,191.7z"/>
	<path fill="#FFFFFF" stroke="#010101" stroke-miterlimit="10" d="M158.5,203.5c0,0,9.9,5.1,10.7,20.6s0.5,29.3-3.2,30.5
		c0,0,3-13.8,1.3-18.5c0,0-1.3,0-1,3.7c0,0-2.2-4.2-0.2-8.8c0,0,5.7-12.6-9-25.9L158.5,203.5z"/>
	<path fill="none" stroke="#010101" stroke-miterlimit="10" d="M149.6,112"/>
	<path fill="none" stroke="#010101" stroke-miterlimit="10" d="M154.5,102.8"/>
	<path fill="#FFFFFF" stroke="#010101" stroke-miterlimit="10" d="M142.5,294l-0.2-0.5l0.1-0.5l1.2-5.1c1.1-7.1-1.2-35.7-1.3-36
		l3.4-0.3c0.1,1.2,2.4,29.3,1.2,37l-1.1,4.7c1.9,5.1,11.9,32.7,4.4,41.1c0,0,3.2-10.1-0.1-11.4c0,0,0,0.2-1.2,1.6
		C148.9,324.7,152.5,316,142.5,294z"/>
	<path fill="#FFFFFF" stroke="#010101" stroke-miterlimit="10" d="M141.4,237.9c0,0,7.7,4.2,5.2,20.2l-6.5-6.2L141.4,237.9z"/>
	<path fill="#FFFFFF" stroke="#010101" stroke-miterlimit="10" d="M46.3,294l0.2-0.5l-0.1-0.5l-1.2-5.1c-1.1-7.1,1.2-35.7,1.3-36
		l-3.4-0.3c-0.1,1.2-2.4,29.3-1.2,37l1.1,4.7c-1.9,5.1-11.9,32.7-4.4,41.1c0,0-3.2-10.1,0.1-11.4c0,0,0,0.2,1.2,1.6
		C39.9,324.7,36.3,316,46.3,294z"/>
	<path fill="#FFFFFF" stroke="#010101" stroke-miterlimit="10" d="M47.5,237.9c0,0-7.7,4.2-5.2,20.2l6.5-6.2L47.5,237.9z"/>
</g>
<g id="basebody">
	<path fill="#FFFFFF" stroke="#010101" stroke-miterlimit="10" d="M101.1,292.5c0,0,0,0,5.8-0.6c5.8-0.6,16.2-15.6,16.2-15.6
		c35.8-27.8,18.5-119.1,18.5-119.1H95.8h-2.7H47.4c0,0-17.3,91.4,18.5,119.1c0,0,10.4,15,16.2,15.6c5.8,0.6,5.8,0.6,5.8,0.6H101.1z"
		/>
	<path fill="none" stroke="#010101" stroke-miterlimit="10" d="M80.8,157.2c0,0,13.7,10.9,13.7,23.6c-0.1,12.8,0,111.7,0,111.7"/>
	<path fill="none" stroke="#010101" stroke-miterlimit="10" d="M107.7,157.2c0,0-13.7,10.9-13.7,23.6c0.1,12.8,0,111.7,0,111.7"/>
	<path fill="#FFFFFF" stroke="#010101" stroke-miterlimit="10" d="M98.7,93.6c0,0,0,0,20.8,16.9c20.8,16.9,21.1,46.7,21.1,46.7H47.4
		c0,0,0.3-29.8,21.1-46.7c20.8-16.9,20.8-16.9,20.8-16.9H98.7z"/>
	<path fill="#FFFFFF" stroke="#010101" stroke-miterlimit="10" d="M81.9,158.1c0,0,11.8,9.5,12.2,18.8c0,0,5.9-17.8,14.9-18.8H81.9z
		"/>
	<path fill="#FFFFFF" stroke="#010101" stroke-miterlimit="10" d="M75.4,103.5c0,0,18.6-22.3,38.1,0
		C113.5,103.5,93.6,112.9,75.4,103.5z"/>
</g>
<g id="bodycolor">
	<path fill="#D0DD28" stroke="#010101" stroke-miterlimit="10" d="M101.1,292.5c0,0,0,0,5.8-0.6c5.8-0.6,16.2-15.6,16.2-15.6
		c35.8-27.8,18.5-119.1,18.5-119.1H95.8h-2.7H47.4c0,0-17.3,91.4,18.5,119.1c0,0,10.4,15,16.2,15.6c5.8,0.6,5.8,0.6,5.8,0.6H101.1z"
		/>
	<path fill="none" stroke="#010101" stroke-miterlimit="10" d="M80.8,157.2c0,0,13.7,10.9,13.7,23.6c-0.1,12.8,0,111.7,0,111.7"/>
	<path fill="none" stroke="#010101" stroke-miterlimit="10" d="M107.7,157.2c0,0-13.7,10.9-13.7,23.6c0.1,12.8,0,111.7,0,111.7"/>
	<path fill="#6CBE45" stroke="#010101" stroke-miterlimit="10" d="M98.7,93.6c0,0,0,0,20.8,16.9c20.8,16.9,21.1,46.7,21.1,46.7H47.4
		c0,0,0.3-29.8,21.1-46.7c20.8-16.9,20.8-16.9,20.8-16.9H98.7z"/>
	<path fill="#FFFFFF" stroke="#010101" stroke-miterlimit="10" d="M81.9,158.1c0,0,11.8,9.5,12.2,18.8c0,0,5.9-17.8,14.9-18.8H81.9z
		"/>
	<path fill="#D0DD28" stroke="#010101" stroke-miterlimit="10" d="M75.4,103.5c0,0,18.6-22.3,38.1,0
		C113.5,103.5,93.6,112.9,75.4,103.5z"/>
</g>
<g id="eyes">
	<path fill="#FFFFFF" stroke="#010101" stroke-miterlimit="10" d="M76.1,102.2c0,0,5.6-8.6,10-4.7c0,0-1.1,10.8-10.5,5.9L76.1,102.2
		z"/>
	<path fill="#FFFFFF" stroke="#010101" stroke-miterlimit="10" d="M112.9,102.2c0,0-5.6-8.6-10-4.7c0,0,1.1,10.8,10.5,5.9
		L112.9,102.2z"/>
</g>
<g id="antennae">
	<path fill="none" stroke="#010101" stroke-width="0.5" stroke-miterlimit="10" d="M99.2,93.5c0,0,12.7-0.9,18.3,6.9
		c0,0,10,7.4,8.7-6.9c-1.3-14.3,0.1-8.2,0.1-8.2"/>
	<path fill="none" stroke="#010101" stroke-width="0.5" stroke-miterlimit="10" d="M89.1,93.5c0,0-12.7-0.9-18.3,6.9
		c0,0-10,7.4-8.7-6.9c1.3-14.3-0.1-8.2-0.1-8.2"/>
</g>
<g id="markings">
	<path fill="#010101" d="M103.6,199.4c0,0-4.8-39.1,30.3-37.4"/>
	<path fill="#010101" d="M87.3,199.4c0,0,4.8-39.1-30.3-37.4"/>
</g>
<g id="dots">
	<path fill="url(#New_Pattern_Swatch_12)" stroke="#010101" stroke-miterlimit="10" d="M100.6,292.5c0,0,0,0,5.8-0.6
		c5.8-0.6,16.2-15.6,16.2-15.6c35.8-27.8,18.5-119.1,18.5-119.1H95.4h-2.7H47c0,0-17.3,91.4,18.5,119.1c0,0,10.4,15,16.2,15.6
		c5.8,0.6,5.8,0.6,5.8,0.6H100.6z"/>
</g>
<g id="fur">
	<g>
		<g>
			<g>
				<g>
					<path fill="none" stroke="#010101" stroke-miterlimit="10" d="M144.9,155.3c0,0-1,0.7-2,1.4c-1,0.7-2,1.4-2,1.4
						s1.2,0.5,2.4,0.9c1.2,0.5,2.4,1,2.4,1"/>
				</g>
				<g>
					<path fill="none" stroke="#010101" stroke-miterlimit="10" d="M145.9,160.8l-4.2,2.7c0,0,1.2,0.5,2.4,1c1.2,0.5,2.4,1,2.4,1"/>
				</g>
				<g>
					<polyline fill="none" stroke="#010101" stroke-miterlimit="10" points="146.7,166.4 142.4,169 147.3,171.1 					"/>
				</g>
				<g>
					<polyline fill="none" stroke="#010101" stroke-miterlimit="10" points="147.4,172 143.1,174.5 147.9,176.6 					"/>
				</g>
				<g>
					<path fill="none" stroke="#010101" stroke-miterlimit="10" d="M147.9,177.5c0,0-1.1,0.6-2.1,1.2c-1.1,0.6-2.2,1.2-2.2,1.2
						l4.7,2.3"/>
				</g>
				<g>
					<path fill="none" stroke="#010101" stroke-miterlimit="10" d="M148.4,183.1l-4.3,2.3c0,0,1.2,0.6,2.4,1.2
						c1.2,0.6,2.3,1.2,2.3,1.2"/>
				</g>
				<g>
					<polyline fill="none" stroke="#010101" stroke-miterlimit="10" points="148.8,188.7 144.4,191 149,193.4 					"/>
				</g>
				<g>
					<polyline fill="none" stroke="#010101" stroke-miterlimit="10" points="149.1,194.3 144.7,196.5 149.2,199.1 					"/>
				</g>
				<g>
					<polyline fill="none" stroke="#010101" stroke-miterlimit="10" points="149.2,200 144.8,202 149.3,204.7 					"/>
				</g>
				<g>
					<polyline fill="none" stroke="#010101" stroke-miterlimit="10" points="149.3,205.6 144.8,207.5 149.2,210.3 					"/>
				</g>
				<g>
					<path fill="none" stroke="#010101" stroke-miterlimit="10" d="M149.2,211.2c0,0-1.1,0.5-2.3,0.9c-1.1,0.5-2.3,0.9-2.3,0.9
						s1.1,0.7,2.2,1.4c1.1,0.7,2.2,1.5,2.2,1.5"/>
				</g>
				<g>
					<path fill="none" stroke="#010101" stroke-miterlimit="10" d="M149,216.8c0,0-1.1,0.4-2.3,0.9c-1.2,0.4-2.3,0.9-2.3,0.9
						s1.1,0.7,2.1,1.5c1.1,0.8,2.1,1.5,2.1,1.5"/>
				</g>
				<g>
					<path fill="none" stroke="#010101" stroke-miterlimit="10" d="M148.6,222.5c0,0-1.2,0.4-2.3,0.8c-1.2,0.4-2.3,0.8-2.3,0.8
						s1,0.8,2.1,1.5c1,0.8,2.1,1.6,2.1,1.6"/>
				</g>
				<g>
					<path fill="none" stroke="#010101" stroke-miterlimit="10" d="M148,228.1c0,0-1.2,0.4-2.4,0.7c-1.2,0.4-2.3,0.7-2.3,0.7
						s1,0.8,2,1.6c1,0.8,2,1.7,2,1.7"/>
				</g>
				<g>
					<path fill="none" stroke="#010101" stroke-miterlimit="10" d="M147.2,233.7c0,0-1.2,0.3-2.4,0.6c-1.2,0.3-2.4,0.6-2.4,0.6
						s1,0.8,2,1.7c1,0.9,2,1.7,2,1.7"/>
				</g>
				<g>
					<path fill="none" stroke="#010101" stroke-miterlimit="10" d="M146.2,239.3c0,0-1.2,0.3-2.4,0.5c-1.2,0.2-2.4,0.5-2.4,0.5
						s0.9,0.9,1.9,1.8c0.9,0.9,1.9,1.8,1.9,1.8"/>
				</g>
				<g>
					<path fill="none" stroke="#010101" stroke-miterlimit="10" d="M145,244.8c0,0-1.2,0.2-2.4,0.4c-1.2,0.2-2.4,0.4-2.4,0.4
						s0.9,0.9,1.8,1.9c0.9,1,1.8,2,1.8,2"/>
				</g>
				<g>
					<path fill="none" stroke="#010101" stroke-miterlimit="10" d="M143.4,250.3c0,0-1.2,0.2-2.5,0.3c-1.2,0.1-2.5,0.2-2.5,0.2
						s0.8,1,1.7,2c0.8,1,1.7,2.1,1.7,2.1"/>
				</g>
				<g>
					<path fill="none" stroke="#010101" stroke-miterlimit="10" d="M141.5,255.8c0,0-1.2,0-2.5,0.1c-1.2,0-2.5,0-2.5,0
						s0.8,1,1.5,2.1c0.8,1.1,1.5,2.2,1.5,2.2"/>
				</g>
				<g>
					<path fill="none" stroke="#010101" stroke-miterlimit="10" d="M139.1,261c0,0-1.2,0-2.5-0.1c-1.2-0.1-2.4-0.2-2.4-0.2
						s0.7,1.1,1.3,2.2c0.6,1.1,1.3,2.3,1.3,2.3"/>
				</g>
				<g>
					<path fill="none" stroke="#010101" stroke-miterlimit="10" d="M136.3,266.1c0,0-1.2-0.1-2.4-0.3c-1.2-0.2-2.4-0.4-2.4-0.4
						s0.6,1.2,1.1,2.4c0.5,1.2,1,2.5,1,2.5"/>
				</g>
				<g>
					<path fill="none" stroke="#010101" stroke-miterlimit="10" d="M133,270.9c0,0-1.2-0.3-2.4-0.6c-1.2-0.3-2.4-0.7-2.4-0.7
						c0,0,0.5,1.2,0.8,2.5c0.4,1.2,0.7,2.5,0.7,2.5"/>
				</g>
				<g>
					<path fill="none" stroke="#010101" stroke-miterlimit="10" d="M129.1,275.3c0,0-1.2-0.4-2.3-0.9c-0.6-0.2-1.1-0.5-1.6-0.7
						c-0.4-0.2-0.7-0.3-0.7-0.3s0.3,1.2,0.5,2.6c0.2,1.3,0.3,2.7,0.5,2.5"/>
				</g>
				<g>
					<path fill="none" stroke="#010101" stroke-miterlimit="10" d="M125.4,278.8c0,0-1.2-0.2-2.4-0.5c-1.2-0.3-2.4-0.5-2.4-0.5
						s0.5,1.2,1,2.4c0.5,1.2,0.9,2.5,0.9,2.5"/>
				</g>
				<g>
					<path fill="none" stroke="#010101" stroke-miterlimit="10" d="M121.9,283.4c0,0-1.2-0.3-2.4-0.6c-1.2-0.3-2.4-0.7-2.4-0.7
						s0.4,1.2,0.9,2.5c0.4,1.2,0.8,2.5,0.8,2.5"/>
				</g>
				<g>
					<path fill="none" stroke="#010101" stroke-miterlimit="10" d="M118.2,287.7c0,0-1.2-0.4-2.3-0.8c-1.2-0.4-2.3-0.9-2.3-0.9
						s0.4,1.3,0.6,2.5c0.3,1.3,0.5,2.6,0.5,2.6"/>
				</g>
				<g>
					<path fill="none" stroke="#010101" stroke-miterlimit="10" d="M113.9,291.8c0,0-1.1-0.5-2.2-1.1c-1.1-0.6-2.1-1.3-2.1-1.3
						s0,0.3,0.1,0.8c0,0.5,0.1,1.1,0,1.8c0,0.7-0.1,1.4-0.2,1.8c-0.1,0.5-0.2,0.9-0.2,0.9"/>
				</g>
				<g>
					<path fill="none" stroke="#010101" stroke-miterlimit="10" d="M108.1,295.1c0,0-1-0.9-1.6-2c-0.6-1.1-1.2-2.1-1.2-2.1l-2.2,4.8
						"/>
				</g>
				<g>
					<path fill="none" stroke="#010101" stroke-miterlimit="10" d="M102.2,295.9c-0.5-0.9-1-1.8-1.5-1.7c-0.3-0.9-0.5-1.8-0.8-2.6
						l-2.7,4.5"/>
				</g>
				<g>
					<polyline fill="none" stroke="#010101" stroke-miterlimit="10" points="96.4,296 94.4,291.5 91.7,296 					"/>
				</g>
				<g>
					<path fill="none" stroke="#010101" stroke-miterlimit="10" d="M90.8,296l-2-4.5c-0.5,0.8-0.9,1.6-1.4,1.6
						c-0.5,0.9-1,1.9-1.5,2.8"/>
				</g>
				<g>
					<path fill="none" stroke="#010101" stroke-miterlimit="10" d="M85,295.8l-1.5-4.7c0,0-0.8,1.1-1.6,2.1c-0.4,0.5-0.8,1-1.2,1.4
						c-0.4,0.3-0.7,0.6-0.7,0.6"/>
				</g>
				<g>
					<path fill="none" stroke="#010101" stroke-miterlimit="10" d="M78.8,294.7c0,0,0-0.3-0.1-0.8c0-0.5-0.1-1.1,0-1.7
						c0.1-1.3,0.3-2.4,0.3-2.4s-0.3,0.2-0.7,0.4c-0.4,0.2-1,0.5-1.6,0.7c-0.6,0.3-1.2,0.5-1.7,0.6c-0.5,0.2-0.8,0.3-0.8,0.3"/>
				</g>
				<g>
					<path fill="none" stroke="#010101" stroke-miterlimit="10" d="M73.4,291.2c0,0,0.3-1.2,0.7-2.4c0.4-1.2,0.8-2.3,0.8-2.3
						s-1.2,0.4-2.5,0.7c-1.3,0.3-2.6,0.6-2.6,0.6"/>
				</g>
				<g>
					<path fill="none" stroke="#010101" stroke-miterlimit="10" d="M69.3,287c0,0,0.5-1.1,1-2.3c0.5-1.1,1.1-2.2,1.1-2.2
						s-1.3,0.2-2.6,0.4c-1.3,0.2-2.6,0.4-2.6,0.4"/>
				</g>
				<g>
					<path fill="none" stroke="#010101" stroke-miterlimit="10" d="M65.6,282.6c0,0,0.6-1.1,1.2-2.2c0.6-1.1,1.2-2.2,1.2-2.2
						s-1.3,0.1-2.6,0.3c-1.3,0.1-2.6,0.2-2.6,0.2"/>
				</g>
				<g>
					<path fill="none" stroke="#010101" stroke-miterlimit="10" d="M62.5,278.6c0.2,0.1,0.4-1.1,0.7-2.3c0.3-1.2,0.7-2.4,0.7-2.4
						c0,0-1.2,0.4-2.5,0.8c-1.2,0.3-2.5,0.6-2.5,0.6"/>
				</g>
				<g>
					<path fill="none" stroke="#010101" stroke-miterlimit="10" d="M58.3,274.7c0,0,0.4-1.2,0.9-2.3c0.5-1.1,1-2.2,1-2.2
						s-1.3,0.2-2.6,0.4c-1.3,0.2-2.6,0.3-2.6,0.3"/>
				</g>
				<g>
					<path fill="none" stroke="#010101" stroke-miterlimit="10" d="M54.5,270.2c0,0,0.6-1.1,1.2-2.2c0.6-1.1,1.3-2.1,1.3-2.1
						s-1.3,0.1-2.6,0.2c-0.7,0-1.3,0-1.8,0c-0.5,0-0.8,0-0.8,0"/>
				</g>
				<g>
					<path fill="none" stroke="#010101" stroke-miterlimit="10" d="M51.2,265.3c0,0,0.7-1,1.4-2c0.7-1,1.5-1.9,1.5-1.9
						s-1.3,0-2.6-0.1c-1.3-0.1-2.6-0.2-2.6-0.2"/>
				</g>
				<g>
					<path fill="none" stroke="#010101" stroke-miterlimit="10" d="M48.5,260.2c0,0,0.8-0.9,1.6-1.9c0.8-0.9,1.7-1.8,1.7-1.8
						s-1.3-0.1-2.6-0.3c-1.3-0.2-2.6-0.4-2.6-0.4"/>
				</g>
				<g>
					<path fill="none" stroke="#010101" stroke-miterlimit="10" d="M46.2,254.9c0,0,0.9-0.9,1.8-1.8c0.9-0.8,1.8-1.7,1.8-1.7
						s-1.3-0.3-2.6-0.5c-1.3-0.3-2.6-0.6-2.6-0.6"/>
				</g>
				<g>
					<path fill="none" stroke="#010101" stroke-miterlimit="10" d="M44.4,249.4c0,0,0.9-0.8,1.9-1.6c0.9-0.8,1.9-1.6,1.9-1.6
						s-1.3-0.3-2.5-0.7c-1.2-0.4-2.5-0.7-2.5-0.7"/>
				</g>
				<g>
					<path fill="none" stroke="#010101" stroke-miterlimit="10" d="M42.9,243.9c0,0,1-0.8,2-1.5c1-0.7,2-1.5,2-1.5s-1.3-0.4-2.5-0.8
						c-1.2-0.4-2.5-0.9-2.5-0.9"/>
				</g>
				<g>
					<path fill="none" stroke="#010101" stroke-miterlimit="10" d="M41.7,238.4c0,0,1-0.7,2-1.4c1-0.7,2-1.4,2-1.4s-0.3-0.1-0.8-0.3
						c-0.5-0.2-1.1-0.4-1.7-0.6c-1.2-0.5-2.4-1-2.4-1"/>
				</g>
				<g>
					<path fill="none" stroke="#010101" stroke-miterlimit="10" d="M40.7,232.8c0,0,1-0.7,2.1-1.3c1-0.7,2.1-1.3,2.1-1.3
						s-1.2-0.5-2.4-1c-1.2-0.5-2.4-1.1-2.4-1.1"/>
				</g>
				<g>
					<path fill="none" stroke="#010101" stroke-miterlimit="10" d="M40,227.2c0,0,1.1-0.6,2.1-1.3c1.1-0.6,2.1-1.2,2.1-1.2
						c0,0-1.2-0.5-2.4-1.1c-1.2-0.6-2.4-1.1-2.4-1.1"/>
				</g>
				<g>
					<path fill="none" stroke="#010101" stroke-miterlimit="10" d="M39.4,221.5c0,0,1.1-0.6,2.2-1.2c1.1-0.6,2.2-1.2,2.2-1.2
						s-1.2-0.6-2.3-1.2c-1.2-0.6-2.3-1.2-2.3-1.2"/>
				</g>
				<g>
					<path fill="none" stroke="#010101" stroke-miterlimit="10" d="M39.1,215.9l4.4-2.2c0,0-1.2-0.6-2.3-1.2
						c-1.1-0.6-2.3-1.3-2.3-1.3"/>
				</g>
				<g>
					<path fill="none" stroke="#010101" stroke-miterlimit="10" d="M38.8,210.3l4.5-2.1c0,0-1.1-0.7-2.3-1.3
						c-1.1-0.7-2.3-1.3-2.3-1.3"/>
				</g>
				<g>
					<polyline fill="none" stroke="#010101" stroke-miterlimit="10" points="38.8,204.7 43.3,202.7 38.8,199.9 					"/>
				</g>
				<g>
					<path fill="none" stroke="#010101" stroke-miterlimit="10" d="M38.9,199l4.5-1.9c0,0-1.1-0.7-2.2-1.4c-1.1-0.7-2.2-1.4-2.2-1.4
						"/>
				</g>
				<g>
					<polyline fill="none" stroke="#010101" stroke-miterlimit="10" points="39,193.4 43.6,191.6 39.3,188.7 					"/>
				</g>
				<g>
					<path fill="none" stroke="#010101" stroke-miterlimit="10" d="M39.3,187.8c0,0,1.2-0.4,2.3-0.9c1.2-0.4,2.3-0.8,2.3-0.8l-4.3-3
						"/>
				</g>
				<g>
					<path fill="none" stroke="#010101" stroke-miterlimit="10" d="M39.7,182.2l4.7-1.6c0,0-1.1-0.8-2.1-1.5
						c-1.1-0.8-2.1-1.5-2.1-1.5"/>
				</g>
				<g>
					<polyline fill="none" stroke="#010101" stroke-miterlimit="10" points="40.2,176.6 44.9,175.1 40.7,171.9 					"/>
				</g>
				<g>
					<polyline fill="none" stroke="#010101" stroke-miterlimit="10" points="40.8,171 45.6,169.6 41.4,166.4 					"/>
				</g>
				<g>
					<polyline fill="none" stroke="#010101" stroke-miterlimit="10" points="41.5,165.5 46.3,164.1 42.2,160.8 					"/>
				</g>
				<g>
					<path fill="none" stroke="#010101" stroke-miterlimit="10" d="M42.3,159.9l4.8-1.3c0,0-1-0.8-2-1.7c-1-0.9-2-1.7-2-1.7"/>
				</g>
			</g>
		</g>
	</g>
	<g>
		<g>
			<g>
				<g>
					<path fill="none" stroke="#010101" stroke-miterlimit="10" d="M139.7,156.9c0,0,1.1-0.5,2.2-1c1.1-0.5,2.2-1.1,2.2-1.1
						s-1.2-0.6-2.3-1.2c-1.2-0.6-2.3-1.1-2.3-1.1"/>
				</g>
				<g>
					<path fill="none" stroke="#010101" stroke-miterlimit="10" d="M139.4,151.7c0,0,1.1-0.6,2.1-1.2c1.1-0.6,2.1-1.3,2.1-1.3
						s-1.2-0.5-2.4-1c-1.2-0.5-2.4-0.9-2.4-0.9"/>
				</g>
				<g>
					<path fill="none" stroke="#010101" stroke-miterlimit="10" d="M138.7,146.4c0,0,1-0.7,2-1.4c1-0.7,2-1.4,2-1.4
						s-1.2-0.4-2.5-0.8c-1.2-0.4-2.5-0.8-2.5-0.8"/>
				</g>
				<g>
					<path fill="none" stroke="#010101" stroke-miterlimit="10" d="M137.5,141.2c0,0,1-0.8,1.9-1.5c1-0.8,1.9-1.6,1.9-1.6
						c0,0-1.2-0.4-2.5-0.7c-1.3-0.3-2.5-0.6-2.5-0.6"/>
				</g>
				<g>
					<path fill="none" stroke="#010101" stroke-miterlimit="10" d="M136.1,136.1c0,0,0.9-0.8,1.8-1.6c0.9-0.8,1.8-1.7,1.8-1.7
						s-1.3-0.3-2.6-0.5c-1.3-0.2-2.6-0.4-2.6-0.4"/>
				</g>
				<g>
					<path fill="none" stroke="#010101" stroke-miterlimit="10" d="M134.2,131.1c0,0,0.8-0.9,1.7-1.8c0.8-0.9,1.6-1.8,1.6-1.8
						s-1.3-0.2-2.6-0.3c-0.6-0.1-1.3-0.1-1.8-0.1c-0.5,0-0.8,0-0.8,0"/>
				</g>
				<g>
					<path fill="none" stroke="#010101" stroke-miterlimit="10" d="M131.9,126.3c0,0,0.8-0.9,1.5-1.9c0.8-1,1.5-2,1.5-2
						s-1.3-0.1-2.6,0c-1.3,0-2.6,0.1-2.6,0.1"/>
				</g>
				<g>
					<path fill="none" stroke="#010101" stroke-miterlimit="10" d="M129.3,121.8c0,0,0.7-1,1.4-2.1c0.3-0.5,0.7-1.1,0.9-1.5
						c0.2-0.4,0.4-0.7,0.4-0.7s-1.3,0.1-2.6,0.2c-1.3,0.1-2.6,0.3-2.6,0.3"/>
				</g>
				<g>
					<path fill="none" stroke="#010101" stroke-miterlimit="10" d="M126.2,117.5c0,0,0.6-1.1,1.2-2.2c0.5-1.1,1-2.2,1-2.2
						s-1.3,0.2-2.6,0.5c-1.3,0.3-2.5,0.6-2.5,0.6"/>
				</g>
				<g>
					<path fill="none" stroke="#010101" stroke-miterlimit="10" d="M122.8,113.6c0,0,0.1-0.3,0.3-0.7c0.2-0.4,0.4-1,0.6-1.6
						c0.4-1.1,0.8-2.3,0.8-2.3s-1.3,0.4-2.5,0.8c-1.2,0.4-2.4,0.9-2.4,0.9"/>
				</g>
				<g>
					<polyline fill="none" stroke="#010101" stroke-miterlimit="10" points="118.6,109.8 120.6,105.3 115.5,106.3 					"/>
				</g>
			</g>
		</g>
	</g>
	<g>
		<g>
			<path fill="none" stroke="#010101" stroke-miterlimit="10" d="M99.6,91"/>
		</g>
	</g>
	<g>
		<g>
			<g>
				<g>
					<path fill="none" stroke="#010101" stroke-miterlimit="10" d="M43.7,156.9c0,0,1.1-0.5,2.3-1c1.1-0.5,2.3-0.9,2.3-0.9
						s-1.1-0.7-2.2-1.4C45,152.8,44,152,44,152"/>
				</g>
				<g>
					<path fill="none" stroke="#010101" stroke-miterlimit="10" d="M44.1,151c0,0,1.2-0.4,2.3-0.8c1.2-0.4,2.4-0.7,2.4-0.7
						s-1-0.8-2.1-1.6c-1-0.8-2-1.7-2-1.7"/>
				</g>
				<g>
					<path fill="none" stroke="#010101" stroke-miterlimit="10" d="M44.9,145.3c0,0,1.2-0.3,2.4-0.6c1.2-0.3,2.4-0.5,2.4-0.5
						s-1-0.9-1.9-1.8c-0.5-0.5-1-0.9-1.3-1.3c-0.3-0.3-0.6-0.6-0.6-0.6"/>
				</g>
				<g>
					<path fill="none" stroke="#010101" stroke-miterlimit="10" d="M46.1,139.7c0,0,1.2-0.2,2.4-0.4c1.2-0.2,2.4-0.4,2.4-0.4
						s-0.2-0.2-0.6-0.6c-0.3-0.4-0.8-0.8-1.2-1.3c-0.9-1-1.7-2-1.7-2"/>
				</g>
				<g>
					<path fill="none" stroke="#010101" stroke-miterlimit="10" d="M47.8,134.1c0,0,1.2-0.1,2.5-0.2c1.2-0.1,2.5-0.2,2.5-0.2
						s-0.8-1-1.6-2c-0.8-1-1.6-2.1-1.6-2.1"/>
				</g>
				<g>
					<path fill="none" stroke="#010101" stroke-miterlimit="10" d="M49.8,128.7c0,0,1.2,0,2.5,0c1.2,0,2.5,0,2.5,0s-0.8-1.1-1.5-2.2
						c-0.7-1.1-1.4-2.2-1.4-2.2"/>
				</g>
				<g>
					<path fill="none" stroke="#010101" stroke-miterlimit="10" d="M52.3,123.5c0,0,1.2,0.1,2.5,0.2c1.2,0.1,2.4,0.2,2.4,0.2
						s-0.2-0.3-0.4-0.7c-0.2-0.4-0.5-1-0.8-1.6c-0.6-1.2-1.2-2.4-1.2-2.4"/>
				</g>
				<g>
					<path fill="none" stroke="#010101" stroke-miterlimit="10" d="M55.3,118.5c0,0,1.2,0.2,2.4,0.4c0.6,0.1,1.2,0.2,1.7,0.3
						c0.5,0.1,0.8,0.2,0.8,0.2s-0.5-1.2-1-2.4c-0.5-1.2-1-2.5-1-2.5"/>
				</g>
				<g>
					<path fill="none" stroke="#010101" stroke-miterlimit="10" d="M58.7,113.8c0,0,1.2,0.3,2.4,0.7c1.2,0.4,2.4,0.7,2.4,0.7
						s-0.4-1.2-0.8-2.5c-0.4-1.3-0.7-2.6-0.7-2.6"/>
				</g>
				<g>
					<path fill="none" stroke="#010101" stroke-miterlimit="10" d="M62.7,109.4c0,0,1.2,0.4,2.3,0.9c1.2,0.5,2.3,1,2.3,1
						c0,0-0.3-1.3-0.5-2.6c-0.1-0.7-0.2-1.3-0.3-1.8c0-0.6-0.4-0.6-0.3-0.6"/>
				</g>
				<g>
					<polyline fill="none" stroke="#010101" stroke-miterlimit="10" points="66.8,105.7 71.4,107.4 70.1,102.3 					"/>
				</g>
			</g>
		</g>
	</g>
</g>
<g id="leaf">
	<g>
		<path fill="#A8CF38" stroke="#010101" stroke-width="0.5" stroke-linecap="round" stroke-linejoin="round" d="M88.8,79.1
			c0,0-8.6-15-7.4-22.4l2.1,0.7c0,0-1.8-2.2,0.2-11.3l1.7,1.5c0,0-1.5-4.5,1.4-10.4l1.7,1.5c0,0,0.8-4.1,2.5-8.3l1.9,1.2
			c0,0-0.4-5,1.3-8.5l1.7,1.5c0,0,0.7-6.3,4.1-7.5l0.5,1.5c0,0,2.3-3.9,5.8-6l1.6,1.7c0,0-0.1-3.9,4.3-5.5l0.9,1.4
			c0,0,0.5-5.2,4.6-6l1.2,2.5c0,0,7.1-6.6,8.7-6.8l2.6,1.3c0.3,1.2-0.1,11-0.1,11l2.7-0.6c1.8,3.8-2,7.3-2,7.3l1.7-0.1
			c1.5,4.5-1.7,6.8-1.7,6.8l2.4,0.2c0.5,4-1.2,8.3-1.2,8.3l1.5-0.5c1.2,3.4-3.4,7.8-3.4,7.8l2.2,0.5c-1.8,3.6-6,6.3-6,6.3l2.1,0.7
			c-2.3,3.9-5.1,7-5.1,7l2.2,0.5c-2.9,5.9-7.4,7.5-7.4,7.5l2.2,0.5c-6,7.2-8.8,7.1-8.8,7.1l1.9,1.2c-5.1,5.4-22.3,7.7-22.3,7.7
			L88.8,79.1z"/>
		<path fill="#A8CF38" stroke="#010101" stroke-width="0.5" stroke-linecap="round" stroke-linejoin="round" d="M90.3,79.8
			c0,0-8.6-15-7.4-22.4l2.1,0.7c0,0-1.8-2.2,0.2-11.3l1.7,1.5c0,0-1.5-4.5,1.4-10.4l1.7,1.5c0,0,0.8-4.1,2.5-8.3l1.9,1.2
			c0,0-0.4-5,1.3-8.5l1.7,1.5c0,0,0.7-6.3,4.1-7.5l0.5,1.5c0,0,2.3-3.9,5.8-6l1.6,1.7c0,0-0.1-3.9,4.3-5.5l0.9,1.4
			c0,0,0.5-5.2,4.6-6l1.2,2.5c0,0,7.1-6.6,8.7-6.8L132,2c0.3,1.2-0.1,11-0.1,11l2.7-0.6c1.8,3.8-2,7.3-2,7.3l1.7-0.1
			c1.5,4.5-1.7,6.8-1.7,6.8l2.4,0.2c0.5,4-1.2,8.3-1.2,8.3l1.5-0.5c1.2,3.4-3.4,7.8-3.4,7.8l2.2,0.5c-1.8,3.6-6,6.3-6,6.3l2.1,0.7
			c-2.3,3.9-5.1,7-5.1,7l2.2,0.5c-2.9,5.9-7.4,7.5-7.4,7.5l2.2,0.5c-6,7.2-8.8,7.1-8.8,7.1l1.9,1.2c-5.1,5.4-22.3,7.7-22.3,7.7
			L90.3,79.8z"/>
		
			<line fill="none" stroke="#010101" stroke-width="0.5" stroke-linecap="round" stroke-linejoin="round" x1="129.8" y1="2" x2="91.2" y2="80.3"/>
		<g>
			
				<line fill="none" stroke="#010101" stroke-width="0.5" stroke-linecap="round" stroke-linejoin="round" x1="120.6" y1="6.3" x2="122" y2="12.8"/>
			
				<line fill="none" stroke="#010101" stroke-width="0.5" stroke-linecap="round" stroke-linejoin="round" x1="114.8" y1="11.1" x2="118.5" y2="18.7"/>
			
				<line fill="none" stroke="#010101" stroke-width="0.5" stroke-linecap="round" stroke-linejoin="round" x1="109.8" y1="14.8" x2="114.8" y2="24.6"/>
			
				<line fill="none" stroke="#010101" stroke-width="0.5" stroke-linecap="round" stroke-linejoin="round" x1="101.8" y1="19" x2="110.2" y2="30.7"/>
			
				<line fill="none" stroke="#010101" stroke-width="0.5" stroke-linecap="round" stroke-linejoin="round" x1="97.8" y1="24.9" x2="108.2" y2="37.4"/>
			
				<line fill="none" stroke="#010101" stroke-width="0.5" stroke-linecap="round" stroke-linejoin="round" x1="93.9" y1="32.2" x2="104.4" y2="43.6"/>
			
				<line fill="none" stroke="#010101" stroke-width="0.5" stroke-linecap="round" stroke-linejoin="round" x1="89.9" y1="38.7" x2="98.9" y2="50.8"/>
			
				<line fill="none" stroke="#010101" stroke-width="0.5" stroke-linecap="round" stroke-linejoin="round" x1="86.7" y1="47.9" x2="97.3" y2="61.2"/>
			
				<line fill="none" stroke="#010101" stroke-width="0.5" stroke-linecap="round" stroke-linejoin="round" x1="84.8" y1="57.7" x2="93.4" y2="71.8"/>
		</g>
		<g>
			
				<line fill="none" stroke="#010101" stroke-width="0.5" stroke-linecap="round" stroke-linejoin="round" x1="132.9" y1="12.4" x2="126.9" y2="15.2"/>
			
				<line fill="none" stroke="#010101" stroke-width="0.5" stroke-linecap="round" stroke-linejoin="round" x1="132.6" y1="19.9" x2="124.3" y2="21.6"/>
			
				<line fill="none" stroke="#010101" stroke-width="0.5" stroke-linecap="round" stroke-linejoin="round" x1="132.7" y1="26.2" x2="121.9" y2="28.1"/>
			
				<line fill="none" stroke="#010101" stroke-width="0.5" stroke-linecap="round" stroke-linejoin="round" x1="134.3" y1="35" x2="119.9" y2="35.5"/>
			
				<line fill="none" stroke="#010101" stroke-width="0.5" stroke-linecap="round" stroke-linejoin="round" x1="132" y1="41.7" x2="115.7" y2="41.1"/>
			
				<line fill="none" stroke="#010101" stroke-width="0.5" stroke-linecap="round" stroke-linejoin="round" x1="128.5" y1="49.3" x2="113.2" y2="47.9"/>
			
				<line fill="none" stroke="#010101" stroke-width="0.5" stroke-linecap="round" stroke-linejoin="round" x1="125.8" y1="56.4" x2="110.8" y2="56.6"/>
			
				<line fill="none" stroke="#010101" stroke-width="0.5" stroke-linecap="round" stroke-linejoin="round" x1="120.5" y1="64.6" x2="103.5" y2="64.2"/>
			
				<line fill="none" stroke="#010101" stroke-width="0.5" stroke-linecap="round" stroke-linejoin="round" x1="113.9" y1="72" x2="97.5" y2="73.8"/>
		</g>
		<path fill="#FFFFFF" stroke="#010101" stroke-width="0.5" stroke-linecap="round" stroke-linejoin="round" d="M136.3,27.3
			c0,0-5.7,1.5-4.2,4.5c0,0-7,1-3.7,6.5c0,0,1.7,3.7,4.7,2.3c0,0-1.9,3,1,2.5c2.9-0.6,2.2-0.7,2.2-0.7"/>
		<path fill="#FFFFFF" stroke="#010101" stroke-width="0.5" stroke-miterlimit="10" d="M99,34.9c-0.2,1.3-1,2.4-1.5,3.6
			c1.5,1.2,3.4-1.3,4.1-2.5c-0.8,2-0.2,6.4,2.5,3.3c-0.5,2,0.6,2.3,2.2,3.1c-0.5,1.7-2.2,2.2-3.2,3.5c-0.6,0.8-0.9,1.9-1.4,2.7
			c-1-0.7-1.2-2.1-2.1-2.8c-0.6,0.5-2.5,3-3.3,2.9c-0.9-0.1-1.8-2.3-2.9-2.7c0.4-1,1-2,1.4-3.1c-0.2-0.2-0.4-0.2-0.5-0.3
			c0.3-1.3,2.7-8,4.2-6.4"/>
		<path fill="#FFFFFF" stroke="#010101" stroke-width="0.5" stroke-miterlimit="10" d="M118.6,19.8c1.7-1.5,1.8-3.4,4.2-4.6
			c0.2,0.6-0.3,2.8,0.2,3.1c1.3,1.1,3.5-1.5,4.5-2.3c-0.2,0.5-1.2,2.3-0.9,2.9c0.7,1.4,2.3,0.2,3.4,0.3c-0.7,2-2.4,3.4-3.4,5.4
			c-0.6,1.3-0.8,2.4-1.3,3.7c-2.3-0.8-3.8-2.5-4.3-4.8c-0.7,1.4-3.2,6.1-3.5,2.3c-0.2-2.3,1.6-4.6,1.9-6.8"/>
		<path fill="#FFFFFF" stroke="#010101" stroke-width="0.5" stroke-miterlimit="10" d="M115.8,52.2c-0.1,1.4-2,3-2,4.4
			c0,1.9,2.3,3.2,4,3.3c-2,0.6-4,1.8-4.7,3.9c0.9,0.9,2.1,1.3,3.2,1.9c-0.9,0.4-5.4,2.7-2.9,3.7c-0.7,1.7-5.4-0.8-6.6-1.8
			c-2.5-2.2-1.6-4.8-0.5-7.5c1.6-3.8,5-7.9,9.7-7"/>
	</g>
</g>
<g id="water">
	<g>
		<path fill="#55C2E2" stroke="#070707" stroke-width="0.5" stroke-miterlimit="10" d="M171.7,112.2c0,0-36.1,41.7-4.2,51.2
			c0,0,26.1-0.6,14.6-30.9C182,132.5,172.1,120.9,171.7,112.2z"/>
		<path fill="none" stroke="#3A97AD" stroke-miterlimit="10" d="M169.5,160.1c5.2,2.4,13.5-10.3,12.9-14.9"/>
		
			<ellipse transform="matrix(0.7903 -0.6127 0.6127 0.7903 -59.6702 132.8979)" opacity="0.8" fill="#FFFFFF" cx="164.3" cy="153.6" rx="4.8" ry="5.8"/>
		<path opacity="0.8" fill="#FFFFFF" d="M161,130.5c0,0,4.7-11.6,10.3-14.6"/>
	</g>
	<g>
		<path fill="#55C2E2" stroke="#070707" stroke-width="0.5" stroke-miterlimit="10" d="M17.4,141.9c0,0-36.1,41.7-4.2,51.2
			c0,0,26.1-0.6,14.6-30.9C27.7,162.2,17.8,150.6,17.4,141.9z"/>
		<path fill="none" stroke="#3A97AD" stroke-miterlimit="10" d="M15.2,189.7c5.2,2.4,13.5-10.3,12.9-14.9"/>
		
			<ellipse transform="matrix(0.7903 -0.6127 0.6127 0.7903 -110.1987 44.5658)" opacity="0.8" fill="#FFFFFF" cx="10" cy="183.3" rx="4.8" ry="5.8"/>
		<path opacity="0.8" fill="#FFFFFF" d="M6.7,160.2c0,0,4.7-11.6,10.3-14.6"/>
	</g>
	<g>
		<path fill="#55C2E2" stroke="#070707" stroke-width="0.5" stroke-miterlimit="10" d="M25.8,268.3c0,0-21.7,25.1-2.5,30.8
			c0,0,15.7-0.4,8.8-18.6C32,280.5,26,273.5,25.8,268.3z"/>
		<path fill="none" stroke="#3A97AD" stroke-miterlimit="10" d="M24.4,297.1c3.1,1.4,8.1-6.2,7.7-9"/>
		
			<ellipse transform="matrix(0.7902 -0.6128 0.6128 0.7902 -176.9294 74.8496)" opacity="0.8" fill="#FFFFFF" cx="20.9" cy="295.9" rx="1.7" ry="2.1"/>
		<path opacity="0.8" fill="#FFFFFF" d="M19.4,279.3c0,0,2.8-7,6.2-8.8"/>
	</g>
	<g>
		<path fill="#55C2E2" stroke="#070707" stroke-width="0.5" stroke-miterlimit="10" d="M184.8,176.3c0,0-21.7,25.1-2.5,30.8
			c0,0,15.7-0.4,8.8-18.6C191,188.5,185,181.5,184.8,176.3z"/>
		<path fill="none" stroke="#3A97AD" stroke-miterlimit="10" d="M183.5,205c3.1,1.4,8.1-6.2,7.7-9"/>
		
			<ellipse transform="matrix(0.7904 -0.6126 0.6126 0.7904 -87.1494 152.9154)" opacity="0.8" fill="#FFFFFF" cx="179.9" cy="203.8" rx="1.7" ry="2.1"/>
		<path opacity="0.8" fill="#FFFFFF" d="M178.4,187.3c0,0,2.8-7,6.2-8.8"/>
	</g>
	<g>
		<path fill="#55C2E2" stroke="#070707" stroke-width="0.5" stroke-miterlimit="10" d="M130.6,283.7c0,0-13.5,15.7-1.6,19.2
			c0,0,9.8-0.2,5.5-11.6C134.5,291.3,130.7,287,130.6,283.7z"/>
		<path fill="none" stroke="#3A97AD" stroke-miterlimit="10" d="M129.7,301.7c1.9,0.9,5.1-3.9,4.8-5.6"/>
		
			<ellipse transform="matrix(0.7906 -0.6123 0.6123 0.7906 -156.5911 140.551)" opacity="0.8" fill="#FFFFFF" cx="127.2" cy="299.3" rx="0.9" ry="1"/>
		<path opacity="0.8" fill="#FFFFFF" d="M126.6,290.6c0,0,1.8-4.4,3.9-5.5"/>
	</g>
	<g>
		<path fill="#55C2E2" stroke="#070707" stroke-width="0.5" stroke-miterlimit="10" d="M62.7,299.3c0,0-13.5,15.7-1.6,19.2
			c0,0,9.8-0.2,5.5-11.6C66.6,306.9,62.9,302.5,62.7,299.3z"/>
		<path fill="none" stroke="#3A97AD" stroke-miterlimit="10" d="M61.9,317.2c1.9,0.9,5.1-3.9,4.8-5.6"/>
		
			<ellipse transform="matrix(0.7904 -0.6126 0.6126 0.7904 -180.3925 102.3568)" opacity="0.8" fill="#FFFFFF" cx="59.4" cy="314.8" rx="0.9" ry="1"/>
		<path opacity="0.8" fill="#FFFFFF" d="M58.7,306.1c0,0,1.8-4.4,3.9-5.5"/>
	</g>
</g>
</svg>
