<?xml version="1.0" encoding="utf-8"?>
<!-- Generator: Adobe Illustrator 17.1.0, SVG Export Plug-In . SVG Version: 6.00 Build 0)  -->
<!DOCTYPE svg PUBLIC "-//W3C//DTD SVG 1.1//EN" "http://www.w3.org/Graphics/SVG/1.1/DTD/svg11.dtd">
<svg version="1.1" xmlns="http://www.w3.org/2000/svg" xmlns:xlink="http://www.w3.org/1999/xlink" x="0px" y="0px"
	 viewBox="0 0 204.5 316.1" enable-background="new 0 0 204.5 316.1" xml:space="preserve">
<pattern  x="-209.9" y="-178.5" width="8.7" height="8.7" patternUnits="userSpaceOnUse" id="New_Pattern_Swatch_12" viewBox="0 -8.7 8.7 8.7" overflow="visible">
	<g>
		<polygon fill="none" points="8.7,0 0,0 0,-8.7 8.7,-8.7 		"/>
		<g>
			<path fill="#010101" d="M5-4.5c0,0.4-0.3,0.7-0.7,0.7C4-3.8,3.7-4.1,3.7-4.5c0-0.4,0.3-0.7,0.7-0.7C4.7-5.2,5-4.9,5-4.5z"/>
		</g>
	</g>
</pattern>
<g id="legs">
	<path fill="#FFFFFF" stroke="#010101" stroke-miterlimit="10" d="M159.7,158.5c0,0,2.6-0.8,7.6-11.2c0,0-2.3,3.9-3.8,3.9
		c0,0,0.8-12.7,5.2-17c0,0-3.5,0-6.3,4c0,0,0.6-40,14.6-43.8C177,94.3,160.4,83.5,159.7,158.5z"/>
	<path fill="#FFFFFF" stroke="#010101" stroke-miterlimit="10" d="M163.9,186.9c0,0,8.6,1,8.9,5.3s0,8,0,8s-0.7,4.7-9,3.3
		L163.9,186.9z"/>
	<path fill="#FFFFFF" stroke="#010101" stroke-miterlimit="10" d="M173,195.4c0,0,10.5,3.2,10.5,11.2s0.7,19.7,4.3,26.7
		s-3.3-1.3-5-5.3c0,0,1.7,12.3,10.3,15.7c0,0-6,0-7.3-1.7c-1.3-1.7,12.3,15.3,18.3,15.3c0,0-27.9-0.9-27.3-53.4c0,0-0.4-3.9-4.1-3.6
		L173,195.4z"/>
	<path fill="#FFFFFF" stroke="#010101" stroke-miterlimit="10" d="M155.3,245.1c9.1,5.2,11.9,1.2,13.2-3.8s-7.6-9.7-7.6-9.7l-2.6,8
		l-3,5"/>
	<path fill="#FFFFFF" stroke="#010101" stroke-miterlimit="10" d="M168.5,243.6c0,0,5.7,20.5,9.2,23c0,0-1.8,1-4.8-2.8
		c0,0-2.8,12.5,2.2,19.2c0,0-4.1-0.5-6.6-3.8c0,0-12.9,23-6.6,34.8c0,0-8.3-10.2,2-36.5c0,0,7.2-19.1,2.2-31.5L168.5,243.6z"/>
	<path fill="#FFFFFF" stroke="#010101" stroke-miterlimit="10" d="M47.5,157.8c0,0-2.6-0.8-7.6-11.2c0,0,2.3,3.9,3.8,3.9
		c0,0-0.8-12.7-5.2-17c0,0,3.5,0,6.3,4c0,0-0.6-40-14.6-43.8C30.2,93.7,46.9,82.8,47.5,157.8z"/>
	<path fill="#FFFFFF" stroke="#010101" stroke-miterlimit="10" d="M40.3,186.4c0,0-8.6,1-8.9,5.3s0,8,0,8s0.7,4.7,9,3.3L40.3,186.4z
		"/>
	<path fill="#FFFFFF" stroke="#010101" stroke-miterlimit="10" d="M31.2,194.8c0,0-10.5,3.2-10.5,11.2s-0.7,19.7-4.3,26.7
		s3.3-1.3,5-5.3c0,0-1.7,12.3-10.3,15.7c0,0,6,0,7.3-1.7C19.7,239.7,6,256.7,0,256.7c0,0,27.9-0.9,27.3-53.4c0,0,0.4-3.9,4.1-3.6
		L31.2,194.8z"/>
	<path fill="#FFFFFF" stroke="#010101" stroke-miterlimit="10" d="M52.3,244.5c-9.1,5.2-11.9,1.2-13.2-3.8c-1.2-5,7.6-9.7,7.6-9.7
		l2.6,8l3,5"/>
	<path fill="#FFFFFF" stroke="#010101" stroke-miterlimit="10" d="M39.1,243c0,0-5.7,20.5-9.2,23c0,0,1.8,1,4.8-2.8
		c0,0,2.8,12.5-2.2,19.2c0,0,4.1-0.5,6.6-3.8c0,0,12.9,23,6.6,34.8c0,0,8.3-10.2-2-36.5c0,0-7.2-19.1-2.2-31.5L39.1,243z"/>
	<path fill="#FFFFFF" stroke="#010101" stroke-miterlimit="10" d="M156,155.5l-3.7,12l6.6,3C159,170.5,169.4,158.5,156,155.5z"/>
	<path fill="#FFFFFF" stroke="#010101" stroke-miterlimit="10" d="M51.3,154.8l3.7,12l-6.7,3C48.3,169.8,37.9,157.8,51.3,154.8z"/>
</g>
<g id="basebody">
	<path fill="#FFFFFF" stroke="#000000" stroke-miterlimit="10" d="M98.8,283.4c-17.2,0-31.1-6-41.2-17.8
		c-20-23.2-19.3-62.2-18.1-70.6c2-13.5,6.9-24.4,7.1-24.9l0.2-0.5l7.5-2.9l0.5,0.1c0.2,0.1,25,7.7,53.4,7.7
		c16.6,0,31.1-2.6,43.2-7.7l0.1,0l0.1,0c0.1,0,0.5-0.1,1.2-0.1c1.4,0,4.1,0.4,6.6,3c4.3,4.4,6.2,13.2,5.8,26c-0.1,3.8-0.1,7.8,0,12
		c0.3,29.5,0.8,69.9-59.2,75.3C103.5,283.3,101.1,283.4,98.8,283.4z"/>
	<path fill="#FFFFFF" stroke="#010101" stroke-miterlimit="10" d="M54.3,168.2c0,0-14.8-37,22.2-48c0,0,30.5,9.5,57.5,0
		c0,0,32.2,11,17.9,48C151.8,168.2,116.2,185.2,54.3,168.2z"/>
	<g>
		<path fill="#FFFFFF" d="M104.4,126.3"/>
		<g>
			<path fill="none" stroke="#010101" stroke-miterlimit="10" d="M104.4,126.3"/>
		</g>
	</g>
	<path fill="#FFFFFF" stroke="#010101" stroke-miterlimit="10" d="M78.8,120.8c0,0,5.5-25.7,22.9-27c17.4-1.3,24.4,20.6,24.4,20.6
		l2.8,6.9C129,121.3,105.2,129.8,78.8,120.8z"/>
</g>
<g id="bodycolor">
	<path fill="#6CBE45" stroke="#010101" stroke-miterlimit="10" d="M98.8,283.4c-17.2,0-31.1-6-41.2-17.8
		c-20-23.2-19.3-62.2-18.1-70.6c2-13.5,6.9-24.4,7.1-24.9l0.2-0.5l7.5-2.9l0.5,0.1c0.2,0.1,25,7.7,53.4,7.7
		c16.6,0,31.1-2.6,43.2-7.7l0.1,0l0.1,0c0.1,0,0.5-0.1,1.2-0.1c1.4,0,4.1,0.4,6.6,3c4.3,4.4,6.2,13.2,5.8,26c-0.1,3.8-0.1,7.8,0,12
		c0.3,29.5,0.8,69.9-59.2,75.3C103.5,283.3,101.1,283.4,98.8,283.4z"/>
	<path fill="#D0DD28" stroke="#010101" stroke-miterlimit="10" d="M54.3,168.2c0,0-14.8-37,22.2-48c0,0,30.5,9.5,57.5,0
		c0,0,32.2,11,17.9,48C151.8,168.2,116.2,185.2,54.3,168.2z"/>
	<g>
		<path fill="#FFFFFF" d="M104.4,126.3"/>
		<g>
			<path fill="none" stroke="#010101" stroke-miterlimit="10" d="M104.4,126.3"/>
		</g>
	</g>
	<path fill="#6CBE45" stroke="#010101" stroke-miterlimit="10" d="M78.8,120.8c0,0,5.5-25.7,22.9-27c17.4-1.3,24.4,20.6,24.4,20.6
		l2.8,6.9C129,121.3,105.2,129.8,78.8,120.8z"/>
</g>
<g id="eyes">
	<path fill="#FFFFFF" stroke="#010101" stroke-miterlimit="10" d="M79.3,120.3c0,0-0.4-11,6.4-11.7c0,0,6.1,9.1-6,13L79.3,120.3z"/>
	<path fill="#FFFFFF" stroke="#010101" stroke-miterlimit="10" d="M129.5,121.5c0,0,0.4-11-6.4-11.7c0,0-6.1,9.1,6,13L129.5,121.5z"
		/>
</g>
<g id="antennae">
	<path fill="none" stroke="#010101" stroke-width="0.5" stroke-miterlimit="10" d="M118,101.1c0,0,5.2-14.7,18-16.4
		c12.8-1.7,21.5-11.9,23.7-16.8"/>
	<path fill="none" stroke="#010101" stroke-width="0.5" stroke-miterlimit="10" d="M89.9,99.1c0,0-5.2-14.7-18-16.4
		C59,81,50.4,70.9,48.2,65.9"/>
</g>
<g id="markings">
	<path fill="#010101" d="M92.1,185.4c0,0-16.4,27.9,0,79.4C92.1,264.7,109.7,213.5,92.1,185.4z"/>
	<path fill="#010101" d="M116.1,185.4c0,0-16.4,27.9,0,79.4C116.1,264.7,133.7,213.5,116.1,185.4z"/>
</g>
<g id="dots">
	<path fill="url(#New_Pattern_Swatch_12)" stroke="#010101" stroke-miterlimit="10" d="M46.6,169.9l6.7-2.6c0,0,57.3,17.9,99.8,0
		c0,0,13.3-3.1,12.3,28.1c-1,31.2,9.3,81.8-59.3,88c-68.6,6.1-68.6-74.7-66.5-88.5C41.5,181.1,46.6,169.9,46.6,169.9z"/>
</g>
<g id="fur">
	<g>
		<g>
			<path fill="none" stroke="#010101" stroke-miterlimit="10" d="M107.3,91"/>
		</g>
	</g>
	<g>
		<g>
			<g>
				<g>
					<path fill="none" stroke="#010101" stroke-miterlimit="10" d="M50.7,172c0,0,0.2-0.2,0.5-0.6c0.3-0.4,0.8-0.8,1.2-1.2
						c0.9-0.9,1.8-1.7,1.8-1.7s-1.3-0.3-2.5-0.6c-1.3-0.3-2.5-0.7-2.5-0.7"/>
				</g>
				<g>
					<path fill="none" stroke="#010101" stroke-miterlimit="10" d="M48.9,166.4c0,0,1-0.8,2-1.5c1-0.7,2-1.4,2-1.4
						c0,0-1.2-0.4-2.5-0.9c-1.2-0.5-2.5-1-2.5-1"/>
				</g>
				<g>
					<path fill="none" stroke="#010101" stroke-miterlimit="10" d="M47.8,160.6c0,0,1-0.7,2.1-1.3c1.1-0.6,2.1-1.2,2.1-1.2
						s-1.2-0.5-2.4-1.1c-1.2-0.6-2.3-1.3-2.3-1.3"/>
				</g>
				<g>
					<path fill="none" stroke="#010101" stroke-miterlimit="10" d="M47.3,154.8c0,0,1.1-0.6,2.2-1.1c1.1-0.5,2.3-0.9,2.3-0.9
						s-1.1-0.7-2.2-1.4c-1.1-0.7-2.1-1.6-2.1-1.6"/>
				</g>
				<g>
					<path fill="none" stroke="#010101" stroke-miterlimit="10" d="M47.6,148.9c0,0,1.2-0.4,2.4-0.7c1.2-0.3,2.4-0.6,2.4-0.6
						c0,0-1-0.8-2-1.7c-1-0.9-1.9-1.9-1.9-1.9"/>
				</g>
				<g>
					<path fill="none" stroke="#010101" stroke-miterlimit="10" d="M48.8,143c0,0,1.2-0.2,2.5-0.4c1.2-0.1,2.4-0.2,2.4-0.2
						s-0.9-1-1.7-2c-0.8-1-1.5-2.2-1.5-2.2"/>
				</g>
				<g>
					<path fill="none" stroke="#010101" stroke-miterlimit="10" d="M50.9,137.4c0,0,1.3,0,2.5,0.1c1.2,0.1,2.4,0.2,2.4,0.2
						s-0.7-1.1-1.3-2.3c-0.6-1.2-1.1-2.4-1.1-2.4"/>
				</g>
				<g>
					<path fill="none" stroke="#010101" stroke-miterlimit="10" d="M54,132.2c0,0,1.2,0.2,2.4,0.6c1.2,0.3,2.4,0.7,2.4,0.7
						s-0.4-1.2-0.8-2.5c-0.4-1.3-0.6-2.6-0.6-2.6"/>
				</g>
				<g>
					<path fill="none" stroke="#010101" stroke-miterlimit="10" d="M58.1,127.8c0,0,1.2,0.5,2.3,1c1.1,0.5,2.2,1.1,2.2,1.1
						s-0.2-1.3-0.4-2.6c-0.1-1.3-0.2-2.6-0.2-2.6"/>
				</g>
				<g>
					<path fill="none" stroke="#010101" stroke-miterlimit="10" d="M62.8,124.1c0,0,1.1,0.7,2.1,1.3c1,0.7,2,1.4,2,1.4s0-1.3,0-2.6
						c0.1-1.3,0.2-2.6,0.2-2.6"/>
				</g>
				<g>
					<path fill="none" stroke="#010101" stroke-miterlimit="10" d="M68,121.2c0,0,1,0.8,1.9,1.6c0.9,0.8,1.8,1.7,1.8,1.7
						s0.2-1.3,0.4-2.6c0.2-1.3,0.5-2.6,0.5-2.6"/>
				</g>
				<g>
					<path fill="none" stroke="#010101" stroke-miterlimit="10" d="M73.4,119c0,0,0.9,0.9,1.7,1.8c0.4,0.5,0.9,0.9,1,1.3
						c0.2,0.4,0.3,0.7,0.3,0.7s0-0.3,0.2-0.7c0.1-0.4,0.5-0.9,1-1.4c0.9-0.9,1.8-1.8,1.8-1.8"/>
				</g>
				<g>
					<path fill="none" stroke="#010101" stroke-miterlimit="10" d="M80.3,119.1c0,0,0.2,1.2,0.4,2.4c0.2,1.2,0.5,2.4,0.5,2.4
						s0.9-1,1.8-1.9c0.9-1,1.8-1.9,1.8-1.9"/>
				</g>
				<g>
					<path fill="none" stroke="#010101" stroke-miterlimit="10" d="M85.5,120.3c0,0,0.3,1.2,0.5,2.4c0.3,1.2,0.6,2.4,0.6,2.4
						s0.9-1,1.7-2c0.8-1,1.7-2,1.7-2"/>
				</g>
				<g>
					<path fill="none" stroke="#010101" stroke-miterlimit="10" d="M90.9,121.2c0,0,0.3,1.2,0.7,2.4c0.3,1.2,0.7,2.4,0.7,2.4
						s0.8-1,1.6-2.1c0.8-1,1.6-2.1,1.6-2.1"/>
				</g>
				<g>
					<path fill="none" stroke="#010101" stroke-miterlimit="10" d="M96.3,121.9c0,0,0.4,1.2,0.8,2.3c0.4,1.2,0.8,2.3,0.8,2.3
						s0.8-1.1,1.5-2.1c0.7-1.1,1.5-2.2,1.5-2.2"/>
				</g>
				<g>
					<path fill="none" stroke="#010101" stroke-miterlimit="10" d="M101.7,122.3c0,0,0.4,1.1,0.9,2.3c0.5,1.1,0.9,2.3,0.9,2.3
						s0.7-1.1,1.4-2.2c0.7-1.1,1.3-2.2,1.3-2.2"/>
				</g>
				<g>
					<path fill="none" stroke="#010101" stroke-miterlimit="10" d="M107.1,122.5c0,0,0.5,1.1,1,2.2c0.5,1.1,1,2.2,1,2.2
						s0.6-1.1,1.3-2.3c0.6-1.1,1.2-2.3,1.2-2.3"/>
				</g>
				<g>
					<path fill="none" stroke="#010101" stroke-miterlimit="10" d="M112.5,122.3c0,0,0.6,1.1,1.1,2.2c0.6,1.1,1.2,2.2,1.2,2.2
						s0.6-1.2,1.1-2.4c0.5-1.2,1.1-2.4,1.1-2.4"/>
				</g>
				<g>
					<path fill="none" stroke="#010101" stroke-miterlimit="10" d="M117.8,121.8c0,0,0.6,1.1,1.3,2.1c0.7,1,1.3,2.1,1.3,2.1
						s0.5-1.2,1-2.4c0.5-1.2,0.9-2.4,0.9-2.4"/>
				</g>
				<g>
					<path fill="none" stroke="#010101" stroke-miterlimit="10" d="M123.1,121c0,0,0.7,1,1.4,2c0.7,1,1.5,2,1.5,2s0.4-1.2,0.8-2.5
						c0.4-1.2,0.7-2.5,0.7-2.5"/>
				</g>
				<g>
					<path fill="none" stroke="#010101" stroke-miterlimit="10" d="M128.3,119.8c0,0,0.8,1,1.5,1.9c0.8,0.9,1.6,1.9,1.6,1.9
						s0.3-1.3,0.6-2.6c0.1-0.6,0.3-1.3,0.4-1.8c0.2-0.5,0.5-0.9,0.5-0.9"/>
				</g>
				<g>
					<path fill="none" stroke="#010101" stroke-miterlimit="10" d="M134.9,118.4c0,0,0,0.1,0.1,0.2c0.1,0.2,0.2,0.4,0.2,0.6
						c0.1,0.3,0.2,0.5,0.2,0.8c0,0.3,0,0.6,0,0.9c0,1.2,0,2.5,0,2.5s1-0.8,2.1-1.5c1.1-0.7,2.3-1.4,2.3-1.4"/>
				</g>
				<g>
					<path fill="none" stroke="#010101" stroke-miterlimit="10" d="M140.7,121c0,0-0.1,1.2-0.2,2.5c-0.1,1.2-0.4,2.4-0.4,2.4
						s1.1-0.6,2.3-1.2c1.2-0.6,2.4-1,2.4-1"/>
				</g>
				<g>
					<path fill="none" stroke="#010101" stroke-miterlimit="10" d="M145.6,124.3c0,0-0.3,1.2-0.6,2.4c-0.3,1.2-0.7,2.4-0.7,2.4
						s1.2-0.4,2.5-0.8c1.3-0.4,2.6-0.7,2.6-0.7"/>
				</g>
				<g>
					<path fill="none" stroke="#010101" stroke-miterlimit="10" d="M150,128.3c0,0-0.4,1.2-1,2.3c-0.5,1.1-1.1,2.2-1.1,2.2
						s1.3-0.2,2.6-0.4c1.3-0.2,2.6-0.2,2.6-0.2"/>
				</g>
				<g>
					<path fill="none" stroke="#010101" stroke-miterlimit="10" d="M153.8,133c0,0-0.6,1.1-1.3,2.1c-0.7,1-1.4,2-1.4,2s1.3,0,2.6,0
						c1.3,0.1,2.6,0.2,2.6,0.2"/>
				</g>
				<g>
					<path fill="none" stroke="#010101" stroke-miterlimit="10" d="M156.7,138.2c0,0-0.8,1-1.7,1.8c-0.9,0.9-1.8,1.7-1.8,1.7
						s1.3,0.2,2.5,0.5c1.3,0.3,2.5,0.7,2.5,0.7"/>
				</g>
				<g>
					<path fill="none" stroke="#010101" stroke-miterlimit="10" d="M158.5,144c0,0-1,0.8-2,1.5c-1,0.7-2,1.4-2,1.4
						c0,0,1.2,0.4,2.4,1c1.2,0.5,2.4,1.1,2.4,1.1"/>
				</g>
				<g>
					<path fill="none" stroke="#010101" stroke-miterlimit="10" d="M159.4,149.9c0,0-1.1,0.6-2.2,1.2c-1.1,0.5-2.2,1-2.2,1
						c0,0,1.1,0.6,2.2,1.3c1.1,0.7,2.2,1.5,2.2,1.5"/>
				</g>
				<g>
					<path fill="none" stroke="#010101" stroke-miterlimit="10" d="M159.3,155.8c0,0-1.2,0.4-2.3,0.8c-1.2,0.4-2.3,0.7-2.3,0.7
						s1,0.8,2.1,1.6c1,0.8,2,1.7,2,1.7"/>
				</g>
				<g>
					<path fill="none" stroke="#010101" stroke-miterlimit="10" d="M158.5,161.6c0,0-1.2,0.3-2.4,0.6c-1.2,0.3-2.4,0.5-2.4,0.5
						s0.9,0.9,1.9,1.8c0.9,0.9,1.8,1.9,1.8,1.9"/>
				</g>
				<g>
					<path fill="none" stroke="#010101" stroke-miterlimit="10" d="M157.1,167.3c0,0-1.2,0.2-2.5,0.3c-1.2,0.1-2.4,0.2-2.4,0.2
						s0.9,1,1.7,2c0.8,1,1.6,2.1,1.6,2.1"/>
				</g>
			</g>
		</g>
	</g>
	<g>
		<g>
			<g>
				<g>
					<polyline fill="none" stroke="#010101" stroke-miterlimit="10" points="47.4,167.2 50.9,170.7 51.8,165.5 					"/>
				</g>
				<g>
					<path fill="none" stroke="#010101" stroke-miterlimit="10" d="M52.8,165.1c0.6,0.4,1.1,0.8,1.4,0.7c0.3,0.7,0.5,1.3,0.6,2
						c0.1,0.6,0,1.2,0.1,1.8c0,0,1-0.9,1.9-1.8c0.9-0.9,1.9-1.8,1.9-1.8"/>
				</g>
				<g>
					<path fill="none" stroke="#010101" stroke-miterlimit="10" d="M59.6,166.2c0,0,0.2,1.2,0.4,2.4c0.2,1.2,0.4,2.4,0.4,2.4
						s0.9-0.9,1.8-1.9c0.9-0.9,1.8-1.9,1.8-1.9"/>
				</g>
				<g>
					<path fill="none" stroke="#010101" stroke-miterlimit="10" d="M64.9,167.5l1,4.8c0,0,0.9-1,1.8-1.9c0.9-1,1.8-1.9,1.8-1.9"/>
				</g>
				<g>
					<path fill="none" stroke="#010101" stroke-miterlimit="10" d="M70.3,168.6l1.1,4.8c0,0,0.9-1,1.7-2c0.9-1,1.7-2,1.7-2"/>
				</g>
				<g>
					<path fill="none" stroke="#010101" stroke-miterlimit="10" d="M75.7,169.7l1.2,4.8c0,0,0.8-1,1.7-2c0.8-1,1.7-2,1.7-2"/>
				</g>
				<g>
					<path fill="none" stroke="#010101" stroke-miterlimit="10" d="M81.1,170.5l1.3,4.7c0,0,0.8-1,1.6-2.1c0.8-1,1.6-2.1,1.6-2.1"/>
				</g>
				<g>
					<path fill="none" stroke="#010101" stroke-miterlimit="10" d="M86.6,171.3c0,0,0.4,1.2,0.7,2.4c0.4,1.2,0.7,2.4,0.7,2.4
						s0.8-1,1.6-2.1c0.8-1.1,1.5-2.1,1.5-2.1"/>
				</g>
				<g>
					<path fill="none" stroke="#010101" stroke-miterlimit="10" d="M92,171.9c0,0,0.4,1.2,0.8,2.3c0.4,1.2,0.8,2.3,0.8,2.3
						s0.8-1.1,1.5-2.1c0.7-1.1,1.5-2.2,1.5-2.2"/>
				</g>
				<g>
					<path fill="none" stroke="#010101" stroke-miterlimit="10" d="M97.5,172.3c0,0,0.4,1.2,0.9,2.3c0.4,1.2,0.9,2.3,0.9,2.3
						s0.7-1.1,1.4-2.2c0.7-1.1,1.4-2.2,1.4-2.2"/>
				</g>
				<g>
					<path fill="none" stroke="#010101" stroke-miterlimit="10" d="M103,172.6c0,0,0.5,1.1,0.9,2.3c0.5,1.1,1,2.3,1,2.3
						s0.7-1.1,1.4-2.2c0.7-1.1,1.3-2.2,1.3-2.2"/>
				</g>
				<g>
					<path fill="none" stroke="#010101" stroke-miterlimit="10" d="M108.4,172.6c0,0,0.5,1.1,1,2.2c0.5,1.1,1,2.2,1,2.2
						s0.6-1.1,1.3-2.3c0.6-1.1,1.3-2.3,1.3-2.3"/>
				</g>
				<g>
					<path fill="none" stroke="#010101" stroke-miterlimit="10" d="M113.9,172.5c0,0,0.5,1.1,1.1,2.2c0.6,1.1,1.1,2.2,1.1,2.2
						s0.6-1.2,1.2-2.3c0.6-1.2,1.2-2.3,1.2-2.3"/>
				</g>
				<g>
					<path fill="none" stroke="#010101" stroke-miterlimit="10" d="M119.3,172.2c0,0,0.6,1.1,1.2,2.2c0.6,1.1,1.2,2.2,1.2,2.2
						s0.6-1.2,1.1-2.4c0.5-1.2,1.1-2.4,1.1-2.4"/>
				</g>
				<g>
					<path fill="none" stroke="#010101" stroke-miterlimit="10" d="M124.8,171.7c0,0,0.6,1.1,1.3,2.1c0.7,1,1.3,2.1,1.3,2.1
						s0.5-1.2,1-2.4c0.5-1.2,1-2.4,1-2.4"/>
				</g>
				<g>
					<path fill="none" stroke="#010101" stroke-miterlimit="10" d="M130.1,170.9c0,0,0.7,1,1.4,2.1c0.7,1,1.4,2,1.4,2
						s0.4-1.2,0.9-2.5c0.4-1.2,0.8-2.5,0.8-2.5"/>
				</g>
				<g>
					<path fill="none" stroke="#010101" stroke-miterlimit="10" d="M135.5,169.8c0,0,0.7,1,1.5,2c0.8,1,1.5,2,1.5,2s0.4-1.3,0.8-2.5
						c0.3-1.3,0.7-2.5,0.7-2.5"/>
				</g>
				<g>
					<path fill="none" stroke="#010101" stroke-miterlimit="10" d="M140.7,168.5c0,0,0.8,0.9,1.6,1.9c0.8,0.9,1.6,1.9,1.6,1.9
						s0.3-1.3,0.6-2.6c0.3-1.3,0.5-2.6,0.5-2.6"/>
				</g>
				<g>
					<path fill="none" stroke="#010101" stroke-miterlimit="10" d="M145.9,166.9c0,0,0.8,0.9,1.7,1.8c0.9,0.9,1.7,1.8,1.7,1.8
						s0.2-1.3,0.4-2.6c0.2-1.3,0.4-2.6,0.4-2.6"/>
				</g>
				<g>
					<path fill="none" stroke="#010101" stroke-miterlimit="10" d="M151.7,164.8c0,0,0.2,0.3,0.5,0.7c0.3,0.4,0.6,1,0.8,1.5
						c0.5,1.1,0.7,2.3,0.7,2.3s0.7-1.1,1.7-1.9c1-0.9,2.3-1.5,2.3-1.5"/>
				</g>
				<g>
					<path fill="none" stroke="#010101" stroke-miterlimit="10" d="M158.7,166.5c0,0,0,1.3-0.3,2.5c-0.3,1.2-0.7,2.3-0.7,2.3
						s1.2-0.5,2.5-0.7c1.3-0.2,2.7-0.2,2.7-0.2"/>
				</g>
				<g>
					<path fill="none" stroke="#010101" stroke-miterlimit="10" d="M163.4,171.3c0,0-0.6,1.1-1.4,2.1c-0.7,1-1.6,1.9-1.6,1.9
						s1.3,0.1,2.6,0.3c1.3,0.2,2.6,0.5,2.6,0.5"/>
				</g>
				<g>
					<path fill="none" stroke="#010101" stroke-miterlimit="10" d="M165.9,177c0,0-0.9,0.9-1.9,1.6c-1,0.8-1.9,1.5-1.9,1.5
						s1.2,0.3,2.5,0.8c1.2,0.4,2.5,0.9,2.5,0.9"/>
				</g>
				<g>
					<path fill="none" stroke="#010101" stroke-miterlimit="10" d="M167.2,182.8c0,0-1,0.7-2.1,1.3c-1,0.6-2.1,1.3-2.1,1.3
						s1.2,0.5,2.4,1.1c1.2,0.6,2.4,1.2,2.4,1.2"/>
				</g>
				<g>
					<path fill="none" stroke="#010101" stroke-miterlimit="10" d="M167.8,188.6c0,0-1.1,0.6-2.2,1.1c-1.1,0.5-2.2,1.1-2.2,1.1
						s1.1,0.6,2.3,1.3c1.1,0.7,2.3,1.3,2.3,1.3"/>
				</g>
				<g>
					<path fill="none" stroke="#010101" stroke-miterlimit="10" d="M167.9,194.3c0,0-1.1,0.5-2.3,1c-1.1,0.5-2.3,0.9-2.3,0.9
						s1.1,0.7,2.2,1.4c1.1,0.7,2.2,1.4,2.2,1.4"/>
				</g>
				<g>
					<polyline fill="none" stroke="#010101" stroke-miterlimit="10" points="167.8,199.9 163.3,201.9 167.8,204.5 					"/>
				</g>
				<g>
					<polyline fill="none" stroke="#010101" stroke-miterlimit="10" points="167.8,205.4 163.3,207.4 167.9,210.1 					"/>
				</g>
				<g>
					<polyline fill="none" stroke="#010101" stroke-miterlimit="10" points="167.9,211 163.4,213 167.9,215.7 					"/>
				</g>
				<g>
					<path fill="none" stroke="#010101" stroke-miterlimit="10" d="M167.9,216.6l-4.5,2c0,0,1.1,0.7,2.2,1.4
						c1.1,0.7,2.2,1.4,2.2,1.4"/>
				</g>
				<g>
					<path fill="none" stroke="#010101" stroke-miterlimit="10" d="M167.8,222.2c0,0-1.1,0.5-2.3,0.9c-1.1,0.5-2.3,0.9-2.3,0.9
						s1.1,0.7,2.2,1.4c1.1,0.7,2.2,1.5,2.2,1.5"/>
				</g>
				<g>
					<path fill="none" stroke="#010101" stroke-miterlimit="10" d="M167.5,227.8c0,0-1.2,0.4-2.3,0.8c-1.2,0.4-2.3,0.8-2.3,0.8
						s1.1,0.8,2.1,1.5c1.1,0.8,2.1,1.6,2.1,1.6"/>
				</g>
				<g>
					<path fill="none" stroke="#010101" stroke-miterlimit="10" d="M167,233.5c0,0-1.2,0.4-2.4,0.7c-1.2,0.3-2.4,0.7-2.4,0.7
						s1,0.8,2,1.6c1,0.8,2,1.7,2,1.7"/>
				</g>
				<g>
					<path fill="none" stroke="#010101" stroke-miterlimit="10" d="M166.2,239.2c0,0-1.2,0.3-2.4,0.6c-1.2,0.3-2.4,0.5-2.4,0.5
						s1,0.9,1.9,1.8c1,0.9,1.9,1.9,1.9,1.9"/>
				</g>
				<g>
					<path fill="none" stroke="#010101" stroke-miterlimit="10" d="M164.9,244.8c0,0-1.2,0.2-2.4,0.4c-1.2,0.2-2.4,0.3-2.4,0.3
						s0.9,0.9,1.8,1.9c0.9,1,1.7,2,1.7,2"/>
				</g>
				<g>
					<path fill="none" stroke="#010101" stroke-miterlimit="10" d="M163.2,250.4c0,0-1.2,0.1-2.5,0.2c-1.2,0.1-2.5,0.1-2.5,0.1
						s0.8,1,1.6,2.1c0.8,1.1,1.5,2.2,1.5,2.2"/>
				</g>
				<g>
					<path fill="none" stroke="#010101" stroke-miterlimit="10" d="M160.9,255.7c0,0-1.2,0-2.5-0.1c-1.2-0.1-2.5-0.2-2.5-0.2
						c0,0,0.7,1.1,1.3,2.3c0.6,1.1,1.2,2.3,1.2,2.3"/>
				</g>
				<g>
					<path fill="none" stroke="#010101" stroke-miterlimit="10" d="M158,260.9c0,0-1.2-0.2-2.5-0.4c-1.2-0.2-2.4-0.5-2.4-0.5
						s0.6,1.2,1,2.4c0.5,1.2,0.9,2.5,0.9,2.5"/>
				</g>
				<g>
					<path fill="none" stroke="#010101" stroke-miterlimit="10" d="M154.5,265.6c0,0-1.2-0.3-2.4-0.7c-1.2-0.4-2.3-0.8-2.3-0.8
						s0.4,1.2,0.7,2.5c0.3,1.3,0.6,2.6,0.6,2.6"/>
				</g>
				<g>
					<path fill="none" stroke="#010101" stroke-miterlimit="10" d="M150.4,269.9c0,0-1.2-0.5-2.3-1c-1.1-0.5-2.2-1.1-2.2-1.1
						c0,0,0.2,1.3,0.4,2.6c0.2,1.3,0.3,2.6,0.3,2.6"/>
				</g>
				<g>
					<path fill="none" stroke="#010101" stroke-miterlimit="10" d="M145.9,273.6c0,0-1.1-0.6-2.1-1.2c-1.1-0.6-2.1-1.3-2.1-1.3
						s0.1,1.3,0.1,2.6c0,1.3,0,2.6,0,2.6"/>
				</g>
				<g>
					<path fill="none" stroke="#010101" stroke-miterlimit="10" d="M141,276.8c0,0-1-0.7-2-1.5c-1-0.7-1.9-1.5-1.9-1.5
						s0,1.3-0.2,2.6c-0.1,1.3-0.3,2.6-0.3,2.6"/>
				</g>
				<g>
					<path fill="none" stroke="#010101" stroke-miterlimit="10" d="M135.8,279.4c0,0-0.9-0.8-1.8-1.7c-0.9-0.8-1.8-1.7-1.8-1.7
						s-0.2,1.3-0.4,2.6c-0.2,1.3-0.5,2.6-0.5,2.6"/>
				</g>
				<g>
					<path fill="none" stroke="#010101" stroke-miterlimit="10" d="M130.4,281.5c0,0-0.9-0.9-1.7-1.8c-0.8-0.9-1.6-1.8-1.6-1.8
						s-0.3,1.3-0.6,2.5c-0.3,1.3-0.7,2.5-0.7,2.5"/>
				</g>
				<g>
					<path fill="none" stroke="#010101" stroke-miterlimit="10" d="M124.9,283.2c0,0-0.8-1-1.6-1.9c-0.8-1-1.5-1.9-1.5-1.9
						s-0.4,1.3-0.8,2.5c-0.4,1.2-0.8,2.5-0.8,2.5"/>
				</g>
				<g>
					<path fill="none" stroke="#010101" stroke-miterlimit="10" d="M119.3,284.5c0,0-0.7-1-1.4-2c-0.7-1-1.4-2-1.4-2
						s-0.5,1.2-0.9,2.5c-0.5,1.2-1,2.4-1,2.4"/>
				</g>
				<g>
					<path fill="none" stroke="#010101" stroke-miterlimit="10" d="M113.7,285.5c0,0-0.7-1-1.3-2.1c-0.6-1-1.3-2.1-1.3-2.1
						s-0.5,1.2-1,2.4c-0.5,1.2-1.1,2.4-1.1,2.4"/>
				</g>
				<g>
					<path fill="none" stroke="#010101" stroke-miterlimit="10" d="M108.1,286.2c0,0-0.6-1.1-1.2-2.1c-0.6-1.1-1.2-2.2-1.2-2.2
						s-0.6,1.2-1.1,2.4c-0.6,1.2-1.2,2.3-1.2,2.3"/>
				</g>
				<g>
					<path fill="none" stroke="#010101" stroke-miterlimit="10" d="M102.3,286.7c0,0-0.6-1.1-1.1-2.2c-0.5-1.1-1.1-2.2-1.1-2.2
						s-0.6,1.1-1.3,2.3c-0.7,1.1-1.4,2.2-1.4,2.2"/>
				</g>
				<g>
					<path fill="none" stroke="#010101" stroke-miterlimit="10" d="M96.6,286.7c0,0-0.5-1.1-0.9-2.3c-0.4-1.2-0.9-2.3-0.9-2.3
						s-0.7,1.1-1.5,2.2c-0.8,1.1-1.6,2.1-1.6,2.1"/>
				</g>
				<g>
					<path fill="none" stroke="#010101" stroke-miterlimit="10" d="M90.8,286.3c0,0-0.4-1.2-0.7-2.4c-0.4-1.2-0.7-2.4-0.7-2.4
						s-0.8,1-1.7,2c-0.8,1-1.8,2-1.8,2"/>
				</g>
				<g>
					<path fill="none" stroke="#010101" stroke-miterlimit="10" d="M85.1,285.4c0,0-0.3-1.2-0.5-2.4c-0.2-1.2-0.4-2.4-0.4-2.4
						s-0.9,0.9-1.8,1.8c-0.9,0.9-1.9,1.8-1.9,1.8"/>
				</g>
				<g>
					<path fill="none" stroke="#010101" stroke-miterlimit="10" d="M79.4,283.9c0,0-0.2-1.2-0.3-2.5C79,280.2,79,279,79,279
						s-1,0.8-2,1.6c-1,0.8-2.1,1.6-2.1,1.6"/>
				</g>
				<g>
					<path fill="none" stroke="#010101" stroke-miterlimit="10" d="M74,281.9c0,0,0-1.2,0-2.5c0-1.2,0.1-2.5,0.1-2.5
						s-1.1,0.7-2.2,1.4c-1.1,0.7-2.3,1.3-2.3,1.3"/>
				</g>
				<g>
					<path fill="none" stroke="#010101" stroke-miterlimit="10" d="M68.7,279.2c0,0,0.1-1.2,0.3-2.5c0.2-1.2,0.4-2.4,0.4-2.4
						c0,0-1.1,0.6-2.3,1.1c-1.2,0.6-2.4,1-2.4,1"/>
				</g>
				<g>
					<path fill="none" stroke="#010101" stroke-miterlimit="10" d="M63.9,275.9c0,0,0.3-1.2,0.6-2.4c0.3-1.2,0.6-2.4,0.6-2.4
						s-1.2,0.5-2.5,0.9c-1.2,0.4-2.5,0.8-2.5,0.8"/>
				</g>
				<g>
					<path fill="none" stroke="#010101" stroke-miterlimit="10" d="M59.4,272.1c0,0,0.4-1.2,0.8-2.3c0.4-1.2,0.9-2.3,0.9-2.3
						s-1.3,0.3-2.5,0.6c-1.3,0.3-2.6,0.5-2.6,0.5"/>
				</g>
				<g>
					<path fill="none" stroke="#010101" stroke-miterlimit="10" d="M55.4,267.9c0,0,0.5-1.1,1.1-2.2c0.5-1.1,1.1-2.2,1.1-2.2
						s-1.3,0.2-2.6,0.3c-1.3,0.1-2.6,0.2-2.6,0.2"/>
				</g>
				<g>
					<path fill="none" stroke="#010101" stroke-miterlimit="10" d="M51.8,263.3c0,0,0.6-1.1,1.3-2.1c0.6-1,1.3-2.1,1.3-2.1
						s-1.3,0.1-2.6,0.1c-1.3,0-2.6,0-2.6,0"/>
				</g>
				<g>
					<path fill="none" stroke="#010101" stroke-miterlimit="10" d="M48.7,258.4c0,0,0.7-1,1.5-2c0.7-1,1.5-2,1.5-2s-1.3,0-2.6-0.1
						c-1.3-0.1-2.6-0.2-2.6-0.2"/>
				</g>
				<g>
					<path fill="none" stroke="#010101" stroke-miterlimit="10" d="M46,253.3c0,0,0.8-0.9,1.6-1.9c0.8-0.9,1.6-1.8,1.6-1.8
						s-1.3-0.1-2.6-0.3c-1.3-0.2-2.6-0.4-2.6-0.4"/>
				</g>
				<g>
					<path fill="none" stroke="#010101" stroke-miterlimit="10" d="M43.8,248c0,0,0.9-0.9,1.7-1.8c0.9-0.9,1.8-1.7,1.8-1.7
						s-1.3-0.2-2.6-0.5c-1.3-0.3-2.6-0.6-2.6-0.6"/>
				</g>
				<g>
					<path fill="none" stroke="#010101" stroke-miterlimit="10" d="M41.8,242.6c0,0,0.9-0.8,1.8-1.6c0.9-0.8,1.9-1.6,1.9-1.6
						s-1.3-0.3-2.5-0.6c-1.3-0.4-2.5-0.7-2.5-0.7"/>
				</g>
				<g>
					<path fill="none" stroke="#010101" stroke-miterlimit="10" d="M40.2,237.1c0,0,1-0.8,1.9-1.5c1-0.8,2-1.5,2-1.5
						s-1.2-0.4-2.5-0.8c-1.2-0.4-2.5-0.8-2.5-0.8"/>
				</g>
				<g>
					<path fill="none" stroke="#010101" stroke-miterlimit="10" d="M38.9,231.6c0,0,1-0.7,2-1.4c1-0.7,2-1.4,2-1.4s-1.2-0.4-2.5-0.9
						c-1.2-0.5-2.5-1-2.5-1"/>
				</g>
				<g>
					<path fill="none" stroke="#010101" stroke-miterlimit="10" d="M37.9,226c0,0,1-0.7,2.1-1.3c1-0.7,2.1-1.3,2.1-1.3
						s-1.2-0.5-2.4-1c-1.2-0.5-2.4-1.1-2.4-1.1"/>
				</g>
				<g>
					<path fill="none" stroke="#010101" stroke-miterlimit="10" d="M37.2,220.3c0,0,1.1-0.6,2.1-1.3c1.1-0.6,2.1-1.2,2.1-1.2
						s-1.2-0.6-2.4-1.1c-1.2-0.6-2.4-1.2-2.4-1.2"/>
				</g>
				<g>
					<path fill="none" stroke="#010101" stroke-miterlimit="10" d="M36.6,214.7c0,0,1.1-0.6,2.2-1.2c1.1-0.6,2.2-1.1,2.2-1.1
						s-1.2-0.6-2.3-1.2c-1.2-0.6-2.3-1.3-2.3-1.3"/>
				</g>
				<g>
					<path fill="none" stroke="#010101" stroke-miterlimit="10" d="M36.3,209c0,0,1.1-0.5,2.2-1.1c1.1-0.5,2.2-1,2.2-1
						s-1.1-0.7-2.3-1.3c-1.1-0.7-2.2-1.4-2.2-1.4"/>
				</g>
				<g>
					<path fill="none" stroke="#010101" stroke-miterlimit="10" d="M36.3,203.3c0,0,1.1-0.5,2.3-1c1.1-0.5,2.3-0.9,2.3-0.9
						s-1.1-0.7-2.2-1.4c-1.1-0.7-2.2-1.5-2.2-1.5"/>
				</g>
				<g>
					<path fill="none" stroke="#010101" stroke-miterlimit="10" d="M36.6,197.6c0,0,1.2-0.4,2.3-0.8c1.2-0.4,2.4-0.7,2.4-0.7
						s-0.3-0.2-0.6-0.5c-0.4-0.3-0.9-0.7-1.4-1.1c-1-0.8-2-1.7-2-1.7"/>
				</g>
				<g>
					<path fill="none" stroke="#010101" stroke-miterlimit="10" d="M37.4,191.8c0,0,1.2-0.3,2.4-0.6c1.2-0.3,2.4-0.5,2.4-0.5
						s-1-0.9-1.9-1.8c-0.9-0.9-1.9-1.8-1.9-1.8"/>
				</g>
				<g>
					<path fill="none" stroke="#010101" stroke-miterlimit="10" d="M38.7,186.2c0,0,1.2-0.2,2.4-0.4c1.2-0.2,2.4-0.4,2.4-0.4
						s-0.9-0.9-1.8-1.9c-0.9-1-1.8-1.9-1.8-1.9"/>
				</g>
				<g>
					<path fill="none" stroke="#010101" stroke-miterlimit="10" d="M40.2,180.7c0,0,1.2-0.2,2.5-0.3c1.2-0.1,2.5-0.3,2.5-0.3
						s-0.9-1-1.7-2c-0.8-1-1.7-2-1.7-2"/>
				</g>
				<g>
					<path fill="none" stroke="#010101" stroke-miterlimit="10" d="M42,175.3c0,0,1.2-0.1,2.5-0.2c1.2-0.1,2.5-0.1,2.5-0.1
						s-0.8-1-1.6-2.1c-0.8-1-1.6-2.1-1.6-2.1"/>
				</g>
			</g>
		</g>
	</g>
</g>
<g id="leaf">
	<g>
		<path fill="#A8CF38" stroke="#010101" stroke-width="0.5" stroke-linecap="round" stroke-linejoin="round" d="M96.5,79.1
			c0,0-8.6-15-7.4-22.4l2.1,0.7c0,0-1.8-2.2,0.2-11.3l1.7,1.5c0,0-1.5-4.5,1.4-10.4l1.7,1.5c0,0,0.8-4.1,2.5-8.3l1.9,1.2
			c0,0-0.4-5,1.3-8.5l1.7,1.5c0,0,0.7-6.3,4.1-7.5l0.5,1.5c0,0,2.3-3.9,5.8-6l1.6,1.7c0,0-0.1-3.9,4.3-5.5l0.9,1.4
			c0,0,0.5-5.2,4.6-6l1.2,2.5c0,0,7.1-6.6,8.7-6.8l2.6,1.3c0.3,1.2-0.1,11-0.1,11l2.7-0.6c1.8,3.8-2,7.3-2,7.3l1.7-0.1
			c1.5,4.5-1.7,6.8-1.7,6.8l2.4,0.2c0.5,4-1.2,8.3-1.2,8.3l1.5-0.5c1.2,3.4-3.4,7.8-3.4,7.8l2.2,0.5c-1.8,3.6-6,6.3-6,6.3l2.1,0.7
			c-2.3,3.9-5.1,7-5.1,7l2.2,0.5c-2.9,5.9-7.4,7.5-7.4,7.5l2.2,0.5c-6,7.2-8.8,7.1-8.8,7.1l1.9,1.2c-5.1,5.4-22.3,7.7-22.3,7.7
			L96.5,79.1z"/>
		<path fill="#A8CF38" stroke="#010101" stroke-width="0.5" stroke-linecap="round" stroke-linejoin="round" d="M98,79.8
			c0,0-8.6-15-7.4-22.4l2.1,0.7c0,0-1.8-2.2,0.2-11.3l1.7,1.5c0,0-1.5-4.5,1.4-10.4l1.7,1.5c0,0,0.8-4.1,2.5-8.3l1.9,1.2
			c0,0-0.4-5,1.3-8.5l1.7,1.5c0,0,0.7-6.3,4.1-7.5l0.5,1.5c0,0,2.3-3.9,5.8-6l1.6,1.7c0,0-0.1-3.9,4.3-5.5l0.9,1.4
			c0,0,0.5-5.2,4.6-6l1.2,2.5c0,0,7.1-6.6,8.7-6.8l2.6,1.3c0.3,1.2-0.1,11-0.1,11l2.7-0.6c1.8,3.8-2,7.3-2,7.3l1.7-0.1
			c1.5,4.5-1.7,6.8-1.7,6.8l2.4,0.2c0.5,4-1.2,8.3-1.2,8.3l1.5-0.5c1.2,3.4-3.4,7.8-3.4,7.8l2.2,0.5c-1.8,3.6-6,6.3-6,6.3l2.1,0.7
			c-2.3,3.9-5.1,7-5.1,7l2.2,0.5c-2.9,5.9-7.4,7.5-7.4,7.5l2.2,0.5c-6,7.2-8.8,7.1-8.8,7.1l1.9,1.2c-5.1,5.4-22.3,7.7-22.3,7.7
			L98,79.8z"/>
		
			<line fill="none" stroke="#010101" stroke-width="0.5" stroke-linecap="round" stroke-linejoin="round" x1="137.5" y1="2" x2="98.8" y2="80.3"/>
		<g>
			
				<line fill="none" stroke="#010101" stroke-width="0.5" stroke-linecap="round" stroke-linejoin="round" x1="128.3" y1="6.3" x2="129.6" y2="12.8"/>
			
				<line fill="none" stroke="#010101" stroke-width="0.5" stroke-linecap="round" stroke-linejoin="round" x1="122.5" y1="11.1" x2="126.2" y2="18.7"/>
			
				<line fill="none" stroke="#010101" stroke-width="0.5" stroke-linecap="round" stroke-linejoin="round" x1="117.4" y1="14.8" x2="122.5" y2="24.6"/>
			
				<line fill="none" stroke="#010101" stroke-width="0.5" stroke-linecap="round" stroke-linejoin="round" x1="109.5" y1="19" x2="117.9" y2="30.7"/>
			
				<line fill="none" stroke="#010101" stroke-width="0.5" stroke-linecap="round" stroke-linejoin="round" x1="105.5" y1="24.9" x2="115.9" y2="37.4"/>
			
				<line fill="none" stroke="#010101" stroke-width="0.5" stroke-linecap="round" stroke-linejoin="round" x1="101.6" y1="32.2" x2="112" y2="43.6"/>
			
				<line fill="none" stroke="#010101" stroke-width="0.5" stroke-linecap="round" stroke-linejoin="round" x1="97.6" y1="38.7" x2="106.6" y2="50.8"/>
			
				<line fill="none" stroke="#010101" stroke-width="0.5" stroke-linecap="round" stroke-linejoin="round" x1="94.4" y1="47.9" x2="105" y2="61.2"/>
			
				<line fill="none" stroke="#010101" stroke-width="0.5" stroke-linecap="round" stroke-linejoin="round" x1="92.5" y1="57.7" x2="101" y2="71.8"/>
		</g>
		<g>
			
				<line fill="none" stroke="#010101" stroke-width="0.5" stroke-linecap="round" stroke-linejoin="round" x1="140.5" y1="12.4" x2="134.6" y2="15.2"/>
			
				<line fill="none" stroke="#010101" stroke-width="0.5" stroke-linecap="round" stroke-linejoin="round" x1="140.3" y1="19.9" x2="132" y2="21.6"/>
			
				<line fill="none" stroke="#010101" stroke-width="0.5" stroke-linecap="round" stroke-linejoin="round" x1="140.4" y1="26.2" x2="129.6" y2="28.1"/>
			
				<line fill="none" stroke="#010101" stroke-width="0.5" stroke-linecap="round" stroke-linejoin="round" x1="141.9" y1="35" x2="127.5" y2="35.5"/>
			
				<line fill="none" stroke="#010101" stroke-width="0.5" stroke-linecap="round" stroke-linejoin="round" x1="139.7" y1="41.7" x2="123.4" y2="41.1"/>
			
				<line fill="none" stroke="#010101" stroke-width="0.5" stroke-linecap="round" stroke-linejoin="round" x1="136.2" y1="49.3" x2="120.9" y2="47.9"/>
			
				<line fill="none" stroke="#010101" stroke-width="0.5" stroke-linecap="round" stroke-linejoin="round" x1="133.5" y1="56.4" x2="118.4" y2="56.6"/>
			
				<line fill="none" stroke="#010101" stroke-width="0.5" stroke-linecap="round" stroke-linejoin="round" x1="128.2" y1="64.6" x2="111.2" y2="64.2"/>
			
				<line fill="none" stroke="#010101" stroke-width="0.5" stroke-linecap="round" stroke-linejoin="round" x1="121.5" y1="72" x2="105.1" y2="73.8"/>
		</g>
		<path fill="#FFFFFF" stroke="#010101" stroke-width="0.5" stroke-linecap="round" stroke-linejoin="round" d="M143.9,27.3
			c0,0-5.7,1.5-4.2,4.5c0,0-7,1-3.7,6.5c0,0,1.7,3.7,4.7,2.3c0,0-1.9,3,1,2.5c2.9-0.6,2.2-0.7,2.2-0.7"/>
		<path fill="#FFFFFF" stroke="#010101" stroke-width="0.5" stroke-miterlimit="10" d="M106.7,34.9c-0.2,1.3-1,2.4-1.5,3.6
			c1.5,1.2,3.4-1.3,4.1-2.5c-0.8,2-0.2,6.4,2.5,3.3c-0.5,2,0.6,2.3,2.2,3.1c-0.5,1.7-2.2,2.2-3.2,3.5c-0.6,0.8-0.9,1.9-1.4,2.7
			c-1-0.7-1.2-2.1-2.1-2.8c-0.6,0.5-2.5,3-3.3,2.9c-0.9-0.1-1.8-2.3-2.9-2.7c0.4-1,1-2,1.4-3.1c-0.2-0.2-0.4-0.2-0.5-0.3
			c0.3-1.3,2.7-8,4.2-6.4"/>
		<path fill="#FFFFFF" stroke="#010101" stroke-width="0.5" stroke-miterlimit="10" d="M126.3,19.8c1.7-1.5,1.8-3.4,4.2-4.6
			c0.2,0.6-0.3,2.8,0.2,3.1c1.3,1.1,3.5-1.5,4.5-2.3c-0.2,0.5-1.2,2.3-0.9,2.9c0.7,1.4,2.3,0.2,3.4,0.3c-0.7,2-2.4,3.4-3.4,5.4
			c-0.6,1.3-0.8,2.4-1.3,3.7c-2.3-0.8-3.8-2.5-4.3-4.8c-0.7,1.4-3.2,6.1-3.5,2.3c-0.2-2.3,1.6-4.6,1.9-6.8"/>
		<path fill="#FFFFFF" stroke="#010101" stroke-width="0.5" stroke-miterlimit="10" d="M123.5,52.2c-0.1,1.4-2,3-2,4.4
			c0,1.9,2.3,3.2,4,3.3c-2,0.6-4,1.8-4.7,3.9c0.9,0.9,2.1,1.3,3.2,1.9c-0.9,0.4-5.4,2.7-2.9,3.7c-0.7,1.7-5.4-0.8-6.6-1.8
			c-2.5-2.2-1.6-4.8-0.5-7.5c1.6-3.8,5-7.9,9.7-7"/>
	</g>
</g>
<g id="water">
	<g>
		<path fill="#55C2E2" stroke="#070707" stroke-width="0.5" stroke-miterlimit="10" d="M191.2,104.9c0,0-36.1,41.7-4.2,51.2
			c0,0,26.1-0.6,14.6-30.9C201.5,125.2,191.6,113.6,191.2,104.9z"/>
		<path fill="none" stroke="#3A97AD" stroke-miterlimit="10" d="M189,152.7c5.2,2.4,13.5-10.3,12.9-14.9"/>
		
			<ellipse transform="matrix(0.7903 -0.6127 0.6127 0.7903 -51.098 143.3108)" opacity="0.8" fill="#FFFFFF" cx="183.8" cy="146.3" rx="4.8" ry="5.8"/>
		<path opacity="0.8" fill="#FFFFFF" d="M180.5,123.2c0,0,4.7-11.6,10.3-14.6"/>
	</g>
	<g>
		<path fill="#55C2E2" stroke="#070707" stroke-width="0.5" stroke-miterlimit="10" d="M19.5,126.1c0,0-36.1,41.7-4.2,51.2
			c0,0,26.1-0.6,14.6-30.9C29.9,146.4,20,134.8,19.5,126.1z"/>
		<path fill="none" stroke="#3A97AD" stroke-miterlimit="10" d="M17.3,174c5.2,2.4,13.5-10.3,12.9-14.9"/>
		
			<ellipse transform="matrix(0.7903 -0.6127 0.6127 0.7903 -100.098 42.5829)" opacity="0.8" fill="#FFFFFF" cx="12.2" cy="167.5" rx="4.8" ry="5.8"/>
		<path opacity="0.8" fill="#FFFFFF" d="M8.9,144.4c0,0,4.7-11.6,10.3-14.6"/>
	</g>
	<g>
		<path fill="#55C2E2" stroke="#070707" stroke-width="0.5" stroke-miterlimit="10" d="M20.8,259.5c0,0-21.7,25.1-2.5,30.8
			c0,0,15.7-0.4,8.8-18.6C27,271.7,21.1,264.8,20.8,259.5z"/>
		<path fill="none" stroke="#3A97AD" stroke-miterlimit="10" d="M19.5,288.3c3.1,1.4,8.1-6.2,7.7-9"/>
		
			<ellipse transform="matrix(0.7902 -0.6128 0.6128 0.7902 -172.6005 69.9564)" opacity="0.8" fill="#FFFFFF" cx="15.9" cy="287.1" rx="1.7" ry="2.1"/>
		<path opacity="0.8" fill="#FFFFFF" d="M14.4,270.5c0,0,2.8-7,6.2-8.8"/>
	</g>
	<g>
		<path fill="#55C2E2" stroke="#070707" stroke-width="0.5" stroke-miterlimit="10" d="M142.9,285.3c0,0-21.7,25.1-2.5,30.8
			c0,0,15.7-0.4,8.8-18.6C149.1,297.5,143.2,290.5,142.9,285.3z"/>
		<path fill="none" stroke="#3A97AD" stroke-miterlimit="10" d="M141.6,314c3.1,1.4,8.1-6.2,7.7-9"/>
		
			<ellipse transform="matrix(0.7904 -0.6126 0.6126 0.7904 -162.7027 150.1052)" opacity="0.8" fill="#FFFFFF" cx="138" cy="312.8" rx="1.7" ry="2.1"/>
		<path opacity="0.8" fill="#FFFFFF" d="M136.5,296.3c0,0,2.8-7,6.2-8.8"/>
	</g>
	<g>
		<path fill="#55C2E2" stroke="#070707" stroke-width="0.5" stroke-miterlimit="10" d="M196.2,207.9c0,0-13.5,15.7-1.6,19.2
			c0,0,9.8-0.2,5.5-11.6C200.1,215.5,196.4,211.2,196.2,207.9z"/>
		<path fill="none" stroke="#3A97AD" stroke-miterlimit="10" d="M195.4,225.9c1.9,0.9,5.1-3.9,4.8-5.6"/>
		
			<ellipse transform="matrix(0.7906 -0.6123 0.6123 0.7906 -96.4184 164.8718)" opacity="0.8" fill="#FFFFFF" cx="192.9" cy="223.4" rx="0.9" ry="1"/>
		<path opacity="0.8" fill="#FFFFFF" d="M192.2,214.8c0,0,1.8-4.4,3.9-5.5"/>
	</g>
	<g>
		<path fill="#55C2E2" stroke="#070707" stroke-width="0.5" stroke-miterlimit="10" d="M64.6,289.6c0,0-13.5,15.7-1.6,19.2
			c0,0,9.8-0.2,5.5-11.6C68.5,297.3,64.8,292.9,64.6,289.6z"/>
		<path fill="none" stroke="#3A97AD" stroke-miterlimit="10" d="M63.8,307.6c1.9,0.9,5.1-3.9,4.8-5.6"/>
		
			<ellipse transform="matrix(0.7904 -0.6126 0.6126 0.7904 -174.0979 101.5153)" opacity="0.8" fill="#FFFFFF" cx="61.3" cy="305.2" rx="0.9" ry="1"/>
		<path opacity="0.8" fill="#FFFFFF" d="M60.6,296.5c0,0,1.8-4.4,3.9-5.5"/>
	</g>
</g>
</svg>
