<?xml version="1.0" encoding="utf-8"?>
<!-- Generator: Adobe Illustrator 17.1.0, SVG Export Plug-In . SVG Version: 6.00 Build 0)  -->
<!DOCTYPE svg PUBLIC "-//W3C//DTD SVG 1.1//EN" "http://www.w3.org/Graphics/SVG/1.1/DTD/svg11.dtd">
<svg version="1.1" id="Layer_1" xmlns="http://www.w3.org/2000/svg" xmlns:xlink="http://www.w3.org/1999/xlink" x="0px" y="0px"
	 viewBox="0 0 100 100" enable-background="new 0 0 100 100" xml:space="preserve">
<pattern  y="100" width="4" height="4" patternUnits="userSpaceOnUse" id="SVGID_2" viewBox="0 -4 4 4" overflow="visible">
	<g>
		<polygon fill="none" points="0,0 4,0 4,-4 0,-4 		"/>
		<g>
			<polygon fill="none" points="0,0 4,0 4,-4 0,-4 			"/>
			<path fill="#010101" d="M2.8-2c0,0.4-0.4,0.8-0.8,0.8S1.6-1.6,1.6-2s0-0.8,0.4-0.8S2.8-2.4,2.8-2z"/>
		</g>
	</g>
</pattern>
<g id="legs">
	<path fill="#FFFFFF" stroke="#010101" stroke-miterlimit="10" d="M62.1,68.9c0,0,3.2-1.6,4.2-1c0,0-1.5,4.6-3.5,6.3
		C62.8,74.2,62,71.7,62.1,68.9z"/>
	<path fill="#FFFFFF" stroke="#010101" stroke-miterlimit="10" d="M66.3,67.9c0,0,0.9,17.6,1.3,18.3s5.7,6,5.8,7.2
		c0,0-1.9-1.8-2.7-1.8l-4-4.8c0,0-0.6-0.3-0.5,0.5l-0.5-18.1L66.3,67.9z"/>
	<path fill="#FFFFFF" stroke="#010101" stroke-miterlimit="10" d="M37.8,69c0,0-3.2-1.6-4.2-1c0,0,1.5,4.6,3.5,6.3
		C37.2,74.3,37.9,71.9,37.8,69z"/>
	<path fill="#FFFFFF" stroke="#010101" stroke-miterlimit="10" d="M33.6,68c0,0-0.9,17.6-1.3,18.3c-0.4,0.7-5.7,6-5.8,7.2
		c0,0,1.9-1.8,2.7-1.8l3.9-4.8c0,0,0.6-0.3,0.5,0.5l0.5-18.1L33.6,68z"/>
	<path fill="#FFFFFF" stroke="#010101" stroke-miterlimit="10" d="M60.8,56c0,0,3.1-3.2,4.6-3c0,0-0.3,3.3-3.5,5.7
		c0,0,0-1.1-1.2-2.9"/>
	<path fill="#FFFFFF" stroke="#010101" stroke-miterlimit="10" d="M74.5,74.3c-0.1,1-3.9-6.7-6.7-8.3c-0.2-0.1-0.5-0.2-0.7-0.3
		l1.1-0.7c0,0-2.3-12.1-3-12c0,0,1-0.4,1.8,2.8s2.6,10.3,2.6,10.3s6.3,5.7,6.3,7.4c0,0-0.4-1.5-2.1-1.5C73.9,72,74.6,73.6,74.5,74.3
		z"/>
	<path fill="#FFFFFF" stroke="#010101" stroke-miterlimit="10" d="M39.2,55.7c0,0-3.1-3.2-4.6-3c0,0,0.3,3.3,3.6,5.7
		c0,0,0-1.1,1.2-2.9"/>
	<path fill="#FFFFFF" stroke="#010101" stroke-miterlimit="10" d="M25.5,73.9c0.1,1,3.9-6.7,6.7-8.3c0.2-0.1,0.5-0.2,0.7-0.3
		l-1.1-0.7c0,0,2.3-12.1,3-12c0,0-1-0.4-1.8,2.8s-2.6,10.3-2.6,10.3S24,71.5,24,73.2c0,0,0.4-1.5,2.1-1.5
		C26.1,71.6,25.4,73.2,25.5,73.9z"/>
	<path fill="#FFFFFF" stroke="#010101" stroke-miterlimit="10" d="M41.2,52.4"/>
	<path fill="#FFFFFF" stroke="#010101" stroke-miterlimit="10" d="M62.5,50.3c0,0,2.1-2.5,2-3.7c0,0-1.1-0.5-2,1.2V50.3z"/>
	<path fill="#FFFFFF" stroke="#010101" stroke-miterlimit="10" d="M64.5,46.5l3.2-12.7l3.8-7c0,0-0.3,0.8-1.4,1.3l-3,5.4l-3.4,13.1
		L64.5,46.5z"/>
	<path fill="#FFFFFF" stroke="#010101" stroke-miterlimit="10" d="M37.7,50.3c0,0-2.1-2.5-2-3.7c0,0,1.1-0.5,2,1.2V50.3z"/>
	<path fill="#FFFFFF" stroke="#010101" stroke-miterlimit="10" d="M35.7,46.5l-3.2-12.7l-3.8-7c0,0,0.3,0.8,1.4,1.3l3,5.4l3.4,13.1
		L35.7,46.5z"/>
</g>
<g id="basebody">
	<path fill="#FFFFFF" stroke="#000000" stroke-miterlimit="10" d="M51,90.2C66.3,86.4,62.2,66.6,62.7,56s-1.9-13.1-1.9-13.1
		c-7-1.9-10.6,5.2-10.6,5.2h-0.3c0,0-3.7-7-10.6-5.2c0,0-2.4,2.4-1.9,13.1c0.5,10.6-3.6,30.4,11.7,34.2H51z"/>
	<path fill="#FFFFFF" stroke="#010101" stroke-miterlimit="10" d="M60.6,43c0,0,2.3-17.1-10.2-16.9h-0.7C37.1,25.9,39.4,43,39.4,43
		s6.1-2.4,10.3,5.2H50C50.1,48.2,53.3,41.4,60.6,43z"/>
	<line fill="none" stroke="#010101" stroke-width="2" stroke-miterlimit="10" x1="49.9" y1="48.2" x2="49.9" y2="90.5"/>
	<path fill="#FFFFFF" stroke="#010101" stroke-miterlimit="10" d="M41.7,29.9c0,0,5.3,5.7,16.5,0"/>
</g>
<g id="bodycolor">
	<path fill="#D0DD28" stroke="#010101" stroke-miterlimit="10" d="M51,90.2C66.3,86.4,62.2,66.7,62.7,56c0.5-10.6-1.9-13-1.9-13
		c-7-1.9-10.6,5.2-10.6,5.2h-0.3c0,0-3.7-7-10.6-5.2c0,0-2.4,2.4-1.9,13.1c0.5,10.6-3.6,30.4,11.7,34.2H51V90.2z"/>
	<path fill="#6CBE45" stroke="#010101" stroke-miterlimit="10" d="M60.6,43c0,0,2.3-17.1-10.2-16.9h-0.7C37.1,25.9,39.4,43,39.4,43
		s6.1-2.4,10.3,5.2H50C50.1,48.2,53.3,41.4,60.6,43z"/>
	<line fill="none" stroke="#010101" stroke-width="2" stroke-miterlimit="10" x1="49.9" y1="48.2" x2="49.9" y2="90.6"/>
	<path fill="none" stroke="#010101" stroke-miterlimit="10" d="M41.7,29.9c0,0,5.3,5.7,16.5,0"/>
</g>
<g id="antennae">
	<path fill="none" stroke="#010101" stroke-miterlimit="10" d="M52.4,26.1c0,0,1.5-5.6,5.1-6.3c3.7-0.7,6.1-4.6,6.8-6.5"/>
	<path fill="none" stroke="#010101" stroke-miterlimit="10" d="M47,26.1c0,0-1.5-5.6-5.1-6.3c-3.7-0.7-6.1-4.6-6.8-6.5"/>
</g>
<g id="markings">
	<path fill="#010101" d="M36.8,57.4c0.5-1.1,2-2.2,3.3-2c0.4,1.2,1.4,2.9,2.9,2.8c1.2-0.1,2-1.9,3.3-2c0.2,2.4,1.8,10.4-2,8.8
		c-1.6-0.7-1.2-3.1-3.6-1c-1.4,1.2-0.6,4.3-3.4,3.8c-0.2-3.5-0.1-7-0.1-10.5"/>
	<path fill="#010101" d="M63.3,57.4c-0.5-1.1-2-2.2-3.3-2c-0.4,1.2-1.4,2.9-2.9,2.8c-1.2-0.1-2-1.9-3.3-2c-0.2,2.4-1.8,10.4,2,8.8
		c1.6-0.7,1.2-3.1,3.6-1c1.4,1.2,0.6,4.3,3.4,3.8c0.2-3.5,0.1-7,0.1-10.5"/>
</g>
<g id="dots">
	<path fill="url(#SVGID_2)" stroke="#010101" stroke-miterlimit="10" d="M50.9,90.3c15.3-3.8,11.2-23.5,11.7-34.2
		C63.1,45.5,60.7,43,60.7,43c-7-1.9-10.6,5.2-10.6,5.2h-0.3c0,0-3.7-7-10.6-5.2c0,0-2.4,2.4-1.9,13.1c0.5,10.6-3.6,30.4,11.7,34.2
		H50.9z"/>
</g>
<g id="fur">
	<g>
		<g>
			<path fill="none" stroke="#0000FF" stroke-miterlimit="10" d="M50.6,23.4"/>
		</g>
	</g>
	<g>
		<g>
			<g>
				<g>
					<path fill="none" stroke="#0000FF" stroke-miterlimit="10" d="M61.4,42.1L61.4,42.1C61.4,42.2,61.4,42.2,61.4,42.1
						c0,0.2-0.1,0.3-0.1,0.4c-0.1,0.1-0.1,0.2-0.1,0.3c-0.1,0.2-0.2,0.3-0.3,0.5c0,0,0.3,0,0.7,0c0.3,0,0.7,0.1,0.7,0.1"/>
				</g>
				<g>
					<path fill="none" stroke="#0000FF" stroke-miterlimit="10" d="M62.4,43.5c0,0-0.2,0.2-0.4,0.5c-0.2,0.2-0.4,0.4-0.4,0.4
						s0.3,0.1,0.7,0.1s0.7,0.2,0.7,0.2"/>
				</g>
				<g>
					<path fill="none" stroke="#0000FF" stroke-miterlimit="10" d="M62.9,44.9c0,0-0.2,0.2-0.5,0.4s-0.5,0.4-0.5,0.4
						s0.3,0.1,0.6,0.2c0.3,0.1,0.6,0.2,0.6,0.2"/>
				</g>
				<g>
					<path fill="none" stroke="#0000FF" stroke-miterlimit="10" d="M63.3,46.4c0,0-0.3,0.2-0.5,0.4c-0.3,0.2-0.5,0.4-0.5,0.4
						s0.3,0.1,0.6,0.2c0.3,0.1,0.6,0.3,0.6,0.3"/>
				</g>
				<g>
					<path fill="none" stroke="#0000FF" stroke-miterlimit="10" d="M63.5,47.8c0,0-0.3,0.2-0.5,0.3c-0.3,0.2-0.5,0.3-0.5,0.3
						s0.3,0.1,0.6,0.3s0.6,0.3,0.6,0.3"/>
				</g>
				<g>
					<path fill="none" stroke="#0000FF" stroke-miterlimit="10" d="M63.7,49.3c0,0-0.3,0.2-0.6,0.3c-0.3,0.2-0.6,0.3-0.6,0.3
						s0.3,0.2,0.6,0.3c0.3,0.2,0.6,0.3,0.6,0.3"/>
				</g>
				<g>
					<path fill="none" stroke="#0000FF" stroke-miterlimit="10" d="M63.7,50.7c0,0-0.3,0.2-0.6,0.3s-0.6,0.3-0.6,0.3
						s0.3,0.2,0.6,0.3c0.3,0.2,0.6,0.3,0.6,0.3"/>
				</g>
				<g>
					<path fill="none" stroke="#0000FF" stroke-miterlimit="10" d="M63.8,52.2c0,0-0.3,0.1-0.6,0.3c-0.3,0.1-0.6,0.3-0.6,0.3
						s0.3,0.2,0.6,0.3c0.3,0.2,0.6,0.3,0.6,0.3"/>
				</g>
				<g>
					<path fill="none" stroke="#0000FF" stroke-miterlimit="10" d="M63.8,53.6l-1.2,0.5c0,0,0.3,0.2,0.6,0.4s0.6,0.4,0.6,0.4"/>
				</g>
				<g>
					<polyline fill="none" stroke="#0000FF" stroke-miterlimit="10" points="63.8,55.1 62.6,55.5 63.7,56.2 					"/>
				</g>
				<g>
					<path fill="none" stroke="#0000FF" stroke-miterlimit="10" d="M63.7,56.5c0,0-0.3,0.1-0.6,0.2c-0.3,0.1-0.6,0.2-0.6,0.2
						s0.3,0.2,0.6,0.4s0.6,0.3,0.6,0.3"/>
				</g>
				<g>
					<polyline fill="none" stroke="#0000FF" stroke-miterlimit="10" points="63.7,57.9 62.5,58.4 63.7,59.1 					"/>
				</g>
				<g>
					<polyline fill="none" stroke="#0000FF" stroke-miterlimit="10" points="63.7,59.3 62.5,59.8 63.7,60.5 					"/>
				</g>
				<g>
					<polyline fill="none" stroke="#0000FF" stroke-miterlimit="10" points="63.7,60.7 62.6,61.3 63.7,61.9 					"/>
				</g>
				<g>
					<polyline fill="none" stroke="#0000FF" stroke-miterlimit="10" points="63.8,62.1 62.6,62.7 63.8,63.3 					"/>
				</g>
				<g>
					<polyline fill="none" stroke="#0000FF" stroke-miterlimit="10" points="63.8,63.6 62.7,64.1 63.8,64.8 					"/>
				</g>
				<g>
					<polyline fill="none" stroke="#0000FF" stroke-miterlimit="10" points="63.8,65 62.7,65.5 63.9,66.2 					"/>
				</g>
				<g>
					<polyline fill="none" stroke="#0000FF" stroke-miterlimit="10" points="63.9,66.4 62.7,66.9 63.9,67.6 					"/>
				</g>
				<g>
					<polyline fill="none" stroke="#0000FF" stroke-miterlimit="10" points="63.9,67.9 62.7,68.3 63.9,69 					"/>
				</g>
				<g>
					<polyline fill="none" stroke="#0000FF" stroke-miterlimit="10" points="63.9,69.3 62.7,69.8 63.8,70.5 					"/>
				</g>
				<g>
					<path fill="none" stroke="#0000FF" stroke-miterlimit="10" d="M63.8,70.7l-1.2,0.5c0,0,0.3,0.2,0.6,0.4
						c0.3,0.2,0.6,0.4,0.6,0.4"/>
				</g>
				<g>
					<path fill="none" stroke="#0000FF" stroke-miterlimit="10" d="M63.8,72.2l-1.2,0.4c0,0,0.3,0.2,0.6,0.4
						c0.3,0.2,0.5,0.4,0.5,0.4"/>
				</g>
				<g>
					<path fill="none" stroke="#0000FF" stroke-miterlimit="10" d="M63.7,73.6c0,0-0.3,0.1-0.6,0.2S62.5,74,62.5,74s0.3,0.2,0.5,0.4
						c0.3,0.2,0.5,0.4,0.5,0.4"/>
				</g>
				<g>
					<path fill="none" stroke="#0000FF" stroke-miterlimit="10" d="M63.5,75c0,0-0.3,0.1-0.6,0.2s-0.6,0.2-0.6,0.2s0.3,0.2,0.5,0.4
						c0.3,0.2,0.5,0.4,0.5,0.4"/>
				</g>
				<g>
					<path fill="none" stroke="#0000FF" stroke-miterlimit="10" d="M63.3,76.5c0,0-0.3,0.1-0.6,0.2s-0.6,0.2-0.6,0.2
						s0.3,0.2,0.5,0.4c0.3,0.2,0.5,0.5,0.5,0.5"/>
				</g>
				<g>
					<path fill="none" stroke="#0000FF" stroke-miterlimit="10" d="M63,77.9c0,0-0.3,0.1-0.6,0.1c-0.3,0.1-0.6,0.1-0.6,0.1
						s0.2,0.2,0.5,0.5c0.2,0.2,0.5,0.5,0.5,0.5"/>
				</g>
				<g>
					<path fill="none" stroke="#0000FF" stroke-miterlimit="10" d="M62.7,79.3c0,0-0.3,0.1-0.6,0.1c-0.3,0.1-0.6,0.1-0.6,0.1
						s0.2,0.2,0.5,0.5c0.2,0.3,0.4,0.5,0.4,0.5"/>
				</g>
				<g>
					<path fill="none" stroke="#0000FF" stroke-miterlimit="10" d="M62.3,80.7c0,0-0.3,0-0.6,0.1c-0.3,0-0.6,0.1-0.6,0.1
						s0.2,0.3,0.4,0.5s0.4,0.5,0.4,0.5"/>
				</g>
				<g>
					<path fill="none" stroke="#0000FF" stroke-miterlimit="10" d="M61.8,82.1c0,0-0.3,0-0.6,0s-0.6,0-0.6,0s0.2,0.3,0.4,0.5
						c0.2,0.3,0.4,0.6,0.4,0.6"/>
				</g>
				<g>
					<path fill="none" stroke="#0000FF" stroke-miterlimit="10" d="M61.1,83.5c0,0-0.3,0-0.6-0.1c-0.3,0-0.6-0.1-0.6-0.1
						s0.2,0.3,0.3,0.6c0.2,0.3,0.3,0.6,0.3,0.6"/>
				</g>
				<g>
					<path fill="none" stroke="#0000FF" stroke-miterlimit="10" d="M60.4,84.8c0,0-0.3-0.1-0.6-0.1c-0.3-0.1-0.6-0.1-0.6-0.1
						s0.2,0.3,0.3,0.6c0.1,0.3,0.3,0.6,0.3,0.6"/>
				</g>
				<g>
					<path fill="none" stroke="#0000FF" stroke-miterlimit="10" d="M59.5,86c0,0-0.3-0.1-0.6-0.2s-0.6-0.2-0.6-0.2s0.1,0.3,0.2,0.6
						c0.1,0.3,0.2,0.6,0.2,0.6"/>
				</g>
				<g>
					<path fill="none" stroke="#0000FF" stroke-miterlimit="10" d="M58.5,87.1c0,0-0.3-0.1-0.6-0.2s-0.6-0.2-0.6-0.2
						s0.1,0.3,0.2,0.6c0.1,0.3,0.1,0.7,0.1,0.7"/>
				</g>
				<g>
					<path fill="none" stroke="#0000FF" stroke-miterlimit="10" d="M57.4,88.1c0,0-0.3-0.1-0.6-0.3c-0.3-0.2-0.6-0.3-0.6-0.3
						s0.1,0.3,0.1,0.7s0.1,0.7,0.1,0.7"/>
				</g>
				<g>
					<path fill="none" stroke="#0000FF" stroke-miterlimit="10" d="M56.2,89c0,0-0.3-0.2-0.5-0.3c-0.3-0.2-0.5-0.4-0.5-0.4
						s0,0.3,0,0.7c0,0.3,0,0.7,0,0.7"/>
				</g>
				<g>
					<path fill="none" stroke="#0000FF" stroke-miterlimit="10" d="M54.9,89.7c0,0-0.3-0.2-0.5-0.4c-0.2-0.2-0.5-0.4-0.5-0.4
						s0,0.3-0.1,0.7s-0.1,0.7-0.1,0.7"/>
				</g>
				<g>
					<path fill="none" stroke="#0000FF" stroke-miterlimit="10" d="M53.6,90.3c0,0-0.2-0.2-0.5-0.4c-0.2-0.2-0.4-0.5-0.4-0.5
						s-0.1,0.3-0.1,0.7c-0.1,0.3-0.2,0.7-0.2,0.7"/>
				</g>
				<g>
					<path fill="none" stroke="#0000FF" stroke-miterlimit="10" d="M52.2,90.8c0,0-0.2-0.2-0.4-0.5c-0.2-0.2-0.4-0.5-0.4-0.5
						s0,0.1-0.1,0.2s-0.1,0.3-0.1,0.4c-0.1,0.2-0.1,0.3-0.2,0.4S50.9,91,50.9,91"/>
				</g>
				<g>
					<path fill="none" stroke="#0000FF" stroke-miterlimit="10" d="M50.6,91.1c0,0-0.2-0.3-0.3-0.6S50,89.9,50,89.9
						s-0.2,0.3-0.3,0.6c-0.2,0.3-0.3,0.6-0.3,0.6"/>
				</g>
				<g>
					<path fill="none" stroke="#0000FF" stroke-miterlimit="10" d="M49.1,91.1c0,0,0-0.1-0.1-0.2c0-0.1-0.2-0.3-0.2-0.4
						c-0.1-0.2-0.1-0.3-0.1-0.4s0-0.2,0-0.2s-0.2,0.2-0.5,0.5c-0.2,0.2-0.5,0.5-0.5,0.5"/>
				</g>
				<g>
					<path fill="none" stroke="#0000FF" stroke-miterlimit="10" d="M47.6,90.8c0,0-0.1-0.3-0.1-0.6c0-0.3-0.1-0.6-0.1-0.6
						s-0.3,0.2-0.5,0.4c-0.3,0.2-0.5,0.4-0.5,0.4"/>
				</g>
				<g>
					<path fill="none" stroke="#0000FF" stroke-miterlimit="10" d="M46.1,90.2c0,0,0-0.3,0-0.6c0-0.3,0-0.6,0-0.6s-0.3,0.2-0.5,0.4
						c-0.3,0.2-0.6,0.4-0.6,0.4"/>
				</g>
				<g>
					<path fill="none" stroke="#0000FF" stroke-miterlimit="10" d="M44.8,89.6c0,0,0-0.3,0.1-0.6c0-0.3,0.1-0.6,0.1-0.6
						s-0.3,0.2-0.6,0.3C44,88.8,43.7,89,43.7,89"/>
				</g>
				<g>
					<path fill="none" stroke="#0000FF" stroke-miterlimit="10" d="M43.5,88.8c0,0,0.1-0.3,0.1-0.6c0.1-0.3,0.1-0.6,0.1-0.6
						s-0.3,0.1-0.6,0.3s-0.6,0.2-0.6,0.2"/>
				</g>
				<g>
					<path fill="none" stroke="#0000FF" stroke-miterlimit="10" d="M42.3,87.9c0,0,0.1-0.3,0.2-0.6c0.1-0.3,0.2-0.6,0.2-0.6
						s-0.3,0.1-0.6,0.2C41.7,87,41.4,87,41.4,87"/>
				</g>
				<g>
					<path fill="none" stroke="#0000FF" stroke-miterlimit="10" d="M41.3,86.9c0,0,0.1-0.3,0.3-0.6c0.1-0.3,0.3-0.6,0.3-0.6
						s-0.3,0.1-0.7,0.1c-0.3,0.1-0.7,0.1-0.7,0.1"/>
				</g>
				<g>
					<path fill="none" stroke="#0000FF" stroke-miterlimit="10" d="M40.3,85.7c0,0,0.2-0.3,0.3-0.6c0.2-0.3,0.3-0.5,0.3-0.5
						s-0.3,0-0.7,0.1c-0.3,0-0.7,0-0.7,0"/>
				</g>
				<g>
					<path fill="none" stroke="#0000FF" stroke-miterlimit="10" d="M39.5,84.5c0,0,0.2-0.3,0.4-0.5c0.2-0.3,0.4-0.5,0.4-0.5
						s-0.3,0-0.7,0s-0.7-0.1-0.7-0.1"/>
				</g>
				<g>
					<path fill="none" stroke="#0000FF" stroke-miterlimit="10" d="M38.7,83.2c0,0,0.2-0.3,0.4-0.5s0.4-0.5,0.4-0.5s-0.3,0-0.7-0.1
						C38.5,82,38.1,82,38.1,82"/>
				</g>
				<g>
					<path fill="none" stroke="#0000FF" stroke-miterlimit="10" d="M38.1,81.9c0,0,0.2-0.2,0.4-0.5C38.8,81.2,39,81,39,81
						s-0.3-0.1-0.7-0.1s-0.7-0.1-0.7-0.1"/>
				</g>
				<g>
					<path fill="none" stroke="#0000FF" stroke-miterlimit="10" d="M37.6,80.5c0,0,0.2-0.2,0.5-0.4c0.2-0.2,0.5-0.4,0.5-0.4
						s-0.3-0.1-0.6-0.2s-0.6-0.2-0.6-0.2"/>
				</g>
				<g>
					<path fill="none" stroke="#0000FF" stroke-miterlimit="10" d="M37.2,79.1c0,0,0.3-0.2,0.5-0.4c0.3-0.2,0.5-0.4,0.5-0.4
						s-0.3-0.1-0.6-0.2S37,77.9,37,77.9"/>
				</g>
				<g>
					<path fill="none" stroke="#0000FF" stroke-miterlimit="10" d="M36.9,77.6c0,0,0.3-0.2,0.5-0.4c0.3-0.2,0.5-0.4,0.5-0.4
						s-0.3-0.1-0.6-0.2s-0.6-0.3-0.6-0.3"/>
				</g>
				<g>
					<path fill="none" stroke="#0000FF" stroke-miterlimit="10" d="M36.6,76.2c0,0,0.3-0.2,0.5-0.3c0.3-0.2,0.5-0.3,0.5-0.3
						s-0.3-0.1-0.6-0.3c-0.3-0.1-0.6-0.3-0.6-0.3"/>
				</g>
				<g>
					<path fill="none" stroke="#0000FF" stroke-miterlimit="10" d="M36.4,74.8c0,0,0.3-0.2,0.5-0.3c0.3-0.2,0.5-0.3,0.5-0.3
						s-0.3-0.1-0.6-0.3c-0.3-0.2-0.6-0.3-0.6-0.3"/>
				</g>
				<g>
					<path fill="none" stroke="#0000FF" stroke-miterlimit="10" d="M36.3,73.3c0,0,0.3-0.2,0.6-0.3c0.3-0.2,0.6-0.3,0.6-0.3
						s-0.3-0.2-0.6-0.3c-0.3-0.2-0.6-0.3-0.6-0.3"/>
				</g>
				<g>
					<path fill="none" stroke="#0000FF" stroke-miterlimit="10" d="M36.2,71.9c0,0,0.3-0.2,0.6-0.3c0.3-0.1,0.6-0.3,0.6-0.3
						S37,71.2,36.7,71s-0.6-0.3-0.6-0.3"/>
				</g>
				<g>
					<polyline fill="none" stroke="#0000FF" stroke-miterlimit="10" points="36.1,70.5 37.3,69.9 36.1,69.3 					"/>
				</g>
				<g>
					<polyline fill="none" stroke="#0000FF" stroke-miterlimit="10" points="36.1,69 37.3,68.5 36.1,67.8 					"/>
				</g>
				<g>
					<polyline fill="none" stroke="#0000FF" stroke-miterlimit="10" points="36.1,67.6 37.3,67.1 36.1,66.4 					"/>
				</g>
				<g>
					<polyline fill="none" stroke="#0000FF" stroke-miterlimit="10" points="36.1,66.2 37.3,65.6 36.1,64.9 					"/>
				</g>
				<g>
					<polyline fill="none" stroke="#0000FF" stroke-miterlimit="10" points="36.2,64.7 37.3,64.2 36.2,63.5 					"/>
				</g>
				<g>
					<polyline fill="none" stroke="#0000FF" stroke-miterlimit="10" points="36.2,63.3 37.4,62.8 36.2,62.1 					"/>
				</g>
				<g>
					<polyline fill="none" stroke="#0000FF" stroke-miterlimit="10" points="36.2,61.9 37.4,61.4 36.3,60.7 					"/>
				</g>
				<g>
					<polyline fill="none" stroke="#0000FF" stroke-miterlimit="10" points="36.3,60.4 37.4,60 36.3,59.3 					"/>
				</g>
				<g>
					<polyline fill="none" stroke="#0000FF" stroke-miterlimit="10" points="36.3,59 37.4,58.5 36.3,57.8 					"/>
				</g>
				<g>
					<path fill="none" stroke="#0000FF" stroke-miterlimit="10" d="M36.3,57.6l1.2-0.5c0,0-0.3-0.2-0.6-0.3
						c-0.3-0.2-0.6-0.3-0.6-0.3"/>
				</g>
				<g>
					<path fill="none" stroke="#0000FF" stroke-miterlimit="10" d="M36.3,56.2l1.1-0.6c0,0-0.3-0.2-0.6-0.3
						c-0.3-0.2-0.6-0.3-0.6-0.3"/>
				</g>
				<g>
					<path fill="none" stroke="#0000FF" stroke-miterlimit="10" d="M36.2,54.8l1.2-0.5c0,0-0.3-0.2-0.6-0.3
						c-0.3-0.2-0.6-0.3-0.6-0.3"/>
				</g>
				<g>
					<path fill="none" stroke="#0000FF" stroke-miterlimit="10" d="M36.2,53.4c0,0,0.3-0.1,0.6-0.3c0.3-0.1,0.6-0.3,0.6-0.3
						s-0.3-0.2-0.6-0.3c-0.3-0.2-0.6-0.4-0.6-0.4"/>
				</g>
				<g>
					<path fill="none" stroke="#0000FF" stroke-miterlimit="10" d="M36.2,51.9c0,0,0.3-0.1,0.6-0.2c0.3-0.1,0.6-0.2,0.6-0.2
						s-0.3-0.2-0.6-0.4s-0.6-0.4-0.6-0.4"/>
				</g>
				<g>
					<path fill="none" stroke="#0000FF" stroke-miterlimit="10" d="M36.2,50.5c0,0,0.3-0.1,0.6-0.2c0.3-0.1,0.6-0.2,0.6-0.2
						s-0.3-0.2-0.5-0.4c-0.3-0.2-0.5-0.4-0.5-0.4"/>
				</g>
				<g>
					<path fill="none" stroke="#0000FF" stroke-miterlimit="10" d="M36.4,49c0,0,0.3-0.1,0.6-0.2c0.3-0.1,0.6-0.2,0.6-0.2
						s-0.3-0.2-0.5-0.4c-0.3-0.2-0.5-0.4-0.5-0.4"/>
				</g>
				<g>
					<path fill="none" stroke="#0000FF" stroke-miterlimit="10" d="M36.5,47.6c0,0,0.3-0.1,0.6-0.2c0.3-0.1,0.6-0.2,0.6-0.2
						s-0.3-0.2-0.5-0.4s-0.5-0.5-0.5-0.5"/>
				</g>
				<g>
					<path fill="none" stroke="#0000FF" stroke-miterlimit="10" d="M36.8,46.1c0,0,0.3-0.1,0.6-0.1c0.3-0.1,0.6-0.1,0.6-0.1
						s-0.2-0.2-0.5-0.5c-0.2-0.2-0.5-0.5-0.5-0.5"/>
				</g>
				<g>
					<path fill="none" stroke="#0000FF" stroke-miterlimit="10" d="M37.2,44.7c0,0,0.3-0.1,0.6-0.1s0.6-0.1,0.6-0.1S38.2,44.3,38,44
						s-0.4-0.5-0.4-0.5"/>
				</g>
				<g>
					<path fill="none" stroke="#0000FF" stroke-miterlimit="10" d="M37.7,43.3c0,0,0.3,0,0.6,0s0.6,0.1,0.6,0.1
						c-0.1-0.2-0.2-0.4-0.3-0.6c-0.1-0.1-0.1-0.2-0.1-0.3s-0.1-0.2-0.1-0.4h0.2l-0.1-0.2"/>
				</g>
			</g>
		</g>
	</g>
	<g>
		<g>
			<g>
				<g>
					<path fill="none" stroke="#0000FF" stroke-miterlimit="10" d="M38.3,42.5c0,0,0.3-0.2,0.6-0.3c0.3-0.2,0.6-0.3,0.6-0.3
						s-0.3-0.2-0.6-0.3c-0.3-0.2-0.6-0.3-0.6-0.3"/>
				</g>
				<g>
					<path fill="none" stroke="#0000FF" stroke-miterlimit="10" d="M38.3,41c0,0,0.3-0.1,0.6-0.3c0.3-0.1,0.6-0.3,0.6-0.3
						s-0.3-0.2-0.6-0.3c-0.2-0.1-0.3-0.2-0.4-0.2c-0.1-0.1-0.2-0.1-0.2-0.1"/>
				</g>
				<g>
					<path fill="none" stroke="#0000FF" stroke-miterlimit="10" d="M38.2,39.5c0,0,0.3-0.1,0.6-0.3c0.3-0.1,0.6-0.2,0.6-0.2
						s-0.3-0.2-0.6-0.4s-0.6-0.4-0.6-0.4"/>
				</g>
				<g>
					<path fill="none" stroke="#0000FF" stroke-miterlimit="10" d="M38.3,38c0,0,0.3-0.1,0.6-0.2c0.3-0.1,0.6-0.2,0.6-0.2
						s-0.3-0.2-0.5-0.4c-0.3-0.2-0.5-0.4-0.5-0.4"/>
				</g>
				<g>
					<path fill="none" stroke="#0000FF" stroke-miterlimit="10" d="M38.4,36.6c0,0,0.3-0.1,0.6-0.2c0.3-0.1,0.6-0.2,0.6-0.2
						s-0.3-0.2-0.5-0.4s-0.5-0.4-0.5-0.4"/>
				</g>
				<g>
					<path fill="none" stroke="#0000FF" stroke-miterlimit="10" d="M38.7,35.1c0,0,0.3-0.1,0.6-0.2c0.3-0.1,0.6-0.1,0.6-0.1
						s-0.3-0.2-0.5-0.5c-0.2-0.2-0.5-0.5-0.5-0.5"/>
				</g>
				<g>
					<path fill="none" stroke="#0000FF" stroke-miterlimit="10" d="M39,33.6c0,0,0.3-0.1,0.6-0.1c0.3-0.1,0.6-0.1,0.6-0.1
						s-0.2-0.2-0.4-0.5s-0.4-0.5-0.4-0.5"/>
				</g>
				<g>
					<path fill="none" stroke="#0000FF" stroke-miterlimit="10" d="M39.5,32.2c0,0,0.3,0,0.6-0.1c0.3,0,0.6,0,0.6,0
						s-0.2-0.3-0.4-0.5c-0.1-0.1-0.2-0.3-0.3-0.4c0-0.1,0-0.2,0-0.2"/>
				</g>
				<g>
					<path fill="none" stroke="#0000FF" stroke-miterlimit="10" d="M40,30.8c0,0,0.3,0,0.6,0s0.6,0.1,0.6,0.1s-0.2-0.3-0.3-0.6
						c-0.2-0.3-0.3-0.6-0.3-0.6"/>
				</g>
				<g>
					<path fill="none" stroke="#0000FF" stroke-miterlimit="10" d="M40.8,29.4c0,0,0.3,0.1,0.6,0.1c0.3,0.1,0.6,0.1,0.6,0.1
						s0-0.1-0.1-0.2s-0.1-0.3-0.2-0.4c-0.1-0.3-0.2-0.6-0.2-0.6"/>
				</g>
				<g>
					<path fill="none" stroke="#0000FF" stroke-miterlimit="10" d="M41.8,28.2c0,0,0.3,0.1,0.6,0.2s0.6,0.2,0.6,0.2
						s-0.1-0.3-0.2-0.7c-0.1-0.3-0.1-0.7-0.1-0.7"/>
				</g>
				<g>
					<path fill="none" stroke="#0000FF" stroke-miterlimit="10" d="M42.9,27.2c0,0,0.3,0.1,0.6,0.3c0.1,0.1,0.3,0.2,0.4,0.2
						c0.1,0.1,0.2,0.1,0.2,0.1s0-0.3,0-0.7c0-0.3,0-0.7,0-0.7"/>
				</g>
				<g>
					<path fill="none" stroke="#0000FF" stroke-miterlimit="10" d="M44.2,26.3c0,0,0.3,0.2,0.5,0.4c0.3,0.2,0.5,0.4,0.5,0.4
						s0-0.3,0.1-0.7c0.1-0.3,0.1-0.7,0.1-0.7"/>
				</g>
				<g>
					<path fill="none" stroke="#0000FF" stroke-miterlimit="10" d="M45.7,25.7c0,0,0.2,0.2,0.4,0.5c0.1,0.1,0.2,0.2,0.3,0.3
						s0.1,0.2,0.1,0.2s0.1-0.3,0.2-0.6c0.1-0.3,0.2-0.6,0.2-0.6"/>
				</g>
				<g>
					<path fill="none" stroke="#0000FF" stroke-miterlimit="10" d="M47.2,25.3c0,0,0.2,0.3,0.4,0.5c0.2,0.3,0.3,0.5,0.3,0.5
						s0.1-0.3,0.3-0.6c0.1-0.2,0.2-0.3,0.2-0.4c0.1-0.1,0.1-0.2,0.1-0.2"/>
				</g>
				<g>
					<path fill="none" stroke="#0000FF" stroke-miterlimit="10" d="M48.7,25.1c0,0,0.2,0.3,0.3,0.6c0.2,0.3,0.3,0.6,0.3,0.6
						s0.1-0.1,0.1-0.2c0.1-0.1,0.2-0.3,0.2-0.4C49.8,25.3,50,25,50,25"/>
				</g>
				<g>
					<path fill="none" stroke="#0000FF" stroke-miterlimit="10" d="M50.2,25.1c0,0,0.1,0.3,0.3,0.6c0.1,0.3,0.3,0.6,0.3,0.6
						s0.2-0.3,0.4-0.6c0.2-0.3,0.4-0.6,0.4-0.6"/>
				</g>
				<g>
					<path fill="none" stroke="#0000FF" stroke-miterlimit="10" d="M51.7,25.1c0,0,0,0.1,0.1,0.2s0.1,0.3,0.2,0.4
						c0.1,0.3,0.2,0.6,0.2,0.6s0.2-0.3,0.4-0.5c0.1-0.1,0.2-0.3,0.3-0.4s0.2-0.2,0.2-0.2"/>
				</g>
				<g>
					<path fill="none" stroke="#0000FF" stroke-miterlimit="10" d="M53.2,25.3c0,0,0.1,0.3,0.1,0.6c0.1,0.3,0.1,0.6,0.1,0.6
						s0.1-0.1,0.2-0.2c0.1-0.1,0.2-0.2,0.3-0.3c0.3-0.2,0.5-0.4,0.5-0.4"/>
				</g>
				<g>
					<path fill="none" stroke="#0000FF" stroke-miterlimit="10" d="M54.7,25.8c0,0,0,0.3,0.1,0.6c0,0.3,0,0.6,0,0.6s0.3-0.2,0.6-0.4
						c0.3-0.2,0.6-0.4,0.6-0.4"/>
				</g>
				<g>
					<path fill="none" stroke="#0000FF" stroke-miterlimit="10" d="M56.1,26.4c0,0,0,0.3-0.1,0.6s-0.1,0.6-0.1,0.6s0.1,0,0.2-0.1
						c0.1-0.1,0.3-0.1,0.4-0.2c0.3-0.1,0.6-0.2,0.6-0.2"/>
				</g>
				<g>
					<path fill="none" stroke="#0000FF" stroke-miterlimit="10" d="M57.4,27.4c0,0-0.1,0.3-0.2,0.6c-0.1,0.2-0.1,0.3-0.1,0.4
						C57,28.5,57,28.6,57,28.6s0.3-0.1,0.6-0.2s0.7-0.1,0.7-0.1"/>
				</g>
				<g>
					<path fill="none" stroke="#0000FF" stroke-miterlimit="10" d="M58.5,28.5c0,0-0.1,0.3-0.3,0.6c-0.2,0.3-0.3,0.6-0.3,0.6
						s0.3-0.1,0.7-0.1c0.2,0,0.3,0,0.5,0c0.1,0,0.2,0,0.2,0"/>
				</g>
				<g>
					<path fill="none" stroke="#0000FF" stroke-miterlimit="10" d="M59.4,29.7c0,0-0.2,0.3-0.4,0.5c-0.2,0.3-0.4,0.5-0.4,0.5
						s0.3,0,0.7,0c0.2,0,0.3,0,0.5,0c0.1,0,0.2,0,0.2,0"/>
				</g>
				<g>
					<path fill="none" stroke="#0000FF" stroke-miterlimit="10" d="M60.1,31.1c0,0-0.2,0.3-0.4,0.5s-0.4,0.5-0.4,0.5
						s0.3,0.1,0.7,0.1c0.3,0.1,0.7,0.1,0.7,0.1"/>
				</g>
				<g>
					<path fill="none" stroke="#0000FF" stroke-miterlimit="10" d="M60.7,32.5c0,0-0.2,0.2-0.5,0.4c-0.2,0.2-0.5,0.4-0.5,0.4
						s0.3,0.1,0.6,0.2c0.3,0.1,0.7,0.2,0.7,0.2"/>
				</g>
				<g>
					<path fill="none" stroke="#0000FF" stroke-miterlimit="10" d="M61.1,33.9c0,0-0.3,0.2-0.5,0.4c-0.3,0.2-0.5,0.4-0.5,0.4
						s0.3,0.1,0.6,0.2c0.3,0.1,0.6,0.2,0.6,0.2"/>
				</g>
				<g>
					<path fill="none" stroke="#0000FF" stroke-miterlimit="10" d="M61.4,35.4c0,0-0.3,0.2-0.5,0.4c-0.3,0.2-0.5,0.3-0.5,0.3
						s0.3,0.1,0.6,0.3c0.3,0.1,0.6,0.3,0.6,0.3"/>
				</g>
				<g>
					<path fill="none" stroke="#0000FF" stroke-miterlimit="10" d="M61.6,36.9c0,0-0.3,0.2-0.5,0.3c-0.3,0.2-0.5,0.3-0.5,0.3
						s0.3,0.2,0.6,0.3c0.3,0.2,0.6,0.3,0.6,0.3"/>
				</g>
				<g>
					<path fill="none" stroke="#0000FF" stroke-miterlimit="10" d="M61.7,38.3c0,0-0.3,0.2-0.6,0.3c-0.3,0.2-0.6,0.3-0.6,0.3
						s0.3,0.2,0.6,0.3c0.3,0.2,0.6,0.3,0.6,0.3"/>
				</g>
				<g>
					<path fill="none" stroke="#0000FF" stroke-miterlimit="10" d="M61.8,39.8c0,0-0.3,0.1-0.6,0.3c-0.3,0.1-0.6,0.3-0.6,0.3
						s0.3,0.2,0.6,0.4s0.6,0.4,0.6,0.4"/>
				</g>
				<g>
					<path fill="none" stroke="#0000FF" stroke-miterlimit="10" d="M61.8,41.3c0,0-0.3,0.1-0.6,0.2s-0.6,0.2-0.6,0.2
						s0.3,0.2,0.5,0.4c0.3,0.2,0.5,0.4,0.5,0.4"/>
				</g>
				<g>
					<path fill="none" stroke="#0000FF" stroke-miterlimit="10" d="M59.9,43.9c0,0-0.1-0.3-0.2-0.6c-0.1-0.3-0.2-0.6-0.2-0.6
						s-0.1,0.1-0.1,0.2c-0.1,0.1-0.2,0.2-0.3,0.4c-0.2,0.3-0.4,0.6-0.4,0.6"/>
				</g>
				<g>
					<path fill="none" stroke="#0000FF" stroke-miterlimit="10" d="M58.5,43.8c0,0-0.1-0.3-0.3-0.6c0-0.2-0.2-0.5-0.2-0.5
						s-0.2,0.3-0.3,0.6c-0.1,0.2-0.1,0.3-0.2,0.4c-0.1,0.1-0.1,0.2-0.1,0.2"/>
				</g>
				<g>
					<path fill="none" stroke="#0000FF" stroke-miterlimit="10" d="M57.2,43.9c0,0-0.2-0.3-0.3-0.5s-0.4-0.5-0.4-0.5s0,0.1-0.1,0.2
						c-0.1,0.1-0.1,0.3-0.1,0.5c-0.1,0.3-0.2,0.6-0.2,0.6"/>
				</g>
				<g>
					<path fill="none" stroke="#0000FF" stroke-miterlimit="10" d="M56,44.2c0,0-0.1-0.1-0.1-0.2c-0.1-0.1-0.2-0.2-0.3-0.3
						c-0.2-0.2-0.5-0.4-0.5-0.4S55,43.7,55,44c0,0.2,0,0.3,0,0.5s0,0.2,0,0.2"/>
				</g>
				<g>
					<path fill="none" stroke="#0000FF" stroke-miterlimit="10" d="M54.8,44.8c0,0-0.3-0.2-0.5-0.4c-0.3-0.2-0.5-0.3-0.5-0.3
						s0,0.3,0,0.7c0,0.2,0,0.3,0.1,0.5c0,0.1,0,0.2,0,0.2"/>
				</g>
				<g>
					<path fill="none" stroke="#0000FF" stroke-miterlimit="10" d="M53.6,45.5c0,0-0.3-0.2-0.6-0.3c-0.3-0.2-0.6-0.3-0.6-0.3
						s0.1,0.3,0.1,0.7c0,0.2,0.1,0.3,0.1,0.4c0,0.1,0.1,0.2,0.1,0.2"/>
				</g>
				<g>
					<path fill="none" stroke="#0000FF" stroke-miterlimit="10" d="M52.7,46.4c0,0-0.3-0.1-0.6-0.2c-0.3-0.1-0.6-0.2-0.6-0.2
						s0.1,0.3,0.2,0.6c0.1,0.2,0.1,0.3,0.2,0.4c0.1,0.1,0.1,0.2,0.1,0.2"/>
				</g>
				<g>
					<path fill="none" stroke="#0000FF" stroke-miterlimit="10" d="M51.8,47.5c0,0-0.3-0.1-0.6-0.1c-0.3-0.1-0.6-0.1-0.6-0.1
						s0.2,0.3,0.3,0.6s0.3,0.6,0.3,0.6"/>
				</g>
				<g>
					<polyline fill="none" stroke="#0000FF" stroke-miterlimit="10" points="49.9,49.3 49.9,48.1 50,49.3 					"/>
				</g>
				<g>
					<path fill="none" stroke="#0000FF" stroke-miterlimit="10" d="M48.7,48.4c0,0,0.2-0.3,0.4-0.5c0.2-0.3,0.4-0.5,0.4-0.5
						s-0.1,0-0.2,0s-0.3,0-0.5,0c-0.3,0-0.7,0.1-0.7,0.1"/>
				</g>
				<g>
					<path fill="none" stroke="#0000FF" stroke-miterlimit="10" d="M48,47.3c0,0,0.2-0.3,0.3-0.5s0.3-0.6,0.3-0.6s-0.3,0-0.7,0.1
						c-0.3,0.1-0.7,0.1-0.7,0.1"/>
				</g>
				<g>
					<path fill="none" stroke="#0000FF" stroke-miterlimit="10" d="M47.1,46.3c0,0,0-0.1,0.1-0.2c0.1-0.1,0.1-0.3,0.2-0.4
						c0.1-0.3,0.2-0.6,0.2-0.6s-0.3,0.1-0.6,0.2c-0.3,0.1-0.6,0.2-0.6,0.2"/>
				</g>
				<g>
					<path fill="none" stroke="#0000FF" stroke-miterlimit="10" d="M46.1,45.4c0,0,0.1-0.3,0.2-0.6c0.1-0.3,0.1-0.6,0.1-0.6
						s-0.1,0-0.2,0.1c-0.1,0.1-0.3,0.1-0.4,0.2c-0.3,0.2-0.6,0.3-0.6,0.3"/>
				</g>
				<g>
					<path fill="none" stroke="#0000FF" stroke-miterlimit="10" d="M45,44.6c0,0,0.1-0.3,0.1-0.6s0-0.6,0-0.6s-0.3,0.2-0.6,0.4
						S44,44.2,44,44.2"/>
				</g>
				<g>
					<path fill="none" stroke="#0000FF" stroke-miterlimit="10" d="M43.9,44.1c0,0,0-0.1,0-0.2c0-0.1,0-0.3-0.1-0.4
						c0-0.3-0.1-0.6-0.1-0.6s-0.3,0.2-0.5,0.5c-0.1,0.1-0.2,0.3-0.3,0.3c-0.1,0.1-0.1,0.2-0.1,0.2"/>
				</g>
				<g>
					<path fill="none" stroke="#0000FF" stroke-miterlimit="10" d="M42.6,43.8c0,0,0-0.1-0.1-0.2s-0.1-0.3-0.1-0.4
						c-0.1-0.3-0.2-0.6-0.2-0.6s-0.1,0.1-0.1,0.2c-0.1,0.1-0.2,0.3-0.3,0.4c-0.2,0.3-0.3,0.6-0.3,0.6"/>
				</g>
				<g>
					<path fill="none" stroke="#0000FF" stroke-miterlimit="10" d="M41.3,43.7c0,0-0.1-0.3-0.3-0.6c-0.1-0.1-0.2-0.3-0.2-0.4
						c-0.1-0.1-0.1-0.2-0.1-0.2s-0.2,0.3-0.3,0.6c-0.1,0.2-0.1,0.3-0.2,0.4c0,0.1-0.1,0.2-0.1,0.2"/>
				</g>
			</g>
		</g>
	</g>
</g>
<g id="eyes">
	<path fill="#FF9900" stroke="#010101" stroke-width="0.5" stroke-miterlimit="10" d="M57,29.4c0,0-2.5-4.2-4.4-2.3
		c0,0,0.4,5.3,4.5,2.9L57,29.4z"/>
	<path fill="#FF9900" stroke="#010101" stroke-width="0.5" stroke-miterlimit="10" d="M43,29.4c0,0,2.6-4.2,4.6-2.3
		c0,0-0.4,5.3-4.8,2.9L43,29.4z"/>
</g>
<g id="leaf">
	<g>
		<path fill="#A8CF38" stroke="#010101" stroke-width="0.5" stroke-linecap="round" stroke-linejoin="round" d="M46.8,20.4
			c0,0-2.2-3.9-1.9-5.8l0.5,0.2c0,0-0.5-0.6,0.1-2.9l0.4,0.4c0,0-0.4-1.2,0.4-2.7l0.4,0.4c0,0,0.2-1.1,0.6-2.1l0.5,0.3
			c0,0-0.1-1.3,0.3-2.2l0.4,0.4c0,0,0.2-1.6,1.1-1.9l0.1,0.4c0,0,0.6-1,1.5-1.5l0.4,0.4c0,0,0-1,1.1-1.4l0.2,0.4
			c0,0,0.1-1.3,1.2-1.5l0.3,0.6c0,0,1.8-1.7,2.2-1.8l0.7,0.3c0.1,0.3,0,2.8,0,2.8L58.2,3c0.5,1-0.5,1.9-0.5,1.9h0.4
			c0.4,1.2-0.4,1.8-0.4,1.8l0.6,0.1c0.1,1-0.3,2.1-0.3,2.1l0.4-0.1c0.3,0.9-0.9,2-0.9,2l0.6,0.1c-0.5,0.9-1.5,1.6-1.5,1.6l0.5,0.2
			c-0.6,1-1.3,1.8-1.3,1.8l0.6,0.1c-0.7,1.5-1.9,1.9-1.9,1.9l0.6,0.1c-1.5,1.9-2.3,1.8-2.3,1.8l0.5,0.3c-1.3,1.4-5.7,2-5.7,2
			L46.8,20.4z"/>
		<path fill="#A8CF38" stroke="#010101" stroke-width="0.5" stroke-linecap="round" stroke-linejoin="round" d="M47.2,20.6
			c0,0-2.2-3.9-1.9-5.8l0.5,0.2c0,0-0.5-0.6,0.1-2.9l0.4,0.4c0,0-0.4-1.2,0.4-2.7l0.4,0.4c0,0,0.2-1.1,0.6-2.1l0.5,0.3
			c0,0-0.1-1.3,0.3-2.2L49,6.5c0,0,0.2-1.6,1.1-1.9L50.2,5c0,0,0.6-1,1.5-1.5l0.4,0.4c0,0,0-1,1.1-1.4l0.2,0.4c0,0,0.1-1.3,1.2-1.5
			L55,1.9c0,0,1.8-1.7,2.2-1.8l0.7,0.3c0.1,0.3,0,2.8,0,2.8L58.6,3C59,4.1,58,5,58,5h0.4C58.9,6.2,58,6.8,58,6.8l0.6,0.1
			c0.1,1-0.3,2.1-0.3,2.1l0.4-0.1c0.3,0.9-0.9,2-0.9,2l0.6,0.1c-0.5,0.9-1.5,1.6-1.5,1.6l0.5,0.2c-0.6,1-1.3,1.8-1.3,1.8l0.6,0.1
			c-0.7,1.5-1.9,1.9-1.9,1.9l0.6,0.1c-1.5,1.9-2.3,1.8-2.3,1.8l0.5,0.3c-1.3,1.4-5.7,2-5.7,2L47.2,20.6z"/>
		
			<line fill="none" stroke="#010101" stroke-width="0.5" stroke-linecap="round" stroke-linejoin="round" x1="57.4" y1="0.5" x2="47.4" y2="20.7"/>
		<g>
			
				<line fill="none" stroke="#010101" stroke-width="0.5" stroke-linecap="round" stroke-linejoin="round" x1="55" y1="1.6" x2="55.3" y2="3.3"/>
			
				<line fill="none" stroke="#010101" stroke-width="0.5" stroke-linecap="round" stroke-linejoin="round" x1="53.5" y1="2.9" x2="54.5" y2="4.8"/>
			
				<line fill="none" stroke="#010101" stroke-width="0.5" stroke-linecap="round" stroke-linejoin="round" x1="52.2" y1="3.8" x2="53.5" y2="6.3"/>
			
				<line fill="none" stroke="#010101" stroke-width="0.5" stroke-linecap="round" stroke-linejoin="round" x1="50.2" y1="4.9" x2="52.3" y2="7.9"/>
			
				<line fill="none" stroke="#010101" stroke-width="0.5" stroke-linecap="round" stroke-linejoin="round" x1="49.1" y1="6.4" x2="51.8" y2="9.6"/>
			
				<line fill="none" stroke="#010101" stroke-width="0.5" stroke-linecap="round" stroke-linejoin="round" x1="48.1" y1="8.3" x2="50.8" y2="11.2"/>
			
				<line fill="none" stroke="#010101" stroke-width="0.5" stroke-linecap="round" stroke-linejoin="round" x1="47.1" y1="10" x2="49.4" y2="13.1"/>
			
				<line fill="none" stroke="#010101" stroke-width="0.5" stroke-linecap="round" stroke-linejoin="round" x1="46.3" y1="12.3" x2="49" y2="15.8"/>
			
				<line fill="none" stroke="#010101" stroke-width="0.5" stroke-linecap="round" stroke-linejoin="round" x1="45.8" y1="14.9" x2="48" y2="18.5"/>
		</g>
		<g>
			
				<line fill="none" stroke="#010101" stroke-width="0.5" stroke-linecap="round" stroke-linejoin="round" x1="58.2" y1="3.2" x2="56.6" y2="3.9"/>
			
				<line fill="none" stroke="#010101" stroke-width="0.5" stroke-linecap="round" stroke-linejoin="round" x1="58.1" y1="5.1" x2="56" y2="5.6"/>
			
				<line fill="none" stroke="#010101" stroke-width="0.5" stroke-linecap="round" stroke-linejoin="round" x1="58.1" y1="6.7" x2="55.3" y2="7.2"/>
			
				<line fill="none" stroke="#010101" stroke-width="0.5" stroke-linecap="round" stroke-linejoin="round" x1="58.5" y1="9" x2="54.8" y2="9.1"/>
			
				<line fill="none" stroke="#010101" stroke-width="0.5" stroke-linecap="round" stroke-linejoin="round" x1="57.9" y1="10.7" x2="53.8" y2="10.6"/>
			
				<line fill="none" stroke="#010101" stroke-width="0.5" stroke-linecap="round" stroke-linejoin="round" x1="57" y1="12.7" x2="53.1" y2="12.3"/>
			
				<line fill="none" stroke="#010101" stroke-width="0.5" stroke-linecap="round" stroke-linejoin="round" x1="56.4" y1="14.5" x2="52.5" y2="14.6"/>
			
				<line fill="none" stroke="#010101" stroke-width="0.5" stroke-linecap="round" stroke-linejoin="round" x1="55" y1="16.6" x2="50.6" y2="16.5"/>
			
				<line fill="none" stroke="#010101" stroke-width="0.5" stroke-linecap="round" stroke-linejoin="round" x1="53.3" y1="18.5" x2="49" y2="19"/>
		</g>
		<path fill="#FFFFFF" stroke="#010101" stroke-width="0.5" stroke-linecap="round" stroke-linejoin="round" d="M59,7
			c0,0-1.5,0.4-1.1,1.2c0,0-1.8,0.3-1,1.7c0,0,0.4,1,1.2,0.6c0,0-0.5,0.8,0.3,0.6c0.7-0.2,0.6-0.2,0.6-0.2"/>
		<path fill="#FFFFFF" stroke="#010101" stroke-width="0.5" stroke-miterlimit="10" d="M49.5,9c-0.1,0.3-0.3,0.6-0.4,0.9
			c0.4,0.3,0.9-0.3,1.1-0.6c-0.2,0.5-0.1,1.6,0.6,0.8c-0.1,0.5,0.2,0.6,0.6,0.8c-0.1,0.4-0.6,0.6-0.8,0.9c-0.2,0.2-0.2,0.5-0.4,0.7
			c-0.3-0.2-0.3-0.5-0.5-0.7c-0.2,0.1-0.6,0.8-0.8,0.7c-0.3,0-0.5-0.6-0.8-0.7c0.1-0.3,0.3-0.5,0.4-0.8c-0.2,0-0.3,0-0.3,0
			c0.1-0.3,0.7-2.1,1.1-1.6"/>
		<path fill="#FFFFFF" stroke="#010101" stroke-width="0.5" stroke-miterlimit="10" d="M54.5,5.1c0.4-0.4,0.5-0.9,1.1-1.2
			c0.1,0.2-0.1,0.7,0.1,0.8C56,5,56.5,4.3,56.8,4.1c-0.1,0.1-0.3,0.6-0.2,0.7c0.2,0.4,0.6,0.1,0.9,0.1c-0.2,0.5-0.6,0.9-0.9,1.4
			c-0.2,0.3-0.2,0.6-0.3,1c-0.6-0.2-1-0.6-1.1-1.2c-0.2,0.4-0.8,1.6-0.9,0.6c-0.1-0.6,0.4-1.2,0.5-1.8"/>
		<path fill="#FFFFFF" stroke="#010101" stroke-width="0.5" stroke-miterlimit="10" d="M53.8,13.4c0,0.4-0.5,0.8-0.5,1.1
			c0,0.5,0.6,0.8,1,0.8c-0.5,0.2-1,0.5-1.2,1c0.2,0.2,0.5,0.3,0.8,0.5c-0.2,0.1-1.4,0.7-0.7,1c-0.2,0.4-1.4-0.2-1.7-0.5
			c-0.6-0.6-0.4-1.2-0.1-1.9c0.4-1,1.3-2,2.5-1.8"/>
	</g>
</g>
<g id="water">
	<g>
		<path fill="#55C2E2" stroke="#070707" stroke-width="0.5" stroke-miterlimit="10" d="M72.3,35.9c0,0-9.3,10.7-1.1,13.2
			c0,0,6.7-0.2,3.8-8C75,41.1,72.5,38.1,72.3,35.9z"/>
		<path fill="none" stroke="#3A97AD" stroke-miterlimit="10" d="M71.8,48.2c1.3,0.6,3.5-2.7,3.3-3.8"/>
		
			<ellipse transform="matrix(0.7903 -0.6127 0.6127 0.7903 -13.7202 52.9009)" opacity="0.8" fill="#FFFFFF" enable-background="new    " cx="70.4" cy="46.5" rx="1.2" ry="1.5"/>
		<path opacity="0.8" fill="#FFFFFF" enable-background="new    " d="M69.6,40.6c0,0,1.2-3,2.7-3.8"/>
	</g>
	<g>
		<path fill="#55C2E2" stroke="#070707" stroke-width="0.5" stroke-miterlimit="10" d="M38,86.8c0,0-9.3,10.7-1.1,13.2
			c0,0,6.7-0.2,3.8-8C40.7,92,38.2,89,38,86.8z"/>
		<path fill="none" stroke="#3A97AD" stroke-miterlimit="10" d="M37.5,99.1c1.3,0.6,3.5-2.7,3.3-3.8"/>
		
			<ellipse transform="matrix(0.7903 -0.6127 0.6127 0.7903 -52.142 42.5728)" opacity="0.8" fill="#FFFFFF" enable-background="new    " cx="36.1" cy="97.5" rx="1.2" ry="1.5"/>
		<path opacity="0.8" fill="#FFFFFF" enable-background="new    " d="M35.3,91.5c0,0,1.2-3,2.7-3.8"/>
	</g>
	<g>
		<path fill="#55C2E2" stroke="#070707" stroke-width="0.5" stroke-miterlimit="10" d="M29.5,41.2c0,0-5.6,6.5-0.6,7.9
			c0,0,4-0.1,2.3-4.8C31.1,44.3,29.5,42.5,29.5,41.2z"/>
		<path fill="none" stroke="#3A97AD" stroke-miterlimit="10" d="M29.1,48.6c0.8,0.4,2.1-1.6,2-2.3"/>
		
			<ellipse transform="matrix(0.7903 -0.6128 0.6128 0.7903 -23.731 27.4079)" opacity="0.8" fill="#FFFFFF" enable-background="new    " cx="28.2" cy="48.4" rx="0.4" ry="0.5"/>
		<path opacity="0.8" fill="#FFFFFF" enable-background="new    " d="M27.8,44c0,0,0.7-1.8,1.6-2.3"/>
	</g>
	<g>
		<path fill="#55C2E2" stroke="#070707" stroke-width="0.5" stroke-miterlimit="10" d="M63.1,85.5c0,0-5.6,6.5-0.6,7.9
			c0,0,4-0.1,2.3-4.8C64.7,88.6,63.1,86.8,63.1,85.5z"/>
		<path fill="none" stroke="#3A97AD" stroke-miterlimit="10" d="M62.7,92.9c0.8,0.4,2.1-1.6,2-2.3"/>
		
			<ellipse transform="matrix(0.7904 -0.6126 0.6126 0.7904 -43.7003 57.3324)" opacity="0.8" fill="#FFFFFF" enable-background="new    " cx="61.9" cy="92.5" rx="0.4" ry="0.5"/>
		<path opacity="0.8" fill="#FFFFFF" enable-background="new    " d="M61.4,88.3c0,0,0.7-1.8,1.6-2.3"/>
	</g>
	<g>
		<path fill="#55C2E2" stroke="#070707" stroke-width="0.5" stroke-miterlimit="10" d="M72,77.1c0,0-3.5,4-0.4,4.9
			c0,0,2.5-0.1,1.4-3C73,79.1,72.1,78,72,77.1z"/>
		<path fill="none" stroke="#3A97AD" stroke-miterlimit="10" d="M71.8,81.8c0.5,0.2,1.3-1,1.2-1.4"/>
		
			<ellipse transform="matrix(0.7906 -0.6123 0.6123 0.7906 -34.7683 60.5215)" opacity="0.8" fill="#FFFFFF" enable-background="new    " cx="71.1" cy="81.1" rx="0.2" ry="0.3"/>
		<path opacity="0.8" fill="#FFFFFF" enable-background="new    " d="M71,78.9c0,0,0.5-1.1,1-1.4"/>
	</g>
	<g>
		<path fill="#55C2E2" stroke="#070707" stroke-width="0.5" stroke-miterlimit="10" d="M29.4,73.2c0,0-3.5,4-0.4,4.9
			c0,0,2.5-0.1,1.4-3C30.4,75.1,29.4,74,29.4,73.2z"/>
		<path fill="none" stroke="#3A97AD" stroke-miterlimit="10" d="M29.2,77.8c0.5,0.2,1.3-1,1.2-1.4"/>
		
			<ellipse transform="matrix(0.7904 -0.6126 0.6126 0.7904 -41.2365 33.6373)" opacity="0.8" fill="#FFFFFF" enable-background="new    " cx="28.5" cy="77.1" rx="0.2" ry="0.3"/>
		<path opacity="0.8" fill="#FFFFFF" enable-background="new    " d="M28.3,74.9c0,0,0.5-1.1,1-1.4"/>
	</g>
</g>
</svg>
