<?xml version="1.0" encoding="utf-8"?>
<!-- Generator: Adobe Illustrator 17.1.0, SVG Export Plug-In . SVG Version: 6.00 Build 0)  -->
<!DOCTYPE svg PUBLIC "-//W3C//DTD SVG 1.1//EN" "http://www.w3.org/Graphics/SVG/1.1/DTD/svg11.dtd">
<svg version="1.1" id="Layer_1" xmlns="http://www.w3.org/2000/svg" xmlns:xlink="http://www.w3.org/1999/xlink" x="0px" y="0px"
	 viewBox="0 0 100 100" enable-background="new 0 0 100 100" xml:space="preserve">
<pattern  y="100" width="2.5" height="2.5" patternUnits="userSpaceOnUse" id="SVGID_5_" viewBox="0 -2.5 2.5 2.5" overflow="visible">
	<g>
		<polygon fill="none" points="0,0 2.5,0 2.5,-2.5 0,-2.5 		"/>
		<g>
			<polygon fill="none" points="0,-2.5 2.5,-2.5 2.5,0 0,0 			"/>
			<g>
				<polygon fill="none" points="0,0 2.5,0 2.5,-2.5 0,-2.5 				"/>
				<g>
					<polygon fill="none" points="2.5,-2.5 0,-2.5 0,0 2.5,0 					"/>
					<g>
						<path fill="#010101" d="M1.4-1.2c0-0.1-0.1-0.2-0.2-0.2c-0.1,0-0.2,0.1-0.2,0.2S1.2-1,1.2-1C1.4-1,1.4-1.1,1.4-1.2z"/>
					</g>
				</g>
			</g>
		</g>
	</g>
</pattern>
<pattern  y="100" width="2.5" height="2.5" patternUnits="userSpaceOnUse" id="SVGID_6_" viewBox="0 -2.5 2.5 2.5" overflow="visible">
	<g>
		<polygon fill="none" points="0,0 2.5,0 2.5,-2.5 0,-2.5 		"/>
		<g>
			<polygon fill="none" points="0,-2.5 2.5,-2.5 2.5,0 0,0 			"/>
			<g>
				<polygon fill="none" points="0,0 2.5,0 2.5,-2.5 0,-2.5 				"/>
				<g>
					<polygon fill="none" points="2.5,-2.5 0,-2.5 0,0 2.5,0 					"/>
					<g>
						<path fill="#010101" d="M1.4-1.2c0-0.1-0.1-0.2-0.2-0.2c-0.1,0-0.2,0.1-0.2,0.2S1.2-1,1.2-1C1.4-1,1.4-1.1,1.4-1.2z"/>
					</g>
				</g>
			</g>
		</g>
	</g>
</pattern>
<pattern  y="100" width="2.5" height="2.5" patternUnits="userSpaceOnUse" id="SVGID_7_" viewBox="0 -2.5 2.5 2.5" overflow="visible">
	<g>
		<polygon fill="none" points="0,0 2.5,0 2.5,-2.5 0,-2.5 		"/>
		<g>
			<polygon fill="none" points="0,-2.5 2.5,-2.5 2.5,0 0,0 			"/>
			<g>
				<polygon fill="none" points="0,0 2.5,0 2.5,-2.5 0,-2.5 				"/>
				<g>
					<polygon fill="none" points="2.5,-2.5 0,-2.5 0,0 2.5,0 					"/>
					<g>
						<path fill="#010101" d="M1.4-1.2c0-0.1-0.1-0.2-0.2-0.2c-0.1,0-0.2,0.1-0.2,0.2S1.2-1,1.2-1C1.4-1,1.4-1.1,1.4-1.2z"/>
					</g>
				</g>
			</g>
		</g>
	</g>
</pattern>
<pattern  y="100" width="2.5" height="2.5" patternUnits="userSpaceOnUse" id="SVGID_8_" viewBox="0 -2.5 2.5 2.5" overflow="visible">
	<g>
		<polygon fill="none" points="0,0 2.5,0 2.5,-2.5 0,-2.5 		"/>
		<g>
			<polygon fill="none" points="0,-2.5 2.5,-2.5 2.5,0 0,0 			"/>
			<g>
				<polygon fill="none" points="0,0 2.5,0 2.5,-2.5 0,-2.5 				"/>
				<g>
					<polygon fill="none" points="2.5,-2.5 0,-2.5 0,0 2.5,0 					"/>
					<g>
						<path fill="#010101" d="M1.4-1.2c0-0.1-0.1-0.2-0.2-0.2c-0.1,0-0.2,0.1-0.2,0.2S1.2-1,1.2-1C1.4-1,1.4-1.1,1.4-1.2z"/>
					</g>
				</g>
			</g>
		</g>
	</g>
</pattern>
<g id="legs">
	<path fill="#FFFFFF" stroke="#010101" stroke-miterlimit="10" d="M39.5,49.8h-3.8c0,0-4.4-6.3-7.9-6.6l1,0.8l-1.1,0.1
		c0,0,3.4,2,7.4,6.2h4.8L39.5,49.8z"/>
	<path fill="#FFFFFF" stroke="#010101" stroke-miterlimit="10" d="M65.6,49.8h3.8c0,0,4.4-6.3,7.9-6.6l-1,0.8l1.1,0.1
		c0,0-3.4,2-7.4,6.2h-4.8L65.6,49.8z"/>
	<path fill="#FFFFFF" stroke="#010101" stroke-miterlimit="10" d="M70.1,80.1c3,0.3,3.3-1.1,3-2.5c-0.3-1.5-3.1-1.7-3.1-1.7l0.2,2.4
		l-0.2,1.7"/>
	<path fill="#FFFFFF" stroke="#010101" stroke-miterlimit="10" d="M73.4,78.2c0,0,3.9,4.8,5.1,5c0,0-0.3,0.5-1.6-0.2
		c0,0,0.7,3.6,2.8,4.8c0,0-1.2,0.3-2.2-0.2c0,0-0.7,7.6,2.3,9.9c0,0-3.4-1.8-3.7-9.9c0,0-0.3-5.9-3.1-8.6L73.4,78.2z"/>
	<path fill="#FFFFFF" stroke="#010101" stroke-miterlimit="10" d="M35.3,80.1c-2.9,0.7-3.4-0.7-3.3-2.1c0.1-1.5,2.9-2,2.9-2l0.1,2.4
		l0.4,1.6"/>
	<path fill="#FFFFFF" stroke="#010101" stroke-miterlimit="10" d="M31.8,78.6c0,0-3.3,5.2-4.4,5.6c0,0,0.4,0.4,1.5-0.4
		c0,0-0.3,3.7-2.2,5.1c0,0,1.2,0.2,2.1-0.5c0,0,1.7,7.4-1,10.1c0,0,3.1-2.2,2.4-10.2c0,0-0.4-5.9,2-8.9L31.8,78.6z"/>
	<path fill="#FFFFFF" stroke="#010101" stroke-miterlimit="10" d="M36.3,52.5c0,0-1.5-2-0.7-2.7c0.4-0.3,0.8-0.5,1.2-0.6
		c0.4,0,0.8,0.1,1.1,0.6C37.9,49.9,36.9,52.5,36.3,52.5z"/>
	<path fill="#FFFFFF" stroke="#010101" stroke-miterlimit="10" d="M69,52.5c0,0,1.5-2,0.7-2.7c-0.4-0.3-0.8-0.5-1.2-0.6
		c-0.4,0-0.8,0.1-1.1,0.6C67.5,49.9,68.5,52.5,69,52.5z"/>
	<path fill="#FFFFFF" stroke="#010101" stroke-miterlimit="10" d="M71.8,58.6c0,0,6,2.7,6.7,4.3c0,0-0.1-0.1-1.1,0
		c0,0,3.9,2.5,4.1,3.6c0,0-1.8-1.3-2.2-1.3c-0.4,0,4.2,4.5,2.2,7.2c0,0,0.1-7.8-10-12.8"/>
	<path fill="#FFFFFF" stroke="#010101" stroke-miterlimit="10" d="M69.7,57.6c0,0,2.2,0,2.1,1c-0.1,1-0.4,1.5-1.3,1.3L69.7,57.6z"/>
	<path fill="#FFFFFF" stroke="#010101" stroke-miterlimit="10" d="M33.5,59.1c0,0-6,2.7-6.7,4.3c0,0,0.1-0.1,1.1,0
		c0,0-3.9,2.5-4.1,3.6c0,0,1.8-1.3,2.2-1.3c0.4,0-4.2,4.5-2.2,7.2c0,0-0.1-7.8,10-12.8"/>
	<path fill="#FFFFFF" stroke="#010101" stroke-miterlimit="10" d="M35.4,58.1c0,0-2.2,0-2.1,1c0.1,1,0.4,1.5,1.3,1.3L35.4,58.1z"/>
</g>
<g id="basebody">
	<path fill="#FFFFFF" stroke="#010101" stroke-miterlimit="10" d="M50.4,48.4c0,0-7.1-3.4-10.5-2.2c0,0-2.8-12.7,4-15
		c0,0,1.2,1.3,3.7,1.2c2.5-0.1,11.7,0,11.7,0s1.7-0.4,1.9-0.9c0,0,6.1,3.7,3.6,14.4c0,0-3.8-0.3-9.3,2l-2.9,2L50.4,48.4z"/>
	<path fill="#FFFFFF" stroke="#000000" stroke-miterlimit="10" d="M52.6,49.9c0,0,6.9-5,12.7-3.8c0,0,3.9,1.6,5,12.5
		c1.1,10.9,0,22,0,22S69,90.4,52.6,91.2C52.6,91.2,52.6,49.9,52.6,49.9z"/>
	<path fill="#FFFFFF" stroke="#010101" stroke-miterlimit="10" d="M52.6,49.9c0,0-6.9-5-12.7-3.8c0,0-3.9,1.6-5,12.5
		c-1.1,10.9,0,22,0,22s1.2,9.7,17.6,10.5V49.9z"/>
	<path fill="#FFFFFF" stroke="#000000" stroke-miterlimit="10" d="M52.6,49.9c0,0-6.9-5-12.7-3.8c0,0-3.9,1.6-5,12.5
		c-1.1,10.9,0,22,0,22s1.2,9.7,17.6,10.5V49.9z"/>
	<g>
		<g>
			<path fill="none" stroke="#010101" stroke-miterlimit="10" d="M64.7,46.3"/>
		</g>
	</g>
	<g>
		<g>
			<path fill="none" stroke="#010101" stroke-miterlimit="10" d="M59.2,32"/>
		</g>
	</g>
	<g>
		<g>
			<path fill="none" stroke="#010101" stroke-miterlimit="10" d="M41.7,46.3"/>
		</g>
	</g>
	<path fill="#FFFFFF" stroke="#010101" stroke-miterlimit="10" d="M43.9,31.2c0,0,9.2-8.5,17.2,0.3c0,0-0.7,0.9-3.5,0.9
		s-11.3,0-11.3,0S44.5,32.2,43.9,31.2z"/>
	<path fill="#FFFFFF" stroke="#010101" stroke-miterlimit="10" d="M49.5,90.9l3.1-7.5l3.6,7.4C56.2,90.8,51,91.6,49.5,90.9z"/>
</g>
<g id="bodycolor">
	<path fill="#D0DD28" stroke="#010101" stroke-miterlimit="10" d="M50.6,48.3c0,0-7.1-3.4-10.5-2.2c0,0-2.8-12.7,4-15
		c0,0,1.2,1.3,3.7,1.2c2.5-0.1,11.7,0,11.7,0s1.7-0.4,1.9-0.9c0,0,6.1,3.7,3.6,14.4c0,0-3.8-0.3-9.3,2l-2.9,2L50.6,48.3z"/>
	<path fill="#6CBE45" stroke="#010101" stroke-miterlimit="10" d="M52.8,49.9c0,0,6.9-5,12.7-3.8c0,0,3.9,1.6,5,12.5
		c1.1,10.9,0,22,0,22s-1.2,9.7-17.6,10.5V49.9z"/>
	<path fill="#FFFFFF" stroke="#010101" stroke-miterlimit="10" d="M52.9,49.9c0,0-6.9-5-12.7-3.8c0,0-3.9,1.6-5,12.5
		c-1.1,10.9,0,22,0,22s1.2,9.7,17.6,10.5C52.9,91.1,52.9,49.9,52.9,49.9z"/>
	<path fill="#6CBE45" stroke="#010101" stroke-miterlimit="10" d="M52.8,49.9c0,0-6.9-5-12.7-3.8c0,0-3.9,1.6-5,12.5
		c-1.1,10.9,0,22,0,22s1.2,9.7,17.6,10.5V49.9z"/>
	<g>
		<g>
			<path fill="none" stroke="#010101" stroke-miterlimit="10" d="M64.9,46.3"/>
		</g>
	</g>
	<g>
		<g>
			<path fill="none" stroke="#010101" stroke-miterlimit="10" d="M59.5,31.9"/>
		</g>
	</g>
	<g>
		<g>
			<path fill="none" stroke="#010101" stroke-miterlimit="10" d="M42,46.2"/>
		</g>
	</g>
	<path fill="#6CBE45" stroke="#010101" stroke-miterlimit="10" d="M44.2,31.1c0,0,9.2-8.5,17.2,0.3c0,0-0.7,0.9-3.5,0.9
		s-11.3,0-11.3,0S44.8,32.1,44.2,31.1z"/>
	<path fill="#D0DD28" stroke="#010101" stroke-miterlimit="10" d="M49.7,90.8l3.1-7.5l3.6,7.4C56.5,90.8,51.2,91.6,49.7,90.8z"/>
</g>
<g id="antennae">
	<path fill="none" stroke="#010101" stroke-miterlimit="10" d="M57.8,28.3c1.5,0,2.8-0.1,4.2-1.5c0.8-0.8,3.6-3.7,3.3-7.9
		c0-0.1-0.2-0.4-0.3-0.4c-0.3,1.6-0.6,3-0.8,4.9"/>
	<path fill="none" stroke="#010101" stroke-miterlimit="10" d="M47.3,28.8c-1.5,0-2.8-0.1-4.2-1.5c-0.8-0.8-3.6-3.7-3.3-7.9
		c0-0.1,0.2-0.4,0.3-0.4c0.3,1.6,0.6,3,0.8,4.9"/>
</g>
<g id="markings">
	<path fill="#010101" d="M47.8,81.9c0.3,2.5-0.8,4.1-3.3,4c-2.6-0.1-4.6-1.3-4.7-4c-0.1-2.1-0.3-5.1,2.2-5.8
		C41.9,76.1,47.9,77.3,47.8,81.9z"/>
	<path fill="#010101" d="M57.3,81.9c-0.3,2.5,0.8,4.1,3.3,4c2.6-0.1,4.6-1.3,4.7-4c0.1-2.1,0.3-5.1-2.2-5.8
		C63.2,76.1,57.2,77.3,57.3,81.9z"/>
</g>
<g id="dots">
	<pattern  id="SVGID_1_" xlink:href="#SVGID_5_" patternTransform="matrix(0.2882 0 0 -0.2882 -5762.1265 -15272.9971)">
	</pattern>
	<path fill="url(#SVGID_1_)" stroke="#010101" stroke-miterlimit="10" d="M56.2,90.8c13-1.9,14-10.2,14-10.2s1.1-11.2,0-22
		c-1.1-10.9-5-12.4-5-12.4c-5.8-1.2-12.7,3.8-12.7,3.8v33.6L56.2,90.8z"/>
	<pattern  id="SVGID_2_" xlink:href="#SVGID_6_" patternTransform="matrix(0.2882 0 0 -0.2882 -5762.1265 -15272.9971)">
	</pattern>
	<path fill="url(#SVGID_2_)" stroke="#010101" stroke-miterlimit="10" d="M52.6,91.2"/>
	<pattern  id="SVGID_3_" xlink:href="#SVGID_7_" patternTransform="matrix(0.2882 0 0 -0.2882 -5762.1265 -15272.9971)">
	</pattern>
	<path fill="url(#SVGID_3_)" stroke="#010101" stroke-miterlimit="10" d="M52.6,91.2"/>
	<pattern  id="SVGID_4_" xlink:href="#SVGID_8_" patternTransform="matrix(0.2882 0 0 -0.2882 -5762.1265 -15272.9971)">
	</pattern>
	<path fill="url(#SVGID_4_)" stroke="#010101" stroke-miterlimit="10" d="M52.6,83.6V49.9c0,0-6.9-5-12.7-3.8c0,0-3.9,1.6-5,12.4
		c-1.1,10.9,0,22,0,22s1,8.4,14.5,10.2L52.6,83.6z"/>
</g>
<g id="fur">
	<g>
		<g>
			<path fill="none" stroke="#0000FF" stroke-miterlimit="10" d="M52.5,50.7"/>
		</g>
	</g>
	<g>
		<g>
			<g>
				<g>
					<path fill="none" stroke="#0000FF" stroke-miterlimit="10" d="M61.2,29.5L61,30.9c0,0,0.3-0.2,0.7-0.3c0.2-0.1,0.3-0.1,0.5-0.2
						s0.2-0.1,0.2-0.1"/>
				</g>
				<g>
					<path fill="none" stroke="#0000FF" stroke-miterlimit="10" d="M62.6,30.4c0,0-0.1,0.3-0.2,0.7s-0.2,0.7-0.2,0.7s0.1,0,0.2-0.1
						c0.1,0,0.3-0.1,0.5-0.1c0.4-0.1,0.7-0.1,0.7-0.1"/>
				</g>
				<g>
					<path fill="none" stroke="#0000FF" stroke-miterlimit="10" d="M63.8,31.7c0,0-0.1,0.3-0.3,0.6c-0.1,0.1-0.2,0.3-0.2,0.4
						c-0.1,0.1-0.1,0.2-0.1,0.2s0.4-0.1,0.7-0.1c0.4,0,0.8,0,0.8,0"/>
				</g>
				<g>
					<path fill="none" stroke="#0000FF" stroke-miterlimit="10" d="M64.9,33.1c0,0-0.2,0.3-0.4,0.6C64.3,34,64,34.3,64,34.3
						s0.4,0,0.7,0c0.4,0,0.7,0.1,0.7,0.1"/>
				</g>
				<g>
					<path fill="none" stroke="#0000FF" stroke-miterlimit="10" d="M65.6,34.6c0,0-0.1,0.1-0.1,0.2c-0.1,0.1-0.2,0.2-0.3,0.4
						c-0.3,0.3-0.5,0.5-0.5,0.5s0.4,0.1,0.7,0.1s0.7,0.2,0.7,0.2"/>
				</g>
				<g>
					<path fill="none" stroke="#0000FF" stroke-miterlimit="10" d="M66.3,36.2c0,0-0.3,0.2-0.5,0.5c-0.3,0.2-0.5,0.4-0.5,0.4
						s0.4,0.1,0.7,0.2c0.2,0.1,0.3,0.1,0.5,0.2c0.1,0.1,0.2,0.1,0.2,0.1"/>
				</g>
				<g>
					<path fill="none" stroke="#0000FF" stroke-miterlimit="10" d="M66.6,37.9c0,0-0.3,0.2-0.6,0.4c-0.3,0.2-0.6,0.4-0.6,0.4
						s0.1,0,0.2,0.1c0.1,0.1,0.3,0.1,0.5,0.2c0.3,0.2,0.7,0.3,0.7,0.3"/>
				</g>
				<g>
					<path fill="none" stroke="#0000FF" stroke-miterlimit="10" d="M66.8,39.6c0,0-0.3,0.2-0.6,0.3c-0.3,0.2-0.6,0.3-0.6,0.3
						s0.3,0.2,0.7,0.4c0.3,0.2,0.6,0.4,0.6,0.4"/>
				</g>
				<g>
					<path fill="none" stroke="#0000FF" stroke-miterlimit="10" d="M66.9,41.2c0,0-0.3,0.1-0.7,0.3c-0.3,0.1-0.7,0.3-0.7,0.3
						s0.1,0.1,0.2,0.1c0.1,0.1,0.3,0.2,0.4,0.3c0.3,0.2,0.6,0.5,0.6,0.5"/>
				</g>
				<g>
					<path fill="none" stroke="#0000FF" stroke-miterlimit="10" d="M66.8,42.9c0,0-0.3,0.1-0.7,0.2c-0.3,0.1-0.7,0.2-0.7,0.2
						s0.3,0.2,0.6,0.5c0.1,0.1,0.3,0.2,0.4,0.3c0.1,0.1,0.2,0.1,0.2,0.1"/>
				</g>
				<g>
					<path fill="none" stroke="#0000FF" stroke-miterlimit="10" d="M66.5,44.6c0,0-0.3,0.1-0.7,0.2s-0.7,0.2-0.7,0.2
						s0.3,0.3,0.6,0.5c0.3,0.3,0.5,0.5,0.5,0.5"/>
				</g>
			</g>
		</g>
	</g>
	<g>
		<g>
			<path fill="none" stroke="#0000FF" stroke-miterlimit="10" d="M59.1,31.3"/>
		</g>
	</g>
	<g>
		<g>
			<path fill="none" stroke="#0000FF" stroke-miterlimit="10" d="M51.7,31.3"/>
		</g>
	</g>
	<g>
		<g>
			<path fill="none" stroke="#0000FF" stroke-miterlimit="10" d="M47.5,31.3"/>
		</g>
	</g>
	<g>
		<g>
			<g>
				<g>
					<path fill="none" stroke="#0000FF" stroke-miterlimit="10" d="M38.3,46.1c0,0,0.3-0.2,0.6-0.4c0.3-0.2,0.6-0.4,0.6-0.4
						s-0.3-0.1-0.7-0.3s-0.7-0.3-0.7-0.3"/>
				</g>
				<g>
					<path fill="none" stroke="#0000FF" stroke-miterlimit="10" d="M38,44.5c0,0,0.3-0.2,0.6-0.4c0.3-0.2,0.6-0.3,0.6-0.3
						s-0.3-0.1-0.7-0.3c-0.3-0.1-0.7-0.3-0.7-0.3"/>
				</g>
				<g>
					<path fill="none" stroke="#0000FF" stroke-miterlimit="10" d="M37.9,43c0,0,0.3-0.2,0.6-0.3c0.3-0.2,0.6-0.3,0.6-0.3
						s-0.3-0.2-0.7-0.3c-0.3-0.2-0.7-0.3-0.7-0.3"/>
				</g>
				<g>
					<path fill="none" stroke="#0000FF" stroke-miterlimit="10" d="M37.8,41.4c0,0,0.3-0.1,0.6-0.3c0.3-0.1,0.6-0.3,0.6-0.3
						s-0.3-0.2-0.7-0.3c-0.3-0.2-0.6-0.4-0.6-0.4"/>
				</g>
				<g>
					<path fill="none" stroke="#0000FF" stroke-miterlimit="10" d="M37.8,39.8c0,0,0.3-0.1,0.7-0.3c0.3-0.1,0.7-0.3,0.7-0.3
						s-0.3-0.2-0.6-0.4s-0.6-0.4-0.6-0.4"/>
				</g>
				<g>
					<path fill="none" stroke="#0000FF" stroke-miterlimit="10" d="M37.8,38.2c0,0,0.3-0.1,0.7-0.2c0.3-0.1,0.7-0.2,0.7-0.2
						s-0.1-0.1-0.2-0.1s-0.3-0.2-0.4-0.3c-0.3-0.2-0.6-0.5-0.6-0.5"/>
				</g>
				<g>
					<path fill="none" stroke="#0000FF" stroke-miterlimit="10" d="M38,36.6c0,0,0.3-0.1,0.7-0.1c0.3-0.1,0.7-0.1,0.7-0.1
						s-0.3-0.2-0.5-0.5c-0.3-0.3-0.5-0.5-0.5-0.5"/>
				</g>
				<g>
					<path fill="none" stroke="#0000FF" stroke-miterlimit="10" d="M38.4,35c0,0,0.1,0,0.2,0c0.1,0,0.3,0,0.5-0.1
						c0.3,0,0.7-0.1,0.7-0.1s-0.1-0.1-0.1-0.2c-0.1-0.1-0.2-0.3-0.3-0.4c-0.2-0.3-0.5-0.6-0.5-0.6"/>
				</g>
				<g>
					<path fill="none" stroke="#0000FF" stroke-miterlimit="10" d="M39,33.5c0,0,0.4,0,0.7,0c0.3,0,0.7,0.1,0.7,0.1
						s-0.1-0.1-0.1-0.2c-0.1-0.1-0.2-0.3-0.3-0.4c-0.1-0.2-0.2-0.3-0.2-0.5c-0.1-0.1-0.1-0.2-0.1-0.2"/>
				</g>
				<g>
					<path fill="none" stroke="#0000FF" stroke-miterlimit="10" d="M39.9,32c0,0,0.3,0.1,0.7,0.1c0.2,0,0.3,0.1,0.5,0.1
						c0.1,0,0.2,0.1,0.2,0.1S41.1,32,41,31.7c-0.1-0.3-0.2-0.7-0.2-0.7"/>
				</g>
				<g>
					<path fill="none" stroke="#0000FF" stroke-miterlimit="10" d="M41,30.8c0,0,0.1,0,0.2,0.1c0.1,0.1,0.3,0.1,0.4,0.2
						c0.3,0.2,0.6,0.3,0.6,0.3s0-0.1,0-0.2s0-0.3,0-0.5c0-0.2,0-0.4,0-0.5s0-0.2,0-0.2"/>
				</g>
				<g>
					<path fill="none" stroke="#0000FF" stroke-miterlimit="10" d="M42.4,29.8c0,0,0.3,0.2,0.5,0.5c0.3,0.2,0.5,0.5,0.5,0.5
						s0-0.4,0.1-0.7c0.1-0.4,0.1-0.7,0.1-0.7"/>
				</g>
			</g>
		</g>
	</g>
	<g>
		<g>
			<path fill="none" stroke="#0000FF" stroke-miterlimit="10" d="M40.1,46.7"/>
		</g>
	</g>
	<g>
		<g>
			<g>
				<g>
					<path fill="none" stroke="#0000FF" stroke-miterlimit="10" d="M65.8,44.4c0,0,0.1,0.1,0.1,0.3s0,0.3,0,0.5
						c0,0.3-0.1,0.7-0.1,0.7s0.3-0.2,0.7-0.3c0.3-0.1,0.7-0.2,0.7-0.2"/>
				</g>
				<g>
					<path fill="none" stroke="#0000FF" stroke-miterlimit="10" d="M67.3,45.6c0,0-0.1,0.3-0.3,0.7c-0.1,0.3-0.3,0.6-0.3,0.6
						s0.4-0.1,0.7-0.1c0.4-0.1,0.7-0.1,0.7-0.1"/>
				</g>
				<g>
					<path fill="none" stroke="#0000FF" stroke-miterlimit="10" d="M68.4,46.9c0,0-0.2,0.3-0.4,0.6c-0.2,0.3-0.4,0.6-0.4,0.6
						s0.4,0,0.7,0s0.7,0.1,0.7,0.1"/>
				</g>
				<g>
					<path fill="none" stroke="#0000FF" stroke-miterlimit="10" d="M69.3,48.4c0,0-0.2,0.3-0.5,0.5c-0.2,0.3-0.5,0.5-0.5,0.5
						s0.4,0,0.7,0.1s0.7,0.1,0.7,0.1"/>
				</g>
				<g>
					<path fill="none" stroke="#0000FF" stroke-miterlimit="10" d="M70,49.9c0,0-0.3,0.3-0.5,0.5c-0.3,0.2-0.5,0.5-0.5,0.5
						s0.4,0.1,0.7,0.1s0.7,0.2,0.7,0.2"/>
				</g>
				<g>
					<path fill="none" stroke="#0000FF" stroke-miterlimit="10" d="M70.5,51.5c0,0-0.3,0.2-0.5,0.5s-0.5,0.5-0.5,0.5
						s0.4,0.1,0.7,0.2c0.4,0.1,0.7,0.2,0.7,0.2"/>
				</g>
				<g>
					<path fill="none" stroke="#0000FF" stroke-miterlimit="10" d="M70.9,53.1c0,0-0.3,0.2-0.6,0.4c-0.3,0.2-0.6,0.4-0.6,0.4
						s0.3,0.1,0.7,0.2c0.3,0.1,0.7,0.3,0.7,0.3"/>
				</g>
				<g>
					<path fill="none" stroke="#0000FF" stroke-miterlimit="10" d="M71.3,54.8c0,0-0.3,0.2-0.6,0.4c-0.3,0.2-0.6,0.4-0.6,0.4
						s0.3,0.1,0.7,0.3c0.3,0.1,0.7,0.3,0.7,0.3"/>
				</g>
				<g>
					<path fill="none" stroke="#0000FF" stroke-miterlimit="10" d="M71.5,56.4c0,0-0.3,0.2-0.6,0.4c-0.3,0.2-0.6,0.4-0.6,0.4
						s0.3,0.1,0.7,0.3c0.3,0.1,0.7,0.3,0.7,0.3"/>
				</g>
				<g>
					<polyline fill="none" stroke="#0000FF" stroke-miterlimit="10" points="71.7,58 70.5,58.7 71.8,59.4 					"/>
				</g>
				<g>
					<polyline fill="none" stroke="#0000FF" stroke-miterlimit="10" points="71.9,59.6 70.6,60.3 72,61 					"/>
				</g>
				<g>
					<polyline fill="none" stroke="#0000FF" stroke-miterlimit="10" points="72,61.2 70.7,61.9 72.1,62.6 					"/>
				</g>
				<g>
					<polyline fill="none" stroke="#0000FF" stroke-miterlimit="10" points="72.1,62.9 70.8,63.5 72.1,64.2 					"/>
				</g>
				<g>
					<polyline fill="none" stroke="#0000FF" stroke-miterlimit="10" points="72.2,64.5 70.9,65.1 72.2,65.8 					"/>
				</g>
				<g>
					<polyline fill="none" stroke="#0000FF" stroke-miterlimit="10" points="72.2,66.1 70.9,66.7 72.2,67.4 					"/>
				</g>
				<g>
					<polyline fill="none" stroke="#0000FF" stroke-miterlimit="10" points="72.2,67.7 70.9,68.3 72.2,69.1 					"/>
				</g>
				<g>
					<polyline fill="none" stroke="#0000FF" stroke-miterlimit="10" points="72.2,69.3 70.9,69.9 72.2,70.7 					"/>
				</g>
				<g>
					<polyline fill="none" stroke="#0000FF" stroke-miterlimit="10" points="72.2,71 70.9,71.5 72.2,72.3 					"/>
				</g>
				<g>
					<polyline fill="none" stroke="#0000FF" stroke-miterlimit="10" points="72.2,72.6 70.9,73.1 72.1,73.9 					"/>
				</g>
				<g>
					<polyline fill="none" stroke="#0000FF" stroke-miterlimit="10" points="72.1,74.2 70.8,74.7 72.1,75.5 					"/>
				</g>
				<g>
					<polyline fill="none" stroke="#0000FF" stroke-miterlimit="10" points="72.1,75.8 70.7,76.3 72,77.1 					"/>
				</g>
				<g>
					<polyline fill="none" stroke="#0000FF" stroke-miterlimit="10" points="72,77.4 70.6,77.9 71.9,78.8 					"/>
				</g>
				<g>
					<path fill="none" stroke="#0000FF" stroke-miterlimit="10" d="M71.9,79l-1.3,0.5c0,0,0.3,0.2,0.6,0.4c0.3,0.2,0.6,0.4,0.6,0.4"
						/>
				</g>
				<g>
					<path fill="none" stroke="#0000FF" stroke-miterlimit="10" d="M71.7,80.7c0,0-0.1,0-0.2,0.1c-0.1,0-0.3,0.1-0.5,0.1
						C70.7,81,70.3,81,70.3,81s0.3,0.3,0.5,0.5s0.5,0.6,0.5,0.6"/>
				</g>
				<g>
					<path fill="none" stroke="#0000FF" stroke-miterlimit="10" d="M71.2,82.4c0,0-0.3,0-0.7,0c-0.3,0-0.7,0-0.7,0s0.2,0.3,0.4,0.6
						c0.2,0.3,0.4,0.7,0.4,0.7"/>
				</g>
				<g>
					<path fill="none" stroke="#0000FF" stroke-miterlimit="10" d="M70.5,83.9c0,0-0.3,0-0.7-0.1c-0.3,0-0.7-0.1-0.7-0.1
						s0.2,0.3,0.3,0.7c0.2,0.3,0.3,0.7,0.3,0.7"/>
				</g>
				<g>
					<path fill="none" stroke="#0000FF" stroke-miterlimit="10" d="M69.6,85.4c0,0-0.3-0.1-0.7-0.2c-0.3-0.1-0.7-0.2-0.7-0.2
						s0.1,0.3,0.3,0.7c0.1,0.3,0.2,0.7,0.2,0.7"/>
				</g>
				<g>
					<path fill="none" stroke="#0000FF" stroke-miterlimit="10" d="M68.5,86.7c0,0-0.3-0.1-0.7-0.3c-0.3-0.1-0.7-0.3-0.7-0.3
						s0.1,0.4,0.1,0.7c0.1,0.4,0.1,0.7,0.1,0.7"/>
				</g>
				<g>
					<path fill="none" stroke="#0000FF" stroke-miterlimit="10" d="M67.2,87.8c0,0-0.3-0.1-0.6-0.3s-0.6-0.3-0.6-0.3
						s0.1,0.4,0.1,0.7c0,0.4,0,0.7,0,0.7"/>
				</g>
				<g>
					<path fill="none" stroke="#0000FF" stroke-miterlimit="10" d="M65.9,88.8c0,0-0.3-0.2-0.6-0.4C65,88.2,64.7,88,64.7,88
						s0,0.4,0,0.7c0,0.4,0,0.7,0,0.7"/>
				</g>
				<g>
					<path fill="none" stroke="#0000FF" stroke-miterlimit="10" d="M64.4,89.7c0,0-0.3-0.2-0.5-0.4c-0.3-0.2-0.5-0.5-0.5-0.5
						s0,0.4-0.1,0.7c0,0.4-0.1,0.7-0.1,0.7"/>
				</g>
				<g>
					<path fill="none" stroke="#0000FF" stroke-miterlimit="10" d="M62.9,90.4c0,0-0.3-0.2-0.5-0.5c-0.3-0.3-0.5-0.5-0.5-0.5
						s-0.1,0.4-0.1,0.7c-0.1,0.4-0.1,0.7-0.1,0.7"/>
				</g>
				<g>
					<path fill="none" stroke="#0000FF" stroke-miterlimit="10" d="M61.3,91c0,0-0.2-0.3-0.5-0.5c-0.2-0.3-0.5-0.5-0.5-0.5
						s-0.1,0.4-0.2,0.7C60.1,91,60,91.4,60,91.4"/>
				</g>
				<g>
					<path fill="none" stroke="#0000FF" stroke-miterlimit="10" d="M59.7,91.4c0,0-0.2-0.3-0.5-0.5c-0.2-0.3-0.4-0.5-0.4-0.5
						s-0.1,0.3-0.2,0.7c-0.1,0.3-0.2,0.7-0.2,0.7"/>
				</g>
				<g>
					<path fill="none" stroke="#0000FF" stroke-miterlimit="10" d="M58.1,91.8c0,0-0.2-0.3-0.4-0.6c-0.2-0.3-0.4-0.6-0.4-0.6
						s-0.1,0.3-0.3,0.7c-0.1,0.3-0.3,0.7-0.3,0.7"/>
				</g>
				<g>
					<path fill="none" stroke="#0000FF" stroke-miterlimit="10" d="M56.5,92.1c0,0-0.2-0.3-0.4-0.6c-0.2-0.3-0.4-0.6-0.4-0.6
						s-0.1,0.3-0.3,0.7c-0.1,0.3-0.3,0.7-0.3,0.7"/>
				</g>
				<g>
					<path fill="none" stroke="#0000FF" stroke-miterlimit="10" d="M54.9,92.3c0,0-0.2-0.3-0.3-0.6c-0.2-0.3-0.3-0.6-0.3-0.6
						s-0.2,0.3-0.3,0.7c-0.2,0.3-0.3,0.7-0.3,0.7"/>
				</g>
				<g>
					<path fill="none" stroke="#0000FF" stroke-miterlimit="10" d="M53.2,92.5c0,0-0.2-0.3-0.3-0.6c-0.2-0.3-0.3-0.6-0.3-0.6
						l-0.7,1.3"/>
				</g>
			</g>
		</g>
	</g>
	<g>
		<g>
			<path fill="none" stroke="#0000FF" stroke-miterlimit="10" d="M63.4,44.9"/>
		</g>
	</g>
	<g>
		<g>
			<g>
				<g>
					<path fill="none" stroke="#0000FF" stroke-miterlimit="10" d="M53.2,92.5l-0.5-1.3c0,0-0.2,0.3-0.4,0.6
						c-0.2,0.3-0.4,0.6-0.4,0.6"/>
				</g>
				<g>
					<path fill="none" stroke="#0000FF" stroke-miterlimit="10" d="M51.6,92.4c0,0-0.1-0.3-0.2-0.7c-0.1-0.3-0.2-0.7-0.2-0.7
						s-0.2,0.3-0.4,0.6c-0.2,0.3-0.5,0.6-0.5,0.6"/>
				</g>
				<g>
					<path fill="none" stroke="#0000FF" stroke-miterlimit="10" d="M49.9,92.3c0,0-0.1-0.3-0.2-0.7c-0.1-0.3-0.2-0.7-0.2-0.7
						s-0.2,0.3-0.5,0.6c-0.2,0.3-0.5,0.6-0.5,0.6"/>
				</g>
				<g>
					<path fill="none" stroke="#0000FF" stroke-miterlimit="10" d="M48.3,92.1c0,0-0.1-0.3-0.2-0.7C48,91,48,90.7,48,90.7
						s-0.3,0.3-0.5,0.6c-0.3,0.3-0.5,0.5-0.5,0.5"/>
				</g>
				<g>
					<path fill="none" stroke="#0000FF" stroke-miterlimit="10" d="M46.7,91.8c0,0-0.1-0.3-0.1-0.7c-0.1-0.3-0.1-0.7-0.1-0.7
						s-0.3,0.3-0.5,0.5c-0.3,0.3-0.5,0.5-0.5,0.5"/>
				</g>
				<g>
					<path fill="none" stroke="#0000FF" stroke-miterlimit="10" d="M45.1,91.4c0,0-0.1-0.3-0.1-0.7c-0.1-0.3-0.1-0.7-0.1-0.7
						s-0.3,0.3-0.5,0.5C44,90.8,43.7,91,43.7,91"/>
				</g>
				<g>
					<path fill="none" stroke="#0000FF" stroke-miterlimit="10" d="M43.5,90.9c0,0,0-0.3-0.1-0.7c0-0.3,0-0.7,0-0.7
						s-0.3,0.2-0.6,0.5c-0.3,0.2-0.6,0.5-0.6,0.5"/>
				</g>
				<g>
					<path fill="none" stroke="#0000FF" stroke-miterlimit="10" d="M41.9,90.3c0,0,0-0.3,0-0.7c0-0.3,0-0.7,0-0.7s-0.3,0.2-0.6,0.4
						c-0.3,0.2-0.6,0.4-0.6,0.4"/>
				</g>
				<g>
					<path fill="none" stroke="#0000FF" stroke-miterlimit="10" d="M40.4,89.5c0,0,0-0.3,0.1-0.7c0-0.3,0.1-0.7,0.1-0.7
						s-0.3,0.2-0.7,0.3s-0.7,0.3-0.7,0.3"/>
				</g>
				<g>
					<path fill="none" stroke="#0000FF" stroke-miterlimit="10" d="M39,88.7c0,0,0.1-0.3,0.1-0.7c0.1-0.3,0.1-0.7,0.1-0.7
						s-0.3,0.1-0.7,0.3c-0.3,0.1-0.7,0.3-0.7,0.3"/>
				</g>
				<g>
					<path fill="none" stroke="#0000FF" stroke-miterlimit="10" d="M37.6,87.6c0,0,0.1-0.3,0.2-0.7s0.2-0.7,0.2-0.7
						s-0.3,0.1-0.7,0.2c-0.4,0.1-0.7,0.2-0.7,0.2"/>
				</g>
				<g>
					<path fill="none" stroke="#0000FF" stroke-miterlimit="10" d="M36.4,86.5c0,0,0.1-0.3,0.3-0.7s0.3-0.6,0.3-0.6
						s-0.4,0.1-0.7,0.1c-0.4,0.1-0.7,0.1-0.7,0.1"/>
				</g>
				<g>
					<path fill="none" stroke="#0000FF" stroke-miterlimit="10" d="M35.3,85.2c0,0,0.2-0.3,0.3-0.6c0.2-0.3,0.4-0.6,0.4-0.6
						s-0.4,0-0.7,0c-0.4,0-0.7,0-0.7,0"/>
				</g>
				<g>
					<path fill="none" stroke="#0000FF" stroke-miterlimit="10" d="M34.4,83.7c0,0,0.2-0.3,0.4-0.6s0.5-0.5,0.5-0.5s-0.4,0-0.7-0.1
						c-0.4-0.1-0.7-0.1-0.7-0.1"/>
				</g>
				<g>
					<path fill="none" stroke="#0000FF" stroke-miterlimit="10" d="M33.7,82.1c0,0,0.3-0.3,0.5-0.5c0.3-0.2,0.5-0.5,0.5-0.5
						s-0.4-0.1-0.7-0.2c-0.2-0.1-0.3-0.1-0.5-0.2s-0.2-0.1-0.2-0.1"/>
				</g>
				<g>
					<polyline fill="none" stroke="#0000FF" stroke-miterlimit="10" points="33.3,80.4 34.6,79.7 33.2,79 					"/>
				</g>
				<g>
					<polyline fill="none" stroke="#0000FF" stroke-miterlimit="10" points="33.2,78.8 34.4,78.1 33.1,77.4 					"/>
				</g>
				<g>
					<polyline fill="none" stroke="#0000FF" stroke-miterlimit="10" points="33.1,77.1 34.4,76.5 33,75.8 					"/>
				</g>
				<g>
					<polyline fill="none" stroke="#0000FF" stroke-miterlimit="10" points="33,75.5 34.3,74.9 32.9,74.1 					"/>
				</g>
				<g>
					<polyline fill="none" stroke="#0000FF" stroke-miterlimit="10" points="32.9,73.9 34.2,73.3 32.9,72.5 					"/>
				</g>
				<g>
					<polyline fill="none" stroke="#0000FF" stroke-miterlimit="10" points="32.9,72.3 34.1,71.7 32.9,70.9 					"/>
				</g>
				<g>
					<polyline fill="none" stroke="#0000FF" stroke-miterlimit="10" points="32.9,70.7 34.1,70.1 32.8,69.3 					"/>
				</g>
				<g>
					<polyline fill="none" stroke="#0000FF" stroke-miterlimit="10" points="32.8,69 34.1,68.5 32.9,67.7 					"/>
				</g>
				<g>
					<polyline fill="none" stroke="#0000FF" stroke-miterlimit="10" points="32.9,67.4 34.1,66.9 32.9,66.1 					"/>
				</g>
				<g>
					<polyline fill="none" stroke="#0000FF" stroke-miterlimit="10" points="32.9,65.8 34.2,65.2 32.9,64.4 					"/>
				</g>
				<g>
					<polyline fill="none" stroke="#0000FF" stroke-miterlimit="10" points="32.9,64.2 34.2,63.7 33,62.8 					"/>
				</g>
				<g>
					<polyline fill="none" stroke="#0000FF" stroke-miterlimit="10" points="33,62.6 34.3,62 33.1,61.2 					"/>
				</g>
				<g>
					<polyline fill="none" stroke="#0000FF" stroke-miterlimit="10" points="33.1,61 34.4,60.5 33.2,59.6 					"/>
				</g>
				<g>
					<path fill="none" stroke="#0000FF" stroke-miterlimit="10" d="M33.2,59.3l1.4-0.5c0,0-0.3-0.2-0.6-0.4
						c-0.3-0.2-0.6-0.5-0.6-0.5"/>
				</g>
				<g>
					<path fill="none" stroke="#0000FF" stroke-miterlimit="10" d="M33.4,57.7c0,0,0.3-0.1,0.7-0.2c0.3-0.1,0.7-0.2,0.7-0.2
						s-0.3-0.2-0.6-0.5c-0.3-0.2-0.6-0.5-0.6-0.5"/>
				</g>
				<g>
					<path fill="none" stroke="#0000FF" stroke-miterlimit="10" d="M33.6,56.1c0,0,0.3-0.1,0.7-0.2c0.3-0.1,0.7-0.2,0.7-0.2
						s-0.3-0.2-0.6-0.5c-0.3-0.3-0.6-0.5-0.6-0.5"/>
				</g>
				<g>
					<path fill="none" stroke="#0000FF" stroke-miterlimit="10" d="M33.9,54.5c0,0,0.3-0.1,0.7-0.2s0.7-0.1,0.7-0.1
						s-0.3-0.3-0.5-0.5c-0.3-0.3-0.5-0.5-0.5-0.5"/>
				</g>
				<g>
					<path fill="none" stroke="#0000FF" stroke-miterlimit="10" d="M34.2,52.9c0,0,0.3-0.1,0.7-0.1c0.3-0.1,0.7-0.1,0.7-0.1
						s-0.3-0.3-0.5-0.5c-0.3-0.3-0.5-0.5-0.5-0.5"/>
				</g>
				<g>
					<path fill="none" stroke="#0000FF" stroke-miterlimit="10" d="M34.6,51.2c0,0,0.3,0,0.7-0.1c0.3,0,0.7-0.1,0.7-0.1
						s-0.3-0.3-0.5-0.6c-0.2-0.3-0.5-0.6-0.5-0.6"/>
				</g>
				<g>
					<path fill="none" stroke="#0000FF" stroke-miterlimit="10" d="M35.2,49.7c0,0,0.3,0,0.7,0c0.3,0,0.7,0,0.7,0s-0.2-0.3-0.4-0.6
						c-0.2-0.3-0.4-0.6-0.4-0.6"/>
				</g>
				<g>
					<path fill="none" stroke="#0000FF" stroke-miterlimit="10" d="M35.9,48.2c0,0,0.3,0,0.7,0c0.3,0,0.7,0.1,0.7,0.1
						s-0.2-0.3-0.3-0.7c-0.2-0.3-0.3-0.7-0.3-0.7"/>
				</g>
				<g>
					<path fill="none" stroke="#0000FF" stroke-miterlimit="10" d="M36.8,46.7c0,0,0.3,0.1,0.7,0.1s0.7,0.2,0.7,0.2
						s-0.1-0.3-0.3-0.7c-0.1-0.4-0.2-0.7-0.2-0.7"/>
				</g>
				<g>
					<path fill="none" stroke="#0000FF" stroke-miterlimit="10" d="M38,45.3c0,0,0.3,0.1,0.7,0.3c0.3,0.1,0.6,0.3,0.6,0.3
						s-0.1-0.4-0.1-0.7c0-0.2,0-0.4,0.1-0.5c0-0.1,0-0.1,0.1-0.2c0-0.1,0-0.1,0-0.1"/>
				</g>
			</g>
		</g>
	</g>
	<g>
		<g>
			<path fill="none" stroke="#0000FF" stroke-miterlimit="10" d="M53.3,49.3"/>
		</g>
	</g>
</g>
<g id="leaf">
	<g>
		<path fill="#A8CF38" stroke="#010101" stroke-width="0.5" stroke-linecap="round" stroke-linejoin="round" d="M51.5,25.4
			c0,0-2.5-4.3-2.1-6.5l0.6,0.2c0,0-0.5-0.6,0.1-3.3l0.5,0.4c0,0-0.4-1.3,0.4-3l0.5,0.4c0,0,0.2-1.2,0.7-2.4l0.5,0.3
			c0,0-0.1-1.4,0.4-2.4l0.5,0.4c0,0,0.2-1.8,1.2-2.2l0.1,0.4c0,0,0.7-1.1,1.7-1.7L57,6.7c0,0,0-1.1,1.2-1.6l0.3,0.4
			c0,0,0.1-1.5,1.3-1.7l0.3,0.7c0,0,2-1.9,2.5-2l0.7,0.4c0.1,0.3,0,3.2,0,3.2l0.8-0.2C64.7,7,63.6,8,63.6,8l0.5,0
			c0.4,1.3-0.5,2-0.5,2l0.7,0.1c0.1,1.2-0.3,2.4-0.3,2.4l0.4-0.1c0.3,1-1,2.2-1,2.2l0.6,0.1c-0.5,1-1.7,1.8-1.7,1.8l0.6,0.2
			c-0.7,1.1-1.5,2-1.5,2l0.6,0.1C61.3,20.5,60,21,60,21l0.6,0.1c-1.7,2.1-2.5,2-2.5,2l0.5,0.3c-1.5,1.6-6.4,2.2-6.4,2.2L51.5,25.4z"
			/>
		<path fill="#A8CF38" stroke="#010101" stroke-width="0.5" stroke-linecap="round" stroke-linejoin="round" d="M52,25.6
			c0,0-2.5-4.3-2.1-6.5l0.6,0.2c0,0-0.5-0.6,0.1-3.3l0.5,0.4c0,0-0.4-1.3,0.4-3l0.5,0.4c0,0,0.2-1.2,0.7-2.4l0.5,0.3
			c0,0-0.1-1.4,0.4-2.4L54,9.9c0,0,0.2-1.8,1.2-2.2l0.1,0.4c0,0,0.7-1.1,1.7-1.7l0.5,0.5c0,0,0-1.1,1.2-1.6L59,5.7
			c0,0,0.1-1.5,1.3-1.7l0.3,0.7c0,0,2-1.9,2.5-2l0.7,0.4c0.1,0.3,0,3.2,0,3.2l0.8-0.2c0.5,1.1-0.6,2.1-0.6,2.1l0.5,0
			c0.4,1.3-0.5,2-0.5,2l0.7,0.1c0.1,1.2-0.3,2.4-0.3,2.4l0.4-0.1c0.3,1-1,2.2-1,2.2l0.6,0.1c-0.5,1-1.7,1.8-1.7,1.8l0.6,0.2
			c-0.7,1.1-1.5,2-1.5,2l0.6,0.1c-0.8,1.7-2.1,2.2-2.1,2.2l0.6,0.1c-1.7,2.1-2.5,2-2.5,2l0.5,0.3c-1.5,1.6-6.4,2.2-6.4,2.2L52,25.6z
			"/>
		
			<line fill="none" stroke="#010101" stroke-width="0.5" stroke-linecap="round" stroke-linejoin="round" x1="63.3" y1="3.1" x2="52.2" y2="25.7"/>
		<g>
			
				<line fill="none" stroke="#010101" stroke-width="0.5" stroke-linecap="round" stroke-linejoin="round" x1="60.7" y1="4.4" x2="61.1" y2="6.3"/>
			
				<line fill="none" stroke="#010101" stroke-width="0.5" stroke-linecap="round" stroke-linejoin="round" x1="59" y1="5.8" x2="60.1" y2="8"/>
			
				<line fill="none" stroke="#010101" stroke-width="0.5" stroke-linecap="round" stroke-linejoin="round" x1="57.6" y1="6.8" x2="59" y2="9.7"/>
			
				<line fill="none" stroke="#010101" stroke-width="0.5" stroke-linecap="round" stroke-linejoin="round" x1="55.3" y1="8" x2="57.7" y2="11.4"/>
			
				<line fill="none" stroke="#010101" stroke-width="0.5" stroke-linecap="round" stroke-linejoin="round" x1="54.1" y1="9.7" x2="57.1" y2="13.3"/>
			
				<line fill="none" stroke="#010101" stroke-width="0.5" stroke-linecap="round" stroke-linejoin="round" x1="53" y1="11.8" x2="56" y2="15.1"/>
			
				<line fill="none" stroke="#010101" stroke-width="0.5" stroke-linecap="round" stroke-linejoin="round" x1="51.8" y1="13.7" x2="54.4" y2="17.2"/>
			
				<line fill="none" stroke="#010101" stroke-width="0.5" stroke-linecap="round" stroke-linejoin="round" x1="51" y1="16.4" x2="54" y2="20.2"/>
			
				<line fill="none" stroke="#010101" stroke-width="0.5" stroke-linecap="round" stroke-linejoin="round" x1="50.4" y1="19.2" x2="52.9" y2="23.3"/>
		</g>
		<g>
			
				<line fill="none" stroke="#010101" stroke-width="0.5" stroke-linecap="round" stroke-linejoin="round" x1="64.2" y1="6.1" x2="62.5" y2="6.9"/>
			
				<line fill="none" stroke="#010101" stroke-width="0.5" stroke-linecap="round" stroke-linejoin="round" x1="64.1" y1="8.3" x2="61.8" y2="8.8"/>
			
				<line fill="none" stroke="#010101" stroke-width="0.5" stroke-linecap="round" stroke-linejoin="round" x1="64.2" y1="10.1" x2="61.1" y2="10.7"/>
			
				<line fill="none" stroke="#010101" stroke-width="0.5" stroke-linecap="round" stroke-linejoin="round" x1="64.6" y1="12.7" x2="60.5" y2="12.8"/>
			
				<line fill="none" stroke="#010101" stroke-width="0.5" stroke-linecap="round" stroke-linejoin="round" x1="64" y1="14.6" x2="59.3" y2="14.4"/>
			
				<line fill="none" stroke="#010101" stroke-width="0.5" stroke-linecap="round" stroke-linejoin="round" x1="63" y1="16.8" x2="58.6" y2="16.4"/>
			
				<line fill="none" stroke="#010101" stroke-width="0.5" stroke-linecap="round" stroke-linejoin="round" x1="62.2" y1="18.8" x2="57.9" y2="18.9"/>
			
				<line fill="none" stroke="#010101" stroke-width="0.5" stroke-linecap="round" stroke-linejoin="round" x1="60.7" y1="21.2" x2="55.8" y2="21.1"/>
			
				<line fill="none" stroke="#010101" stroke-width="0.5" stroke-linecap="round" stroke-linejoin="round" x1="58.8" y1="23.3" x2="54" y2="23.8"/>
		</g>
		<path fill="#FFFFFF" stroke="#010101" stroke-width="0.5" stroke-linecap="round" stroke-linejoin="round" d="M65.2,10.4
			c0,0-1.6,0.4-1.2,1.3c0,0-2,0.3-1.1,1.9c0,0,0.5,1.1,1.4,0.7c0,0-0.5,0.9,0.3,0.7c0.8-0.2,0.6-0.2,0.6-0.2"/>
		<path fill="#FFFFFF" stroke="#010101" stroke-width="0.5" stroke-miterlimit="10" d="M54.5,12.6c-0.1,0.4-0.3,0.7-0.4,1
			c0.4,0.3,1-0.4,1.2-0.7c-0.2,0.6-0.1,1.8,0.7,1c-0.1,0.6,0.2,0.7,0.6,0.9c-0.1,0.5-0.6,0.6-0.9,1c-0.2,0.2-0.3,0.5-0.4,0.8
			c-0.3-0.2-0.3-0.6-0.6-0.8c-0.2,0.1-0.7,0.9-1,0.8c-0.3,0-0.5-0.7-0.8-0.8c0.1-0.3,0.3-0.6,0.4-0.9c-0.1-0.1-0.1-0.1-0.1-0.1
			c0.1-0.4,0.8-2.3,1.2-1.8"/>
		<path fill="#FFFFFF" stroke="#010101" stroke-width="0.5" stroke-miterlimit="10" d="M60.1,8.3c0.5-0.4,0.5-1,1.2-1.3
			c0.1,0.2-0.1,0.8,0.1,0.9c0.4,0.3,1-0.4,1.3-0.7c-0.1,0.1-0.3,0.7-0.3,0.8c0.2,0.4,0.7,0.1,1,0.1c-0.2,0.6-0.7,1-1,1.6
			c-0.2,0.4-0.2,0.7-0.4,1.1c-0.7-0.2-1.1-0.7-1.2-1.4c-0.2,0.4-0.9,1.8-1,0.7c-0.1-0.7,0.5-1.3,0.5-2"/>
		<path fill="#FFFFFF" stroke="#010101" stroke-width="0.5" stroke-miterlimit="10" d="M59.3,17.6c0,0.4-0.6,0.9-0.6,1.3
			c0,0.5,0.7,0.9,1.2,1c-0.6,0.2-1.2,0.5-1.4,1.1c0.3,0.3,0.6,0.4,0.9,0.5c-0.3,0.1-1.6,0.8-0.8,1.1c-0.2,0.5-1.6-0.2-1.9-0.5
			c-0.7-0.6-0.5-1.4-0.1-2.2c0.5-1.1,1.4-2.3,2.8-2"/>
	</g>
</g>
<g id="water">
	<g>
		<path fill="#55C2E2" stroke="#070707" stroke-width="0.5" stroke-miterlimit="10" d="M75,25c0,0-10.4,12-1.2,14.8
			c0,0,7.5-0.2,4.2-8.9C78,30.8,75.1,27.5,75,25z"/>
		<path fill="none" stroke="#3A97AD" stroke-miterlimit="10" d="M74.4,38.8c1.5,0.7,3.9-3,3.7-4.3"/>
		
			<ellipse transform="matrix(0.6127 0.7903 -0.7903 0.6127 57.3976 -43.3209)" opacity="0.8" fill="#FFFFFF" enable-background="new    " cx="72.9" cy="36.9" rx="1.7" ry="1.4"/>
		<path opacity="0.8" fill="#FFFFFF" enable-background="new    " d="M71.9,30.3c0,0,1.4-3.3,3-4.2"/>
	</g>
	<g>
		<path fill="#55C2E2" stroke="#070707" stroke-width="0.5" stroke-miterlimit="10" d="M23.9,45.2c0,0-10.4,12-1.2,14.8
			c0,0,7.5-0.2,4.2-8.9C26.9,51,24.1,47.7,23.9,45.2z"/>
		<path fill="none" stroke="#3A97AD" stroke-miterlimit="10" d="M23.3,58.9c1.5,0.7,3.9-3,3.7-4.3"/>
		
			<ellipse transform="matrix(0.6127 0.7903 -0.7903 0.6127 53.551 4.8675)" opacity="0.8" fill="#FFFFFF" enable-background="new    " cx="21.8" cy="57.1" rx="1.7" ry="1.4"/>
		<path opacity="0.8" fill="#FFFFFF" enable-background="new    " d="M20.9,50.4c0,0,1.4-3.3,3-4.2"/>
	</g>
	<g>
		<path fill="#55C2E2" stroke="#070707" stroke-width="0.5" stroke-miterlimit="10" d="M77.8,48.1c0,0-6.3,7.2-0.7,8.9
			c0,0,4.5-0.1,2.5-5.4C79.6,51.6,77.9,49.6,77.8,48.1z"/>
		<path fill="none" stroke="#3A97AD" stroke-miterlimit="10" d="M77.4,56.4c0.9,0.4,2.3-1.8,2.2-2.6"/>
		
			<ellipse transform="matrix(0.6125 0.7905 -0.7905 0.6125 73.9076 -38.6952)" opacity="0.8" fill="#FFFFFF" enable-background="new    " cx="76.4" cy="56" rx="0.6" ry="0.5"/>
		<path opacity="0.8" fill="#FFFFFF" enable-background="new    " d="M76,51.3c0,0,0.8-2,1.8-2.5"/>
	</g>
	<g>
		<path fill="#55C2E2" stroke="#070707" stroke-width="0.5" stroke-miterlimit="10" d="M72.1,87.3c0,0-6.3,7.2-0.7,8.9
			c0,0,4.5-0.1,2.5-5.4C73.9,90.9,72.2,88.8,72.1,87.3z"/>
		<path fill="none" stroke="#3A97AD" stroke-miterlimit="10" d="M71.8,95.6c0.9,0.4,2.3-1.8,2.2-2.6"/>
		
			<ellipse transform="matrix(0.6127 0.7903 -0.7903 0.6127 102.7008 -18.9936)" opacity="0.8" fill="#FFFFFF" enable-background="new    " cx="70.7" cy="95.3" rx="0.6" ry="0.5"/>
		<path opacity="0.8" fill="#FFFFFF" enable-background="new    " d="M70.3,90.5c0,0,0.8-2,1.8-2.5"/>
	</g>
	<g>
		<path fill="#55C2E2" stroke="#070707" stroke-width="0.5" stroke-miterlimit="10" d="M34,87.7c0,0-3.9,4.5-0.5,5.5
			c0,0,2.8-0.1,1.6-3.3C35.2,89.9,34.1,88.7,34,87.7z"/>
		<path fill="none" stroke="#3A97AD" stroke-miterlimit="10" d="M33.8,92.9c0.5,0.3,1.5-1.1,1.4-1.6"/>
		
			<ellipse transform="matrix(0.6123 0.7906 -0.7906 0.6123 85.7158 9.6074)" opacity="0.8" fill="#FFFFFF" enable-background="new    " cx="33.1" cy="92.2" rx="0.3" ry="0.3"/>
		<path opacity="0.8" fill="#FFFFFF" enable-background="new    " d="M32.9,89.7c0,0,0.5-1.3,1.1-1.6"/>
	</g>
	<g>
		<path fill="#55C2E2" stroke="#070707" stroke-width="0.5" stroke-miterlimit="10" d="M33.6,34.1c0,0-3.9,4.5-0.5,5.5
			c0,0,2.8-0.1,1.6-3.3C34.7,36.3,33.6,35.1,33.6,34.1z"/>
		<path fill="none" stroke="#3A97AD" stroke-miterlimit="10" d="M33.3,39.3c0.5,0.3,1.5-1.1,1.4-1.6"/>
		
			<ellipse transform="matrix(0.6126 0.7904 -0.7904 0.6126 43.1553 -10.8352)" opacity="0.8" fill="#FFFFFF" enable-background="new    " cx="32.6" cy="38.6" rx="0.3" ry="0.3"/>
		<path opacity="0.8" fill="#FFFFFF" enable-background="new    " d="M32.4,36.1c0,0,0.5-1.3,1.1-1.6"/>
	</g>
</g>
<g id="eyes">
	<path fill="#FF9900" stroke="#010101" stroke-width="0.5" stroke-miterlimit="10" d="M44.2,30.6c0,0,2.9-4.3,5.2-2.4
		c0,0-0.5,5.5-5.5,3L44.2,30.6z"/>
	<path fill="#FF9900" stroke="#010101" stroke-width="0.5" stroke-miterlimit="10" d="M60.8,30.7c0,0-2.8-4.2-5.1-2.3
		c0,0,0.5,5.3,5.3,2.9L60.8,30.7z"/>
</g>
</svg>
