<?xml version="1.0" encoding="utf-8"?>
<!-- Generator: Adobe Illustrator 17.1.0, SVG Export Plug-In . SVG Version: 6.00 Build 0)  -->
<!DOCTYPE svg PUBLIC "-//W3C//DTD SVG 1.1//EN" "http://www.w3.org/Graphics/SVG/1.1/DTD/svg11.dtd">
<svg version="1.1" id="Layer_1" xmlns="http://www.w3.org/2000/svg" xmlns:xlink="http://www.w3.org/1999/xlink" x="0px" y="0px"
	 viewBox="0 0 100 100" enable-background="new 0 0 100 100" xml:space="preserve">
<pattern  y="100" width="2.5" height="2.5" patternUnits="userSpaceOnUse" id="SVGID_5_" viewBox="0 -2.5 2.5 2.5" overflow="visible">
	<g>
		<polygon fill="none" points="0,0 2.5,0 2.5,-2.5 0,-2.5 		"/>
		<g>
			<polygon fill="none" points="0,-2.5 2.5,-2.5 2.5,0 0,0 			"/>
			<g>
				<polygon fill="none" points="0,0 2.5,0 2.5,-2.5 0,-2.5 				"/>
				<g>
					<polygon fill="none" points="2.5,-2.5 0,-2.5 0,0 2.5,0 					"/>
					<g>
						<path fill="#010101" d="M1.4-1.2c0-0.1-0.1-0.2-0.2-0.2S1-1.3,1-1.2S1.2-1,1.3-1C1.4-1,1.4-1.1,1.4-1.2z"/>
					</g>
				</g>
			</g>
		</g>
	</g>
</pattern>
<pattern  y="100" width="2.5" height="2.5" patternUnits="userSpaceOnUse" id="SVGID_6_" viewBox="0 -2.5 2.5 2.5" overflow="visible">
	<g>
		<polygon fill="none" points="0,0 2.5,0 2.5,-2.5 0,-2.5 		"/>
		<g>
			<polygon fill="none" points="0,-2.5 2.5,-2.5 2.5,0 0,0 			"/>
			<g>
				<polygon fill="none" points="0,0 2.5,0 2.5,-2.5 0,-2.5 				"/>
				<g>
					<polygon fill="none" points="2.5,-2.5 0,-2.5 0,0 2.5,0 					"/>
					<g>
						<path fill="#010101" d="M1.4-1.2c0-0.1-0.1-0.2-0.2-0.2S1-1.3,1-1.2S1.2-1,1.3-1C1.4-1,1.4-1.1,1.4-1.2z"/>
					</g>
				</g>
			</g>
		</g>
	</g>
</pattern>
<pattern  y="100" width="5" height="5" patternUnits="userSpaceOnUse" id="SVGID_7" viewBox="0 -5 5 5" overflow="visible">
	<g>
		<polygon fill="none" points="0,-5 5,-5 5,0 0,0 		"/>
		<path fill="#010101" d="M3.1-2.3c0-0.4-0.4-0.8-0.8-0.8S1.6-2.7,1.6-2.3s0.8,0.8,1.1,0.8C3.1-1.6,3.1-1.9,3.1-2.3z"/>
	</g>
</pattern>
<pattern  y="100" width="2.5" height="2.5" patternUnits="userSpaceOnUse" id="SVGID_8" viewBox="4.5 -7 2.5 2.5" overflow="visible">
	<g>
		<polygon fill="none" points="4.5,-7 7,-7 7,-4.5 4.5,-4.5 		"/>
		<g>
			<polygon fill="none" points="5,0 11.5,0 11.5,-6.5 5,-6.5 			"/>
			<g>
				<polygon fill="none" points="11.5,-6.5 5,-6.5 5,0 11.5,0 				"/>
			</g>
		</g>
		<g>
			<polygon fill="none" points="2.5,0 9,0 9,-6.5 2.5,-6.5 			"/>
			<g>
				<polygon fill="none" points="9,-6.5 2.5,-6.5 2.5,0 9,0 				"/>
			</g>
		</g>
		<g>
			<polygon fill="none" points="0,0 6.5,0 6.5,-6.5 0,-6.5 			"/>
			<g>
				<polygon fill="none" points="6.5,-6.5 0,-6.5 0,0 6.5,0 				"/>
			</g>
		</g>
		<g>
			<polygon fill="none" points="5,-2.5 11.5,-2.5 11.5,-9 5,-9 			"/>
			<g>
				<polygon fill="none" points="11.5,-9 5,-9 5,-2.5 11.5,-2.5 				"/>
			</g>
		</g>
		<g>
			<polygon fill="none" points="2.5,-2.5 9,-2.5 9,-9 2.5,-9 			"/>
			<g>
				<polygon fill="none" points="9,-9 2.5,-9 2.5,-2.5 9,-2.5 				"/>
				<path fill="#010101" d="M6.1-5.6c0-0.3-0.3-0.5-0.5-0.5S5.1-5.9,5.1-5.6s0.5,0.5,0.8,0.5C6.1-5.1,6.1-5.4,6.1-5.6z"/>
			</g>
		</g>
		<g>
			<polygon fill="none" points="0,-2.5 6.5,-2.5 6.5,-9 0,-9 			"/>
			<g>
				<polygon fill="none" points="6.5,-9 0,-9 0,-2.5 6.5,-2.5 				"/>
			</g>
		</g>
		<g>
			<polygon fill="none" points="5,-5 11.5,-5 11.5,-11.5 5,-11.5 			"/>
			<g>
				<polygon fill="none" points="11.5,-11.5 5,-11.5 5,-5 11.5,-5 				"/>
			</g>
		</g>
		<g>
			<polygon fill="none" points="2.5,-5 9,-5 9,-11.5 2.5,-11.5 			"/>
			<g>
				<polygon fill="none" points="9,-11.5 2.5,-11.5 2.5,-5 9,-5 				"/>
			</g>
		</g>
		<g>
			<polygon fill="none" points="0,-5 6.5,-5 6.5,-11.5 0,-11.5 			"/>
			<g>
				<polygon fill="none" points="6.5,-11.5 0,-11.5 0,-5 6.5,-5 				"/>
			</g>
		</g>
	</g>
</pattern>
<g id="legs">
	<path fill="#FFFFFF" stroke="#010101" stroke-miterlimit="10" d="M31.9,41.2c0,0,3.5-0.4,5.6,0.3L37.2,43l1.4-2.2
		c0.1-0.1,0.8-0.8,2.2-0.8c0.6,0,1.3,0.9,2.1,1.4l1-1.5c-1.1-0.7-2.1-1-3.1-1c-1.4,0-2.5,1.2-3.3,1.8C37.5,40.7,34.7,40.1,31.9,41.2
		"/>
	<path fill="#FFFFFF" stroke="#010101" stroke-miterlimit="10" d="M44.1,39.3c0,0-2.3,0-2.1,1c0.1,1,0.4,1.5,1.4,1.4L44.1,39.3z"/>
	<path fill="#FFFFFF" stroke="#010101" stroke-miterlimit="10" d="M67.5,42c0,0-3.5-0.4-5.6,0.3l0.3,1.6l-1.4-2.1
		C60.7,41.7,60,41,58.6,41c-0.6,0-1.3,0.9-2.1,1.4l-1-1.5c1.1-0.7,2.1-1,3.1-1c1.4,0,2.5,1.2,3.3,1.8C61.9,41.6,64.7,40.9,67.5,42"
		/>
	<path fill="#FFFFFF" stroke="#010101" stroke-miterlimit="10" d="M55.7,40.1c0,0,2.3,0,2.1,1c-0.1,1-0.4,1.5-1.4,1.4L55.7,40.1z"/>
	<path fill="#FFFFFF" stroke="#010101" stroke-miterlimit="10" d="M58.6,45.4l5.2,4.2c0,0-0.7-0.1-1.1-0.2c0,0,3.7,6,1.8,9.3
		c0,0,0.5-4.7-1.9-8.4c0,0,0.7,2.2,0.2,2.6c0,0,0.1-2.1-1.7-4.3L58.8,47L58.6,45.4z"/>
	<path fill="#FFFFFF" stroke="#010101" stroke-miterlimit="10" d="M56.7,44.3c0,0,2.6,0.2,2.6,1.2c0,0.5-0.1,1-0.3,1.3
		c-0.3,0.3-0.6,0.5-1.2,0.4C57.7,47.2,56.3,44.7,56.7,44.3z"/>
	<path fill="#FFFFFF" stroke="#010101" stroke-miterlimit="10" d="M41.4,45.3l-5.2,4.2c0,0,0.7-0.1,1.1-0.2c0,0-3.7,6-1.8,9.3
		c0,0-0.5-4.7,1.9-8.4c0,0-0.7,2.2-0.2,2.6c0,0-0.1-2.1,1.7-4.3l2.3-1.6L41.4,45.3z"/>
	<path fill="#FFFFFF" stroke="#010101" stroke-miterlimit="10" d="M43.3,44.1c0,0-2.6,0.2-2.6,1.2c0,0.5,0.1,1,0.3,1.3
		c0.3,0.3,0.6,0.5,1.2,0.4C42.3,47.1,43.7,44.5,43.3,44.1z"/>
	<path fill="#FFFFFF" stroke="#010101" stroke-miterlimit="10" d="M55.3,32.1l4.3-5.1c0,0-0.1,0.7-0.2,1.1c0,0,6.1-3.6,9.4-1.6
		c0,0-4.7-0.6-8.5,1.7c0,0,2.2-0.7,2.6-0.1c0,0-2.1-0.1-4.3,1.6L56.8,32L55.3,32.1z"/>
	<path fill="#FFFFFF" stroke="#010101" stroke-miterlimit="10" d="M56.4,34.5c0,0,0.9-2.4-0.1-2.8c-0.5-0.2-0.9-0.3-1.3-0.2
		c-0.4,0.1-0.7,0.4-0.9,0.9C54.1,32.4,55.9,34.6,56.4,34.5z"/>
	<path fill="#FFFFFF" stroke="#010101" stroke-miterlimit="10" d="M45.4,31.9L41,26.8c0,0,0.1,0.7,0.2,1.1c0,0-6.1-3.6-9.4-1.6
		c0,0,4.7-0.6,8.5,1.7c0,0-2.2-0.7-2.6-0.1c0,0,2.1-0.1,4.3,1.6l1.6,2.2L45.4,31.9z"/>
	<path fill="#FFFFFF" stroke="#010101" stroke-miterlimit="10" d="M44.1,34.3c0,0-0.9-2.4,0.1-2.8c0.5-0.2,0.9-0.3,1.3-0.2
		c0.4,0.1,0.7,0.4,0.9,0.9C46.4,32.2,44.7,34.4,44.1,34.3z"/>
	<path fill="#FFFFFF" stroke="#010101" stroke-miterlimit="10" d="M31.2,40.5"/>
</g>
<g id="basebody">
	<path fill="#FFFFFF" stroke="#010101" stroke-miterlimit="10" d="M46,31.8c0,0-0.5-2.8,1.1-3.5s2-1,2-1s1-0.7,2.2,0
		c0,0,0.3,0.3,2,1c1.6,0.7,1.1,3.5,1.1,3.5S50.2,35.6,46,31.8z"/>
	<path fill="#FFFFFF" stroke="#010101" stroke-miterlimit="10" d="M54.4,38.2c0,0,3.6,1,1.2,4.8c0,0,3.5,2.9,0.8,5.9
		c0,0,3.6,1.5,1,4.7c0,0,3.7,1.6,0.9,6.3c0,0,3.3,3,0.5,6.5c0,0,4.2,2.8,1.1,6.3c0,0,3,2.9,0.5,7.2c0,0,1.7,3.8-0.8,5.3
		c0,0,0.6,3.1-1.8,3.8c0,0,0.5,4.3-2.6,4.3c0,0-0.9,4.6-5.3,4.9h-0.2c-4.4-0.3-5.3-4.9-5.3-4.9c-3,0-2.6-4.3-2.6-4.3
		c-2.4-0.7-1.8-3.8-1.8-3.8c-2.5-1.5-0.8-5.3-0.8-5.3c-2.5-4.3,0.5-7.2,0.5-7.2c-3.1-3.5,1.1-6.3,1.1-6.3c-2.8-3.5,0.5-6.5,0.5-6.5
		c-2.8-4.7,0.9-6.3,0.9-6.3c-2.6-3.3,1-4.7,1-4.7C40.5,45.9,44,43,44,43c-2.4-3.8,1.2-4.8,1.2-4.8S50.6,40.8,54.4,38.2z"/>
	<path fill="#FFFFFF" stroke="#000000" stroke-miterlimit="10" d="M54.3,38.2c0,0,3.6,1,1.2,4.8c0,0,3.5,2.9,0.8,5.9
		c0,0,3.6,1.5,1,4.7c0,0,3.7,1.6,0.9,6.3c0,0,3.3,3,0.5,6.5c0,0,4.2,2.8,1.1,6.3c0,0,3,2.9,0.5,7.2c0,0,1.7,3.8-0.8,5.3
		c0,0,0.6,3.1-1.8,3.8c0,0,0.5,4.3-2.6,4.3c0,0-0.9,4.6-5.3,4.9h-0.2c-4.4-0.3-5.3-4.9-5.3-4.9c-3,0-2.6-4.3-2.6-4.3
		c-2.4-0.7-1.8-3.8-1.8-3.8c-2.5-1.5-0.8-5.3-0.8-5.3c-2.5-4.3,0.5-7.2,0.5-7.2c-3.1-3.5,1.1-6.3,1.1-6.3c-2.8-3.5,0.5-6.5,0.5-6.5
		c-2.8-4.7,0.9-6.3,0.9-6.3c-2.6-3.3,1-4.7,1-4.7c-2.7-3,0.8-5.9,0.8-5.9c-2.4-3.8,1.2-4.8,1.2-4.8S50.6,40.8,54.3,38.2z"/>
	<path fill="none" stroke="#010101" stroke-width="0.5" stroke-miterlimit="10" d="M44.4,43c0,0,5.8,1.2,11.2,0"/>
	<path fill="#FFFFFF" stroke="#010101" stroke-miterlimit="10" d="M50.2,43.4c-4,0-7.3-2.6-7.3-5.9c0-3.3,3.3-5.9,7.3-5.9
		s7.3,2.6,7.3,5.9C57.4,40.7,54.2,43.4,50.2,43.4z"/>
	<path fill="none" stroke="#010101" stroke-width="0.5" stroke-miterlimit="10" d="M40.2,85.3c0,0,9,1.9,19.5,0"/>
	<path fill="none" stroke="#010101" stroke-width="0.5" stroke-miterlimit="10" d="M39.5,80.1c0,0,11.1,3,21,0"/>
	<path fill="none" stroke="#010101" stroke-width="0.5" stroke-miterlimit="10" d="M40,72.9c0,0,10.4,2.6,19.9,0"/>
	<path fill="none" stroke="#010101" stroke-width="0.5" stroke-miterlimit="10" d="M41.1,66.6c0,0,8.1,2.4,17.7,0"/>
	<path fill="none" stroke="#010101" stroke-width="0.5" stroke-miterlimit="10" d="M41.6,60.1c0,0,8.3,2.4,16.7,0"/>
	<path fill="none" stroke="#010101" stroke-width="0.5" stroke-miterlimit="10" d="M42.6,53.8c0,0,7.7,1.8,14.8,0"/>
	<path fill="none" stroke="#010101" stroke-width="0.5" stroke-miterlimit="10" d="M43.6,49.1c0,0,6.2,1.1,12.8,0"/>
	<path fill="none" stroke="#010101" stroke-width="0.5" stroke-miterlimit="10" d="M42,89c0,0,6.6,2.6,16,0"/>
	<path fill="none" stroke="#010101" stroke-width="0.5" stroke-miterlimit="10" d="M44.8,93.2c0,0,4.7,2.1,10.4,0"/>
	<g id="bodycolor">
		<path fill="#D0DD28" stroke="#010101" stroke-miterlimit="10" d="M46,31.8c0,0-0.5-2.8,1.1-3.5s2-1,2-1s1-0.7,2.2,0
			c0,0,0.3,0.3,2,1c1.6,0.7,1.1,3.5,1.1,3.5S50.3,35.6,46,31.8z"/>
		<path fill="#FFFFFF" stroke="#010101" stroke-miterlimit="10" d="M54.4,38.2c0,0,3.6,1,1.2,4.8c0,0,3.5,2.9,0.8,5.9
			c0,0,3.6,1.5,1,4.7c0,0,3.7,1.6,0.9,6.3c0,0,3.3,3,0.5,6.5c0,0,4.2,2.8,1.1,6.3c0,0,3,2.9,0.5,7.2c0,0,1.7,3.8-0.8,5.3
			c0,0,0.6,3.1-1.8,3.8c0,0,0.5,4.3-2.6,4.3c0,0-0.9,4.6-5.3,4.9H50c-4.4-0.3-5.3-4.9-5.3-4.9c-3,0-2.6-4.3-2.6-4.3
			c-2.4-0.7-1.8-3.8-1.8-3.8c-2.5-1.5-0.8-5.3-0.8-5.3C37,75.6,40,72.7,40,72.7c-3.1-3.5,1.1-6.3,1.1-6.3c-2.8-3.5,0.5-6.5,0.5-6.5
			c-2.8-4.7,0.9-6.3,0.9-6.3c-2.6-3.3,1-4.7,1-4.7c-2.7-3,0.8-5.9,0.8-5.9c-2.4-3.8,1.2-4.8,1.2-4.8S50.7,40.8,54.4,38.2z"/>
		<path fill="#6CBE45" stroke="#010101" stroke-miterlimit="10" d="M54.3,38.2c0,0,3.6,1,1.2,4.8c0,0,3.5,2.9,0.8,5.9
			c0,0,3.6,1.5,1,4.7c0,0,3.7,1.6,0.9,6.3c0,0,3.3,3,0.5,6.5c0,0,4.2,2.8,1.1,6.3c0,0,3,2.9,0.5,7.2c0,0,1.7,3.8-0.8,5.3
			c0,0,0.6,3.1-1.8,3.8c0,0,0.5,4.3-2.6,4.3c0,0-0.9,4.6-5.3,4.9h-0.2c-4.4-0.3-5.3-4.9-5.3-4.9c-3,0-2.6-4.3-2.6-4.3
			c-2.4-0.7-1.8-3.8-1.8-3.8c-2.5-1.5-0.8-5.3-0.8-5.3C37,75.6,40,72.7,40,72.7c-3.1-3.5,1.1-6.3,1.1-6.3c-2.8-3.5,0.5-6.5,0.5-6.5
			c-2.8-4.7,0.9-6.3,0.9-6.3c-2.6-3.3,1-4.7,1-4.7c-2.7-3,0.8-5.9,0.8-5.9c-2.4-3.8,1.2-4.8,1.2-4.8S50.6,40.8,54.3,38.2z"/>
		<path fill="none" stroke="#010101" stroke-width="0.5" stroke-miterlimit="10" d="M44.5,43c0,0,5.8,1.2,11.2,0"/>
		<path fill="#D0DD28" stroke="#010101" stroke-miterlimit="10" d="M50.2,43.4c-4,0-7.3-2.6-7.3-5.9c0-3.3,3.3-5.9,7.3-5.9
			s7.3,2.6,7.3,5.9C57.5,40.7,54.2,43.4,50.2,43.4z"/>
	</g>
</g>
<g id="eyes">
	<path fill="#FF9900" stroke="#010101" stroke-width="0.5" stroke-miterlimit="10" d="M46.6,29.4c0,0,1.5-3.5,2.8-1.9
		c0,0-0.3,4.3-2.9,2.3L46.6,29.4z"/>
	<path fill="#FF9900" stroke="#010101" stroke-width="0.5" stroke-miterlimit="10" d="M53.9,29.4c0,0-1.6-3.5-2.9-1.9
		c0,0,0.3,4.3,3,2.3L53.9,29.4z"/>
</g>
<g id="antennae">
	<path fill="none" stroke="#010101" stroke-miterlimit="10" d="M52.5,27.5c0,0,2.8-9,7.2-9"/>
	<path fill="none" stroke="#010101" stroke-miterlimit="10" d="M48,27.3c0,0-2.8-8.9-7.2-8.9"/>
</g>
<g id="markings">
	<path fill="#010101" d="M50.1,83.2c0.3,2.5-0.8,4.1-3.3,4c-2.6-0.1-4.6-1.3-4.7-4c-0.1-2.1-0.3-5.1,2.2-5.8
		C44.2,77.4,50.2,78.7,50.1,83.2z"/>
	<path fill="#010101" d="M48.7,59.7c-0.3,2.5,0.8,4.1,3.3,4c2.6-0.1,4.6-1.3,4.7-4c0.1-2.1,0.3-5.1-2.2-5.8
		C54.6,53.9,48.7,55.2,48.7,59.7z"/>
</g>
<g id="dots">
	<pattern  id="SVGID_1_" xlink:href="#SVGID_5_" patternTransform="matrix(0.2878 0 0 -0.2878 -17435.5801 -15213.6943)">
	</pattern>
	<path fill="url(#SVGID_1_)" stroke="#010101" stroke-miterlimit="10" d="M48.9,88"/>
	<pattern  id="SVGID_2_" xlink:href="#SVGID_6_" patternTransform="matrix(0.2878 0 0 -0.2878 -17435.5801 -15213.6943)">
	</pattern>
	<path fill="url(#SVGID_2_)" stroke="#010101" stroke-miterlimit="10" d="M48.9,88"/>
	<pattern  id="SVGID_3_" xlink:href="#SVGID_7" patternTransform="matrix(0.2878 0 0 -0.2878 -17435.5801 -15216.9141)">
	</pattern>
	<path fill="url(#SVGID_3_)" stroke="#010101" stroke-miterlimit="10" d="M55.5,43c0,0,3.5,2.9,0.8,5.9c0,0,3.6,1.5,1,4.7
		c0,0,3.7,1.6,0.9,6.3c0,0,3.3,3,0.5,6.5c0,0,4.2,2.8,1.1,6.3c0,0,3,2.9,0.5,7.2c0,0,1.7,3.8-0.8,5.3c0,0,0.6,3.1-1.8,3.8
		c0,0,0.5,4.3-2.6,4.3c0,0-0.9,4.6-5.3,4.9h-0.2c-4.4-0.3-5.3-4.9-5.3-4.9c-3,0-2.6-4.3-2.6-4.3c-2.4-0.7-1.8-3.8-1.8-3.8
		c-2.5-1.5-0.8-5.3-0.8-5.3c-2.5-4.3,0.5-7.2,0.5-7.2c-3.1-3.5,1.1-6.3,1.1-6.3c-2.8-3.5,0.5-6.5,0.5-6.5c-2.8-4.7,0.9-6.3,0.9-6.3
		c-2.6-3.3,1-4.7,1-4.7c-2.7-3,0.8-5.9,0.8-5.9l-0.8-2.7c0,0,3.1,3.4,6.4,3c3.4-0.4,2.8,0.5,6.3-2.3C56.3,41,56,42.9,55.5,43z"/>
	<pattern  id="SVGID_4_" xlink:href="#SVGID_8" patternTransform="matrix(0.2878 0 0 -0.2878 -17432.3809 -15219.4795)">
	</pattern>
	<path fill="url(#SVGID_4_)" stroke="#010101" stroke-miterlimit="10" d="M54.3,38.2"/>
</g>
<g id="fur">
	<g>
		<g>
			<path fill="none" stroke="#0000FF" stroke-miterlimit="10" d="M45.8,37.8"/>
		</g>
	</g>
	<g>
		<g>
			<path fill="none" stroke="#0000FF" stroke-miterlimit="10" d="M45.5,37.8"/>
		</g>
	</g>
	<g>
		<g>
			<path fill="none" stroke="#0000FF" stroke-miterlimit="10" d="M43.3,39.7"/>
		</g>
	</g>
	<g>
		<g>
			<g>
				<g>
					<path fill="none" stroke="#0000FF" stroke-miterlimit="10" d="M56.7,42.5c0,0-0.1,0.3-0.3,0.7c-0.1,0.3-0.3,0.6-0.3,0.6
						s0.3-0.1,0.7-0.1c0.4-0.1,0.7-0.1,0.7-0.1"/>
				</g>
				<g>
					<path fill="none" stroke="#0000FF" stroke-miterlimit="10" d="M57.7,43.8c0,0-0.2,0.3-0.4,0.6s-0.5,0.5-0.5,0.5s0.4,0,0.7,0
						c0.4,0,0.7,0.1,0.7,0.1"/>
				</g>
				<g>
					<path fill="none" stroke="#0000FF" stroke-miterlimit="10" d="M58.4,45.3c0,0-0.3,0.2-0.6,0.4S57.2,46,57.2,46s0.3,0.1,0.7,0.3
						c0.3,0.2,0.6,0.4,0.6,0.4"/>
				</g>
				<g>
					<path fill="none" stroke="#0000FF" stroke-miterlimit="10" d="M58.5,47c0,0-0.3,0.1-0.7,0.2c-0.3,0.1-0.7,0.1-0.7,0.1
						s0.3,0.2,0.5,0.5s0.4,0.6,0.4,0.6"/>
				</g>
				<g>
					<path fill="none" stroke="#0000FF" stroke-miterlimit="10" d="M58.1,48.7c0,0-0.1,0.3-0.2,0.7c-0.1,0.3-0.3,0.6-0.3,0.6
						s0.3-0.1,0.7-0.2c0.4-0.1,0.7,0,0.7,0"/>
				</g>
				<g>
					<path fill="none" stroke="#0000FF" stroke-miterlimit="10" d="M59.2,50.1c0,0-0.2,0.3-0.5,0.5S58.2,51,58.2,51s0.3,0.1,0.7,0.2
						c0.3,0.1,0.7,0.4,0.7,0.4"/>
				</g>
				<g>
					<path fill="none" stroke="#0000FF" stroke-miterlimit="10" d="M59.4,51.8c0,0-0.3,0.1-0.7,0.2S58,52.1,58,52.1s0.3,0.2,0.5,0.5
						s0.5,0.6,0.5,0.6"/>
				</g>
				<g>
					<path fill="none" stroke="#0000FF" stroke-miterlimit="10" d="M59.1,53.5c0,0-0.1,0.3-0.3,0.7c-0.1,0.3-0.3,0.6-0.3,0.6
						s0.3-0.1,0.7-0.1s0.7,0,0.7,0"/>
				</g>
				<g>
					<path fill="none" stroke="#0000FF" stroke-miterlimit="10" d="M60.1,54.9c0,0-0.2,0.3-0.5,0.5s-0.5,0.4-0.5,0.4
						s0.3,0.1,0.7,0.2c0.3,0.1,0.7,0.3,0.7,0.3"/>
				</g>
				<g>
					<path fill="none" stroke="#0000FF" stroke-miterlimit="10" d="M60.5,56.7c0,0-0.3,0.2-0.7,0.3c-0.3,0.1-0.7,0.2-0.7,0.2
						s0.3,0.2,0.6,0.4s0.5,0.5,0.5,0.5"/>
				</g>
				<g>
					<path fill="none" stroke="#0000FF" stroke-miterlimit="10" d="M60.3,58.4c0,0-0.3,0.1-0.7,0.1c-0.3,0-0.7,0-0.7,0
						s0.3,0.3,0.5,0.5c0.2,0.3,0.4,0.6,0.4,0.6"/>
				</g>
				<g>
					<path fill="none" stroke="#0000FF" stroke-miterlimit="10" d="M59.8,59.9c0,0-0.2,0.3-0.4,0.6S59,61.1,59,61.1s0.4,0,0.7,0
						c0.4,0,0.7,0.1,0.7,0.1"/>
				</g>
				<g>
					<path fill="none" stroke="#0000FF" stroke-miterlimit="10" d="M60.6,61.4c0,0-0.2,0.3-0.5,0.5s-0.5,0.5-0.5,0.5
						s0.3,0.1,0.7,0.2c0.3,0.1,0.7,0.3,0.7,0.3"/>
				</g>
				<g>
					<path fill="none" stroke="#0000FF" stroke-miterlimit="10" d="M61,63c0,0-0.3,0.2-0.6,0.3s-0.6,0.3-0.6,0.3s0.3,0.2,0.6,0.4
						c0.3,0.2,0.6,0.5,0.6,0.5"/>
				</g>
				<g>
					<path fill="none" stroke="#0000FF" stroke-miterlimit="10" d="M60.9,64.7c0,0-0.3,0.1-0.7,0.1c-0.3,0-0.7,0-0.7,0
						s0.3,0.3,0.5,0.5c0.2,0.3,0.4,0.6,0.4,0.6"/>
				</g>
				<g>
					<path fill="none" stroke="#0000FF" stroke-miterlimit="10" d="M60.5,66.4c0,0-0.1,0.3-0.3,0.7c-0.1,0.3-0.3,0.6-0.3,0.6
						s0.3-0.1,0.7-0.1c0.4-0.1,0.7-0.1,0.7-0.1"/>
				</g>
				<g>
					<path fill="none" stroke="#0000FF" stroke-miterlimit="10" d="M61.5,67.7c0,0-0.2,0.3-0.4,0.6c-0.2,0.3-0.5,0.5-0.5,0.5
						s0.4,0,0.7,0.1c0.4,0.1,0.7,0.2,0.7,0.2"/>
				</g>
				<g>
					<path fill="none" stroke="#0000FF" stroke-miterlimit="10" d="M62.1,69.4c0,0-0.3,0.2-0.6,0.4c-0.3,0.2-0.6,0.3-0.6,0.3
						s0.3,0.1,0.6,0.3c0.3,0.2,0.6,0.5,0.6,0.5"/>
				</g>
				<g>
					<path fill="none" stroke="#0000FF" stroke-miterlimit="10" d="M62,71.2c0,0-0.3,0.1-0.7,0.1c-0.3,0-0.7,0-0.7,0
						s0.2,0.3,0.5,0.6c0.2,0.3,0.4,0.7,0.4,0.7"/>
				</g>
				<g>
					<path fill="none" stroke="#0000FF" stroke-miterlimit="10" d="M61.5,72.9c0,0-0.2,0.3-0.4,0.6S60.7,74,60.7,74s0.4,0,0.7,0.1
						c0.4,0.1,0.7,0.2,0.7,0.2"/>
				</g>
				<g>
					<path fill="none" stroke="#0000FF" stroke-miterlimit="10" d="M62.3,74.6c0,0-0.3,0.3-0.5,0.5c-0.3,0.2-0.6,0.4-0.6,0.4
						s0.3,0.1,0.7,0.3c0.3,0.2,0.7,0.4,0.7,0.4"/>
				</g>
				<g>
					<path fill="none" stroke="#0000FF" stroke-miterlimit="10" d="M62.6,76.5c0,0-0.3,0.2-0.7,0.3c-0.3,0.1-0.7,0.3-0.7,0.3
						s0.3,0.2,0.6,0.5s0.5,0.5,0.5,0.5"/>
				</g>
				<g>
					<path fill="none" stroke="#0000FF" stroke-miterlimit="10" d="M62.4,78.3c0,0-0.3,0.1-0.7,0.1c-0.3,0.1-0.7,0.1-0.7,0.1
						s0.2,0.3,0.5,0.6c0.2,0.3,0.4,0.7,0.4,0.7"/>
				</g>
				<g>
					<path fill="none" stroke="#0000FF" stroke-miterlimit="10" d="M61.8,80.1c0,0-0.3,0.3-0.5,0.5c-0.3,0.2-0.5,0.5-0.5,0.5
						s0.4,0.1,0.7,0.3c0.3,0.1,0.7,0.3,0.7,0.3"/>
				</g>
				<g>
					<path fill="none" stroke="#0000FF" stroke-miterlimit="10" d="M62.2,82c0,0-0.3,0.2-0.6,0.4c-0.3,0.2-0.7,0.3-0.7,0.3
						s0.3,0.2,0.6,0.4c0.3,0.3,0.5,0.6,0.5,0.6"/>
				</g>
				<g>
					<path fill="none" stroke="#0000FF" stroke-miterlimit="10" d="M62,84c0,0-0.4,0.1-0.7,0.1c-0.4,0-0.7,0-0.7,0s0.2,0.3,0.3,0.7
						c0.1,0.4,0.2,0.8,0.2,0.8"/>
				</g>
				<g>
					<path fill="none" stroke="#0000FF" stroke-miterlimit="10" d="M60.9,85.9c0,0-0.3,0.2-0.7,0.4c-0.3,0.2-0.7,0.3-0.7,0.3
						s0.3,0.2,0.6,0.5s0.5,0.7,0.5,0.7"/>
				</g>
				<g>
					<path fill="none" stroke="#0000FF" stroke-miterlimit="10" d="M60.5,88.1c0,0-0.4,0.1-0.7,0.1S59.1,88,59.1,88s0.1,0.3,0.2,0.7
						c0.1,0.4,0,0.8,0,0.8"/>
				</g>
				<g>
					<path fill="none" stroke="#0000FF" stroke-miterlimit="10" d="M59.1,89.9c0,0-0.3,0.1-0.7,0.3c-0.3,0.1-0.7,0.2-0.7,0.2
						s0.3,0.2,0.6,0.5c0.3,0.2,0.5,0.5,0.5,0.5"/>
				</g>
				<g>
					<path fill="none" stroke="#0000FF" stroke-miterlimit="10" d="M58.8,91.7c0,0-0.3,0.1-0.7,0.1c-0.3,0-0.7,0-0.7,0
						s0.2,0.3,0.4,0.6c0.2,0.3,0.3,0.7,0.3,0.7"/>
				</g>
				<g>
					<path fill="none" stroke="#0000FF" stroke-miterlimit="10" d="M57.8,93.3c0,0-0.4-0.1-0.7-0.2s-0.6-0.3-0.6-0.3s0.1,0.3,0,0.7
						c0,0.4-0.2,0.7-0.2,0.7"/>
				</g>
				<g>
					<path fill="none" stroke="#0000FF" stroke-miterlimit="10" d="M56.1,94.4c0,0-0.4,0-0.7,0.1c-0.3,0-0.7,0-0.7,0
						s0.2,0.3,0.4,0.6c0.2,0.3,0.4,0.7,0.4,0.7"/>
				</g>
				<g>
					<path fill="none" stroke="#0000FF" stroke-miterlimit="10" d="M55.3,96.1c0,0-0.4,0-0.7-0.1s-0.7-0.1-0.7-0.1s0.1,0.3,0.3,0.7
						s0.2,0.7,0.2,0.7"/>
				</g>
				<g>
					<path fill="none" stroke="#0000FF" stroke-miterlimit="10" d="M54.1,97.6c0,0-0.3-0.1-0.7-0.3S52.8,97,52.8,97s0.1,0.4,0.1,0.7
						c0,0.4,0,0.8,0,0.8"/>
				</g>
				<g>
					<path fill="none" stroke="#0000FF" stroke-miterlimit="10" d="M52.6,98.6c0,0-0.3-0.2-0.6-0.5c-0.3-0.2-0.5-0.5-0.5-0.5
						s-0.1,0.4-0.2,0.7C51.2,98.7,51,99,51,99"/>
				</g>
				<g>
					<path fill="none" stroke="#0000FF" stroke-miterlimit="10" d="M50.8,99.2c0,0-0.2-0.3-0.4-0.6C50.2,98.3,50,98,50,98
						s-0.1,0.1-0.1,0.2s-0.1,0.1-0.1,0.2c-0.1,0.1-0.1,0.1-0.2,0.2c-0.2,0.3-0.5,0.6-0.5,0.6"/>
				</g>
				<g>
					<path fill="none" stroke="#0000FF" stroke-miterlimit="10" d="M48.8,99.2c0,0-0.1-0.3-0.2-0.7c-0.1-0.3-0.1-0.7-0.1-0.7
						S48.3,98,48,98.2s-0.7,0.4-0.7,0.4"/>
				</g>
				<g>
					<path fill="none" stroke="#0000FF" stroke-miterlimit="10" d="M47,98.5c0,0,0-0.4,0.1-0.7c0-0.3,0.1-0.7,0.1-0.7
						s-0.3,0.2-0.7,0.3c-0.4,0.1-0.7,0.2-0.7,0.2"/>
				</g>
				<g>
					<path fill="none" stroke="#0000FF" stroke-miterlimit="10" d="M45.5,97.3c0,0,0.1-0.3,0.3-0.7c0.1-0.3,0.3-0.6,0.3-0.6
						s-0.4,0.1-0.7,0.1c-0.4,0-0.8,0-0.8,0"/>
				</g>
				<g>
					<path fill="none" stroke="#0000FF" stroke-miterlimit="10" d="M44.4,95.9c0,0,0.2-0.3,0.4-0.6c0.2-0.3,0.4-0.5,0.4-0.5
						s-0.4,0-0.7-0.1c-0.4-0.1-0.7-0.1-0.7-0.1"/>
				</g>
				<g>
					<path fill="none" stroke="#0000FF" stroke-miterlimit="10" d="M43.5,94.2c0,0-0.1-0.4-0.1-0.7c0-0.3,0.1-0.7,0.1-0.7
						s-0.3,0.2-0.7,0.3c-0.3,0.1-0.8,0.2-0.8,0.2"/>
				</g>
				<g>
					<path fill="none" stroke="#0000FF" stroke-miterlimit="10" d="M41.8,93.1c0,0,0.1-0.3,0.3-0.6c0.2-0.3,0.4-0.5,0.4-0.5
						s-0.4,0-0.7-0.1c-0.4-0.1-0.7-0.2-0.7-0.2"/>
				</g>
				<g>
					<path fill="none" stroke="#0000FF" stroke-miterlimit="10" d="M41,91.4c0,0,0.3-0.2,0.6-0.4c0.3-0.2,0.6-0.4,0.6-0.4
						s-0.3-0.1-0.7-0.3c-0.3-0.2-0.7-0.3-0.7-0.3"/>
				</g>
				<g>
					<path fill="none" stroke="#0000FF" stroke-miterlimit="10" d="M40.6,89.6c0,0,0-0.4,0.1-0.7c0.1-0.4,0.2-0.7,0.2-0.7
						s-0.4,0.1-0.8,0.1c-0.4,0-0.8-0.1-0.8-0.1"/>
				</g>
				<g>
					<path fill="none" stroke="#0000FF" stroke-miterlimit="10" d="M39.2,87.7c0,0,0.2-0.3,0.5-0.5c0.3-0.3,0.6-0.4,0.6-0.4
						s-0.3-0.1-0.7-0.3c-0.3-0.2-0.7-0.5-0.7-0.5"/>
				</g>
				<g>
					<path fill="none" stroke="#0000FF" stroke-miterlimit="10" d="M38.8,85.5c0,0,0.1-0.4,0.3-0.7c0.1-0.3,0.4-0.6,0.4-0.6
						s-0.4,0-0.7,0C38.4,84.1,38,84,38,84"/>
				</g>
				<g>
					<path fill="none" stroke="#0000FF" stroke-miterlimit="10" d="M37.8,83.7c0,0,0.3-0.3,0.6-0.5s0.6-0.4,0.6-0.4
						s-0.3-0.1-0.7-0.4C38,82.2,37.7,82,37.7,82"/>
				</g>
				<g>
					<path fill="none" stroke="#0000FF" stroke-miterlimit="10" d="M37.8,81.7c0,0,0.3-0.1,0.7-0.2c0.3-0.1,0.7-0.2,0.7-0.2
						s-0.3-0.3-0.5-0.5c-0.3-0.3-0.5-0.6-0.5-0.6"/>
				</g>
				<g>
					<path fill="none" stroke="#0000FF" stroke-miterlimit="10" d="M38.1,79.8c0,0,0.2-0.3,0.5-0.6c0.2-0.3,0.5-0.5,0.5-0.5
						s-0.4-0.1-0.7-0.1c-0.4-0.1-0.7-0.2-0.7-0.2"/>
				</g>
				<g>
					<path fill="none" stroke="#0000FF" stroke-miterlimit="10" d="M37.4,78c0,0,0.3-0.2,0.6-0.4c0.3-0.2,0.6-0.4,0.6-0.4
						s-0.3-0.1-0.7-0.3c-0.3-0.2-0.7-0.4-0.7-0.4"/>
				</g>
				<g>
					<path fill="none" stroke="#0000FF" stroke-miterlimit="10" d="M37.3,76.1c0,0,0.3-0.1,0.7-0.3c0.3-0.1,0.7-0.2,0.7-0.2
						s-0.3-0.2-0.5-0.5c-0.3-0.3-0.5-0.6-0.5-0.6"/>
				</g>
				<g>
					<path fill="none" stroke="#0000FF" stroke-miterlimit="10" d="M37.7,74.3c0,0,0.4-0.1,0.7-0.1s0.7,0,0.7,0s-0.2-0.3-0.4-0.6
						c-0.2-0.3-0.3-0.7-0.3-0.7"/>
				</g>
				<g>
					<path fill="none" stroke="#0000FF" stroke-miterlimit="10" d="M38.4,72.5c0,0,0.2-0.3,0.4-0.6c0.2-0.3,0.5-0.5,0.5-0.5
						s-0.4,0-0.7-0.1c-0.4-0.1-0.7-0.2-0.7-0.2"/>
				</g>
				<g>
					<path fill="none" stroke="#0000FF" stroke-miterlimit="10" d="M37.8,70.9c0,0,0.3-0.2,0.6-0.4c0.3-0.2,0.6-0.3,0.6-0.3
						s-0.3-0.1-0.6-0.3c-0.3-0.2-0.6-0.5-0.6-0.5"/>
				</g>
				<g>
					<path fill="none" stroke="#0000FF" stroke-miterlimit="10" d="M37.8,69.1c0,0,0.3-0.1,0.7-0.1c0.3,0,0.7,0,0.7,0
						s-0.3-0.3-0.5-0.6c-0.2-0.3-0.4-0.7-0.4-0.7"/>
				</g>
				<g>
					<path fill="none" stroke="#0000FF" stroke-miterlimit="10" d="M38.5,67.5c0,0,0.3,0.1,0.7,0.1c0.3,0.1,0.7,0.2,0.7,0.2
						s-0.1-0.3-0.3-0.7c-0.1-0.3-0.2-0.7-0.2-0.7"/>
				</g>
				<g>
					<path fill="none" stroke="#0000FF" stroke-miterlimit="10" d="M39.5,66c0,0,0.2-0.3,0.5-0.5c0.2-0.3,0.5-0.5,0.5-0.5
						s-0.4,0-0.7-0.1c-0.4-0.1-0.7-0.2-0.7-0.2"/>
				</g>
				<g>
					<path fill="none" stroke="#0000FF" stroke-miterlimit="10" d="M38.9,64.4c0,0,0.3-0.2,0.6-0.4c0.3-0.2,0.6-0.3,0.6-0.3
						s-0.3-0.1-0.7-0.3c-0.3-0.2-0.6-0.4-0.6-0.4"/>
				</g>
				<g>
					<path fill="none" stroke="#0000FF" stroke-miterlimit="10" d="M38.9,62.7c0,0,0.3-0.1,0.7-0.2c0.3-0.1,0.7-0.1,0.7-0.1
						S40,62.2,39.7,62c-0.3-0.3-0.5-0.6-0.5-0.6"/>
				</g>
				<g>
					<path fill="none" stroke="#0000FF" stroke-miterlimit="10" d="M39.4,61.1c0,0,0.3,0,0.7,0c0.3,0,0.7,0.1,0.7,0.1
						s-0.2-0.3-0.4-0.6s-0.3-0.7-0.3-0.7"/>
				</g>
				<g>
					<path fill="none" stroke="#0000FF" stroke-miterlimit="10" d="M40.1,59.6c0,0,0.2-0.3,0.5-0.5c0.2-0.3,0.5-0.5,0.5-0.5
						s-0.4,0-0.7-0.1c-0.4-0.1-0.7-0.2-0.7-0.2"/>
				</g>
				<g>
					<path fill="none" stroke="#0000FF" stroke-miterlimit="10" d="M39.5,58.1c0,0,0.3-0.2,0.6-0.4s0.6-0.3,0.6-0.3S40.4,57.2,40,57
						c-0.3-0.2-0.7-0.4-0.7-0.4"/>
				</g>
				<g>
					<path fill="none" stroke="#0000FF" stroke-miterlimit="10" d="M39.4,56.4c0,0,0.3-0.1,0.7-0.2c0.3-0.1,0.7-0.1,0.7-0.1
						s-0.3-0.2-0.5-0.5c-0.1-0.1-0.2-0.3-0.3-0.4c-0.1-0.1-0.1-0.2-0.1-0.2"/>
				</g>
				<g>
					<path fill="none" stroke="#0000FF" stroke-miterlimit="10" d="M39.9,54.7c0,0,0.4,0,0.7,0.1s0.7,0.1,0.7,0.1s-0.2-0.3-0.3-0.7
						s-0.2-0.7-0.2-0.7"/>
				</g>
				<g>
					<path fill="none" stroke="#0000FF" stroke-miterlimit="10" d="M40.8,53.2c0,0,0.2-0.3,0.5-0.5s0.5-0.4,0.5-0.4s-0.3,0-0.7-0.1
						c-0.3-0.1-0.7-0.3-0.7-0.3"/>
				</g>
				<g>
					<path fill="none" stroke="#0000FF" stroke-miterlimit="10" d="M40.4,51.5c0,0,0.3-0.2,0.7-0.3c0.3-0.1,0.7-0.1,0.7-0.1
						s-0.3-0.2-0.5-0.5C41,50.3,40.8,50,40.8,50"/>
				</g>
				<g>
					<path fill="none" stroke="#0000FF" stroke-miterlimit="10" d="M40.8,49.8c0,0,0.4,0,0.7,0.1s0.7,0.2,0.7,0.2s-0.2-0.3-0.3-0.7
						c-0.1-0.3-0.2-0.7-0.2-0.7"/>
				</g>
				<g>
					<path fill="none" stroke="#0000FF" stroke-miterlimit="10" d="M41.8,48.4c0,0,0.2-0.3,0.5-0.5c0.3-0.3,0.5-0.5,0.5-0.5
						s-0.3,0-0.7-0.1c-0.3-0.1-0.7-0.3-0.7-0.3"/>
				</g>
				<g>
					<path fill="none" stroke="#0000FF" stroke-miterlimit="10" d="M41.4,46.7c0,0,0.3-0.2,0.6-0.3s0.7-0.2,0.7-0.2
						s-0.3-0.2-0.6-0.4s-0.5-0.5-0.5-0.5"/>
				</g>
				<g>
					<path fill="none" stroke="#0000FF" stroke-miterlimit="10" d="M41.6,45c0,0,0.3-0.1,0.7-0.1c0.3,0,0.7,0,0.7,0
						s-0.2-0.3-0.4-0.6s-0.4-0.7-0.4-0.7"/>
				</g>
				<g>
					<path fill="none" stroke="#0000FF" stroke-miterlimit="10" d="M42.4,43.5c0,0,0.3,0.1,0.7,0.1c0.3,0.1,0.7,0.2,0.7,0.2
						s-0.1-0.3-0.3-0.7c-0.1-0.3-0.2-0.7-0.2-0.7"/>
				</g>
			</g>
		</g>
	</g>
	<g>
		<g>
			<path fill="none" stroke="#0000FF" stroke-miterlimit="10" d="M56.5,39.7"/>
		</g>
	</g>
	<g>
		<g>
			<g>
				<g>
					<path fill="none" stroke="#0000FF" stroke-miterlimit="10" d="M50,44.7c0,0-0.1-0.3-0.3-0.7c-0.1-0.3-0.3-0.7-0.3-0.7
						s-0.1,0.1-0.1,0.2c-0.1,0.1-0.2,0.3-0.3,0.4c-0.2,0.3-0.5,0.6-0.5,0.6"/>
				</g>
				<g>
					<path fill="none" stroke="#0000FF" stroke-miterlimit="10" d="M48.3,44.5c0,0-0.1-0.3-0.2-0.7C48,43.5,48,43.2,48,43.2
						s-0.1,0.1-0.2,0.2c-0.1,0.1-0.2,0.2-0.4,0.3c-0.3,0.3-0.6,0.5-0.6,0.5"/>
				</g>
				<g>
					<path fill="none" stroke="#0000FF" stroke-miterlimit="10" d="M46.6,44.1c0,0,0-0.4-0.1-0.7c0-0.3,0-0.7,0-0.7
						s-0.1,0.1-0.2,0.1c-0.1,0.1-0.3,0.2-0.4,0.3c-0.3,0.2-0.7,0.4-0.7,0.4"/>
				</g>
				<g>
					<path fill="none" stroke="#0000FF" stroke-miterlimit="10" d="M45,43.3c0,0,0-0.4,0.1-0.7c0-0.2,0.1-0.3,0.1-0.5
						c0-0.1,0.1-0.2,0.1-0.2s-0.3,0.2-0.7,0.3c-0.2,0.1-0.4,0.1-0.5,0.2c-0.1,0-0.2,0.1-0.2,0.1"/>
				</g>
				<g>
					<path fill="none" stroke="#0000FF" stroke-miterlimit="10" d="M43.6,42.3c0,0,0.1-0.3,0.2-0.7c0.1-0.3,0.3-0.7,0.3-0.7
						S43.8,41,43.4,41c-0.4,0.1-0.7,0.1-0.7,0.1"/>
				</g>
				<g>
					<path fill="none" stroke="#0000FF" stroke-miterlimit="10" d="M42.5,40.9c0,0,0.1-0.1,0.1-0.2c0.1-0.1,0.2-0.3,0.3-0.4
						c0.2-0.3,0.4-0.6,0.4-0.6s-0.4,0-0.7,0c-0.4,0-0.7-0.1-0.7-0.1"/>
				</g>
				<g>
					<path fill="none" stroke="#0000FF" stroke-miterlimit="10" d="M41.7,39.3c0,0,0.3-0.3,0.5-0.5c0.1-0.1,0.3-0.2,0.4-0.3
						c0.1-0.1,0.2-0.1,0.2-0.1s-0.3-0.1-0.7-0.2c-0.2-0.1-0.4-0.1-0.5-0.2c-0.1-0.1-0.2-0.1-0.2-0.1"/>
				</g>
				<g>
					<path fill="none" stroke="#0000FF" stroke-miterlimit="10" d="M41.3,37.6c0,0,0.3-0.2,0.6-0.3s0.7-0.3,0.7-0.3
						s-0.3-0.2-0.6-0.4s-0.6-0.5-0.6-0.5"/>
				</g>
				<g>
					<path fill="none" stroke="#0000FF" stroke-miterlimit="10" d="M41.5,35.7c0,0,0.1,0,0.2-0.1c0.1,0,0.3-0.1,0.5-0.1
						c0.3-0.1,0.7-0.1,0.7-0.1s-0.1-0.1-0.1-0.2c-0.1-0.1-0.2-0.3-0.3-0.4c-0.2-0.3-0.4-0.7-0.4-0.7"/>
				</g>
				<g>
					<path fill="none" stroke="#0000FF" stroke-miterlimit="10" d="M42.2,34.1c0,0,0.4,0,0.7,0.1c0.3,0,0.7,0.1,0.7,0.1
						s-0.2-0.3-0.3-0.7c-0.1-0.2-0.1-0.4-0.2-0.5c0-0.1-0.1-0.2-0.1-0.2"/>
				</g>
				<g>
					<path fill="none" stroke="#0000FF" stroke-miterlimit="10" d="M43.2,32.6c0,0,0.1,0,0.2,0.1c0.1,0,0.3,0.1,0.5,0.2
						c0.3,0.1,0.7,0.3,0.7,0.3s-0.1-0.4-0.1-0.7s-0.1-0.7-0.1-0.7"/>
				</g>
				<g>
					<path fill="none" stroke="#0000FF" stroke-miterlimit="10" d="M44.5,31.5c0,0,0.1,0.1,0.2,0.1s0.3,0.2,0.4,0.3
						c0.3,0.2,0.6,0.4,0.6,0.4s0-0.4,0-0.7c0-0.4,0.1-0.7,0.1-0.7"/>
				</g>
				<g>
					<path fill="none" stroke="#0000FF" stroke-miterlimit="10" d="M46.1,30.6c0,0,0.3,0.2,0.5,0.5c0.3,0.3,0.5,0.5,0.5,0.5
						s0-0.1,0-0.2s0.1-0.3,0.1-0.5c0.1-0.4,0.2-0.7,0.2-0.7"/>
				</g>
				<g>
					<path fill="none" stroke="#0000FF" stroke-miterlimit="10" d="M47.7,30.1c0,0,0.2,0.3,0.4,0.6c0.2,0.3,0.4,0.6,0.4,0.6
						s0-0.1,0.1-0.2s0.1-0.3,0.2-0.5c0.1-0.3,0.3-0.7,0.3-0.7"/>
				</g>
				<g>
					<path fill="none" stroke="#0000FF" stroke-miterlimit="10" d="M49.4,29.8c0,0,0.2,0.3,0.3,0.6S50,31,50,31s0.1-0.1,0.1-0.2
						c0.1-0.1,0.2-0.3,0.3-0.4c0.2-0.3,0.4-0.6,0.4-0.6"/>
				</g>
				<g>
					<path fill="none" stroke="#0000FF" stroke-miterlimit="10" d="M51.2,29.8c0,0,0.1,0.3,0.2,0.7c0.1,0.3,0.2,0.7,0.2,0.7
						s0.1-0.1,0.1-0.2c0.1-0.1,0.2-0.3,0.3-0.4c0.3-0.3,0.5-0.5,0.5-0.5"/>
				</g>
				<g>
					<path fill="none" stroke="#0000FF" stroke-miterlimit="10" d="M52.9,30.1c0,0,0.1,0.3,0.1,0.7c0.1,0.3,0.1,0.7,0.1,0.7
						s0.1-0.1,0.2-0.1c0.1-0.1,0.3-0.2,0.4-0.3c0.3-0.2,0.6-0.5,0.6-0.5"/>
				</g>
				<g>
					<path fill="none" stroke="#0000FF" stroke-miterlimit="10" d="M54.5,30.7c0,0,0,0.4,0,0.7c0,0.3-0.1,0.7-0.1,0.7
						s0.3-0.2,0.7-0.3c0.2-0.1,0.3-0.2,0.5-0.2c0.1-0.1,0.2-0.1,0.2-0.1"/>
				</g>
				<g>
					<path fill="none" stroke="#0000FF" stroke-miterlimit="10" d="M56,31.7c0,0-0.1,0.3-0.1,0.7c0,0.2-0.1,0.3-0.1,0.5
						c0,0.1-0.1,0.2-0.1,0.2s0.3-0.1,0.7-0.2c0.2-0.1,0.4-0.1,0.5-0.1s0.2,0,0.2,0"/>
				</g>
				<g>
					<path fill="none" stroke="#0000FF" stroke-miterlimit="10" d="M57.3,32.8c0,0,0,0.1-0.1,0.2s-0.1,0.3-0.2,0.4
						c-0.2,0.3-0.3,0.6-0.3,0.6s0.1,0,0.2,0c0.1,0,0.3,0,0.5,0c0.4,0,0.8,0,0.8,0"/>
				</g>
				<g>
					<path fill="none" stroke="#0000FF" stroke-miterlimit="10" d="M58.3,34.3c0,0-0.2,0.3-0.5,0.6c-0.2,0.3-0.5,0.5-0.5,0.5
						s0.1,0,0.2,0c0.1,0,0.3,0.1,0.5,0.1c0.2,0.1,0.4,0.1,0.5,0.1c0.1,0.1,0.2,0.1,0.2,0.1"/>
				</g>
				<g>
					<path fill="none" stroke="#0000FF" stroke-miterlimit="10" d="M58.9,36.1c0,0-0.3,0.2-0.6,0.4c-0.1,0.1-0.3,0.2-0.4,0.3
						c-0.1,0.1-0.2,0.1-0.2,0.1s0.3,0.1,0.7,0.3c0.2,0.1,0.3,0.2,0.4,0.3c0.1,0.1,0.2,0.1,0.2,0.1"/>
				</g>
				<g>
					<path fill="none" stroke="#0000FF" stroke-miterlimit="10" d="M59,37.9c0,0-0.3,0.1-0.7,0.2c-0.3,0.1-0.7,0.2-0.7,0.2
						s0.1,0.1,0.2,0.1c0.1,0.1,0.3,0.2,0.4,0.3c0.3,0.3,0.5,0.6,0.5,0.6"/>
				</g>
				<g>
					<path fill="none" stroke="#0000FF" stroke-miterlimit="10" d="M58.6,39.6c0,0-0.4,0-0.7,0s-0.7,0-0.7,0s0.2,0.3,0.4,0.6
						c0.1,0.2,0.2,0.3,0.2,0.5c0.1,0.1,0.1,0.2,0.1,0.2"/>
				</g>
				<g>
					<path fill="none" stroke="#0000FF" stroke-miterlimit="10" d="M57.7,41.2c0,0-0.3-0.1-0.7-0.1c-0.3-0.1-0.7-0.2-0.7-0.2
						s0.1,0.3,0.2,0.7c0.1,0.4,0.1,0.7,0.1,0.7"/>
				</g>
				<g>
					<path fill="none" stroke="#0000FF" stroke-miterlimit="10" d="M56.5,42.5c0,0-0.3-0.1-0.7-0.3c-0.3-0.2-0.6-0.3-0.6-0.3
						s0,0.1,0,0.2c0,0.1,0,0.3,0,0.5c0,0.4,0,0.8,0,0.8"/>
				</g>
				<g>
					<path fill="none" stroke="#0000FF" stroke-miterlimit="10" d="M55,43.5c0,0-0.3-0.2-0.6-0.4s-0.5-0.5-0.5-0.5s0,0.1,0,0.2
						c0,0.1,0,0.3-0.1,0.5c-0.1,0.4-0.1,0.7-0.1,0.7"/>
				</g>
				<g>
					<path fill="none" stroke="#0000FF" stroke-miterlimit="10" d="M53.4,44.2c0,0-0.3-0.3-0.5-0.5c-0.2-0.3-0.5-0.5-0.5-0.5
						s0,0.1-0.1,0.2c0,0.1-0.1,0.3-0.1,0.5c-0.1,0.3-0.3,0.7-0.3,0.7"/>
				</g>
				<g>
					<path fill="none" stroke="#0000FF" stroke-miterlimit="10" d="M51.7,44.6c0,0-0.2-0.3-0.4-0.6S51,43.4,51,43.4s0,0.1-0.1,0.2
						c-0.1,0.1-0.1,0.3-0.2,0.5c-0.2,0.3-0.4,0.7-0.4,0.7"/>
				</g>
			</g>
		</g>
	</g>
</g>
<g id="leaf">
	<g>
		<path fill="#A8CF38" stroke="#010101" stroke-width="0.5" stroke-linecap="round" stroke-linejoin="round" d="M44.4,16.7
			c0,0-0.1-5,1.2-6.7l0.4,0.5c0,0-0.2-0.8,1.6-2.8l0.2,0.6c0,0,0.2-1.3,1.8-2.4l0.2,0.6c0,0,0.8-0.9,1.8-1.8L52,5.2
			c0,0,0.6-1.3,1.5-2l0.2,0.6c0,0,1-1.5,2.1-1.3L55.7,3c0,0,1.1-0.7,2.3-0.7l0.2,0.6c0,0,0.5-1,1.8-0.8v0.5c0,0,0.8-1.2,2-0.9v0.8
			c0,0,2.7-0.7,3.1-0.5l0.5,0.7C65.5,3,64,5.4,64,5.4l0.8,0.2c-0.1,1.2-1.5,1.6-1.5,1.6l0.4,0.2c-0.2,1.3-1.4,1.5-1.4,1.5l0.6,0.4
			c-0.4,1.1-1.4,1.9-1.4,1.9l0.4,0.1c-0.2,1-1.9,1.5-1.9,1.5l0.5,0.4c-0.9,0.7-2.4,0.8-2.4,0.8l0.4,0.5c-1.1,0.7-2.3,1.1-2.3,1.1
			l0.5,0.4c-1.5,1.1-2.9,0.9-2.9,0.9l0.5,0.4c-2.5,1-3.2,0.6-3.2,0.6l0.3,0.6c-2,0.7-6.7-1.1-6.7-1.1L44.4,16.7z"/>
		<path fill="#A8CF38" stroke="#010101" stroke-width="0.5" stroke-linecap="round" stroke-linejoin="round" d="M44.7,17
			c0,0-0.1-5,1.2-6.7l0.4,0.5c0,0-0.2-0.8,1.6-2.8l0.2,0.6c0,0,0.2-1.3,1.8-2.4l0.2,0.6c0,0,0.8-0.9,1.8-1.8l0.3,0.6
			c0,0,0.6-1.3,1.5-2L54,4.2c0,0,1-1.5,2.1-1.3L56,3.4c0,0,1.1-0.7,2.3-0.7l0.2,0.6c0,0,0.5-1,1.8-0.8V3c0,0,0.8-1.2,2-0.9v0.8
			c0,0,2.7-0.7,3.1-0.5L65.9,3c-0.1,0.3-1.5,2.8-1.5,2.8L65.1,6c-0.1,1.2-1.5,1.6-1.5,1.6L64,7.8c-0.2,1.3-1.4,1.5-1.4,1.5l0.6,0.4
			c-0.4,1.1-1.4,1.9-1.4,1.9l0.4,0.1c-0.2,1-1.9,1.5-1.9,1.5l0.5,0.4c-0.9,0.7-2.4,0.8-2.4,0.8l0.4,0.5c-1.1,0.7-2.3,1.1-2.3,1.1
			l0.5,0.4c-1.5,1.1-2.9,0.9-2.9,0.9l0.5,0.4c-2.5,1-3.2,0.6-3.2,0.6l0.3,0.6c-2,0.7-6.7-1.1-6.7-1.1L44.7,17z"/>
		
			<line fill="none" stroke="#010101" stroke-width="0.5" stroke-linecap="round" stroke-linejoin="round" x1="65.4" y1="2.8" x2="44.8" y2="17.3"/>
		<g>
			
				<line fill="none" stroke="#010101" stroke-width="0.5" stroke-linecap="round" stroke-linejoin="round" x1="62.4" y1="2.6" x2="61.9" y2="4.5"/>
			
				<line fill="none" stroke="#010101" stroke-width="0.5" stroke-linecap="round" stroke-linejoin="round" x1="60.3" y1="3" x2="60.2" y2="5.5"/>
			
				<line fill="none" stroke="#010101" stroke-width="0.5" stroke-linecap="round" stroke-linejoin="round" x1="58.5" y1="3.3" x2="58.5" y2="6.5"/>
			
				<line fill="none" stroke="#010101" stroke-width="0.5" stroke-linecap="round" stroke-linejoin="round" x1="55.9" y1="3.3" x2="56.5" y2="7.4"/>
			
				<line fill="none" stroke="#010101" stroke-width="0.5" stroke-linecap="round" stroke-linejoin="round" x1="54.2" y1="4.2" x2="55" y2="8.8"/>
			
				<line fill="none" stroke="#010101" stroke-width="0.5" stroke-linecap="round" stroke-linejoin="round" x1="52.2" y1="5.5" x2="53.2" y2="9.8"/>
			
				<line fill="none" stroke="#010101" stroke-width="0.5" stroke-linecap="round" stroke-linejoin="round" x1="50.3" y1="6.6" x2="50.9" y2="10.9"/>
			
				<line fill="none" stroke="#010101" stroke-width="0.5" stroke-linecap="round" stroke-linejoin="round" x1="48.2" y1="8.5" x2="49" y2="13.3"/>
			
				<line fill="none" stroke="#010101" stroke-width="0.5" stroke-linecap="round" stroke-linejoin="round" x1="46.4" y1="10.7" x2="46.6" y2="15.4"/>
		</g>
		<g>
			
				<line fill="none" stroke="#010101" stroke-width="0.5" stroke-linecap="round" stroke-linejoin="round" x1="64.7" y1="5.9" x2="62.8" y2="5.7"/>
			
				<line fill="none" stroke="#010101" stroke-width="0.5" stroke-linecap="round" stroke-linejoin="round" x1="63.6" y1="7.7" x2="61.3" y2="7"/>
			
				<line fill="none" stroke="#010101" stroke-width="0.5" stroke-linecap="round" stroke-linejoin="round" x1="62.8" y1="9.3" x2="59.8" y2="8.3"/>
			
				<line fill="none" stroke="#010101" stroke-width="0.5" stroke-linecap="round" stroke-linejoin="round" x1="62" y1="11.8" x2="58.3" y2="9.9"/>
			
				<line fill="none" stroke="#010101" stroke-width="0.5" stroke-linecap="round" stroke-linejoin="round" x1="60.5" y1="13.1" x2="56.5" y2="10.8"/>
			
				<line fill="none" stroke="#010101" stroke-width="0.5" stroke-linecap="round" stroke-linejoin="round" x1="58.6" y1="14.6" x2="54.9" y2="12.1"/>
			
				<line fill="none" stroke="#010101" stroke-width="0.5" stroke-linecap="round" stroke-linejoin="round" x1="56.9" y1="16" x2="53.1" y2="14"/>
			
				<line fill="none" stroke="#010101" stroke-width="0.5" stroke-linecap="round" stroke-linejoin="round" x1="54.4" y1="17.4" x2="50.2" y2="14.9"/>
			
				<line fill="none" stroke="#010101" stroke-width="0.5" stroke-linecap="round" stroke-linejoin="round" x1="51.7" y1="18.3" x2="47.3" y2="16.5"/>
		</g>
		<path fill="#FFFFFF" stroke="#010101" stroke-width="0.5" stroke-linecap="round" stroke-linejoin="round" d="M63.5,10.1
			c0,0-1.6-0.4-1.7,0.6c0,0-1.9-0.7-1.8,1.1c0,0-0.1,1.2,0.9,1.2c0,0-0.9,0.5-0.1,0.8c0.8,0.2,0.7,0.1,0.7,0.1"/>
		<path fill="#FFFFFF" stroke="#010101" stroke-width="0.5" stroke-miterlimit="10" d="M53.1,6.9c-0.2,0.3-0.6,0.5-0.9,0.7
			c0.2,0.5,1,0.1,1.4-0.1c-0.5,0.4-0.9,1.6,0.2,1.2c-0.4,0.4-0.2,0.7,0.1,1.1c-0.4,0.4-0.9,0.3-1.3,0.4c-0.3,0.1-0.5,0.4-0.7,0.5
			c-0.2-0.3,0-0.7-0.1-1c-0.2,0-1,0.4-1.2,0.3c-0.2-0.1-0.2-0.8-0.4-1.1c0.2-0.2,0.5-0.4,0.8-0.6c0-0.1-0.1-0.1-0.1-0.1
			c0.3-0.3,1.8-1.7,1.9-1"/>
		<path fill="#FFFFFF" stroke="#010101" stroke-width="0.5" stroke-miterlimit="10" d="M60.1,5.8c0.6-0.1,0.9-0.6,1.7-0.6
			c0,0.2-0.5,0.7-0.4,0.8c0.2,0.5,1.1,0.1,1.5,0c-0.1,0.1-0.6,0.4-0.6,0.6c0,0.5,0.6,0.4,0.8,0.5C62.6,7.5,62,7.6,61.5,8
			c-0.3,0.2-0.5,0.5-0.8,0.8C60.1,8.3,60,7.7,60.2,7c-0.4,0.3-1.6,1.1-1.2,0.1c0.3-0.6,1-0.9,1.4-1.5"/>
		<path fill="#FFFFFF" stroke="#010101" stroke-width="0.5" stroke-miterlimit="10" d="M54.9,13.6c-0.2,0.3-0.9,0.5-1.1,0.8
			c-0.3,0.5,0.1,1.1,0.6,1.4c-0.6-0.1-1.3-0.1-1.7,0.3c0.1,0.4,0.4,0.6,0.5,0.9c-0.3,0-1.7-0.1-1.2,0.5c-0.4,0.3-1.3-0.9-1.4-1.4
			c-0.3-0.9,0.3-1.4,0.9-2c0.9-0.7,2.3-1.3,3.4-0.4"/>
	</g>
</g>
<g id="water">
	<g>
		<path fill="#55C2E2" stroke="#070707" stroke-width="0.5" stroke-miterlimit="10" d="M73.2,25.8c0,0-10.4,12-1.2,14.7
			c0,0,7.5-0.2,4.2-8.9C76.2,31.7,73.3,28.3,73.2,25.8z"/>
		<path fill="none" stroke="#3A97AD" stroke-miterlimit="10" d="M72.6,39.6c1.5,0.7,3.9-3,3.7-4.3"/>
		
			<ellipse transform="matrix(0.6127 0.7903 -0.7903 0.6127 57.3423 -41.5791)" opacity="0.8" fill="#FFFFFF" enable-background="new    " cx="71.1" cy="37.7" rx="1.7" ry="1.4"/>
		<path opacity="0.8" fill="#FFFFFF" enable-background="new    " d="M70.1,31.1c0,0,1.4-3.3,3-4.2"/>
	</g>
	<g>
		<path fill="#55C2E2" stroke="#070707" stroke-width="0.5" stroke-miterlimit="10" d="M28,42.2c0,0-10.4,12-1.2,14.7
			c0,0,7.5-0.2,4.2-8.9C31,48.1,28.1,44.7,28,42.2z"/>
		<path fill="none" stroke="#3A97AD" stroke-miterlimit="10" d="M27.4,56c1.5,0.7,3.9-3,3.7-4.3"/>
		
			<ellipse transform="matrix(0.6127 0.7903 -0.7903 0.6127 52.7938 0.5413)" opacity="0.8" fill="#FFFFFF" enable-background="new    " cx="25.8" cy="54.1" rx="1.7" ry="1.4"/>
		<path opacity="0.8" fill="#FFFFFF" enable-background="new    " d="M24.9,47.5c0,0,1.4-3.3,3-4.2"/>
	</g>
	<g>
		<path fill="#55C2E2" stroke="#070707" stroke-width="0.5" stroke-miterlimit="10" d="M32.3,62.7c0,0-6.2,7.2-0.7,8.9
			c0,0,4.5-0.1,2.5-5.4C34,66.2,32.3,64.2,32.3,62.7z"/>
		<path fill="none" stroke="#3A97AD" stroke-miterlimit="10" d="M31.9,71c0.9,0.4,2.3-1.8,2.2-2.6"/>
		
			<ellipse transform="matrix(0.6128 0.7902 -0.7902 0.6128 67.7809 3.0181)" opacity="0.8" fill="#FFFFFF" enable-background="new    " cx="30.8" cy="70.7" rx="0.6" ry="0.5"/>
		<path opacity="0.8" fill="#FFFFFF" enable-background="new    " d="M30.4,65.9c0,0,0.8-2,1.8-2.5"/>
	</g>
	<g>
		<path fill="#55C2E2" stroke="#070707" stroke-width="0.5" stroke-miterlimit="10" d="M71.4,45.2c0,0-6.2,7.2-0.7,8.9
			c0,0,4.5-0.1,2.5-5.4C73.2,48.7,71.5,46.7,71.4,45.2z"/>
		<path fill="none" stroke="#3A97AD" stroke-miterlimit="10" d="M71.1,53.4c0.9,0.4,2.3-1.8,2.2-2.6"/>
		
			<ellipse transform="matrix(0.6126 0.7904 -0.7904 0.6126 69.1186 -34.7929)" opacity="0.8" fill="#FFFFFF" enable-background="new    " cx="70.1" cy="53.1" rx="0.6" ry="0.5"/>
		<path opacity="0.8" fill="#FFFFFF" enable-background="new    " d="M69.6,48.3c0,0,0.8-2,1.8-2.5"/>
	</g>
	<g>
		<path fill="#55C2E2" stroke="#070707" stroke-width="0.5" stroke-miterlimit="10" d="M67.7,61.8c0,0-3.9,4.5-0.5,5.5
			c0,0,2.8-0.1,1.6-3.3C68.8,63.9,67.7,62.7,67.7,61.8z"/>
		<path fill="none" stroke="#3A97AD" stroke-miterlimit="10" d="M67.5,66.9c0.5,0.3,1.5-1.1,1.4-1.6"/>
		<ellipse opacity="0.8" fill="#FFFFFF" enable-background="new    " cx="66.7" cy="66.3" rx="0.3" ry="0.3"/>
		<path opacity="0.8" fill="#FFFFFF" enable-background="new    " d="M66.5,63.7c0,0,0.5-1.3,1.1-1.6"/>
	</g>
	<g>
		<path fill="#55C2E2" stroke="#070707" stroke-width="0.5" stroke-miterlimit="10" d="M30,31.6c0,0-3.9,4.5-0.5,5.5
			c0,0,2.8-0.1,1.6-3.3C31.2,33.8,30.1,32.5,30,31.6z"/>
		<path fill="none" stroke="#3A97AD" stroke-miterlimit="10" d="M29.8,36.8c0.5,0.3,1.5-1.1,1.4-1.6"/>
		<ellipse opacity="0.8" fill="#FFFFFF" enable-background="new    " cx="29.1" cy="36.1" rx="0.3" ry="0.3"/>
		<path opacity="0.8" fill="#FFFFFF" enable-background="new    " d="M28.9,33.6c0,0,0.5-1.3,1.1-1.6"/>
	</g>
</g>
</svg>
