<?xml version="1.0" encoding="utf-8"?>
<!-- Generator: Adobe Illustrator 17.1.0, SVG Export Plug-In . SVG Version: 6.00 Build 0)  -->
<!DOCTYPE svg PUBLIC "-//W3C//DTD SVG 1.1//EN" "http://www.w3.org/Graphics/SVG/1.1/DTD/svg11.dtd">
<svg version="1.1" id="Layer_1" xmlns="http://www.w3.org/2000/svg" xmlns:xlink="http://www.w3.org/1999/xlink" x="0px" y="0px"
	 viewBox="0 0 100 100" enable-background="new 0 0 100 100" xml:space="preserve">
<pattern  y="100" width="2.7" height="2.7" patternUnits="userSpaceOnUse" id="SVGID_1_" viewBox="0 -2.7 2.7 2.7" overflow="visible">
	<g>
		<polygon fill="none" points="0,0 2.7,0 2.7,-2.7 0,-2.7 		"/>
		<g>
			<polygon fill="none" points="0,-2.7 2.7,-2.7 2.7,0 0,0 			"/>
			<g>
				<polygon fill="none" points="2.7,0 0,0 0,-2.7 2.7,-2.7 				"/>
				<g>
					<path fill="#010101" d="M1.5-1.4c0,0.1-0.1,0.2-0.2,0.2S1.1-1.3,1.1-1.4s0.1-0.2,0.2-0.2C1.4-1.6,1.5-1.5,1.5-1.4z"/>
				</g>
			</g>
		</g>
	</g>
</pattern>
<g id="legs">
	<path fill="#FFFFFF" stroke="#010101" stroke-miterlimit="10" d="M62.7,46.4L65,40c0,0-0.5,0.5-0.9,0.8c0,0,0.1-7.2-3.4-9.1
		c0,0,3,3.8,2.8,8.4c0,0-0.5-2.3-1.2-2.3c0,0,1.2,1.8,0.8,4.7L62,44.9L62.7,46.4z"/>
	<path fill="#FFFFFF" stroke="#010101" stroke-miterlimit="10" d="M31.5,46.8l-2.3-6.4c0,0,0.5,0.5,0.9,0.8c0,0-0.1-7.2,3.4-9.1
		c0,0-3,3.8-2.8,8.4c0,0,0.5-2.3,1.2-2.3c0,0-1.2,1.8-0.8,4.7l1.2,2.6L31.5,46.8z"/>
	<path fill="#FFFFFF" stroke="#010101" stroke-miterlimit="10" d="M29.3,58.2c0,0-4.2,0.4-5.6,1.6c0,0-2.6,2.7,0.8,2.5
		s3.3-0.2,3.3-0.2S27.8,59.4,29.3,58.2z"/>
	<path fill="#FFFFFF" stroke="#010101" stroke-miterlimit="10" d="M22.7,61.8c0,0-3,1.6-3.3,6.3s-0.2,8.9,1,9.3c0,0-0.9-4.2-0.4-5.6
		c0,0,0.4,0,0.3,1.1c0,0,0.7-1.3,0.1-2.7c0,0-1.7-3.8,2.7-7.9L22.7,61.8z"/>
	<path fill="#FFFFFF" stroke="#010101" stroke-miterlimit="10" d="M66,57.8c0,0,4.2,0.4,5.6,1.6c0,0,2.6,2.7-0.8,2.5
		c-3.3-0.2-3.3-0.2-3.3-0.2S67.5,59.1,66,57.8z"/>
	<path fill="#FFFFFF" stroke="#010101" stroke-miterlimit="10" d="M72.6,61.4c0,0,3,1.6,3.3,6.3s0.2,8.9-1,9.3c0,0,0.9-4.2,0.4-5.6
		c0,0-0.4,0-0.3,1.1c0,0-0.7-1.3-0.1-2.7c0,0,1.7-3.8-2.7-7.9L72.6,61.4z"/>
	<path fill="#FFFFFF" stroke="#010101" stroke-miterlimit="10" d="M27.5,71.4c0,0-4.7,6-5.1,7.4c0,0,1.5,0.8,2.9,0.3l2.3-2.8
		L27.5,71.4z"/>
	<path fill="#FFFFFF" stroke="#010101" stroke-miterlimit="10" d="M23.1,79.1c0,0,1,10.4-0.2,12.8c0,0,2-1.6,1.4-6.6
		c0,0,0.7,0.9,0.7,1.9c0,0,0.3-2.1-1.1-3.7l0.3-4.2L23.1,79.1z"/>
	<path fill="#FFFFFF" stroke="#010101" stroke-miterlimit="10" d="M67,71.4c0,0,4.7,6,5.1,7.4c0,0-1.5,0.8-2.9,0.3l-2.3-2.8L67,71.4
		z"/>
	<path fill="#FFFFFF" stroke="#010101" stroke-miterlimit="10" d="M71.4,79.1c0,0-1,10.4,0.2,12.8c0,0-2-1.6-1.4-6.6
		c0,0-0.7,0.9-0.7,1.9c0,0-0.3-2.1,1.1-3.7l-0.3-4.2L71.4,79.1z"/>
</g>
<g id="basebody">
	<path fill="#FFFFFF" stroke="#000000" stroke-miterlimit="10" d="M33.2,56.7c0,0-6.7-3.1-2.4-9.7s5.9-7.4,5.9-7.4s2,1.5,3.9,1.5
		c1.8,0,16.3-0.5,16.3-0.5s2-0.2,2.5-1c0,0,5.7,6.5,6.3,9.2c0.6,2.7,1.1,5.3-1.5,7.6C64.1,56.3,46.9,66.1,33.2,56.7z"/>
	<path fill="#FFFFFF" stroke="#000000" stroke-miterlimit="10" d="M34.3,56.9c0,0-5.6-2-6,4.8s0,20.8,0,20.8s3.9,17.6,19.6,15.6
		c0,0,18.8,0.2,19.3-16.7S67.8,62,67.8,62s0.6-7.2-5.4-5.5C62.4,56.6,50.2,62.4,34.3,56.9z"/>
	<path fill="#FFFFFF" stroke="#000000" stroke-miterlimit="10" d="M58,40.1c0,0,0.4-5.6-4.5-5.9c0,0-1.2-1.7-5.6-1.6h-0.4
		c-4.4-0.1-5.6,1.6-5.6,1.6c-4.9,0.2-4.5,5.9-4.5,5.9s0.9,0.9,3.4,0.9c2.5-0.1,16.2-0.5,16.2-0.5S57.6,40.6,58,40.1z"/>
</g>
<g id="bodycolor">
	<path fill="#6CBE45" stroke="#010101" stroke-miterlimit="10" d="M33.2,56.7c0,0-6.7-3.1-2.4-9.7s5.9-7.4,5.9-7.4s2,1.5,3.9,1.5
		c1.8,0,16.3-0.5,16.3-0.5s2-0.2,2.5-1c0,0,5.7,6.5,6.3,9.2c0.6,2.7,1.1,5.3-1.5,7.6C64.1,56.3,46.9,66.1,33.2,56.7z"/>
	<path fill="#D0DD28" stroke="#010101" stroke-miterlimit="10" d="M34.3,56.9c0,0-5.6-2-6,4.8s0,20.8,0,20.8s3.9,17.6,19.6,15.6
		c0,0,18.8,0.2,19.3-16.7S67.8,62,67.8,62s0.6-7.2-5.4-5.5C62.4,56.6,50.2,62.4,34.3,56.9z"/>
	<path fill="#6CBE45" stroke="#010101" stroke-miterlimit="10" d="M58,40.1c0,0,0.4-5.6-4.5-5.9c0,0-1.2-1.7-5.6-1.6h-0.4
		c-4.4-0.1-5.6,1.6-5.6,1.6c-4.9,0.2-4.5,5.9-4.5,5.9s0.9,0.9,3.4,0.9c2.5-0.1,16.2-0.5,16.2-0.5S57.6,40.6,58,40.1z"/>
</g>
<g id="antennae">
	<path fill="none" stroke="#010101" stroke-miterlimit="10" d="M35.8,22.2c0,0,2.9,9.6,12.5,10.4c0,0,9.4-3.1,9.4-10.4"/>
</g>
<g id="markings">
	<path fill="#010101" d="M34.1,89.7c0,0,15.2,11,27.2-0.2"/>
	<path fill="#010101" d="M34.1,80.7c0,0,15.2,11,27.2-0.2"/>
</g>
<g id="dots">
	<pattern  id="SVGID_2_" xlink:href="#SVGID_1_" patternTransform="matrix(0.3051 0 0 0.3051 -11364.6406 4875.8467)">
	</pattern>
	<path fill="url(#SVGID_2_)" stroke="#010101" stroke-miterlimit="10" d="M34,56.9c0,0-5.6-2-6,4.8s0,20.8,0,20.8
		s3.9,17.6,19.6,15.6c0,0,18.8,0.2,19.3-16.7S67.5,62,67.5,62s0.6-7.2-5.4-5.5C62.2,56.6,49.9,62.4,34,56.9z"/>
</g>
<g id="fur">
	<g>
		<g>
			<path fill="none" stroke="#0000FF" stroke-miterlimit="10" d="M48.1,27.5"/>
		</g>
	</g>
	<g>
		<g>
			<g>
				<g>
					<polyline fill="none" stroke="#0000FF" stroke-miterlimit="10" points="30.3,56.2 31.1,55 29.5,55 					"/>
				</g>
				<g>
					<polyline fill="none" stroke="#0000FF" stroke-miterlimit="10" points="29.3,54.7 30.2,53.5 28.6,53.5 					"/>
				</g>
				<g>
					<path fill="none" stroke="#0000FF" stroke-miterlimit="10" d="M28.4,53.2c0,0,0.2-0.4,0.5-0.6c0.3-0.2,0.6-0.4,0.6-0.4
						s-0.1,0-0.2-0.1S29,52,28.8,51.9c-0.4-0.2-0.7-0.4-0.7-0.4"/>
				</g>
				<g>
					<path fill="none" stroke="#0000FF" stroke-miterlimit="10" d="M28.1,51.1c0,0,0.3-0.2,0.7-0.3c0.2-0.1,0.3-0.1,0.5-0.2
						c0.1,0,0.2-0.1,0.2-0.1s-0.3-0.2-0.6-0.5c-0.2-0.2-0.3-0.3-0.4-0.4c-0.1-0.1-0.2-0.2-0.2-0.2"/>
				</g>
				<g>
					<path fill="none" stroke="#0000FF" stroke-miterlimit="10" d="M28.4,49.1c0,0,0.1,0,0.2,0c0.2,0,0.3-0.1,0.5-0.1
						c0.4,0,0.8-0.1,0.8-0.1s-0.2-0.3-0.5-0.6C29.2,48,29,47.7,29,47.7"/>
				</g>
				<g>
					<path fill="none" stroke="#0000FF" stroke-miterlimit="10" d="M29.1,47.3c0,0,0.4,0,0.8,0s0.8,0.1,0.8,0.1s-0.2-0.3-0.4-0.7
						C30.1,46.3,30,46,30,46"/>
				</g>
				<g>
					<polyline fill="none" stroke="#0000FF" stroke-miterlimit="10" points="30.1,45.8 31.6,46 30.9,44.5 					"/>
				</g>
				<g>
					<path fill="none" stroke="#0000FF" stroke-miterlimit="10" d="M31.1,44.3c0,0,0.4,0.1,0.7,0.1c0.4,0.1,0.7,0.2,0.7,0.2
						s-0.2-0.4-0.3-0.7c-0.2-0.4-0.3-0.7-0.3-0.7"/>
				</g>
				<g>
					<path fill="none" stroke="#0000FF" stroke-miterlimit="10" d="M32.1,42.9c0,0,0.4,0.1,0.7,0.2c0.4,0.1,0.7,0.2,0.7,0.2
						s-0.2-0.4-0.3-0.7c-0.2-0.4-0.3-0.8-0.3-0.8"/>
				</g>
				<g>
					<path fill="none" stroke="#0000FF" stroke-miterlimit="10" d="M33.2,41.4c0,0,0.4,0.1,0.7,0.2c0.4,0.1,0.7,0.2,0.7,0.2
						s-0.1-0.4-0.2-0.8s-0.2-0.8-0.2-0.8"/>
				</g>
				<g>
					<path fill="none" stroke="#0000FF" stroke-miterlimit="10" d="M34.3,40.1c0,0,0.4,0.1,0.7,0.2c0.4,0.1,0.7,0.2,0.7,0.2
						s0-0.1-0.1-0.2c0-0.2-0.1-0.3-0.1-0.5c-0.1-0.4-0.1-0.8-0.1-0.8"/>
				</g>
				<g>
					<path fill="none" stroke="#0000FF" stroke-miterlimit="10" d="M37.7,38.8c0,0-0.1,0.4-0.1,0.7c-0.1,0.4-0.1,0.8-0.1,0.8
						s0.4-0.2,0.7-0.4s0.6-0.5,0.6-0.5"/>
				</g>
				<g>
					<path fill="none" stroke="#0000FF" stroke-miterlimit="10" d="M39,39.5c0,0,0,0.4,0,0.7c0,0.2,0,0.4,0.1,0.5c0,0.2,0,0.2,0,0.2
						s0.1-0.1,0.2-0.2c0.1-0.1,0.2-0.2,0.4-0.4c0.1-0.2,0.2-0.3,0.3-0.4c0.1-0.1,0.1-0.2,0.1-0.2"/>
				</g>
				<g>
					<path fill="none" stroke="#0000FF" stroke-miterlimit="10" d="M40.4,39.9c0,0,0,0.1,0.1,0.2c0.1,0.1,0.1,0.3,0.2,0.5
						c0.2,0.3,0.3,0.7,0.3,0.7l0.8-1.4"/>
				</g>
				<g>
					<polyline fill="none" stroke="#0000FF" stroke-miterlimit="10" points="42.1,39.8 42.7,41.2 43.5,39.8 					"/>
				</g>
				<g>
					<polyline fill="none" stroke="#0000FF" stroke-miterlimit="10" points="43.7,39.8 44.4,41.2 45.2,39.7 					"/>
				</g>
				<g>
					<polyline fill="none" stroke="#0000FF" stroke-miterlimit="10" points="45.4,39.7 46.1,41.1 46.9,39.7 					"/>
				</g>
				<g>
					<polyline fill="none" stroke="#0000FF" stroke-miterlimit="10" points="47.1,39.7 47.8,41 48.5,39.6 					"/>
				</g>
				<g>
					<polyline fill="none" stroke="#0000FF" stroke-miterlimit="10" points="48.8,39.6 49.5,41 50.2,39.6 					"/>
				</g>
				<g>
					<polyline fill="none" stroke="#0000FF" stroke-miterlimit="10" points="50.5,39.6 51.2,40.9 51.9,39.5 					"/>
				</g>
				<g>
					<polyline fill="none" stroke="#0000FF" stroke-miterlimit="10" points="52.2,39.5 52.9,40.9 53.6,39.5 					"/>
				</g>
				<g>
					<polyline fill="none" stroke="#0000FF" stroke-miterlimit="10" points="53.9,39.5 54.6,40.8 55.3,39.4 					"/>
				</g>
				<g>
					<path fill="none" stroke="#0000FF" stroke-miterlimit="10" d="M55.6,39.4l0.7,1.3c0,0,0.2-0.3,0.4-0.7c0.1-0.2,0.2-0.4,0.2-0.5
						c0.1-0.2,0.1-0.2,0.1-0.2"/>
				</g>
				<g>
					<path fill="none" stroke="#0000FF" stroke-miterlimit="10" d="M57.1,39.3c0,0,0.2,0.3,0.4,0.6s0.5,0.6,0.5,0.6s0.1-0.4,0.2-0.8
						c0-0.2,0-0.4,0-0.5c0-0.2,0-0.2,0-0.2"/>
				</g>
				<g>
					<path fill="none" stroke="#0000FF" stroke-miterlimit="10" d="M60.7,39.3L60,40.6c0,0,0.4-0.1,0.8-0.1c0.4-0.1,0.8-0.1,0.8-0.1
						"/>
				</g>
				<g>
					<path fill="none" stroke="#0000FF" stroke-miterlimit="10" d="M61.7,40.6L61,41.9c0,0,0.4-0.1,0.8-0.1c0.4-0.1,0.8-0.1,0.8-0.1
						"/>
				</g>
				<g>
					<path fill="none" stroke="#0000FF" stroke-miterlimit="10" d="M62.8,41.9l-0.7,1.3c0,0,0.4-0.1,0.8-0.1c0.4,0,0.8-0.1,0.8-0.1"
						/>
				</g>
				<g>
					<path fill="none" stroke="#0000FF" stroke-miterlimit="10" d="M63.8,43.3c0,0-0.2,0.3-0.4,0.6S63,44.5,63,44.5s0.4,0,0.8-0.1
						c0.4,0,0.8-0.1,0.8-0.1"/>
				</g>
				<g>
					<path fill="none" stroke="#0000FF" stroke-miterlimit="10" d="M64.8,44.7c0,0-0.2,0.3-0.4,0.6C64.2,45.7,64,46,64,46
						s0.4,0,0.8,0s0.8,0,0.8,0"/>
				</g>
				<g>
					<path fill="none" stroke="#0000FF" stroke-miterlimit="10" d="M65.8,46.2c0,0-0.2,0.3-0.4,0.6c-0.2,0.3-0.5,0.6-0.5,0.6
						s0.4,0,0.8,0s0.8,0.1,0.8,0.1"/>
				</g>
				<g>
					<path fill="none" stroke="#0000FF" stroke-miterlimit="10" d="M66.6,47.8c0,0-0.1,0.1-0.2,0.2c-0.1,0.1-0.2,0.2-0.4,0.4
						c-0.3,0.2-0.6,0.5-0.6,0.5l0,0c0,0,0,0,0.1,0c0,0,0.1,0,0.1,0.1h0.1c0.2,0,0.3,0.1,0.5,0.1c0.4,0.1,0.8,0.2,0.8,0.2"/>
				</g>
				<g>
					<path fill="none" stroke="#0000FF" stroke-miterlimit="10" d="M67.1,49.5c0,0-0.3,0.2-0.6,0.5c-0.3,0.2-0.6,0.5-0.6,0.5
						s0.4,0.1,0.8,0.2c0.4,0.2,0.7,0.3,0.7,0.3"/>
				</g>
				<g>
					<path fill="none" stroke="#0000FF" stroke-miterlimit="10" d="M67.4,51.3c0,0-0.3,0.2-0.6,0.4c-0.3,0.2-0.7,0.3-0.7,0.3
						s0.4,0.2,0.7,0.4c0.2,0.1,0.3,0.2,0.5,0.3c0.1,0.1,0.2,0.2,0.2,0.2"/>
				</g>
				<g>
					<path fill="none" stroke="#0000FF" stroke-miterlimit="10" d="M67.5,53.1c0,0-0.4,0.2-0.7,0.2c-0.4,0.1-0.7,0.2-0.7,0.2
						s0.3,0.2,0.6,0.5c0.3,0.3,0.5,0.6,0.5,0.6"/>
				</g>
				<g>
					<path fill="none" stroke="#0000FF" stroke-miterlimit="10" d="M67,55c0,0-0.4,0-0.8,0s-0.7-0.1-0.7-0.1s0.1,0.1,0.1,0.2
						c0.1,0.1,0.2,0.3,0.2,0.5C66,56,66,56.4,66,56.4"/>
				</g>
			</g>
		</g>
	</g>
	<g>
		<g>
			<g>
				<g>
					<path fill="none" stroke="#0000FF" stroke-miterlimit="10" d="M45,99.5c0,0-0.2-0.3-0.3-0.7c-0.2-0.3-0.3-0.7-0.3-0.7
						s-0.2,0.3-0.4,0.7c-0.2,0.3-0.5,0.6-0.5,0.6"/>
				</g>
				<g>
					<path fill="none" stroke="#0000FF" stroke-miterlimit="10" d="M43.3,99.5c0,0-0.1-0.4-0.2-0.7c-0.1-0.4-0.2-0.7-0.2-0.7
						s-0.2,0.3-0.5,0.6c-0.3,0.3-0.5,0.6-0.5,0.6"/>
				</g>
				<g>
					<path fill="none" stroke="#0000FF" stroke-miterlimit="10" d="M41.5,99.2c0,0-0.1-0.4-0.2-0.7c-0.1-0.4-0.1-0.7-0.1-0.7
						s-0.3,0.3-0.6,0.5c-0.3,0.3-0.6,0.5-0.6,0.5"/>
				</g>
				<g>
					<path fill="none" stroke="#0000FF" stroke-miterlimit="10" d="M39.7,98.7c0,0,0-0.4-0.1-0.8c0-0.4-0.1-0.8-0.1-0.8
						s-0.3,0.2-0.6,0.5c-0.3,0.2-0.7,0.5-0.7,0.5"/>
				</g>
				<g>
					<path fill="none" stroke="#0000FF" stroke-miterlimit="10" d="M38.1,98c0,0,0-0.4,0-0.8s0-0.8,0-0.8s-0.3,0.2-0.7,0.4
						c-0.3,0.2-0.7,0.4-0.7,0.4"/>
				</g>
				<g>
					<path fill="none" stroke="#0000FF" stroke-miterlimit="10" d="M36.5,97.2c0,0,0-0.4,0.1-0.8s0.1-0.7,0.1-0.7S36.4,95.9,36,96
						s-0.7,0.3-0.7,0.3"/>
				</g>
				<g>
					<path fill="none" stroke="#0000FF" stroke-miterlimit="10" d="M35,96.2c0,0,0.1-0.4,0.2-0.7c0.1-0.4,0.2-0.7,0.2-0.7
						S35,94.9,34.6,95s-0.8,0.2-0.8,0.2"/>
				</g>
				<g>
					<path fill="none" stroke="#0000FF" stroke-miterlimit="10" d="M33.7,95.1c0,0,0.1-0.4,0.2-0.7c0.1-0.4,0.3-0.7,0.3-0.7
						s-0.4,0.1-0.8,0.2c-0.4,0-0.8,0.1-0.8,0.1"/>
				</g>
				<g>
					<path fill="none" stroke="#0000FF" stroke-miterlimit="10" d="M32.4,93.8c0,0,0.2-0.3,0.3-0.7c0.2-0.3,0.3-0.7,0.3-0.7
						s-0.4,0.1-0.8,0.1c-0.4,0.1-0.8,0.1-0.8,0.1"/>
				</g>
				<g>
					<path fill="none" stroke="#0000FF" stroke-miterlimit="10" d="M31.3,92.4c0,0,0.2-0.3,0.4-0.7s0.4-0.6,0.4-0.6s-0.4,0-0.8,0.1
						c-0.4,0-0.8,0-0.8,0"/>
				</g>
				<g>
					<path fill="none" stroke="#0000FF" stroke-miterlimit="10" d="M30.3,91c0,0,0.2-0.3,0.4-0.6c0.2-0.3,0.4-0.6,0.4-0.6
						s-0.4,0-0.8,0s-0.8,0-0.8,0"/>
				</g>
				<g>
					<path fill="none" stroke="#0000FF" stroke-miterlimit="10" d="M29.4,89.5c0,0,0.2-0.3,0.5-0.6c0.2-0.3,0.5-0.6,0.5-0.6
						s-0.4,0-0.8-0.1c-0.4,0-0.8-0.1-0.8-0.1"/>
				</g>
				<g>
					<path fill="none" stroke="#0000FF" stroke-miterlimit="10" d="M28.6,87.9c0,0,0.2-0.3,0.5-0.6c0.2-0.3,0.5-0.5,0.5-0.5
						s-0.4-0.1-0.8-0.1c-0.4-0.1-0.8-0.1-0.8-0.1"/>
				</g>
				<g>
					<path fill="none" stroke="#0000FF" stroke-miterlimit="10" d="M27.9,86.3c0,0,0.3-0.3,0.5-0.5c0.3-0.3,0.5-0.5,0.5-0.5
						s-0.4-0.1-0.8-0.2s-0.8-0.2-0.8-0.2"/>
				</g>
				<g>
					<path fill="none" stroke="#0000FF" stroke-miterlimit="10" d="M27.3,84.7c0,0,0.3-0.2,0.5-0.5c0.3-0.2,0.6-0.5,0.6-0.5
						s-0.4-0.1-0.8-0.2s-0.8-0.2-0.8-0.2"/>
				</g>
				<g>
					<path fill="none" stroke="#0000FF" stroke-miterlimit="10" d="M26.8,82.9c0,0,0.1-0.1,0.2-0.2s0.1-0.1,0.2-0.2s0.2-0.1,0.2-0.2
						c0.3-0.2,0.7-0.3,0.7-0.3l-1.4-0.8"/>
				</g>
				<g>
					<polyline fill="none" stroke="#0000FF" stroke-miterlimit="10" points="26.7,81.1 28,80.4 26.6,79.7 					"/>
				</g>
				<g>
					<polyline fill="none" stroke="#0000FF" stroke-miterlimit="10" points="26.6,79.4 28,78.7 26.6,77.9 					"/>
				</g>
				<g>
					<polyline fill="none" stroke="#0000FF" stroke-miterlimit="10" points="26.6,77.7 27.9,77 26.6,76.2 					"/>
				</g>
				<g>
					<polyline fill="none" stroke="#0000FF" stroke-miterlimit="10" points="26.6,76 27.9,75.3 26.5,74.5 					"/>
				</g>
				<g>
					<polyline fill="none" stroke="#0000FF" stroke-miterlimit="10" points="26.5,74.3 27.9,73.6 26.5,72.8 					"/>
				</g>
				<g>
					<polyline fill="none" stroke="#0000FF" stroke-miterlimit="10" points="26.5,72.5 27.9,71.9 26.5,71.1 					"/>
				</g>
				<g>
					<polyline fill="none" stroke="#0000FF" stroke-miterlimit="10" points="26.5,70.8 27.9,70.2 26.5,69.4 					"/>
				</g>
				<g>
					<polyline fill="none" stroke="#0000FF" stroke-miterlimit="10" points="26.5,69.1 27.9,68.5 26.5,67.7 					"/>
				</g>
				<g>
					<polyline fill="none" stroke="#0000FF" stroke-miterlimit="10" points="26.5,67.4 27.9,66.8 26.5,66 					"/>
				</g>
				<g>
					<polyline fill="none" stroke="#0000FF" stroke-miterlimit="10" points="26.5,65.7 27.9,65.1 26.6,64.3 					"/>
				</g>
				<g>
					<polyline fill="none" stroke="#0000FF" stroke-miterlimit="10" points="26.6,64 28,63.4 26.6,62.6 					"/>
				</g>
				<g>
					<path fill="none" stroke="#0000FF" stroke-miterlimit="10" d="M26.7,62.3l1.4-0.5c0,0-0.3-0.2-0.7-0.5
						c-0.3-0.2-0.6-0.5-0.6-0.5"/>
				</g>
				<g>
					<path fill="none" stroke="#0000FF" stroke-miterlimit="10" d="M26.8,60.5c0,0,0.4-0.1,0.7-0.2c0.4-0.1,0.7-0.2,0.7-0.2
						s-0.3-0.2-0.6-0.5c-0.3-0.3-0.5-0.6-0.5-0.6"/>
				</g>
				<g>
					<path fill="none" stroke="#0000FF" stroke-miterlimit="10" d="M27.3,58.7c0,0,0.4,0,0.8,0s0.7,0,0.7,0s-0.2-0.3-0.4-0.7
						c-0.2-0.4-0.3-0.8-0.3-0.8"/>
				</g>
				<g>
					<path fill="none" stroke="#0000FF" stroke-miterlimit="10" d="M28.3,57c0,0,0.4,0.1,0.7,0.2c0.4,0.1,0.7,0.3,0.7,0.3
						s-0.1-0.4-0.1-0.8c0-0.4,0.1-0.8,0.1-0.8"/>
				</g>
				<g>
					<path fill="none" stroke="#0000FF" stroke-miterlimit="10" d="M30,55.8c0,0,0.3,0.2,0.6,0.5c0.3,0.3,0.5,0.6,0.5,0.6
						s0.1-0.4,0.2-0.8c0.2-0.4,0.4-0.7,0.4-0.7"/>
				</g>
				<g>
					<path fill="none" stroke="#0000FF" stroke-miterlimit="10" d="M31.9,55.4c0,0,0.2,0.3,0.3,0.7c0.2,0.3,0.3,0.7,0.3,0.7
						s0.2-0.3,0.5-0.6c0.2-0.3,0.5-0.6,0.5-0.6"/>
				</g>
				<g>
					<path fill="none" stroke="#0000FF" stroke-miterlimit="10" d="M33.8,55.6c0,0,0.1,0.4,0.2,0.8c0,0.2,0,0.4,0.1,0.5
						c0,0.2,0,0.2,0,0.2s0.3-0.3,0.6-0.5c0.3-0.3,0.6-0.5,0.6-0.5"/>
				</g>
				<g>
					<path fill="none" stroke="#0000FF" stroke-miterlimit="10" d="M35.5,56.1c0,0,0,0.4,0.1,0.7c0.1,0.4,0.1,0.8,0.1,0.8
						s0.3-0.3,0.6-0.5c0.3-0.3,0.6-0.5,0.6-0.5"/>
				</g>
				<g>
					<path fill="none" stroke="#0000FF" stroke-miterlimit="10" d="M37.1,56.6c0,0,0.1,0.4,0.1,0.7c0.1,0.4,0.1,0.7,0.1,0.7
						s0.3-0.3,0.6-0.6s0.5-0.6,0.5-0.6"/>
				</g>
				<g>
					<path fill="none" stroke="#0000FF" stroke-miterlimit="10" d="M38.7,57c0,0,0.1,0.4,0.2,0.7c0.1,0.4,0.2,0.7,0.2,0.7
						s0.3-0.3,0.5-0.6c0.3-0.3,0.5-0.6,0.5-0.6"/>
				</g>
				<g>
					<path fill="none" stroke="#0000FF" stroke-miterlimit="10" d="M40.4,57.3c0,0,0.1,0.4,0.2,0.7c0.1,0.4,0.2,0.7,0.2,0.7
						s0.3-0.3,0.5-0.6s0.5-0.6,0.5-0.6"/>
				</g>
				<g>
					<path fill="none" stroke="#0000FF" stroke-miterlimit="10" d="M42,57.6c0,0,0.1,0.4,0.2,0.7c0.1,0.4,0.2,0.7,0.2,0.7
						s0.2-0.3,0.5-0.6c0.2-0.3,0.5-0.6,0.5-0.6"/>
				</g>
				<g>
					<path fill="none" stroke="#0000FF" stroke-miterlimit="10" d="M43.7,57.8c0,0,0.1,0.4,0.2,0.7c0.1,0.4,0.2,0.7,0.2,0.7
						s0.2-0.3,0.5-0.6c0.2-0.3,0.5-0.6,0.5-0.6"/>
				</g>
				<g>
					<path fill="none" stroke="#0000FF" stroke-miterlimit="10" d="M45.3,58c0,0,0.1,0.4,0.3,0.7c0.1,0.4,0.3,0.7,0.3,0.7
						s0.2-0.3,0.4-0.7c0.2-0.3,0.4-0.7,0.4-0.7"/>
				</g>
				<g>
					<path fill="none" stroke="#0000FF" stroke-miterlimit="10" d="M47,58c0,0,0.2,0.3,0.3,0.7c0.2,0.3,0.3,0.7,0.3,0.7
						s0.2-0.3,0.4-0.7c0.2-0.3,0.4-0.7,0.4-0.7"/>
				</g>
				<g>
					<path fill="none" stroke="#0000FF" stroke-miterlimit="10" d="M48.7,58c0,0,0.2,0.3,0.3,0.7c0.2,0.3,0.3,0.7,0.3,0.7
						s0.2-0.4,0.4-0.7c0.2-0.4,0.4-0.7,0.4-0.7"/>
				</g>
				<g>
					<path fill="none" stroke="#0000FF" stroke-miterlimit="10" d="M50.3,58c0,0,0.2,0.3,0.3,0.7c0.2,0.3,0.4,0.7,0.4,0.7
						s0.2-0.4,0.4-0.7c0.2-0.4,0.3-0.7,0.3-0.7"/>
				</g>
				<g>
					<path fill="none" stroke="#0000FF" stroke-miterlimit="10" d="M52,57.8c0,0,0.2,0.3,0.4,0.6s0.4,0.6,0.4,0.6s0.2-0.4,0.3-0.7
						c0.2-0.4,0.3-0.7,0.3-0.7"/>
				</g>
				<g>
					<path fill="none" stroke="#0000FF" stroke-miterlimit="10" d="M53.7,57.6c0,0,0.2,0.3,0.4,0.6s0.4,0.6,0.4,0.6s0.2-0.4,0.3-0.7
						c0.2-0.4,0.3-0.8,0.3-0.8"/>
				</g>
				<g>
					<path fill="none" stroke="#0000FF" stroke-miterlimit="10" d="M55.3,57.3c0,0,0.2,0.3,0.4,0.6s0.4,0.6,0.4,0.6s0.1-0.4,0.2-0.8
						c0.1-0.4,0.2-0.8,0.2-0.8"/>
				</g>
				<g>
					<path fill="none" stroke="#0000FF" stroke-miterlimit="10" d="M56.9,57c0,0,0.2,0.3,0.5,0.6c0.2,0.3,0.5,0.6,0.5,0.6
						s0.1-0.4,0.2-0.8c0.1-0.4,0.2-0.8,0.2-0.8"/>
				</g>
				<g>
					<path fill="none" stroke="#0000FF" stroke-miterlimit="10" d="M58.5,56.6c0,0,0.2,0.3,0.5,0.6c0.2,0.3,0.5,0.6,0.5,0.6
						s0.1-0.4,0.2-0.8c0.1-0.4,0.2-0.8,0.2-0.8"/>
				</g>
				<g>
					<path fill="none" stroke="#0000FF" stroke-miterlimit="10" d="M60.1,56c0,0,0.2,0.3,0.5,0.5c0.3,0.3,0.5,0.5,0.5,0.5
						s0.1-0.4,0.2-0.8c0.1-0.4,0.1-0.8,0.1-0.8"/>
				</g>
				<g>
					<path fill="none" stroke="#0000FF" stroke-miterlimit="10" d="M61.8,55.4c0,0,0.2,0.3,0.5,0.6c0.2,0.3,0.4,0.6,0.4,0.6
						s0.1-0.4,0.3-0.7c0.2-0.4,0.4-0.7,0.4-0.7"/>
				</g>
				<g>
					<path fill="none" stroke="#0000FF" stroke-miterlimit="10" d="M63.6,55.1c0,0,0.2,0.3,0.3,0.7c0.2,0.3,0.2,0.7,0.2,0.7
						s0.2-0.3,0.5-0.6s0.6-0.5,0.6-0.5"/>
				</g>
				<g>
					<path fill="none" stroke="#0000FF" stroke-miterlimit="10" d="M65.6,55.5c0,0,0.1,0.4,0,0.8c0,0.4-0.1,0.7-0.1,0.7
						s0.3-0.2,0.7-0.3c0.4-0.1,0.8-0.2,0.8-0.2"/>
				</g>
				<g>
					<path fill="none" stroke="#0000FF" stroke-miterlimit="10" d="M67.3,56.7c0,0-0.2,0.4-0.3,0.7c-0.2,0.3-0.4,0.6-0.4,0.6
						s0.4,0,0.8,0s0.8,0.1,0.8,0.1"/>
				</g>
				<g>
					<path fill="none" stroke="#0000FF" stroke-miterlimit="10" d="M68.2,58.5c0,0-0.3,0.3-0.5,0.5s-0.6,0.5-0.6,0.5
						s0.4,0.1,0.8,0.2c0.4,0.1,0.8,0.3,0.8,0.3"/>
				</g>
				<g>
					<path fill="none" stroke="#0000FF" stroke-miterlimit="10" d="M68.7,60.3c0,0-0.3,0.2-0.6,0.4c-0.3,0.2-0.7,0.3-0.7,0.3
						s0.4,0.2,0.7,0.4c0.3,0.2,0.7,0.4,0.7,0.4"/>
				</g>
				<g>
					<path fill="none" stroke="#0000FF" stroke-miterlimit="10" d="M68.7,62.1C68.7,62.1,68.7,62.2,68.7,62.1
						C68.6,62.2,68.6,62.2,68.7,62.1c-0.5,0.2-0.9,0.4-1.4,0.5l1.3,0.9"/>
				</g>
				<g>
					<polyline fill="none" stroke="#0000FF" stroke-miterlimit="10" points="68.7,63.8 67.3,64.4 68.6,65.2 					"/>
				</g>
				<g>
					<polyline fill="none" stroke="#0000FF" stroke-miterlimit="10" points="68.6,65.5 67.2,66.1 68.5,66.9 					"/>
				</g>
				<g>
					<polyline fill="none" stroke="#0000FF" stroke-miterlimit="10" points="68.5,67.2 67.1,67.8 68.5,68.6 					"/>
				</g>
				<g>
					<polyline fill="none" stroke="#0000FF" stroke-miterlimit="10" points="68.5,68.9 67.1,69.5 68.5,70.3 					"/>
				</g>
				<g>
					<polyline fill="none" stroke="#0000FF" stroke-miterlimit="10" points="68.4,70.6 67.1,71.2 68.4,72.1 					"/>
				</g>
				<g>
					<polyline fill="none" stroke="#0000FF" stroke-miterlimit="10" points="68.4,72.3 67,72.9 68.3,73.7 					"/>
				</g>
				<g>
					<polyline fill="none" stroke="#0000FF" stroke-miterlimit="10" points="68.3,74 66.9,74.6 68.3,75.4 					"/>
				</g>
				<g>
					<polyline fill="none" stroke="#0000FF" stroke-miterlimit="10" points="68.3,75.7 66.9,76.3 68.2,77.2 					"/>
				</g>
				<g>
					<polyline fill="none" stroke="#0000FF" stroke-miterlimit="10" points="68.2,77.4 66.8,78 68.2,78.9 					"/>
				</g>
				<g>
					<polyline fill="none" stroke="#0000FF" stroke-miterlimit="10" points="68.2,79.1 66.8,79.7 68.1,80.6 					"/>
				</g>
				<g>
					<path fill="none" stroke="#0000FF" stroke-miterlimit="10" d="M68.1,80.8l-1.4,0.6c0,0,0.3,0.2,0.7,0.4
						c0.3,0.2,0.7,0.5,0.7,0.5"/>
				</g>
				<g>
					<path fill="none" stroke="#0000FF" stroke-miterlimit="10" d="M68.1,82.6c0,0-0.4,0.1-0.7,0.2C67,82.9,66.7,83,66.7,83
						s0.3,0.2,0.6,0.5c0.3,0.2,0.6,0.5,0.6,0.5"/>
				</g>
				<g>
					<path fill="none" stroke="#0000FF" stroke-miterlimit="10" d="M67.8,84.3c0,0-0.4,0.1-0.7,0.2c-0.4,0.1-0.7,0.2-0.7,0.2
						s0.3,0.2,0.6,0.5c0.3,0.3,0.6,0.5,0.6,0.5"/>
				</g>
				<g>
					<path fill="none" stroke="#0000FF" stroke-miterlimit="10" d="M67.5,86.1c0,0-0.4,0.1-0.7,0.1c-0.4,0.1-0.7,0.1-0.7,0.1
						s0.3,0.3,0.5,0.6s0.5,0.6,0.5,0.6"/>
				</g>
				<g>
					<path fill="none" stroke="#0000FF" stroke-miterlimit="10" d="M67,87.8c0,0-0.4,0-0.8,0.1c-0.4,0-0.8,0-0.8,0s0.2,0.3,0.5,0.6
						c0.2,0.3,0.5,0.7,0.5,0.7"/>
				</g>
				<g>
					<path fill="none" stroke="#0000FF" stroke-miterlimit="10" d="M66.2,89.4c0,0-0.4,0-0.8,0s-0.8-0.1-0.8-0.1s0.2,0.3,0.4,0.7
						c0.2,0.4,0.4,0.7,0.4,0.7"/>
				</g>
				<g>
					<path fill="none" stroke="#0000FF" stroke-miterlimit="10" d="M65.3,91c0,0-0.4-0.1-0.7-0.1c-0.4-0.1-0.7-0.2-0.7-0.2
						s0.2,0.4,0.3,0.7c0.2,0.4,0.3,0.8,0.3,0.8"/>
				</g>
				<g>
					<path fill="none" stroke="#0000FF" stroke-miterlimit="10" d="M64.2,92.4c0,0-0.4-0.1-0.7-0.2c-0.4-0.1-0.7-0.2-0.7-0.2
						s0.1,0.4,0.2,0.8c0.1,0.4,0.2,0.8,0.2,0.8"/>
				</g>
				<g>
					<path fill="none" stroke="#0000FF" stroke-miterlimit="10" d="M63,93.7c0,0-0.4-0.2-0.7-0.3c-0.3-0.2-0.7-0.3-0.7-0.3
						s0.1,0.4,0.2,0.8c0.1,0.4,0.1,0.8,0.1,0.8"/>
				</g>
				<g>
					<path fill="none" stroke="#0000FF" stroke-miterlimit="10" d="M61.7,94.9c0,0-0.3-0.2-0.7-0.4c-0.3-0.2-0.6-0.4-0.6-0.4
						s0,0.4,0.1,0.8c0,0.4,0,0.8,0,0.8"/>
				</g>
				<g>
					<path fill="none" stroke="#0000FF" stroke-miterlimit="10" d="M60.2,95.9c0,0-0.3-0.2-0.6-0.4c-0.3-0.2-0.6-0.4-0.6-0.4
						s0,0.4,0,0.8s-0.1,0.8-0.1,0.8"/>
				</g>
				<g>
					<path fill="none" stroke="#0000FF" stroke-miterlimit="10" d="M58.6,96.8c0,0-0.3-0.2-0.6-0.5c-0.3-0.2-0.6-0.5-0.6-0.5
						s0,0.4-0.1,0.8s-0.1,0.8-0.1,0.8"/>
				</g>
				<g>
					<path fill="none" stroke="#0000FF" stroke-miterlimit="10" d="M57,97.5c0,0-0.3-0.3-0.5-0.5c-0.3-0.3-0.5-0.5-0.5-0.5
						s-0.1,0.4-0.2,0.8c-0.1,0.4-0.2,0.8-0.2,0.8"/>
				</g>
				<g>
					<path fill="none" stroke="#0000FF" stroke-miterlimit="10" d="M55.4,98.1c0,0-0.2-0.3-0.5-0.5c-0.2-0.3-0.5-0.6-0.5-0.6
						s-0.1,0.4-0.2,0.8c-0.1,0.4-0.2,0.8-0.2,0.8"/>
				</g>
				<g>
					<path fill="none" stroke="#0000FF" stroke-miterlimit="10" d="M53.7,98.6c0,0-0.2-0.3-0.5-0.6c-0.2-0.3-0.5-0.6-0.5-0.6
						s-0.1,0.4-0.2,0.8c-0.1,0.4-0.3,0.8-0.3,0.8"/>
				</g>
				<g>
					<path fill="none" stroke="#0000FF" stroke-miterlimit="10" d="M52,98.9c0,0-0.2-0.3-0.4-0.6c-0.2-0.3-0.4-0.6-0.4-0.6
						S51,98,50.8,98.4s-0.3,0.7-0.3,0.7"/>
				</g>
				<g>
					<path fill="none" stroke="#0000FF" stroke-miterlimit="10" d="M50.2,99.2c0,0-0.2-0.3-0.4-0.6c-0.2-0.3-0.4-0.6-0.4-0.6
						s-0.2,0.4-0.3,0.7c-0.2,0.4-0.4,0.7-0.4,0.7"/>
				</g>
				<g>
					<path fill="none" stroke="#0000FF" stroke-miterlimit="10" d="M48.5,99.4c0,0-0.2-0.3-0.3-0.7C48,98.4,47.8,98,47.8,98
						c-0.1,0.2-0.2,0.3-0.2,0.3c-0.2,0.4-0.3,0.8-0.5,1.2"/>
				</g>
				<g>
					<path fill="none" stroke="#0000FF" stroke-miterlimit="10" d="M46.8,99.5c0,0-0.2-0.3-0.4-0.7c-0.2-0.3-0.3-0.7-0.3-0.7
						s-0.2,0.4-0.4,0.7c-0.2,0.3-0.4,0.7-0.4,0.7"/>
				</g>
			</g>
		</g>
	</g>
</g>
<g id="eyes">
	<path fill="#FF9900" stroke="#010101" stroke-width="0.75" stroke-miterlimit="10" d="M37.4,39.2c0,0,0-6,5.5-5.9
		C42.9,33.4,44.4,38.7,37.4,39.2z"/>
	<path fill="#FF9900" stroke="#010101" stroke-width="0.75" stroke-miterlimit="10" d="M58,39.2c0,0,0-6-5.5-5.9
		C52.6,33.4,51,38.7,58,39.2z"/>
</g>
<g id="leaf">
	<g>
		<path fill="#A8CF38" stroke="#010101" stroke-width="0.5" stroke-linecap="round" stroke-linejoin="round" d="M44.9,23.9
			c0,0-2.6-4.6-2.3-6.8l0.6,0.2c0,0-0.5-0.7,0.1-3.4l0.5,0.5c0,0-0.5-1.4,0.4-3.2l0.5,0.5c0,0,0.2-1.3,0.8-2.5l0.6,0.4
			c0,0-0.1-1.5,0.4-2.6L47,7.3c0,0,0.2-1.9,1.3-2.3l0.2,0.5c0,0,0.7-1.2,1.8-1.8l0.5,0.5c0,0,0-1.2,1.3-1.7l0.3,0.4
			c0,0,0.2-1.6,1.4-1.8l0.4,0.8c0,0,2.2-2,2.7-2.1l0.8,0.4c0.1,0.4,0,3.4,0,3.4l0.8-0.2c0.5,1.2-0.6,2.2-0.6,2.2h0.5
			c0.5,1.4-0.5,2.1-0.5,2.1l0.7,0.1c0.2,1.2-0.4,2.5-0.4,2.5l0.5-0.2c0.4,1-1,2.4-1,2.4l0.7,0.2c-0.5,1.1-1.8,1.9-1.8,1.9l0.6,0.2
			c-0.7,1.2-1.6,2.1-1.6,2.1l0.7,0.2c-0.9,1.8-2.3,2.3-2.3,2.3l0.7,0.2c-1.8,2.2-2.7,2.2-2.7,2.2l0.6,0.4c-1.6,1.6-6.8,2.3-6.8,2.3
			L44.9,23.9z"/>
		<path fill="#A8CF38" stroke="#010101" stroke-width="0.5" stroke-linecap="round" stroke-linejoin="round" d="M45.3,24.1
			c0,0-2.6-4.6-2.3-6.8l0.6,0.2c0,0-0.5-0.7,0.1-3.4l0.5,0.5c0,0-0.5-1.4,0.4-3.2l0.5,0.5c0,0,0.2-1.3,0.8-2.5l0.6,0.4
			c0,0-0.1-1.5,0.4-2.6l0.5,0.5c0,0,0.2-1.9,1.3-2.3l0.2,0.5c0,0,0.7-1.2,1.8-1.8l0.5,0.5c0,0,0-1.2,1.3-1.7l0.3,0.4
			c0,0,0.2-1.6,1.4-1.8L54.5,2c0,0,2.2-2,2.7-2.1L58,0.4c0.1,0.4,0,3.4,0,3.4l0.8-0.2c0.5,1.2-0.6,2.2-0.6,2.2h0.5
			c0.5,1.4-0.5,2.1-0.5,2.1L58.9,8c0.2,1.2-0.4,2.5-0.4,2.5l0.5-0.2c0.4,1-1,2.4-1,2.4l0.7,0.2c-0.5,1.1-1.8,1.9-1.8,1.9l0.6,0.2
			c-0.7,1.2-1.6,2.1-1.6,2.1l0.7,0.2c-0.9,1.8-2.3,2.3-2.3,2.3l0.7,0.2C53.2,22,52.3,22,52.3,22l0.6,0.4c-1.6,1.6-6.8,2.3-6.8,2.3
			L45.3,24.1z"/>
		
			<line fill="none" stroke="#010101" stroke-width="0.5" stroke-linecap="round" stroke-linejoin="round" x1="57.4" y1="0.4" x2="45.6" y2="24.3"/>
		<g>
			
				<line fill="none" stroke="#010101" stroke-width="0.5" stroke-linecap="round" stroke-linejoin="round" x1="54.6" y1="1.7" x2="55" y2="3.7"/>
			
				<line fill="none" stroke="#010101" stroke-width="0.5" stroke-linecap="round" stroke-linejoin="round" x1="52.8" y1="3.2" x2="53.9" y2="5.5"/>
			
				<line fill="none" stroke="#010101" stroke-width="0.5" stroke-linecap="round" stroke-linejoin="round" x1="51.3" y1="4.3" x2="52.8" y2="7.3"/>
			
				<line fill="none" stroke="#010101" stroke-width="0.5" stroke-linecap="round" stroke-linejoin="round" x1="48.8" y1="5.6" x2="51.4" y2="9.2"/>
			
				<line fill="none" stroke="#010101" stroke-width="0.5" stroke-linecap="round" stroke-linejoin="round" x1="47.6" y1="7.4" x2="50.8" y2="11.2"/>
			
				<line fill="none" stroke="#010101" stroke-width="0.5" stroke-linecap="round" stroke-linejoin="round" x1="46.4" y1="9.6" x2="49.6" y2="13.1"/>
			
				<line fill="none" stroke="#010101" stroke-width="0.5" stroke-linecap="round" stroke-linejoin="round" x1="45.2" y1="11.6" x2="48" y2="15.3"/>
			
				<line fill="none" stroke="#010101" stroke-width="0.5" stroke-linecap="round" stroke-linejoin="round" x1="44.2" y1="14.4" x2="47.5" y2="18.4"/>
			
				<line fill="none" stroke="#010101" stroke-width="0.5" stroke-linecap="round" stroke-linejoin="round" x1="43.7" y1="17.4" x2="46.2" y2="21.7"/>
		</g>
		<g>
			
				<line fill="none" stroke="#010101" stroke-width="0.5" stroke-linecap="round" stroke-linejoin="round" x1="58.3" y1="3.6" x2="56.5" y2="4.4"/>
			
				<line fill="none" stroke="#010101" stroke-width="0.5" stroke-linecap="round" stroke-linejoin="round" x1="58.2" y1="5.9" x2="55.7" y2="6.4"/>
			
				<line fill="none" stroke="#010101" stroke-width="0.5" stroke-linecap="round" stroke-linejoin="round" x1="58.3" y1="7.7" x2="55" y2="8.3"/>
			
				<line fill="none" stroke="#010101" stroke-width="0.5" stroke-linecap="round" stroke-linejoin="round" x1="58.7" y1="10.5" x2="54.3" y2="10.6"/>
			
				<line fill="none" stroke="#010101" stroke-width="0.5" stroke-linecap="round" stroke-linejoin="round" x1="58.1" y1="12.5" x2="53.1" y2="12.3"/>
			
				<line fill="none" stroke="#010101" stroke-width="0.5" stroke-linecap="round" stroke-linejoin="round" x1="57" y1="14.8" x2="52.3" y2="14.4"/>
			
				<line fill="none" stroke="#010101" stroke-width="0.5" stroke-linecap="round" stroke-linejoin="round" x1="56.2" y1="17" x2="51.6" y2="17.1"/>
			
				<line fill="none" stroke="#010101" stroke-width="0.5" stroke-linecap="round" stroke-linejoin="round" x1="54.5" y1="19.5" x2="49.4" y2="19.4"/>
			
				<line fill="none" stroke="#010101" stroke-width="0.5" stroke-linecap="round" stroke-linejoin="round" x1="52.5" y1="21.8" x2="47.5" y2="22.3"/>
		</g>
		<path fill="#FFFFFF" stroke="#010101" stroke-width="0.5" stroke-linecap="round" stroke-linejoin="round" d="M59.3,8.1
			c0,0-1.7,0.5-1.3,1.4c0,0-2.1,0.3-1.1,2c0,0,0.5,1.1,1.4,0.7c0,0-0.6,0.9,0.3,0.8c0.9-0.2,0.7-0.2,0.7-0.2"/>
		<path fill="#FFFFFF" stroke="#010101" stroke-width="0.5" stroke-miterlimit="10" d="M48,10.4c-0.1,0.4-0.3,0.7-0.5,1.1
			c0.5,0.4,1-0.4,1.3-0.8c-0.2,0.6-0.1,2,0.8,1c-0.2,0.6,0.2,0.7,0.7,0.9c-0.2,0.5-0.7,0.7-1,1.1c-0.2,0.2-0.3,0.6-0.4,0.8
			c-0.3-0.2-0.4-0.6-0.6-0.9c-0.2,0.2-0.8,0.9-1,0.9c-0.3,0-0.5-0.7-0.9-0.8c0.1-0.3,0.3-0.6,0.4-0.9c-0.1-0.1-0.1-0.1-0.2-0.1
			c0.1-0.4,0.8-2.4,1.3-2"/>
		<path fill="#FFFFFF" stroke="#010101" stroke-width="0.5" stroke-miterlimit="10" d="M54,5.8c0.5-0.5,0.5-1,1.3-1.4
			c0.1,0.2-0.1,0.9,0.1,0.9c0.4,0.3,1.1-0.5,1.4-0.7c-0.1,0.2-0.4,0.7-0.3,0.9c0.2,0.4,0.7,0.1,1,0.1c-0.2,0.6-0.7,1-1,1.6
			C56.2,7.7,56.2,8,56,8.4c-0.7-0.2-1.2-0.8-1.3-1.5c-0.2,0.4-1,1.9-1.1,0.7c-0.1-0.7,0.5-1.4,0.6-2.1"/>
		<path fill="#FFFFFF" stroke="#010101" stroke-width="0.5" stroke-miterlimit="10" d="M53.1,15.7c0,0.4-0.6,0.9-0.6,1.3
			c0,0.6,0.7,1,1.2,1c-0.6,0.2-1.2,0.5-1.4,1.2c0.3,0.3,0.6,0.4,1,0.6C53,20,51.6,20.7,52.4,21c-0.2,0.5-1.6-0.2-2-0.5
			c-0.8-0.7-0.5-1.5-0.2-2.3c0.5-1.2,1.5-2.4,3-2.1"/>
	</g>
</g>
<g id="water">
	<g>
		<path fill="#55C2E2" stroke="#070707" stroke-width="0.5" stroke-miterlimit="10" d="M24.5,16.5c0,0-11,12.7-1.3,15.6
			c0,0,8-0.2,4.5-9.4C27.7,22.7,24.7,19.1,24.5,16.5z"/>
		<path fill="none" stroke="#3A97AD" stroke-miterlimit="10" d="M23.9,31.1c1.6,0.7,4.1-3.2,3.9-4.5"/>
		
			<ellipse transform="matrix(-0.7903 0.6127 -0.6127 -0.7903 57.6323 38.4649)" opacity="0.8" fill="#FFFFFF" enable-background="new    " cx="22.2" cy="29.1" rx="1.5" ry="1.8"/>
		<path opacity="0.8" fill="#FFFFFF" enable-background="new    " d="M21.3,22.1c0,0,1.4-3.5,3.1-4.5"/>
	</g>
	<g>
		<path fill="#55C2E2" stroke="#070707" stroke-width="0.5" stroke-miterlimit="10" d="M80.2,80.1c0,0-11,12.7-1.3,15.6
			c0,0,8-0.2,4.5-9.4C83.3,86.3,80.3,82.8,80.2,80.1z"/>
		<path fill="none" stroke="#3A97AD" stroke-miterlimit="10" d="M79.5,94.7c1.6,0.7,4.1-3.1,3.9-4.5"/>
		
			<ellipse transform="matrix(-0.7903 0.6127 -0.6127 -0.7903 196.4038 118.3515)" opacity="0.8" fill="#FFFFFF" enable-background="new    " cx="77.9" cy="92.8" rx="1.5" ry="1.8"/>
		<path opacity="0.8" fill="#FFFFFF" enable-background="new    " d="M76.9,85.7c0,0,1.4-3.5,3.1-4.5"/>
	</g>
	<g>
		<path fill="#55C2E2" stroke="#070707" stroke-width="0.5" stroke-miterlimit="10" d="M23.1,48.6c0,0-6.6,7.7-0.8,9.4
			c0,0,4.8-0.1,2.7-5.7C25,52.3,23.2,50.2,23.1,48.6z"/>
		<path fill="none" stroke="#3A97AD" stroke-miterlimit="10" d="M22.7,57.4c0.9,0.4,2.5-1.9,2.3-2.7"/>
		
			<ellipse transform="matrix(-0.7903 0.6128 -0.6128 -0.7903 73.6991 88.7994)" opacity="0.8" fill="#FFFFFF" enable-background="new    " cx="21.7" cy="57" rx="0.5" ry="0.6"/>
		<path opacity="0.8" fill="#FFFFFF" enable-background="new    " d="M21.2,52c0,0,0.9-2.1,1.9-2.7"/>
	</g>
	<g>
		<path fill="#55C2E2" stroke="#070707" stroke-width="0.5" stroke-miterlimit="10" d="M72.5,45.9c0,0-6.6,7.7-0.8,9.4
			c0,0,4.8-0.1,2.7-5.7C74.3,49.6,72.5,47.5,72.5,45.9z"/>
		<path fill="none" stroke="#3A97AD" stroke-miterlimit="10" d="M72,54.7c0.9,0.4,2.5-1.9,2.3-2.7"/>
		
			<ellipse transform="matrix(-0.7904 0.6126 -0.6126 -0.7904 160.3648 53.8058)" opacity="0.8" fill="#FFFFFF" enable-background="new    " cx="71" cy="54.3" rx="0.5" ry="0.6"/>
		<path opacity="0.8" fill="#FFFFFF" enable-background="new    " d="M70.5,49.3c0,0,0.9-2.1,1.9-2.7"/>
	</g>
	<g>
		<path fill="#55C2E2" stroke="#070707" stroke-width="0.5" stroke-miterlimit="10" d="M70.7,34.4c0,0-4.1,4.8-0.5,5.9
			c0,0,3-0.1,1.7-3.5C71.9,36.7,70.8,35.4,70.7,34.4z"/>
		<path fill="none" stroke="#3A97AD" stroke-miterlimit="10" d="M70.5,39.9c0.6,0.3,1.6-1.2,1.5-1.7"/>
		<ellipse opacity="0.8" fill="#FFFFFF" enable-background="new    " cx="69.7" cy="39.1" rx="0.3" ry="0.3"/>
		<path opacity="0.8" fill="#FFFFFF" enable-background="new    " d="M69.5,36.5c0,0,0.5-1.3,1.2-1.7"/>
	</g>
	<g>
		<path fill="#55C2E2" stroke="#070707" stroke-width="0.5" stroke-miterlimit="10" d="M17.8,80.1c0,0-4.1,4.8-0.5,5.9
			c0,0,3-0.1,1.7-3.5C18.9,82.4,17.8,81.1,17.8,80.1z"/>
		<path fill="none" stroke="#3A97AD" stroke-miterlimit="10" d="M17.5,85.6c0.6,0.3,1.6-1.2,1.5-1.7"/>
		<ellipse opacity="0.8" fill="#FFFFFF" enable-background="new    " cx="16.8" cy="84.9" rx="0.3" ry="0.3"/>
		<path opacity="0.8" fill="#FFFFFF" enable-background="new    " d="M16.5,82.2c0,0,0.5-1.3,1.2-1.7"/>
	</g>
</g>
</svg>
