<?xml version="1.0" encoding="utf-8"?>
<!-- Generator: Adobe Illustrator 17.1.0, SVG Export Plug-In . SVG Version: 6.00 Build 0)  -->
<!DOCTYPE svg PUBLIC "-//W3C//DTD SVG 1.1//EN" "http://www.w3.org/Graphics/SVG/1.1/DTD/svg11.dtd">
<svg version="1.1" xmlns="http://www.w3.org/2000/svg" xmlns:xlink="http://www.w3.org/1999/xlink" x="0px" y="0px"
	 viewBox="0 0 235.5 351.2" enable-background="new 0 0 235.5 351.2" xml:space="preserve">
<pattern  x="-198" y="-178.5" width="8.7" height="8.7" patternUnits="userSpaceOnUse" id="New_Pattern_Swatch_12" viewBox="0 -8.7 8.7 8.7" overflow="visible">
	<g>
		<polygon fill="none" points="8.7,0 0,0 0,-8.7 8.7,-8.7 		"/>
		<g>
			<path fill="#010101" d="M5-4.5c0,0.4-0.3,0.7-0.7,0.7C4-3.8,3.7-4.1,3.7-4.5c0-0.4,0.3-0.7,0.7-0.7C4.7-5.2,5-4.9,5-4.5z"/>
		</g>
	</g>
</pattern>
<g id="legs">
	<path fill="#FFFFFF" stroke="#010101" stroke-miterlimit="10" d="M151.7,166.2c0,0,7.6-7.3,13.5-7.1c0,0-2.9,1.3-1.5,2.2
		c1.3,0.9,13.4,6.9,19.5,4.9c6.1-2,9.9-35.8-29.8-50.3c0,0,19.1,2.9,23,6.4c0,0,2.9-24.8-27.8-32.7c0,0-3.5,0.9-3.7,2.9
		c0,0-6.1-7.9-13.4-2.9c0,0,6.6-11.9,32.5-1.7c0,0,17.1,4.1,21.5,34.8c0,0,14.5,39.7,11,46.7c0,0-0.4,4.4-6.8,4.6
		c-6.4,0.2-36.2-0.9-36.2-0.9S153.5,165.8,151.7,166.2z"/>
	<path fill="#FFFFFF" stroke="#010101" stroke-miterlimit="10" d="M69.5,166.2c0,0-7.6-7.3-13.5-7.1c0,0,2.8,1.3,1.5,2.2
		c-1.3,0.9-13.4,6.9-19.5,4.9c-6.1-2-9.9-35.8,29.8-50.3c0,0-19.1,2.9-23,6.4c0,0-2.9-24.8,27.8-32.7c0,0,3.5,0.9,3.7,2.9
		c0,0,6.1-7.9,13.4-2.9c0,0-6.6-11.9-32.4-1.7c0,0-17.1,4.1-21.5,34.8c0,0-14.5,39.7-11,46.7c0,0,0.4,4.4,6.8,4.6
		c6.4,0.2,36.2-0.9,36.2-0.9S67.7,165.8,69.5,166.2z"/>
	<path fill="#FFFFFF" stroke="#010101" stroke-miterlimit="10" d="M27.8,220.5c0,0-10,22.3-10.8,37.8c-0.8,15.5-0.5,29.4,3.2,30.6
		c0,0-3-13.9-1.3-18.5c0,0,1.3,0,1,3.7c0,0,2.2-4.2,0.2-8.9c0,0,1-26.4,13.3-41.5L27.8,220.5z"/>
	<path fill="#FFFFFF" stroke="#010101" stroke-miterlimit="10" d="M49.2,210.3c0,0-13.8,1.4-18.5,5.2c0,0-8.4,9,2.5,8.2
		c10.9-0.8,10.9-0.8,10.9-0.8S44.4,214.3,49.2,210.3z"/>
	<path fill="#FFFFFF" stroke="#010101" stroke-miterlimit="10" d="M45.2,287c0,0-4.6,3.4-5.7,6.2c-1.1,2.8-11.5,21.8-7.4,39.3
		c0,0-3-2-2.7-3.7c0,0,0.1,2.7,2.8,8.6c2.8,5.9,2.4,10.5,6.5,13.9c0,0-6.9-19.7-4.5-28.5c2.4-8.7-0.3-14.7,10.1-32.2L45.2,287z"/>
	<path fill="#FFFFFF" stroke="#010101" stroke-miterlimit="10" d="M54,266.8c0,0-15.4,19.8-16.7,24.3c0,0,5,2.5,9.5,1l7.4-9.3
		L54,266.8z"/>
	<path fill="#FFFFFF" stroke="#010101" stroke-miterlimit="10" d="M193.7,220.5c0,0,10,22.3,10.8,37.8c0.8,15.5,0.5,29.4-3.2,30.6
		c0,0,3-13.9,1.3-18.5c0,0-1.3,0-1,3.7c0,0-2.2-4.2-0.2-8.9c0,0-1-26.4-13.3-41.5L193.7,220.5z"/>
	<path fill="#FFFFFF" stroke="#010101" stroke-miterlimit="10" d="M172.2,210.3c0,0,13.8,1.4,18.5,5.2c0,0,8.4,9-2.5,8.2
		c-10.9-0.8-10.9-0.8-10.9-0.8S177.1,214.3,172.2,210.3z"/>
	<path fill="#FFFFFF" stroke="#010101" stroke-miterlimit="10" d="M176.3,287c0,0,4.6,3.4,5.7,6.2c1.1,2.8,11.5,21.8,7.4,39.3
		c0,0,3-2,2.7-3.7c0,0-0.1,2.7-2.8,8.6c-2.8,5.9-2.4,10.5-6.5,13.9c0,0,6.9-19.7,4.5-28.5c-2.4-8.7,0.3-14.7-10.1-32.2L176.3,287z"
		/>
	<path fill="#FFFFFF" stroke="#010101" stroke-miterlimit="10" d="M167.4,266.8c0,0,15.4,19.8,16.7,24.3c0,0-5,2.5-9.5,1l-7.4-9.3
		L167.4,266.8z"/>
</g>
<g id="basebody">
	<path fill="#FFFFFF" stroke="#010101" stroke-miterlimit="10" d="M64,201.5c0,0-14.8-37,22.2-48c0,0,30.5,9.5,57.5,0
		c0,0,32.2,11,17.8,48C161.5,201.5,125.9,218.5,64,201.5z"/>
	<path fill="#FFFFFF" stroke="#000000" stroke-miterlimit="10" d="M111.1,198.4c0,0,20.2-17.1,29.9-17.1c9.7,0,34-0.6,34.8,17.1
		c0.8,17.7,8.1,57.8,0,73.8c-8.1,15.9-21,36-45.3,39s-19.4,0-19.4,0V198.4z"/>
	<path fill="#FFFFFF" stroke="#000000" stroke-miterlimit="10" d="M111.3,198.4c0,0-20.2-17.1-29.9-17.1s-34-0.6-34.8,17.1
		c-0.8,17.7-8.1,57.8,0,73.8c8.1,15.9,21,36,45.3,39c24.3,3,19.4,0,19.4,0"/>
	<path fill="#FFFFFF" stroke="#010101" stroke-miterlimit="10" d="M89.7,153.4c0,0,24.6-29.7,50.6,0
		C140.3,153.4,114,165.8,89.7,153.4z"/>
</g>
<g id="bodycolor">
	<path fill="#D0DD28" stroke="#010101" stroke-miterlimit="10" d="M63.5,201.5c0,0-14.8-37,22.2-48c0,0,30.5,9.5,57.5,0
		c0,0,32.2,11,17.8,48C161,201.5,125.4,218.5,63.5,201.5z"/>
	<path fill="#6CBE45" stroke="#010101" stroke-miterlimit="10" d="M110.6,198.4c0,0,20.2-17.1,29.9-17.1c9.7,0,34-0.6,34.8,17.1
		c0.8,17.7,8.1,57.8,0,73.8c-8.1,15.9-21,36-45.3,39s-19.4,0-19.4,0V198.4z"/>
	<path fill="#6CBE45" stroke="#010101" stroke-miterlimit="10" d="M110.8,198.4c0,0-20.2-17.1-29.9-17.1c-9.7,0-34-0.6-34.8,17.1
		c-0.8,17.7-8.1,57.8,0,73.8c8.1,15.9,21,36,45.3,39c24.3,3,19.4,0,19.4,0"/>
	<path fill="#6CBE45" stroke="#010101" stroke-miterlimit="10" d="M89.3,153.4c0,0,24.6-29.7,50.6,0
		C139.9,153.4,113.5,165.8,89.3,153.4z"/>
</g>
<g id="eyes">
	<path fill="#FFFFFF" stroke="#010101" stroke-miterlimit="10" d="M90.6,152.5c0,0,7.4-11.4,13.3-6.2c0,0-1.4,14.4-13.9,7.9
		L90.6,152.5z"/>
	<path fill="#FFFFFF" stroke="#010101" stroke-miterlimit="10" d="M139.5,152.5c0,0-7.4-11.4-13.3-6.2c0,0,1.4,14.4,13.9,7.9
		L139.5,152.5z"/>
</g>
<g id="antennae">
	<path fill="none" stroke="#010101" stroke-miterlimit="10" d="M78.1,123.2c0,0-0.9,23.7,16.2,24.3"/>
	<path fill="none" stroke="#010101" stroke-miterlimit="10" d="M152.2,123.2c0,0,0.9,23.7-16.2,24.3"/>
</g>
<g id="markings">
	<path fill="#010101" d="M75.8,291.5c0,0-25.2-53.9,3.3-60.6C79.1,230.9,104,239,75.8,291.5z"/>
	<path fill="#010101" d="M141.5,291.5c0,0-25.2-53.9,3.3-60.6C144.8,230.9,169.7,239,141.5,291.5z"/>
</g>
<g id="dots">
	<path fill="url(#New_Pattern_Swatch_12)" stroke="#010101" stroke-miterlimit="10" d="M111.1,198.4c0,0,20.2-17.1,29.9-17.1
		c9.7,0,34-0.6,34.8,17.1c0.8,17.7,8.1,57.8,0,73.8c-8.1,15.9-21,36-45.3,39s-19.4,0-19.4,0V198.4z"/>
	<path fill="url(#New_Pattern_Swatch_12)" stroke="#010101" stroke-miterlimit="10" d="M111.3,198.4c0,0-20.2-17.1-29.9-17.1
		s-34-0.6-34.8,17.1c-0.8,17.7-8.1,57.8,0,73.8c8.1,15.9,21,36,45.3,39c24.3,3,19.4,0,19.4,0V198.4z"/>
</g>
<g id="fur">
	<g>
		<g>
			<path fill="none" stroke="#010101" stroke-miterlimit="10" d="M119.1,91"/>
		</g>
	</g>
	<g>
		<g>
			<path fill="none" stroke="#010101" stroke-miterlimit="10" d="M366.3,324.4"/>
		</g>
	</g>
	<g>
		<g>
			<g>
				<g>
					<path fill="none" stroke="#010101" stroke-miterlimit="10" d="M109.2,195c0,0,1.1,0.5,2.2,1.1c1.1,0.6,2.2,1.1,2.2,1.1
						s-0.2-1.3-0.4-2.6c-0.2-1.3-0.3-2.6-0.3-2.6"/>
				</g>
				<g>
					<path fill="none" stroke="#010101" stroke-miterlimit="10" d="M113.5,191.5c0,0,1.1,0.6,2.2,1.2c1.1,0.6,2.2,1.2,2.2,1.2
						s-0.1-1.3-0.3-2.6c-0.1-1.3-0.3-2.6-0.3-2.6"/>
				</g>
				<g>
					<path fill="none" stroke="#010101" stroke-miterlimit="10" d="M118,188.1c0,0,1.1,0.6,2.1,1.3c1.1,0.6,2.1,1.3,2.1,1.3
						s-0.1-1.3-0.2-2.6c-0.1-1.3-0.2-2.6-0.2-2.6"/>
				</g>
				<g>
					<path fill="none" stroke="#010101" stroke-miterlimit="10" d="M122.6,184.9c0,0,1,0.7,2.1,1.3c1,0.7,2,1.4,2,1.4
						c0,0-0.1-1.3-0.1-2.6c0-1.3,0-2.6,0-2.6"/>
				</g>
				<g>
					<path fill="none" stroke="#010101" stroke-miterlimit="10" d="M127.5,182c0,0,1,0.7,2,1.5c1,0.7,1.9,1.5,1.9,1.5s0-1.3,0.1-2.6
						c0.1-1.3,0.2-2.6,0.2-2.6"/>
				</g>
				<g>
					<path fill="none" stroke="#010101" stroke-miterlimit="10" d="M132.6,179.3c0,0,0.9,0.8,1.9,1.6c0.9,0.8,1.8,1.7,1.8,1.7
						c0,0,0.2-1.3,0.4-2.6c0.1-0.6,0.3-1.3,0.4-1.8c0.1-0.5,0.2-0.8,0.2-0.8"/>
				</g>
				<g>
					<path fill="none" stroke="#010101" stroke-miterlimit="10" d="M138.2,177.3c0,0,0.8,1,1.5,2c0.7,1,1.2,2.1,1.2,2.1
						c0,0,0.4-1.2,1.1-2.3c0.7-1.1,1.3-2.3,1.3-2.3"/>
				</g>
				<g>
					<path fill="none" stroke="#010101" stroke-miterlimit="10" d="M144.3,176.8l2,4.5c0,0,0.7-1.1,1.4-2.2c0.7-1.1,1.4-2.2,1.4-2.2
						"/>
				</g>
				<g>
					<path fill="none" stroke="#010101" stroke-miterlimit="10" d="M150,176.9c0,0,0.4,1.2,0.9,2.3c0.4,1.2,0.8,2.3,0.8,2.3
						s0.7-1.1,1.5-2.1c0.8-1.1,1.6-2.1,1.6-2.1"/>
				</g>
				<g>
					<path fill="none" stroke="#010101" stroke-miterlimit="10" d="M155.6,177.4c0,0,0.4,1.2,0.7,2.4c0.3,1.2,0.7,2.4,0.7,2.4
						s0.8-1,1.7-2c0.8-1,1.8-2,1.8-2"/>
				</g>
				<g>
					<path fill="none" stroke="#010101" stroke-miterlimit="10" d="M161.3,178.3c0,0,0.3,1.2,0.5,2.4c0.2,1.2,0.4,2.4,0.4,2.4
						s0.9-0.9,1.9-1.8c1-0.9,2-1.7,2-1.7"/>
				</g>
				<g>
					<path fill="none" stroke="#010101" stroke-miterlimit="10" d="M167,180c0,0,0.1,1.2,0.1,2.5c0,1.2,0,2.4,0,2.4s0.3-0.2,0.7-0.5
						c0.4-0.3,0.9-0.6,1.5-1c1.1-0.7,2.4-1.2,2.4-1.2"/>
				</g>
				<g>
					<path fill="none" stroke="#010101" stroke-miterlimit="10" d="M172.4,182.8c0,0-0.2,1.2-0.5,2.4c-0.3,1.2-0.7,2.3-0.7,2.3
						s0.3-0.1,0.7-0.3c0.4-0.2,1.1-0.3,1.7-0.5c1.3-0.3,2.6-0.5,2.6-0.5"/>
				</g>
				<g>
					<path fill="none" stroke="#010101" stroke-miterlimit="10" d="M177,187.2c0,0-0.1,0.3-0.4,0.7c-0.2,0.4-0.5,1-0.9,1.5
						c-0.7,1.1-1.4,2-1.4,2c0,0,0.3,0,0.8,0c0.5,0,1.1,0,1.8,0.1c1.3,0.1,2.6,0.5,2.6,0.5"/>
				</g>
				<g>
					<path fill="none" stroke="#010101" stroke-miterlimit="10" d="M179.9,193c0,0-0.9,0.9-1.9,1.6c-1,0.8-2,1.4-2,1.4
						s1.2,0.4,2.4,1c0.6,0.3,1.2,0.6,1.6,0.8c0.4,0.2,0.7,0.4,0.7,0.4"/>
				</g>
				<g>
					<path fill="none" stroke="#010101" stroke-miterlimit="10" d="M180.8,199c0,0-1.1,0.6-2.2,1.1c-1.1,0.6-2.2,1.1-2.2,1.1
						s1.2,0.6,2.3,1.2c1.2,0.6,2.3,1.1,2.3,1.1"/>
				</g>
				<g>
					<polyline fill="none" stroke="#010101" stroke-miterlimit="10" points="181.2,204.4 176.9,206.8 181.6,209 					"/>
				</g>
				<g>
					<polyline fill="none" stroke="#010101" stroke-miterlimit="10" points="181.7,209.8 177.4,212.3 182.1,214.4 					"/>
				</g>
				<g>
					<polyline fill="none" stroke="#010101" stroke-miterlimit="10" points="182.2,215.3 178,217.7 182.7,219.9 					"/>
				</g>
				<g>
					<polyline fill="none" stroke="#010101" stroke-miterlimit="10" points="182.8,220.8 178.5,223.2 183.2,225.4 					"/>
				</g>
				<g>
					<polyline fill="none" stroke="#010101" stroke-miterlimit="10" points="183.3,226.3 179,228.7 183.7,230.9 					"/>
				</g>
				<g>
					<polyline fill="none" stroke="#010101" stroke-miterlimit="10" points="183.8,231.8 179.4,234.1 184.1,236.5 					"/>
				</g>
				<g>
					<path fill="none" stroke="#010101" stroke-miterlimit="10" d="M184.1,237.4c0,0-1.1,0.6-2.2,1.1c-1.1,0.6-2.2,1.1-2.2,1.1
						s1.2,0.6,2.3,1.2c1.2,0.6,2.3,1.2,2.3,1.2"/>
				</g>
				<g>
					<path fill="none" stroke="#010101" stroke-miterlimit="10" d="M184.4,243c0,0-1.1,0.5-2.2,1.1c-1.1,0.5-2.2,1-2.2,1
						s1.1,0.6,2.3,1.3c1.1,0.7,2.3,1.3,2.3,1.3"/>
				</g>
				<g>
					<path fill="none" stroke="#010101" stroke-miterlimit="10" d="M184.5,248.5c0,0-1.1,0.5-2.3,1c-1.1,0.5-2.3,1-2.3,1
						s1.1,0.7,2.2,1.4c1.1,0.7,2.2,1.4,2.2,1.4"/>
				</g>
				<g>
					<path fill="none" stroke="#010101" stroke-miterlimit="10" d="M184.3,254.2c0,0-1.2,0.4-2.3,0.9c-1.2,0.4-2.3,0.8-2.3,0.8
						s1.1,0.7,2.2,1.5c1.1,0.8,2.1,1.6,2.1,1.6"/>
				</g>
				<g>
					<path fill="none" stroke="#010101" stroke-miterlimit="10" d="M183.9,259.8c0,0-1.2,0.4-2.3,0.7c-1.2,0.4-2.4,0.7-2.4,0.7
						c0,0,1,0.8,2,1.6c1,0.8,2,1.7,2,1.7"/>
				</g>
				<g>
					<path fill="none" stroke="#010101" stroke-miterlimit="10" d="M182.9,265.5c0,0-1.2,0.3-2.4,0.5c-1.2,0.2-2.4,0.4-2.4,0.4
						s0.2,0.2,0.6,0.6c0.3,0.3,0.8,0.8,1.2,1.3c0.9,1,1.7,2,1.7,2"/>
				</g>
				<g>
					<path fill="none" stroke="#010101" stroke-miterlimit="10" d="M181.3,271.2c0,0-1.3,0.1-2.5,0.1c-1.2,0-2.4-0.1-2.4-0.1
						s0.2,0.3,0.5,0.7c0.3,0.4,0.6,1,1,1.5c0.7,1.1,1.4,2.2,1.4,2.2"/>
				</g>
				<g>
					<path fill="none" stroke="#010101" stroke-miterlimit="10" d="M178.8,276.4c0,0-1.2-0.1-2.5-0.2c-1.2-0.1-2.5-0.2-2.5-0.2
						s0.7,1.1,1.3,2.2c0.6,1.1,1.3,2.3,1.3,2.3"/>
				</g>
				<g>
					<path fill="none" stroke="#010101" stroke-miterlimit="10" d="M176,281.4c0,0-1.2-0.1-2.4-0.3c-1.2-0.2-2.4-0.3-2.4-0.3
						s0.6,1.1,1.2,2.3c0.6,1.2,1.2,2.3,1.2,2.3"/>
				</g>
				<g>
					<path fill="none" stroke="#010101" stroke-miterlimit="10" d="M173.1,286.2c0,0-1.2-0.2-2.4-0.4c-1.2-0.2-2.4-0.4-2.4-0.4
						s0.6,1.2,1.1,2.4c0.5,1.2,1,2.4,1,2.4"/>
				</g>
				<g>
					<path fill="none" stroke="#010101" stroke-miterlimit="10" d="M169.8,290.8c0,0-1.2-0.3-2.4-0.5c-1.2-0.3-2.4-0.6-2.4-0.6
						s0.5,1.2,0.9,2.4c0.5,1.2,0.9,2.5,0.9,2.5"/>
				</g>
				<g>
					<path fill="none" stroke="#010101" stroke-miterlimit="10" d="M166.3,295.3c0,0-1.2-0.3-2.4-0.7c-1.2-0.4-2.3-0.8-2.3-0.8
						s0.4,1.2,0.8,2.5c0.4,1.3,0.7,2.6,0.7,2.6"/>
				</g>
				<g>
					<path fill="none" stroke="#010101" stroke-miterlimit="10" d="M162.4,299.5c0,0-1.2-0.4-2.3-0.9c-1.1-0.5-2.3-1-2.3-1
						s0.3,1.3,0.6,2.6c0.1,0.7,0.2,1.3,0.3,1.8c0.1,0.5,0.1,0.8,0.1,0.8"/>
				</g>
				<g>
					<path fill="none" stroke="#010101" stroke-miterlimit="10" d="M158.1,303.3c0,0-1.1-0.5-2.2-1.1c-1.1-0.6-2.1-1.2-2.1-1.2
						s0.2,1.3,0.3,2.6c0.1,1.3,0.2,2.6,0.2,2.6"/>
				</g>
				<g>
					<path fill="none" stroke="#010101" stroke-miterlimit="10" d="M153.4,306.7c0,0-1.1-0.6-2.1-1.3c-0.5-0.3-1-0.7-1.4-1
						c-0.4-0.3-0.6-0.5-0.6-0.5s0,1.3,0,2.6c0,1.3-0.1,2.6-0.1,2.6"/>
				</g>
				<g>
					<path fill="none" stroke="#010101" stroke-miterlimit="10" d="M148.4,309.7c0,0-1-0.8-1.9-1.6c-0.9-0.8-1.8-1.6-1.8-1.6
						s-0.1,1.3-0.3,2.6c-0.1,0.7-0.2,1.3-0.3,1.8c-0.1,0.5-0.1,0.8-0.1,0.8"/>
				</g>
				<g>
					<path fill="none" stroke="#010101" stroke-miterlimit="10" d="M143.1,312c0,0-0.9-0.9-1.7-1.8c-0.8-0.9-1.6-1.8-1.6-1.8
						s-0.1,0.3-0.2,0.8c-0.1,0.5-0.2,1.1-0.4,1.7c-0.3,1.2-0.7,2.5-0.7,2.5"/>
				</g>
				<g>
					<path fill="none" stroke="#010101" stroke-miterlimit="10" d="M137.5,313.6c0,0-0.8-1-1.5-1.9c-0.4-0.5-0.7-1-1-1.4
						c-0.3-0.4-0.4-0.6-0.4-0.6s-0.4,1.2-0.9,2.4c-0.5,1.2-1,2.4-1,2.4"/>
				</g>
				<g>
					<polyline fill="none" stroke="#010101" stroke-miterlimit="10" points="131.8,314.7 129.3,310.5 127.2,315.2 					"/>
				</g>
				<g>
					<path fill="none" stroke="#010101" stroke-miterlimit="10" d="M126.3,315.3l-2.4-4.3c0,0-0.6,1.2-1.1,2.4
						c-0.6,1.2-1.2,2.4-1.2,2.4"/>
				</g>
				<g>
					<path fill="none" stroke="#010101" stroke-miterlimit="10" d="M120.7,315.8c0,0-0.6-1.1-1.1-2.2c-0.5-1.1-1.1-2.2-1.1-2.2
						s-0.6,1.2-1.2,2.3c-0.7,1.2-1.3,2.3-1.3,2.3"/>
				</g>
			</g>
		</g>
	</g>
	<g>
		<g>
			<g>
				<g>
					<path fill="none" stroke="#010101" stroke-miterlimit="10" d="M115.2,309.6c0,0,0,0.5-0.3,1.1c-0.3,0.6-0.8,1-1.5,1.3
						c-0.2,0.1-0.3,0.1-0.4,0.1c-0.2,0-0.3,0-0.4,0c-0.3,0-0.6,0-0.8,0c-0.5-0.1-0.6-0.5-0.6-0.4c0,0,0.1,0,0.2,0.1
						c0.1,0,0.1,0.1,0.2,0.1c0,0.1,0.1,0.2,0.1,0.3c0.1,0.2,0.1,0.5,0.1,0.8c0,0.3-0.1,0.6-0.2,0.9c-0.2,0.7-0.5,1.3-0.7,1.8
						c-0.2,0.5-0.4,0.8-0.4,0.8"/>
				</g>
				<g>
					<path fill="none" stroke="#010101" stroke-miterlimit="10" d="M109.4,316.5c0,0-0.6-1.1-1.1-2.2c-0.5-1.1-1-2.3-1-2.3
						c0,0-0.7,1.1-1.4,2.2c-0.7,1.1-1.4,2.2-1.4,2.2"/>
				</g>
				<g>
					<path fill="none" stroke="#010101" stroke-miterlimit="10" d="M103.6,316.3c0,0-0.4-1.2-0.9-2.3c-0.4-1.1-0.8-2.3-0.8-2.3
						s-0.7,1.1-1.5,2.1c-0.8,1.1-1.5,2.1-1.5,2.1"/>
				</g>
				<g>
					<polyline fill="none" stroke="#010101" stroke-miterlimit="10" points="97.9,315.8 96.4,311.2 93.2,315.4 					"/>
				</g>
				<g>
					<path fill="none" stroke="#010101" stroke-miterlimit="10" d="M92.3,315.3c0,0-0.4-1.2-0.7-2.3c-0.4-1.2-0.7-2.4-0.7-2.4
						s-0.8,1-1.6,2c-0.9,1-1.8,2-1.8,2"/>
				</g>
				<g>
					<path fill="none" stroke="#010101" stroke-miterlimit="10" d="M86.6,314.3c0,0-0.3-1.2-0.5-2.5c-0.2-1.2-0.4-2.4-0.4-2.4
						s-0.9,0.9-1.9,1.8c-0.5,0.4-1,0.9-1.4,1.2c-0.4,0.3-0.6,0.5-0.6,0.5"/>
				</g>
				<g>
					<path fill="none" stroke="#010101" stroke-miterlimit="10" d="M81,312.7c0,0-0.1-1.2-0.2-2.5c-0.1-1.2-0.1-2.4-0.1-2.4
						s-1,0.8-2.1,1.6c-1,0.7-2.2,1.5-2.2,1.5"/>
				</g>
				<g>
					<path fill="none" stroke="#010101" stroke-miterlimit="10" d="M75.5,310.4c0,0,0-1.2,0.1-2.5c0-0.6,0.1-1.2,0.1-1.7
						c0-0.5,0.1-0.8,0.1-0.8s-1.1,0.7-2.2,1.3c-1.1,0.6-2.3,1.2-2.3,1.2"/>
				</g>
				<g>
					<path fill="none" stroke="#010101" stroke-miterlimit="10" d="M70.4,307.6c0,0,0.1-1.2,0.4-2.4c0.2-1.2,0.5-2.4,0.5-2.4
						s-1.2,0.6-2.4,1.1c-1.2,0.5-2.5,1-2.5,1"/>
				</g>
				<g>
					<path fill="none" stroke="#010101" stroke-miterlimit="10" d="M65.7,304.2c0,0,0.3-1.2,0.6-2.4c0.3-1.2,0.7-2.4,0.7-2.4
						s-1.2,0.5-2.5,0.8c-1.2,0.4-2.5,0.7-2.5,0.7"/>
				</g>
				<g>
					<path fill="none" stroke="#010101" stroke-miterlimit="10" d="M61.3,300.4c0,0,0.4-1.2,0.8-2.3c0.4-1.1,0.9-2.3,0.9-2.3
						s-1.2,0.3-2.5,0.6c-1.3,0.3-2.6,0.5-2.6,0.5"/>
				</g>
				<g>
					<path fill="none" stroke="#010101" stroke-miterlimit="10" d="M57.3,296.2c0,0,0.5-1.1,1.1-2.3c0.5-1.1,1.1-2.2,1.1-2.2
						s-1.3,0.2-2.6,0.4c-1.3,0.2-2.6,0.3-2.6,0.3"/>
				</g>
				<g>
					<path fill="none" stroke="#010101" stroke-miterlimit="10" d="M53.7,291.7c0,0,0.6-1.1,1.2-2.2c0.6-1.1,1.2-2.1,1.2-2.1
						s-1.3,0.1-2.6,0.2c-1.3,0.1-2.6,0.2-2.6,0.2"/>
				</g>
				<g>
					<path fill="none" stroke="#010101" stroke-miterlimit="10" d="M50.4,287c0,0,0.6-1,1.3-2.1c0.7-1,1.4-2.1,1.4-2.1
						s-1.3,0-2.6,0.1c-1.3,0-2.6,0-2.6,0"/>
				</g>
				<g>
					<path fill="none" stroke="#010101" stroke-miterlimit="10" d="M47.4,282.2c0,0,0.7-1,1.4-2c0.7-1,1.5-2,1.5-2s-1.3,0-2.6-0.1
						c-1.3,0-2.6-0.1-2.6-0.1"/>
				</g>
				<g>
					<path fill="none" stroke="#010101" stroke-miterlimit="10" d="M44.6,277.3c0,0,0.8-1,1.5-2c0.8-1,1.5-1.9,1.5-1.9
						s-1.3-0.1-2.6-0.1c-1.3-0.1-2.6-0.3-2.6-0.3"/>
				</g>
				<g>
					<path fill="none" stroke="#010101" stroke-miterlimit="10" d="M42.1,272.1c0,0,0.2-0.2,0.5-0.6c0.3-0.3,0.7-0.8,1.2-1.2
						c0.9-0.9,1.8-1.7,1.8-1.7s-1.3-0.2-2.6-0.6c-0.7-0.2-1.3-0.4-1.7-0.5c-0.5-0.2-0.8-0.3-0.8-0.3"/>
				</g>
				<g>
					<path fill="none" stroke="#010101" stroke-miterlimit="10" d="M40.3,266.3c0,0,1-0.8,2-1.5c1-0.7,2-1.4,2-1.4s-1.2-0.4-2.4-0.9
						c-1.2-0.5-2.4-1-2.4-1"/>
				</g>
				<g>
					<path fill="none" stroke="#010101" stroke-miterlimit="10" d="M39.3,260.6c0,0,1.1-0.6,2.1-1.3c1.1-0.6,2.1-1.2,2.1-1.2
						s-0.3-0.1-0.7-0.3c-0.4-0.2-1-0.5-1.6-0.8c-1.2-0.6-2.3-1.2-2.3-1.2"/>
				</g>
				<g>
					<path fill="none" stroke="#010101" stroke-miterlimit="10" d="M38.9,254.9c0,0,1.1-0.6,2.2-1.1c1.1-0.5,2.2-1.1,2.2-1.1
						s-1.1-0.6-2.3-1.3c-1.2-0.6-2.3-1.3-2.3-1.3"/>
				</g>
				<g>
					<path fill="none" stroke="#010101" stroke-miterlimit="10" d="M38.7,249.2c0,0,1.1-0.5,2.3-1c1.1-0.5,2.3-1,2.3-1
						s-1.1-0.7-2.2-1.4c-1.1-0.7-2.2-1.4-2.2-1.4"/>
				</g>
				<g>
					<path fill="none" stroke="#010101" stroke-miterlimit="10" d="M38.8,243.6c0,0,1.1-0.5,2.3-0.9c1.1-0.5,2.3-0.9,2.3-0.9
						s-1.1-0.7-2.2-1.4c-1.1-0.7-2.2-1.5-2.2-1.5"/>
				</g>
				<g>
					<path fill="none" stroke="#010101" stroke-miterlimit="10" d="M39,237.9l4.6-1.7c0,0-1.1-0.7-2.2-1.5c-1.1-0.7-2.1-1.5-2.1-1.5
						"/>
				</g>
				<g>
					<polyline fill="none" stroke="#010101" stroke-miterlimit="10" points="39.4,232.3 44,230.7 39.8,227.7 					"/>
				</g>
				<g>
					<polyline fill="none" stroke="#010101" stroke-miterlimit="10" points="39.9,226.8 44.5,225.2 40.3,222.1 					"/>
				</g>
				<g>
					<polyline fill="none" stroke="#010101" stroke-miterlimit="10" points="40.4,221.2 45.1,219.7 40.9,216.6 					"/>
				</g>
				<g>
					<polyline fill="none" stroke="#010101" stroke-miterlimit="10" points="40.9,215.7 45.6,214.2 41.4,211.1 					"/>
				</g>
				<g>
					<polyline fill="none" stroke="#010101" stroke-miterlimit="10" points="41.5,210.2 46.2,208.6 42,205.5 					"/>
				</g>
				<g>
					<path fill="none" stroke="#010101" stroke-miterlimit="10" d="M42,204.7c0,0,1.2-0.4,2.3-0.8c1.2-0.4,2.3-0.8,2.3-0.8
						s-1.1-0.7-2.2-1.5c-1.1-0.7-2.2-1.5-2.2-1.5"/>
				</g>
				<g>
					<path fill="none" stroke="#010101" stroke-miterlimit="10" d="M42.4,199.2c0,0,1.2-0.4,2.3-0.9c1.2-0.5,2.3-0.8,2.3-0.8
						S46,196.8,45,196c-0.5-0.4-1-0.9-1.4-1.3c-0.3-0.4-0.6-0.6-0.6-0.6"/>
				</g>
				<g>
					<path fill="none" stroke="#010101" stroke-miterlimit="10" d="M43.4,193.1c0,0,0.3-0.1,0.8-0.1c0.5-0.1,1.1-0.1,1.7-0.2
						c0.6,0,1.2-0.1,1.7-0.1c0.5,0,0.8,0,0.8,0s-0.2-0.3-0.5-0.6c-0.3-0.4-0.7-0.9-1-1.5c-0.3-0.6-0.6-1.2-0.8-1.6
						c-0.2-0.5-0.3-0.8-0.3-0.8"/>
				</g>
				<g>
					<path fill="none" stroke="#010101" stroke-miterlimit="10" d="M46.4,187.3c0,0,0.3,0.1,0.8,0.2c0.5,0.1,1.1,0.3,1.7,0.5
						c0.6,0.2,1.2,0.4,1.6,0.6c0.4,0.2,0.7,0.3,0.7,0.3s-0.1-0.3-0.2-0.8c-0.1-0.5-0.3-1.1-0.4-1.8c-0.1-0.6-0.2-1.3-0.2-1.8
						c0-0.5,0-0.8,0-0.8"/>
				</g>
				<g>
					<path fill="none" stroke="#010101" stroke-miterlimit="10" d="M51.1,183c0,0,0.3,0.2,0.7,0.4c0.4,0.3,0.9,0.6,1.4,0.9
						c1,0.7,2,1.5,1.9,1.5c0,0,0-1.3,0.1-2.6c0.1-0.6,0.2-1.3,0.2-1.8c0.1-0.5,0.1-0.8,0.1-0.8"/>
				</g>
				<g>
					<path fill="none" stroke="#010101" stroke-miterlimit="10" d="M56.6,180.3c0,0,0.9,0.9,1.7,1.8c0.8,0.9,1.6,1.8,1.6,1.8
						s0.3-1.3,0.6-2.5c0.4-1.3,0.8-2.5,0.8-2.5"/>
				</g>
				<g>
					<path fill="none" stroke="#010101" stroke-miterlimit="10" d="M62.3,178.7c0,0,0.8,1,1.5,2c0.7,1,1.4,2,1.4,2s0.4-1.2,0.9-2.4
						c0.5-1.2,1.1-2.4,1.1-2.4"/>
				</g>
				<g>
					<path fill="none" stroke="#010101" stroke-miterlimit="10" d="M68,177.7c0,0,0.6,1.1,1.2,2.1c0.6,1.1,1.2,2.2,1.2,2.2
						s0.6-1.2,1.2-2.3c0.6-1.2,1.2-2.3,1.2-2.3"/>
				</g>
				<g>
					<path fill="none" stroke="#010101" stroke-miterlimit="10" d="M73.8,177.3c0,0,0.5,1.1,1.1,2.2c0.5,1.1,1,2.2,1,2.2
						s0.6-1.1,1.3-2.3c0.7-1.1,1.3-2.3,1.3-2.3"/>
				</g>
				<g>
					<path fill="none" stroke="#010101" stroke-miterlimit="10" d="M79.4,177.3c0,0,0.5,1.1,1,2.3c0.2,0.6,0.5,1.1,0.7,1.6
						c0.2,0.4,0.3,0.7,0.3,0.7c0,0,0.1-0.3,0.4-0.7c0.2-0.4,0.6-1,1-1.5c0.8-1,1.8-2,1.8-2"/>
				</g>
				<g>
					<path fill="none" stroke="#010101" stroke-miterlimit="10" d="M85.6,177.9c0,0,0.3,1.2,0.4,2.5c0.1,1.2,0.2,2.4,0.2,2.4
						s1-0.8,2-1.6c1-0.8,2.2-1.5,2.2-1.5"/>
				</g>
				<g>
					<path fill="none" stroke="#010101" stroke-miterlimit="10" d="M91.2,180.1c0,0,0,1.2-0.1,2.5c0,1.2-0.1,2.5-0.1,2.5
						s1.1-0.7,2.2-1.4c1.1-0.7,2.3-1.3,2.3-1.3"/>
				</g>
				<g>
					<path fill="none" stroke="#010101" stroke-miterlimit="10" d="M96.4,182.8c0,0-0.1,1.2-0.3,2.5c-0.2,1.2-0.3,2.4-0.3,2.4
						s1.2-0.6,2.3-1.2c1.2-0.6,2.4-1.2,2.4-1.2"/>
				</g>
				<g>
					<path fill="none" stroke="#010101" stroke-miterlimit="10" d="M101.2,185.8c0,0-0.2,1.2-0.4,2.4c-0.2,1.2-0.5,2.4-0.5,2.4
						s1.2-0.5,2.4-1.1c1.2-0.5,2.4-1.1,2.4-1.1"/>
				</g>
				<g>
					<path fill="none" stroke="#010101" stroke-miterlimit="10" d="M105.8,189.1c0,0-0.3,1.2-0.5,2.4c-0.3,1.2-0.5,2.4-0.5,2.4
						s1.2-0.5,2.4-1c1.2-0.5,2.4-1,2.4-1"/>
				</g>
				<g>
					<path fill="none" stroke="#010101" stroke-miterlimit="10" d="M110.3,192.5c0,0-0.3,1.2-0.6,2.4c-0.3,1.2-0.6,2.4-0.6,2.4
						s1.2-0.5,2.5-0.9c1.2-0.5,2.5-0.9,2.5-0.9"/>
				</g>
			</g>
		</g>
	</g>
</g>
<g id="leaf">
	<g>
		<path fill="#A8CF38" stroke="#010101" stroke-width="0.5" stroke-linecap="round" stroke-linejoin="round" d="M108.4,79.1
			c0,0-8.6-15-7.4-22.4l2.1,0.7c0,0-1.8-2.2,0.2-11.3l1.7,1.5c0,0-1.5-4.5,1.4-10.4l1.7,1.5c0,0,0.8-4.1,2.5-8.3l1.9,1.2
			c0,0-0.4-5,1.3-8.5l1.7,1.5c0,0,0.7-6.3,4.1-7.5l0.5,1.5c0,0,2.3-3.9,5.8-6l1.6,1.7c0,0-0.1-3.9,4.3-5.5l0.9,1.4
			c0,0,0.5-5.2,4.6-6l1.2,2.5c0,0,7.1-6.6,8.7-6.8l2.6,1.3c0.3,1.2-0.1,11-0.1,11l2.7-0.6c1.8,3.8-2,7.3-2,7.3l1.7-0.1
			c1.5,4.5-1.7,6.8-1.7,6.8l2.4,0.2c0.5,4-1.2,8.3-1.2,8.3l1.5-0.5c1.2,3.4-3.4,7.8-3.4,7.8l2.2,0.5c-1.8,3.6-6,6.3-6,6.3l2.1,0.7
			c-2.3,3.9-5.1,7-5.1,7l2.2,0.5c-2.9,5.9-7.4,7.5-7.4,7.5l2.2,0.5c-6,7.2-8.8,7.1-8.8,7.1l1.9,1.2c-5.1,5.4-22.3,7.7-22.3,7.7
			L108.4,79.1z"/>
		<path fill="#A8CF38" stroke="#010101" stroke-width="0.5" stroke-linecap="round" stroke-linejoin="round" d="M109.9,79.8
			c0,0-8.6-15-7.4-22.4l2.1,0.7c0,0-1.8-2.2,0.2-11.3l1.7,1.5c0,0-1.5-4.5,1.4-10.4l1.7,1.5c0,0,0.8-4.1,2.5-8.3l1.9,1.2
			c0,0-0.4-5,1.3-8.5l1.7,1.5c0,0,0.7-6.3,4.1-7.5l0.5,1.5c0,0,2.3-3.9,5.8-6l1.6,1.7c0,0-0.1-3.9,4.3-5.5l0.9,1.4
			c0,0,0.5-5.2,4.6-6l1.2,2.5c0,0,7.1-6.6,8.7-6.8l2.6,1.3c0.3,1.2-0.1,11-0.1,11l2.7-0.6c1.8,3.8-2,7.3-2,7.3l1.7-0.1
			c1.5,4.5-1.7,6.8-1.7,6.8l2.4,0.2c0.5,4-1.2,8.3-1.2,8.3l1.5-0.5c1.2,3.4-3.4,7.8-3.4,7.8l2.2,0.5c-1.8,3.6-6,6.3-6,6.3l2.1,0.7
			c-2.3,3.9-5.1,7-5.1,7l2.2,0.5c-2.9,5.9-7.4,7.5-7.4,7.5l2.2,0.5c-6,7.2-8.8,7.1-8.8,7.1l1.9,1.2c-5.1,5.4-22.3,7.7-22.3,7.7
			L109.9,79.8z"/>
		
			<line fill="none" stroke="#010101" stroke-width="0.5" stroke-linecap="round" stroke-linejoin="round" x1="149.4" y1="2" x2="110.7" y2="80.3"/>
		<g>
			
				<line fill="none" stroke="#010101" stroke-width="0.5" stroke-linecap="round" stroke-linejoin="round" x1="140.2" y1="6.3" x2="141.5" y2="12.8"/>
			
				<line fill="none" stroke="#010101" stroke-width="0.5" stroke-linecap="round" stroke-linejoin="round" x1="134.3" y1="11.1" x2="138.1" y2="18.7"/>
			
				<line fill="none" stroke="#010101" stroke-width="0.5" stroke-linecap="round" stroke-linejoin="round" x1="129.3" y1="14.8" x2="134.4" y2="24.6"/>
			
				<line fill="none" stroke="#010101" stroke-width="0.5" stroke-linecap="round" stroke-linejoin="round" x1="121.4" y1="19" x2="129.7" y2="30.7"/>
			
				<line fill="none" stroke="#010101" stroke-width="0.5" stroke-linecap="round" stroke-linejoin="round" x1="117.4" y1="24.9" x2="127.8" y2="37.4"/>
			
				<line fill="none" stroke="#010101" stroke-width="0.5" stroke-linecap="round" stroke-linejoin="round" x1="113.5" y1="32.2" x2="123.9" y2="43.6"/>
			
				<line fill="none" stroke="#010101" stroke-width="0.5" stroke-linecap="round" stroke-linejoin="round" x1="109.5" y1="38.7" x2="118.5" y2="50.8"/>
			
				<line fill="none" stroke="#010101" stroke-width="0.5" stroke-linecap="round" stroke-linejoin="round" x1="106.3" y1="47.9" x2="116.8" y2="61.2"/>
			
				<line fill="none" stroke="#010101" stroke-width="0.5" stroke-linecap="round" stroke-linejoin="round" x1="104.4" y1="57.7" x2="112.9" y2="71.8"/>
		</g>
		<g>
			
				<line fill="none" stroke="#010101" stroke-width="0.5" stroke-linecap="round" stroke-linejoin="round" x1="152.4" y1="12.4" x2="146.5" y2="15.2"/>
			
				<line fill="none" stroke="#010101" stroke-width="0.5" stroke-linecap="round" stroke-linejoin="round" x1="152.2" y1="19.9" x2="143.9" y2="21.6"/>
			
				<line fill="none" stroke="#010101" stroke-width="0.5" stroke-linecap="round" stroke-linejoin="round" x1="152.3" y1="26.2" x2="141.5" y2="28.1"/>
			
				<line fill="none" stroke="#010101" stroke-width="0.5" stroke-linecap="round" stroke-linejoin="round" x1="153.8" y1="35" x2="139.4" y2="35.5"/>
			
				<line fill="none" stroke="#010101" stroke-width="0.5" stroke-linecap="round" stroke-linejoin="round" x1="151.6" y1="41.7" x2="135.3" y2="41.1"/>
			
				<line fill="none" stroke="#010101" stroke-width="0.5" stroke-linecap="round" stroke-linejoin="round" x1="148.1" y1="49.3" x2="132.7" y2="47.9"/>
			
				<line fill="none" stroke="#010101" stroke-width="0.5" stroke-linecap="round" stroke-linejoin="round" x1="145.4" y1="56.4" x2="130.3" y2="56.6"/>
			
				<line fill="none" stroke="#010101" stroke-width="0.5" stroke-linecap="round" stroke-linejoin="round" x1="140" y1="64.6" x2="123.1" y2="64.2"/>
			
				<line fill="none" stroke="#010101" stroke-width="0.5" stroke-linecap="round" stroke-linejoin="round" x1="133.4" y1="72" x2="117" y2="73.8"/>
		</g>
		<path fill="#FFFFFF" stroke="#010101" stroke-width="0.5" stroke-linecap="round" stroke-linejoin="round" d="M155.8,27.3
			c0,0-5.7,1.5-4.2,4.5c0,0-7,1-3.7,6.5c0,0,1.7,3.7,4.7,2.3c0,0-1.9,3,1,2.5c2.9-0.6,2.2-0.7,2.2-0.7"/>
		<path fill="#FFFFFF" stroke="#010101" stroke-width="0.5" stroke-miterlimit="10" d="M118.6,34.9c-0.2,1.3-1,2.4-1.5,3.6
			c1.5,1.2,3.4-1.3,4.1-2.5c-0.8,2-0.2,6.4,2.5,3.3c-0.5,2,0.6,2.3,2.2,3.1c-0.5,1.7-2.2,2.2-3.2,3.5c-0.6,0.8-0.9,1.9-1.4,2.7
			c-1-0.7-1.2-2.1-2.1-2.8c-0.6,0.5-2.5,3-3.3,2.9c-0.9-0.1-1.8-2.3-2.9-2.7c0.4-1,1-2,1.4-3.1c-0.2-0.2-0.4-0.2-0.5-0.3
			c0.3-1.3,2.7-8,4.2-6.4"/>
		<path fill="#FFFFFF" stroke="#010101" stroke-width="0.5" stroke-miterlimit="10" d="M138.1,19.8c1.7-1.5,1.8-3.4,4.2-4.6
			c0.2,0.6-0.3,2.8,0.2,3.1c1.3,1.1,3.5-1.5,4.5-2.3c-0.2,0.5-1.2,2.3-0.9,2.9c0.7,1.4,2.3,0.2,3.4,0.3c-0.7,2-2.4,3.4-3.4,5.4
			c-0.6,1.3-0.8,2.4-1.3,3.7c-2.3-0.8-3.8-2.5-4.3-4.8c-0.7,1.4-3.2,6.1-3.5,2.3c-0.2-2.3,1.6-4.6,1.9-6.8"/>
		<path fill="#FFFFFF" stroke="#010101" stroke-width="0.5" stroke-miterlimit="10" d="M135.3,52.2c-0.1,1.4-2,3-2,4.4
			c0,1.9,2.3,3.2,4,3.3c-2,0.6-4,1.8-4.7,3.9c0.9,0.9,2.1,1.3,3.2,1.9c-0.9,0.4-5.4,2.7-2.9,3.7c-0.7,1.7-5.4-0.8-6.6-1.8
			c-2.5-2.2-1.6-4.8-0.5-7.5c1.6-3.8,5-7.9,9.7-7"/>
	</g>
</g>
<g id="water">
	<g>
		<path fill="#55C2E2" stroke="#070707" stroke-width="0.5" stroke-miterlimit="10" d="M59.1,22.3c0,0-36.1,41.7-4.2,51.2
			c0,0,26.1-0.6,14.6-30.9C69.4,42.6,59.6,31,59.1,22.3z"/>
		<path fill="none" stroke="#3A97AD" stroke-miterlimit="10" d="M56.9,70.1c5.2,2.4,13.5-10.3,12.9-14.9"/>
		
			<ellipse transform="matrix(0.7903 -0.6127 0.6127 0.7903 -28.171 45.0528)" opacity="0.8" fill="#FFFFFF" cx="51.7" cy="63.7" rx="4.8" ry="5.8"/>
		<path opacity="0.8" fill="#FFFFFF" d="M48.4,40.6c0,0,4.7-11.6,10.3-14.6"/>
	</g>
	<g>
		<path fill="#55C2E2" stroke="#070707" stroke-width="0.5" stroke-miterlimit="10" d="M222.2,158.9c0,0-36.1,41.7-4.2,51.2
			c0,0,26.1-0.6,14.6-30.9C232.6,179.2,222.7,167.5,222.2,158.9z"/>
		<path fill="none" stroke="#3A97AD" stroke-miterlimit="10" d="M220.1,206.7c5.2,2.4,13.5-10.3,12.9-14.9"/>
		
			<ellipse transform="matrix(0.7903 -0.6127 0.6127 0.7903 -77.6393 173.6655)" opacity="0.8" fill="#FFFFFF" cx="214.9" cy="200.3" rx="4.8" ry="5.8"/>
		<path opacity="0.8" fill="#FFFFFF" d="M211.6,177.2c0,0,4.7-11.6,10.3-14.6"/>
	</g>
	<g>
		<path fill="#55C2E2" stroke="#070707" stroke-width="0.5" stroke-miterlimit="10" d="M14.3,304.6c0,0-21.7,25.1-2.5,30.8
			c0,0,15.7-0.4,8.8-18.6C20.5,316.8,14.6,309.8,14.3,304.6z"/>
		<path fill="none" stroke="#3A97AD" stroke-miterlimit="10" d="M13,333.4c3.1,1.4,8.1-6.2,7.7-9"/>
		
			<ellipse transform="matrix(0.7903 -0.6128 0.6128 0.7903 -201.5708 75.4342)" opacity="0.8" fill="#FFFFFF" cx="9.4" cy="332.2" rx="1.7" ry="2.1"/>
		<path opacity="0.8" fill="#FFFFFF" d="M7.9,315.6c0,0,2.8-7,6.2-8.8"/>
	</g>
	<g>
		<path fill="#55C2E2" stroke="#070707" stroke-width="0.5" stroke-miterlimit="10" d="M165.4,313.4c0,0-21.7,25.1-2.5,30.8
			c0,0,15.7-0.4,8.8-18.6C171.6,325.6,165.7,318.6,165.4,313.4z"/>
		<path fill="none" stroke="#3A97AD" stroke-miterlimit="10" d="M164.1,342.2c3.1,1.4,8.1-6.2,7.7-9"/>
		
			<ellipse transform="matrix(0.7904 -0.6126 0.6126 0.7904 -175.2154 169.8013)" opacity="0.8" fill="#FFFFFF" cx="160.5" cy="340.9" rx="1.7" ry="2.1"/>
		<path opacity="0.8" fill="#FFFFFF" d="M159,324.4c0,0,2.8-7,6.2-8.8"/>
	</g>
	<g>
		<path fill="#55C2E2" stroke="#070707" stroke-width="0.5" stroke-miterlimit="10" d="M197.7,91c0,0-13.5,15.7-1.6,19.2
			c0,0,9.8-0.2,5.5-11.6C201.6,98.6,197.8,94.3,197.7,91z"/>
		<path fill="none" stroke="#3A97AD" stroke-miterlimit="10" d="M196.9,109c1.9,0.9,5.1-3.9,4.8-5.6"/>
		
			<ellipse transform="matrix(0.7906 -0.6123 0.6123 0.7906 -24.5387 141.3005)" opacity="0.8" fill="#FFFFFF" cx="194.3" cy="106.5" rx="0.9" ry="1"/>
		<path opacity="0.8" fill="#FFFFFF" d="M193.7,97.9c0,0,1.8-4.4,3.9-5.5"/>
	</g>
	<g>
		<path fill="#55C2E2" stroke="#070707" stroke-width="0.5" stroke-miterlimit="10" d="M17.3,185.2c0,0-13.5,15.7-1.6,19.2
			c0,0,9.8-0.2,5.5-11.6C21.2,192.8,17.5,188.5,17.3,185.2z"/>
		<path fill="none" stroke="#3A97AD" stroke-miterlimit="10" d="M16.5,203.2c1.9,0.9,5.1-3.9,4.8-5.6"/>
		
			<ellipse transform="matrix(0.7904 -0.6126 0.6126 0.7904 -120.0393 50.6357)" opacity="0.8" fill="#FFFFFF" cx="14" cy="200.7" rx="0.9" ry="1"/>
		<path opacity="0.8" fill="#FFFFFF" d="M13.3,192.1c0,0,1.8-4.4,3.9-5.5"/>
	</g>
</g>
</svg>
