<?xml version="1.0" encoding="utf-8"?>
<!-- Generator: Adobe Illustrator 17.1.0, SVG Export Plug-In . SVG Version: 6.00 Build 0)  -->
<!DOCTYPE svg PUBLIC "-//W3C//DTD SVG 1.1//EN" "http://www.w3.org/Graphics/SVG/1.1/DTD/svg11.dtd">
<svg version="1.1" id="Layer_1" xmlns="http://www.w3.org/2000/svg" xmlns:xlink="http://www.w3.org/1999/xlink" x="0px" y="0px"
	 viewBox="0 0 100 100" enable-background="new 0 0 100 100" xml:space="preserve">
<pattern  y="100" width="2.6" height="2.6" patternUnits="userSpaceOnUse" id="SVGID_1" viewBox="4.3 -6.9 2.6 2.6" overflow="visible">
	<g>
		<polygon fill="none" points="4.3,-6.9 6.9,-6.9 6.9,-4.3 4.3,-4.3 		"/>
		<g>
			<defs>
				<rect id="SVGID_1_" x="4.3" y="-6.9" width="2.6" height="2.6"/>
			</defs>
			<clipPath id="SVGID_2_">
				<use xlink:href="#SVGID_1_"  overflow="visible"/>
			</clipPath>
			<polygon clip-path="url(#SVGID_2_)" fill="none" points="11.3,-5.2 5.2,-5.2 5.2,-11.2 11.3,-11.2 			"/>
			<polygon clip-path="url(#SVGID_2_)" fill="none" points="8.7,-5.2 2.6,-5.2 2.6,-11.2 8.7,-11.2 			"/>
			<polygon clip-path="url(#SVGID_2_)" fill="none" points="6.1,-5.2 0,-5.2 0,-11.2 6.1,-11.2 			"/>
			<polygon clip-path="url(#SVGID_2_)" fill="none" points="11.3,-2.6 5.2,-2.6 5.2,-8.6 11.3,-8.6 			"/>
			<g clip-path="url(#SVGID_2_)">
				<polygon fill="none" points="8.7,-2.6 2.6,-2.6 2.6,-8.6 8.7,-8.6 				"/>
				<path fill="#010101" d="M6.1-5.8c0,0.2-0.2,0.5-0.5,0.5c-0.2,0-0.5-0.2-0.5-0.5c0-0.2,0.2-0.5,0.5-0.5S6.1-6,6.1-5.8z"/>
			</g>
			<polygon clip-path="url(#SVGID_2_)" fill="none" points="6.1,-2.6 0,-2.6 0,-8.6 6.1,-8.6 			"/>
			<polygon clip-path="url(#SVGID_2_)" fill="none" points="11.3,0 5.2,0 5.2,-6 11.3,-6 			"/>
			<polygon clip-path="url(#SVGID_2_)" fill="none" points="8.7,0 2.6,0 2.6,-6 8.7,-6 			"/>
			<polygon clip-path="url(#SVGID_2_)" fill="none" points="6.1,0 0,0 0,-6 6.1,-6 			"/>
		</g>
	</g>
</pattern>
<g id="legs">
	<path fill="#FFFFFF" stroke="#010101" stroke-miterlimit="10" d="M29.5,41.4"/>
	<path fill="#FFFFFF" stroke="#010101" stroke-miterlimit="10" d="M33.1,28.8c0.3-3.9,1.8-6.9,4.4-8.6c0,0-7.2,6.6-1.4,21l-0.9,0.4
		c-0.1-0.1-1.5-3.9-2-8.4c0,0-2.2-3.6-1.4-6c0,0,0.4,3.5,1.1,4.2L33.1,28.8z"/>
	<path fill="none" stroke="#010101" stroke-miterlimit="10" d="M32.9,33"/>
	<path fill="none" stroke="#010101" stroke-miterlimit="10" d="M31.4,30.3"/>
	<path fill="#FFFFFF" stroke="#010101" stroke-miterlimit="10" d="M36.5,43.3c-2.3-1.5-1.6-3.7-1.6-3.7c1.5-0.2,2.9,1,2.9,1
		L36.5,43.3z"/>
	<path fill="#FFFFFF" stroke="#010101" stroke-miterlimit="10" d="M65.2,28.8c-0.3-3.9-1.8-6.9-4.4-8.7c0,0,7.2,6.6,1.4,21l0.9,0.4
		c0.1-0.1,1.5-3.9,2-8.4c0,0,2.2-3.6,1.4-6c0,0-0.4,3.5-1.1,4.2L65.2,28.8z"/>
	<path fill="none" stroke="#010101" stroke-miterlimit="10" d="M65.4,33"/>
	<path fill="#FFFFFF" stroke="#010101" stroke-miterlimit="10" d="M61.8,43.3c2.3-1.5,1.6-3.7,1.6-3.7c-1.5-0.2-2.9,1-2.9,1
		L61.8,43.3z"/>
	<path fill="#FFFFFF" stroke="#010101" stroke-miterlimit="10" d="M36.9,56.5c0,0-4.1,0.4-5.4,1.5c0,0-2.5,2.7,0.7,2.4
		s3.2-0.2,3.2-0.2S35.5,57.6,36.9,56.5z"/>
	<path fill="#FFFFFF" stroke="#010101" stroke-miterlimit="10" d="M30.6,59.9c0,0-2.9,1.5-3.2,6.1c-0.2,4.6-0.1,8.6,0.9,9
		c0,0-0.9-4.1-0.4-5.4c0,0,0.4,0,0.3,1.1c0,0,0.6-1.2,0.1-2.6c0,0-1.7-3.7,2.7-7.6L30.6,59.9z"/>
	<path fill="#FFFFFF" stroke="#010101" stroke-miterlimit="10" d="M61.9,56.5c0,0,4.1,0.4,5.4,1.5c0,0,2.5,2.7-0.7,2.4
		c-3.2-0.2-3.2-0.2-3.2-0.2S63.4,57.6,61.9,56.5z"/>
	<path fill="#FFFFFF" stroke="#010101" stroke-miterlimit="10" d="M68.3,59.9c0,0,2.9,1.5,3.2,6.1s0.1,8.6-0.9,9
		c0,0,0.9-4.1,0.4-5.4c0,0-0.4,0-0.3,1.1c0,0-0.6-1.2-0.1-2.6c0,0,1.7-3.7-2.7-7.6L68.3,59.9z"/>
	<path fill="none" stroke="#010101" stroke-miterlimit="10" d="M65.7,33"/>
	<path fill="none" stroke="#010101" stroke-miterlimit="10" d="M67.1,30.3"/>
	<path fill="#FFFFFF" stroke="#010101" stroke-miterlimit="10" d="M63.6,86.6L63.6,86.6l-0.1-0.2l0.4-1.5c0.3-2.1-0.4-10.5-0.4-10.6
		l1-0.1c0,0.4,0.7,8.6,0.4,10.9l-0.3,1.4c0.6,1.5,3.5,9.6,1.3,12.1c0,0,0.9-3,0-3.4c0,0,0,0.1-0.4,0.5
		C65.5,95.6,66.5,93.1,63.6,86.6z"/>
	<path fill="#FFFFFF" stroke="#010101" stroke-miterlimit="10" d="M63.3,70.1c0,0,2.3,1.2,1.5,5.9l-1.9-1.8L63.3,70.1z"/>
	<path fill="#FFFFFF" stroke="#010101" stroke-miterlimit="10" d="M35.2,86.6L35.2,86.6l0.1-0.2l-0.4-1.5
		c-0.3-2.1,0.4-10.5,0.4-10.6l-1-0.1c0,0.4-0.7,8.6-0.4,10.9l0.3,1.4c-0.6,1.5-3.5,9.6-1.3,12.1c0,0-0.9-3,0-3.4c0,0,0,0.1,0.4,0.5
		C33.4,95.6,32.3,93.1,35.2,86.6z"/>
	<path fill="#FFFFFF" stroke="#010101" stroke-miterlimit="10" d="M35.6,70.1c0,0-2.3,1.2-1.5,5.9l1.9-1.8L35.6,70.1z"/>
</g>
<g id="basebody">
	<path fill="#FFFFFF" stroke="#010101" stroke-miterlimit="10" d="M51.4,86.2c0,0,0,0,1.7-0.2s4.8-4.6,4.8-4.6
		c10.5-8.2,5.4-35.1,5.4-35.1H49.8H49H35.6c0,0-5.1,26.9,5.4,35.1c0,0,3.1,4.4,4.8,4.6s1.7,0.2,1.7,0.2H51.4z"/>
	<path fill="none" stroke="#010101" stroke-miterlimit="10" d="M45.4,46.3c0,0,4,3.2,4,7s0,32.9,0,32.9"/>
	<path fill="none" stroke="#010101" stroke-miterlimit="10" d="M53.3,46.3c0,0-4,3.2-4,7s0,32.9,0,32.9"/>
	<path fill="#FFFFFF" stroke="#010101" stroke-miterlimit="10" d="M50.7,27.6c0,0,0,0,6.1,5S63,46.3,63,46.3H35.6
		c0,0,0.1-8.8,6.2-13.8s6.1-5,6.1-5h2.8C50.7,27.5,50.7,27.6,50.7,27.6z"/>
	<path fill="#FFFFFF" stroke="#010101" stroke-miterlimit="10" d="M45.7,46.6c0,0,3.5,2.8,3.6,5.5c0,0,1.7-5.2,4.4-5.5H45.7z"/>
	<path fill="#FFFFFF" stroke="#010101" stroke-miterlimit="10" d="M43.8,30.5c0,0,5.5-6.6,11.2,0C55,30.5,49.2,33.3,43.8,30.5z"/>
</g>
<g id="bodycolor">
	<path fill="#D0DD28" stroke="#010101" stroke-miterlimit="10" d="M51.4,86.2c0,0,0,0,1.7-0.2s4.8-4.6,4.8-4.6
		c10.5-8.2,5.4-35.1,5.4-35.1H49.8H49H35.6c0,0-5.1,26.9,5.4,35.1c0,0,3.1,4.4,4.8,4.6s1.7,0.2,1.7,0.2H51.4z"/>
	<path fill="none" stroke="#010101" stroke-miterlimit="10" d="M45.4,46.3c0,0,4,3.2,4,7s0,32.9,0,32.9"/>
	<path fill="none" stroke="#010101" stroke-miterlimit="10" d="M53.3,46.3c0,0-4,3.2-4,7s0,32.9,0,32.9"/>
	<path fill="#6CBE45" stroke="#010101" stroke-miterlimit="10" d="M50.7,27.6c0,0,0,0,6.1,5S63,46.3,63,46.3H35.6
		c0,0,0.1-8.8,6.2-13.8s6.1-5,6.1-5h2.8C50.7,27.5,50.7,27.6,50.7,27.6z"/>
	<path fill="#FFFFFF" stroke="#010101" stroke-miterlimit="10" d="M45.7,46.6c0,0,3.5,2.8,3.6,5.5c0,0,1.7-5.2,4.4-5.5H45.7z"/>
	<path fill="#D0DD28" stroke="#010101" stroke-miterlimit="10" d="M43.8,30.5c0,0,5.5-6.6,11.2,0C55,30.5,49.2,33.3,43.8,30.5z"/>
</g>
<g id="antennae">
	<path fill="none" stroke="#010101" stroke-miterlimit="10" d="M49,26.9c0,0,5.5-0.3,7.9,2.5c0,0,4.3,2.7,3.8-2.5s0-3,0-3"/>
	<path fill="none" stroke="#010101" stroke-miterlimit="10" d="M49.3,26.9c0,0-5.5-0.3-7.9,2.5c0,0-4.3,2.7-3.8-2.5c0.6-5.2,0-3,0-3
		"/>
</g>
<g id="markings">
	<path fill="#010101" d="M52.1,58.7c0,0-1.4-11.5,8.9-11"/>
	<path fill="#010101" d="M47.3,58.7c0,0,1.4-11.5-8.9-11"/>
</g>
<g id="dots">
	<pattern  id="SVGID_3_" xlink:href="#SVGID_1" patternTransform="matrix(1 0 0 -1 -4.3 -16504.6992)">
	</pattern>
	<path fill="url(#SVGID_3_)" stroke="#010101" stroke-miterlimit="10" d="M51.2,86.2c0,0,0,0,1.7-0.2s4.8-4.6,4.8-4.6
		c10.5-8.2,5.4-35.1,5.4-35.1H49.7h-0.8H35.4c0,0-5.1,26.9,5.4,35.1c0,0,3.1,4.4,4.8,4.6s1.7,0.2,1.7,0.2H51.2z"/>
</g>
<g id="fur">
	<g>
		<g>
			<g>
				<g>
					<path fill="none" stroke="#0000FF" stroke-miterlimit="10" d="M64.3,45.7c0,0-0.3,0.2-0.6,0.4s-0.6,0.4-0.6,0.4
						s0.4,0.1,0.7,0.3c0.4,0.1,0.7,0.3,0.7,0.3"/>
				</g>
				<g>
					<path fill="none" stroke="#0000FF" stroke-miterlimit="10" d="M64.6,47.4l-1.2,0.8c0,0,0.4,0.1,0.7,0.3
						c0.4,0.1,0.7,0.3,0.7,0.3"/>
				</g>
				<g>
					<polyline fill="none" stroke="#0000FF" stroke-miterlimit="10" points="64.8,49 63.5,49.8 65,50.4 					"/>
				</g>
				<g>
					<polyline fill="none" stroke="#0000FF" stroke-miterlimit="10" points="65,50.7 63.8,51.4 65.2,52 					"/>
				</g>
				<g>
					<path fill="none" stroke="#0000FF" stroke-miterlimit="10" d="M65.2,52.3c0,0-0.3,0.2-0.6,0.4c-0.3,0.2-0.6,0.4-0.6,0.4
						l1.4,0.7"/>
				</g>
				<g>
					<path fill="none" stroke="#0000FF" stroke-miterlimit="10" d="M65.3,53.9L64,54.6c0,0,0.4,0.2,0.7,0.4c0.4,0.2,0.7,0.4,0.7,0.4
						"/>
				</g>
				<g>
					<polyline fill="none" stroke="#0000FF" stroke-miterlimit="10" points="65.4,55.6 64.1,56.3 65.5,57 					"/>
				</g>
				<g>
					<polyline fill="none" stroke="#0000FF" stroke-miterlimit="10" points="65.5,57.2 64.2,57.9 65.6,58.6 					"/>
				</g>
				<g>
					<polyline fill="none" stroke="#0000FF" stroke-miterlimit="10" points="65.6,58.9 64.3,59.5 65.6,60.3 					"/>
				</g>
				<g>
					<polyline fill="none" stroke="#0000FF" stroke-miterlimit="10" points="65.6,60.6 64.3,61.1 65.6,61.9 					"/>
				</g>
				<g>
					<path fill="none" stroke="#0000FF" stroke-miterlimit="10" d="M65.6,62.2c0,0-0.3,0.1-0.7,0.3c-0.3,0.1-0.7,0.3-0.7,0.3
						s0.3,0.2,0.6,0.4c0.3,0.2,0.6,0.4,0.6,0.4"/>
				</g>
				<g>
					<path fill="none" stroke="#0000FF" stroke-miterlimit="10" d="M65.5,63.9c0,0-0.3,0.1-0.7,0.3c-0.4,0.1-0.7,0.3-0.7,0.3
						s0.3,0.2,0.6,0.4c0.3,0.2,0.6,0.4,0.6,0.4"/>
				</g>
				<g>
					<path fill="none" stroke="#0000FF" stroke-miterlimit="10" d="M65.4,65.5c0,0-0.4,0.1-0.7,0.2C64.3,65.9,64,66,64,66
						s0.3,0.2,0.6,0.4c0.3,0.2,0.6,0.5,0.6,0.5"/>
				</g>
				<g>
					<path fill="none" stroke="#0000FF" stroke-miterlimit="10" d="M65.2,67.2c0,0-0.4,0.1-0.7,0.2c-0.4,0.1-0.7,0.2-0.7,0.2
						s0.3,0.2,0.6,0.5s0.6,0.5,0.6,0.5"/>
				</g>
				<g>
					<path fill="none" stroke="#0000FF" stroke-miterlimit="10" d="M65,68.8c0,0-0.4,0.1-0.7,0.2c-0.4,0.1-0.7,0.2-0.7,0.2
						s0.3,0.2,0.6,0.5s0.6,0.5,0.6,0.5"/>
				</g>
				<g>
					<path fill="none" stroke="#0000FF" stroke-miterlimit="10" d="M64.7,70.5c0,0-0.4,0.1-0.7,0.1c-0.4,0.1-0.7,0.1-0.7,0.1
						s0.3,0.3,0.6,0.5c0.3,0.3,0.6,0.5,0.6,0.5"/>
				</g>
				<g>
					<path fill="none" stroke="#0000FF" stroke-miterlimit="10" d="M64.3,72.1c0,0-0.4,0.1-0.7,0.1c-0.4,0.1-0.7,0.1-0.7,0.1
						s0.3,0.3,0.5,0.6c0.3,0.3,0.5,0.6,0.5,0.6"/>
				</g>
				<g>
					<path fill="none" stroke="#0000FF" stroke-miterlimit="10" d="M63.8,73.7c0,0-0.4,0.1-0.7,0.1c-0.4,0-0.7,0.1-0.7,0.1
						s0.2,0.3,0.5,0.6c0.2,0.3,0.5,0.6,0.5,0.6"/>
				</g>
				<g>
					<path fill="none" stroke="#0000FF" stroke-miterlimit="10" d="M63.3,75.3c0,0-0.4,0-0.7,0c-0.4,0-0.7,0-0.7,0s0.2,0.3,0.4,0.6
						c0.2,0.3,0.4,0.6,0.4,0.6"/>
				</g>
				<g>
					<path fill="none" stroke="#0000FF" stroke-miterlimit="10" d="M62.6,76.9c0,0-0.4,0-0.7,0c-0.4,0-0.7-0.1-0.7-0.1
						s0.2,0.3,0.4,0.6c0.2,0.3,0.4,0.7,0.4,0.7"/>
				</g>
				<g>
					<path fill="none" stroke="#0000FF" stroke-miterlimit="10" d="M61.8,78.4c0,0-0.4,0-0.7-0.1c-0.4-0.1-0.7-0.1-0.7-0.1
						s0.2,0.4,0.3,0.7c0.1,0.4,0.3,0.7,0.3,0.7"/>
				</g>
				<g>
					<path fill="none" stroke="#0000FF" stroke-miterlimit="10" d="M60.8,79.8c0,0-0.4-0.1-0.7-0.2c-0.4-0.1-0.7-0.2-0.7-0.2
						s0.1,0.4,0.2,0.7c0.1,0.4,0.2,0.7,0.2,0.7"/>
				</g>
				<g>
					<path fill="none" stroke="#0000FF" stroke-miterlimit="10" d="M59.6,81.1c0,0-0.4-0.1-0.7-0.3c-0.2-0.1-0.3-0.1-0.5-0.2
						c-0.1-0.1-0.2-0.1-0.2-0.1s0.1,0.4,0.1,0.8c0.1,0.4,0.1,0.8,0.1,0.7"/>
				</g>
				<g>
					<path fill="none" stroke="#0000FF" stroke-miterlimit="10" d="M58.5,82.1c0,0-0.4-0.1-0.7-0.1c-0.4-0.1-0.7-0.1-0.7-0.1
						s0.1,0.4,0.3,0.7c0.1,0.4,0.3,0.7,0.3,0.7"/>
				</g>
				<g>
					<path fill="none" stroke="#0000FF" stroke-miterlimit="10" d="M57.5,83.5c0,0-0.4-0.1-0.7-0.2c-0.4-0.1-0.7-0.2-0.7-0.2
						s0.1,0.4,0.3,0.7c0.1,0.4,0.2,0.7,0.2,0.7"/>
				</g>
				<g>
					<path fill="none" stroke="#0000FF" stroke-miterlimit="10" d="M56.4,84.7c0,0-0.4-0.1-0.7-0.2c-0.4-0.1-0.7-0.3-0.7-0.3
						s0.1,0.4,0.2,0.7c0.1,0.4,0.1,0.8,0.1,0.8"/>
				</g>
				<g>
					<path fill="none" stroke="#0000FF" stroke-miterlimit="10" d="M55.2,85.9c0,0-0.3-0.1-0.6-0.3c-0.3-0.2-0.6-0.4-0.6-0.4
						s0,0.1,0,0.2s0,0.3,0,0.5s0,0.4-0.1,0.5c0,0.1-0.1,0.3-0.1,0.3"/>
				</g>
				<g>
					<path fill="none" stroke="#0000FF" stroke-miterlimit="10" d="M53.4,86.9c0,0-0.3-0.3-0.5-0.6c-0.2-0.3-0.4-0.6-0.4-0.6
						L52,87.1"/>
				</g>
				<g>
					<path fill="none" stroke="#0000FF" stroke-miterlimit="10" d="M51.7,87.2c-0.1-0.3-0.3-0.5-0.4-0.5c-0.1-0.3-0.1-0.5-0.2-0.8
						l-0.8,1.3"/>
				</g>
				<g>
					<polyline fill="none" stroke="#0000FF" stroke-miterlimit="10" points="50,87.2 49.4,85.9 48.6,87.2 					"/>
				</g>
				<g>
					<path fill="none" stroke="#0000FF" stroke-miterlimit="10" d="M48.4,87.2l-0.6-1.3c-0.1,0.2-0.3,0.5-0.4,0.5
						c-0.1,0.3-0.3,0.6-0.4,0.8"/>
				</g>
				<g>
					<path fill="none" stroke="#0000FF" stroke-miterlimit="10" d="M46.6,87.1l-0.4-1.4c0,0-0.2,0.3-0.5,0.6
						c-0.1,0.1-0.2,0.3-0.4,0.4c-0.1,0.1-0.2,0.2-0.2,0.2"/>
				</g>
				<g>
					<path fill="none" stroke="#0000FF" stroke-miterlimit="10" d="M44.8,86.8c0,0,0-0.1,0-0.2s0-0.3,0-0.5c0-0.4,0.1-0.7,0.1-0.7
						s-0.1,0.1-0.2,0.1c-0.1,0.1-0.3,0.1-0.5,0.2s-0.4,0.1-0.5,0.2S43.5,86,43.5,86"/>
				</g>
				<g>
					<path fill="none" stroke="#0000FF" stroke-miterlimit="10" d="M43.2,85.8c0,0,0.1-0.4,0.2-0.7c0.1-0.4,0.2-0.7,0.2-0.7
						s-0.4,0.1-0.7,0.2c-0.4,0.1-0.8,0.2-0.8,0.2"/>
				</g>
				<g>
					<path fill="none" stroke="#0000FF" stroke-miterlimit="10" d="M42,84.5c0,0,0.1-0.3,0.3-0.7c0.1-0.3,0.3-0.6,0.3-0.6
						s-0.4,0.1-0.8,0.1c-0.4,0.1-0.8,0.1-0.8,0.1"/>
				</g>
				<g>
					<path fill="none" stroke="#0000FF" stroke-miterlimit="10" d="M40.9,83.2c0,0,0.2-0.3,0.4-0.6c0.2-0.3,0.4-0.6,0.4-0.6
						s-0.4,0-0.8,0.1c-0.4,0-0.8,0.1-0.8,0.1"/>
				</g>
				<g>
					<path fill="none" stroke="#0000FF" stroke-miterlimit="10" d="M40,82.1c0.1,0,0.1-0.3,0.2-0.7c0.1-0.4,0.2-0.7,0.2-0.7
						s-0.4,0.1-0.7,0.2C39.3,81,39,81.1,39,81.1"/>
				</g>
				<g>
					<path fill="none" stroke="#0000FF" stroke-miterlimit="10" d="M38.8,80.9c0,0,0.1-0.4,0.3-0.7c0.1-0.3,0.3-0.6,0.3-0.6
						s-0.4,0.1-0.8,0.1c-0.4,0.1-0.8,0.1-0.8,0.1"/>
				</g>
				<g>
					<path fill="none" stroke="#0000FF" stroke-miterlimit="10" d="M37.7,79.6c0,0,0.2-0.3,0.4-0.6c0.2-0.3,0.4-0.6,0.4-0.6
						s-0.4,0-0.8,0.1c-0.2,0-0.4,0-0.5,0s-0.2,0-0.2,0"/>
				</g>
				<g>
					<path fill="none" stroke="#0000FF" stroke-miterlimit="10" d="M36.7,78.1c0,0,0.2-0.3,0.4-0.6c0.2-0.3,0.4-0.6,0.4-0.6
						s-0.4,0-0.8,0s-0.7,0-0.7,0"/>
				</g>
				<g>
					<path fill="none" stroke="#0000FF" stroke-miterlimit="10" d="M35.9,76.6c0,0,0.2-0.3,0.5-0.6c0.2-0.3,0.5-0.5,0.5-0.5
						s-0.4,0-0.8-0.1c-0.4-0.1-0.8-0.1-0.8-0.1"/>
				</g>
				<g>
					<path fill="none" stroke="#0000FF" stroke-miterlimit="10" d="M35.2,75.1c0,0,0.3-0.3,0.5-0.5c0.3-0.2,0.5-0.5,0.5-0.5
						S35.8,74,35.4,74c-0.4-0.1-0.8-0.2-0.8-0.2"/>
				</g>
				<g>
					<path fill="none" stroke="#0000FF" stroke-miterlimit="10" d="M34.7,73.5c0,0,0.3-0.2,0.6-0.5c0.3-0.2,0.6-0.5,0.6-0.5
						s-0.4-0.1-0.7-0.2c-0.4-0.1-0.7-0.2-0.7-0.2"/>
				</g>
				<g>
					<path fill="none" stroke="#0000FF" stroke-miterlimit="10" d="M34.2,71.8c0,0,0.3-0.2,0.6-0.4c0.3-0.2,0.6-0.4,0.6-0.4
						s-0.4-0.1-0.7-0.2S34,70.5,34,70.5"/>
				</g>
				<g>
					<path fill="none" stroke="#0000FF" stroke-miterlimit="10" d="M33.9,70.2c0,0,0.3-0.2,0.6-0.4c0.3-0.2,0.6-0.4,0.6-0.4
						s-0.1,0-0.2-0.1c-0.1-0.1-0.3-0.1-0.5-0.2c-0.4-0.1-0.7-0.3-0.7-0.3"/>
				</g>
				<g>
					<path fill="none" stroke="#0000FF" stroke-miterlimit="10" d="M33.6,68.6c0,0,0.3-0.2,0.6-0.4c0.3-0.2,0.6-0.4,0.6-0.4
						s-0.4-0.1-0.7-0.3c-0.4-0.1-0.7-0.3-0.7-0.3"/>
				</g>
				<g>
					<path fill="none" stroke="#0000FF" stroke-miterlimit="10" d="M33.4,66.9c0,0,0.3-0.2,0.6-0.4c0.3-0.2,0.6-0.4,0.6-0.4
						s-0.4-0.1-0.7-0.3s-0.7-0.3-0.7-0.3"/>
				</g>
				<g>
					<path fill="none" stroke="#0000FF" stroke-miterlimit="10" d="M33.2,65.2c0,0,0.3-0.2,0.6-0.4c0.3-0.2,0.6-0.4,0.6-0.4
						S34,64.2,33.7,64c-0.4-0.2-0.7-0.4-0.7-0.4"/>
				</g>
				<g>
					<path fill="none" stroke="#0000FF" stroke-miterlimit="10" d="M33.1,63.6l1.3-0.6c0,0-0.4-0.2-0.7-0.4S33,62.2,33,62.2"/>
				</g>
				<g>
					<path fill="none" stroke="#0000FF" stroke-miterlimit="10" d="M33,61.9l1.3-0.6c0,0-0.3-0.2-0.7-0.4c-0.3-0.2-0.7-0.4-0.7-0.4"
						/>
				</g>
				<g>
					<polyline fill="none" stroke="#0000FF" stroke-miterlimit="10" points="33,60.3 34.4,59.7 33,58.9 					"/>
				</g>
				<g>
					<path fill="none" stroke="#0000FF" stroke-miterlimit="10" d="M33.1,58.6l1.3-0.6c0,0-0.3-0.2-0.6-0.4s-0.6-0.4-0.6-0.4"/>
				</g>
				<g>
					<polyline fill="none" stroke="#0000FF" stroke-miterlimit="10" points="33.1,57 34.4,56.4 33.2,55.6 					"/>
				</g>
				<g>
					<path fill="none" stroke="#0000FF" stroke-miterlimit="10" d="M33.2,55.3c0,0,0.4-0.1,0.7-0.3c0.4-0.1,0.7-0.2,0.7-0.2
						l-1.3-0.9"/>
				</g>
				<g>
					<path fill="none" stroke="#0000FF" stroke-miterlimit="10" d="M33.3,53.7l1.4-0.5c0,0-0.3-0.2-0.6-0.4s-0.6-0.4-0.6-0.4"/>
				</g>
				<g>
					<polyline fill="none" stroke="#0000FF" stroke-miterlimit="10" points="33.4,52 34.8,51.6 33.6,50.6 					"/>
				</g>
				<g>
					<polyline fill="none" stroke="#0000FF" stroke-miterlimit="10" points="33.6,50.4 35,50 33.8,49 					"/>
				</g>
				<g>
					<polyline fill="none" stroke="#0000FF" stroke-miterlimit="10" points="33.8,48.7 35.2,48.3 34,47.4 					"/>
				</g>
				<g>
					<path fill="none" stroke="#0000FF" stroke-miterlimit="10" d="M34.1,47.1l1.4-0.4c0,0-0.3-0.2-0.6-0.5s-0.6-0.5-0.6-0.5"/>
				</g>
			</g>
		</g>
	</g>
	<g>
		<g>
			<g>
				<g>
					<path fill="none" stroke="#0000FF" stroke-miterlimit="10" d="M62.8,46.2c0,0,0.3-0.1,0.6-0.3c0.3-0.1,0.6-0.3,0.6-0.3
						s-0.4-0.2-0.7-0.4c-0.4-0.2-0.7-0.3-0.7-0.3"/>
				</g>
				<g>
					<path fill="none" stroke="#0000FF" stroke-miterlimit="10" d="M62.7,44.7c0,0,0.3-0.2,0.6-0.4s0.6-0.4,0.6-0.4
						s-0.4-0.1-0.7-0.3c-0.4-0.1-0.7-0.3-0.7-0.3"/>
				</g>
				<g>
					<path fill="none" stroke="#0000FF" stroke-miterlimit="10" d="M62.5,43.1c0,0,0.3-0.2,0.6-0.4s0.6-0.4,0.6-0.4
						s-0.4-0.1-0.7-0.2c-0.4-0.1-0.7-0.2-0.7-0.2"/>
				</g>
				<g>
					<path fill="none" stroke="#0000FF" stroke-miterlimit="10" d="M62.1,41.6c0,0,0.3-0.2,0.6-0.4s0.6-0.5,0.6-0.5
						s-0.4-0.1-0.7-0.2s-0.7-0.2-0.7-0.2"/>
				</g>
				<g>
					<path fill="none" stroke="#0000FF" stroke-miterlimit="10" d="M61.7,40.1c0,0,0.3-0.2,0.5-0.5s0.5-0.5,0.5-0.5S62.4,39,62,39
						c-0.4-0.1-0.8-0.1-0.8-0.1"/>
				</g>
				<g>
					<path fill="none" stroke="#0000FF" stroke-miterlimit="10" d="M61.1,38.6c0,0,0.2-0.3,0.5-0.5c0.2-0.3,0.5-0.5,0.5-0.5
						s-0.4-0.1-0.8-0.1c-0.2,0-0.4,0-0.5,0s-0.2,0-0.2,0"/>
				</g>
				<g>
					<path fill="none" stroke="#0000FF" stroke-miterlimit="10" d="M60.5,37.2c0,0,0.2-0.3,0.4-0.6s0.4-0.6,0.4-0.6s-0.4,0-0.8,0
						c-0.4,0-0.8,0-0.8,0"/>
				</g>
				<g>
					<path fill="none" stroke="#0000FF" stroke-miterlimit="10" d="M59.7,35.9c0,0,0.2-0.3,0.4-0.6c0.1-0.1,0.2-0.3,0.3-0.4
						c0.1-0.1,0.1-0.2,0.1-0.2s-0.4,0-0.8,0.1c-0.4,0-0.8,0.1-0.8,0.1"/>
				</g>
				<g>
					<path fill="none" stroke="#0000FF" stroke-miterlimit="10" d="M58.8,34.6c0,0,0.2-0.3,0.4-0.6c0.1-0.3,0.3-0.6,0.3-0.6
						s-0.4,0.1-0.8,0.1c-0.4,0.1-0.7,0.2-0.7,0.2"/>
				</g>
				<g>
					<path fill="none" stroke="#0000FF" stroke-miterlimit="10" d="M57.8,33.5c0,0,0-0.1,0.1-0.2c0.1-0.1,0.1-0.3,0.2-0.5
						c0.1-0.3,0.2-0.7,0.2-0.7s-0.4,0.1-0.7,0.2c-0.4,0.1-0.7,0.3-0.7,0.3"/>
				</g>
				<g>
					<polyline fill="none" stroke="#0000FF" stroke-miterlimit="10" points="56.5,32.3 57.1,31 55.6,31.3 					"/>
				</g>
			</g>
		</g>
	</g>
	<g>
		<g>
			<path fill="none" stroke="#0000FF" stroke-miterlimit="10" d="M50.9,26.8"/>
		</g>
	</g>
	<g>
		<g>
			<g>
				<g>
					<path fill="none" stroke="#0000FF" stroke-miterlimit="10" d="M34.5,46.2c0,0,0.3-0.1,0.7-0.3c0.3-0.1,0.7-0.3,0.7-0.3
						s-0.3-0.2-0.6-0.4s-0.6-0.5-0.6-0.5"/>
				</g>
				<g>
					<path fill="none" stroke="#0000FF" stroke-miterlimit="10" d="M34.6,44.5c0,0,0.4-0.1,0.7-0.2C35.6,44.1,36,44,36,44
						s-0.3-0.2-0.6-0.5c-0.3-0.2-0.6-0.5-0.6-0.5"/>
				</g>
				<g>
					<path fill="none" stroke="#0000FF" stroke-miterlimit="10" d="M34.8,42.8c0,0,0.4-0.1,0.7-0.2c0.4-0.1,0.7-0.1,0.7-0.1
						s-0.3-0.3-0.6-0.5c-0.1-0.1-0.3-0.3-0.4-0.4c-0.1-0.1-0.2-0.2-0.2-0.2"/>
				</g>
				<g>
					<path fill="none" stroke="#0000FF" stroke-miterlimit="10" d="M35.2,41.1c0,0,0.4-0.1,0.7-0.1c0.4-0.1,0.7-0.1,0.7-0.1
						s-0.1-0.1-0.2-0.2c-0.1-0.1-0.2-0.2-0.4-0.4c-0.3-0.3-0.5-0.6-0.5-0.6"/>
				</g>
				<g>
					<path fill="none" stroke="#0000FF" stroke-miterlimit="10" d="M35.7,39.5c0,0,0.4,0,0.7-0.1c0.4,0,0.7-0.1,0.7-0.1
						s-0.2-0.3-0.5-0.6c-0.2-0.3-0.5-0.6-0.5-0.6"/>
				</g>
				<g>
					<path fill="none" stroke="#0000FF" stroke-miterlimit="10" d="M36.3,37.9c0,0,0.4,0,0.7,0c0.4,0,0.7,0,0.7,0s-0.2-0.3-0.4-0.6
						s-0.4-0.6-0.4-0.6"/>
				</g>
				<g>
					<path fill="none" stroke="#0000FF" stroke-miterlimit="10" d="M37,36.4c0,0,0.4,0,0.7,0.1c0.4,0,0.7,0.1,0.7,0.1
						s-0.1-0.1-0.1-0.2c-0.1-0.1-0.1-0.3-0.2-0.5c-0.2-0.4-0.4-0.7-0.4-0.7"/>
				</g>
				<g>
					<path fill="none" stroke="#0000FF" stroke-miterlimit="10" d="M37.9,34.9c0,0,0.4,0.1,0.7,0.1c0.2,0,0.4,0.1,0.5,0.1
						s0.2,0.1,0.2,0.1s-0.1-0.4-0.3-0.7c-0.1-0.4-0.3-0.7-0.3-0.7"/>
				</g>
				<g>
					<path fill="none" stroke="#0000FF" stroke-miterlimit="10" d="M38.9,33.5c0,0,0.4,0.1,0.7,0.2c0.4,0.1,0.7,0.2,0.7,0.2
						s-0.1-0.4-0.2-0.7c-0.1-0.4-0.2-0.8-0.2-0.8"/>
				</g>
				<g>
					<path fill="none" stroke="#0000FF" stroke-miterlimit="10" d="M40.1,32.2c0,0,0.4,0.1,0.7,0.3c0.4,0.1,0.7,0.3,0.7,0.3
						s-0.1-0.4-0.1-0.8c0-0.2-0.1-0.4-0.1-0.5c0-0.2-0.1-0.2-0.1-0.2"/>
				</g>
				<g>
					<polyline fill="none" stroke="#0000FF" stroke-miterlimit="10" points="41.3,31.1 42.6,31.6 42.3,30.1 					"/>
				</g>
			</g>
		</g>
	</g>
</g>
<g id="leaf">
	<g>
		<path fill="#A8CF38" stroke="#010101" stroke-width="0.5" stroke-linecap="round" stroke-linejoin="round" d="M47.8,23.3
			c0,0-2.5-4.4-2.2-6.6l0.6,0.2c0,0-0.5-0.6,0.1-3.3l0.5,0.4c0,0-0.4-1.3,0.4-3.1l0.5,0.4c0,0,0.2-1.2,0.7-2.4L49,9.3
			c0,0-0.1-1.5,0.4-2.5l0.5,0.4c0,0,0.2-1.9,1.2-2.2l0.1,0.4c0,0,0.7-1.1,1.7-1.8l0.5,0.5c0,0,0-1.1,1.3-1.6L54.9,3
			c0,0,0.1-1.5,1.4-1.8L56.6,2c0,0,2.1-1.9,2.6-2L60,0.4c0.1,0.4,0,3.2,0,3.2l0.8-0.2c0.5,1.1-0.6,2.2-0.6,2.2h0.5
			c0.4,1.3-0.5,2-0.5,2l0.7,0.1C61,8.8,60.5,10,60.5,10l0.4-0.1c0.4,1-1,2.3-1,2.3l0.6,0.1c-0.5,1.1-1.8,1.9-1.8,1.9l0.6,0.2
			c-0.7,1.1-1.5,2.1-1.5,2.1l0.6,0.1c-0.9,1.7-2.2,2.2-2.2,2.2L57,19c-1.8,2.1-2.6,2.1-2.6,2.1l0.6,0.4c-1.5,1.6-6.6,2.3-6.6,2.3
			L47.8,23.3z"/>
		<path fill="#A8CF38" stroke="#010101" stroke-width="0.5" stroke-linecap="round" stroke-linejoin="round" d="M48.2,23.5
			c0,0-2.5-4.4-2.2-6.6l0.6,0.2c0,0-0.5-0.6,0.1-3.3l0.5,0.4c0,0-0.4-1.3,0.4-3.1l0.5,0.4c0,0,0.2-1.2,0.7-2.4l0.6,0.4
			c0,0-0.1-1.5,0.4-2.5l0.5,0.4c0,0,0.2-1.9,1.2-2.2l0.1,0.4c0,0,0.7-1.1,1.7-1.8l0.5,0.5c0,0,0-1.1,1.3-1.6l0.3,0.4
			c0,0,0.1-1.5,1.4-1.8L57.2,2c0,0,2.1-1.9,2.6-2l0.9,0.4c0.1,0.4,0,3.2,0,3.2l0.8-0.2c0.5,1.1-0.6,2.2-0.6,2.2h0.5
			c0.4,1.3-0.5,2-0.5,2l0.7,0.1C61.5,9,61,10.3,61,10.3l0.4-0.1c0.4,1-1,2.3-1,2.3l0.6,0.1c-0.5,1.1-1.8,1.9-1.8,1.9l0.6,0.2
			c-0.7,1.1-1.5,2.1-1.5,2.1l0.6,0.1c-0.9,1.7-2.2,2.2-2.2,2.2l0.6,0.1c-1.8,2.1-2.6,2.1-2.6,2.1l0.6,0.4C54,23.2,49,23.9,49,23.9
			L48.2,23.5z"/>
		
			<line fill="none" stroke="#010101" stroke-width="0.5" stroke-linecap="round" stroke-linejoin="round" x1="59.8" y1="0.6" x2="48.5" y2="23.7"/>
		<g>
			
				<line fill="none" stroke="#010101" stroke-width="0.5" stroke-linecap="round" stroke-linejoin="round" x1="57.1" y1="1.9" x2="57.5" y2="3.8"/>
			
				<line fill="none" stroke="#010101" stroke-width="0.5" stroke-linecap="round" stroke-linejoin="round" x1="55.4" y1="3.3" x2="56.5" y2="5.5"/>
			
				<line fill="none" stroke="#010101" stroke-width="0.5" stroke-linecap="round" stroke-linejoin="round" x1="53.9" y1="4.4" x2="55.4" y2="7.2"/>
			
				<line fill="none" stroke="#010101" stroke-width="0.5" stroke-linecap="round" stroke-linejoin="round" x1="51.6" y1="5.6" x2="54.1" y2="9"/>
			
				<line fill="none" stroke="#010101" stroke-width="0.5" stroke-linecap="round" stroke-linejoin="round" x1="50.4" y1="7.3" x2="53.5" y2="11"/>
			
				<line fill="none" stroke="#010101" stroke-width="0.5" stroke-linecap="round" stroke-linejoin="round" x1="49.3" y1="9.5" x2="52.4" y2="12.8"/>
			
				<line fill="none" stroke="#010101" stroke-width="0.5" stroke-linecap="round" stroke-linejoin="round" x1="48.1" y1="11.4" x2="50.7" y2="15"/>
			
				<line fill="none" stroke="#010101" stroke-width="0.5" stroke-linecap="round" stroke-linejoin="round" x1="47.1" y1="14.1" x2="50.3" y2="18"/>
			
				<line fill="none" stroke="#010101" stroke-width="0.5" stroke-linecap="round" stroke-linejoin="round" x1="46.6" y1="17" x2="49.1" y2="21.1"/>
		</g>
		<g>
			
				<line fill="none" stroke="#010101" stroke-width="0.5" stroke-linecap="round" stroke-linejoin="round" x1="60.8" y1="3.7" x2="59" y2="4.5"/>
			
				<line fill="none" stroke="#010101" stroke-width="0.5" stroke-linecap="round" stroke-linejoin="round" x1="60.7" y1="5.9" x2="58.2" y2="6.4"/>
			
				<line fill="none" stroke="#010101" stroke-width="0.5" stroke-linecap="round" stroke-linejoin="round" x1="60.7" y1="7.7" x2="57.5" y2="8.3"/>
			
				<line fill="none" stroke="#010101" stroke-width="0.5" stroke-linecap="round" stroke-linejoin="round" x1="61.2" y1="10.3" x2="56.9" y2="10.5"/>
			
				<line fill="none" stroke="#010101" stroke-width="0.5" stroke-linecap="round" stroke-linejoin="round" x1="60.5" y1="12.3" x2="55.7" y2="12.1"/>
			
				<line fill="none" stroke="#010101" stroke-width="0.5" stroke-linecap="round" stroke-linejoin="round" x1="59.5" y1="14.5" x2="54.9" y2="14.1"/>
			
				<line fill="none" stroke="#010101" stroke-width="0.5" stroke-linecap="round" stroke-linejoin="round" x1="58.7" y1="16.6" x2="54.2" y2="16.7"/>
			
				<line fill="none" stroke="#010101" stroke-width="0.5" stroke-linecap="round" stroke-linejoin="round" x1="57.1" y1="19" x2="52.1" y2="18.9"/>
			
				<line fill="none" stroke="#010101" stroke-width="0.5" stroke-linecap="round" stroke-linejoin="round" x1="55.2" y1="21.2" x2="50.3" y2="21.7"/>
		</g>
		<path fill="#FFFFFF" stroke="#010101" stroke-width="0.5" stroke-linecap="round" stroke-linejoin="round" d="M61.8,8
			c0,0-1.7,0.4-1.2,1.3c0,0-2.1,0.3-1.1,1.9c0,0,0.5,1.1,1.4,0.7c0,0-0.6,0.9,0.3,0.7c0.9-0.2,0.6-0.2,0.6-0.2"/>
		<path fill="#FFFFFF" stroke="#010101" stroke-width="0.5" stroke-miterlimit="10" d="M50.8,10.3c-0.1,0.4-0.3,0.7-0.4,1.1
			c0.4,0.4,1-0.4,1.2-0.7c-0.2,0.6-0.1,1.9,0.7,1c-0.1,0.6,0.2,0.7,0.6,0.9c-0.1,0.5-0.6,0.6-0.9,1c-0.2,0.2-0.3,0.6-0.4,0.8
			c-0.3-0.2-0.4-0.6-0.6-0.8c-0.2,0.1-0.7,0.9-1,0.9s-0.5-0.7-0.9-0.8c0.1-0.3,0.3-0.6,0.4-0.9c-0.1-0.1-0.1-0.1-0.1-0.1
			c0.1-0.4,0.8-2.4,1.2-1.9"/>
		<path fill="#FFFFFF" stroke="#010101" stroke-width="0.5" stroke-miterlimit="10" d="M56.5,5.8c0.5-0.4,0.5-1,1.2-1.4
			c0.1,0.2-0.1,0.8,0.1,0.9c0.4,0.3,1-0.4,1.3-0.7c-0.1,0.1-0.4,0.7-0.3,0.9c0.2,0.4,0.7,0.1,1,0.1c-0.2,0.6-0.7,1-1,1.6
			c-0.2,0.4-0.2,0.7-0.4,1.1c-0.7-0.2-1.1-0.7-1.3-1.4c-0.2,0.4-0.9,1.8-1,0.7c-0.1-0.7,0.5-1.4,0.6-2"/>
		<path fill="#FFFFFF" stroke="#010101" stroke-width="0.5" stroke-miterlimit="10" d="M55.7,15.4c0,0.4-0.6,0.9-0.6,1.3
			c0,0.6,0.7,0.9,1.2,1c-0.6,0.2-1.2,0.5-1.4,1.1c0.3,0.3,0.6,0.4,0.9,0.6c-0.3,0.1-1.6,0.8-0.9,1.1C54.7,21,53.3,20.3,53,20
			c-0.7-0.6-0.5-1.4-0.1-2.2c0.5-1.1,1.5-2.3,2.9-2.1"/>
	</g>
</g>
<g id="water">
	<g>
		<path fill="#55C2E2" stroke="#070707" stroke-width="0.5" stroke-miterlimit="10" d="M72.2,33c0,0-10.6,12.3-1.2,15.1
			c0,0,7.7-0.2,4.3-9.1C75.2,39,72.3,35.6,72.2,33z"/>
		<path fill="none" stroke="#3A97AD" stroke-miterlimit="10" d="M71.5,47.2c1.5,0.7,4-3,3.8-4.4"/>
		
			<ellipse transform="matrix(0.7903 -0.6127 0.6127 0.7903 -13.0932 52.3202)" opacity="0.8" fill="#FFFFFF" enable-background="new    " cx="69.9" cy="45.3" rx="1.4" ry="1.7"/>
		<path opacity="0.8" fill="#FFFFFF" enable-background="new    " d="M69,38.4c0,0,1.4-3.4,3-4.3"/>
	</g>
	<g>
		<path fill="#55C2E2" stroke="#070707" stroke-width="0.5" stroke-miterlimit="10" d="M26.7,41.8c0,0-10.6,12.3-1.2,15.1
			c0,0,7.7-0.2,4.3-9.1C29.8,47.8,26.8,44.4,26.7,41.8z"/>
		<path fill="none" stroke="#3A97AD" stroke-miterlimit="10" d="M26.1,55.9c1.5,0.7,4-3,3.8-4.4"/>
		
			<ellipse transform="matrix(0.7903 -0.6127 0.6127 0.7903 -27.8699 26.3113)" opacity="0.8" fill="#FFFFFF" enable-background="new    " cx="24.5" cy="53.9" rx="1.4" ry="1.7"/>
		<path opacity="0.8" fill="#FFFFFF" enable-background="new    " d="M23.6,47.2c0,0,1.4-3.4,3-4.3"/>
	</g>
	<g>
		<path fill="#55C2E2" stroke="#070707" stroke-width="0.5" stroke-miterlimit="10" d="M29.2,79c0,0-6.4,7.4-0.7,9.1
			c0,0,4.6-0.1,2.6-5.5C31,82.6,29.3,80.6,29.2,79z"/>
		<path fill="none" stroke="#3A97AD" stroke-miterlimit="10" d="M28.8,87.5c0.9,0.4,2.4-1.8,2.3-2.7"/>
		
			<ellipse transform="matrix(0.7902 -0.6128 0.6128 0.7902 -47.5999 35.2639)" opacity="0.8" fill="#FFFFFF" enable-background="new    " cx="27.7" cy="87.2" rx="0.5" ry="0.6"/>
		<path opacity="0.8" fill="#FFFFFF" enable-background="new    " d="M27.3,82.3c0,0,0.8-2.1,1.8-2.6"/>
	</g>
	<g>
		<path fill="#55C2E2" stroke="#070707" stroke-width="0.5" stroke-miterlimit="10" d="M76,51.9c0,0-6.4,7.4-0.7,9.1
			c0,0,4.6-0.1,2.6-5.5C77.9,55.5,76.1,53.5,76,51.9z"/>
		<path fill="none" stroke="#3A97AD" stroke-miterlimit="10" d="M75.7,60.4c0.9,0.4,2.4-1.8,2.3-2.7"/>
		
			<ellipse transform="matrix(0.7904 -0.6126 0.6126 0.7904 -21.2013 58.2872)" opacity="0.8" fill="#FFFFFF" enable-background="new    " cx="74.6" cy="60.1" rx="0.5" ry="0.6"/>
		<path opacity="0.8" fill="#FFFFFF" enable-background="new    " d="M74.2,55.2c0,0,0.8-2.1,1.8-2.6"/>
	</g>
	<g>
		<path fill="#55C2E2" stroke="#070707" stroke-width="0.5" stroke-miterlimit="10" d="M60.1,83.6c0,0-4,4.6-0.5,5.7
			c0,0,2.9-0.1,1.6-3.4C61.2,85.8,60.1,84.5,60.1,83.6z"/>
		<path fill="none" stroke="#3A97AD" stroke-miterlimit="10" d="M59.8,88.9c0.6,0.3,1.5-1.1,1.4-1.6"/>
		<ellipse opacity="0.8" fill="#FFFFFF" enable-background="new    " cx="59.1" cy="88.1" rx="0.3" ry="0.3"/>
		<path opacity="0.8" fill="#FFFFFF" enable-background="new    " d="M58.9,85.6c0,0,0.5-1.3,1.1-1.6"/>
	</g>
	<g>
		<path fill="#55C2E2" stroke="#070707" stroke-width="0.5" stroke-miterlimit="10" d="M40.1,88.2c0,0-4,4.6-0.5,5.7
			c0,0,2.9-0.1,1.6-3.4C41.2,90.4,40.1,89.1,40.1,88.2z"/>
		<path fill="none" stroke="#3A97AD" stroke-miterlimit="10" d="M39.8,93.4c0.6,0.3,1.5-1.1,1.4-1.6"/>
		<ellipse opacity="0.8" fill="#FFFFFF" enable-background="new    " cx="39.1" cy="92.7" rx="0.3" ry="0.3"/>
		<path opacity="0.8" fill="#FFFFFF" enable-background="new    " d="M38.9,90.2c0,0,0.5-1.3,1.1-1.6"/>
	</g>
</g>
<g id="eyes">
	<path fill="#FF9900" stroke="#010101" stroke-width="0.5" stroke-miterlimit="10" d="M44.1,30.1c0,0,2.6-6,4.6-3.3
		c0,0-0.5,7.7-4.8,4.2L44.1,30.1z"/>
	<path fill="#FF9900" stroke="#010101" stroke-width="0.5" stroke-miterlimit="10" d="M54.8,30.1c0,0-2.3-6-4.1-3.3
		c0,0,0.5,7.7,4.3,4.2L54.8,30.1z"/>
</g>
</svg>
