<?xml version="1.0" encoding="utf-8"?>
<!-- Generator: Adobe Illustrator 17.1.0, SVG Export Plug-In . SVG Version: 6.00 Build 0)  -->
<!DOCTYPE svg PUBLIC "-//W3C//DTD SVG 1.1//EN" "http://www.w3.org/Graphics/SVG/1.1/DTD/svg11.dtd">
<svg version="1.1" id="Layer_1" xmlns="http://www.w3.org/2000/svg" xmlns:xlink="http://www.w3.org/1999/xlink" x="0px" y="0px"
	 viewBox="0 0 100 100" enable-background="new 0 0 100 100" xml:space="preserve">
<pattern  y="100" width="4.8" height="4.8" patternUnits="userSpaceOnUse" id="SVGID_10" viewBox="7.1 -11.9 4.8 4.8" overflow="visible">
	<g>
		<polygon fill="none" points="7.1,-11.9 11.9,-11.9 11.9,-7.1 7.1,-7.1 		"/>
		<g>
			<polygon fill="none" points="18.9,-9.3 9.6,-9.3 9.6,0 18.9,0 			"/>
		</g>
		<g>
			<polygon fill="none" points="14.1,-9.3 4.8,-9.3 4.8,0 14.1,0 			"/>
		</g>
		<g>
			<polygon fill="none" points="9.3,-9.3 0,-9.3 0,0 9.3,0 			"/>
		</g>
		<g>
			<polygon fill="none" points="18.9,-14.1 9.6,-14.1 9.6,-4.8 18.9,-4.8 			"/>
		</g>
		<g>
			<polygon fill="none" points="14.1,-14.1 4.8,-14.1 4.8,-4.8 14.1,-4.8 			"/>
			<path fill="#010101" d="M10.1-9.1c0-0.3-0.3-0.7-0.7-0.7S8.8-9.5,8.8-9.1c0,0.3,0.3,0.7,0.7,0.7S10.1-8.8,10.1-9.1z"/>
		</g>
		<g>
			<polygon fill="none" points="9.3,-14.1 0,-14.1 0,-4.8 9.3,-4.8 			"/>
		</g>
		<g>
			<polygon fill="none" points="18.9,-18.9 9.6,-18.9 9.6,-9.6 18.9,-9.6 			"/>
		</g>
		<g>
			<polygon fill="none" points="14.1,-18.9 4.8,-18.9 4.8,-9.6 14.1,-9.6 			"/>
		</g>
		<g>
			<polygon fill="none" points="9.3,-18.9 0,-18.9 0,-9.6 9.3,-9.6 			"/>
		</g>
	</g>
</pattern>
<pattern  y="100" width="2.8" height="2.8" patternUnits="userSpaceOnUse" id="SVGID_6_" viewBox="0 -2.8 2.8 2.8" overflow="visible">
	<g>
		<polygon fill="none" points="0,0 2.8,0 2.8,-2.8 0,-2.8 		"/>
		<g>
			<polygon fill="none" points="0,-2.8 2.8,-2.8 2.8,0 0,0 			"/>
			<g>
				<polygon fill="none" points="0,0 2.8,0 2.8,-2.8 0,-2.8 				"/>
				<g>
					<polygon fill="none" points="2.8,-2.8 0,-2.8 0,0 2.8,0 					"/>
					<g>
						<path fill="#010101" d="M1.6-1.3c0-0.1-0.1-0.2-0.2-0.2S1.2-1.4,1.2-1.3s0.1,0.2,0.2,0.2C1.5-1.1,1.6-1.2,1.6-1.3z"/>
					</g>
				</g>
			</g>
		</g>
	</g>
</pattern>
<pattern  y="100" width="2.8" height="2.8" patternUnits="userSpaceOnUse" id="SVGID_7_" viewBox="0 -2.8 2.8 2.8" overflow="visible">
	<g>
		<polygon fill="none" points="0,0 2.8,0 2.8,-2.8 0,-2.8 		"/>
		<g>
			<polygon fill="none" points="0,-2.8 2.8,-2.8 2.8,0 0,0 			"/>
			<g>
				<polygon fill="none" points="0,0 2.8,0 2.8,-2.8 0,-2.8 				"/>
				<g>
					<polygon fill="none" points="2.8,-2.8 0,-2.8 0,0 2.8,0 					"/>
					<g>
						<path fill="#010101" d="M1.6-1.3c0-0.1-0.1-0.2-0.2-0.2S1.2-1.4,1.2-1.3s0.1,0.2,0.2,0.2C1.5-1.1,1.6-1.2,1.6-1.3z"/>
					</g>
				</g>
			</g>
		</g>
	</g>
</pattern>
<pattern  y="100" width="2.8" height="2.8" patternUnits="userSpaceOnUse" id="SVGID_8_" viewBox="0 -2.8 2.8 2.8" overflow="visible">
	<g>
		<polygon fill="none" points="0,0 2.8,0 2.8,-2.8 0,-2.8 		"/>
		<g>
			<polygon fill="none" points="0,-2.8 2.8,-2.8 2.8,0 0,0 			"/>
			<g>
				<polygon fill="none" points="0,0 2.8,0 2.8,-2.8 0,-2.8 				"/>
				<g>
					<polygon fill="none" points="2.8,-2.8 0,-2.8 0,0 2.8,0 					"/>
					<g>
						<path fill="#010101" d="M1.6-1.3c0-0.1-0.1-0.2-0.2-0.2S1.2-1.4,1.2-1.3s0.1,0.2,0.2,0.2C1.5-1.1,1.6-1.2,1.6-1.3z"/>
					</g>
				</g>
			</g>
		</g>
	</g>
</pattern>
<pattern  y="100" width="2.8" height="2.8" patternUnits="userSpaceOnUse" id="SVGID_9_" viewBox="0 -2.8 2.8 2.8" overflow="visible">
	<g>
		<polygon fill="none" points="0,0 2.8,0 2.8,-2.8 0,-2.8 		"/>
		<g>
			<polygon fill="none" points="0,-2.8 2.8,-2.8 2.8,0 0,0 			"/>
			<g>
				<polygon fill="none" points="0,0 2.8,0 2.8,-2.8 0,-2.8 				"/>
				<g>
					<polygon fill="none" points="2.8,-2.8 0,-2.8 0,0 2.8,0 					"/>
					<g>
						<path fill="#010101" d="M1.6-1.3c0-0.1-0.1-0.2-0.2-0.2S1.2-1.4,1.2-1.3s0.1,0.2,0.2,0.2C1.5-1.1,1.6-1.2,1.6-1.3z"/>
					</g>
				</g>
			</g>
		</g>
	</g>
</pattern>
<g id="legs">
	<path fill="#FFFFFF" stroke="#010101" stroke-miterlimit="10" d="M34.2,51.5c0,0-6.6,3-7.4,4.8c0,0,0.2-0.1,1.2,0
		c0,0-4.3,2.8-4.5,4c0,0,2-1.4,2.5-1.4s-4.7,5-2.5,8c0,0-0.1-8.6,11.1-14.2"/>
	<g>
		<pattern  id="SVGID_1_" xlink:href="#SVGID_6_" patternTransform="matrix(0.319 0 0 -0.319 -16681.084 -15980.708)">
		</pattern>
		<path fill="url(#SVGID_1_)" d="M39.6,48"/>
		<g>
			<path fill="none" stroke="#010101" stroke-miterlimit="10" d="M39.6,48"/>
		</g>
	</g>
	<path fill="#FFFFFF" stroke="#010101" stroke-miterlimit="10" d="M67,49.4c0,0,2.8-0.2,2.8-1.3c0-0.5-0.1-1.1-0.4-1.4
		c-0.3-0.4-0.7-0.5-1.3-0.5C68.1,46.3,66.6,48.9,67,49.4z"/>
	<path fill="#FFFFFF" stroke="#010101" stroke-miterlimit="10" d="M69.4,46.8c0,0,8.6-3.7,10-7.4c0,0,0.3,1.2-0.4,1.9
		c0,0,3.4-1.5,3.4-3.4c0,0,0.6,2.6-3,4.4c-3.6,1.9-2.1,1.6-2.1,1.6L69.4,46.8"/>
	<path fill="#FFFFFF" stroke="#010101" stroke-miterlimit="10" d="M71.7,51.6c0,0,6.6,3,7.4,4.8c0,0-0.2-0.1-1.2,0
		c0,0,4.3,2.8,4.5,4c0,0-2-1.4-2.5-1.4s4.7,5,2.5,8c0,0,0.1-8.6-11.1-14.2"/>
	<path fill="#FFFFFF" stroke="#010101" stroke-miterlimit="10" d="M74.1,76.7c0,0,1,1.5,1,2.5s1,7.8-2.2,12.5c0,0,1.1-0.3,1.2-0.8
		c0,0-0.3,0.8-1.8,2.2c-1.5,1.4-1.9,2.9-3.5,3.4c0,0,4.3-5.1,4.6-8c0.3-2.9,1.8-4.4,0.6-10.7L74.1,76.7z"/>
	<path fill="#FFFFFF" stroke="#010101" stroke-miterlimit="10" d="M39.4,48.5c0,0-2.8-0.2-2.8-1.3c0-0.5,0.1-1.1,0.4-1.4
		c0.3-0.4,0.7-0.5,1.3-0.5C38.3,45.3,39.8,47.9,39.4,48.5z"/>
	<path fill="#FFFFFF" stroke="#010101" stroke-miterlimit="10" d="M37,45.8c0,0-8.6-3.7-10-7.4c0,0-0.3,1.2,0.4,1.9
		c0,0-3.4-1.5-3.4-3.4c0,0-0.6,2.6,3,4.4c3.5,1.9,2.1,1.6,2.1,1.6L37,45.8"/>
	<path fill="#FFFFFF" stroke="#010101" stroke-miterlimit="10" d="M36.5,50.3c0,0-2.5,0-2.3,1.1s0.5,1.7,1.5,1.5L36.5,50.3z"/>
	<path fill="#FFFFFF" stroke="#010101" stroke-miterlimit="10" d="M32.2,76.5c0,0-1,1.5-1,2.5s-1,7.8,2.2,12.5c0,0-1.1-0.3-1.2-0.8
		c0,0,0.3,0.8,1.8,2.2c1.5,1.4,1.9,2.9,3.5,3.4c0,0-4.3-5.1-4.6-8s-1.8-4.4-0.6-10.7L32.2,76.5z"/>
	<path fill="#FFFFFF" stroke="#010101" stroke-miterlimit="10" d="M69.4,50.5c0,0,2.5,0,2.3,1.1s-0.5,1.7-1.5,1.5L69.4,50.5z"/>
</g>
<g id="basebody">
	<path fill="#FFFFFF" stroke="#000000" stroke-miterlimit="10" d="M58.2,51.1c0,0-4.8,2-9.8,0s-10.3-3.8-11.5-1.4
		c-1.2,2.5-5.2,17-4.4,29.6c0,0,4.1,16.7,15,18.6h11.7c0,0,14.4-8.5,14.7-19.6c0.2-11.1-3.4-28.7-5.8-28.7
		C65.6,49.6,65.1,49.2,58.2,51.1z"/>
	<path fill="#FFFFFF" stroke="#010101" stroke-miterlimit="10" d="M39.4,48.5c0,0-3.9-11.3,4.8-14c0,0,7,1.7,17.9,0
		c0,0,9.5,4.3,4.5,15.1c0,0-4.1,0.2-10.1,2c0,0-4.3,1.8-9.5-1.1C47,50.5,41.4,48,39.4,48.5z"/>
	<path fill="#FFFFFF" stroke="#010101" stroke-miterlimit="10" d="M45.4,34.7c0,0,7.4-7.1,15.1,0C60.5,34.7,52.6,37.7,45.4,34.7z"/>
</g>
<g id="bodycolor">
	<g>
		<g>
			<path fill="none" stroke="#010101" stroke-miterlimit="10" d="M64.5,47.9"/>
		</g>
	</g>
	<g>
		<g>
			<path fill="none" stroke="#010101" stroke-miterlimit="10" d="M58.4,32"/>
		</g>
	</g>
	<g>
		<g>
			<path fill="none" stroke="#010101" stroke-miterlimit="10" d="M39.1,47.8"/>
		</g>
	</g>
	<path fill="#D0DD28" stroke="#010101" stroke-miterlimit="10" d="M58.3,51c0,0-4.8,2-9.8,0S38.2,47.2,37,49.7s-5.2,17-4.4,29.6
		c0,0,4.1,16.7,15,18.6h11.7c0,0,14.4-8.5,14.7-19.6c0.2-11.1-3.4-28.7-5.8-28.7C65.7,49.5,65.2,49.1,58.3,51z"/>
	<path fill="#6CBE45" stroke="#010101" stroke-miterlimit="10" d="M39.5,48.4c0,0-3.9-11.3,4.8-14c0,0,7,1.7,17.9,0
		c0,0,9.5,4.3,4.5,15.1c0,0-4.1,0.2-10.1,2c0,0-4.3,1.8-9.5-1.1C47.1,50.4,41.5,47.8,39.5,48.4z"/>
	<g>
		<pattern  id="SVGID_2_" xlink:href="#SVGID_7_" patternTransform="matrix(0.319 0 0 -0.319 -16681.084 -15980.708)">
		</pattern>
		<path fill="url(#SVGID_2_)" d="M53.1,52.2"/>
		<g>
			<path fill="none" stroke="#010101" stroke-miterlimit="10" d="M53.1,52.2"/>
		</g>
	</g>
	<g>
		<path fill="#FFFFFF" d="M52.6,36.1"/>
		<g>
			<path fill="none" stroke="#010101" stroke-miterlimit="10" d="M52.6,36.1"/>
		</g>
	</g>
	<path fill="#D0DD28" stroke="#010101" stroke-miterlimit="10" d="M45.5,34.4c0,0,7.4-7.1,15.1,0C60.6,34.4,52.7,37.4,45.5,34.4z"/>
</g>
<g id="eyes">
	<path fill="#FF9900" stroke="#010101" stroke-width="0.5" stroke-miterlimit="10" d="M45.9,33.9c0,0,3-3.7,5.5-2
		c0,0-0.6,4.6-5.7,2.5L45.9,33.9z"/>
	<path fill="#FF9900" stroke="#010101" stroke-width="0.5" stroke-miterlimit="10" d="M60.4,33.9c0,0-3.2-3.7-5.7-2
		c0,0,0.6,4.6,6,2.5L60.4,33.9z"/>
</g>
<g id="antennae">
	<path fill="none" stroke="#010101" stroke-miterlimit="10" d="M54,31.6c0,0,5.8-12.8,11.2-1.5"/>
	<path fill="none" stroke="#010101" stroke-miterlimit="10" d="M52,31.6c0,0-5.8-12.8-11.2-1.5"/>
</g>
<g id="markings">
	<path fill="#010101" d="M56.4,54.4c0,0,12-2.8,12.9,6.2"/>
	<path fill="#010101" d="M50,54.4c0,0-12-2.8-12.9,6.2"/>
</g>
<g id="dots">
	<pattern  id="SVGID_3_" xlink:href="#SVGID_8_" patternTransform="matrix(0.319 0 0 -0.319 -16681.084 -15980.708)">
	</pattern>
	<path fill="url(#SVGID_3_)" stroke="#010101" stroke-miterlimit="10" d="M50.8,97.6"/>
	<pattern  id="SVGID_4_" xlink:href="#SVGID_9_" patternTransform="matrix(0.319 0 0 -0.319 -16681.084 -15980.708)">
	</pattern>
	<path fill="url(#SVGID_4_)" stroke="#010101" stroke-miterlimit="10" d="M50.8,97.6"/>
	<pattern  id="SVGID_5_" xlink:href="#SVGID_10" patternTransform="matrix(0.319 0 0 -0.319 -16676.2676 -15992.6758)">
	</pattern>
	<path fill="url(#SVGID_5_)" stroke="#010101" stroke-miterlimit="10" d="M58,51.1c0,0-4.8,2-9.8,0s-10.3-3.8-11.5-1.4
		c-1.2,2.5-5.2,17-4.4,29.6c0,0,4.1,16.7,15,18.6H59c0,0,14.4-8.5,14.7-19.6c0.2-11.1-3.4-28.7-5.8-28.7
		C65.4,49.6,64.9,49.2,58,51.1z"/>
</g>
<g id="fur">
	<g>
		<g>
			<g>
				<g>
					<path fill="none" stroke="#0000FF" stroke-miterlimit="10" d="M69.6,49.5c0,0,0,0.1-0.1,0.3c-0.1,0.1-0.2,0.3-0.3,0.5
						c-0.2,0.4-0.4,0.6-0.4,0.6s0.4,0,0.8,0s0.8,0.1,0.8,0.1"/>
				</g>
				<g>
					<path fill="none" stroke="#0000FF" stroke-miterlimit="10" d="M70.6,51.2c0,0-0.3,0.3-0.5,0.6c-0.3,0.3-0.5,0.6-0.5,0.6
						s0.4,0.1,0.8,0.1s0.8,0.2,0.8,0.2"/>
				</g>
				<g>
					<path fill="none" stroke="#0000FF" stroke-miterlimit="10" d="M71.3,52.9c0,0-0.3,0.3-0.6,0.5c-0.3,0.3-0.6,0.5-0.6,0.5
						s0.4,0.1,0.8,0.2c0.4,0.1,0.8,0.2,0.8,0.2"/>
				</g>
				<g>
					<path fill="none" stroke="#0000FF" stroke-miterlimit="10" d="M71.9,54.6c0,0-0.3,0.3-0.6,0.5s-0.6,0.5-0.6,0.5
						s0.4,0.1,0.8,0.2c0.4,0.1,0.8,0.2,0.8,0.2"/>
				</g>
				<g>
					<path fill="none" stroke="#0000FF" stroke-miterlimit="10" d="M72.4,56.3c0,0-0.3,0.3-0.6,0.5c-0.3,0.3-0.6,0.5-0.6,0.5
						s0.4,0.1,0.8,0.3c0.4,0.1,0.8,0.3,0.8,0.3"/>
				</g>
				<g>
					<path fill="none" stroke="#0000FF" stroke-miterlimit="10" d="M72.8,58.1L71.5,59c0,0,0.4,0.1,0.8,0.3c0.4,0.1,0.8,0.3,0.8,0.3
						"/>
				</g>
				<g>
					<polyline fill="none" stroke="#0000FF" stroke-miterlimit="10" points="73.1,59.8 71.9,60.7 73.4,61.3 					"/>
				</g>
				<g>
					<polyline fill="none" stroke="#0000FF" stroke-miterlimit="10" points="73.5,61.6 72.2,62.4 73.7,63 					"/>
				</g>
				<g>
					<polyline fill="none" stroke="#0000FF" stroke-miterlimit="10" points="73.8,63.3 72.5,64.1 74,64.8 					"/>
				</g>
				<g>
					<polyline fill="none" stroke="#0000FF" stroke-miterlimit="10" points="74.1,65.1 72.7,65.9 74.3,66.5 					"/>
				</g>
				<g>
					<polyline fill="none" stroke="#0000FF" stroke-miterlimit="10" points="74.3,66.8 73,67.6 74.5,68.3 					"/>
				</g>
				<g>
					<polyline fill="none" stroke="#0000FF" stroke-miterlimit="10" points="74.5,68.6 73.2,69.4 74.7,70 					"/>
				</g>
				<g>
					<polyline fill="none" stroke="#0000FF" stroke-miterlimit="10" points="74.7,70.3 73.3,71.1 74.8,71.8 					"/>
				</g>
				<g>
					<path fill="none" stroke="#0000FF" stroke-miterlimit="10" d="M74.9,72.1l-1.4,0.7c0,0,0.4,0.2,0.7,0.4
						c0.4,0.2,0.7,0.4,0.7,0.4"/>
				</g>
				<g>
					<path fill="none" stroke="#0000FF" stroke-miterlimit="10" d="M75,73.9l-1.4,0.7c0,0,0.4,0.2,0.7,0.4c0.4,0.2,0.7,0.4,0.7,0.4"
						/>
				</g>
				<g>
					<path fill="none" stroke="#0000FF" stroke-miterlimit="10" d="M75.1,75.7c0,0-0.4,0.2-0.7,0.4c-0.4,0.2-0.7,0.3-0.7,0.3
						s0.4,0.2,0.7,0.4c0.4,0.2,0.7,0.4,0.7,0.4"/>
				</g>
				<g>
					<path fill="none" stroke="#0000FF" stroke-miterlimit="10" d="M75.1,77.4c0,0-0.4,0.2-0.7,0.3C74,77.9,73.7,78,73.7,78
						s0.4,0.2,0.7,0.4c0.4,0.2,0.7,0.4,0.7,0.4"/>
				</g>
				<g>
					<path fill="none" stroke="#0000FF" stroke-miterlimit="10" d="M75.1,79.3c0,0-0.4,0.2-0.7,0.3c-0.4,0.1-0.7,0.2-0.7,0.2
						s0.4,0.3,0.7,0.5c0.3,0.3,0.6,0.5,0.6,0.5"/>
				</g>
				<g>
					<path fill="none" stroke="#0000FF" stroke-miterlimit="10" d="M74.8,81.1c0,0-0.4,0.1-0.8,0.2s-0.8,0.2-0.8,0.2
						s0.3,0.3,0.6,0.6c0.3,0.3,0.6,0.6,0.6,0.6"/>
				</g>
				<g>
					<path fill="none" stroke="#0000FF" stroke-miterlimit="10" d="M74.4,82.9c0,0-0.4,0.1-0.8,0.1s-0.8,0.1-0.8,0.1
						s0.3,0.3,0.5,0.6c0.3,0.3,0.5,0.7,0.5,0.7"/>
				</g>
				<g>
					<path fill="none" stroke="#0000FF" stroke-miterlimit="10" d="M73.7,84.7c0,0-0.4,0-0.8,0s-0.8,0-0.8,0s0.2,0.4,0.5,0.7
						c0.2,0.4,0.4,0.7,0.4,0.7"/>
				</g>
				<g>
					<path fill="none" stroke="#0000FF" stroke-miterlimit="10" d="M72.9,86.3c0,0-0.4,0-0.8-0.1c-0.4,0-0.8-0.1-0.8-0.1
						s0.2,0.4,0.4,0.7c0.2,0.4,0.4,0.7,0.4,0.7"/>
				</g>
				<g>
					<path fill="none" stroke="#0000FF" stroke-miterlimit="10" d="M72,87.9c0,0-0.4-0.1-0.8-0.1c-0.4-0.1-0.8-0.1-0.8-0.1
						s0.2,0.4,0.4,0.8c0.2,0.4,0.3,0.8,0.3,0.8"/>
				</g>
				<g>
					<path fill="none" stroke="#0000FF" stroke-miterlimit="10" d="M71,89.4c0,0-0.4-0.1-0.8-0.2S69.4,89,69.4,89s0.2,0.4,0.3,0.8
						c0.1,0.4,0.3,0.8,0.3,0.8"/>
				</g>
				<g>
					<path fill="none" stroke="#0000FF" stroke-miterlimit="10" d="M69.8,90.8c0,0-0.4-0.1-0.8-0.2s-0.7-0.2-0.7-0.2
						s0.1,0.4,0.3,0.8c0.1,0.4,0.3,0.8,0.3,0.8"/>
				</g>
				<g>
					<path fill="none" stroke="#0000FF" stroke-miterlimit="10" d="M68.6,92.1c0,0-0.4-0.1-0.7-0.3c-0.4-0.1-0.7-0.3-0.7-0.3
						s0.1,0.4,0.2,0.8s0.2,0.8,0.2,0.8"/>
				</g>
				<g>
					<path fill="none" stroke="#0000FF" stroke-miterlimit="10" d="M67.4,93.4c0,0-0.4-0.2-0.7-0.3c-0.4-0.2-0.7-0.3-0.7-0.3
						s0.1,0.4,0.2,0.8s0.2,0.8,0.2,0.8"/>
				</g>
				<g>
					<path fill="none" stroke="#0000FF" stroke-miterlimit="10" d="M66,94.6c0,0-0.4-0.2-0.7-0.3C65,94.2,64.6,94,64.6,94
						s0.1,0.4,0.2,0.8s0.1,0.8,0.1,0.8"/>
				</g>
				<g>
					<path fill="none" stroke="#0000FF" stroke-miterlimit="10" d="M64.7,95.8c0,0-0.4-0.2-0.7-0.4c-0.4-0.2-0.7-0.4-0.7-0.4
						s0.1,0.4,0.1,0.8c0.1,0.4,0.1,0.8,0.1,0.8"/>
				</g>
				<g>
					<path fill="none" stroke="#0000FF" stroke-miterlimit="10" d="M63.3,96.9c0,0-0.4-0.2-0.7-0.4c-0.4-0.2-0.7-0.4-0.7-0.4
						s0,0.4,0.1,0.8c0,0.4,0.1,0.8,0.1,0.8"/>
				</g>
				<g>
					<path fill="none" stroke="#0000FF" stroke-miterlimit="10" d="M61.8,98c0,0-0.4-0.2-0.7-0.4c-0.3-0.2-0.7-0.4-0.7-0.4
						s0,0.4,0.1,0.8c0,0.4,0,0.8,0,0.8"/>
				</g>
				<g>
					<path fill="none" stroke="#0000FF" stroke-miterlimit="10" d="M60.3,98.9c0,0-0.3-0.2-0.7-0.4c-0.2-0.1-0.3-0.2-0.4-0.4
						c-0.1-0.1-0.1-0.2-0.1-0.2s0,0.1,0,0.2s0,0.2-0.1,0.2c-0.1,0.1-0.1,0.2-0.2,0.3c-0.2,0.4-0.4,0.7-0.4,0.7"/>
				</g>
				<g>
					<polyline fill="none" stroke="#0000FF" stroke-miterlimit="10" points="58.2,99.4 57.6,98 56.7,99.4 					"/>
				</g>
				<g>
					<polyline fill="none" stroke="#0000FF" stroke-miterlimit="10" points="56.4,99.4 55.8,98 54.9,99.4 					"/>
				</g>
				<g>
					<polyline fill="none" stroke="#0000FF" stroke-miterlimit="10" points="54.7,99.4 54,98 53.2,99.5 					"/>
				</g>
				<g>
					<polyline fill="none" stroke="#0000FF" stroke-miterlimit="10" points="52.9,99.5 52.3,98 51.4,99.5 					"/>
				</g>
				<g>
					<polyline fill="none" stroke="#0000FF" stroke-miterlimit="10" points="51.1,99.5 50.5,98 49.7,99.5 					"/>
				</g>
				<g>
					<polyline fill="none" stroke="#0000FF" stroke-miterlimit="10" points="49.4,99.5 48.8,98 47.9,99.5 					"/>
				</g>
				<g>
					<path fill="none" stroke="#0000FF" stroke-miterlimit="10" d="M47.6,99.5c0,0,0-0.1-0.1-0.2c0-0.1-0.1-0.2-0.1-0.2
						c0-0.1-0.1-0.2-0.1-0.3c-0.1-0.4-0.2-0.8-0.2-0.8s-0.3,0.3-0.6,0.6c-0.3,0.3-0.6,0.6-0.6,0.6"/>
				</g>
				<g>
					<path fill="none" stroke="#0000FF" stroke-miterlimit="10" d="M45.7,99c0,0-0.1-0.4-0.1-0.8s-0.1-0.8-0.1-0.8s-0.3,0.3-0.6,0.5
						c-0.3,0.3-0.7,0.5-0.7,0.5"/>
				</g>
				<g>
					<path fill="none" stroke="#0000FF" stroke-miterlimit="10" d="M43.9,98.4c0,0,0-0.4,0-0.8s0.1-0.8,0.1-0.8s-0.4,0.2-0.7,0.4
						c-0.4,0.2-0.7,0.4-0.7,0.4"/>
				</g>
				<g>
					<path fill="none" stroke="#0000FF" stroke-miterlimit="10" d="M42.3,97.4c0,0,0.1-0.4,0.1-0.8c0.1-0.4,0.2-0.8,0.2-0.8
						s-0.4,0.2-0.8,0.4c-0.4,0.2-0.8,0.3-0.8,0.3"/>
				</g>
				<g>
					<path fill="none" stroke="#0000FF" stroke-miterlimit="10" d="M40.8,96.4c0,0,0.1-0.4,0.2-0.8c0.1-0.4,0.2-0.7,0.2-0.7
						s-0.4,0.1-0.8,0.3c-0.4,0.1-0.8,0.2-0.8,0.2"/>
				</g>
				<g>
					<path fill="none" stroke="#0000FF" stroke-miterlimit="10" d="M39.4,95.2c0,0,0.1-0.4,0.3-0.7c0.2-0.4,0.3-0.7,0.3-0.7
						s-0.4,0.1-0.8,0.2c-0.4,0-0.8,0-0.8,0"/>
				</g>
				<g>
					<path fill="none" stroke="#0000FF" stroke-miterlimit="10" d="M38.2,93.8c0,0,0.2-0.4,0.4-0.7c0.2-0.4,0.4-0.7,0.4-0.7
						s-0.4,0.1-0.8,0.1c-0.4,0.1-0.8,0.1-0.8,0.1"/>
				</g>
				<g>
					<path fill="none" stroke="#0000FF" stroke-miterlimit="10" d="M37,92.4c0,0,0.2-0.4,0.4-0.7c0.2-0.4,0.4-0.7,0.4-0.7
						s-0.4,0-0.8,0.1c-0.4,0-0.8,0-0.8,0"/>
				</g>
				<g>
					<path fill="none" stroke="#0000FF" stroke-miterlimit="10" d="M36,90.9c0,0,0.2-0.3,0.4-0.7c0.2-0.3,0.4-0.6,0.4-0.6
						s-0.4,0-0.8,0c-0.4,0-0.8,0-0.8,0"/>
				</g>
				<g>
					<path fill="none" stroke="#0000FF" stroke-miterlimit="10" d="M35.1,89.3c0,0,0.2-0.3,0.5-0.6c0.3-0.3,0.5-0.6,0.5-0.6
						s-0.4,0-0.8,0S34.4,88,34.4,88"/>
				</g>
				<g>
					<path fill="none" stroke="#0000FF" stroke-miterlimit="10" d="M34.2,87.7c0,0,0.3-0.3,0.5-0.6s0.5-0.6,0.5-0.6s-0.4,0-0.8-0.1
						s-0.8-0.1-0.8-0.1"/>
				</g>
				<g>
					<path fill="none" stroke="#0000FF" stroke-miterlimit="10" d="M33.4,86.1c0,0,0.3-0.3,0.5-0.6c0.3-0.3,0.5-0.6,0.5-0.6
						s-0.4-0.1-0.8-0.1c-0.4-0.1-0.8-0.1-0.8-0.1"/>
				</g>
				<g>
					<path fill="none" stroke="#0000FF" stroke-miterlimit="10" d="M32.7,84.4c0,0,0.3-0.3,0.5-0.6c0.3-0.3,0.5-0.5,0.5-0.5
						s-0.4-0.1-0.8-0.1c-0.4-0.1-0.8-0.2-0.8-0.2"/>
				</g>
				<g>
					<path fill="none" stroke="#0000FF" stroke-miterlimit="10" d="M32.1,82.8c0,0,0.3-0.3,0.6-0.5c0.3-0.3,0.6-0.5,0.6-0.5
						s-0.4-0.1-0.8-0.2c-0.4-0.1-0.8-0.2-0.8-0.2"/>
				</g>
				<g>
					<path fill="none" stroke="#0000FF" stroke-miterlimit="10" d="M31.6,81.1c0,0,0.3-0.3,0.6-0.5c0.3-0.3,0.6-0.5,0.6-0.5L32.3,80
						L32,79.9c-0.1,0-0.2-0.1,0-0.2c-0.1,0-0.3-0.1-0.4-0.1l-0.4-0.1"/>
				</g>
				<g>
					<path fill="none" stroke="#0000FF" stroke-miterlimit="10" d="M31.1,79.1c0,0,0.4-0.2,0.7-0.4c0.4-0.2,0.7-0.4,0.7-0.4
						s-0.4-0.2-0.7-0.4c-0.4-0.2-0.7-0.4-0.7-0.4"/>
				</g>
				<g>
					<path fill="none" stroke="#0000FF" stroke-miterlimit="10" d="M31.1,77.4c0,0,0.4-0.2,0.7-0.3c0.4-0.2,0.7-0.3,0.7-0.3
						s-0.4-0.2-0.7-0.4c-0.4-0.2-0.7-0.4-0.7-0.4"/>
				</g>
				<g>
					<path fill="none" stroke="#0000FF" stroke-miterlimit="10" d="M31.1,75.6c0,0,0.4-0.2,0.7-0.3c0.4-0.2,0.7-0.3,0.7-0.3
						s-0.4-0.2-0.7-0.4S31.1,74,31.1,74"/>
				</g>
				<g>
					<path fill="none" stroke="#0000FF" stroke-miterlimit="10" d="M31.1,73.8l1.5-0.6c0,0-0.4-0.2-0.7-0.4
						c-0.4-0.2-0.7-0.5-0.7-0.5"/>
				</g>
				<g>
					<path fill="none" stroke="#0000FF" stroke-miterlimit="10" d="M31.2,72l1.5-0.5c0,0-0.4-0.2-0.7-0.5c-0.4-0.3-0.7-0.5-0.7-0.5"
						/>
				</g>
				<g>
					<path fill="none" stroke="#0000FF" stroke-miterlimit="10" d="M31.3,70.2l1.5-0.5c0,0-0.4-0.3-0.7-0.5
						c-0.4-0.3-0.7-0.5-0.7-0.5"/>
				</g>
				<g>
					<polyline fill="none" stroke="#0000FF" stroke-miterlimit="10" points="31.5,68.5 33,68 31.6,67 					"/>
				</g>
				<g>
					<polyline fill="none" stroke="#0000FF" stroke-miterlimit="10" points="31.7,66.7 33.2,66.3 31.9,65.2 					"/>
				</g>
				<g>
					<polyline fill="none" stroke="#0000FF" stroke-miterlimit="10" points="31.9,64.9 33.4,64.5 32.1,63.4 					"/>
				</g>
				<g>
					<polyline fill="none" stroke="#0000FF" stroke-miterlimit="10" points="32.2,63.2 33.7,62.8 32.4,61.7 					"/>
				</g>
				<g>
					<polyline fill="none" stroke="#0000FF" stroke-miterlimit="10" points="32.5,61.4 34,61.1 32.8,60 					"/>
				</g>
				<g>
					<polyline fill="none" stroke="#0000FF" stroke-miterlimit="10" points="32.8,59.7 34.4,59.3 33.1,58.2 					"/>
				</g>
				<g>
					<polyline fill="none" stroke="#0000FF" stroke-miterlimit="10" points="33.2,57.9 34.7,57.6 33.5,56.5 					"/>
				</g>
				<g>
					<path fill="none" stroke="#0000FF" stroke-miterlimit="10" d="M33.6,56.2l1.6-0.3c0,0-0.3-0.3-0.6-0.6S34,54.7,34,54.7"/>
				</g>
				<g>
					<path fill="none" stroke="#0000FF" stroke-miterlimit="10" d="M34,54.5l1.6-0.3c0,0-0.3-0.3-0.6-0.6S34.4,53,34.4,53"/>
				</g>
				<g>
					<path fill="none" stroke="#0000FF" stroke-miterlimit="10" d="M34.5,52.8c0,0,0.4-0.1,0.8-0.1c0.4,0,0.8-0.1,0.8-0.1
						s-0.3-0.3-0.6-0.6S35,51.4,35,51.4"/>
				</g>
				<g>
					<path fill="none" stroke="#0000FF" stroke-miterlimit="10" d="M35,51c0,0,0.4,0,0.8-0.1c0.4,0,0.8-0.1,0.8-0.1
						s-0.3-0.3-0.5-0.6c-0.3-0.3-0.5-0.7-0.5-0.7"/>
				</g>
			</g>
		</g>
	</g>
	<g>
		<g>
			<g>
				<g>
					<path fill="none" stroke="#0000FF" stroke-miterlimit="10" d="M62.3,33.1c0.1,0.1,0.2,0.2,0.2,0.2c0.1,0.3,0.2,0.5,0.2,0.7
						s0,0.4,0,0.7c0,0,0.3-0.3,0.7-0.4c0.4-0.2,0.7-0.4,0.7-0.4"/>
				</g>
				<g>
					<path fill="none" stroke="#0000FF" stroke-miterlimit="10" d="M64.3,33.9c0,0-0.1,0.4-0.1,0.8c-0.1,0.4-0.2,0.8-0.2,0.8
						s0.4-0.2,0.7-0.4c0.4-0.2,0.8-0.3,0.8-0.3"/>
				</g>
				<g>
					<path fill="none" stroke="#0000FF" stroke-miterlimit="10" d="M65.8,35c0,0-0.1,0.4-0.2,0.8c-0.1,0.4-0.3,0.7-0.3,0.7
						s0.4-0.1,0.8-0.3c0.4-0.1,0.8-0.2,0.8-0.2"/>
				</g>
				<g>
					<path fill="none" stroke="#0000FF" stroke-miterlimit="10" d="M67.1,36.2c0,0-0.2,0.4-0.3,0.7c-0.2,0.4-0.4,0.7-0.4,0.7
						s0.1,0,0.3,0c0.2,0,0.4-0.1,0.5-0.1c0.4-0.1,0.8-0.1,0.8-0.1"/>
				</g>
				<g>
					<path fill="none" stroke="#0000FF" stroke-miterlimit="10" d="M68.2,37.7c0,0-0.2,0.4-0.4,0.7c-0.2,0.3-0.4,0.6-0.4,0.6
						s0.4,0,0.8,0s0.8,0,0.8,0"/>
				</g>
				<g>
					<path fill="none" stroke="#0000FF" stroke-miterlimit="10" d="M69.1,39.3c0,0-0.3,0.3-0.5,0.6c-0.3,0.3-0.6,0.5-0.6,0.5
						s0.4,0.1,0.8,0.2s0.8,0.2,0.8,0.2"/>
				</g>
				<g>
					<path fill="none" stroke="#0000FF" stroke-miterlimit="10" d="M69.7,41.1c0,0-0.3,0.3-0.6,0.5c-0.3,0.2-0.6,0.4-0.6,0.4
						s0.1,0,0.3,0.1c0.2,0.1,0.4,0.1,0.5,0.2c0.4,0.2,0.7,0.4,0.7,0.4"/>
				</g>
				<g>
					<path fill="none" stroke="#0000FF" stroke-miterlimit="10" d="M70,42.9c0,0-0.4,0.2-0.7,0.4c-0.4,0.2-0.7,0.3-0.7,0.3
						s0.4,0.2,0.7,0.4c0.4,0.2,0.7,0.5,0.7,0.5"/>
				</g>
				<g>
					<path fill="none" stroke="#0000FF" stroke-miterlimit="10" d="M69.9,44.8c0,0-0.4,0.1-0.8,0.2c-0.4,0.1-0.8,0.2-0.8,0.2
						s0.3,0.3,0.6,0.5c0.3,0.3,0.6,0.6,0.6,0.6"/>
				</g>
				<g>
					<path fill="none" stroke="#0000FF" stroke-miterlimit="10" d="M69.6,46.5c0,0-0.4,0.1-0.8,0.1c-0.2,0-0.4,0-0.5,0.1
						c-0.2,0-0.3,0-0.3,0s0.3,0.3,0.5,0.6c0.3,0.3,0.5,0.6,0.5,0.6"/>
				</g>
				<g>
					<path fill="none" stroke="#0000FF" stroke-miterlimit="10" d="M69,48.3c0,0-0.4,0-0.8,0s-0.8,0-0.8,0s0.3,0.3,0.5,0.7
						c0.3,0.4,0.5,0.7,0.5,0.7"/>
				</g>
			</g>
		</g>
	</g>
	<g>
		<g>
			<path fill="none" stroke="#0000FF" stroke-miterlimit="10" d="M52.7,34.7"/>
		</g>
	</g>
	<g>
		<g>
			<g>
				<g>
					<path fill="none" stroke="#0000FF" stroke-miterlimit="10" d="M38,49.2l1.1-1.1c0,0-0.1,0-0.3,0S38.4,48,38.2,48
						c-0.4-0.1-0.8-0.2-0.8-0.2"/>
				</g>
				<g>
					<path fill="none" stroke="#0000FF" stroke-miterlimit="10" d="M37.4,47.4c0,0,0.3-0.3,0.6-0.5c0.3-0.3,0.6-0.5,0.6-0.5
						s-0.4-0.1-0.8-0.3C37.5,46,37,45.8,37,45.8"/>
				</g>
				<g>
					<path fill="none" stroke="#0000FF" stroke-miterlimit="10" d="M37,45.5c0,0,0.3-0.2,0.7-0.4c0.3-0.2,0.7-0.4,0.7-0.4
						s-0.4-0.2-0.8-0.4c-0.2-0.1-0.4-0.2-0.5-0.3s-0.2-0.1-0.2-0.1"/>
				</g>
				<g>
					<path fill="none" stroke="#0000FF" stroke-miterlimit="10" d="M36.8,43.6c0,0,0.4-0.2,0.7-0.4s0.7-0.3,0.7-0.3
						s-0.4-0.2-0.7-0.4c-0.2-0.1-0.4-0.3-0.5-0.4c-0.1-0.1-0.2-0.2-0.2-0.2"/>
				</g>
				<g>
					<path fill="none" stroke="#0000FF" stroke-miterlimit="10" d="M36.9,41.6c0,0,0.4-0.2,0.7-0.3c0.4-0.1,0.8-0.2,0.8-0.2
						s-0.3-0.3-0.6-0.5c-0.3-0.3-0.6-0.6-0.6-0.6"/>
				</g>
				<g>
					<path fill="none" stroke="#0000FF" stroke-miterlimit="10" d="M37.2,39.7c0,0,0.4-0.1,0.8-0.1c0.4-0.1,0.8-0.1,0.8-0.1
						s-0.3-0.3-0.5-0.7c-0.3-0.4-0.5-0.7-0.5-0.7"/>
				</g>
				<g>
					<path fill="none" stroke="#0000FF" stroke-miterlimit="10" d="M37.9,37.8c0,0,0.4,0,0.8,0c0.4,0,0.8,0.1,0.8,0.1
						s-0.1-0.1-0.1-0.2c-0.1-0.1-0.2-0.3-0.3-0.5c-0.2-0.4-0.3-0.8-0.3-0.8"/>
				</g>
				<g>
					<path fill="none" stroke="#0000FF" stroke-miterlimit="10" d="M39.1,36.1c0,0,0.4,0.1,0.8,0.2c0.4,0.1,0.7,0.3,0.7,0.3
						s0-0.1-0.1-0.3c0-0.2-0.1-0.4-0.1-0.6c-0.1-0.4-0.1-0.9-0.1-0.9"/>
				</g>
				<g>
					<path fill="none" stroke="#0000FF" stroke-miterlimit="10" d="M40.6,34.7c0,0,0.4,0.2,0.7,0.4c0.2,0.1,0.3,0.2,0.4,0.3
						c0.1,0.1,0.2,0.1,0.2,0.1s0-0.4,0-0.8c0-0.2,0-0.4,0-0.6c0-0.2,0-0.3,0-0.3"/>
				</g>
				<g>
					<path fill="none" stroke="#0000FF" stroke-miterlimit="10" d="M42.3,33.7c0,0,0.3,0.3,0.6,0.5c0.3,0.3,0.6,0.5,0.6,0.5
						s0.1-0.4,0.2-0.8c0.1-0.2,0.1-0.4,0.2-0.6c0-0.2,0.1-0.3,0.1-0.3"/>
				</g>
			</g>
		</g>
	</g>
	<g>
		<g>
			<path fill="none" stroke="#0000FF" stroke-miterlimit="10" d="M35.6,46.6"/>
		</g>
	</g>
</g>
<g id="leaf">
	<g>
		<path fill="#A8CF38" stroke="#010101" stroke-width="0.5" stroke-linecap="round" stroke-linejoin="round" d="M50.9,25.2
			c0,0-2.7-4.8-2.4-7.1l0.7,0.2c0,0-0.6-0.7,0.1-3.6l0.5,0.5c0,0-0.5-1.4,0.4-3.3l0.5,0.5c0,0,0.3-1.3,0.8-2.6l0.6,0.4
			c0,0-0.1-1.6,0.4-2.7L53,8c0,0,0.2-2,1.3-2.4l0.2,0.5c0,0,0.7-1.2,1.9-1.9L57,4.6c0,0,0-1.2,1.4-1.8l0.3,0.4c0,0,0.2-1.7,1.5-1.9
			l0.4,0.8c0,0,2.3-2.1,2.8-2.2l0.8,0.4c0.1,0.4,0,3.5,0,3.5L65,3.7C65.5,4.9,64.3,6,64.3,6h0.5c0.5,1.4-0.5,2.2-0.5,2.2l0.8,0.1
			c0.2,1.3-0.4,2.6-0.4,2.6l0.5-0.2c0.4,1.1-1.1,2.5-1.1,2.5l0.7,0.2c-0.6,1.1-1.9,2-1.9,2l0.7,0.2c-0.7,1.2-1.6,2.2-1.6,2.2
			l0.7,0.2c-0.9,1.9-2.4,2.4-2.4,2.4l0.7,0.2c-1.9,2.3-2.8,2.3-2.8,2.3l0.6,0.4c-1.6,1.7-7.1,2.5-7.1,2.5L50.9,25.2z"/>
		<path fill="#A8CF38" stroke="#010101" stroke-width="0.5" stroke-linecap="round" stroke-linejoin="round" d="M51.4,25.5
			c0,0-2.7-4.8-2.4-7.1l0.7,0.2c0,0-0.6-0.7,0.1-3.6l0.5,0.5c0,0-0.5-1.4,0.4-3.3l0.5,0.5c0,0,0.3-1.3,0.8-2.6l0.6,0.4
			c0,0-0.1-1.6,0.4-2.7l0.5,0.5c0,0,0.2-2,1.3-2.4L55,6.4c0,0,0.7-1.2,1.9-1.9L57.4,5c0,0,0-1.2,1.4-1.8l0.3,0.4
			c0,0,0.2-1.7,1.5-1.9L61,2.4c0,0,2.3-2.1,2.8-2.2l0.8,0.4c0.1,0.4,0,3.5,0,3.5l0.9-0.2c0.6,1.2-0.6,2.3-0.6,2.3h0.5
			c0.5,1.4-0.5,2.2-0.5,2.2l0.8,0.1c0.2,1.3-0.4,2.6-0.4,2.6l0.5-0.2c0.4,1.1-1.1,2.5-1.1,2.5l0.7,0.2c-0.6,1.1-1.9,2-1.9,2l0.7,0.2
			C63.5,17,62.6,18,62.6,18l0.7,0.2c-0.9,1.9-2.4,2.4-2.4,2.4l0.7,0.2c-1.9,2.3-2.8,2.3-2.8,2.3l0.6,0.4c-1.6,1.7-7.1,2.5-7.1,2.5
			L51.4,25.5z"/>
		
			<line fill="none" stroke="#010101" stroke-width="0.5" stroke-linecap="round" stroke-linejoin="round" x1="64" y1="0.6" x2="51.7" y2="25.6"/>
		<g>
			
				<line fill="none" stroke="#010101" stroke-width="0.5" stroke-linecap="round" stroke-linejoin="round" x1="61.1" y1="2" x2="61.5" y2="4.1"/>
			
				<line fill="none" stroke="#010101" stroke-width="0.5" stroke-linecap="round" stroke-linejoin="round" x1="59.2" y1="3.5" x2="60.4" y2="6"/>
			
				<line fill="none" stroke="#010101" stroke-width="0.5" stroke-linecap="round" stroke-linejoin="round" x1="57.6" y1="4.7" x2="59.2" y2="7.8"/>
			
				<line fill="none" stroke="#010101" stroke-width="0.5" stroke-linecap="round" stroke-linejoin="round" x1="55.1" y1="6.1" x2="57.7" y2="9.8"/>
			
				<line fill="none" stroke="#010101" stroke-width="0.5" stroke-linecap="round" stroke-linejoin="round" x1="53.8" y1="7.9" x2="57.1" y2="11.9"/>
			
				<line fill="none" stroke="#010101" stroke-width="0.5" stroke-linecap="round" stroke-linejoin="round" x1="52.6" y1="10.3" x2="55.9" y2="13.9"/>
			
				<line fill="none" stroke="#010101" stroke-width="0.5" stroke-linecap="round" stroke-linejoin="round" x1="51.3" y1="12.3" x2="54.1" y2="16.2"/>
			
				<line fill="none" stroke="#010101" stroke-width="0.5" stroke-linecap="round" stroke-linejoin="round" x1="50.3" y1="15.3" x2="53.6" y2="19.5"/>
			
				<line fill="none" stroke="#010101" stroke-width="0.5" stroke-linecap="round" stroke-linejoin="round" x1="49.6" y1="18.4" x2="52.4" y2="22.9"/>
		</g>
		<g>
			
				<line fill="none" stroke="#010101" stroke-width="0.5" stroke-linecap="round" stroke-linejoin="round" x1="65" y1="4" x2="63.1" y2="4.8"/>
			
				<line fill="none" stroke="#010101" stroke-width="0.5" stroke-linecap="round" stroke-linejoin="round" x1="64.9" y1="6.3" x2="62.2" y2="6.9"/>
			
				<line fill="none" stroke="#010101" stroke-width="0.5" stroke-linecap="round" stroke-linejoin="round" x1="64.9" y1="8.4" x2="61.5" y2="9"/>
			
				<line fill="none" stroke="#010101" stroke-width="0.5" stroke-linecap="round" stroke-linejoin="round" x1="65.4" y1="11.2" x2="60.8" y2="11.3"/>
			
				<line fill="none" stroke="#010101" stroke-width="0.5" stroke-linecap="round" stroke-linejoin="round" x1="64.7" y1="13.3" x2="59.5" y2="13.1"/>
			
				<line fill="none" stroke="#010101" stroke-width="0.5" stroke-linecap="round" stroke-linejoin="round" x1="63.6" y1="15.7" x2="58.7" y2="15.3"/>
			
				<line fill="none" stroke="#010101" stroke-width="0.5" stroke-linecap="round" stroke-linejoin="round" x1="62.7" y1="18" x2="57.9" y2="18.1"/>
			
				<line fill="none" stroke="#010101" stroke-width="0.5" stroke-linecap="round" stroke-linejoin="round" x1="61" y1="20.6" x2="55.6" y2="20.5"/>
			
				<line fill="none" stroke="#010101" stroke-width="0.5" stroke-linecap="round" stroke-linejoin="round" x1="58.9" y1="23" x2="53.7" y2="23.5"/>
		</g>
		<path fill="#FFFFFF" stroke="#010101" stroke-width="0.5" stroke-linecap="round" stroke-linejoin="round" d="M66,8.7
			c0,0-1.8,0.5-1.3,1.4c0,0-2.2,0.3-1.2,2.1c0,0,0.5,1.2,1.5,0.7c0,0-0.6,1,0.3,0.8s0.7-0.2,0.7-0.2"/>
		<path fill="#FFFFFF" stroke="#010101" stroke-width="0.5" stroke-miterlimit="10" d="M54.2,11.1c-0.1,0.4-0.3,0.8-0.5,1.1
			c0.5,0.4,1.1-0.4,1.3-0.8c-0.3,0.6-0.1,2,0.8,1.1c-0.2,0.6,0.2,0.7,0.7,1c-0.2,0.5-0.7,0.7-1,1.1c-0.2,0.3-0.3,0.6-0.4,0.9
			c-0.3-0.2-0.4-0.7-0.7-0.9c-0.2,0.2-0.8,1-1.1,0.9c-0.3,0-0.6-0.7-0.9-0.9c0.1-0.3,0.3-0.6,0.4-1c-0.1-0.1-0.1-0.1-0.2-0.1
			c0.1-0.4,0.9-2.6,1.3-2"/>
		<path fill="#FFFFFF" stroke="#010101" stroke-width="0.5" stroke-miterlimit="10" d="M60.4,6.3c0.5-0.5,0.6-1.1,1.3-1.5
			c0.1,0.2-0.1,0.9,0.1,1c0.4,0.4,1.1-0.5,1.4-0.7c0,0.2-0.3,0.7-0.2,0.9c0.2,0.4,0.7,0.1,1.1,0.1c-0.2,0.6-0.8,1.1-1.1,1.7
			c-0.2,0.4-0.3,0.8-0.4,1.2c-0.7-0.3-1.2-0.8-1.4-1.5c-0.2,0.4-1,1.9-1.1,0.7C60,7.5,60.6,6.7,60.7,6"/>
		<path fill="#FFFFFF" stroke="#010101" stroke-width="0.5" stroke-miterlimit="10" d="M59.5,16.7c0,0.4-0.6,1-0.6,1.4
			c0,0.6,0.7,1,1.3,1.1c-0.6,0.2-1.3,0.6-1.5,1.2c0.3,0.3,0.7,0.4,1,0.6c-0.3,0.1-1.7,0.9-0.9,1.2c-0.2,0.5-1.7-0.3-2.1-0.6
			c-0.8-0.7-0.5-1.5-0.2-2.4c0.5-1.2,1.6-2.5,3.1-2.2"/>
	</g>
</g>
<g id="water">
	<g>
		<path fill="#55C2E2" stroke="#070707" stroke-width="0.5" stroke-miterlimit="10" d="M75.2,17.7c0,0-11.5,13.3-1.3,16.3
			c0,0,8.3-0.2,4.7-9.9C78.5,24.2,75.3,20.5,75.2,17.7z"/>
		<path fill="none" stroke="#3A97AD" stroke-miterlimit="10" d="M74.5,33c1.7,0.8,4.3-3.3,4.1-4.8"/>
		
			<ellipse transform="matrix(0.6127 0.7903 -0.7903 0.6127 52.6582 -45.5538)" opacity="0.8" fill="#FFFFFF" enable-background="new    " cx="72.8" cy="31" rx="1.9" ry="1.5"/>
		<path opacity="0.8" fill="#FFFFFF" enable-background="new    " d="M71.8,23.5c0,0,1.5-3.7,3.3-4.7"/>
	</g>
	<g>
		<path fill="#55C2E2" stroke="#070707" stroke-width="0.5" stroke-miterlimit="10" d="M19.6,38.8c0,0-11.5,13.3-1.3,16.3
			c0,0,8.3-0.2,4.7-9.9C22.9,45.3,19.8,41.6,19.6,38.8z"/>
		<path fill="none" stroke="#3A97AD" stroke-miterlimit="10" d="M18.9,54.1c1.7,0.8,4.3-3.3,4.1-4.8"/>
		
			<ellipse transform="matrix(0.6127 0.7903 -0.7903 0.6127 47.7168 6.4629)" opacity="0.8" fill="#FFFFFF" enable-background="new    " cx="17.3" cy="51.9" rx="1.9" ry="1.5"/>
		<path opacity="0.8" fill="#FFFFFF" enable-background="new    " d="M16.2,44.6c0,0,1.5-3.7,3.3-4.7"/>
	</g>
	<g>
		<path fill="#55C2E2" stroke="#070707" stroke-width="0.5" stroke-miterlimit="10" d="M83.4,43.6c0,0-6.9,8-0.8,9.8
			c0,0,5-0.1,2.8-5.9C85.3,47.5,83.5,45.3,83.4,43.6z"/>
		<path fill="none" stroke="#3A97AD" stroke-miterlimit="10" d="M83,52.8c1,0.4,2.6-2,2.5-2.9"/>
		
			<ellipse transform="matrix(0.6126 0.7904 -0.7904 0.6126 73.1242 -44.3595)" opacity="0.8" fill="#FFFFFF" enable-background="new    " cx="81.8" cy="52.4" rx="0.7" ry="0.5"/>
		<path opacity="0.8" fill="#FFFFFF" enable-background="new    " d="M81.3,47.1c0,0,0.9-2.2,2-2.8"/>
	</g>
	<g>
		<path fill="#55C2E2" stroke="#070707" stroke-width="0.5" stroke-miterlimit="10" d="M82.7,84.4c0,0-6.9,8-0.8,9.8
			c0,0,5-0.1,2.8-5.9C84.7,88.3,82.8,86.1,82.7,84.4z"/>
		<path fill="none" stroke="#3A97AD" stroke-miterlimit="10" d="M82.3,93.6c1,0.4,2.6-2,2.5-2.9"/>
		
			<ellipse transform="matrix(0.6126 0.7904 -0.7904 0.6126 105.1657 -28.0496)" opacity="0.8" fill="#FFFFFF" enable-background="new    " cx="81.2" cy="93.3" rx="0.7" ry="0.5"/>
		<path opacity="0.8" fill="#FFFFFF" enable-background="new    " d="M80.7,87.9c0,0,0.9-2.2,2-2.8"/>
	</g>
	<g>
		<path fill="#55C2E2" stroke="#070707" stroke-width="0.5" stroke-miterlimit="10" d="M25.9,74.2c0,0-4.3,5-0.5,6.1
			c0,0,3.1-0.1,1.8-3.7C27.2,76.7,26,75.2,25.9,74.2z"/>
		<path fill="none" stroke="#3A97AD" stroke-miterlimit="10" d="M25.7,79.9c0.6,0.3,1.6-1.2,1.5-1.8"/>
		<ellipse opacity="0.8" fill="#FFFFFF" enable-background="new    " cx="24.9" cy="79.1" rx="0.3" ry="0.3"/>
		<path opacity="0.8" fill="#FFFFFF" enable-background="new    " d="M24.7,76.4c0,0,0.6-1.4,1.2-1.8"/>
	</g>
	<g>
		<path fill="#55C2E2" stroke="#070707" stroke-width="0.5" stroke-miterlimit="10" d="M32.5,31.4c0,0-4.3,5-0.5,6.1
			c0,0,3.1-0.1,1.8-3.7C33.7,33.9,32.5,32.5,32.5,31.4z"/>
		<path fill="none" stroke="#3A97AD" stroke-miterlimit="10" d="M32.2,37.2c0.6,0.3,1.6-1.2,1.5-1.8"/>
		<ellipse opacity="0.8" fill="#FFFFFF" enable-background="new    " cx="31.4" cy="36.4" rx="0.3" ry="0.3"/>
		<path opacity="0.8" fill="#FFFFFF" enable-background="new    " d="M31.2,33.6c0,0,0.6-1.4,1.2-1.8"/>
	</g>
</g>
</svg>
