<?xml version="1.0" encoding="utf-8"?>
<!-- Generator: Adobe Illustrator 17.1.0, SVG Export Plug-In . SVG Version: 6.00 Build 0)  -->
<!DOCTYPE svg PUBLIC "-//W3C//DTD SVG 1.1//EN" "http://www.w3.org/Graphics/SVG/1.1/DTD/svg11.dtd">
<svg version="1.1" xmlns="http://www.w3.org/2000/svg" xmlns:xlink="http://www.w3.org/1999/xlink" x="0px" y="0px"
	 viewBox="0 0 201.9 388.3" enable-background="new 0 0 201.9 388.3" xml:space="preserve">
<pattern  x="-213.9" y="-178.5" width="8.7" height="8.7" patternUnits="userSpaceOnUse" id="New_Pattern_Swatch_12" viewBox="0 -8.7 8.7 8.7" overflow="visible">
	<g>
		<polygon fill="none" points="8.7,0 0,0 0,-8.7 8.7,-8.7 		"/>
		<g>
			<path fill="#010101" d="M5-4.5c0,0.4-0.3,0.7-0.7,0.7C4-3.8,3.7-4.1,3.7-4.5c0-0.4,0.3-0.7,0.7-0.7C4.7-5.2,5-4.9,5-4.5z"/>
		</g>
	</g>
</pattern>
<g id="legs">
	<path fill="#FFFFFF" stroke="#010101" stroke-miterlimit="10" d="M148,267.4c0,0,12.5-6.1,16.2-3.7c0,0-6,18-13.7,24.3
		C150.5,288,147.7,278.5,148,267.4z"/>
	<path fill="#FFFFFF" stroke="#010101" stroke-miterlimit="10" d="M164.2,263.7c0,0,3.5,68.3,5.1,71c1.6,2.7,22.2,23.3,22.6,28
		c0,0-7.3-7-10.3-7L166.2,337c0,0-2.3-1.3-2,2l-1.9-70.4L164.2,263.7z"/>
	<path fill="#FFFFFF" stroke="#010101" stroke-miterlimit="10" d="M53.6,267.9c0,0-12.5-6.1-16.2-3.7c0,0,6,18,13.7,24.3
		C51.1,288.5,53.9,279,53.6,267.9z"/>
	<path fill="#FFFFFF" stroke="#010101" stroke-miterlimit="10" d="M37.4,264.2c0,0-3.5,68.3-5.1,71c-1.6,2.7-22.2,23.3-22.6,28
		c0,0,7.3-7,10.3-7l15.3-18.7c0,0,2.3-1.3,2,2l1.9-70.4L37.4,264.2z"/>
	<path fill="#FFFFFF" stroke="#010101" stroke-miterlimit="10" d="M143,217.6c0,0,11.9-12.6,17.9-11.6c0,0-1.2,13-13.7,22
		c0,0,0-4.4-4.8-11.4"/>
	<path fill="#FFFFFF" stroke="#010101" stroke-miterlimit="10" d="M196.2,288.5c-0.2,3.8-15-26.1-25.9-32.2c-0.9-0.5-1.8-0.9-2.7-1
		l4.3-2.7c0,0-9-47-11.7-46.7c0,0,4-1.4,7,11c3,12.4,10.1,40,10.1,40s24.6,22,24.6,28.7c0,0-1.7-5.7-8-6
		C193.9,279.7,196.4,285.9,196.2,288.5z"/>
	<path fill="#FFFFFF" stroke="#010101" stroke-miterlimit="10" d="M58.9,216.1c0,0-11.9-12.6-17.9-11.6c0,0,1.2,13,13.8,22
		c0,0,0-4.4,4.8-11.4"/>
	<path fill="#FFFFFF" stroke="#010101" stroke-miterlimit="10" d="M5.7,287c0.2,3.8,15-26.1,25.9-32.2c0.9-0.5,1.9-0.9,2.7-1
		l-4.3-2.7c0,0,9-47,11.7-46.7c0,0-4-1.4-7,11c-3,12.4-10.1,40-10.1,40S0,277.5,0,284.2c0,0,1.7-5.7,8-6C8,278.2,5.5,284.4,5.7,287z
		"/>
	<path fill="#FFFFFF" stroke="#010101" stroke-miterlimit="10" d="M66.7,203.4"/>
	<path fill="#FFFFFF" stroke="#010101" stroke-miterlimit="10" d="M149.5,195.2c0,0,8-9.8,7.9-14.5c0,0-4.1-2-7.9,4.5V195.2z"/>
	<path fill="#FFFFFF" stroke="#010101" stroke-miterlimit="10" d="M157.4,180.4l12.3-49.2l14.8-27c0,0-1.3,3-5.3,5L167.4,130
		l-13.1,50.7L157.4,180.4z"/>
	<path fill="#FFFFFF" stroke="#010101" stroke-miterlimit="10" d="M53.3,195.2c0,0-8-9.8-7.9-14.5c0,0,4.1-2,7.9,4.5V195.2z"/>
	<path fill="#FFFFFF" stroke="#010101" stroke-miterlimit="10" d="M45.4,180.4l-12.3-49.2l-14.8-27c0,0,1.3,3,5.3,5L35.4,130
		l13.1,50.7L45.4,180.4z"/>
</g>
<g id="basebody">
	<path fill="#FFFFFF" stroke="#000000" stroke-miterlimit="10" d="M104.9,350.1c59.3-14.7,43.3-91.3,45.3-132.7
		c2-41.3-7.3-50.7-7.3-50.7c-27-7.3-41.3,20-41.3,20h-1.3c0,0-14.3-27.3-41.3-20c0,0-9.3,9.3-7.3,50.7c2,41.3-14,118,45.3,132.7
		H104.9z"/>
	<path fill="#FFFFFF" stroke="#010101" stroke-miterlimit="10" d="M142,166.8c0,0,9-66.4-39.8-65.6h-2.6
		c-48.8-0.8-39.8,65.6-39.8,65.6s23.5-9.3,40.1,20.3h1.3C101.3,187.1,113.6,160.6,142,166.8z"/>
	<line fill="none" stroke="#010101" stroke-width="2" stroke-miterlimit="10" x1="100.6" y1="187.1" x2="100.6" y2="351.5"/>
	<path fill="#FFFFFF" stroke="#010101" stroke-miterlimit="10" d="M68.8,116.1c0,0,20.4,22.1,64.2,0"/>
</g>
<g id="bodycolor">
	<path fill="#D0DD28" stroke="#010101" stroke-miterlimit="10" d="M105,350.3c59.3-14.7,43.3-91.3,45.3-132.7
		c2-41.3-7.3-50.7-7.3-50.7c-27-7.3-41.3,20-41.3,20h-1.3c0,0-14.3-27.3-41.3-20c0,0-9.3,9.3-7.3,50.7c2,41.3-14,118,45.3,132.7H105
		z"/>
	<path fill="#6CBE45" stroke="#010101" stroke-miterlimit="10" d="M142.1,167c0,0,9-66.4-39.8-65.6h-2.6C51,100.6,59.9,167,59.9,167
		s23.5-9.3,40.1,20.3h1.3C101.4,187.3,113.7,160.8,142.1,167z"/>
	<line fill="none" stroke="#010101" stroke-width="2" stroke-miterlimit="10" x1="100.6" y1="187.3" x2="100.6" y2="351.7"/>
	<path fill="none" stroke="#010101" stroke-miterlimit="10" d="M68.9,116.2c0,0,20.4,22.1,64.2,0"/>
</g>
<g id="eyes">
	<path fill="#FFFFFF" stroke="#010101" stroke-miterlimit="10" d="M128.3,112.5c0,0-6.9-8.6-12.5-4.7c0,0,1.3,10.8,13,5.9
		L128.3,112.5z"/>
	<path fill="#FFFFFF" stroke="#010101" stroke-miterlimit="10" d="M73.7,112.5c0,0,6.9-8.6,12.5-4.7c0,0-1.3,10.8-13,5.9L73.7,112.5
		z"/>
</g>
<g id="antennae">
	<path fill="none" stroke="#010101" stroke-width="0.5" stroke-miterlimit="10" d="M107.9,101.3c0,0,3.7-10.6,13-11.9
		c9.3-1.3,15.6-8.6,17.2-12.2"/>
	<path fill="none" stroke="#010101" stroke-width="0.5" stroke-miterlimit="10" d="M94.1,101.3c0,0-3.7-10.6-13-11.9
		c-9.3-1.3-15.6-8.6-17.2-12.2"/>
</g>
<g id="markings">
	<path fill="#010101" d="M49.6,222.7c1.8-4.3,7.7-8.4,12.8-7.8c1.5,4.7,5.5,11.2,11.2,10.8c4.6-0.3,7.7-7.2,12.8-7.9
		c0.6,9.4,7,40.2-7.8,34.1c-6.2-2.6-4.7-12.2-13.8-4c-5.3,4.8-2.5,16.6-13.1,14.6c-0.7-13.5-0.2-27.3-0.2-40.8"/>
	<path fill="#010101" d="M152.4,222.7c-1.8-4.3-7.7-8.4-12.8-7.8c-1.5,4.7-5.5,11.2-11.2,10.8c-4.6-0.3-7.7-7.2-12.8-7.9
		c-0.6,9.4-7,40.2,7.8,34.1c6.2-2.6,4.7-12.2,13.8-4c5.3,4.8,2.5,16.6,13.1,14.6c0.7-13.5,0.2-27.3,0.2-40.8"/>
</g>
<g id="dots">
	<path fill="url(#New_Pattern_Swatch_12)" stroke="#010101" stroke-miterlimit="10" d="M104.6,350.7c59.3-14.7,43.3-91.3,45.3-132.7
		c2-41.3-7.3-50.7-7.3-50.7c-27-7.3-41.3,20-41.3,20h-1.3c0,0-14.3-27.3-41.3-20c0,0-9.3,9.3-7.3,50.7c2,41.3-14,118,45.3,132.7
		H104.6z"/>
</g>
<g id="fur">
	<g>
		<g>
			<path fill="none" stroke="#010101" stroke-miterlimit="10" d="M103.2,91"/>
		</g>
	</g>
	<g>
		<g>
			<g>
				<g>
					<path fill="none" stroke="#010101" stroke-miterlimit="10" d="M145.4,163.3C145.4,163.3,145.4,163.3,145.4,163.3
						c0,0.3,0,0.5,0.1,0.5c-0.1,0.4-0.2,0.9-0.3,1.2c-0.2,0.3-0.3,0.7-0.5,1c-0.4,0.6-0.8,1.3-1.3,1.9c0,0,1.3-0.1,2.6,0
						c1.3,0.1,2.6,0.2,2.6,0.2"/>
				</g>
				<g>
					<path fill="none" stroke="#010101" stroke-miterlimit="10" d="M149.1,169c0,0-0.8,0.9-1.7,1.8c-0.9,0.9-1.7,1.7-1.7,1.7
						s1.3,0.2,2.6,0.5c1.3,0.3,2.6,0.6,2.6,0.6"/>
				</g>
				<g>
					<path fill="none" stroke="#010101" stroke-miterlimit="10" d="M151,174.5c0,0-0.9,0.8-1.9,1.6c-1,0.8-1.9,1.5-1.9,1.5
						s1.3,0.3,2.5,0.7c1.2,0.4,2.5,0.8,2.5,0.8"/>
				</g>
				<g>
					<path fill="none" stroke="#010101" stroke-miterlimit="10" d="M152.4,180.1c0,0-1,0.7-2,1.4c-1,0.7-2,1.4-2,1.4
						s1.2,0.4,2.4,0.9c1.2,0.5,2.4,1,2.4,1"/>
				</g>
				<g>
					<path fill="none" stroke="#010101" stroke-miterlimit="10" d="M153.3,185.7c0,0-1.1,0.6-2.1,1.3c-1.1,0.6-2.1,1.3-2.1,1.3
						s1.2,0.5,2.4,1.1c1.2,0.6,2.4,1.1,2.4,1.1"/>
				</g>
				<g>
					<path fill="none" stroke="#010101" stroke-miterlimit="10" d="M154,191.3c0,0-1.1,0.6-2.2,1.2c-1.1,0.6-2.2,1.2-2.2,1.2
						s1.2,0.6,2.3,1.2c1.2,0.6,2.3,1.2,2.3,1.2"/>
				</g>
				<g>
					<path fill="none" stroke="#010101" stroke-miterlimit="10" d="M154.3,197c0,0-1.1,0.6-2.2,1.1c-1.1,0.5-2.2,1.1-2.2,1.1
						s1.1,0.6,2.3,1.2c1.1,0.6,2.3,1.3,2.3,1.3"/>
				</g>
				<g>
					<path fill="none" stroke="#010101" stroke-miterlimit="10" d="M154.5,202.6c0,0-1.1,0.5-2.2,1c-1.1,0.5-2.2,1-2.2,1
						s1.1,0.7,2.3,1.3c1.1,0.7,2.2,1.3,2.2,1.3"/>
				</g>
				<g>
					<path fill="none" stroke="#010101" stroke-miterlimit="10" d="M154.5,208.2l-4.5,1.9c0,0,1.1,0.7,2.2,1.4
						c1.1,0.7,2.2,1.4,2.2,1.4"/>
				</g>
				<g>
					<polyline fill="none" stroke="#010101" stroke-miterlimit="10" points="154.4,213.8 149.8,215.6 154.2,218.4 					"/>
				</g>
				<g>
					<path fill="none" stroke="#010101" stroke-miterlimit="10" d="M154.2,219.3c0,0-1.1,0.5-2.3,0.9c-1.1,0.5-2.3,0.9-2.3,0.9
						s1.1,0.7,2.2,1.4c1.1,0.7,2.2,1.3,2.2,1.3"/>
				</g>
				<g>
					<polyline fill="none" stroke="#010101" stroke-miterlimit="10" points="154.1,224.8 149.6,226.7 154.1,229.4 					"/>
				</g>
				<g>
					<polyline fill="none" stroke="#010101" stroke-miterlimit="10" points="154.1,230.2 149.6,232.3 154.2,234.9 					"/>
				</g>
				<g>
					<polyline fill="none" stroke="#010101" stroke-miterlimit="10" points="154.2,235.7 149.8,237.9 154.3,240.4 					"/>
				</g>
				<g>
					<polyline fill="none" stroke="#010101" stroke-miterlimit="10" points="154.4,241.3 149.9,243.4 154.5,245.9 					"/>
				</g>
				<g>
					<polyline fill="none" stroke="#010101" stroke-miterlimit="10" points="154.5,246.8 150.1,248.9 154.7,251.5 					"/>
				</g>
				<g>
					<polyline fill="none" stroke="#010101" stroke-miterlimit="10" points="154.7,252.3 150.2,254.4 154.8,257 					"/>
				</g>
				<g>
					<polyline fill="none" stroke="#010101" stroke-miterlimit="10" points="154.8,257.9 150.3,259.9 154.8,262.6 					"/>
				</g>
				<g>
					<polyline fill="none" stroke="#010101" stroke-miterlimit="10" points="154.8,263.5 150.3,265.4 154.8,268.1 					"/>
				</g>
				<g>
					<polyline fill="none" stroke="#010101" stroke-miterlimit="10" points="154.8,269 150.2,270.9 154.7,273.7 					"/>
				</g>
				<g>
					<path fill="none" stroke="#010101" stroke-miterlimit="10" d="M154.7,274.6l-4.6,1.8c0,0,1.1,0.7,2.2,1.4
						c1.1,0.7,2.2,1.5,2.2,1.5"/>
				</g>
				<g>
					<path fill="none" stroke="#010101" stroke-miterlimit="10" d="M154.4,280.2l-4.6,1.7c0,0,1.1,0.7,2.2,1.5
						c1.1,0.8,2.1,1.5,2.1,1.5"/>
				</g>
				<g>
					<path fill="none" stroke="#010101" stroke-miterlimit="10" d="M154,285.8c0,0-1.2,0.4-2.3,0.8c-1.2,0.4-2.3,0.8-2.3,0.8
						s1.1,0.8,2.1,1.5c1,0.8,2.1,1.6,2.1,1.6"/>
				</g>
				<g>
					<path fill="none" stroke="#010101" stroke-miterlimit="10" d="M153.4,291.4c0,0-1.2,0.4-2.4,0.7c-1.2,0.3-2.4,0.7-2.4,0.7
						s1,0.8,2,1.6c1,0.8,2,1.7,2,1.7"/>
				</g>
				<g>
					<path fill="none" stroke="#010101" stroke-miterlimit="10" d="M152.6,297c0,0-1.2,0.3-2.4,0.6c-1.2,0.3-2.4,0.6-2.4,0.6
						s1,0.9,2,1.7c1,0.9,2,1.8,2,1.8"/>
				</g>
				<g>
					<path fill="none" stroke="#010101" stroke-miterlimit="10" d="M151.6,302.5c0,0-1.2,0.3-2.4,0.5c-1.2,0.2-2.4,0.5-2.4,0.5
						s0.9,0.9,1.9,1.8c0.9,0.9,1.9,1.9,1.9,1.9"/>
				</g>
				<g>
					<path fill="none" stroke="#010101" stroke-miterlimit="10" d="M150.2,308.1c0,0-1.2,0.2-2.4,0.4c-1.2,0.2-2.4,0.3-2.4,0.3
						s0.9,0.9,1.8,1.9c0.9,1,1.7,2,1.7,2"/>
				</g>
				<g>
					<path fill="none" stroke="#010101" stroke-miterlimit="10" d="M148.6,313.5c0,0-1.2,0.1-2.5,0.2c-1.2,0.1-2.5,0.2-2.5,0.2
						s0.8,1,1.6,2c0.8,1,1.6,2.1,1.6,2.1"/>
				</g>
				<g>
					<path fill="none" stroke="#010101" stroke-miterlimit="10" d="M146.6,318.9c0,0-1.2,0-2.5,0c-1.2,0-2.5,0-2.5,0
						s0.8,1.1,1.5,2.1c0.7,1.1,1.4,2.2,1.4,2.2"/>
				</g>
				<g>
					<path fill="none" stroke="#010101" stroke-miterlimit="10" d="M144.2,324.1c0,0-1.2-0.1-2.5-0.2c-1.2-0.1-2.4-0.2-2.4-0.2
						c0,0,0.7,1.1,1.3,2.3c0.6,1.1,1.2,2.3,1.2,2.3"/>
				</g>
				<g>
					<path fill="none" stroke="#010101" stroke-miterlimit="10" d="M141.3,329.1c0,0-1.2-0.2-2.4-0.4c-1.2-0.2-2.4-0.5-2.4-0.5
						s0.6,1.2,1.1,2.4c0.5,1.2,1,2.4,1,2.4"/>
				</g>
				<g>
					<path fill="none" stroke="#010101" stroke-miterlimit="10" d="M137.9,333.8c0,0-1.2-0.3-2.4-0.6c-1.2-0.3-2.4-0.7-2.4-0.7
						s0.4,1.2,0.8,2.5c0.4,1.3,0.7,2.5,0.7,2.5"/>
				</g>
				<g>
					<path fill="none" stroke="#010101" stroke-miterlimit="10" d="M134,338.1c0,0-1.2-0.4-2.3-0.9c-1.2-0.5-2.3-0.9-2.3-0.9
						s0.3,1.3,0.6,2.5c0.3,1.3,0.4,2.6,0.4,2.6"/>
				</g>
				<g>
					<path fill="none" stroke="#010101" stroke-miterlimit="10" d="M129.7,342.1c0,0-1.1-0.5-2.2-1.1c-1.1-0.6-2.2-1.2-2.2-1.2
						s0.2,1.3,0.3,2.6c0.1,1.3,0.2,2.6,0.2,2.6"/>
				</g>
				<g>
					<path fill="none" stroke="#010101" stroke-miterlimit="10" d="M125,345.5c0,0-1.1-0.7-2.1-1.3c-1-0.7-2-1.4-2-1.4s0,1.3,0,2.6
						c0,1.3-0.1,2.6-0.1,2.6"/>
				</g>
				<g>
					<path fill="none" stroke="#010101" stroke-miterlimit="10" d="M120,348.4c0,0-1-0.8-1.9-1.6c-0.9-0.8-1.9-1.6-1.9-1.6
						s-0.1,1.3-0.3,2.6c-0.2,1.3-0.4,2.6-0.4,2.6"/>
				</g>
				<g>
					<path fill="none" stroke="#010101" stroke-miterlimit="10" d="M114.8,350.8c0,0-0.9-0.9-1.8-1.7c-0.9-0.9-1.7-1.8-1.7-1.8
						c0,0-0.2,1.3-0.5,2.6c-0.3,1.3-0.6,2.6-0.6,2.6"/>
				</g>
				<g>
					<path fill="none" stroke="#010101" stroke-miterlimit="10" d="M109.3,352.7c0,0-0.8-0.9-1.6-1.9c-0.8-0.9-1.6-1.9-1.6-1.9
						s-0.1,0.3-0.2,0.8c-0.1,0.5-0.3,1.1-0.5,1.7c-0.3,0.7-0.5,1.2-0.7,1.6c-0.2,0.4-0.4,0.7-0.4,0.7"/>
				</g>
				<g>
					<path fill="none" stroke="#010101" stroke-miterlimit="10" d="M103.4,353.7c0,0-0.6-1.1-1.2-2.2c-0.6-1.1-1.1-2.3-1.1-2.3
						s-0.6,1.1-1.2,2.3c-0.6,1.1-1.3,2.3-1.3,2.3"/>
				</g>
				<g>
					<path fill="none" stroke="#010101" stroke-miterlimit="10" d="M97.6,353.7c0,0-0.1-0.3-0.3-0.7c-0.1-0.4-0.6-1-0.8-1.6
						c-0.2-0.6-0.2-1.2-0.3-1.7c-0.1-0.5-0.1-0.8-0.1-0.8s-0.9,0.9-1.9,1.8c-0.9,0.9-1.9,1.8-1.9,1.8"/>
				</g>
				<g>
					<path fill="none" stroke="#010101" stroke-miterlimit="10" d="M91.5,352.4c0,0-0.2-1.2-0.3-2.5c-0.1-1.2-0.2-2.5-0.2-2.5
						s-1,0.9-2,1.7c-1,0.8-2.1,1.6-2.1,1.6"/>
				</g>
				<g>
					<path fill="none" stroke="#010101" stroke-miterlimit="10" d="M86,350.4c0,0,0-1.2-0.1-2.5c0-1.2,0-2.5,0-2.5
						c0,0-1,0.8-2.1,1.5c-1.1,0.7-2.2,1.4-2.2,1.4"/>
				</g>
				<g>
					<path fill="none" stroke="#010101" stroke-miterlimit="10" d="M80.8,347.9c0,0,0.1-1.2,0.2-2.5c0.1-1.2,0.3-2.4,0.3-2.4
						s-1.1,0.7-2.3,1.3c-1.2,0.6-2.4,1.2-2.4,1.2"/>
				</g>
				<g>
					<path fill="none" stroke="#010101" stroke-miterlimit="10" d="M75.8,344.9c0,0,0.2-1.2,0.4-2.4c0.2-1.2,0.5-2.4,0.5-2.4
						s-1.2,0.5-2.4,1c-1.2,0.5-2.5,0.9-2.5,0.9"/>
				</g>
				<g>
					<path fill="none" stroke="#010101" stroke-miterlimit="10" d="M71.2,341.4c0,0,0.3-1.2,0.7-2.4c0.4-1.2,0.8-2.3,0.8-2.3
						s-1.2,0.4-2.5,0.7c-1.3,0.3-2.6,0.6-2.6,0.6"/>
				</g>
				<g>
					<path fill="none" stroke="#010101" stroke-miterlimit="10" d="M67,337.4c0,0,0.5-1.2,1-2.3c0.5-1.1,1-2.2,1-2.2
						s-1.3,0.3-2.6,0.5c-1.3,0.2-2.6,0.4-2.6,0.4"/>
				</g>
				<g>
					<path fill="none" stroke="#010101" stroke-miterlimit="10" d="M63.2,332.9c0,0,0.6-1.1,1.2-2.2c0.6-1.1,1.3-2.1,1.3-2.1
						s-1.3,0.1-2.6,0.2c-1.3,0.1-2.6,0.1-2.6,0.1"/>
				</g>
				<g>
					<path fill="none" stroke="#010101" stroke-miterlimit="10" d="M60,328.2c0,0,0.7-1,1.4-2c0.7-1,1.5-2,1.5-2s-1.3,0-2.6-0.1
						c-1.3-0.1-2.6-0.2-2.6-0.2"/>
				</g>
				<g>
					<path fill="none" stroke="#010101" stroke-miterlimit="10" d="M57.2,323.1c0,0,0.8-1,1.6-1.9c0.8-0.9,1.6-1.9,1.6-1.9
						s-1.3-0.1-2.6-0.3c-1.3-0.2-2.6-0.4-2.6-0.4"/>
				</g>
				<g>
					<path fill="none" stroke="#010101" stroke-miterlimit="10" d="M54.8,317.9c0,0,0.9-0.9,1.7-1.8c0.9-0.9,1.8-1.7,1.8-1.7
						s-1.3-0.2-2.6-0.5c-1.3-0.3-2.6-0.5-2.6-0.5"/>
				</g>
				<g>
					<path fill="none" stroke="#010101" stroke-miterlimit="10" d="M52.9,312.5c0,0,0.9-0.8,1.8-1.6c0.9-0.8,1.9-1.6,1.9-1.6
						s-1.3-0.3-2.5-0.6c-1.3-0.3-2.5-0.7-2.5-0.7"/>
				</g>
				<g>
					<path fill="none" stroke="#010101" stroke-miterlimit="10" d="M51.3,307c0,0,1-0.8,1.9-1.5c1-0.7,2-1.5,2-1.5s-1.2-0.4-2.5-0.8
						c-1.2-0.4-2.5-0.8-2.5-0.8"/>
				</g>
				<g>
					<path fill="none" stroke="#010101" stroke-miterlimit="10" d="M50,301.5c0,0,1-0.7,2-1.4c1-0.7,2-1.4,2-1.4s-1.2-0.5-2.5-0.9
						c-1.2-0.5-2.4-1-2.4-1"/>
				</g>
				<g>
					<path fill="none" stroke="#010101" stroke-miterlimit="10" d="M49,295.9c0,0,1-0.7,2.1-1.3c1-0.7,2.1-1.3,2.1-1.3
						s-1.2-0.5-2.4-1c-1.2-0.5-2.4-1-2.4-1"/>
				</g>
				<g>
					<path fill="none" stroke="#010101" stroke-miterlimit="10" d="M48.3,290.4c0,0,1.1-0.6,2.1-1.3c1.1-0.6,2.1-1.2,2.1-1.2
						s-1.2-0.5-2.4-1.1c-1.2-0.6-2.4-1.1-2.4-1.1"/>
				</g>
				<g>
					<path fill="none" stroke="#010101" stroke-miterlimit="10" d="M47.7,284.8c0,0,1.1-0.6,2.2-1.2c1.1-0.6,2.2-1.2,2.2-1.2
						s-1.2-0.6-2.3-1.2c-1.2-0.6-2.3-1.2-2.3-1.2"/>
				</g>
				<g>
					<path fill="none" stroke="#010101" stroke-miterlimit="10" d="M47.4,279.2c0,0,1.1-0.6,2.2-1.1c1.1-0.5,2.2-1.1,2.2-1.1
						s-1.2-0.6-2.3-1.2c-1.2-0.6-2.3-1.3-2.3-1.3"/>
				</g>
				<g>
					<polyline fill="none" stroke="#010101" stroke-miterlimit="10" points="47.1,273.6 51.6,271.5 47,268.9 					"/>
				</g>
				<g>
					<polyline fill="none" stroke="#010101" stroke-miterlimit="10" points="47,268 51.5,266 47,263.3 					"/>
				</g>
				<g>
					<polyline fill="none" stroke="#010101" stroke-miterlimit="10" points="47,262.4 51.5,260.5 47,257.7 					"/>
				</g>
				<g>
					<polyline fill="none" stroke="#010101" stroke-miterlimit="10" points="47,256.9 51.6,254.9 47.1,252.2 					"/>
				</g>
				<g>
					<polyline fill="none" stroke="#010101" stroke-miterlimit="10" points="47.2,251.3 51.7,249.4 47.3,246.7 					"/>
				</g>
				<g>
					<polyline fill="none" stroke="#010101" stroke-miterlimit="10" points="47.3,245.8 51.9,243.9 47.4,241.1 					"/>
				</g>
				<g>
					<polyline fill="none" stroke="#010101" stroke-miterlimit="10" points="47.5,240.2 52,238.4 47.6,235.6 					"/>
				</g>
				<g>
					<polyline fill="none" stroke="#010101" stroke-miterlimit="10" points="47.6,234.7 52.2,232.8 47.7,230.1 					"/>
				</g>
				<g>
					<polyline fill="none" stroke="#010101" stroke-miterlimit="10" points="47.7,229.2 52.2,227.3 47.7,224.6 					"/>
				</g>
				<g>
					<path fill="none" stroke="#010101" stroke-miterlimit="10" d="M47.7,223.7l4.5-2c0,0-1.1-0.6-2.3-1.3c-1.1-0.6-2.3-1.2-2.3-1.2
						"/>
				</g>
				<g>
					<path fill="none" stroke="#010101" stroke-miterlimit="10" d="M47.6,218.3l4.4-2.2c0,0-1.2-0.6-2.3-1.2
						c-1.2-0.6-2.3-1.3-2.3-1.3"/>
				</g>
				<g>
					<path fill="none" stroke="#010101" stroke-miterlimit="10" d="M47.4,212.7l4.5-2.1c0,0-1.1-0.6-2.3-1.3
						c-1.1-0.7-2.3-1.3-2.3-1.3"/>
				</g>
				<g>
					<path fill="none" stroke="#010101" stroke-miterlimit="10" d="M47.3,207.2c0,0,1.1-0.5,2.3-1c1.1-0.5,2.3-1,2.3-1
						s-1.1-0.7-2.2-1.3c-1.1-0.7-2.2-1.4-2.2-1.4"/>
				</g>
				<g>
					<path fill="none" stroke="#010101" stroke-miterlimit="10" d="M47.3,201.5c0,0,1.1-0.5,2.3-0.9c1.1-0.5,2.3-0.9,2.3-0.9
						s-1.1-0.7-2.2-1.4c-1.1-0.7-2.2-1.4-2.2-1.4"/>
				</g>
				<g>
					<path fill="none" stroke="#010101" stroke-miterlimit="10" d="M47.5,195.9c0,0,1.2-0.4,2.3-0.9c1.2-0.4,2.3-0.8,2.3-0.8
						s-1.1-0.7-2.1-1.5c-1.1-0.8-2.1-1.5-2.1-1.5"/>
				</g>
				<g>
					<path fill="none" stroke="#010101" stroke-miterlimit="10" d="M48,190.3c0,0,1.2-0.4,2.3-0.8c1.2-0.4,2.3-0.7,2.3-0.7
						s-1-0.8-2.1-1.6c-1-0.8-2.1-1.6-2.1-1.6"/>
				</g>
				<g>
					<path fill="none" stroke="#010101" stroke-miterlimit="10" d="M48.7,184.7c0,0,1.2-0.3,2.4-0.7c1.2-0.3,2.4-0.6,2.4-0.6
						s-1-0.8-2-1.7c-1-0.9-2-1.8-2-1.8"/>
				</g>
				<g>
					<path fill="none" stroke="#010101" stroke-miterlimit="10" d="M49.7,179.1c0,0,1.2-0.2,2.4-0.5c1.2-0.2,2.4-0.4,2.4-0.4
						s-0.9-0.9-1.9-1.8c-0.9-0.9-1.8-1.9-1.8-1.9"/>
				</g>
				<g>
					<path fill="none" stroke="#010101" stroke-miterlimit="10" d="M51.1,173.5c0,0,1.2-0.2,2.5-0.3c1.2-0.1,2.5-0.2,2.5-0.2
						s-0.8-1-1.6-2c-0.8-1-1.5-2.1-1.5-2.1"/>
				</g>
				<g>
					<path fill="none" stroke="#010101" stroke-miterlimit="10" d="M53.3,168c0,0,1.3,0,2.5,0.1c1.2,0.1,2.4,0.2,2.4,0.2
						c-0.4-0.7-0.8-1.4-1.2-2.2c-0.2-0.4-0.3-0.8-0.5-1.2c-0.1-0.4-0.3-0.8-0.2-1.4l0.9-0.1l-0.2-0.6"/>
				</g>
			</g>
		</g>
	</g>
	<g>
		<g>
			<g>
				<g>
					<path fill="none" stroke="#010101" stroke-miterlimit="10" d="M55.7,165c0,0,1.1-0.6,2.2-1.2c1.1-0.6,2.2-1.2,2.2-1.2
						s-1.2-0.6-2.3-1.2c-1.2-0.6-2.3-1.3-2.3-1.3"/>
				</g>
				<g>
					<path fill="none" stroke="#010101" stroke-miterlimit="10" d="M55.4,159.2c0,0,1.1-0.5,2.2-1.1c1.1-0.5,2.2-1.1,2.2-1.1
						s-1.1-0.7-2.3-1.3c-0.6-0.3-1.1-0.7-1.6-0.9c-0.4-0.3-0.7-0.4-0.7-0.4"/>
				</g>
				<g>
					<path fill="none" stroke="#010101" stroke-miterlimit="10" d="M55.3,153.5c0,0,1.1-0.5,2.3-1c1.1-0.5,2.3-0.9,2.3-0.9
						s-1.1-0.7-2.2-1.4c-1.1-0.7-2.2-1.5-2.2-1.5"/>
				</g>
				<g>
					<path fill="none" stroke="#010101" stroke-miterlimit="10" d="M55.5,147.7c0,0,1.1-0.4,2.3-0.9c1.2-0.4,2.3-0.8,2.3-0.8
						s-1.1-0.8-2.1-1.5c-1-0.8-2.1-1.6-2.1-1.6"/>
				</g>
				<g>
					<path fill="none" stroke="#010101" stroke-miterlimit="10" d="M56,142c0,0,1.2-0.4,2.4-0.7c1.2-0.3,2.4-0.7,2.4-0.7
						s-1-0.8-2-1.7c-1-0.9-2-1.7-2-1.7"/>
				</g>
				<g>
					<path fill="none" stroke="#010101" stroke-miterlimit="10" d="M56.9,136.2c0,0,1.2-0.3,2.4-0.6c1.2-0.3,2.4-0.5,2.4-0.5
						c0,0-1-0.9-1.9-1.8c-0.9-0.9-1.9-1.9-1.9-1.9"/>
				</g>
				<g>
					<path fill="none" stroke="#010101" stroke-miterlimit="10" d="M58.2,130.5c0,0,1.2-0.2,2.5-0.4c1.2-0.2,2.4-0.3,2.4-0.3
						s-0.9-0.9-1.7-1.9c-0.9-1-1.7-2-1.7-2"/>
				</g>
				<g>
					<path fill="none" stroke="#010101" stroke-miterlimit="10" d="M60,125c0,0,1.2-0.1,2.5-0.2c1.2-0.1,2.5-0.1,2.5-0.1
						c0,0-0.8-1-1.6-2.1c-0.4-0.5-0.8-1.1-1-1.5c-0.3-0.4-0.4-0.7-0.4-0.7"/>
				</g>
				<g>
					<path fill="none" stroke="#010101" stroke-miterlimit="10" d="M62.3,119.5c0,0,1.2,0,2.5,0.1c1.2,0.1,2.5,0.2,2.5,0.2
						s-0.7-1.1-1.3-2.3c-0.6-1.1-1.2-2.4-1.2-2.4"/>
				</g>
				<g>
					<path fill="none" stroke="#010101" stroke-miterlimit="10" d="M65.3,114.3c0,0,1.3,0.2,2.5,0.4c1.2,0.2,2.4,0.5,2.4,0.5
						s-0.1-0.3-0.3-0.8c-0.2-0.4-0.4-1-0.6-1.7c-0.5-1.2-0.8-2.5-0.8-2.5"/>
				</g>
				<g>
					<path fill="none" stroke="#010101" stroke-miterlimit="10" d="M69,109.6c0,0,1.2,0.4,2.4,0.8c1.2,0.4,2.3,0.9,2.3,0.9
						c0,0-0.4-1.3-0.6-2.6c-0.2-1.3-0.4-2.6-0.4-2.6"/>
				</g>
				<g>
					<path fill="none" stroke="#010101" stroke-miterlimit="10" d="M73.4,105.5c0,0,1.1,0.5,2.2,1.1c0.5,0.3,1.1,0.6,1.5,0.8
						c0.4,0.2,0.7,0.4,0.7,0.4s-0.1-1.3-0.1-2.6c0-1.3,0-2.7,0-2.7"/>
				</g>
				<g>
					<path fill="none" stroke="#010101" stroke-miterlimit="10" d="M78.5,102.1c0,0,1,0.7,2,1.5c1,0.8,1.9,1.6,1.9,1.6
						s0.1-1.3,0.3-2.6c0.2-1.3,0.5-2.6,0.5-2.6"/>
				</g>
				<g>
					<path fill="none" stroke="#010101" stroke-miterlimit="10" d="M84.1,99.7c0,0,0.9,0.9,1.7,1.8c0.4,0.5,0.8,0.9,1.1,1.3
						c0.3,0.4,0.5,0.6,0.5,0.6s0.3-1.2,0.7-2.5c0.4-1.3,0.9-2.5,0.9-2.5"/>
				</g>
				<g>
					<path fill="none" stroke="#010101" stroke-miterlimit="10" d="M89.9,98.1c0,0,0.7,1,1.4,2.1c0.7,1,1.3,2.1,1.3,2.1
						s0.5-1.2,1-2.4c0.3-0.6,0.6-1.2,0.8-1.7c0.2-0.4,0.4-0.7,0.4-0.7"/>
				</g>
				<g>
					<path fill="none" stroke="#010101" stroke-miterlimit="10" d="M95.8,97.4c0,0,0.6,1.1,1.2,2.2c0.6,1.1,1.1,2.2,1.1,2.2
						s0.2-0.3,0.4-0.7c0.2-0.4,0.6-1,0.9-1.6c0.7-1.1,1.4-2.3,1.4-2.3"/>
				</g>
				<g>
					<path fill="none" stroke="#010101" stroke-miterlimit="10" d="M101.6,97.3c0,0,0.5,1.1,1,2.3c0.5,1.1,1,2.3,1,2.3
						s0.7-1.1,1.4-2.2c0.7-1.1,1.5-2.2,1.5-2.2"/>
				</g>
				<g>
					<path fill="none" stroke="#010101" stroke-miterlimit="10" d="M107.4,97.5c0,0,0.1,0.3,0.3,0.7c0.2,0.4,0.4,1,0.6,1.6
						c0.4,1.2,0.7,2.4,0.7,2.4s0.8-1,1.6-2.1c0.4-0.5,0.9-1,1.2-1.4c0.3-0.4,0.6-0.6,0.6-0.6"/>
				</g>
				<g>
					<path fill="none" stroke="#010101" stroke-miterlimit="10" d="M113.3,98.4c0,0,0.3,1.2,0.5,2.4c0.2,1.2,0.4,2.4,0.4,2.4
						s0.2-0.2,0.6-0.6c0.4-0.4,0.8-0.8,1.3-1.2c1-0.8,2-1.7,2-1.7"/>
				</g>
				<g>
					<path fill="none" stroke="#010101" stroke-miterlimit="10" d="M119.1,100.1c0,0,0.1,1.2,0.2,2.4c0,1.2,0,2.5,0,2.5
						s1-0.7,2.2-1.5c1.1-0.7,2.3-1.4,2.3-1.4"/>
				</g>
				<g>
					<path fill="none" stroke="#010101" stroke-miterlimit="10" d="M124.6,102.7c0,0-0.1,1.3-0.3,2.5c-0.2,1.2-0.4,2.4-0.4,2.4
						s0.3-0.1,0.7-0.4c0.4-0.2,1.1-0.5,1.7-0.7c1.2-0.5,2.5-0.9,2.5-0.9"/>
				</g>
				<g>
					<path fill="none" stroke="#010101" stroke-miterlimit="10" d="M129.5,106.3c0,0-0.3,1.2-0.7,2.4c-0.2,0.6-0.4,1.2-0.5,1.6
						c-0.2,0.4-0.3,0.7-0.3,0.7s1.2-0.4,2.5-0.6c1.3-0.3,2.6-0.5,2.6-0.5"/>
				</g>
				<g>
					<path fill="none" stroke="#010101" stroke-miterlimit="10" d="M133.8,110.5c0,0-0.5,1.2-1.1,2.3c-0.6,1.1-1.2,2.2-1.2,2.2
						s1.3-0.2,2.6-0.2c0.7,0,1.3-0.1,1.8-0.1c0.5,0,0.8,0,0.8,0"/>
				</g>
				<g>
					<path fill="none" stroke="#010101" stroke-miterlimit="10" d="M137.4,115.4c0,0-0.7,1.1-1.4,2.1c-0.7,1-1.5,2-1.5,2
						c0,0,1.3,0,2.6,0.1c0.7,0,1.3,0.1,1.8,0.1c0.5,0.1,0.8,0.1,0.8,0.1"/>
				</g>
				<g>
					<path fill="none" stroke="#010101" stroke-miterlimit="10" d="M140.2,120.6c0,0-0.8,1-1.6,1.9c-0.8,0.9-1.7,1.8-1.7,1.8
						s1.3,0.2,2.6,0.4c1.3,0.2,2.6,0.5,2.6,0.5"/>
				</g>
				<g>
					<path fill="none" stroke="#010101" stroke-miterlimit="10" d="M142.4,126.1c0,0-0.9,0.9-1.8,1.7c-0.9,0.8-1.8,1.6-1.8,1.6
						s1.3,0.3,2.5,0.6c1.3,0.3,2.6,0.7,2.6,0.7"/>
				</g>
				<g>
					<path fill="none" stroke="#010101" stroke-miterlimit="10" d="M144.1,131.7c0,0-1,0.8-1.9,1.5c-1,0.8-2,1.5-2,1.5
						s1.2,0.4,2.5,0.8c1.3,0.4,2.5,0.9,2.5,0.9"/>
				</g>
				<g>
					<path fill="none" stroke="#010101" stroke-miterlimit="10" d="M145.3,137.4c0,0-1,0.7-2,1.4c-1,0.7-2.1,1.3-2.1,1.3
						s1.2,0.5,2.4,1c1.2,0.5,2.4,1.1,2.4,1.1"/>
				</g>
				<g>
					<path fill="none" stroke="#010101" stroke-miterlimit="10" d="M146.1,143.1c0,0-1.1,0.6-2.1,1.3c-1.1,0.6-2.1,1.2-2.1,1.2
						s1.2,0.6,2.4,1.1c1.2,0.6,2.3,1.2,2.3,1.2"/>
				</g>
				<g>
					<path fill="none" stroke="#010101" stroke-miterlimit="10" d="M146.5,148.9c0,0-1.1,0.6-2.2,1.1c-1.1,0.6-2.2,1.1-2.2,1.1
						s1.2,0.6,2.3,1.3c1.2,0.7,2.3,1.3,2.3,1.3"/>
				</g>
				<g>
					<path fill="none" stroke="#010101" stroke-miterlimit="10" d="M146.8,154.7c0,0-1.1,0.5-2.3,1c-1.1,0.5-2.3,1-2.3,1
						s1.1,0.7,2.2,1.4c1.1,0.7,2.2,1.4,2.2,1.4"/>
				</g>
				<g>
					<path fill="none" stroke="#010101" stroke-miterlimit="10" d="M146.6,160.4c0,0-1.1,0.5-2.3,0.9c-1.2,0.4-2.3,0.9-2.3,0.9
						s1.1,0.8,2.1,1.5c1.1,0.8,2.1,1.6,2.1,1.6"/>
				</g>
				<g>
					<path fill="none" stroke="#010101" stroke-miterlimit="10" d="M139.3,170.6c0,0-0.3-1.2-0.6-2.4c-0.3-1.2-0.7-2.4-0.7-2.4
						s-0.2,0.3-0.5,0.7c-0.3,0.4-0.7,0.9-1.1,1.5c-0.8,1.1-1.4,2.2-1.4,2.2"/>
				</g>
				<g>
					<path fill="none" stroke="#010101" stroke-miterlimit="10" d="M134.1,170.1c0,0-0.4-1.2-1-2.2c-0.5-1.1-1.1-2.2-1.1-2.2
						s-0.7,1.2-1.2,2.3c-0.3,0.6-0.5,1.2-0.7,1.6c-0.2,0.5-0.3,0.8-0.3,0.8"/>
				</g>
				<g>
					<path fill="none" stroke="#010101" stroke-miterlimit="10" d="M129,170.5c0,0-0.6-1-1.3-2c-0.7-1-1.5-2-1.5-2s-0.1,0.3-0.3,0.8
						c-0.2,0.5-0.3,1.1-0.5,1.8c-0.3,1.3-0.6,2.5-0.6,2.5"/>
				</g>
				<g>
					<path fill="none" stroke="#010101" stroke-miterlimit="10" d="M124.1,171.7c0,0-0.2-0.2-0.5-0.6c-0.3-0.3-0.7-0.8-1.2-1.2
						c-0.9-0.9-1.8-1.7-1.8-1.7s-0.2,1.3-0.3,2.6c-0.1,0.6-0.1,1.3-0.1,1.8c0,0.5,0,0.8,0,0.8"/>
				</g>
				<g>
					<path fill="none" stroke="#010101" stroke-miterlimit="10" d="M119.4,173.9c0,0-1-0.8-2-1.5c-1-0.7-2.1-1.3-2.1-1.3
						s0,1.3,0.1,2.6c0,0.6,0.1,1.3,0.2,1.8c0.1,0.5,0.1,0.8,0.1,0.8"/>
				</g>
				<g>
					<path fill="none" stroke="#010101" stroke-miterlimit="10" d="M115.1,176.8c0,0-1.1-0.6-2.2-1.1c-1.1-0.6-2.3-1-2.3-1
						s0.2,1.3,0.5,2.6c0.1,0.6,0.3,1.3,0.4,1.7c0.1,0.5,0.2,0.8,0.2,0.8"/>
				</g>
				<g>
					<path fill="none" stroke="#010101" stroke-miterlimit="10" d="M111.3,180.3c0,0-1.1-0.4-2.3-0.8c-1.2-0.4-2.4-0.7-2.4-0.7
						c0,0,0.4,1.3,0.9,2.5c0.2,0.6,0.5,1.2,0.7,1.7c0.2,0.4,0.3,0.7,0.3,0.7"/>
				</g>
				<g>
					<path fill="none" stroke="#010101" stroke-miterlimit="10" d="M107.9,184.3c0,0-1.2-0.3-2.4-0.5c-1.2-0.2-2.4-0.4-2.4-0.4
						s0.6,1.2,1.2,2.4c0.6,1.2,1.3,2.2,1.3,2.2"/>
				</g>
				<g>
					<polyline fill="none" stroke="#010101" stroke-miterlimit="10" points="100.5,191.3 100.7,186.8 100.9,191.3 					"/>
				</g>
				<g>
					<path fill="none" stroke="#010101" stroke-miterlimit="10" d="M95.9,188.1c0,0,0.7-1,1.4-2c0.7-1,1.4-2.1,1.4-2.1s-0.3,0-0.8,0
						c-0.5,0-1.2,0.1-1.8,0.1c-1.3,0.1-2.6,0.2-2.6,0.2"/>
				</g>
				<g>
					<path fill="none" stroke="#010101" stroke-miterlimit="10" d="M93,183.7c0,0,0.6-1,1.2-2.1c0.6-1.1,1.2-2.2,1.2-2.2
						c0,0-1.3,0.1-2.6,0.4c-1.3,0.2-2.6,0.5-2.6,0.5"/>
				</g>
				<g>
					<path fill="none" stroke="#010101" stroke-miterlimit="10" d="M89.7,179.6c0,0,0.1-0.3,0.3-0.7c0.2-0.4,0.4-1,0.7-1.6
						c0.5-1.1,0.9-2.3,0.9-2.3s-1.3,0.3-2.5,0.7c-1.3,0.4-2.5,0.8-2.5,0.8"/>
				</g>
				<g>
					<path fill="none" stroke="#010101" stroke-miterlimit="10" d="M85.9,176.1c0,0,0.4-1.2,0.7-2.4c0.3-1.2,0.5-2.4,0.5-2.4
						s-0.3,0.1-0.8,0.3c-0.5,0.2-1,0.4-1.6,0.7c-1.2,0.6-2.3,1.2-2.3,1.2"/>
				</g>
				<g>
					<path fill="none" stroke="#010101" stroke-miterlimit="10" d="M81.7,173.1c0,0,0.2-1.2,0.2-2.4c0.1-1.2,0.1-2.5,0.1-2.5
						s-1.1,0.7-2.2,1.5c-1,0.7-2,1.6-2,1.6"/>
				</g>
				<g>
					<path fill="none" stroke="#010101" stroke-miterlimit="10" d="M77.1,171.1c0,0,0-0.3,0-0.8c0-0.5-0.1-1.1-0.2-1.7
						c-0.1-1.2-0.4-2.4-0.4-2.4s-1,0.9-1.9,1.9c-0.4,0.5-0.9,1-1.2,1.3c-0.3,0.4-0.5,0.6-0.5,0.6"/>
				</g>
				<g>
					<path fill="none" stroke="#010101" stroke-miterlimit="10" d="M72.2,169.9c0,0-0.1-0.3-0.2-0.7c-0.1-0.4-0.3-1-0.5-1.6
						c-0.4-1.2-0.8-2.3-0.8-2.3s-0.2,0.3-0.5,0.7c-0.3,0.4-0.6,1-1,1.5c-0.7,1.1-1.3,2.3-1.3,2.3"/>
				</g>
				<g>
					<path fill="none" stroke="#010101" stroke-miterlimit="10" d="M67.2,169.7c0,0-0.5-1.1-1.1-2.2c-0.3-0.5-0.6-1.1-0.9-1.5
						c-0.2-0.4-0.4-0.6-0.4-0.6s-0.6,1.2-1,2.5c-0.2,0.6-0.4,1.2-0.6,1.7c-0.1,0.5-0.2,0.8-0.2,0.8"/>
				</g>
			</g>
		</g>
	</g>
</g>
<g id="leaf">
	<g>
		<path fill="#A8CF38" stroke="#010101" stroke-width="0.5" stroke-linecap="round" stroke-linejoin="round" d="M92.5,79.1
			c0,0-8.6-15-7.4-22.4l2.1,0.7c0,0-1.8-2.2,0.2-11.3l1.7,1.5c0,0-1.5-4.5,1.4-10.4l1.7,1.5c0,0,0.8-4.1,2.5-8.3l1.9,1.2
			c0,0-0.4-5,1.3-8.5l1.7,1.5c0,0,0.7-6.3,4.1-7.5l0.5,1.5c0,0,2.3-3.9,5.8-6l1.6,1.7c0,0-0.1-3.9,4.3-5.5l0.9,1.4
			c0,0,0.5-5.2,4.6-6l1.2,2.5c0,0,7.1-6.6,8.7-6.8l2.6,1.3c0.3,1.2-0.1,11-0.1,11l2.7-0.6c1.8,3.8-2,7.3-2,7.3l1.7-0.1
			c1.5,4.5-1.7,6.8-1.7,6.8l2.4,0.2c0.5,4-1.2,8.3-1.2,8.3l1.5-0.5c1.2,3.4-3.4,7.8-3.4,7.8l2.2,0.5c-1.8,3.6-6,6.3-6,6.3l2.1,0.7
			c-2.3,3.9-5.1,7-5.1,7l2.2,0.5c-2.9,5.9-7.4,7.5-7.4,7.5l2.2,0.5c-6,7.2-8.8,7.1-8.8,7.1l1.9,1.2c-5.1,5.4-22.3,7.7-22.3,7.7
			L92.5,79.1z"/>
		<path fill="#A8CF38" stroke="#010101" stroke-width="0.5" stroke-linecap="round" stroke-linejoin="round" d="M94,79.8
			c0,0-8.6-15-7.4-22.4l2.1,0.7c0,0-1.8-2.2,0.2-11.3l1.7,1.5c0,0-1.5-4.5,1.4-10.4l1.7,1.5c0,0,0.8-4.1,2.5-8.3l1.9,1.2
			c0,0-0.4-5,1.3-8.5l1.7,1.5c0,0,0.7-6.3,4.1-7.5l0.5,1.5c0,0,2.3-3.9,5.8-6l1.6,1.7c0,0-0.1-3.9,4.3-5.5l0.9,1.4
			c0,0,0.5-5.2,4.6-6l1.2,2.5c0,0,7.1-6.6,8.7-6.8l2.6,1.3c0.3,1.2-0.1,11-0.1,11l2.7-0.6c1.8,3.8-2,7.3-2,7.3l1.7-0.1
			c1.5,4.5-1.7,6.8-1.7,6.8l2.4,0.2c0.5,4-1.2,8.3-1.2,8.3l1.5-0.5c1.2,3.4-3.4,7.8-3.4,7.8l2.2,0.5c-1.8,3.6-6,6.3-6,6.3l2.1,0.7
			c-2.3,3.9-5.1,7-5.1,7l2.2,0.5c-2.9,5.9-7.4,7.5-7.4,7.5l2.2,0.5c-6,7.2-8.8,7.1-8.8,7.1l1.9,1.2c-5.1,5.4-22.3,7.7-22.3,7.7
			L94,79.8z"/>
		
			<line fill="none" stroke="#010101" stroke-width="0.5" stroke-linecap="round" stroke-linejoin="round" x1="133.5" y1="2" x2="94.8" y2="80.3"/>
		<g>
			
				<line fill="none" stroke="#010101" stroke-width="0.5" stroke-linecap="round" stroke-linejoin="round" x1="124.3" y1="6.3" x2="125.6" y2="12.8"/>
			
				<line fill="none" stroke="#010101" stroke-width="0.5" stroke-linecap="round" stroke-linejoin="round" x1="118.5" y1="11.1" x2="122.2" y2="18.7"/>
			
				<line fill="none" stroke="#010101" stroke-width="0.5" stroke-linecap="round" stroke-linejoin="round" x1="113.4" y1="14.8" x2="118.5" y2="24.6"/>
			
				<line fill="none" stroke="#010101" stroke-width="0.5" stroke-linecap="round" stroke-linejoin="round" x1="105.5" y1="19" x2="113.8" y2="30.7"/>
			
				<line fill="none" stroke="#010101" stroke-width="0.5" stroke-linecap="round" stroke-linejoin="round" x1="101.5" y1="24.9" x2="111.9" y2="37.4"/>
			
				<line fill="none" stroke="#010101" stroke-width="0.5" stroke-linecap="round" stroke-linejoin="round" x1="97.6" y1="32.2" x2="108" y2="43.6"/>
			
				<line fill="none" stroke="#010101" stroke-width="0.5" stroke-linecap="round" stroke-linejoin="round" x1="93.6" y1="38.7" x2="102.6" y2="50.8"/>
			
				<line fill="none" stroke="#010101" stroke-width="0.5" stroke-linecap="round" stroke-linejoin="round" x1="90.4" y1="47.9" x2="101" y2="61.2"/>
			
				<line fill="none" stroke="#010101" stroke-width="0.5" stroke-linecap="round" stroke-linejoin="round" x1="88.5" y1="57.7" x2="97" y2="71.8"/>
		</g>
		<g>
			
				<line fill="none" stroke="#010101" stroke-width="0.5" stroke-linecap="round" stroke-linejoin="round" x1="136.5" y1="12.4" x2="130.6" y2="15.2"/>
			
				<line fill="none" stroke="#010101" stroke-width="0.5" stroke-linecap="round" stroke-linejoin="round" x1="136.3" y1="19.9" x2="128" y2="21.6"/>
			
				<line fill="none" stroke="#010101" stroke-width="0.5" stroke-linecap="round" stroke-linejoin="round" x1="136.4" y1="26.2" x2="125.6" y2="28.1"/>
			
				<line fill="none" stroke="#010101" stroke-width="0.5" stroke-linecap="round" stroke-linejoin="round" x1="137.9" y1="35" x2="123.5" y2="35.5"/>
			
				<line fill="none" stroke="#010101" stroke-width="0.5" stroke-linecap="round" stroke-linejoin="round" x1="135.7" y1="41.7" x2="119.4" y2="41.1"/>
			
				<line fill="none" stroke="#010101" stroke-width="0.5" stroke-linecap="round" stroke-linejoin="round" x1="132.2" y1="49.3" x2="116.8" y2="47.9"/>
			
				<line fill="none" stroke="#010101" stroke-width="0.5" stroke-linecap="round" stroke-linejoin="round" x1="129.5" y1="56.4" x2="114.4" y2="56.6"/>
			
				<line fill="none" stroke="#010101" stroke-width="0.5" stroke-linecap="round" stroke-linejoin="round" x1="124.1" y1="64.6" x2="107.2" y2="64.2"/>
			
				<line fill="none" stroke="#010101" stroke-width="0.5" stroke-linecap="round" stroke-linejoin="round" x1="117.5" y1="72" x2="101.1" y2="73.8"/>
		</g>
		<path fill="#FFFFFF" stroke="#010101" stroke-width="0.5" stroke-linecap="round" stroke-linejoin="round" d="M139.9,27.3
			c0,0-5.7,1.5-4.2,4.5c0,0-7,1-3.7,6.5c0,0,1.7,3.7,4.7,2.3c0,0-1.9,3,1,2.5c2.9-0.6,2.2-0.7,2.2-0.7"/>
		<path fill="#FFFFFF" stroke="#010101" stroke-width="0.5" stroke-miterlimit="10" d="M102.7,34.9c-0.2,1.3-1,2.4-1.5,3.6
			c1.5,1.2,3.4-1.3,4.1-2.5c-0.8,2-0.2,6.4,2.5,3.3c-0.5,2,0.6,2.3,2.2,3.1c-0.5,1.7-2.2,2.2-3.2,3.5c-0.6,0.8-0.9,1.9-1.4,2.7
			c-1-0.7-1.2-2.1-2.1-2.8c-0.6,0.5-2.5,3-3.3,2.9C99,48.7,98.1,46.5,97,46c0.4-1,1-2,1.4-3.1c-0.2-0.2-0.4-0.2-0.5-0.3
			c0.3-1.3,2.7-8,4.2-6.4"/>
		<path fill="#FFFFFF" stroke="#010101" stroke-width="0.5" stroke-miterlimit="10" d="M122.3,19.8c1.7-1.5,1.8-3.4,4.2-4.6
			c0.2,0.6-0.3,2.8,0.2,3.1c1.3,1.1,3.5-1.5,4.5-2.3c-0.2,0.5-1.2,2.3-0.9,2.9c0.7,1.4,2.3,0.2,3.4,0.3c-0.7,2-2.4,3.4-3.4,5.4
			c-0.6,1.3-0.8,2.4-1.3,3.7c-2.3-0.8-3.8-2.5-4.3-4.8c-0.7,1.4-3.2,6.1-3.5,2.3c-0.2-2.3,1.6-4.6,1.9-6.8"/>
		<path fill="#FFFFFF" stroke="#010101" stroke-width="0.5" stroke-miterlimit="10" d="M119.5,52.2c-0.1,1.4-2,3-2,4.4
			c0,1.9,2.3,3.2,4,3.3c-2,0.6-4,1.8-4.7,3.9c0.9,0.9,2.1,1.3,3.2,1.9c-0.9,0.4-5.4,2.7-2.9,3.7c-0.7,1.7-5.4-0.8-6.6-1.8
			c-2.5-2.2-1.6-4.8-0.5-7.5c1.6-3.8,5-7.9,9.7-7"/>
	</g>
</g>
<g id="water">
	<g>
		<path fill="#55C2E2" stroke="#070707" stroke-width="0.5" stroke-miterlimit="10" d="M187.7,139.4c0,0-36.1,41.7-4.2,51.2
			c0,0,26.1-0.6,14.6-30.9C198.1,159.7,188.2,148.1,187.7,139.4z"/>
		<path fill="none" stroke="#3A97AD" stroke-miterlimit="10" d="M185.5,187.3c5.2,2.4,13.5-10.3,12.9-14.9"/>
		
			<ellipse transform="matrix(0.7903 -0.6127 0.6127 0.7903 -72.9823 148.4383)" opacity="0.8" fill="#FFFFFF" cx="180.4" cy="180.8" rx="4.8" ry="5.8"/>
		<path opacity="0.8" fill="#FFFFFF" d="M177.1,157.7c0,0,4.7-11.6,10.3-14.6"/>
	</g>
	<g>
		<path fill="#55C2E2" stroke="#070707" stroke-width="0.5" stroke-miterlimit="10" d="M50.6,337.1c0,0-36.1,41.7-4.2,51.2
			c0,0,26.1-0.6,14.6-30.9C60.9,357.4,51.1,345.7,50.6,337.1z"/>
		<path fill="none" stroke="#3A97AD" stroke-miterlimit="10" d="M48.4,384.9c5.2,2.4,13.5-10.3,12.9-14.9"/>
		
			<ellipse transform="matrix(0.7903 -0.6127 0.6127 0.7903 -222.8192 105.8528)" opacity="0.8" fill="#FFFFFF" cx="43.2" cy="378.5" rx="4.8" ry="5.8"/>
		<path opacity="0.8" fill="#FFFFFF" d="M40,355.4c0,0,4.7-11.6,10.3-14.6"/>
	</g>
	<g>
		<path fill="#55C2E2" stroke="#070707" stroke-width="0.5" stroke-miterlimit="10" d="M21.2,160c0,0-21.7,25.1-2.5,30.8
			c0,0,15.7-0.4,8.8-18.6C27.4,172.2,21.5,165.2,21.2,160z"/>
		<path fill="none" stroke="#3A97AD" stroke-miterlimit="10" d="M19.9,188.8c3.1,1.4,8.1-6.2,7.7-9"/>
		
			<ellipse transform="matrix(0.7903 -0.6128 0.6128 0.7903 -111.5088 49.3445)" opacity="0.8" fill="#FFFFFF" cx="16.3" cy="187.6" rx="1.7" ry="2.1"/>
		<path opacity="0.8" fill="#FFFFFF" d="M14.8,171c0,0,2.8-7,6.2-8.8"/>
	</g>
	<g>
		<path fill="#55C2E2" stroke="#070707" stroke-width="0.5" stroke-miterlimit="10" d="M151.7,331.9c0,0-21.7,25.1-2.5,30.8
			c0,0,15.7-0.4,8.8-18.6C157.9,344.1,152,337.1,151.7,331.9z"/>
		<path fill="none" stroke="#3A97AD" stroke-miterlimit="10" d="M150.4,360.6c3.1,1.4,8.1-6.2,7.7-9"/>
		
			<ellipse transform="matrix(0.7904 -0.6126 0.6126 0.7904 -189.4165 165.2703)" opacity="0.8" fill="#FFFFFF" cx="146.8" cy="359.4" rx="1.7" ry="2.1"/>
		<path opacity="0.8" fill="#FFFFFF" d="M145.3,342.9c0,0,2.8-7,6.2-8.8"/>
	</g>
	<g>
		<path fill="#55C2E2" stroke="#070707" stroke-width="0.5" stroke-miterlimit="10" d="M186.4,299.5c0,0-13.5,15.7-1.6,19.2
			c0,0,9.8-0.2,5.5-11.6C190.3,307.1,186.6,302.8,186.4,299.5z"/>
		<path fill="none" stroke="#3A97AD" stroke-miterlimit="10" d="M185.6,317.5c1.9,0.9,5.1-3.9,4.8-5.6"/>
		
			<ellipse transform="matrix(0.7906 -0.6123 0.6123 0.7906 -154.5558 178.0844)" opacity="0.8" fill="#FFFFFF" cx="183.1" cy="315" rx="0.9" ry="1"/>
		<path opacity="0.8" fill="#FFFFFF" d="M182.5,306.4c0,0,1.8-4.4,3.9-5.5"/>
	</g>
	<g>
		<path fill="#55C2E2" stroke="#070707" stroke-width="0.5" stroke-miterlimit="10" d="M20.8,284.2c0,0-13.5,15.7-1.6,19.2
			c0,0,9.8-0.2,5.5-11.6C24.7,291.8,21,287.4,20.8,284.2z"/>
		<path fill="none" stroke="#3A97AD" stroke-miterlimit="10" d="M20,302.1c1.9,0.9,5.1-3.9,4.8-5.6"/>
		
			<ellipse transform="matrix(0.7904 -0.6126 0.6126 0.7904 -179.9266 73.5173)" opacity="0.8" fill="#FFFFFF" cx="17.5" cy="299.7" rx="0.9" ry="1"/>
		<path opacity="0.8" fill="#FFFFFF" d="M16.8,291c0,0,1.8-4.4,3.9-5.5"/>
	</g>
</g>
</svg>
