<?xml version="1.0" encoding="utf-8"?>
<!-- Generator: Adobe Illustrator 17.1.0, SVG Export Plug-In . SVG Version: 6.00 Build 0)  -->
<!DOCTYPE svg PUBLIC "-//W3C//DTD SVG 1.1//EN" "http://www.w3.org/Graphics/SVG/1.1/DTD/svg11.dtd">
<svg version="1.1" xmlns="http://www.w3.org/2000/svg" xmlns:xlink="http://www.w3.org/1999/xlink" x="0px" y="0px"
	 viewBox="0 0 199.6 371.5" enable-background="new 0 0 199.6 371.5" xml:space="preserve">
<pattern  x="-222.4" y="-178.5" width="8.7" height="8.7" patternUnits="userSpaceOnUse" id="New_Pattern_Swatch_12" viewBox="0 -8.7 8.7 8.7" overflow="visible">
	<g>
		<polygon fill="none" points="8.7,0 0,0 0,-8.7 8.7,-8.7 		"/>
		<g>
			<path fill="#010101" d="M5-4.5c0,0.4-0.3,0.7-0.7,0.7C4-3.8,3.7-4.1,3.7-4.5c0-0.4,0.3-0.7,0.7-0.7C4.7-5.2,5-4.9,5-4.5z"/>
		</g>
	</g>
</pattern>
<g id="legs">
	<path fill="#FFFFFF" stroke="#010101" stroke-miterlimit="10" d="M140.8,210.6c0,0,0.1-0.2,0.3-0.7c2-4.8,12.9-33.2,4.5-50
		c0,0,1.5,8.8,1,9.8c0,0-6.5-32.2-16.4-35c0,0,9.9,13.7,10.9,25.5c0,0.3,0,0.7,0.1,1c0,0-3.5-9.8-6-9.8c0,0,7.5,17.8,9.2,25.5
		c0,0,2.5,14.5-4.8,30.8L140.8,210.6z"/>
	<path fill="#FFFFFF" stroke="#010101" stroke-miterlimit="10" d="M131.5,204.4c0,0,5.4-1.2,8.1,0c2.8,1.2,1,0,1,0l0.5,6.6
		c0,0-4.3,5.9-12.1,6.5C129.1,217.5,133.1,208.6,131.5,204.4z"/>
	<path fill="#FFFFFF" stroke="#010101" stroke-miterlimit="10" d="M34.9,212.6c0,0-0.1-0.2-0.3-0.7c-2-4.8-12.9-33.2-4.5-50
		c0,0-1.5,8.8-1,9.8c0,0,6.5-32.2,16.4-35c0,0-9.9,13.7-10.9,25.5c0,0.3,0,0.7-0.1,1c0,0,3.5-9.8,6-9.8c0,0-7.5,17.8-9.2,25.5
		c0,0-2.5,14.5,4.8,30.8L34.9,212.6z"/>
	<path fill="#FFFFFF" stroke="#010101" stroke-miterlimit="10" d="M44.3,206.4c0,0-5.4-1.2-8.1,0c-2.8,1.2-1,0-1,0l-0.5,6.6
		c0,0,4.3,5.9,12.1,6.5C46.7,219.5,42.7,210.6,44.3,206.4z"/>
	<path fill="#FFFFFF" stroke="#010101" stroke-miterlimit="10" d="M129.1,235.2c0,0,8.8-2.6,9.1,1.4s-5.2,7-5.2,7L129.1,235.2z"/>
	<path fill="#FFFFFF" stroke="#010101" stroke-miterlimit="10" d="M138.1,236.6c0,0,16.2,1.8,19.8,37.8c0,0-1.2-5.8-2.8-6.2
		c0,0,7.5,31.8,7.2,39.5s0,1,0,1s-5.8-34.8-11-39.2c0,0,0-21.7-13.2-30.4V236.6z"/>
	<path fill="#FFFFFF" stroke="#010101" stroke-miterlimit="10" d="M50,235.2c0,0-8.8-2.6-9.1,1.4s5.2,7,5.2,7L50,235.2z"/>
	<path fill="#FFFFFF" stroke="#010101" stroke-miterlimit="10" d="M40.9,236.6c0,0-16.3,1.8-19.8,37.8c0,0,1.2-5.8,2.8-6.2
		c0,0-7.5,31.8-7.2,39.5s0,1,0,1s5.8-34.8,11-39.2c0,0,0-21.7,13.3-30.4V236.6z"/>
	<path fill="#FFFFFF" stroke="#010101" stroke-miterlimit="10" d="M136.8,270.8c0,0,8.9,2,9.6,18.5l-8.2,1.5c0,0,2.5-7.1-1.4-15.2
		V270.8z"/>
	<path fill="#FFFFFF" stroke="#010101" stroke-miterlimit="10" d="M143.2,289.9c0,0,6,11.1,2,21.4s-5,19-2,25.8c0,0-6.2-1.8-5-9.5
		c1.2-7.8,4.1-21.8,4.1-21.8s0.1-10.8-1.6-15L143.2,289.9z"/>
	<path fill="#FFFFFF" stroke="#010101" stroke-miterlimit="10" d="M42.6,270.8c0,0-8.9,2-9.6,18.5l8.2,1.5c0,0-2.5-7.1,1.4-15.2
		V270.8z"/>
	<path fill="#FFFFFF" stroke="#010101" stroke-miterlimit="10" d="M36.2,289.9c0,0-6,11.1-2,21.4s5,19,2,25.8c0,0,6.2-1.8,5-9.5
		c-1.2-7.8-4.1-21.8-4.1-21.8s-0.1-10.8,1.6-15L36.2,289.9z"/>
</g>
<g id="basebody">
	<path fill="#FFFFFF" stroke="#010101" stroke-miterlimit="10" d="M130.3,181.1c0,0,2-47.2-19.8-45.2c0,0-4.4,0-10.1,6.3
		c0,0-10.6,2.3-12.7-4H86c-2,6.3-12.7,4-12.7,4c-5.7-6.3-10.1-6.3-10.1-6.3c-21.7-2-19.8,45.2-19.8,45.2S90.2,223,130.3,181.1z"/>
	<path fill="#FFFFFF" stroke="#010101" stroke-miterlimit="10" d="M51.4,231.8c0,0-10.7-17.9-10-51.2c0,0,10.7,0.7,18,7.7
		c7.3,7,59,0,59,0s7.3-9.7,15-7.7c0,0-1,41.8-11.7,51.2C121.7,231.8,92.7,244.7,51.4,231.8z"/>
	<path fill="#FFFFFF" stroke="#010101" stroke-miterlimit="10" d="M45.7,240.1c0,0-21.5,95.5,28,122.5c0,0,11,2.5,14.5,0v-121
		c0,0-7-12.5-11-12s-25,2-25,2S47.2,232.1,45.7,240.1z"/>
	<path fill="#FFFFFF" stroke="#010101" stroke-miterlimit="10" d="M132.1,240.1c0,0,21.5,95.5-28,122.5c0,0-11,2.5-14.5,0v-121
		c0,0,7-12.5,11-12s25,2,25,2S130.6,232.1,132.1,240.1z"/>
	<path fill="#FFFFFF" stroke="#010101" stroke-miterlimit="10" d="M77.7,110.6c-4-1.2-2.7-6-2.7-6c11.3-9.1,8.3-13,8.3-13
		c-27,7.7-20.1,44.3-20.1,44.3c6.9,1.3,5.8,6.7,13.8,6.7c0.3,0,0.7,0,1,0c6.9-0.5,5.7-6.8,5.7-6.8s1-2.6-3.3-4.3
		c-4.3-1.7-2.3-13.3-2.3-13.3s4.2-2.6,4.3-4.5c0.1-1.9,0,0,0,0L77.7,110.6z"/>
	<path fill="#FFFFFF" stroke="#010101" stroke-miterlimit="10" d="M95.6,110.6c4-1.2,2.7-6,2.7-6c-11.3-9.1-8.3-13-8.3-13
		c27,7.7,20.1,44.3,20.1,44.3c-6.9,1.3-5.8,6.7-13.8,6.7c-0.3,0-0.7,0-1,0c-6.9-0.5-5.7-6.8-5.7-6.8s-1-2.6,3.3-4.3
		c4.3-1.7,2.3-13.3,2.3-13.3s-4.3-2.6-4.3-4.5c-0.1-1.9,0,0,0,0L95.6,110.6z"/>
	<path fill="#FFFFFF" stroke="#010101" stroke-miterlimit="10" d="M82.4,113.8"/>
</g>
<g id="bodycolor">
	<path fill="#D0DD28" stroke="#010101" stroke-miterlimit="10" d="M130.9,181.1c0,0,2-47.2-19.8-45.2c0,0-4.4,0-10.1,6.3
		c0,0-10.6,2.3-12.7-4h-1.8c-2,6.3-12.7,4-12.7,4c-5.7-6.3-10.1-6.3-10.1-6.3c-21.7-2-19.8,45.2-19.8,45.2S90.9,223,130.9,181.1z"/>
	<path fill="#6CBE45" stroke="#010101" stroke-miterlimit="10" d="M52,231.8c0,0-10.7-17.9-10-51.2c0,0,10.7,0.7,18,7.7
		c7.3,7,59,0,59,0s7.3-9.7,15-7.7c0,0-1,41.8-11.7,51.2C122.4,231.8,93.4,244.7,52,231.8z"/>
	<path fill="#D0DD28" stroke="#010101" stroke-miterlimit="10" d="M46.4,240.1c0,0-21.5,95.5,28,122.5c0,0,11,2.5,14.5,0v-121
		c0,0-7-12.5-11-12s-25,2-25,2S47.9,232.1,46.4,240.1z"/>
	<path fill="#D0DD28" stroke="#010101" stroke-miterlimit="10" d="M132.7,240.1c0,0,21.5,95.5-28,122.5c0,0-11,2.5-14.5,0v-121
		c0,0,7-12.5,11-12s25,2,25,2S131.2,232.1,132.7,240.1z"/>
	<path fill="#FFFFFF" stroke="#000000" stroke-miterlimit="10" d="M78.4,110.6c-4-1.2-2.7-6-2.7-6c11.3-9.1,8.3-13,8.3-13
		c-27,7.7-20.1,44.3-20.1,44.3c6.9,1.3,5.8,6.7,13.8,6.7c0.3,0,0.7,0,1,0c6.9-0.5,5.7-6.8,5.7-6.8s1-2.6-3.3-4.3
		c-4.3-1.7-2.3-13.3-2.3-13.3s4.2-2.6,4.3-4.5c0.1-1.9,0,0,0,0L78.4,110.6z"/>
	<path fill="#FFFFFF" stroke="#000000" stroke-miterlimit="10" d="M96.3,110.6c4-1.2,2.7-6,2.7-6c-11.3-9.1-8.3-13-8.3-13
		c27,7.7,20.1,44.3,20.1,44.3c-6.9,1.3-5.8,6.7-13.8,6.7c-0.3,0-0.7,0-1,0c-6.9-0.5-5.7-6.8-5.7-6.8s-1-2.6,3.3-4.3
		c4.3-1.7,2.3-13.3,2.3-13.3s-4.3-2.6-4.3-4.5c-0.1-1.9,0,0,0,0L96.3,110.6z"/>
	<path fill="#6CBE45" stroke="#010101" stroke-miterlimit="10" d="M83,113.8"/>
</g>
<g id="eyes">
	<path fill="#FFFFFF" stroke="#010101" stroke-miterlimit="10" d="M46.8,155.7c0,0,0.1-19.7,14.6-19.2
		C61.4,136.6,65.5,154,46.8,155.7z"/>
	<path fill="#FFFFFF" stroke="#010101" stroke-miterlimit="10" d="M128.3,155.7c0,0-0.1-19.7-14.6-19.2
		C113.7,136.6,109.7,154,128.3,155.7z"/>
</g>
<g id="antennae">
	<path fill="none" stroke="#010101" stroke-width="0.5" stroke-miterlimit="10" d="M111,136.9c0,0,3.7-10.6,13-11.9
		c9.3-1.3,15.6-8.6,17.2-12.2"/>
	<path fill="none" stroke="#010101" stroke-width="0.5" stroke-miterlimit="10" d="M62.8,135.7c0,0-3.7-10.6-13-11.9
		c-9.3-1.3-15.6-8.6-17.2-12.2"/>
</g>
<g id="markings">
	<path fill="#010101" d="M73.5,343.3c0,0-19-42,0-84.9"/>
	<path fill="#010101" d="M105.6,343.3c0,0,19-42,0-84.9"/>
</g>
<g id="dots">
	<path fill="url(#New_Pattern_Swatch_12)" stroke="#0C0C0C" stroke-miterlimit="10" d="M44.3,181.2"/>
	<path fill="url(#New_Pattern_Swatch_12)" stroke="#0C0C0C" stroke-miterlimit="10" d="M131.1,181.2c1.9,0.5-2.8-25.5-2.8-25.5
		c-18.5-1.7-14.6-19.2-14.6-19.2l-2.4-0.5c0,0-4.4,0-10.1,6.3c0,0-10.6,2.3-12.7-4h-1.8c-2,6.3-12.7,4-12.7,4
		c-5.7-6.3-10.1-6.3-10.1-6.3l-2.6,0.5c0,0,4.1,17.7-14.6,19.2c0,0-5.6,20.8-2.6,24.6c0,0,12,2.7,15.8,7.9c0,0,8.3,7.1,58.4,0
		C118.4,188.3,124,179.4,131.1,181.2z"/>
	<path fill="url(#New_Pattern_Swatch_12)" stroke="#0C0C0C" stroke-miterlimit="10" d="M46.5,241c0,0-21.5,95.5,28,122.5
		c0,0,11,2.5,14.5,0v-121c0,0-7-12.5-11-12s-25,2-25,2S48,233,46.5,241z"/>
	<path fill="url(#New_Pattern_Swatch_12)" stroke="#0C0C0C" stroke-miterlimit="10" d="M132.2,241c0,0,21.5,95.5-28,122.5
		c0,0-11,2.5-14.5,0v-121c0,0,7-12.5,11-12s25,2,25,2S130.7,233,132.2,241z"/>
</g>
<g id="fur">
	<g>
		<g>
			<path fill="none" stroke="#010101" stroke-miterlimit="10" d="M94.7,91"/>
		</g>
	</g>
	<g>
		<g>
			<path fill="none" stroke="#010101" stroke-miterlimit="10" d="M-88.5,353"/>
		</g>
	</g>
	<g>
		<g>
			<g>
				<g>
					<path fill="none" stroke="#010101" stroke-miterlimit="10" d="M92.2,367.4c0,0-1.1-0.6-2.1-1.2c-1.1-0.6-1.9-1.5-1.9-1.5
						s0,0.3,0,0.8c0,0.5-0.1,1.1-0.3,1.8c-0.3,1.3-1,2.5-1,2.5"/>
				</g>
				<g>
					<path fill="none" stroke="#010101" stroke-miterlimit="10" d="M85.8,370c0,0-0.7-1-1.3-2.1c-0.6-1.1-1.1-2.2-1.1-2.2
						s-0.6,1.1-1.3,2.2c-0.7,1.1-1.5,2.2-1.5,2.2"/>
				</g>
				<g>
					<path fill="none" stroke="#010101" stroke-miterlimit="10" d="M79.7,370c0,0-0.4-1.2-0.8-2.3c-0.4-1.2-0.7-2.4-0.7-2.4
						c0,0-0.8,1-1.6,2c-0.8,1-1.7,2-1.7,2"/>
				</g>
				<g>
					<path fill="none" stroke="#010101" stroke-miterlimit="10" d="M73.8,369.1c0,0-0.3-1.2-0.6-2.4c-0.1-0.3-0.1-0.6-0.2-0.9
						c0-0.1-0.1-0.3-0.1-0.4l0-0.1l0,0l0,0v0c-0.2-0.1,0.3,0.1,0.2,0.1v0v0l0,0c0-0.1,0-0.1,0-0.2c0-0.5,0.1-0.8,0.1-0.8
						s-1.1,0.7-2.3,1.3c-1.2,0.6-2.4,1.2-2.4,1.2"/>
				</g>
				<g>
					<path fill="none" stroke="#010101" stroke-miterlimit="10" d="M67.8,366.4c0,0,0.2-1.2,0.4-2.5c0.2-1.2,0.4-2.4,0.4-2.4
						c0,0-1.2,0.6-2.4,1.1c-1.2,0.5-2.5,1-2.5,1"/>
				</g>
				<g>
					<path fill="none" stroke="#010101" stroke-miterlimit="10" d="M63,362.9c0,0,0.3-1.2,0.6-2.4c0.3-1.2,0.7-2.4,0.7-2.4
						s-1.2,0.4-2.5,0.8c-1.3,0.4-2.6,0.7-2.6,0.7"/>
				</g>
				<g>
					<path fill="none" stroke="#010101" stroke-miterlimit="10" d="M58.6,359c0,0,0.4-1.2,0.9-2.3c0.5-1.2,0.9-2.3,0.9-2.3
						s-1.3,0.3-2.6,0.5c-1.3,0.2-2.6,0.4-2.6,0.4"/>
				</g>
				<g>
					<path fill="none" stroke="#010101" stroke-miterlimit="10" d="M54.7,354.6c0,0,0.5-1.1,1.1-2.2c0.6-1.1,1.2-2.2,1.2-2.2
						s-1.3,0.2-2.6,0.3c-1.3,0.1-2.6,0.2-2.6,0.2"/>
				</g>
				<g>
					<path fill="none" stroke="#010101" stroke-miterlimit="10" d="M51.2,349.9c0,0,0.6-1.1,1.3-2.1c0.7-1,1.4-2.1,1.4-2.1
						s-1.3,0-2.6,0c-1.3,0-2.6,0-2.6,0"/>
				</g>
				<g>
					<path fill="none" stroke="#010101" stroke-miterlimit="10" d="M48.1,344.9c0,0,0.7-1,1.5-2c0.8-1,1.5-1.9,1.5-1.9
						s-1.3-0.1-2.6-0.2c-1.3-0.1-2.6-0.3-2.6-0.3"/>
				</g>
				<g>
					<path fill="none" stroke="#010101" stroke-miterlimit="10" d="M45.5,339.7c0,0,0.8-0.9,1.6-1.9c0.8-0.9,1.7-1.8,1.7-1.8
						s-1.3-0.2-2.6-0.4c-1.3-0.2-2.6-0.4-2.6-0.4"/>
				</g>
				<g>
					<path fill="none" stroke="#010101" stroke-miterlimit="10" d="M43.2,334.4c0,0,0.9-0.9,1.7-1.8c0.9-0.9,1.8-1.7,1.8-1.7
						s-1.3-0.2-2.6-0.5c-1.3-0.3-2.6-0.6-2.6-0.6"/>
				</g>
				<g>
					<path fill="none" stroke="#010101" stroke-miterlimit="10" d="M41.3,328.9c0,0,0.9-0.8,1.9-1.6c0.9-0.8,1.9-1.6,1.9-1.6
						s-1.3-0.3-2.5-0.7c-1.3-0.4-2.5-0.7-2.5-0.7"/>
				</g>
				<g>
					<path fill="none" stroke="#010101" stroke-miterlimit="10" d="M39.7,323.4c0,0,1-0.8,1.9-1.5c1-0.8,2-1.5,2-1.5
						s-1.2-0.4-2.5-0.8c-1.2-0.4-2.5-0.9-2.5-0.9"/>
				</g>
				<g>
					<path fill="none" stroke="#010101" stroke-miterlimit="10" d="M38.5,317.7c0,0,1-0.7,2-1.4c1-0.7,2-1.4,2-1.4s-1.2-0.5-2.5-0.9
						c-1.2-0.5-2.4-1-2.4-1"/>
				</g>
				<g>
					<path fill="none" stroke="#010101" stroke-miterlimit="10" d="M37.5,312.1c0,0,1-0.7,2.1-1.4c1-0.7,2.1-1.3,2.1-1.3
						s-1.2-0.5-2.4-1c-1.2-0.5-2.4-1.1-2.4-1.1"/>
				</g>
				<g>
					<path fill="none" stroke="#010101" stroke-miterlimit="10" d="M36.7,306.4c0,0,1.1-0.6,2.1-1.3c1.1-0.6,2.1-1.2,2.1-1.2
						s-1.2-0.6-2.4-1.1c-1.2-0.6-2.4-1.2-2.4-1.2"/>
				</g>
				<g>
					<path fill="none" stroke="#010101" stroke-miterlimit="10" d="M36.1,300.7c0,0,1.1-0.6,2.2-1.2c1.1-0.6,2.2-1.2,2.2-1.2
						s-1.2-0.6-2.3-1.2c-1.2-0.6-2.3-1.2-2.3-1.2"/>
				</g>
				<g>
					<path fill="none" stroke="#010101" stroke-miterlimit="10" d="M35.8,295c0,0,1.1-0.6,2.2-1.1c1.1-0.5,2.2-1.1,2.2-1.1
						s-1.1-0.6-2.3-1.3c-1.1-0.7-2.3-1.3-2.3-1.3"/>
				</g>
				<g>
					<path fill="none" stroke="#010101" stroke-miterlimit="10" d="M35.6,289.3c0,0,1.1-0.5,2.2-1c1.1-0.5,2.2-1,2.2-1
						s-1.1-0.7-2.3-1.3c-1.1-0.7-2.2-1.4-2.2-1.4"/>
				</g>
				<g>
					<path fill="none" stroke="#010101" stroke-miterlimit="10" d="M35.6,283.6l4.5-1.9c0,0-1.1-0.7-2.2-1.4
						c-1.1-0.7-2.2-1.4-2.2-1.4"/>
				</g>
				<g>
					<path fill="none" stroke="#010101" stroke-miterlimit="10" d="M35.8,277.9l4.6-1.8c0,0-1.1-0.7-2.2-1.5
						c-1.1-0.7-2.2-1.5-2.2-1.5"/>
				</g>
				<g>
					<path fill="none" stroke="#010101" stroke-miterlimit="10" d="M36.1,272.2l4.6-1.7c0,0-1.1-0.8-2.1-1.5
						c-1.1-0.8-2.1-1.5-2.1-1.5"/>
				</g>
				<g>
					<path fill="none" stroke="#010101" stroke-miterlimit="10" d="M36.5,266.5l4.7-1.6c0,0-1.1-0.8-2.1-1.6c-1-0.8-2.1-1.6-2.1-1.6
						"/>
				</g>
				<g>
					<path fill="none" stroke="#010101" stroke-miterlimit="10" d="M37.1,260.8l4.7-1.5c0,0-1-0.8-2.1-1.6c-1-0.8-2.1-1.6-2.1-1.6"
						/>
				</g>
				<g>
					<path fill="none" stroke="#010101" stroke-miterlimit="10" d="M37.8,255.2l4.7-1.4c0,0-1-0.8-2-1.7c-1-0.8-2-1.7-2-1.7"/>
				</g>
				<g>
					<path fill="none" stroke="#010101" stroke-miterlimit="10" d="M38.6,249.6l4.8-1.3c0,0-1-0.9-2-1.7c-1-0.9-2-1.7-2-1.7"/>
				</g>
				<g>
					<path fill="none" stroke="#010101" stroke-miterlimit="10" d="M39.6,243.9c0,0,1.2-0.3,2.4-0.6c1.2-0.3,2.4-0.6,2.4-0.6
						s-1-0.9-1.9-1.8c-0.2-0.2-0.5-0.5-0.7-0.7c-0.2-0.2-0.4-0.4-0.6-0.6c-0.4-0.3-0.6-0.6-0.6-0.6"/>
				</g>
				<g>
					<path fill="none" stroke="#010101" stroke-miterlimit="10" d="M40.8,238.2c0,0,1.2-0.3,2.5-0.4c1.2-0.2,2.4-0.2,2.4-0.2
						s-0.8-1-1.5-2.1c-0.7-1.1-1.2-2.4-1.2-2.4"/>
				</g>
				<g>
					<path fill="none" stroke="#010101" stroke-miterlimit="10" d="M43.5,232.3c0,0,1.3,0.2,2.5,0.5c1.2,0.3,2.3,0.9,2.3,0.9
						s-0.4-1.2-0.5-2.5c-0.1-1.3,0.1-2.7,0.1-2.7"/>
				</g>
				<g>
					<path fill="none" stroke="#010101" stroke-miterlimit="10" d="M48.9,227.9c0,0,1.1,0.8,1.9,1.7c0.9,0.9,1.4,2,1.3,2
						c-0.1,0,0.5-1.2,1.1-2.3c0.6-1.2,1.2-2.3,1.2-2.3"/>
				</g>
				<g>
					<polyline fill="none" stroke="#010101" stroke-miterlimit="10" points="55.3,226.8 57.7,231.2 60,226.5 					"/>
				</g>
				<g>
					<polyline fill="none" stroke="#010101" stroke-miterlimit="10" points="60.9,226.4 63.3,230.7 65.6,226 					"/>
				</g>
				<g>
					<polyline fill="none" stroke="#010101" stroke-miterlimit="10" points="66.5,226 68.9,230.3 71.2,225.6 					"/>
				</g>
				<g>
					<path fill="none" stroke="#010101" stroke-miterlimit="10" d="M72.1,225.5l2.4,4.3c0,0,0.6-1.2,1.1-2.4c0.6-1.2,1-2.4,1.1-2.4"
						/>
				</g>
			</g>
		</g>
	</g>
	<g>
		<g>
			<g>
				<g>
					<path fill="none" stroke="#010101" stroke-miterlimit="10" d="M101,224.2c0.1,0,0.4,1.2,0.8,2.4c0.4,1.2,0.8,2.3,0.8,2.3
						l3.1-4.3"/>
				</g>
				<g>
					<polyline fill="none" stroke="#010101" stroke-miterlimit="10" points="106.6,224.7 108.2,229.3 111.3,225 					"/>
				</g>
				<g>
					<polyline fill="none" stroke="#010101" stroke-miterlimit="10" points="112.2,225.1 113.9,229.8 116.9,225.5 					"/>
				</g>
				<g>
					<polyline fill="none" stroke="#010101" stroke-miterlimit="10" points="117.8,225.5 119.5,230.2 122.5,225.9 					"/>
				</g>
				<g>
					<path fill="none" stroke="#010101" stroke-miterlimit="10" d="M123.4,226l1.7,4.6c0.2-0.3,0.4-0.5,0.5-0.5
						c0.3-0.6,0.8-1.2,1.4-1.7c0.6-0.5,1.2-1,1.9-1.4"/>
				</g>
				<g>
					<path fill="none" stroke="#010101" stroke-miterlimit="10" d="M129.9,227.5c0,0,0,1.3-0.2,2.5c-0.2,1.2-0.6,2.4-0.6,2.4
						s1.2-0.5,2.5-0.7c1.3-0.3,2.7-0.2,2.7-0.2"/>
				</g>
				<g>
					<path fill="none" stroke="#010101" stroke-miterlimit="10" d="M134.9,232.3c0,0-0.6,1.1-1.4,2.1c-0.8,1-1.6,1.8-1.6,1.8
						s1.3,0.1,2.6,0.4c1.3,0.3,2.6,0.7,2.6,0.7"/>
				</g>
				<g>
					<path fill="none" stroke="#010101" stroke-miterlimit="10" d="M137.3,238.3c0,0-0.2,0.2-0.6,0.5c-0.4,0.3-0.9,0.6-1.4,1
						c-1,0.7-2,1.4-2,1.4s1.2,0.4,2.5,0.9c1.2,0.5,2.5,0.9,2.5,0.9"/>
				</g>
				<g>
					<path fill="none" stroke="#010101" stroke-miterlimit="10" d="M138.4,243.9c0,0-1,0.7-2,1.4c-1,0.7-2,1.4-2,1.4s1.2,0.5,2.4,1
						c1.2,0.5,2.4,1,2.4,1"/>
				</g>
				<g>
					<path fill="none" stroke="#010101" stroke-miterlimit="10" d="M139.3,249.6l-4.2,2.7c0,0,1.2,0.5,2.4,1c1.2,0.5,2.4,1,2.4,1"/>
				</g>
				<g>
					<path fill="none" stroke="#010101" stroke-miterlimit="10" d="M140.1,255.2l-4.2,2.6c0,0,1.2,0.5,2.4,1.1
						c1.2,0.5,2.4,1.1,2.4,1.1"/>
				</g>
				<g>
					<path fill="none" stroke="#010101" stroke-miterlimit="10" d="M140.8,260.8l-4.3,2.5c0,0,1.2,0.6,2.4,1.1
						c1.2,0.6,2.4,1.2,2.4,1.2"/>
				</g>
				<g>
					<path fill="none" stroke="#010101" stroke-miterlimit="10" d="M141.3,266.5l-4.3,2.4c0,0,1.2,0.6,2.3,1.2
						c1.2,0.6,2.3,1.2,2.3,1.2"/>
				</g>
				<g>
					<path fill="none" stroke="#010101" stroke-miterlimit="10" d="M141.8,272.2l-4.4,2.3c0,0,1.2,0.6,2.3,1.2
						c1.2,0.6,2.3,1.3,2.3,1.3"/>
				</g>
				<g>
					<path fill="none" stroke="#010101" stroke-miterlimit="10" d="M142,277.9l-4.4,2.2c0,0,1.1,0.6,2.3,1.3
						c1.1,0.7,2.3,1.3,2.3,1.3"/>
				</g>
				<g>
					<path fill="none" stroke="#010101" stroke-miterlimit="10" d="M142.2,283.6l-4.5,2.1c0,0,1.1,0.7,2.2,1.4
						c1.1,0.7,2.2,1.4,2.2,1.4"/>
				</g>
				<g>
					<path fill="none" stroke="#010101" stroke-miterlimit="10" d="M142.1,289.3c0,0-1.1,0.5-2.3,1c-1.1,0.5-2.3,0.9-2.3,0.9
						s1.1,0.7,2.2,1.4c1.1,0.7,2.2,1.5,2.2,1.5"/>
				</g>
				<g>
					<path fill="none" stroke="#010101" stroke-miterlimit="10" d="M141.9,295c0,0-1.2,0.5-2.3,0.9c-1.2,0.4-2.3,0.9-2.3,0.9
						s1.1,0.7,2.2,1.5c1.1,0.8,2.1,1.5,2.1,1.5"/>
				</g>
				<g>
					<path fill="none" stroke="#010101" stroke-miterlimit="10" d="M141.5,300.7c0,0-1.2,0.4-2.3,0.8c-1.2,0.4-2.3,0.8-2.3,0.8
						s1.1,0.8,2.1,1.6c1,0.8,2.1,1.6,2.1,1.6"/>
				</g>
				<g>
					<path fill="none" stroke="#010101" stroke-miterlimit="10" d="M141,306.4c0,0-1.2,0.4-2.4,0.7c-1.2,0.3-2.4,0.7-2.4,0.7
						s1,0.8,2,1.6c1,0.8,2,1.7,2,1.7"/>
				</g>
				<g>
					<path fill="none" stroke="#010101" stroke-miterlimit="10" d="M140.1,312c0,0-1.2,0.3-2.4,0.6c-1.2,0.3-2.4,0.6-2.4,0.6
						s1,0.9,2,1.7c1,0.9,1.9,1.8,1.9,1.8"/>
				</g>
				<g>
					<path fill="none" stroke="#010101" stroke-miterlimit="10" d="M139.1,317.7c0,0-1.2,0.3-2.4,0.5c-1.2,0.2-2.4,0.5-2.4,0.5
						s0.9,0.9,1.9,1.8c0.9,0.9,1.9,1.9,1.9,1.9"/>
				</g>
				<g>
					<path fill="none" stroke="#010101" stroke-miterlimit="10" d="M137.7,323.3c0,0-1.2,0.2-2.4,0.4c-1.2,0.2-2.4,0.4-2.4,0.4
						s0.9,1,1.8,1.9c0.9,1,1.7,2,1.7,2"/>
				</g>
				<g>
					<path fill="none" stroke="#010101" stroke-miterlimit="10" d="M136.1,328.8c0,0-1.2,0.1-2.5,0.3c-1.2,0.1-2.5,0.2-2.5,0.2
						s0.8,1,1.7,2c0.8,1,1.6,2.1,1.6,2.1"/>
				</g>
				<g>
					<path fill="none" stroke="#010101" stroke-miterlimit="10" d="M134.1,334.3c0,0-1.2,0.1-2.5,0.1c-1.2,0-2.5,0.1-2.5,0.1
						s0.8,1,1.5,2.1c0.8,1.1,1.5,2.2,1.5,2.2"/>
				</g>
				<g>
					<path fill="none" stroke="#010101" stroke-miterlimit="10" d="M131.8,339.6c0,0-1.2,0-2.5-0.1c-1.2,0-2.5-0.1-2.5-0.1
						s0.7,1.1,1.4,2.2c0.7,1.1,1.3,2.3,1.3,2.3"/>
				</g>
				<g>
					<path fill="none" stroke="#010101" stroke-miterlimit="10" d="M129.1,344.8c0,0-1.2-0.1-2.5-0.2c-1.2-0.2-2.4-0.3-2.4-0.3
						s0.6,1.1,1.2,2.3c0.6,1.2,1.1,2.4,1.1,2.4"/>
				</g>
				<g>
					<path fill="none" stroke="#010101" stroke-miterlimit="10" d="M126,349.7c0,0-1.2-0.2-2.4-0.5c-1.2-0.2-2.4-0.5-2.4-0.5
						s0.5,1.2,1,2.4c0.5,1.2,0.9,2.5,0.9,2.5"/>
				</g>
				<g>
					<path fill="none" stroke="#010101" stroke-miterlimit="10" d="M122.4,354.4c0,0-1.2-0.3-2.4-0.7c-1.2-0.4-2.3-0.7-2.3-0.7
						s0.4,1.2,0.7,2.5c0.4,1.3,0.6,2.6,0.6,2.6"/>
				</g>
				<g>
					<path fill="none" stroke="#010101" stroke-miterlimit="10" d="M118.4,358.7c0,0-1.2-0.4-2.3-0.9c-1.1-0.5-2.3-1-2.3-1
						s0.3,1.3,0.5,2.6c0.2,1.3,0.4,2.6,0.4,2.6"/>
				</g>
				<g>
					<path fill="none" stroke="#010101" stroke-miterlimit="10" d="M113.9,362.6c0,0-1.1-0.6-2.2-1.1c-1.1-0.6-2.1-1.2-2.1-1.2
						s0.1,1.3,0.2,2.6c0.1,1.3,0.1,2.6,0.1,2.6"/>
				</g>
				<g>
					<path fill="none" stroke="#010101" stroke-miterlimit="10" d="M109.1,366c0,0-1-0.7-2.1-1.4c-0.5-0.4-1-0.7-1.4-1
						c-0.2-0.1-0.3-0.2-0.4-0.3c-0.1-0.1-0.2-0.1-0.2-0.1s0,0.3,0,0.8c0,0.5,0,1.2-0.2,1.8c-0.5,1.3-0.9,2.5-0.9,2.5"/>
				</g>
				<g>
					<path fill="none" stroke="#010101" stroke-miterlimit="10" d="M103,368.4c0,0-0.7-1-1.4-2.1c-0.7-1-1.3-2.1-1.3-2.1
						s-0.5,1.2-1,2.4c-0.5,1.2-1.2,2.4-1.2,2.4"/>
				</g>
				<g>
					<path fill="none" stroke="#010101" stroke-miterlimit="10" d="M97.1,369.1c0,0-0.6-1.1-1.2-2.2c-0.6-1.1-1-2.2-1-2.2
						s-0.6,1.1-1.4,2.2c-0.7,1.1-1.7,2.1-1.7,2.1"/>
				</g>
				<g>
					<path fill="none" stroke="#010101" stroke-miterlimit="10" d="M90.8,368.9c0,0-0.4-1.2-0.6-2.4c-0.2-1.2-0.2-2.4-0.2-2.4
						c0,0-0.9,0.9-2.1,1.5c-0.6,0.3-1.2,0.5-1.7,0.7c-0.5,0.2-0.8,0.3-0.8,0.3"/>
				</g>
			</g>
		</g>
	</g>
	<g>
		<g>
			<g>
				<g>
					<polyline fill="none" stroke="#010101" stroke-miterlimit="10" points="77.1,225.1 78.2,229.6 79.6,225.1 					"/>
				</g>
				<g>
					<polyline fill="none" stroke="#010101" stroke-miterlimit="10" points="84.5,227.4 82.9,232.5 88.7,232.3 					"/>
				</g>
				<g>
					<polyline fill="none" stroke="#010101" stroke-miterlimit="10" points="89.9,232.4 94.5,234.5 94,229.1 					"/>
				</g>
				<g>
					<polyline fill="none" stroke="#010101" stroke-miterlimit="10" points="94.7,228.4 99.3,230.5 98.8,225.1 					"/>
				</g>
			</g>
		</g>
	</g>
</g>
<g id="leaf">
	<g>
		<path fill="#A8CF38" stroke="#010101" stroke-width="0.5" stroke-linecap="round" stroke-linejoin="round" d="M83.9,79.1
			c0,0-8.6-15-7.4-22.4l2.1,0.7c0,0-1.8-2.2,0.2-11.3l1.7,1.5c0,0-1.5-4.5,1.4-10.4l1.7,1.5c0,0,0.8-4.1,2.5-8.3l1.9,1.2
			c0,0-0.4-5,1.3-8.5l1.7,1.5c0,0,0.7-6.3,4.1-7.5l0.5,1.5c0,0,2.3-3.9,5.8-6l1.6,1.7c0,0-0.1-3.9,4.3-5.5l0.9,1.4
			c0,0,0.5-5.2,4.6-6l1.2,2.5c0,0,7.1-6.6,8.7-6.8l2.6,1.3c0.3,1.2-0.1,11-0.1,11l2.7-0.6c1.8,3.8-2,7.3-2,7.3L128,19
			c1.5,4.5-1.7,6.8-1.7,6.8l2.4,0.2c0.5,4-1.2,8.3-1.2,8.3l1.5-0.5c1.2,3.4-3.4,7.8-3.4,7.8l2.2,0.5c-1.8,3.6-6,6.3-6,6.3l2.1,0.7
			c-2.3,3.9-5.1,7-5.1,7l2.2,0.5c-2.9,5.9-7.4,7.5-7.4,7.5l2.2,0.5c-6,7.2-8.8,7.1-8.8,7.1l1.9,1.2c-5.1,5.4-22.3,7.7-22.3,7.7
			L83.9,79.1z"/>
		<path fill="#A8CF38" stroke="#010101" stroke-width="0.5" stroke-linecap="round" stroke-linejoin="round" d="M85.4,79.8
			c0,0-8.6-15-7.4-22.4l2.1,0.7c0,0-1.8-2.2,0.2-11.3l1.7,1.5c0,0-1.5-4.5,1.4-10.4l1.7,1.5c0,0,0.8-4.1,2.5-8.3l1.9,1.2
			c0,0-0.4-5,1.3-8.5l1.7,1.5c0,0,0.7-6.3,4.1-7.5l0.5,1.5c0,0,2.3-3.9,5.8-6l1.6,1.7c0,0-0.1-3.9,4.3-5.5l0.9,1.4
			c0,0,0.5-5.2,4.6-6l1.2,2.5c0,0,7.1-6.6,8.7-6.8l2.6,1.3c0.3,1.2-0.1,11-0.1,11l2.7-0.6c1.8,3.8-2,7.3-2,7.3l1.7-0.1
			c1.5,4.5-1.7,6.8-1.7,6.8l2.4,0.2c0.5,4-1.2,8.3-1.2,8.3l1.5-0.5c1.2,3.4-3.4,7.8-3.4,7.8l2.2,0.5c-1.8,3.6-6,6.3-6,6.3l2.1,0.7
			c-2.3,3.9-5.1,7-5.1,7l2.2,0.5c-2.9,5.9-7.4,7.5-7.4,7.5l2.2,0.5c-6,7.2-8.8,7.1-8.8,7.1l1.9,1.2c-5.1,5.4-22.3,7.7-22.3,7.7
			L85.4,79.8z"/>
		
			<line fill="none" stroke="#010101" stroke-width="0.5" stroke-linecap="round" stroke-linejoin="round" x1="124.9" y1="2" x2="86.3" y2="80.3"/>
		<g>
			
				<line fill="none" stroke="#010101" stroke-width="0.5" stroke-linecap="round" stroke-linejoin="round" x1="115.7" y1="6.3" x2="117.1" y2="12.8"/>
			
				<line fill="none" stroke="#010101" stroke-width="0.5" stroke-linecap="round" stroke-linejoin="round" x1="109.9" y1="11.1" x2="113.6" y2="18.7"/>
			
				<line fill="none" stroke="#010101" stroke-width="0.5" stroke-linecap="round" stroke-linejoin="round" x1="104.9" y1="14.8" x2="109.9" y2="24.6"/>
			
				<line fill="none" stroke="#010101" stroke-width="0.5" stroke-linecap="round" stroke-linejoin="round" x1="96.9" y1="19" x2="105.3" y2="30.7"/>
			
				<line fill="none" stroke="#010101" stroke-width="0.5" stroke-linecap="round" stroke-linejoin="round" x1="92.9" y1="24.9" x2="103.3" y2="37.4"/>
			
				<line fill="none" stroke="#010101" stroke-width="0.5" stroke-linecap="round" stroke-linejoin="round" x1="89" y1="32.2" x2="99.5" y2="43.6"/>
			
				<line fill="none" stroke="#010101" stroke-width="0.5" stroke-linecap="round" stroke-linejoin="round" x1="85" y1="38.7" x2="94" y2="50.8"/>
			
				<line fill="none" stroke="#010101" stroke-width="0.5" stroke-linecap="round" stroke-linejoin="round" x1="81.8" y1="47.9" x2="92.4" y2="61.2"/>
			
				<line fill="none" stroke="#010101" stroke-width="0.5" stroke-linecap="round" stroke-linejoin="round" x1="79.9" y1="57.7" x2="88.5" y2="71.8"/>
		</g>
		<g>
			
				<line fill="none" stroke="#010101" stroke-width="0.5" stroke-linecap="round" stroke-linejoin="round" x1="128" y1="12.4" x2="122" y2="15.2"/>
			
				<line fill="none" stroke="#010101" stroke-width="0.5" stroke-linecap="round" stroke-linejoin="round" x1="127.7" y1="19.9" x2="119.4" y2="21.6"/>
			
				<line fill="none" stroke="#010101" stroke-width="0.5" stroke-linecap="round" stroke-linejoin="round" x1="127.8" y1="26.2" x2="117" y2="28.1"/>
			
				<line fill="none" stroke="#010101" stroke-width="0.5" stroke-linecap="round" stroke-linejoin="round" x1="129.4" y1="35" x2="115" y2="35.5"/>
			
				<line fill="none" stroke="#010101" stroke-width="0.5" stroke-linecap="round" stroke-linejoin="round" x1="127.1" y1="41.7" x2="110.8" y2="41.1"/>
			
				<line fill="none" stroke="#010101" stroke-width="0.5" stroke-linecap="round" stroke-linejoin="round" x1="123.6" y1="49.3" x2="108.3" y2="47.9"/>
			
				<line fill="none" stroke="#010101" stroke-width="0.5" stroke-linecap="round" stroke-linejoin="round" x1="120.9" y1="56.4" x2="105.9" y2="56.6"/>
			
				<line fill="none" stroke="#010101" stroke-width="0.5" stroke-linecap="round" stroke-linejoin="round" x1="115.6" y1="64.6" x2="98.6" y2="64.2"/>
			
				<line fill="none" stroke="#010101" stroke-width="0.5" stroke-linecap="round" stroke-linejoin="round" x1="109" y1="72" x2="92.6" y2="73.8"/>
		</g>
		<path fill="#FFFFFF" stroke="#010101" stroke-width="0.5" stroke-linecap="round" stroke-linejoin="round" d="M131.4,27.3
			c0,0-5.7,1.5-4.2,4.5c0,0-7,1-3.7,6.5c0,0,1.7,3.7,4.7,2.3c0,0-1.9,3,1,2.5c2.9-0.6,2.2-0.7,2.2-0.7"/>
		<path fill="#FFFFFF" stroke="#010101" stroke-width="0.5" stroke-miterlimit="10" d="M94.1,34.9c-0.2,1.3-1,2.4-1.5,3.6
			c1.5,1.2,3.4-1.3,4.1-2.5c-0.8,2-0.2,6.4,2.5,3.3c-0.5,2,0.6,2.3,2.2,3.1c-0.5,1.7-2.2,2.2-3.2,3.5c-0.6,0.8-0.9,1.9-1.4,2.7
			c-1-0.7-1.2-2.1-2.1-2.8c-0.6,0.5-2.5,3-3.3,2.9c-0.9-0.1-1.8-2.3-2.9-2.7c0.4-1,1-2,1.4-3.1c-0.2-0.2-0.4-0.2-0.5-0.3
			c0.3-1.3,2.7-8,4.2-6.4"/>
		<path fill="#FFFFFF" stroke="#010101" stroke-width="0.5" stroke-miterlimit="10" d="M113.7,19.8c1.7-1.5,1.8-3.4,4.2-4.6
			c0.2,0.6-0.3,2.8,0.2,3.1c1.3,1.1,3.5-1.5,4.5-2.3c-0.2,0.5-1.2,2.3-0.9,2.9c0.7,1.4,2.3,0.2,3.4,0.3c-0.7,2-2.4,3.4-3.4,5.4
			c-0.6,1.3-0.8,2.4-1.3,3.7c-2.3-0.8-3.8-2.5-4.3-4.8c-0.7,1.4-3.2,6.1-3.5,2.3c-0.2-2.3,1.6-4.6,1.9-6.8"/>
		<path fill="#FFFFFF" stroke="#010101" stroke-width="0.5" stroke-miterlimit="10" d="M110.9,52.2c-0.1,1.4-2,3-2,4.4
			c0,1.9,2.3,3.2,4,3.3c-2,0.6-4,1.8-4.7,3.9c0.9,0.9,2.1,1.3,3.2,1.9c-0.9,0.4-5.4,2.7-2.9,3.7c-0.7,1.7-5.4-0.8-6.6-1.8
			c-2.5-2.2-1.6-4.8-0.5-7.5c1.6-3.8,5-7.9,9.7-7"/>
	</g>
</g>
<g id="Layer_9">
	<g>
		<path fill="#55C2E2" stroke="#070707" stroke-width="0.5" stroke-miterlimit="10" d="M34.5,43.9c0,0-36.1,41.7-4.2,51.2
			c0,0,26.1-0.6,14.6-30.9C44.9,64.2,35,52.6,34.5,43.9z"/>
		<path fill="none" stroke="#3A97AD" stroke-miterlimit="10" d="M32.4,91.7c5.2,2.4,13.5-10.3,12.9-14.9"/>
		
			<ellipse transform="matrix(0.7903 -0.6127 0.6127 0.7903 -46.5568 34.5469)" opacity="0.8" fill="#FFFFFF" cx="27.2" cy="85.3" rx="4.8" ry="5.8"/>
		<path opacity="0.8" fill="#FFFFFF" d="M23.9,62.2c0,0,4.7-11.6,10.3-14.6"/>
	</g>
	<g>
		<path fill="#55C2E2" stroke="#070707" stroke-width="0.5" stroke-miterlimit="10" d="M173.8,193.2c0,0-36.1,41.7-4.2,51.2
			c0,0,26.1-0.6,14.6-30.9C184.2,213.5,174.3,201.9,173.8,193.2z"/>
		<path fill="none" stroke="#3A97AD" stroke-miterlimit="10" d="M171.7,241.1c5.2,2.4,13.5-10.3,12.9-14.9"/>
		
			<ellipse transform="matrix(0.7903 -0.6127 0.6127 0.7903 -108.8482 151.2211)" opacity="0.8" fill="#FFFFFF" cx="166.5" cy="234.6" rx="4.8" ry="5.8"/>
		<path opacity="0.8" fill="#FFFFFF" d="M163.2,211.5c0,0,4.7-11.6,10.3-14.6"/>
	</g>
	<g>
		<path fill="#55C2E2" stroke="#070707" stroke-width="0.5" stroke-miterlimit="10" d="M10.4,326.7c0,0-21.7,25.1-2.5,30.8
			c0,0,15.7-0.4,8.8-18.6C16.7,338.9,10.7,331.9,10.4,326.7z"/>
		<path fill="none" stroke="#3A97AD" stroke-miterlimit="10" d="M9.1,355.4c3.1,1.4,8.1-6.2,7.7-9"/>
		
			<ellipse transform="matrix(0.7901 -0.6129 0.6129 0.7901 -215.9471 77.745)" opacity="0.8" fill="#FFFFFF" cx="5.6" cy="354.2" rx="1.7" ry="2.1"/>
		<path opacity="0.8" fill="#FFFFFF" d="M4,337.7c0,0,2.8-7,6.2-8.8"/>
	</g>
	<g>
		<path fill="#55C2E2" stroke="#070707" stroke-width="0.5" stroke-miterlimit="10" d="M14.1,209.7c0,0-21.7,25.1-2.5,30.8
			c0,0,15.7-0.4,8.8-18.6C20.3,221.9,14.4,215,14.1,209.7z"/>
		<path fill="none" stroke="#3A97AD" stroke-miterlimit="10" d="M12.8,238.5c3.1,1.4,8.1-6.2,7.7-9"/>
		
			<ellipse transform="matrix(0.7904 -0.6126 0.6126 0.7904 -143.4378 55.3832)" opacity="0.8" fill="#FFFFFF" cx="9.2" cy="237.3" rx="1.7" ry="2.1"/>
		<path opacity="0.8" fill="#FFFFFF" d="M7.7,220.7c0,0,2.8-7,6.2-8.8"/>
	</g>
	<g>
		<path fill="#55C2E2" stroke="#070707" stroke-width="0.5" stroke-miterlimit="10" d="M135.9,82c0,0-13.5,15.7-1.6,19.2
			c0,0,9.8-0.2,5.5-11.6C139.8,89.6,136.1,85.2,135.9,82z"/>
		<path fill="none" stroke="#3A97AD" stroke-miterlimit="10" d="M135.1,100c1.9,0.9,5.1-3.9,4.8-5.6"/>
		
			<ellipse transform="matrix(0.7906 -0.6123 0.6123 0.7906 -31.9634 101.5748)" opacity="0.8" fill="#FFFFFF" cx="132.5" cy="97.5" rx="0.9" ry="1"/>
		<path opacity="0.8" fill="#FFFFFF" d="M131.9,88.9c0,0,1.8-4.4,3.9-5.5"/>
	</g>
	<g>
		<path fill="#55C2E2" stroke="#070707" stroke-width="0.5" stroke-miterlimit="10" d="M159.3,327.5c0,0-13.5,15.7-1.6,19.2
			c0,0,9.8-0.2,5.5-11.6C163.2,335.1,159.5,330.7,159.3,327.5z"/>
		<path fill="none" stroke="#3A97AD" stroke-miterlimit="10" d="M158.5,345.4c1.9,0.9,5.1-3.9,4.8-5.6"/>
		
			<ellipse transform="matrix(0.7904 -0.6126 0.6126 0.7904 -177.4307 167.4682)" opacity="0.8" fill="#FFFFFF" cx="156" cy="343" rx="0.9" ry="1"/>
		<path opacity="0.8" fill="#FFFFFF" d="M155.3,334.3c0,0,1.8-4.4,3.9-5.5"/>
	</g>
</g>
</svg>
