<?xml version="1.0" encoding="utf-8"?>
<!-- Generator: Adobe Illustrator 17.1.0, SVG Export Plug-In . SVG Version: 6.00 Build 0)  -->
<!DOCTYPE svg PUBLIC "-//W3C//DTD SVG 1.1//EN" "http://www.w3.org/Graphics/SVG/1.1/DTD/svg11.dtd">
<svg version="1.1" id="Layer_1" xmlns="http://www.w3.org/2000/svg" xmlns:xlink="http://www.w3.org/1999/xlink" x="0px" y="0px"
	 viewBox="0 0 100 100" enable-background="new 0 0 100 100" xml:space="preserve">
<pattern  y="100" width="2.4" height="2.4" patternUnits="userSpaceOnUse" id="SVGID_5_" viewBox="0 -2.4 2.4 2.4" overflow="visible">
	<g>
		<polygon fill="none" points="0,0 2.4,0 2.4,-2.4 0,-2.4 		"/>
		<g>
			<polygon fill="none" points="0,-2.4 2.4,-2.4 2.4,0 0,0 			"/>
			<g>
				<polygon fill="none" points="0,0 2.4,0 2.4,-2.4 0,-2.4 				"/>
				<g>
					<polygon fill="none" points="2.4,-2.4 0,-2.4 0,0 2.4,0 					"/>
					<g>
						<path fill="#010101" d="M1.4-1.2c0-0.1-0.1-0.2-0.2-0.2C1.1-1.4,1-1.3,1-1.2S1.1-1,1.2-1C1.3-1,1.4-1.1,1.4-1.2z"/>
					</g>
				</g>
			</g>
		</g>
	</g>
</pattern>
<pattern  y="100" width="2.4" height="2.4" patternUnits="userSpaceOnUse" id="SVGID_6" viewBox="7.8 -10.2 2.4 2.4" overflow="visible">
	<g>
		<polygon fill="none" points="7.8,-10.2 10.2,-10.2 10.2,-7.8 7.8,-7.8 		"/>
		<g>
			<polygon fill="none" points="9.6,0 18,0 18,-8.4 9.6,-8.4 			"/>
			<g>
				<polygon fill="none" points="18,-8.4 9.6,-8.4 9.6,0 18,0 				"/>
			</g>
		</g>
		<g>
			<polygon fill="none" points="7.2,0 15.6,0 15.6,-8.4 7.2,-8.4 			"/>
			<g>
				<polygon fill="none" points="15.6,-8.4 7.2,-8.4 7.2,0 15.6,0 				"/>
			</g>
		</g>
		<g>
			<polygon fill="none" points="4.8,0 13.2,0 13.2,-8.4 4.8,-8.4 			"/>
			<g>
				<polygon fill="none" points="13.2,-8.4 4.8,-8.4 4.8,0 13.2,0 				"/>
			</g>
		</g>
		<g>
			<polygon fill="none" points="2.4,0 10.8,0 10.8,-8.4 2.4,-8.4 			"/>
			<g>
				<polygon fill="none" points="10.8,-8.4 2.4,-8.4 2.4,0 10.8,0 				"/>
			</g>
		</g>
		<g>
			<polygon fill="none" points="0,0 8.4,0 8.4,-8.4 0,-8.4 			"/>
			<g>
				<polygon fill="none" points="8.4,-8.4 0,-8.4 0,0 8.4,0 				"/>
			</g>
		</g>
		<g>
			<polygon fill="none" points="9.6,-2.4 18,-2.4 18,-10.8 9.6,-10.8 			"/>
			<g>
				<polygon fill="none" points="18,-10.8 9.6,-10.8 9.6,-2.4 18,-2.4 				"/>
			</g>
		</g>
		<g>
			<polygon fill="none" points="7.2,-2.4 15.6,-2.4 15.6,-10.8 7.2,-10.8 			"/>
			<g>
				<polygon fill="none" points="15.6,-10.8 7.2,-10.8 7.2,-2.4 15.6,-2.4 				"/>
			</g>
		</g>
		<g>
			<polygon fill="none" points="4.8,-2.4 13.2,-2.4 13.2,-10.8 4.8,-10.8 			"/>
			<g>
				<polygon fill="none" points="13.2,-10.8 4.8,-10.8 4.8,-2.4 13.2,-2.4 				"/>
			</g>
		</g>
		<g>
			<polygon fill="none" points="2.4,-2.4 10.8,-2.4 10.8,-10.8 2.4,-10.8 			"/>
			<g>
				<polygon fill="none" points="10.8,-10.8 2.4,-10.8 2.4,-2.4 10.8,-2.4 				"/>
			</g>
		</g>
		<g>
			<polygon fill="none" points="0,-2.4 8.4,-2.4 8.4,-10.8 0,-10.8 			"/>
			<g>
				<polygon fill="none" points="8.4,-10.8 0,-10.8 0,-2.4 8.4,-2.4 				"/>
			</g>
		</g>
		<g>
			<polygon fill="none" points="9.6,-4.8 18,-4.8 18,-13.2 9.6,-13.2 			"/>
			<g>
				<polygon fill="none" points="18,-13.2 9.6,-13.2 9.6,-4.8 18,-4.8 				"/>
			</g>
		</g>
		<g>
			<polygon fill="none" points="7.2,-4.8 15.6,-4.8 15.6,-13.2 7.2,-13.2 			"/>
			<g>
				<polygon fill="none" points="15.6,-13.2 7.2,-13.2 7.2,-4.8 15.6,-4.8 				"/>
			</g>
		</g>
		<g>
			<polygon fill="none" points="4.8,-4.8 13.2,-4.8 13.2,-13.2 4.8,-13.2 			"/>
			<g>
				<polygon fill="none" points="13.2,-13.2 4.8,-13.2 4.8,-4.8 13.2,-4.8 				"/>
				<path fill="#010101" d="M9.7-9c0-0.3-0.3-0.7-0.7-0.7C8.6-9.7,8.3-9.3,8.3-9S8.6-8.3,9-8.3C9.3-8.3,9.7-8.6,9.7-9z"/>
			</g>
		</g>
		<g>
			<polygon fill="none" points="2.4,-4.8 10.8,-4.8 10.8,-13.2 2.4,-13.2 			"/>
			<g>
				<polygon fill="none" points="10.8,-13.2 2.4,-13.2 2.4,-4.8 10.8,-4.8 				"/>
			</g>
		</g>
		<g>
			<polygon fill="none" points="0,-4.8 8.4,-4.8 8.4,-13.2 0,-13.2 			"/>
			<g>
				<polygon fill="none" points="8.4,-13.2 0,-13.2 0,-4.8 8.4,-4.8 				"/>
			</g>
		</g>
		<g>
			<polygon fill="none" points="9.6,-7.2 18,-7.2 18,-15.6 9.6,-15.6 			"/>
			<g>
				<polygon fill="none" points="18,-15.6 9.6,-15.6 9.6,-7.2 18,-7.2 				"/>
			</g>
		</g>
		<g>
			<polygon fill="none" points="7.2,-7.2 15.6,-7.2 15.6,-15.6 7.2,-15.6 			"/>
			<g>
				<polygon fill="none" points="15.6,-15.6 7.2,-15.6 7.2,-7.2 15.6,-7.2 				"/>
			</g>
		</g>
		<g>
			<polygon fill="none" points="4.8,-7.2 13.2,-7.2 13.2,-15.6 4.8,-15.6 			"/>
			<g>
				<polygon fill="none" points="13.2,-15.6 4.8,-15.6 4.8,-7.2 13.2,-7.2 				"/>
			</g>
		</g>
		<g>
			<polygon fill="none" points="2.4,-7.2 10.8,-7.2 10.8,-15.6 2.4,-15.6 			"/>
			<g>
				<polygon fill="none" points="10.8,-15.6 2.4,-15.6 2.4,-7.2 10.8,-7.2 				"/>
			</g>
		</g>
		<g>
			<polygon fill="none" points="0,-7.2 8.4,-7.2 8.4,-15.6 0,-15.6 			"/>
			<g>
				<polygon fill="none" points="8.4,-15.6 0,-15.6 0,-7.2 8.4,-7.2 				"/>
			</g>
		</g>
		<g>
			<polygon fill="none" points="9.6,-9.6 18,-9.6 18,-18 9.6,-18 			"/>
			<g>
				<polygon fill="none" points="18,-18 9.6,-18 9.6,-9.6 18,-9.6 				"/>
			</g>
		</g>
		<g>
			<polygon fill="none" points="7.2,-9.6 15.6,-9.6 15.6,-18 7.2,-18 			"/>
			<g>
				<polygon fill="none" points="15.6,-18 7.2,-18 7.2,-9.6 15.6,-9.6 				"/>
			</g>
		</g>
		<g>
			<polygon fill="none" points="4.8,-9.6 13.2,-9.6 13.2,-18 4.8,-18 			"/>
			<g>
				<polygon fill="none" points="13.2,-18 4.8,-18 4.8,-9.6 13.2,-9.6 				"/>
			</g>
		</g>
		<g>
			<polygon fill="none" points="2.4,-9.6 10.8,-9.6 10.8,-18 2.4,-18 			"/>
			<g>
				<polygon fill="none" points="10.8,-18 2.4,-18 2.4,-9.6 10.8,-9.6 				"/>
			</g>
		</g>
		<g>
			<polygon fill="none" points="0,-9.6 8.4,-9.6 8.4,-18 0,-18 			"/>
			<g>
				<polygon fill="none" points="8.4,-18 0,-18 0,-9.6 8.4,-9.6 				"/>
			</g>
		</g>
	</g>
</pattern>
<pattern  y="100" width="4" height="4" patternUnits="userSpaceOnUse" id="SVGID_7" viewBox="6.3 -10.3 4 4" overflow="visible">
	<g>
		<polygon fill="none" points="6.3,-10.3 10.3,-10.3 10.3,-6.3 6.3,-6.3 		"/>
		<g>
			<polygon fill="none" points="16.5,-8.5 8,-8.5 8,0 16.5,0 			"/>
		</g>
		<g>
			<polygon fill="none" points="12.5,-8.5 4,-8.5 4,0 12.5,0 			"/>
		</g>
		<g>
			<polygon fill="none" points="8.5,-8.5 0,-8.5 0,0 8.5,0 			"/>
		</g>
		<g>
			<polygon fill="none" points="16.5,-12.5 8,-12.5 8,-4 16.5,-4 			"/>
		</g>
		<g>
			<polygon fill="none" points="12.5,-12.5 4,-12.5 4,-4 12.5,-4 			"/>
			<path fill="#010101" d="M9-8.3C9-8.6,8.6-9,8.3-9C7.9-9,7.5-8.6,7.5-8.3c0,0.4,0.4,0.7,0.7,0.7C8.6-7.5,9-7.9,9-8.3z"/>
		</g>
		<g>
			<polygon fill="none" points="8.5,-12.5 0,-12.5 0,-4 8.5,-4 			"/>
		</g>
		<g>
			<polygon fill="none" points="16.5,-16.5 8,-16.5 8,-8 16.5,-8 			"/>
		</g>
		<g>
			<polygon fill="none" points="12.5,-16.5 4,-16.5 4,-8 12.5,-8 			"/>
		</g>
		<g>
			<polygon fill="none" points="8.5,-16.5 0,-16.5 0,-8 8.5,-8 			"/>
		</g>
	</g>
</pattern>
<pattern  y="100" width="4" height="4" patternUnits="userSpaceOnUse" id="SVGID_8" viewBox="6.3 -10.3 4 4" overflow="visible">
	<g>
		<polygon fill="none" points="6.3,-10.3 10.3,-10.3 10.3,-6.3 6.3,-6.3 		"/>
		<g>
			<polygon fill="none" points="16.7,-8.7 8,-8.7 8,0 16.7,0 			"/>
		</g>
		<g>
			<polygon fill="none" points="12.7,-8.7 4,-8.7 4,0 12.7,0 			"/>
		</g>
		<g>
			<polygon fill="none" points="8.7,-8.7 0,-8.7 0,0 8.7,0 			"/>
		</g>
		<g>
			<polygon fill="none" points="16.7,-12.7 8,-12.7 8,-4 16.7,-4 			"/>
		</g>
		<g>
			<polygon fill="none" points="12.7,-12.7 4,-12.7 4,-4 12.7,-4 			"/>
			<path fill="#010101" d="M9.1-8.3c0-0.4-0.4-0.7-0.7-0.7S7.6-8.7,7.6-8.3S8-7.6,8.3-7.6C8.7-7.6,9.1-8,9.1-8.3z"/>
		</g>
		<g>
			<polygon fill="none" points="8.7,-12.7 0,-12.7 0,-4 8.7,-4 			"/>
		</g>
		<g>
			<polygon fill="none" points="16.7,-16.7 8,-16.7 8,-8 16.7,-8 			"/>
		</g>
		<g>
			<polygon fill="none" points="12.7,-16.7 4,-16.7 4,-8 12.7,-8 			"/>
		</g>
		<g>
			<polygon fill="none" points="8.7,-16.7 0,-16.7 0,-8 8.7,-8 			"/>
		</g>
	</g>
</pattern>
<g id="legs">
	<path fill="#FFFFFF" stroke="#010101" stroke-miterlimit="10" d="M42.6,34.3l-4.8-3.9c0,0,0.7,0.1,1,0.2c0,0-3.5-5.6-1.7-8.7
		c0,0-0.5,4.4,1.8,7.8c0,0-0.7-2-0.2-2.4c0,0-0.1,2,1.6,4l2.1,1.5L42.6,34.3z"/>
	<path fill="#FFFFFF" stroke="#010101" stroke-miterlimit="10" d="M44.4,35.4c0,0-2.4-0.2-2.4-1.1c0-0.5,0.1-0.9,0.3-1.2
		s0.6-0.5,1.1-0.4C43.5,32.6,44.8,34.9,44.4,35.4z"/>
	<path fill="#FFFFFF" stroke="#010101" stroke-miterlimit="10" d="M60.9,34.3l4.8-3.9c0,0-0.7,0.1-1,0.2c0,0,3.5-5.6,1.7-8.7
		c0,0,0.5,4.4-1.8,7.8c0,0,0.7-2,0.2-2.4c0,0,0.1,2-1.6,4l-2.1,1.5L60.9,34.3z"/>
	<path fill="#FFFFFF" stroke="#010101" stroke-miterlimit="10" d="M59.1,35.4c0,0,2.4-0.2,2.4-1.1c0-0.5-0.1-0.9-0.3-1.2
		s-0.6-0.5-1.1-0.4C60.1,32.6,58.8,34.9,59.1,35.4z"/>
	<path fill="#FFFFFF" stroke="#010101" stroke-miterlimit="10" d="M34.3,49.2c0,0-2.8,6.2-3,10.5s-0.1,8.1,0.9,8.5
		c0,0-0.8-3.9-0.4-5.1c0,0,0.4,0,0.3,1c0,0,0.6-1.2,0.1-2.5c0,0,0.3-7.3,3.7-11.5L34.3,49.2z"/>
	<path fill="#FFFFFF" stroke="#010101" stroke-miterlimit="10" d="M40.3,46.3c0,0-3.8,0.4-5.1,1.4c0,0-2.3,2.5,0.7,2.3s3-0.2,3-0.2
		S38.9,47.5,40.3,46.3z"/>
	<path fill="#FFFFFF" stroke="#010101" stroke-miterlimit="10" d="M36.3,68.2c0,0-4.3,5.5-4.6,6.7c0,0,1.4,0.7,2.6,0.3l2-2.6V68.2z"
		/>
	<path fill="#FFFFFF" stroke="#010101" stroke-miterlimit="10" d="M32.4,75.2c0,0,0.7,15.8-0.4,18c0,0,1.8-1.4,1.3-6
		c0,0,0.7,0.8,0.7,1.7c0,0,0.3-1.9-1-3.3l0.4-10.2L32.4,75.2z"/>
	<path fill="#FFFFFF" stroke="#010101" stroke-miterlimit="10" d="M70.1,49.2c0,0,2.8,6.2,3,10.5s0.1,8.1-0.9,8.5
		c0,0,0.8-3.9,0.4-5.1c0,0-0.4,0-0.3,1c0,0-0.6-1.2-0.1-2.5c0,0-0.3-7.3-3.7-11.5L70.1,49.2z"/>
	<path fill="#FFFFFF" stroke="#010101" stroke-miterlimit="10" d="M64.2,46.3c0,0,3.8,0.4,5.1,1.4c0,0,2.3,2.5-0.7,2.3s-3-0.2-3-0.2
		S65.5,47.5,64.2,46.3z"/>
	<path fill="#FFFFFF" stroke="#010101" stroke-miterlimit="10" d="M68.2,68.1c0,0,4.3,5.5,4.6,6.7c0,0-1.4,0.7-2.6,0.3l-2-2.6V68.1z
		"/>
	<path fill="#FFFFFF" stroke="#010101" stroke-miterlimit="10" d="M72,75.2c0,0-0.7,15.8,0.4,18c0,0-1.8-1.4-1.3-6
		c0,0-0.7,0.8-0.7,1.7c0,0-0.3-1.9,1-3.3L71,75.4L72,75.2z"/>
</g>
<g id="basebody_1_">
	<path fill="#FFFFFF" stroke="#010101" stroke-miterlimit="10" d="M52.7,47.3c0,0-10.3-1-10.7-3.3c0,0-4.6,0.4-4.4,6.3
		c0.2,6-1.1,22.7-2.1,23.7s-4.2,9.9,6,15c0,0,3.5,3.7,5.6,3c0,0,0.4-5.8,5.4-5.7L52.7,47.3z"/>
	<path fill="#FFFFFF" stroke="#010101" stroke-miterlimit="10" d="M52,47.3c0,0,10.3-1,10.7-3.3c0,0,4.6,0.4,4.4,6.3
		c-0.2,6,1.1,22.7,2.1,23.7c1.1,1.1,4.2,9.9-6,15c0,0-3.5,3.7-5.6,3c0,0,0.4-5.8-4.7-5.7L52,47.3z"/>
	<path fill="#FFFFFF" stroke="#010101" stroke-miterlimit="10" d="M44,35.7c0,0-0.9-5.3,2.1-6.6c3-1.3,3.7-1.9,3.7-1.9
		s1.9-1.2,4.1,0c0,0,0.7,0.6,3.7,1.9s2.1,6.6,2.1,6.6S52,43,44,35.7z"/>
	<path fill="#FFFFFF" stroke="#010101" stroke-miterlimit="10" d="M44.5,45.9c0,0-5.3-7.3-0.1-10.5c0,0,2.9-2.1,5.1-2.2
		s7.1-0.7,9.4,1.5c2.3,2.2,3.2,3.5,2.6,6.1c-0.6,2.6-0.7,5.8-3.3,6.8C55.7,48.5,49.7,51.5,44.5,45.9z"/>
	<path fill="#FFFFFF" stroke="#010101" stroke-miterlimit="10" d="M51.7,48c-2.4,0-4.4-0.9-6.2-2.9c-0.7-1.1-2.5-4.1-2-6.4
		c0.2-0.9,0.7-1.7,1.6-2.2l0.1-0.1c0.7-0.5,2.9-1.9,4.4-1.9c0.4,0,0.8,0,1.2-0.1c0.7,0,1.4-0.1,2.2-0.1c2.5,0,4.2,0.4,5,1.3
		c2.2,2.1,2.7,3,2.3,4.9c-0.1,0.5-0.2,1-0.3,1.4c-0.4,2.4-0.8,3.9-2.2,4.4c-0.2,0.1-0.5,0.2-0.8,0.3C55.7,47.2,53.8,48,51.7,48z"/>
	<path fill="#FFFFFF" stroke="#010101" stroke-miterlimit="10" d="M51.8,48c-2.4,0-4.4-0.9-6.2-2.9c-0.7-1.1-2.5-4.1-2-6.4
		c0.2-0.9,0.7-1.7,1.6-2.2l0.1-0.1c0.7-0.5,2.9-1.9,4.4-1.9c0.4,0,0.8,0,1.2-0.1c0.7,0,1.4-0.1,2.2-0.1c2.5,0,4.2,0.4,5,1.3
		c2.2,2.1,2.7,3,2.3,4.9c-0.1,0.5-0.2,1-0.3,1.4c-0.4,2.4-0.8,3.9-2.2,4.4c-0.2,0.1-0.5,0.2-0.8,0.3C55.8,47.2,53.9,48,51.8,48z"/>
</g>
<g id="bodycolor">
	<g>
		<g>
			<path fill="none" stroke="#010101" stroke-miterlimit="10" d="M40.2,42.7"/>
		</g>
	</g>
	<path fill="#6CBE45" stroke="#010101" stroke-miterlimit="10" d="M52.6,47.3c0,0-10.3-1-10.7-3.3c0,0-4.6,0.4-4.4,6.3
		c0.2,6-1.1,22.7-2.1,23.7c-1.1,1.1-4.2,9.9,6,15c0,0,3.5,3.7,5.6,3c0,0,0.4-5.8,5.4-5.7L52.6,47.3z"/>
	<path fill="#D0DD28" stroke="#010101" stroke-miterlimit="10" d="M51.9,47.3c0,0,10.3-1,10.7-3.3c0,0,4.6,0.4,4.4,6.3
		c-0.2,6,1,22.7,2,23.7s4.2,9.9-6,15c0,0-3.5,3.7-5.6,3c0,0,0.4-5.8-4.7-5.7L51.9,47.3z"/>
	<path fill="#6CBE45" stroke="#010101" stroke-miterlimit="10" d="M43.9,35.7c0,0-0.9-5.3,2.1-6.6c3-1.3,3.7-1.9,3.7-1.9
		s1.9-1.2,4.1,0c0,0,0.7,0.6,3.7,1.9s2.1,6.6,2.1,6.6S51.9,43,43.9,35.7z"/>
	<path fill="#6CBE45" stroke="#010101" stroke-miterlimit="10" d="M44.4,45.9c0,0-5.3-7.3-0.1-10.5c0,0,2.9-2.1,5.1-2.2
		c2.2,0,7.1-0.7,9.4,1.5c2.3,2.2,3.2,3.5,2.6,6.1c-0.6,2.6-0.7,5.8-3.3,6.8C55.6,48.5,49.6,51.5,44.4,45.9z"/>
	<path fill="#FFFFFF" stroke="#010101" stroke-miterlimit="10" d="M51.6,48c-2.4,0-4.4-0.9-6.2-2.9c-0.7-1.1-2.5-4.1-2-6.4
		c0.2-0.9,0.7-1.7,1.6-2.2l0.1-0.1c0.7-0.5,2.9-1.9,4.4-1.9c0.4,0,0.8,0,1.2-0.1c0.7,0,1.4-0.1,2.2-0.1c2.5,0,4.2,0.4,5,1.3
		c2.2,2.1,2.7,3,2.3,4.9c-0.1,0.5-0.2,1-0.3,1.4c-0.4,2.4-0.8,3.9-2.2,4.4c-0.2,0.1-0.5,0.2-0.8,0.3C55.6,47.2,53.7,48,51.6,48z"/>
	<path fill="#D0DD28" stroke="#010101" stroke-miterlimit="10" d="M51.7,48c-2.4,0-4.4-0.9-6.2-2.9c-0.7-1.1-2.5-4.1-2-6.4
		c0.2-0.9,0.7-1.7,1.6-2.2l0.1-0.1c0.7-0.5,2.9-1.9,4.4-1.9c0.4,0,0.8,0,1.2-0.1c0.7,0,1.4-0.1,2.2-0.1c2.5,0,4.2,0.4,5,1.3
		c2.2,2.1,2.7,3,2.3,4.9c-0.1,0.5-0.2,1-0.3,1.4c-0.4,2.4-0.8,3.9-2.2,4.4c-0.2,0.1-0.5,0.2-0.8,0.3C55.7,47.2,53.8,48,51.7,48z"/>
</g>
<g id="antennae">
	<path fill="none" stroke="#010101" stroke-miterlimit="10" d="M53,27.3c0,0,1.1-1.2,3.7-1.4c2.7-0.2,6.1-1.8,7.7-5.3
		C66,17,73.7,10.4,73.2,8"/>
	<path fill="none" stroke="#010101" stroke-miterlimit="10" d="M51,27.3c0,0-1.1-1.2-3.7-1.4c-2.7-0.2-6.1-1.8-7.7-5.3
		C38,17,30.4,10.4,30.9,8"/>
</g>
<g id="markings">
	<path fill="#010101" d="M66.6,76.1c8.6,5.3-7.4,11.5-7.4,11.5S62,73.4,66.6,76.1z"/>
	<path fill="#010101" d="M39,76.1c-8.9,4.7,7.4,11.5,7.4,11.5S44.2,73.4,39,76.1z"/>
</g>
<g id="dots">
	<pattern  id="SVGID_1_" xlink:href="#SVGID_5_" patternTransform="matrix(0.277 0 0 -0.277 -17642.3398 -14994.3867)">
	</pattern>
	<path fill="url(#SVGID_1_)" stroke="#010101" stroke-miterlimit="10" d="M50.4,85.9"/>
	<pattern  id="SVGID_2_" xlink:href="#SVGID_6" patternTransform="matrix(0.277 0 0 -0.277 -17636.7109 -15004.3291)">
	</pattern>
	<path fill="url(#SVGID_2_)" stroke="#010101" stroke-miterlimit="10" d="M50.4,85.9"/>
	<pattern  id="SVGID_3_" xlink:href="#SVGID_7" patternTransform="matrix(0.277 0 0 -0.277 -17637.8145 -15004.4238)">
	</pattern>
	<path fill="url(#SVGID_3_)" stroke="#010101" stroke-miterlimit="10" d="M52.8,86.4c5.1,0.2,4.7,5.7,4.7,5.7c2,0.9,5.6-3,5.6-3
		c2.5-0.9,5.2-4,5.2-4c4.3-5.7,0.6-11.5,0.6-11.5c-0.8-1.1-1.8-17.7-1.9-23.5c0-5.8-4.3-6.1-4.3-6.1c0,0.7-2.3,1.7-2.3,1.7l-0.9,1.2
		c0,0-0.5,0.4-1.8,0.9c-1.3,0.6-5,1.5-5,1.5L52,49.1L52.8,86.4z"/>
	<pattern  id="SVGID_4_" xlink:href="#SVGID_8" patternTransform="matrix(0.277 0 0 -0.277 -17637.7598 -15004.5195)">
	</pattern>
	<path fill="url(#SVGID_4_)" stroke="#010101" stroke-miterlimit="10" d="M51.9,86.5c-5.1,0.2-4.7,5.7-4.7,5.7c-2,0.9-5.6-3-5.6-3
		c-2.5-0.9-5.2-4-5.2-4c-4.3-5.7-0.6-11.5-0.6-11.5c0.8-1.1,1.8-17.7,1.9-23.5c0.1-5.7,4.4-6.1,4.4-6.1c0,0.7,2.3,1.7,2.3,1.7
		l0.9,1.2c0,0,0.5,0.4,1.8,0.9c1.3,0.6,5,1.5,5,1.5l0.7-0.1L51.9,86.5z"/>
</g>
<g id="fur">
	<g>
		<g>
			<g>
				<g>
					<path fill="none" stroke="#0000FF" stroke-miterlimit="10" d="M52.9,85.8c0,0,0.2,0.3,0.3,0.6c0.1,0.3,0.2,0.6,0.2,0.6
						s0.1-0.1,0.1-0.2c0.1-0.1,0.2-0.2,0.3-0.4c0.1-0.1,0.2-0.3,0.4-0.4c0.1-0.1,0.2-0.2,0.2-0.2"/>
				</g>
				<g>
					<path fill="none" stroke="#0000FF" stroke-miterlimit="10" d="M54.7,86.1c0,0,0.1,0.4,0.1,0.7c0,0.2,0,0.3,0,0.5s0,0.2,0,0.2
						s0.3-0.2,0.6-0.4c0.2-0.1,0.3-0.2,0.5-0.2c0.1-0.1,0.2-0.1,0.2-0.1"/>
				</g>
				<g>
					<path fill="none" stroke="#0000FF" stroke-miterlimit="10" d="M56.3,87c0,0-0.1,0.3-0.2,0.7c0,0.1-0.1,0.3-0.1,0.4
						c-0.1,0.1-0.1,0.2-0.1,0.2s0.1,0,0.2-0.1s0.3-0.1,0.5-0.1s0.4,0,0.5,0s0.2,0,0.2,0"/>
				</g>
				<g>
					<path fill="none" stroke="#0000FF" stroke-miterlimit="10" d="M57.5,88.4c0,0-0.2,0.3-0.4,0.6c-0.2,0.2-0.5,0.5-0.5,0.5
						s0.4,0,0.7,0.1s0.7,0.2,0.7,0.2"/>
				</g>
				<g>
					<path fill="none" stroke="#0000FF" stroke-miterlimit="10" d="M58.1,90c0,0-0.3,0.2-0.6,0.4S57,90.8,57,90.8s0.3,0.1,0.7,0.3
						c0.3,0.1,0.7,0.3,0.7,0.3"/>
				</g>
				<g>
					<path fill="none" stroke="#0000FF" stroke-miterlimit="10" d="M58.5,91.6c0,0,0.2,0.3,0.4,0.6c0.1,0.1,0.2,0.2,0.3,0.4
						c0.1,0.1,0.2,0.1,0.2,0.1s0.1-0.4,0.1-0.7c0-0.4,0.1-0.7,0.1-0.7"/>
				</g>
				<g>
					<path fill="none" stroke="#0000FF" stroke-miterlimit="10" d="M59.7,91.1c0,0,0.3,0.2,0.6,0.4s0.6,0.4,0.6,0.4s0-0.4,0-0.7
						c0-0.4-0.1-0.7-0.1-0.7"/>
				</g>
				<g>
					<path fill="none" stroke="#0000FF" stroke-miterlimit="10" d="M60.9,90.3c0,0,0.3,0.2,0.6,0.3c0.3,0.2,0.6,0.3,0.6,0.3
						S62,90.6,62,90.2c-0.1-0.4-0.1-0.7-0.1-0.7"/>
				</g>
				<g>
					<path fill="none" stroke="#0000FF" stroke-miterlimit="10" d="M62,89.3c0,0,0.3,0.1,0.6,0.3c0.3,0.1,0.6,0.2,0.6,0.2l-0.1-0.3
						c0-0.1-0.1-0.2-0.1-0.3c0-0.1,0-0.3,0-0.4v-0.4"/>
				</g>
				<g>
					<path fill="none" stroke="#0000FF" stroke-miterlimit="10" d="M63.4,88.3c0,0,0.3,0.2,0.6,0.4c0.3,0.2,0.6,0.4,0.6,0.4
						s0-0.4,0-0.7c0-0.4,0-0.7,0-0.7"/>
				</g>
				<g>
					<path fill="none" stroke="#0000FF" stroke-miterlimit="10" d="M64.7,87.5c0,0,0.3,0.2,0.6,0.4c0.3,0.2,0.6,0.4,0.6,0.4
						s0-0.4-0.1-0.7c0-0.4-0.1-0.7-0.1-0.7"/>
				</g>
				<g>
					<path fill="none" stroke="#0000FF" stroke-miterlimit="10" d="M65.9,86.6c0,0,0.3,0.2,0.6,0.3c0.3,0.1,0.6,0.3,0.6,0.3
						S67,86.8,67,86.5c-0.1-0.4-0.2-0.7-0.2-0.7"/>
				</g>
				<g>
					<path fill="none" stroke="#0000FF" stroke-miterlimit="10" d="M67,85.7c0,0,0.3,0.1,0.6,0.2c0.3,0.1,0.7,0.2,0.7,0.2
						s-0.1-0.4-0.2-0.7c-0.1-0.3-0.3-0.7-0.3-0.7"/>
				</g>
				<g>
					<path fill="none" stroke="#0000FF" stroke-miterlimit="10" d="M67.9,84.5c0,0,0.1,0,0.2,0.1c0.1,0,0.3,0.1,0.4,0.1
						c0.3,0.1,0.7,0.1,0.7,0.1s0-0.1-0.1-0.2s-0.1-0.3-0.2-0.4c-0.2-0.3-0.4-0.6-0.4-0.6"/>
				</g>
				<g>
					<path fill="none" stroke="#0000FF" stroke-miterlimit="10" d="M68.6,83.3c0,0,0.3,0,0.7,0c0.3,0,0.7,0,0.7,0s-0.2-0.3-0.4-0.6
						c-0.1-0.1-0.2-0.3-0.3-0.4c-0.1-0.1-0.1-0.2-0.1-0.2"/>
				</g>
				<g>
					<path fill="none" stroke="#0000FF" stroke-miterlimit="10" d="M69.2,82c0,0,0.3,0,0.7-0.1c0.3-0.1,0.7-0.1,0.7-0.1
						s-0.2-0.3-0.5-0.5s-0.5-0.5-0.5-0.5"/>
				</g>
				<g>
					<path fill="none" stroke="#0000FF" stroke-miterlimit="10" d="M69.6,80.6c0,0,0.3-0.1,0.7-0.2c0.2-0.1,0.3-0.1,0.4-0.1
						s0.2-0.1,0.2-0.1s-0.3-0.2-0.6-0.4c-0.1-0.1-0.3-0.2-0.4-0.3c-0.1-0.1-0.2-0.1-0.2-0.1"/>
				</g>
				<g>
					<path fill="none" stroke="#0000FF" stroke-miterlimit="10" d="M69.7,79.1c0,0,0.3-0.1,0.6-0.3c0.3-0.1,0.6-0.3,0.6-0.3
						s-0.3-0.2-0.6-0.3C70.1,78.1,70,78,69.9,78c-0.1-0.1-0.2-0.1-0.2-0.1"/>
				</g>
				<g>
					<path fill="none" stroke="#0000FF" stroke-miterlimit="10" d="M69.6,77.7c0,0,0.3-0.2,0.6-0.4c0.3-0.2,0.6-0.4,0.6-0.4
						s-0.3-0.1-0.7-0.2c-0.4-0.1-0.7-0.2-0.7-0.2"/>
				</g>
				<g>
					<path fill="none" stroke="#0000FF" stroke-miterlimit="10" d="M69.3,76.3c0,0,0.3-0.2,0.5-0.4c0.2-0.2,0.5-0.5,0.5-0.5
						s-0.4-0.1-0.7-0.1c-0.2,0-0.4,0-0.5-0.1c-0.1,0-0.2,0-0.2,0"/>
				</g>
				<g>
					<path fill="none" stroke="#0000FF" stroke-miterlimit="10" d="M68.8,75c0,0,0.2-0.2,0.4-0.5c0.1-0.1,0.2-0.3,0.2-0.4V74l0,0
						l0,0l0,0l0,0c0.1,0.1,0,0,0,0.1l0,0l0,0l0,0l0,0V74c0,0-0.1,0-0.2,0s-0.3,0-0.5,0s-0.4-0.1-0.5-0.1S68,73.8,68,73.8"/>
				</g>
				<g>
					<path fill="none" stroke="#0000FF" stroke-miterlimit="10" d="M68,73.4c0,0,0.3-0.2,0.6-0.4c0.3-0.2,0.6-0.4,0.6-0.4
						s-0.3-0.1-0.7-0.2c-0.3-0.1-0.7-0.3-0.7-0.3"/>
				</g>
				<g>
					<path fill="none" stroke="#0000FF" stroke-miterlimit="10" d="M67.7,71.9c0,0,0.3-0.2,0.6-0.4c0.3-0.2,0.6-0.4,0.6-0.4
						s-0.3-0.1-0.7-0.3c-0.3-0.1-0.7-0.3-0.7-0.3"/>
				</g>
				<g>
					<polyline fill="none" stroke="#0000FF" stroke-miterlimit="10" points="67.5,70.3 68.7,69.6 67.3,69 					"/>
				</g>
				<g>
					<polyline fill="none" stroke="#0000FF" stroke-miterlimit="10" points="67.3,68.7 68.5,68 67.2,67.4 					"/>
				</g>
				<g>
					<polyline fill="none" stroke="#0000FF" stroke-miterlimit="10" points="67.1,67.2 68.3,66.5 67,65.9 					"/>
				</g>
				<g>
					<polyline fill="none" stroke="#0000FF" stroke-miterlimit="10" points="67,65.6 68.2,65 66.9,64.3 					"/>
				</g>
				<g>
					<polyline fill="none" stroke="#0000FF" stroke-miterlimit="10" points="66.9,64.1 68.1,63.4 66.8,62.7 					"/>
				</g>
				<g>
					<polyline fill="none" stroke="#0000FF" stroke-miterlimit="10" points="66.7,62.5 68,61.9 66.6,61.2 					"/>
				</g>
				<g>
					<polyline fill="none" stroke="#0000FF" stroke-miterlimit="10" points="66.6,60.9 67.8,60.3 66.6,59.6 					"/>
				</g>
				<g>
					<polyline fill="none" stroke="#0000FF" stroke-miterlimit="10" points="66.5,59.4 67.8,58.8 66.5,58.1 					"/>
				</g>
				<g>
					<polyline fill="none" stroke="#0000FF" stroke-miterlimit="10" points="66.5,57.8 67.7,57.2 66.4,56.5 					"/>
				</g>
				<g>
					<polyline fill="none" stroke="#0000FF" stroke-miterlimit="10" points="66.4,56.3 67.6,55.7 66.3,55 					"/>
				</g>
				<g>
					<polyline fill="none" stroke="#0000FF" stroke-miterlimit="10" points="66.3,54.7 67.6,54.1 66.3,53.4 					"/>
				</g>
				<g>
					<polyline fill="none" stroke="#0000FF" stroke-miterlimit="10" points="66.3,53.1 67.5,52.5 66.3,51.8 					"/>
				</g>
				<g>
					<path fill="none" stroke="#0000FF" stroke-miterlimit="10" d="M66.3,51.6c0,0,0.3-0.1,0.6-0.3c0.3-0.1,0.6-0.3,0.6-0.3
						s-0.3-0.2-0.6-0.4s-0.6-0.4-0.6-0.4"/>
				</g>
				<g>
					<path fill="none" stroke="#0000FF" stroke-miterlimit="10" d="M66.3,50c0,0,0.3-0.1,0.6-0.3c0.3-0.1,0.6-0.3,0.6-0.3
						s-0.3-0.2-0.7-0.3c-0.3-0.1-0.7-0.3-0.7-0.3"/>
				</g>
				<g>
					<path fill="none" stroke="#0000FF" stroke-miterlimit="10" d="M66.1,48.6c0,0,0.3-0.2,0.6-0.4c0.3-0.2,0.5-0.4,0.5-0.4
						s-0.1,0-0.2-0.1c-0.1,0-0.3-0.1-0.5-0.1c-0.4-0.1-0.7-0.1-0.7-0.1"/>
				</g>
				<g>
					<path fill="none" stroke="#0000FF" stroke-miterlimit="10" d="M65.7,47.3c0,0,0.2-0.2,0.4-0.5c0.2-0.3,0.4-0.6,0.4-0.6
						s-0.1,0-0.2,0s-0.3,0-0.5,0c-0.4,0-0.7,0.1-0.7,0.1"/>
				</g>
				<g>
					<path fill="none" stroke="#0000FF" stroke-miterlimit="10" d="M65,46.2c0,0,0.1-0.3,0.3-0.6c0.1-0.2,0.1-0.3,0.1-0.4
						c0-0.1,0.1-0.2,0.1-0.2s-0.1,0-0.2,0.1s-0.3,0.1-0.5,0.2c-0.3,0.1-0.6,0.3-0.6,0.3"/>
				</g>
				<g>
					<path fill="none" stroke="#0000FF" stroke-miterlimit="10" d="M64,45.4c0,0,0.1-0.3,0.1-0.7s0-0.7,0-0.7s-0.1,0.1-0.2,0.1
						s-0.2,0.2-0.4,0.3c-0.1,0.1-0.2,0.2-0.4,0.3C63,44.9,62.9,45,62.9,45"/>
				</g>
				<g>
					<path fill="none" stroke="#0000FF" stroke-miterlimit="10" d="M62.8,44.9c0,0,0-0.1,0-0.2c0-0.1,0-0.1-0.1-0.2
						c0-0.1-0.1-0.2-0.1-0.2c-0.1-0.1-0.2-0.2-0.3-0.3s-0.2-0.1-0.2-0.1l0.1,1.5"/>
				</g>
				<g>
					<polyline fill="none" stroke="#0000FF" stroke-miterlimit="10" points="61.9,45.5 60.8,44.8 60.8,46.2 					"/>
				</g>
			</g>
		</g>
	</g>
	<g>
		<g>
			<g>
				<g>
					<path fill="none" stroke="#0000FF" stroke-miterlimit="10" d="M51.4,87c0,0-0.1-0.3-0.3-0.6c-0.1-0.3-0.3-0.6-0.3-0.6
						s-0.2,0.3-0.3,0.7c-0.1,0.2-0.1,0.3-0.2,0.5c0,0.1-0.1,0.2-0.1,0.2"/>
				</g>
				<g>
					<path fill="none" stroke="#0000FF" stroke-miterlimit="10" d="M50.1,87.2c0,0-0.2-0.2-0.4-0.5c-0.1-0.1-0.2-0.2-0.3-0.3
						c-0.1-0.1-0.2-0.1-0.2-0.1s-0.1,0.4-0.1,0.7c0,0.2,0,0.4,0,0.5s0,0.2,0,0.2"/>
				</g>
				<g>
					<path fill="none" stroke="#0000FF" stroke-miterlimit="10" d="M49,87.8c0,0-0.3-0.2-0.6-0.3c-0.2-0.1-0.3-0.1-0.4-0.2
						c-0.1,0-0.2-0.1-0.2-0.1s0,0.1,0.1,0.2c0,0.1,0.1,0.3,0.2,0.5c0.1,0.2,0.1,0.3,0.2,0.4c0.1,0.1,0.1,0.2,0.1,0.2"/>
				</g>
				<g>
					<path fill="none" stroke="#0000FF" stroke-miterlimit="10" d="M48.2,88.8c0,0-0.3-0.1-0.7-0.1s-0.7,0-0.7,0s0.2,0.3,0.4,0.6
						s0.5,0.5,0.5,0.5"/>
				</g>
				<g>
					<path fill="none" stroke="#0000FF" stroke-miterlimit="10" d="M47.8,90.1c0,0-0.3,0.1-0.7,0.1c-0.3,0.1-0.7,0.2-0.7,0.2
						s0.3,0.2,0.6,0.5c0.3,0.2,0.6,0.4,0.6,0.4"/>
				</g>
				<g>
					<path fill="none" stroke="#0000FF" stroke-miterlimit="10" d="M45.6,92.7c0,0-0.1-0.3-0.2-0.7c-0.1-0.3-0.1-0.7-0.1-0.7
						s-0.3,0.2-0.6,0.4c-0.3,0.2-0.6,0.4-0.6,0.4"/>
				</g>
				<g>
					<path fill="none" stroke="#0000FF" stroke-miterlimit="10" d="M44,92.1c0,0,0-0.4,0.1-0.7c0-0.3,0.1-0.7,0.1-0.7
						s-0.3,0.2-0.7,0.3c-0.3,0.1-0.7,0.3-0.7,0.3"/>
				</g>
				<g>
					<path fill="none" stroke="#0000FF" stroke-miterlimit="10" d="M42.6,91.2c0,0,0.1-0.3,0.2-0.7c0.1-0.3,0.2-0.7,0.2-0.7
						s-0.3,0.1-0.7,0.2c-0.3,0.1-0.7,0.2-0.7,0.2"/>
				</g>
				<g>
					<path fill="none" stroke="#0000FF" stroke-miterlimit="10" d="M41.3,90.1c0,0,0.1-0.3,0.2-0.7c0.1-0.3,0.2-0.6,0.2-0.6
						l-0.3,0.1c-0.1,0-0.2,0-0.2-0.1c-0.2,0.1-0.3,0.2-0.4,0.3l-0.4,0.3"/>
				</g>
				<g>
					<path fill="none" stroke="#0000FF" stroke-miterlimit="10" d="M40.2,89.3c0,0,0-0.3,0.1-0.7c0-0.3,0.1-0.7,0.1-0.7
						s-0.3,0.2-0.6,0.3s-0.7,0.3-0.7,0.3"/>
				</g>
				<g>
					<path fill="none" stroke="#0000FF" stroke-miterlimit="10" d="M38.9,88.4c0,0,0.1-0.3,0.1-0.7c0.1-0.3,0.1-0.7,0.1-0.7
						s-0.3,0.2-0.7,0.3c-0.3,0.1-0.7,0.2-0.7,0.2"/>
				</g>
				<g>
					<path fill="none" stroke="#0000FF" stroke-miterlimit="10" d="M37.5,87.5c0,0,0.1-0.3,0.2-0.7c0.1-0.3,0.2-0.7,0.2-0.7
						s-0.3,0.1-0.7,0.2s-0.7,0.2-0.7,0.2"/>
				</g>
				<g>
					<path fill="none" stroke="#0000FF" stroke-miterlimit="10" d="M36.3,86.4c0,0,0.1-0.3,0.2-0.6c0.1-0.3,0.3-0.6,0.3-0.6
						s-0.4,0.1-0.7,0.1c-0.4,0.1-0.7,0.1-0.7,0.1"/>
				</g>
				<g>
					<path fill="none" stroke="#0000FF" stroke-miterlimit="10" d="M35.3,85.1c0,0,0-0.1,0.1-0.2s0.2-0.2,0.2-0.4
						c0.2-0.3,0.4-0.6,0.4-0.6s-0.1,0-0.2,0s-0.3,0-0.5,0c-0.4,0-0.7,0-0.7,0"/>
				</g>
				<g>
					<path fill="none" stroke="#0000FF" stroke-miterlimit="10" d="M34.4,83.7c0,0,0.2-0.3,0.4-0.6s0.4-0.5,0.4-0.5s-0.4,0-0.7-0.1
						c-0.2,0-0.4-0.1-0.5-0.1s-0.2-0.1-0.2-0.1"/>
				</g>
				<g>
					<path fill="none" stroke="#0000FF" stroke-miterlimit="10" d="M33.8,82.1c0,0,0.2-0.2,0.5-0.5c0.2-0.2,0.5-0.4,0.5-0.4
						s-0.4-0.1-0.7-0.2s-0.7-0.2-0.7-0.2"/>
				</g>
				<g>
					<path fill="none" stroke="#0000FF" stroke-miterlimit="10" d="M33.4,80.5c0,0,0.3-0.2,0.6-0.4c0.1-0.1,0.3-0.2,0.4-0.2
						c0.1-0.1,0.2-0.1,0.2-0.1s-0.3-0.1-0.7-0.3c-0.2-0.1-0.3-0.2-0.4-0.2c-0.1-0.1-0.2-0.1-0.2-0.1"/>
				</g>
				<g>
					<path fill="none" stroke="#0000FF" stroke-miterlimit="10" d="M33.2,78.9c0,0,0.3-0.2,0.6-0.3c0.3-0.1,0.6-0.2,0.6-0.2
						s-0.3-0.2-0.6-0.4c-0.1-0.1-0.3-0.2-0.4-0.3c-0.1-0.1-0.2-0.1-0.2-0.1"/>
				</g>
				<g>
					<path fill="none" stroke="#0000FF" stroke-miterlimit="10" d="M33.3,77.2c0,0,0.3-0.1,0.7-0.2c0.3-0.1,0.7-0.2,0.7-0.2
						s-0.3-0.2-0.5-0.5c-0.2-0.2-0.5-0.5-0.5-0.5"/>
				</g>
				<g>
					<path fill="none" stroke="#0000FF" stroke-miterlimit="10" d="M33.7,75.6c0,0,0.3-0.1,0.7-0.1c0.3,0,0.7-0.1,0.7-0.1
						s-0.2-0.3-0.4-0.6c-0.1-0.1-0.2-0.3-0.3-0.4s-0.1-0.2-0.1-0.2"/>
				</g>
				<g>
					<path fill="none" stroke="#0000FF" stroke-miterlimit="10" d="M34.3,74c0,0,0.4,0,0.7,0.1c0.2,0,0.3,0.1,0.4,0.1h0.1l0,0l0,0
						l0,0l0,0c0.1-0.1,0,0,0-0.1l0,0l0,0l0,0l0,0h0.1c0,0,0-0.1-0.1-0.2s-0.1-0.3-0.2-0.5c-0.1-0.1-0.2-0.3-0.3-0.4
						s-0.2-0.2-0.2-0.2"/>
				</g>
				<g>
					<path fill="none" stroke="#0000FF" stroke-miterlimit="10" d="M34.9,72.8c0,0,0.3-0.1,0.7-0.1c0.3-0.1,0.7-0.1,0.7-0.1
						S36,72.3,35.7,72s-0.6-0.5-0.6-0.5"/>
				</g>
				<g>
					<path fill="none" stroke="#0000FF" stroke-miterlimit="10" d="M35.2,71.3c0,0,0.3-0.1,0.7-0.2c0.3-0.1,0.7-0.2,0.7-0.2
						s-0.3-0.2-0.6-0.5c-0.3-0.2-0.6-0.4-0.6-0.4"/>
				</g>
				<g>
					<polyline fill="none" stroke="#0000FF" stroke-miterlimit="10" points="35.4,69.8 36.7,69.4 35.6,68.5 					"/>
				</g>
				<g>
					<polyline fill="none" stroke="#0000FF" stroke-miterlimit="10" points="35.6,68.3 36.9,67.8 35.7,67 					"/>
				</g>
				<g>
					<polyline fill="none" stroke="#0000FF" stroke-miterlimit="10" points="35.8,66.7 37.1,66.3 35.9,65.4 					"/>
				</g>
				<g>
					<polyline fill="none" stroke="#0000FF" stroke-miterlimit="10" points="35.9,65.2 37.2,64.7 36,63.9 					"/>
				</g>
				<g>
					<polyline fill="none" stroke="#0000FF" stroke-miterlimit="10" points="36,63.6 37.3,63.2 36.1,62.3 					"/>
				</g>
				<g>
					<polyline fill="none" stroke="#0000FF" stroke-miterlimit="10" points="36.1,62.1 37.4,61.6 36.2,60.8 					"/>
				</g>
				<g>
					<polyline fill="none" stroke="#0000FF" stroke-miterlimit="10" points="36.3,60.5 37.5,60.1 36.3,59.2 					"/>
				</g>
				<g>
					<polyline fill="none" stroke="#0000FF" stroke-miterlimit="10" points="36.3,59 37.6,58.5 36.4,57.7 					"/>
				</g>
				<g>
					<polyline fill="none" stroke="#0000FF" stroke-miterlimit="10" points="36.5,57.5 37.7,57 36.5,56.1 					"/>
				</g>
				<g>
					<polyline fill="none" stroke="#0000FF" stroke-miterlimit="10" points="36.5,55.9 37.8,55.4 36.6,54.6 					"/>
				</g>
				<g>
					<polyline fill="none" stroke="#0000FF" stroke-miterlimit="10" points="36.6,54.3 37.8,53.8 36.6,53 					"/>
				</g>
				<g>
					<polyline fill="none" stroke="#0000FF" stroke-miterlimit="10" points="36.6,52.8 37.9,52.2 36.6,51.5 					"/>
				</g>
				<g>
					<path fill="none" stroke="#0000FF" stroke-miterlimit="10" d="M36.6,51.2c0,0,0.3-0.1,0.6-0.3s0.6-0.3,0.6-0.3
						s-0.3-0.2-0.6-0.4s-0.6-0.4-0.6-0.4"/>
				</g>
				<g>
					<path fill="none" stroke="#0000FF" stroke-miterlimit="10" d="M36.6,49.7c0,0,0.3-0.1,0.6-0.3c0.3-0.1,0.6-0.2,0.6-0.2
						s-0.3-0.2-0.6-0.4s-0.6-0.5-0.6-0.5"/>
				</g>
				<g>
					<path fill="none" stroke="#0000FF" stroke-miterlimit="10" d="M36.8,48c0,0,0.3-0.1,0.7-0.2c0.3-0.1,0.7-0.1,0.7-0.1
						s-0.1-0.1-0.2-0.2c-0.1-0.1-0.2-0.2-0.3-0.4c-0.2-0.3-0.4-0.6-0.4-0.6"/>
				</g>
				<g>
					<path fill="none" stroke="#0000FF" stroke-miterlimit="10" d="M37.3,46.4c0,0,0.4,0,0.7,0s0.7,0.1,0.7,0.1s-0.1-0.1-0.1-0.2
						s-0.1-0.3-0.2-0.4c-0.1-0.3-0.2-0.7-0.2-0.7"/>
				</g>
				<g>
					<path fill="none" stroke="#0000FF" stroke-miterlimit="10" d="M38.3,44.9c0,0,0.3,0.1,0.7,0.2c0.2,0.1,0.3,0.1,0.4,0.2
						c0.1,0.1,0.2,0.1,0.2,0.1s0-0.1-0.1-0.2c0-0.1-0.1-0.3-0.1-0.5c0-0.4,0-0.7,0-0.7"/>
				</g>
				<g>
					<path fill="none" stroke="#0000FF" stroke-miterlimit="10" d="M39.7,43.8c0,0,0.3,0.2,0.6,0.4s0.5,0.5,0.5,0.5s0-0.1,0-0.2
						c0-0.1,0.1-0.3,0.1-0.5s0.1-0.4,0.1-0.5c0.1-0.1,0.1-0.2,0.1-0.2"/>
				</g>
				<g>
					<path fill="none" stroke="#0000FF" stroke-miterlimit="10" d="M41.4,43.2c0,0,0.1,0.1,0.2,0.2c0,0.1,0.1,0.1,0.1,0.2
						c0,0,0,0.1,0.1,0.1v0.1c0,0.2,0,0.4,0,0.5s-0.1,0.2-0.1,0.2l1.3-0.6"/>
				</g>
				<g>
					<polyline fill="none" stroke="#0000FF" stroke-miterlimit="10" points="43.2,43.9 43,45.3 44.3,44.7 					"/>
				</g>
			</g>
		</g>
	</g>
	<g>
		<g>
			<path fill="none" stroke="#0000FF" stroke-miterlimit="10" d="M51.9,47.5"/>
		</g>
	</g>
	<g>
		<g>
			<g>
				<g>
					<path fill="none" stroke="#0000FF" stroke-miterlimit="10" d="M51.4,50.9c0,0-0.1-0.3-0.3-0.6c-0.1-0.3-0.2-0.6-0.2-0.6
						s-0.2,0.3-0.4,0.6S50,50.7,50,50.7"/>
				</g>
				<g>
					<path fill="none" stroke="#0000FF" stroke-miterlimit="10" d="M49.8,50.7c0,0-0.1-0.3-0.2-0.7c-0.1-0.3-0.1-0.7-0.1-0.7
						s-0.2,0.3-0.5,0.5s-0.6,0.5-0.6,0.5"/>
				</g>
				<g>
					<path fill="none" stroke="#0000FF" stroke-miterlimit="10" d="M48.1,50.3c0,0-0.1-0.3-0.1-0.7c0-0.3,0-0.7,0-0.7
						s-0.3,0.2-0.6,0.4s-0.6,0.4-0.6,0.4"/>
				</g>
				<g>
					<path fill="none" stroke="#0000FF" stroke-miterlimit="10" d="M46.6,49.6c0,0,0-0.4,0.1-0.7c0-0.3,0.1-0.7,0.1-0.7
						s-0.3,0.2-0.6,0.3c-0.3,0.2-0.7,0.3-0.7,0.3"/>
				</g>
				<g>
					<path fill="none" stroke="#0000FF" stroke-miterlimit="10" d="M45.2,48.8c0,0,0.1-0.3,0.1-0.7c0.1-0.3,0.2-0.7,0.2-0.7
						s-0.3,0.1-0.7,0.2c-0.3,0.1-0.7,0.2-0.7,0.2"/>
				</g>
				<g>
					<path fill="none" stroke="#0000FF" stroke-miterlimit="10" d="M43.9,47.7c0,0,0.1-0.3,0.2-0.6c0.1-0.3,0.2-0.6,0.2-0.6
						s-0.1,0-0.2,0.1c-0.1,0-0.3,0.1-0.5,0.1c-0.4,0-0.7,0-0.7,0"/>
				</g>
				<g>
					<path fill="none" stroke="#0000FF" stroke-miterlimit="10" d="M42.8,46.4c0,0,0.2-0.3,0.4-0.6s0.4-0.6,0.4-0.6s-0.4,0-0.7,0
						s-0.7,0-0.7,0"/>
				</g>
				<g>
					<path fill="none" stroke="#0000FF" stroke-miterlimit="10" d="M42,45c0,0,0.2-0.3,0.4-0.5c0.2-0.3,0.4-0.5,0.4-0.5
						s-0.4,0-0.7-0.1c-0.4-0.1-0.7-0.1-0.7-0.1"/>
				</g>
				<g>
					<path fill="none" stroke="#0000FF" stroke-miterlimit="10" d="M41.3,43.5c0,0,0.2-0.2,0.5-0.5c0.2-0.2,0.5-0.5,0.5-0.5
						s-0.4-0.1-0.7-0.1s-0.7-0.2-0.7-0.2"/>
				</g>
				<g>
					<path fill="none" stroke="#0000FF" stroke-miterlimit="10" d="M40.8,42c0,0,0.3-0.2,0.5-0.4c0.3-0.2,0.6-0.4,0.6-0.4
						s-0.3-0.1-0.7-0.2c-0.3-0.1-0.7-0.3-0.7-0.3"/>
				</g>
				<g>
					<path fill="none" stroke="#0000FF" stroke-miterlimit="10" d="M40.5,40.3c0,0,0.3-0.2,0.6-0.3c0.3-0.2,0.6-0.3,0.6-0.3
						s-0.3-0.2-0.6-0.4s-0.6-0.4-0.6-0.4"/>
				</g>
				<g>
					<path fill="none" stroke="#0000FF" stroke-miterlimit="10" d="M40.6,38.6c0,0,0.3-0.1,0.7-0.2c0.3-0.1,0.7-0.1,0.7-0.1
						s-0.3-0.2-0.5-0.5s-0.4-0.6-0.4-0.6"/>
				</g>
				<g>
					<path fill="none" stroke="#0000FF" stroke-miterlimit="10" d="M41,36.9c0,0,0.4,0,0.7,0s0.7,0.1,0.7,0.1s-0.2-0.3-0.3-0.6
						s-0.2-0.7-0.2-0.7"/>
				</g>
				<g>
					<path fill="none" stroke="#0000FF" stroke-miterlimit="10" d="M42,35.5c0,0,0.3,0.1,0.7,0.2c0.3,0.1,0.6,0.3,0.6,0.3
						s-0.1-0.3-0.1-0.7c-0.1-0.4-0.1-0.7-0.1-0.7"/>
				</g>
				<g>
					<path fill="none" stroke="#0000FF" stroke-miterlimit="10" d="M43.4,34.3c0,0,0.1,0.1,0.2,0.1c0.1,0.1,0.2,0.2,0.4,0.2
						c0.3,0.2,0.6,0.4,0.6,0.4s-0.1-0.4-0.1-0.7s0-0.7,0-0.7"/>
				</g>
				<g>
					<path fill="none" stroke="#0000FF" stroke-miterlimit="10" d="M44.7,33.5c0,0,0.3,0.2,0.6,0.4s0.6,0.4,0.6,0.4s0-0.4,0-0.7
						c0-0.4,0.1-0.7,0.1-0.7"/>
				</g>
				<g>
					<path fill="none" stroke="#0000FF" stroke-miterlimit="10" d="M46.1,32.7c0,0,0.3,0.2,0.5,0.4s0.5,0.5,0.5,0.5s0.1-0.4,0.1-0.7
						c0.1-0.4,0.2-0.7,0.2-0.7"/>
				</g>
				<g>
					<path fill="none" stroke="#0000FF" stroke-miterlimit="10" d="M47.7,32.1c0,0,0.2,0.2,0.4,0.5s0.4,0.6,0.4,0.6s0.1-0.3,0.2-0.7
						c0.1-0.3,0.3-0.7,0.3-0.7"/>
				</g>
				<g>
					<path fill="none" stroke="#0000FF" stroke-miterlimit="10" d="M49.4,31.9c0,0,0.1,0.3,0.3,0.6s0.3,0.6,0.3,0.6l0.7-1.3"/>
				</g>
				<g>
					<path fill="none" stroke="#0000FF" stroke-miterlimit="10" d="M50.9,31.8l0.6,1.2c0,0,0.2-0.3,0.4-0.6s0.4-0.6,0.4-0.6"/>
				</g>
				<g>
					<path fill="none" stroke="#0000FF" stroke-miterlimit="10" d="M52.5,31.7c0,0,0.1,0.3,0.3,0.6C52.9,32.6,53,33,53,33
						s0.2-0.3,0.4-0.6s0.4-0.6,0.4-0.6"/>
				</g>
				<g>
					<path fill="none" stroke="#0000FF" stroke-miterlimit="10" d="M54.1,31.7c0,0,0.1,0.3,0.2,0.6c0.1,0.3,0.2,0.6,0.2,0.6
						s0.2-0.3,0.4-0.6s0.5-0.6,0.5-0.6"/>
				</g>
				<g>
					<path fill="none" stroke="#0000FF" stroke-miterlimit="10" d="M55.7,31.9c0,0,0.1,0.3,0.2,0.7c0.1,0.3,0.1,0.7,0.1,0.7
						s0.2-0.3,0.5-0.5c0.2-0.2,0.6-0.5,0.6-0.5"/>
				</g>
				<g>
					<path fill="none" stroke="#0000FF" stroke-miterlimit="10" d="M57.3,32.3c0,0,0.1,0.3,0.1,0.7c0,0.3,0,0.7,0,0.7
						s0.3-0.2,0.6-0.4s0.6-0.4,0.6-0.4"/>
				</g>
				<g>
					<path fill="none" stroke="#0000FF" stroke-miterlimit="10" d="M58.9,33c0,0,0,0.4-0.1,0.7s-0.2,0.7-0.2,0.7s0.3-0.1,0.7-0.2
						C59.7,34.1,60,34,60,34"/>
				</g>
				<g>
					<path fill="none" stroke="#0000FF" stroke-miterlimit="10" d="M60.2,34.1c0,0-0.1,0.3-0.2,0.6c-0.1,0.3-0.2,0.6-0.2,0.6
						s0.4-0.1,0.7-0.2c0.4-0.1,0.7-0.1,0.7-0.1"/>
				</g>
				<g>
					<path fill="none" stroke="#0000FF" stroke-miterlimit="10" d="M61.3,35.3c0,0-0.1,0.3-0.3,0.6c-0.1,0.3-0.3,0.6-0.3,0.6
						s0.4-0.1,0.7-0.1s0.7,0,0.7,0"/>
				</g>
				<g>
					<path fill="none" stroke="#0000FF" stroke-miterlimit="10" d="M62.3,36.6c0,0-0.2,0.3-0.4,0.6s-0.4,0.5-0.4,0.5s0.4,0,0.7,0.1
						c0.4,0.1,0.7,0.2,0.7,0.2"/>
				</g>
				<g>
					<path fill="none" stroke="#0000FF" stroke-miterlimit="10" d="M63,38.3c0,0-0.3,0.2-0.6,0.4s-0.6,0.4-0.6,0.4s0.3,0.1,0.6,0.3
						s0.6,0.4,0.6,0.4"/>
				</g>
				<g>
					<path fill="none" stroke="#0000FF" stroke-miterlimit="10" d="M63.1,40.1c0,0-0.3,0.1-0.6,0.2c-0.3,0.1-0.7,0.2-0.7,0.2
						s0.3,0.2,0.6,0.5c0.1,0.1,0.3,0.2,0.4,0.3c0.1,0.1,0.2,0.1,0.2,0.1"/>
				</g>
				<g>
					<path fill="none" stroke="#0000FF" stroke-miterlimit="10" d="M62.8,41.7c0,0-0.3,0.1-0.7,0.1c-0.3,0.1-0.7,0.2-0.7,0.2l1.1,1"
						/>
				</g>
				<g>
					<path fill="none" stroke="#0000FF" stroke-miterlimit="10" d="M62.5,43.2c0,0-0.3,0.1-0.7,0.2s-0.7,0.1-0.7,0.1
						s0.3,0.2,0.5,0.5c0.3,0.2,0.5,0.5,0.5,0.5"/>
				</g>
				<g>
					<path fill="none" stroke="#0000FF" stroke-miterlimit="10" d="M62.2,44.8c0,0-0.3,0.1-0.7,0.1C61.2,45,60.8,45,60.8,45
						s0.2,0.2,0.5,0.6c0.2,0.3,0.4,0.6,0.4,0.6"/>
				</g>
				<g>
					<path fill="none" stroke="#0000FF" stroke-miterlimit="10" d="M61.6,46.3c0,0-0.4,0-0.7,0s-0.7-0.1-0.7-0.1s0.2,0.3,0.3,0.6
						c0.2,0.3,0.2,0.7,0.2,0.7"/>
				</g>
				<g>
					<path fill="none" stroke="#0000FF" stroke-miterlimit="10" d="M60.7,47.8c0,0-0.3-0.1-0.7-0.2c-0.3-0.1-0.6-0.3-0.6-0.3
						s0.1,0.3,0.1,0.7s0,0.7,0,0.7"/>
				</g>
				<g>
					<path fill="none" stroke="#0000FF" stroke-miterlimit="10" d="M59.2,48.9c0,0-0.3-0.2-0.5-0.4c-0.1-0.1-0.2-0.2-0.3-0.3
						S58.2,48,58.2,48s-0.1,0.4-0.1,0.7S58,49.4,58,49.4"/>
				</g>
				<g>
					<path fill="none" stroke="#0000FF" stroke-miterlimit="10" d="M57.7,49.5c0,0-0.2-0.2-0.5-0.5c-0.2-0.2-0.5-0.5-0.5-0.5
						s-0.1,0.4-0.1,0.7c-0.1,0.4-0.2,0.7-0.2,0.7"/>
				</g>
				<g>
					<path fill="none" stroke="#0000FF" stroke-miterlimit="10" d="M56.2,50c0,0-0.2-0.2-0.5-0.5c-0.2-0.2-0.4-0.5-0.4-0.5
						s-0.1,0.4-0.2,0.7c-0.1,0.4-0.2,0.7-0.2,0.7"/>
				</g>
				<g>
					<path fill="none" stroke="#0000FF" stroke-miterlimit="10" d="M54.7,50.5c0,0-0.2-0.3-0.4-0.6s-0.4-0.6-0.4-0.6
						s-0.1,0.3-0.2,0.7c-0.1,0.3-0.3,0.7-0.3,0.7"/>
				</g>
				<g>
					<path fill="none" stroke="#0000FF" stroke-miterlimit="10" d="M53,50.8c0,0-0.2-0.3-0.4-0.6s-0.3-0.6-0.3-0.6s-0.2,0.3-0.3,0.6
						c-0.2,0.3-0.4,0.6-0.4,0.6"/>
				</g>
			</g>
		</g>
	</g>
</g>
<g id="leaf">
	<g>
		<path fill="#A8CF38" stroke="#010101" stroke-width="0.5" stroke-linecap="round" stroke-linejoin="round" d="M50.5,23.1
			c0,0-2.4-4.2-2-6.2l0.6,0.2c0,0-0.5-0.6,0.1-3.1l0.5,0.4c0,0-0.4-1.2,0.4-2.9l0.5,0.4c0,0,0.2-1.1,0.7-2.3l0.5,0.3
			c0,0-0.1-1.4,0.4-2.4L52.4,8c0,0,0.2-1.7,1.1-2.1l0.1,0.4c0,0,0.6-1.1,1.6-1.7l0.4,0.5c0,0,0-1.1,1.2-1.5L57.2,4
			c0,0,0.1-1.4,1.3-1.7L58.8,3c0,0,2-1.8,2.4-1.9l0.7,0.4c0.1,0.3,0,3,0,3l0.7-0.2c0.5,1.1-0.6,2-0.6,2h0.5C62.9,7.5,62,8.2,62,8.2
			l0.7,0.1c0.1,1.1-0.3,2.3-0.3,2.3l0.4-0.1c0.3,0.9-0.9,2.2-0.9,2.2l0.6,0.1c-0.5,1-1.7,1.7-1.7,1.7l0.6,0.2
			c-0.6,1.1-1.4,1.9-1.4,1.9l0.6,0.1c-0.8,1.6-2,2.1-2,2.1l0.6,0.1c-1.7,2-2.4,2-2.4,2l0.5,0.3c-1.4,1.5-6.2,2.1-6.2,2.1L50.5,23.1z
			"/>
		<path fill="#A8CF38" stroke="#010101" stroke-width="0.5" stroke-linecap="round" stroke-linejoin="round" d="M50.9,23.3
			c0,0-2.4-4.2-2-6.2l0.6,0.2c0,0-0.5-0.6,0.1-3.1l0.5,0.4c0,0-0.4-1.2,0.4-2.9l0.5,0.4c0,0,0.2-1.1,0.7-2.3l0.5,0.3
			c0,0-0.1-1.4,0.4-2.4l0.5,0.4c0,0,0.2-1.7,1.1-2.1l0.1,0.4c0,0,0.6-1.1,1.6-1.7l0.4,0.5c0,0,0-1.1,1.2-1.5l0.2,0.4
			c0,0,0.1-1.4,1.3-1.7l0.3,0.7c0,0,2-1.8,2.4-1.9l0.7,0.4c0.1,0.3,0,3,0,3l0.7-0.2c0.5,1.1-0.6,2-0.6,2H63c0.4,1.2-0.5,1.9-0.5,1.9
			l0.7,0.1c0.1,1.1-0.3,2.3-0.3,2.3l0.4-0.1c0.3,0.9-0.9,2.2-0.9,2.2l0.6,0.1c-0.5,1-1.7,1.7-1.7,1.7l0.6,0.2
			c-0.6,1.1-1.4,1.9-1.4,1.9l0.6,0.1c-0.8,1.6-2,2.1-2,2.1l0.6,0.1c-1.7,2-2.4,2-2.4,2l0.5,0.3c-1.4,1.5-6.2,2.1-6.2,2.1L50.9,23.3z
			"/>
		
			<line fill="none" stroke="#010101" stroke-width="0.5" stroke-linecap="round" stroke-linejoin="round" x1="61.8" y1="1.7" x2="51.1" y2="23.4"/>
		<g>
			
				<line fill="none" stroke="#010101" stroke-width="0.5" stroke-linecap="round" stroke-linejoin="round" x1="59.3" y1="2.9" x2="59.6" y2="4.7"/>
			
				<line fill="none" stroke="#010101" stroke-width="0.5" stroke-linecap="round" stroke-linejoin="round" x1="57.6" y1="4.3" x2="58.7" y2="6.4"/>
			
				<line fill="none" stroke="#010101" stroke-width="0.5" stroke-linecap="round" stroke-linejoin="round" x1="56.3" y1="5.3" x2="57.7" y2="8"/>
			
				<line fill="none" stroke="#010101" stroke-width="0.5" stroke-linecap="round" stroke-linejoin="round" x1="54.1" y1="6.5" x2="56.4" y2="9.7"/>
			
				<line fill="none" stroke="#010101" stroke-width="0.5" stroke-linecap="round" stroke-linejoin="round" x1="53" y1="8.1" x2="55.8" y2="11.6"/>
			
				<line fill="none" stroke="#010101" stroke-width="0.5" stroke-linecap="round" stroke-linejoin="round" x1="51.9" y1="10.1" x2="54.8" y2="13.3"/>
			
				<line fill="none" stroke="#010101" stroke-width="0.5" stroke-linecap="round" stroke-linejoin="round" x1="50.8" y1="11.9" x2="53.3" y2="15.3"/>
			
				<line fill="none" stroke="#010101" stroke-width="0.5" stroke-linecap="round" stroke-linejoin="round" x1="49.9" y1="14.5" x2="52.8" y2="18.1"/>
			
				<line fill="none" stroke="#010101" stroke-width="0.5" stroke-linecap="round" stroke-linejoin="round" x1="49.4" y1="17.2" x2="51.7" y2="21.1"/>
		</g>
		<g>
			
				<line fill="none" stroke="#010101" stroke-width="0.5" stroke-linecap="round" stroke-linejoin="round" x1="62.7" y1="4.6" x2="61" y2="5.4"/>
			
				<line fill="none" stroke="#010101" stroke-width="0.5" stroke-linecap="round" stroke-linejoin="round" x1="62.6" y1="6.7" x2="60.3" y2="7.2"/>
			
				<line fill="none" stroke="#010101" stroke-width="0.5" stroke-linecap="round" stroke-linejoin="round" x1="62.6" y1="8.4" x2="59.6" y2="9"/>
			
				<line fill="none" stroke="#010101" stroke-width="0.5" stroke-linecap="round" stroke-linejoin="round" x1="63" y1="10.9" x2="59.1" y2="11"/>
			
				<line fill="none" stroke="#010101" stroke-width="0.5" stroke-linecap="round" stroke-linejoin="round" x1="62.4" y1="12.7" x2="57.9" y2="12.6"/>
			
				<line fill="none" stroke="#010101" stroke-width="0.5" stroke-linecap="round" stroke-linejoin="round" x1="61.5" y1="14.8" x2="57.2" y2="14.5"/>
			
				<line fill="none" stroke="#010101" stroke-width="0.5" stroke-linecap="round" stroke-linejoin="round" x1="60.7" y1="16.8" x2="56.5" y2="16.9"/>
			
				<line fill="none" stroke="#010101" stroke-width="0.5" stroke-linecap="round" stroke-linejoin="round" x1="59.2" y1="19.1" x2="54.5" y2="19"/>
			
				<line fill="none" stroke="#010101" stroke-width="0.5" stroke-linecap="round" stroke-linejoin="round" x1="57.4" y1="21.1" x2="52.9" y2="21.6"/>
		</g>
		<path fill="#FFFFFF" stroke="#010101" stroke-width="0.5" stroke-linecap="round" stroke-linejoin="round" d="M63.6,8.8
			c0,0-1.6,0.4-1.2,1.2c0,0-1.9,0.3-1,1.8c0,0,0.5,1,1.3,0.6c0,0-0.5,0.8,0.3,0.7c0.8-0.2,0.6-0.2,0.6-0.2"/>
		<path fill="#FFFFFF" stroke="#010101" stroke-width="0.5" stroke-miterlimit="10" d="M53.3,10.9c-0.1,0.4-0.3,0.7-0.4,1
			c0.4,0.3,0.9-0.4,1.1-0.7c-0.2,0.6-0.1,1.8,0.7,0.9c-0.1,0.6,0.2,0.6,0.6,0.9c-0.1,0.5-0.6,0.6-0.9,1c-0.2,0.2-0.2,0.5-0.4,0.7
			c-0.3-0.2-0.3-0.6-0.6-0.8c-0.2,0.1-0.7,0.8-0.9,0.8S52,14.1,51.7,14c0.1-0.3,0.3-0.6,0.4-0.9C52.1,13,52,13,52,13
			c0.1-0.4,0.7-2.2,1.2-1.8"/>
		<path fill="#FFFFFF" stroke="#010101" stroke-width="0.5" stroke-miterlimit="10" d="M58.7,6.7c0.5-0.4,0.5-0.9,1.2-1.3
			C60,5.6,59.8,6.2,60,6.3c0.4,0.3,1-0.4,1.2-0.6c-0.1,0.1-0.3,0.6-0.2,0.8c0.2,0.4,0.6,0.1,0.9,0.1c-0.2,0.6-0.7,0.9-0.9,1.5
			c-0.2,0.4-0.2,0.7-0.4,1c-0.6-0.2-1.1-0.7-1.2-1.3c-0.2,0.4-0.9,1.7-1,0.6c-0.1-0.6,0.4-1.3,0.5-1.9"/>
		<path fill="#FFFFFF" stroke="#010101" stroke-width="0.5" stroke-miterlimit="10" d="M58,15.7c0,0.4-0.6,0.8-0.6,1.2
			c0,0.5,0.6,0.9,1.1,0.9c-0.6,0.2-1.1,0.5-1.3,1.1c0.2,0.2,0.6,0.4,0.9,0.5c-0.2,0.1-1.5,0.7-0.8,1c-0.2,0.5-1.5-0.2-1.8-0.5
			c-0.7-0.6-0.4-1.3-0.1-2.1c0.4-1.1,1.4-2.2,2.7-1.9"/>
	</g>
</g>
<g id="water">
	<g>
		<path fill="#55C2E2" stroke="#070707" stroke-width="0.5" stroke-miterlimit="10" d="M72,28.1c0,0-10,11.6-1.2,14.2
			c0,0,7.2-0.2,4-8.6C74.8,33.7,72.1,30.5,72,28.1z"/>
		<path fill="none" stroke="#3A97AD" stroke-miterlimit="10" d="M71.4,41.3c1.4,0.7,3.7-2.9,3.6-4.1"/>
		
			<ellipse transform="matrix(0.6127 0.7903 -0.7903 0.6127 58.3547 -39.9773)" opacity="0.8" fill="#FFFFFF" enable-background="new    " cx="70" cy="39.6" rx="1.6" ry="1.3"/>
		<path opacity="0.8" fill="#FFFFFF" enable-background="new    " d="M69,33.1c0,0,1.3-3.2,2.9-4"/>
	</g>
	<g>
		<path fill="#55C2E2" stroke="#070707" stroke-width="0.5" stroke-miterlimit="10" d="M24.2,57.3c0,0-10,11.6-1.2,14.2
			c0,0,7.2-0.2,4-8.6C27.1,63,24.3,59.8,24.2,57.3z"/>
		<path fill="none" stroke="#3A97AD" stroke-miterlimit="10" d="M23.6,70.6c1.4,0.7,3.7-2.9,3.6-4.1"/>
		
			<ellipse transform="matrix(0.6127 0.7903 -0.7903 0.6127 62.9795 9.1553)" opacity="0.8" fill="#FFFFFF" enable-background="new    " cx="22.1" cy="68.8" rx="1.6" ry="1.3"/>
		<path opacity="0.8" fill="#FFFFFF" enable-background="new    " d="M21.3,62.4c0,0,1.3-3.2,2.9-4"/>
	</g>
	<g>
		<path fill="#55C2E2" stroke="#070707" stroke-width="0.5" stroke-miterlimit="10" d="M38.6,90.4c0,0-6,7-0.7,8.5
			c0,0,4.3-0.1,2.4-5.2C40.3,93.8,38.6,91.9,38.6,90.4z"/>
		<path fill="none" stroke="#3A97AD" stroke-miterlimit="10" d="M38.2,98.4c0.9,0.4,2.2-1.7,2.1-2.5"/>
		
			<ellipse transform="matrix(0.6128 0.7903 -0.7903 0.6128 91.8496 8.6242)" opacity="0.8" fill="#FFFFFF" enable-background="new    " cx="37.1" cy="98" rx="0.6" ry="0.5"/>
		<path opacity="0.8" fill="#FFFFFF" enable-background="new    " d="M36.8,93.5c0,0,0.8-1.9,1.7-2.4"/>
	</g>
	<g>
		<path fill="#55C2E2" stroke="#070707" stroke-width="0.5" stroke-miterlimit="10" d="M80.2,53.1c0,0-6,7-0.7,8.5
			c0,0,4.3-0.1,2.4-5.2C81.9,56.5,80.3,54.5,80.2,53.1z"/>
		<path fill="none" stroke="#3A97AD" stroke-miterlimit="10" d="M79.8,61.1c0.9,0.4,2.2-1.7,2.1-2.5"/>
		
			<ellipse transform="matrix(0.6126 0.7904 -0.7904 0.6126 78.5446 -38.7381)" opacity="0.8" fill="#FFFFFF" enable-background="new    " cx="78.8" cy="60.8" rx="0.6" ry="0.5"/>
		<path opacity="0.8" fill="#FFFFFF" enable-background="new    " d="M78.4,56.1c0,0,0.8-1.9,1.7-2.4"/>
	</g>
	<g>
		<path fill="#55C2E2" stroke="#070707" stroke-width="0.5" stroke-miterlimit="10" d="M78.5,72.5c0,0-3.7,4.3-0.4,5.3
			c0,0,2.7-0.1,1.5-3.2C79.6,74.6,78.6,73.4,78.5,72.5z"/>
		<path fill="none" stroke="#3A97AD" stroke-miterlimit="10" d="M78.3,77.5c0.5,0.2,1.4-1.1,1.3-1.6"/>
		
			<ellipse transform="matrix(0.6123 0.7906 -0.7906 0.6123 90.7758 -31.6262)" opacity="0.8" fill="#FFFFFF" enable-background="new    " cx="77.6" cy="76.7" rx="0.3" ry="0.2"/>
		<path opacity="0.8" fill="#FFFFFF" enable-background="new    " d="M77.4,74.4c0,0,0.5-1.2,1.1-1.5"/>
	</g>
	<g>
		<path fill="#55C2E2" stroke="#070707" stroke-width="0.5" stroke-miterlimit="10" d="M32.2,31.6c0,0-3.7,4.3-0.4,5.3
			c0,0,2.7-0.1,1.5-3.2C33.3,33.7,32.3,32.5,32.2,31.6z"/>
		<path fill="none" stroke="#3A97AD" stroke-miterlimit="10" d="M32,36.6c0.5,0.2,1.4-1.1,1.3-1.6"/>
		
			<ellipse transform="matrix(0.6126 0.7904 -0.7904 0.6126 40.5357 -10.8136)" opacity="0.8" fill="#FFFFFF" enable-background="new    " cx="31.3" cy="35.9" rx="0.3" ry="0.2"/>
		<path opacity="0.8" fill="#FFFFFF" enable-background="new    " d="M31.1,33.5c0,0,0.5-1.2,1.1-1.5"/>
	</g>
</g>
<g id="eyes">
	<path fill="#FF9900" stroke="#010101" stroke-width="0.5" stroke-miterlimit="10" d="M45,29.6c0,0,2.8-4.5,5-2.5
		c0,0-0.5,5.6-5.3,3.1L45,29.6z"/>
	<path fill="#FF9900" stroke="#010101" stroke-width="0.5" stroke-miterlimit="10" d="M58.8,29.6c0,0-2.9-4.5-5.4-2.5
		c0,0,0.6,5.6,5.6,3.1L58.8,29.6z"/>
</g>
</svg>
