<?xml version="1.0" encoding="utf-8"?>
<!-- Generator: Adobe Illustrator 17.1.0, SVG Export Plug-In . SVG Version: 6.00 Build 0)  -->
<!DOCTYPE svg PUBLIC "-//W3C//DTD SVG 1.1//EN" "http://www.w3.org/Graphics/SVG/1.1/DTD/svg11.dtd">
<svg version="1.1" id="Layer_1" xmlns="http://www.w3.org/2000/svg" xmlns:xlink="http://www.w3.org/1999/xlink" x="0px" y="0px"
	 viewBox="0 0 100 100" enable-background="new 0 0 100 100" xml:space="preserve">
<pattern  y="100" width="3" height="3" patternUnits="userSpaceOnUse" id="SVGID_2" viewBox="7.6 -10.5 3 3" overflow="visible">
	<g>
		<polygon fill="none" points="7.6,-10.5 10.6,-10.5 10.6,-7.5 7.6,-7.5 		"/>
		<g>
			<defs>
				<rect id="SVGID_1_" x="9.6" y="-8.5" width="5" height="5"/>
			</defs>
			<clipPath id="SVGID_2_">
				<use xlink:href="#SVGID_1_"  overflow="visible"/>
			</clipPath>
			<polygon clip-path="url(#SVGID_2_)" fill="none" points="16.1,-7 8,-7 8,-15.1 16.1,-15.1 			"/>
			<polygon clip-path="url(#SVGID_2_)" fill="none" points="11.1,-7 3,-7 3,-15.1 11.1,-15.1 			"/>
			<g clip-path="url(#SVGID_2_)">
				<polygon fill="none" points="16.1,-2 8,-2 8,-10.1 16.1,-10.1 				"/>
			</g>
			<polygon clip-path="url(#SVGID_2_)" fill="none" points="11.1,-2 3,-2 3,-10.1 11.1,-10.1 			"/>
		</g>
		<g>
			<defs>
				<rect id="SVGID_3_" x="6.6" y="-8.5" width="5" height="5"/>
			</defs>
			<clipPath id="SVGID_4_">
				<use xlink:href="#SVGID_3_"  overflow="visible"/>
			</clipPath>
			<polygon clip-path="url(#SVGID_4_)" fill="none" points="18.1,-7 10,-7 10,-15.1 18.1,-15.1 			"/>
			<polygon clip-path="url(#SVGID_4_)" fill="none" points="13.1,-7 5,-7 5,-15.1 13.1,-15.1 			"/>
			<polygon clip-path="url(#SVGID_4_)" fill="none" points="8.1,-7 0,-7 0,-15.1 8.1,-15.1 			"/>
			<polygon clip-path="url(#SVGID_4_)" fill="none" points="18.1,-2 10,-2 10,-10.1 18.1,-10.1 			"/>
			<g clip-path="url(#SVGID_4_)">
				<polygon fill="none" points="13.1,-2 5,-2 5,-10.1 13.1,-10.1 				"/>
			</g>
			<polygon clip-path="url(#SVGID_4_)" fill="none" points="8.1,-2 0,-2 0,-10.1 8.1,-10.1 			"/>
		</g>
		<g>
			<defs>
				<rect id="SVGID_5_" x="3.6" y="-8.5" width="5" height="5"/>
			</defs>
			<clipPath id="SVGID_6_">
				<use xlink:href="#SVGID_5_"  overflow="visible"/>
			</clipPath>
			<polygon clip-path="url(#SVGID_6_)" fill="none" points="15.1,-7 7,-7 7,-15.1 15.1,-15.1 			"/>
			<polygon clip-path="url(#SVGID_6_)" fill="none" points="10.1,-7 2,-7 2,-15.1 10.1,-15.1 			"/>
			<polygon clip-path="url(#SVGID_6_)" fill="none" points="15.1,-2 7,-2 7,-10.1 15.1,-10.1 			"/>
			<g clip-path="url(#SVGID_6_)">
				<polygon fill="none" points="10.1,-2 2,-2 2,-10.1 10.1,-10.1 				"/>
			</g>
		</g>
		<g>
			<defs>
				<rect id="SVGID_7_" x="9.6" y="-11.5" width="5" height="5"/>
			</defs>
			<clipPath id="SVGID_8_">
				<use xlink:href="#SVGID_7_"  overflow="visible"/>
			</clipPath>
			<polygon clip-path="url(#SVGID_8_)" fill="none" points="16.1,-10 8,-10 8,-18.1 16.1,-18.1 			"/>
			<polygon clip-path="url(#SVGID_8_)" fill="none" points="11.1,-10 3,-10 3,-18.1 11.1,-18.1 			"/>
			<g clip-path="url(#SVGID_8_)">
				<polygon fill="none" points="16.1,-5 8,-5 8,-13.1 16.1,-13.1 				"/>
			</g>
			<polygon clip-path="url(#SVGID_8_)" fill="none" points="11.1,-5 3,-5 3,-13.1 11.1,-13.1 			"/>
			<polygon clip-path="url(#SVGID_8_)" fill="none" points="16.1,0 8,0 8,-8.1 16.1,-8.1 			"/>
			<polygon clip-path="url(#SVGID_8_)" fill="none" points="11.1,0 3,0 3,-8.1 11.1,-8.1 			"/>
		</g>
		<g>
			<defs>
				<rect id="SVGID_9_" x="6.6" y="-11.5" width="5" height="5"/>
			</defs>
			<clipPath id="SVGID_10_">
				<use xlink:href="#SVGID_9_"  overflow="visible"/>
			</clipPath>
			<polygon clip-path="url(#SVGID_10_)" fill="none" points="18.1,-10 10,-10 10,-18.1 18.1,-18.1 			"/>
			<polygon clip-path="url(#SVGID_10_)" fill="none" points="13.1,-10 5,-10 5,-18.1 13.1,-18.1 			"/>
			<polygon clip-path="url(#SVGID_10_)" fill="none" points="8.1,-10 0,-10 0,-18.1 8.1,-18.1 			"/>
			<polygon clip-path="url(#SVGID_10_)" fill="none" points="18.1,-5 10,-5 10,-13.1 18.1,-13.1 			"/>
			<g clip-path="url(#SVGID_10_)">
				<polygon fill="none" points="13.1,-5 5,-5 5,-13.1 13.1,-13.1 				"/>
				<path fill="#010101" d="M9.6-9.3C9.6-9,9.3-8.7,9-8.7S8.4-9,8.4-9.3S8.7-9.9,9-9.9S9.6-9.6,9.6-9.3z"/>
			</g>
			<polygon clip-path="url(#SVGID_10_)" fill="none" points="8.1,-5 0,-5 0,-13.1 8.1,-13.1 			"/>
			<polygon clip-path="url(#SVGID_10_)" fill="none" points="18.1,0 10,0 10,-8.1 18.1,-8.1 			"/>
			<polygon clip-path="url(#SVGID_10_)" fill="none" points="13.1,0 5,0 5,-8.1 13.1,-8.1 			"/>
			<polygon clip-path="url(#SVGID_10_)" fill="none" points="8.1,0 0,0 0,-8.1 8.1,-8.1 			"/>
		</g>
		<g>
			<defs>
				<rect id="SVGID_11_" x="3.6" y="-11.5" width="5" height="5"/>
			</defs>
			<clipPath id="SVGID_12_">
				<use xlink:href="#SVGID_11_"  overflow="visible"/>
			</clipPath>
			<polygon clip-path="url(#SVGID_12_)" fill="none" points="15.1,-10 7,-10 7,-18.1 15.1,-18.1 			"/>
			<polygon clip-path="url(#SVGID_12_)" fill="none" points="10.1,-10 2,-10 2,-18.1 10.1,-18.1 			"/>
			<polygon clip-path="url(#SVGID_12_)" fill="none" points="15.1,-5 7,-5 7,-13.1 15.1,-13.1 			"/>
			<g clip-path="url(#SVGID_12_)">
				<polygon fill="none" points="10.1,-5 2,-5 2,-13.1 10.1,-13.1 				"/>
			</g>
			<polygon clip-path="url(#SVGID_12_)" fill="none" points="15.1,0 7,0 7,-8.1 15.1,-8.1 			"/>
			<polygon clip-path="url(#SVGID_12_)" fill="none" points="10.1,0 2,0 2,-8.1 10.1,-8.1 			"/>
		</g>
		<g>
			<defs>
				<rect id="SVGID_13_" x="9.6" y="-14.5" width="5" height="5"/>
			</defs>
			<clipPath id="SVGID_14_">
				<use xlink:href="#SVGID_13_"  overflow="visible"/>
			</clipPath>
			<g clip-path="url(#SVGID_14_)">
				<polygon fill="none" points="16.1,-8 8,-8 8,-16.1 16.1,-16.1 				"/>
			</g>
			<polygon clip-path="url(#SVGID_14_)" fill="none" points="11.1,-8 3,-8 3,-16.1 11.1,-16.1 			"/>
			<polygon clip-path="url(#SVGID_14_)" fill="none" points="16.1,-3 8,-3 8,-11.1 16.1,-11.1 			"/>
			<polygon clip-path="url(#SVGID_14_)" fill="none" points="11.1,-3 3,-3 3,-11.1 11.1,-11.1 			"/>
		</g>
		<g>
			<defs>
				<rect id="SVGID_15_" x="6.6" y="-14.5" width="5" height="5"/>
			</defs>
			<clipPath id="SVGID_16_">
				<use xlink:href="#SVGID_15_"  overflow="visible"/>
			</clipPath>
			<polygon clip-path="url(#SVGID_16_)" fill="none" points="18.1,-8 10,-8 10,-16.1 18.1,-16.1 			"/>
			<g clip-path="url(#SVGID_16_)">
				<polygon fill="none" points="13.1,-8 5,-8 5,-16.1 13.1,-16.1 				"/>
			</g>
			<polygon clip-path="url(#SVGID_16_)" fill="none" points="8.1,-8 0,-8 0,-16.1 8.1,-16.1 			"/>
			<polygon clip-path="url(#SVGID_16_)" fill="none" points="18.1,-3 10,-3 10,-11.1 18.1,-11.1 			"/>
			<polygon clip-path="url(#SVGID_16_)" fill="none" points="13.1,-3 5,-3 5,-11.1 13.1,-11.1 			"/>
			<polygon clip-path="url(#SVGID_16_)" fill="none" points="8.1,-3 0,-3 0,-11.1 8.1,-11.1 			"/>
		</g>
		<g>
			<defs>
				<rect id="SVGID_17_" x="3.6" y="-14.5" width="5" height="5"/>
			</defs>
			<clipPath id="SVGID_18_">
				<use xlink:href="#SVGID_17_"  overflow="visible"/>
			</clipPath>
			<polygon clip-path="url(#SVGID_18_)" fill="none" points="15.1,-8 7,-8 7,-16.1 15.1,-16.1 			"/>
			<g clip-path="url(#SVGID_18_)">
				<polygon fill="none" points="10.1,-8 2,-8 2,-16.1 10.1,-16.1 				"/>
			</g>
			<polygon clip-path="url(#SVGID_18_)" fill="none" points="15.1,-3 7,-3 7,-11.1 15.1,-11.1 			"/>
			<polygon clip-path="url(#SVGID_18_)" fill="none" points="10.1,-3 2,-3 2,-11.1 10.1,-11.1 			"/>
		</g>
	</g>
</pattern>
<g id="legs">
	<path fill="#FFFFFF" stroke="#010101" stroke-miterlimit="10" d="M68.2,50.1c0,0,0.8-0.3,2.4-3.5c0,0-0.7,1.2-1.2,1.2
		c0,0,0.3-4,1.6-5.4c0,0-1.1,0-2,1.3c0,0,0.2-12.7,4.6-13.9C73.6,29.8,68.4,26.4,68.2,50.1z"/>
	<path fill="#FFFFFF" stroke="#010101" stroke-miterlimit="10" d="M69.5,59.1c0,0,2.7,0.3,2.8,1.7c0.1,1.4,0,2.5,0,2.5
		s-0.2,1.5-2.8,1V59.1z"/>
	<path fill="#FFFFFF" stroke="#010101" stroke-miterlimit="10" d="M72.4,61.8c0,0,3.3,1,3.3,3.5c0,2.5,0.2,6.2,1.4,8.4
		c1.1,2.2-1-0.4-1.6-1.7c0,0,0.5,3.9,3.3,5c0,0-1.9,0-2.3-0.5s3.9,4.8,5.8,4.8c0,0-8.8-0.3-8.6-16.9c0,0-0.1-1.2-1.3-1.1L72.4,61.8z
		"/>
	<path fill="#FFFFFF" stroke="#010101" stroke-miterlimit="10" d="M66.8,77.5c2.9,1.6,3.8,0.4,4.2-1.2c0.4-1.6-2.4-3.1-2.4-3.1
		l-0.8,2.5l-0.9,1.6"/>
	<path fill="#FFFFFF" stroke="#010101" stroke-miterlimit="10" d="M71,77.1c0,0,1.8,6.5,2.9,7.3c0,0-0.6,0.3-1.5-0.9
		c0,0-0.9,4,0.7,6.1c0,0-1.3-0.2-2.1-1.2c0,0-4.1,7.3-2.1,11c0,0-2.6-3.2,0.6-11.5c0,0,2.3-6,0.7-10L71,77.1z"/>
	<path fill="#FFFFFF" stroke="#010101" stroke-miterlimit="10" d="M32.7,49.9c0,0-0.8-0.3-2.4-3.5c0,0,0.7,1.2,1.2,1.2
		c0,0-0.3-4-1.6-5.4c0,0,1.1,0,2,1.3c0,0-0.2-12.7-4.6-13.9C27.2,29.6,32.5,26.2,32.7,49.9z"/>
	<path fill="#FFFFFF" stroke="#010101" stroke-miterlimit="10" d="M30.4,59c0,0-2.7,0.3-2.8,1.7c-0.1,1.4,0,2.5,0,2.5s0.2,1.5,2.8,1
		V59z"/>
	<path fill="#FFFFFF" stroke="#010101" stroke-miterlimit="10" d="M27.5,61.6c0,0-3.3,1-3.3,3.5s-0.2,6.2-1.4,8.4s1-0.4,1.6-1.7
		c0,0-0.5,3.9-3.3,5c0,0,1.9,0,2.3-0.5s-3.9,4.8-5.8,4.8c0,0,8.8-0.3,8.6-16.9c0,0,0.1-1.2,1.3-1.1L27.5,61.6z"/>
	<path fill="#FFFFFF" stroke="#010101" stroke-miterlimit="10" d="M34.2,77.3c-2.9,1.6-3.8,0.4-4.2-1.2c-0.4-1.6,2.4-3.1,2.4-3.1
		l0.8,2.5l0.9,1.6"/>
	<path fill="#FFFFFF" stroke="#010101" stroke-miterlimit="10" d="M30,76.9c0,0-1.8,6.5-2.9,7.3c0,0,0.6,0.3,1.5-0.9
		c0,0,0.9,4-0.7,6.1c0,0,1.3-0.2,2.1-1.2c0,0,4.1,7.3,2.1,11c0,0,2.6-3.2-0.6-11.5c0,0-2.3-6-0.7-10L30,76.9z"/>
	<path fill="#FFFFFF" stroke="#010101" stroke-miterlimit="10" d="M67,49.2L65.8,53l2.1,0.9C68,53.9,71.2,50.1,67,49.2z"/>
	<path fill="#FFFFFF" stroke="#010101" stroke-miterlimit="10" d="M33.9,49l1.2,3.8L33,53.7C32.9,53.7,29.6,49.9,33.9,49z"/>
</g>
<g id="basebody">
	<path fill="#FFFFFF" stroke="#000000" stroke-miterlimit="10" d="M48.9,89.7c-5.4,0-9.8-1.9-13-5.6c-6.3-7.3-6.1-19.7-5.7-22.3
		c0.6-4.3,2.2-7.7,2.2-7.9l0.1-0.2l2.4-0.9h0.2c0.1,0,7.9,2.4,16.9,2.4c5.3,0,9.8-0.8,13.7-2.4l0,0l0,0c0,0,0.2,0,0.4,0
		c0.4,0,1.3,0.1,2.1,0.9c1.4,1.4,2,4.2,1.8,8.2c0,1.2,0,2.5,0,3.8c0,9.3,0.2,22.1-18.8,23.8C50.4,89.6,49.6,89.7,48.9,89.7z"/>
	<path fill="#FFFFFF" stroke="#010101" stroke-miterlimit="10" d="M34.8,53.2c0,0-4.7-11.7,7-15.2c0,0,9.6,3,18.2,0
		c0,0,10.2,3.5,5.7,15.2C65.7,53.2,54.4,58.6,34.8,53.2z"/>
	<g>
		<path fill="#FFFFFF" d="M50.7,40"/>
		<g>
			<path fill="none" stroke="#010101" stroke-miterlimit="10" d="M50.7,40"/>
		</g>
	</g>
	<path fill="#FFFFFF" stroke="#010101" stroke-miterlimit="10" d="M42.6,38.2c0,0,1.7-8.1,7.2-8.5s7.7,6.5,7.7,6.5l0.9,2.2
		C58.5,38.4,50.9,41.1,42.6,38.2z"/>
</g>
<g id="bodycolor">
	<path fill="#6CBE45" stroke="#010101" stroke-miterlimit="10" d="M48.9,89.7c-5.4,0-9.8-1.9-13-5.6c-6.3-7.3-6.1-19.7-5.7-22.3
		c0.6-4.3,2.2-7.7,2.2-7.9l0.1-0.2l2.4-0.9h0.2c0.1,0,7.9,2.4,16.9,2.4c5.3,0,9.8-0.8,13.7-2.4l0,0l0,0c0,0,0.2,0,0.4,0
		c0.4,0,1.3,0.1,2.1,0.9c1.4,1.4,2,4.2,1.8,8.2c0,1.2,0,2.5,0,3.8c0,9.3,0.2,22.1-18.8,23.8C50.4,89.6,49.6,89.7,48.9,89.7z"/>
	<path fill="#D0DD28" stroke="#010101" stroke-miterlimit="10" d="M34.8,53.2c0,0-4.7-11.7,7-15.2c0,0,9.6,3,18.2,0
		c0,0,10.2,3.5,5.7,15.2C65.7,53.2,54.4,58.6,34.8,53.2z"/>
	<g>
		<path fill="#FFFFFF" d="M50.7,40"/>
		<g>
			<path fill="none" stroke="#010101" stroke-miterlimit="10" d="M50.7,40"/>
		</g>
	</g>
	<path fill="#6CBE45" stroke="#010101" stroke-miterlimit="10" d="M42.6,38.2c0,0,1.7-8.1,7.2-8.5s7.7,6.5,7.7,6.5l0.9,2.2
		C58.5,38.4,50.9,41.1,42.6,38.2z"/>
</g>
<g id="eyes">
	<path fill="#FF9900" stroke="#010101" stroke-width="0.5" stroke-miterlimit="10" d="M41.8,36.9c0,0-0.3-4.2,3.7-4.5
		c0,0,3.5,3.5-3.5,5L41.8,36.9z"/>
	<path fill="#FF9900" stroke="#010101" stroke-width="0.5" stroke-miterlimit="10" d="M58.6,37.3c0,0,0.3-4.2-3.6-4.5
		c0,0-3.3,3.5,3.3,5L58.6,37.3z"/>
</g>
<g id="antennae">
	<path fill="none" stroke="#010101" stroke-miterlimit="10" d="M55,32c0,0,1.6-6.4,5.7-7.2c4-0.7,6.8-5.2,7.5-7.3"/>
	<path fill="none" stroke="#010101" stroke-miterlimit="10" d="M46.1,31.1c0,0-1.6-6.4-5.7-7.2c-4.1-0.7-6.8-5.2-7.5-7.3"/>
</g>
<g id="markings">
	<path fill="#010101" d="M46.8,58.7c0,0-5.2,8.8,0,25.1C46.8,83.7,52.4,67.5,46.8,58.7z"/>
	<path fill="#010101" d="M54.4,58.7c0,0-5.2,8.8,0,25.1C54.4,83.7,59.9,67.5,54.4,58.7z"/>
</g>
<g id="dots">
	<path fill="url(#SVGID_2)" stroke="#010101" stroke-miterlimit="10" d="M32.4,53.7l2.1-0.8c0,0,18.1,5.7,31.6,0c0,0,4.2-1,3.9,8.9
		c-0.3,9.9,2.9,25.9-18.8,27.8s-21.7-23.6-21-28C30.8,57.3,32.4,53.7,32.4,53.7z"/>
</g>
<g id="fur">
	<g>
		<g>
			<path fill="none" stroke="#0000FF" stroke-miterlimit="10" d="M51.6,28.8"/>
		</g>
	</g>
	<g>
		<g>
			<g>
				<g>
					<path fill="none" stroke="#0000FF" stroke-miterlimit="10" d="M33.7,54.4c0,0,0.1-0.1,0.2-0.2c0.1-0.1,0.3-0.3,0.4-0.4
						c0.3-0.3,0.6-0.5,0.6-0.5s-0.4-0.1-0.8-0.2c-0.4-0.1-0.8-0.2-0.8-0.2"/>
				</g>
				<g>
					<path fill="none" stroke="#0000FF" stroke-miterlimit="10" d="M33.1,52.6c0,0,0.3-0.3,0.6-0.5s0.6-0.4,0.6-0.4
						s-0.4-0.1-0.8-0.3c-0.4-0.2-0.8-0.3-0.8-0.3"/>
				</g>
				<g>
					<path fill="none" stroke="#0000FF" stroke-miterlimit="10" d="M32.8,50.8c0,0,0.3-0.2,0.7-0.4c0.3-0.2,0.7-0.4,0.7-0.4
						s-0.4-0.2-0.8-0.3s-0.7-0.4-0.7-0.4"/>
				</g>
				<g>
					<path fill="none" stroke="#0000FF" stroke-miterlimit="10" d="M32.6,49c0,0,0.3-0.2,0.7-0.3c0.3-0.2,0.7-0.3,0.7-0.3
						s-0.3-0.2-0.7-0.4c-0.3-0.2-0.7-0.5-0.7-0.5"/>
				</g>
				<g>
					<path fill="none" stroke="#0000FF" stroke-miterlimit="10" d="M32.7,47.1c0,0,0.4-0.1,0.8-0.2c0.4-0.1,0.8-0.2,0.8-0.2
						s-0.3-0.3-0.6-0.5c-0.3-0.3-0.6-0.6-0.6-0.6"/>
				</g>
				<g>
					<path fill="none" stroke="#0000FF" stroke-miterlimit="10" d="M33.1,45.2c0,0,0.4-0.1,0.8-0.1c0.4,0,0.8-0.1,0.8-0.1
						s-0.3-0.3-0.5-0.6c-0.3-0.3-0.5-0.7-0.5-0.7"/>
				</g>
				<g>
					<path fill="none" stroke="#0000FF" stroke-miterlimit="10" d="M33.8,43.5c0,0,0.4,0,0.8,0c0.4,0,0.8,0.1,0.8,0.1
						s-0.2-0.3-0.4-0.7s-0.3-0.8-0.3-0.8"/>
				</g>
				<g>
					<path fill="none" stroke="#0000FF" stroke-miterlimit="10" d="M34.7,41.8c0,0,0.4,0.1,0.8,0.2c0.4,0.1,0.8,0.2,0.8,0.2
						s-0.1-0.4-0.3-0.8s-0.2-0.8-0.2-0.8"/>
				</g>
				<g>
					<path fill="none" stroke="#0000FF" stroke-miterlimit="10" d="M36,40.4c0,0,0.4,0.2,0.7,0.3c0.3,0.2,0.7,0.3,0.7,0.3
						s-0.1-0.4-0.1-0.8c0-0.4-0.1-0.8-0.1-0.8"/>
				</g>
				<g>
					<path fill="none" stroke="#0000FF" stroke-miterlimit="10" d="M37.5,39.3c0,0,0.3,0.2,0.7,0.4c0.3,0.2,0.6,0.4,0.6,0.4
						s0-0.4,0-0.8c0-0.4,0.1-0.8,0.1-0.8"/>
				</g>
				<g>
					<path fill="none" stroke="#0000FF" stroke-miterlimit="10" d="M39.2,38.3c0,0,0.3,0.3,0.6,0.5c0.3,0.3,0.6,0.5,0.6,0.5
						s0.1-0.4,0.1-0.8s0.2-0.8,0.2-0.8"/>
				</g>
				<g>
					<path fill="none" stroke="#0000FF" stroke-miterlimit="10" d="M40.9,37.6c0,0,0.3,0.3,0.5,0.6c0.1,0.2,0.3,0.3,0.3,0.4
						c0.1,0.1,0.1,0.2,0.1,0.2s0-0.1,0.1-0.2c0-0.1,0.2-0.3,0.3-0.4c0.3-0.3,0.6-0.6,0.6-0.6"/>
				</g>
				<g>
					<path fill="none" stroke="#0000FF" stroke-miterlimit="10" d="M43.1,37.7c0,0,0.1,0.4,0.1,0.8s0.2,0.8,0.2,0.8s0.3-0.3,0.6-0.6
						s0.6-0.6,0.6-0.6"/>
				</g>
				<g>
					<path fill="none" stroke="#0000FF" stroke-miterlimit="10" d="M44.7,38.1c0,0,0.1,0.4,0.2,0.8c0.1,0.4,0.2,0.8,0.2,0.8
						s0.3-0.3,0.5-0.6c0.3-0.3,0.5-0.6,0.5-0.6"/>
				</g>
				<g>
					<path fill="none" stroke="#0000FF" stroke-miterlimit="10" d="M46.4,38.3c0,0,0.1,0.4,0.2,0.8c0.1,0.4,0.2,0.8,0.2,0.8
						s0.3-0.3,0.5-0.7c0.3-0.3,0.5-0.7,0.5-0.7"/>
				</g>
				<g>
					<path fill="none" stroke="#0000FF" stroke-miterlimit="10" d="M48.1,38.6c0,0,0.1,0.4,0.3,0.7c0.1,0.4,0.3,0.7,0.3,0.7
						s0.3-0.3,0.5-0.7c0.2-0.3,0.5-0.7,0.5-0.7"/>
				</g>
				<g>
					<path fill="none" stroke="#0000FF" stroke-miterlimit="10" d="M49.8,38.7c0,0,0.1,0.3,0.3,0.7c0.2,0.3,0.3,0.7,0.3,0.7
						s0.2-0.3,0.4-0.7c0.2-0.3,0.4-0.7,0.4-0.7"/>
				</g>
				<g>
					<path fill="none" stroke="#0000FF" stroke-miterlimit="10" d="M51.5,38.8c0,0,0.2,0.3,0.3,0.7c0.2,0.3,0.3,0.7,0.3,0.7
						s0.2-0.3,0.4-0.7c0.2-0.3,0.4-0.7,0.4-0.7"/>
				</g>
				<g>
					<path fill="none" stroke="#0000FF" stroke-miterlimit="10" d="M53.2,38.7c0,0,0.2,0.3,0.3,0.7c0.2,0.3,0.4,0.7,0.4,0.7
						s0.2-0.4,0.3-0.8c0.2-0.4,0.3-0.8,0.3-0.8"/>
				</g>
				<g>
					<path fill="none" stroke="#0000FF" stroke-miterlimit="10" d="M54.9,38.5c0,0,0.2,0.3,0.4,0.7c0.2,0.3,0.4,0.7,0.4,0.7
						s0.2-0.4,0.3-0.8s0.3-0.8,0.3-0.8"/>
				</g>
				<g>
					<path fill="none" stroke="#0000FF" stroke-miterlimit="10" d="M56.6,38.3c0,0,0.2,0.3,0.4,0.6s0.5,0.6,0.5,0.6s0.1-0.4,0.3-0.8
						C57.9,38.4,58,38,58,38"/>
				</g>
				<g>
					<path fill="none" stroke="#0000FF" stroke-miterlimit="10" d="M58.2,37.9c0,0,0.3,0.3,0.5,0.6c0.3,0.3,0.5,0.6,0.5,0.6
						s0.1-0.4,0.2-0.8c0-0.2,0.1-0.4,0.1-0.6c0.1-0.2,0.2-0.3,0.2-0.3"/>
				</g>
				<g>
					<path fill="none" stroke="#0000FF" stroke-miterlimit="10" d="M60.3,37.5L60.3,37.5c0.1,0.1,0.1,0.2,0.1,0.3s0.1,0.2,0.1,0.3
						s0,0.2,0,0.3c0,0.4,0,0.8,0,0.8s0.3-0.3,0.7-0.5c0.3-0.2,0.7-0.4,0.7-0.4"/>
				</g>
				<g>
					<path fill="none" stroke="#0000FF" stroke-miterlimit="10" d="M62.2,38.3c0,0,0,0.4-0.1,0.8c0,0.4-0.1,0.8-0.1,0.8
						s0.3-0.2,0.7-0.4s0.8-0.3,0.8-0.3"/>
				</g>
				<g>
					<path fill="none" stroke="#0000FF" stroke-miterlimit="10" d="M63.7,39.3c0,0-0.1,0.4-0.2,0.8c-0.1,0.4-0.2,0.8-0.2,0.8
						s0.4-0.1,0.8-0.3c0.4-0.1,0.8-0.2,0.8-0.2"/>
				</g>
				<g>
					<path fill="none" stroke="#0000FF" stroke-miterlimit="10" d="M65.1,40.6c0,0-0.1,0.4-0.3,0.7c-0.2,0.3-0.3,0.7-0.3,0.7
						s0.4-0.1,0.8-0.1c0.4-0.1,0.8-0.1,0.8-0.1"/>
				</g>
				<g>
					<path fill="none" stroke="#0000FF" stroke-miterlimit="10" d="M66.3,42.1c0,0-0.2,0.3-0.4,0.7c-0.2,0.3-0.4,0.6-0.4,0.6
						s0.4,0,0.8,0s0.8,0.1,0.8,0.1"/>
				</g>
				<g>
					<path fill="none" stroke="#0000FF" stroke-miterlimit="10" d="M67.2,43.7c0,0-0.3,0.3-0.5,0.6c-0.3,0.3-0.6,0.5-0.6,0.5
						s0.4,0.1,0.8,0.2c0.4,0.1,0.8,0.2,0.8,0.2"/>
				</g>
				<g>
					<path fill="none" stroke="#0000FF" stroke-miterlimit="10" d="M67.8,45.6c0,0-0.3,0.3-0.6,0.5c-0.3,0.2-0.6,0.4-0.6,0.4
						s0.4,0.1,0.8,0.3s0.8,0.3,0.8,0.3"/>
				</g>
				<g>
					<path fill="none" stroke="#0000FF" stroke-miterlimit="10" d="M68.1,47.4c0,0-0.3,0.2-0.7,0.4c-0.3,0.2-0.7,0.3-0.7,0.3
						s0.3,0.2,0.7,0.4c0.3,0.2,0.7,0.5,0.7,0.5"/>
				</g>
				<g>
					<path fill="none" stroke="#0000FF" stroke-miterlimit="10" d="M68,49.3c0,0-0.4,0.1-0.7,0.3c-0.4,0.1-0.7,0.2-0.7,0.2
						s0.3,0.3,0.7,0.5c0.3,0.3,0.6,0.5,0.6,0.5"/>
				</g>
				<g>
					<path fill="none" stroke="#0000FF" stroke-miterlimit="10" d="M67.8,51.1c0,0-0.4,0.1-0.8,0.2c-0.4,0.1-0.8,0.2-0.8,0.2
						s0.3,0.3,0.6,0.6c0.3,0.3,0.6,0.6,0.6,0.6"/>
				</g>
				<g>
					<path fill="none" stroke="#0000FF" stroke-miterlimit="10" d="M67.4,52.9c0,0-0.4,0.1-0.8,0.1s-0.8,0.1-0.8,0.1
						s0.3,0.3,0.5,0.6c0.3,0.3,0.5,0.7,0.5,0.7"/>
				</g>
			</g>
		</g>
	</g>
	<g>
		<g>
			<g>
				<g>
					<polyline fill="none" stroke="#0000FF" stroke-miterlimit="10" points="32.6,52.9 33.8,54 34,52.4 					"/>
				</g>
				<g>
					<path fill="none" stroke="#0000FF" stroke-miterlimit="10" d="M34.4,52.2c0.2,0.1,0.3,0.3,0.4,0.2c0.1,0.2,0.2,0.4,0.2,0.6
						c0,0.2,0,0.4,0,0.6c0,0,0.3-0.3,0.6-0.6s0.6-0.6,0.6-0.6"/>
				</g>
				<g>
					<path fill="none" stroke="#0000FF" stroke-miterlimit="10" d="M36.5,52.6c0,0,0.1,0.4,0.1,0.8c0.1,0.4,0.1,0.8,0.1,0.8
						s0.3-0.3,0.6-0.6s0.6-0.6,0.6-0.6"/>
				</g>
				<g>
					<path fill="none" stroke="#0000FF" stroke-miterlimit="10" d="M38.2,53l0.3,1.5c0,0,0.3-0.3,0.6-0.6s0.6-0.6,0.6-0.6"/>
				</g>
				<g>
					<path fill="none" stroke="#0000FF" stroke-miterlimit="10" d="M39.9,53.3l0.3,1.5c0,0,0.3-0.3,0.5-0.6c0.3-0.3,0.5-0.6,0.5-0.6
						"/>
				</g>
				<g>
					<path fill="none" stroke="#0000FF" stroke-miterlimit="10" d="M41.6,53.7l0.4,1.5c0,0,0.3-0.3,0.5-0.6C42.8,54.3,43,54,43,54"
						/>
				</g>
				<g>
					<path fill="none" stroke="#0000FF" stroke-miterlimit="10" d="M43.3,53.9l0.4,1.5c0,0,0.3-0.3,0.5-0.7c0.3-0.3,0.5-0.7,0.5-0.7
						"/>
				</g>
				<g>
					<path fill="none" stroke="#0000FF" stroke-miterlimit="10" d="M45,54.2c0,0,0.1,0.4,0.2,0.8c0.1,0.4,0.2,0.8,0.2,0.8
						s0.3-0.3,0.5-0.7c0.3-0.3,0.5-0.7,0.5-0.7"/>
				</g>
				<g>
					<path fill="none" stroke="#0000FF" stroke-miterlimit="10" d="M46.8,54.4c0,0,0.1,0.4,0.3,0.7c0.1,0.4,0.3,0.7,0.3,0.7
						s0.3-0.3,0.5-0.7c0.2-0.3,0.5-0.7,0.5-0.7"/>
				</g>
				<g>
					<path fill="none" stroke="#0000FF" stroke-miterlimit="10" d="M48.5,54.5c0,0,0.1,0.4,0.3,0.7c0.1,0.4,0.3,0.7,0.3,0.7
						s0.2-0.3,0.4-0.7c0.2-0.3,0.4-0.7,0.4-0.7"/>
				</g>
				<g>
					<path fill="none" stroke="#0000FF" stroke-miterlimit="10" d="M50.2,54.6c0,0,0.2,0.3,0.3,0.7c0.2,0.3,0.3,0.7,0.3,0.7
						s0.2-0.3,0.4-0.7c0.2-0.3,0.4-0.7,0.4-0.7"/>
				</g>
				<g>
					<path fill="none" stroke="#0000FF" stroke-miterlimit="10" d="M51.9,54.6c0,0,0.2,0.3,0.3,0.7c0.2,0.3,0.3,0.7,0.3,0.7
						s0.2-0.3,0.4-0.7c0.2-0.3,0.4-0.7,0.4-0.7"/>
				</g>
				<g>
					<path fill="none" stroke="#0000FF" stroke-miterlimit="10" d="M53.7,54.6c0,0,0.2,0.3,0.3,0.7c0.2,0.3,0.3,0.7,0.3,0.7
						s0.2-0.4,0.4-0.7c0.2-0.4,0.4-0.7,0.4-0.7"/>
				</g>
				<g>
					<path fill="none" stroke="#0000FF" stroke-miterlimit="10" d="M55.4,54.5c0,0,0.2,0.3,0.4,0.7c0.2,0.3,0.4,0.7,0.4,0.7
						s0.2-0.4,0.3-0.8s0.3-0.8,0.3-0.8"/>
				</g>
				<g>
					<path fill="none" stroke="#0000FF" stroke-miterlimit="10" d="M57.1,54.3c0,0,0.2,0.3,0.4,0.7c0.2,0.3,0.4,0.7,0.4,0.7
						s0.2-0.4,0.3-0.8s0.3-0.8,0.3-0.8"/>
				</g>
				<g>
					<path fill="none" stroke="#0000FF" stroke-miterlimit="10" d="M58.8,54.1c0,0,0.2,0.3,0.4,0.7c0.2,0.3,0.4,0.6,0.4,0.6
						s0.1-0.4,0.3-0.8c0.1-0.4,0.3-0.8,0.3-0.8"/>
				</g>
				<g>
					<path fill="none" stroke="#0000FF" stroke-miterlimit="10" d="M60.5,53.7c0,0,0.2,0.3,0.5,0.6s0.5,0.6,0.5,0.6s0.1-0.4,0.3-0.8
						c0.1-0.4,0.2-0.8,0.2-0.8"/>
				</g>
				<g>
					<path fill="none" stroke="#0000FF" stroke-miterlimit="10" d="M62.2,53.3c0,0,0.3,0.3,0.5,0.6c0.3,0.3,0.5,0.6,0.5,0.6
						s0.1-0.4,0.2-0.8c0.1-0.4,0.2-0.8,0.2-0.8"/>
				</g>
				<g>
					<path fill="none" stroke="#0000FF" stroke-miterlimit="10" d="M63.8,52.8c0,0,0.3,0.3,0.5,0.6c0.3,0.3,0.5,0.6,0.5,0.6
						s0.1-0.4,0.1-0.8c0.1-0.4,0.1-0.8,0.1-0.8"/>
				</g>
				<g>
					<path fill="none" stroke="#0000FF" stroke-miterlimit="10" d="M65.6,52.1c0,0,0.1,0.1,0.2,0.2c0.1,0.1,0.2,0.3,0.3,0.5
						c0.2,0.3,0.2,0.7,0.2,0.7s0.2-0.3,0.5-0.6s0.7-0.5,0.7-0.5"/>
				</g>
				<g>
					<path fill="none" stroke="#0000FF" stroke-miterlimit="10" d="M67.9,52.7c0,0,0,0.4-0.1,0.8c-0.1,0.4-0.2,0.7-0.2,0.7
						S68,54,68.4,54c0.4-0.1,0.9-0.1,0.9-0.1"/>
				</g>
				<g>
					<path fill="none" stroke="#0000FF" stroke-miterlimit="10" d="M69.3,54.2c0,0-0.2,0.3-0.4,0.7c-0.2,0.3-0.5,0.6-0.5,0.6
						s0.4,0,0.8,0.1s0.8,0.2,0.8,0.2"/>
				</g>
				<g>
					<path fill="none" stroke="#0000FF" stroke-miterlimit="10" d="M70.1,56c0,0-0.3,0.3-0.6,0.5c-0.3,0.3-0.6,0.5-0.6,0.5
						s0.4,0.1,0.8,0.3c0.4,0.1,0.8,0.3,0.8,0.3"/>
				</g>
				<g>
					<path fill="none" stroke="#0000FF" stroke-miterlimit="10" d="M70.5,57.8c0,0-0.3,0.2-0.7,0.4c-0.3,0.2-0.7,0.4-0.7,0.4
						s0.4,0.2,0.8,0.3c0.4,0.2,0.8,0.4,0.8,0.4"/>
				</g>
				<g>
					<path fill="none" stroke="#0000FF" stroke-miterlimit="10" d="M70.7,59.7c0,0-0.3,0.2-0.7,0.3c-0.3,0.2-0.7,0.3-0.7,0.3
						s0.3,0.2,0.7,0.4c0.3,0.2,0.7,0.4,0.7,0.4"/>
				</g>
				<g>
					<path fill="none" stroke="#0000FF" stroke-miterlimit="10" d="M70.8,61.5c0,0-0.3,0.2-0.7,0.3c-0.3,0.2-0.7,0.3-0.7,0.3
						s0.3,0.2,0.7,0.4c0.3,0.2,0.7,0.4,0.7,0.4"/>
				</g>
				<g>
					<polyline fill="none" stroke="#0000FF" stroke-miterlimit="10" points="70.7,63.2 69.3,63.9 70.7,64.7 					"/>
				</g>
				<g>
					<polyline fill="none" stroke="#0000FF" stroke-miterlimit="10" points="70.7,65 69.3,65.6 70.8,66.5 					"/>
				</g>
				<g>
					<polyline fill="none" stroke="#0000FF" stroke-miterlimit="10" points="70.8,66.8 69.3,67.4 70.8,68.2 					"/>
				</g>
				<g>
					<path fill="none" stroke="#0000FF" stroke-miterlimit="10" d="M70.8,68.5l-1.4,0.6c0,0,0.3,0.2,0.7,0.4
						c0.3,0.2,0.7,0.4,0.7,0.4"/>
				</g>
				<g>
					<path fill="none" stroke="#0000FF" stroke-miterlimit="10" d="M70.7,70.3c0,0-0.3,0.2-0.7,0.3c-0.3,0.2-0.7,0.3-0.7,0.3
						s0.3,0.2,0.7,0.4c0.3,0.2,0.7,0.5,0.7,0.5"/>
				</g>
				<g>
					<path fill="none" stroke="#0000FF" stroke-miterlimit="10" d="M70.6,72.1c0,0-0.4,0.1-0.7,0.3c-0.4,0.1-0.7,0.3-0.7,0.3
						s0.3,0.3,0.7,0.5c0.3,0.3,0.7,0.5,0.7,0.5"/>
				</g>
				<g>
					<path fill="none" stroke="#0000FF" stroke-miterlimit="10" d="M70.5,73.9c0,0-0.4,0.1-0.8,0.2s-0.8,0.2-0.8,0.2
						s0.3,0.3,0.6,0.5c0.3,0.3,0.6,0.5,0.6,0.5"/>
				</g>
				<g>
					<path fill="none" stroke="#0000FF" stroke-miterlimit="10" d="M70.2,75.7c0,0-0.4,0.1-0.8,0.2C69.1,76,68.7,76,68.7,76
						s0.3,0.3,0.6,0.6c0.3,0.3,0.6,0.6,0.6,0.6"/>
				</g>
				<g>
					<path fill="none" stroke="#0000FF" stroke-miterlimit="10" d="M69.8,77.4c0,0-0.4,0.1-0.8,0.1s-0.8,0.1-0.8,0.1
						s0.3,0.3,0.6,0.6c0.3,0.3,0.5,0.6,0.5,0.6"/>
				</g>
				<g>
					<path fill="none" stroke="#0000FF" stroke-miterlimit="10" d="M69.3,79.2c0,0-0.4,0-0.8,0.1c-0.4,0-0.8,0-0.8,0
						s0.3,0.3,0.5,0.7c0.3,0.3,0.5,0.7,0.5,0.7"/>
				</g>
				<g>
					<path fill="none" stroke="#0000FF" stroke-miterlimit="10" d="M68.6,80.9c0,0-0.4,0-0.8,0S67,80.8,67,80.8s0.2,0.3,0.4,0.7
						c0.2,0.3,0.4,0.7,0.4,0.7"/>
				</g>
				<g>
					<path fill="none" stroke="#0000FF" stroke-miterlimit="10" d="M67.6,82.5c0,0-0.4-0.1-0.8-0.1c-0.4-0.1-0.8-0.2-0.8-0.2
						s0.2,0.4,0.3,0.8c0.2,0.4,0.3,0.8,0.3,0.8"/>
				</g>
				<g>
					<path fill="none" stroke="#0000FF" stroke-miterlimit="10" d="M66.5,84c0,0-0.4-0.1-0.8-0.2S65,83.5,65,83.5s0.1,0.4,0.2,0.8
						s0.2,0.8,0.2,0.8"/>
				</g>
				<g>
					<path fill="none" stroke="#0000FF" stroke-miterlimit="10" d="M65.2,85.4c0,0-0.4-0.2-0.7-0.3s-0.7-0.3-0.7-0.3
						s0.1,0.4,0.1,0.8C64,86,64,86.4,64,86.4"/>
				</g>
				<g>
					<path fill="none" stroke="#0000FF" stroke-miterlimit="10" d="M63.8,86.6c0,0-0.3-0.2-0.7-0.4c-0.3-0.2-0.7-0.4-0.7-0.4
						s0,0.4,0,0.8s0,0.8,0,0.8"/>
				</g>
				<g>
					<path fill="none" stroke="#0000FF" stroke-miterlimit="10" d="M62.3,87.6c0,0-0.3-0.2-0.6-0.5c-0.3-0.2-0.6-0.5-0.6-0.5
						s0,0.4-0.1,0.8c0,0.4-0.1,0.8-0.1,0.8"/>
				</g>
				<g>
					<path fill="none" stroke="#0000FF" stroke-miterlimit="10" d="M60.6,88.4c0,0-0.3-0.3-0.6-0.5c-0.3-0.3-0.6-0.5-0.6-0.5
						s-0.1,0.4-0.1,0.8c-0.1,0.4-0.2,0.8-0.2,0.8"/>
				</g>
				<g>
					<path fill="none" stroke="#0000FF" stroke-miterlimit="10" d="M58.9,89.1c0,0-0.3-0.3-0.5-0.6c-0.3-0.3-0.5-0.6-0.5-0.6
						s-0.1,0.4-0.2,0.8c-0.1,0.4-0.2,0.8-0.2,0.8"/>
				</g>
				<g>
					<path fill="none" stroke="#0000FF" stroke-miterlimit="10" d="M57.2,89.6c0,0-0.3-0.3-0.5-0.6c-0.3-0.3-0.5-0.6-0.5-0.6
						s-0.1,0.4-0.3,0.8S55.7,90,55.7,90"/>
				</g>
				<g>
					<path fill="none" stroke="#0000FF" stroke-miterlimit="10" d="M55.4,90c0,0-0.2-0.3-0.4-0.6c-0.2-0.3-0.4-0.6-0.4-0.6
						s-0.2,0.4-0.3,0.8C54.1,90,54,90.4,54,90.4"/>
				</g>
				<g>
					<path fill="none" stroke="#0000FF" stroke-miterlimit="10" d="M53.6,90.3c0,0-0.2-0.3-0.4-0.7C53,89.3,52.8,89,52.8,89
						s-0.2,0.4-0.3,0.8c-0.2,0.4-0.3,0.8-0.3,0.8"/>
				</g>
				<g>
					<path fill="none" stroke="#0000FF" stroke-miterlimit="10" d="M51.9,90.5c0,0-0.2-0.3-0.4-0.7c-0.2-0.3-0.4-0.7-0.4-0.7
						s-0.2,0.4-0.3,0.8c-0.2,0.4-0.4,0.7-0.4,0.7"/>
				</g>
				<g>
					<path fill="none" stroke="#0000FF" stroke-miterlimit="10" d="M50,90.7c0,0-0.2-0.3-0.3-0.7s-0.3-0.7-0.3-0.7S49.2,89.6,49,90
						c-0.2,0.3-0.4,0.7-0.4,0.7"/>
				</g>
				<g>
					<path fill="none" stroke="#0000FF" stroke-miterlimit="10" d="M48.2,90.7c0,0-0.2-0.3-0.3-0.7c-0.1-0.4-0.3-0.7-0.3-0.7
						s-0.2,0.3-0.5,0.7s-0.5,0.7-0.5,0.7"/>
				</g>
				<g>
					<path fill="none" stroke="#0000FF" stroke-miterlimit="10" d="M46.4,90.6c0,0-0.1-0.4-0.2-0.8C46.1,89.4,46,89,46,89
						s-0.3,0.3-0.5,0.6c-0.3,0.3-0.6,0.6-0.6,0.6"/>
				</g>
				<g>
					<path fill="none" stroke="#0000FF" stroke-miterlimit="10" d="M44.6,90.3c0,0-0.1-0.4-0.2-0.8c-0.1-0.4-0.1-0.8-0.1-0.8
						S44,89,43.7,89.3s-0.6,0.6-0.6,0.6"/>
				</g>
				<g>
					<path fill="none" stroke="#0000FF" stroke-miterlimit="10" d="M42.8,89.8c0,0-0.1-0.4-0.1-0.8s0-0.8,0-0.8s-0.3,0.3-0.6,0.5
						c-0.3,0.3-0.7,0.5-0.7,0.5"/>
				</g>
				<g>
					<path fill="none" stroke="#0000FF" stroke-miterlimit="10" d="M41.1,89.2c0,0,0-0.4,0-0.8s0-0.8,0-0.8s-0.3,0.2-0.7,0.4
						c-0.3,0.2-0.7,0.4-0.7,0.4"/>
				</g>
				<g>
					<path fill="none" stroke="#0000FF" stroke-miterlimit="10" d="M39.4,88.3c0,0,0-0.4,0.1-0.8s0.1-0.8,0.1-0.8s-0.3,0.2-0.7,0.3
						c-0.4,0.2-0.8,0.3-0.8,0.3"/>
				</g>
				<g>
					<path fill="none" stroke="#0000FF" stroke-miterlimit="10" d="M37.9,87.3c0,0,0.1-0.4,0.2-0.8c0.1-0.4,0.2-0.8,0.2-0.8
						s-0.4,0.2-0.8,0.3c-0.4,0.1-0.8,0.3-0.8,0.3"/>
				</g>
				<g>
					<path fill="none" stroke="#0000FF" stroke-miterlimit="10" d="M36.4,86.1c0,0,0.1-0.4,0.3-0.7c0.1-0.4,0.3-0.7,0.3-0.7
						s-0.4,0.1-0.8,0.2c-0.4,0.1-0.8,0.2-0.8,0.2"/>
				</g>
				<g>
					<path fill="none" stroke="#0000FF" stroke-miterlimit="10" d="M35.2,84.8c0,0,0.2-0.3,0.3-0.7c0.2-0.3,0.3-0.7,0.3-0.7
						s-0.4,0.1-0.8,0.1c-0.4,0-0.8,0.1-0.8,0.1"/>
				</g>
				<g>
					<path fill="none" stroke="#0000FF" stroke-miterlimit="10" d="M34,83.3c0,0,0.2-0.3,0.4-0.7c0.2-0.3,0.4-0.7,0.4-0.7
						s-0.4,0-0.8,0s-0.8,0-0.8,0"/>
				</g>
				<g>
					<path fill="none" stroke="#0000FF" stroke-miterlimit="10" d="M33.1,81.7c0,0,0.2-0.3,0.5-0.6c0.2-0.3,0.5-0.6,0.5-0.6
						s-0.4,0-0.8,0c-0.4,0-0.8-0.1-0.8-0.1"/>
				</g>
				<g>
					<path fill="none" stroke="#0000FF" stroke-miterlimit="10" d="M32.2,80.1c0,0,0.3-0.3,0.5-0.6c0.3-0.3,0.5-0.6,0.5-0.6
						s-0.4,0-0.8-0.1c-0.4-0.1-0.8-0.1-0.8-0.1"/>
				</g>
				<g>
					<path fill="none" stroke="#0000FF" stroke-miterlimit="10" d="M31.5,78.5c0,0,0.3-0.3,0.5-0.6c0.3-0.3,0.6-0.5,0.6-0.5
						s-0.4-0.1-0.8-0.2C31.4,77.1,31,77,31,77"/>
				</g>
				<g>
					<path fill="none" stroke="#0000FF" stroke-miterlimit="10" d="M30.9,76.7c0,0,0.3-0.3,0.6-0.5c0.3-0.3,0.6-0.5,0.6-0.5
						s-0.4-0.1-0.8-0.2s-0.8-0.2-0.8-0.2"/>
				</g>
				<g>
					<path fill="none" stroke="#0000FF" stroke-miterlimit="10" d="M30.4,75c0,0,0.3-0.3,0.6-0.5c0.3-0.3,0.6-0.5,0.6-0.5
						s-0.4-0.1-0.8-0.3c-0.4-0.1-0.8-0.3-0.8-0.3"/>
				</g>
				<g>
					<path fill="none" stroke="#0000FF" stroke-miterlimit="10" d="M30,73.3c0,0,0.3-0.2,0.6-0.4c0.3-0.2,0.6-0.4,0.6-0.4
						s-0.4-0.1-0.8-0.3c-0.4-0.2-0.8-0.3-0.8-0.3"/>
				</g>
				<g>
					<path fill="none" stroke="#0000FF" stroke-miterlimit="10" d="M29.6,71.5c0,0,0.3-0.2,0.7-0.4c0.3-0.2,0.7-0.4,0.7-0.4
						s-0.4-0.2-0.8-0.3c-0.4-0.2-0.8-0.3-0.8-0.3"/>
				</g>
				<g>
					<path fill="none" stroke="#0000FF" stroke-miterlimit="10" d="M29.4,69.7c0,0,0.3-0.2,0.7-0.4c0.3-0.2,0.7-0.4,0.7-0.4
						s-0.4-0.2-0.8-0.3c-0.4-0.2-0.8-0.4-0.8-0.4"/>
				</g>
				<g>
					<path fill="none" stroke="#0000FF" stroke-miterlimit="10" d="M29.2,67.9c0,0,0.3-0.2,0.7-0.4c0.3-0.2,0.7-0.3,0.7-0.3
						s-0.4-0.2-0.7-0.4c-0.4-0.2-0.7-0.4-0.7-0.4"/>
				</g>
				<g>
					<path fill="none" stroke="#0000FF" stroke-miterlimit="10" d="M29.1,66.1c0,0,0.3-0.2,0.7-0.3c0.3-0.2,0.7-0.3,0.7-0.3
						s-0.3-0.2-0.7-0.4c-0.3-0.2-0.7-0.4-0.7-0.4"/>
				</g>
				<g>
					<path fill="none" stroke="#0000FF" stroke-miterlimit="10" d="M29.1,64.3c0,0,0.3-0.2,0.7-0.3c0.3-0.2,0.7-0.3,0.7-0.3
						s-0.3-0.2-0.7-0.4c-0.3-0.2-0.7-0.5-0.7-0.5"/>
				</g>
				<g>
					<path fill="none" stroke="#0000FF" stroke-miterlimit="10" d="M29.2,62.5c0,0,0.4-0.1,0.7-0.3c0.4-0.1,0.8-0.2,0.8-0.2
						s-0.1-0.1-0.2-0.2c-0.1-0.1-0.3-0.2-0.4-0.3c-0.3-0.3-0.6-0.5-0.6-0.5"/>
				</g>
				<g>
					<path fill="none" stroke="#0000FF" stroke-miterlimit="10" d="M29.5,60.7c0,0,0.4-0.1,0.8-0.2c0.4-0.1,0.8-0.2,0.8-0.2
						s-0.3-0.3-0.6-0.6c-0.3-0.3-0.6-0.6-0.6-0.6"/>
				</g>
				<g>
					<path fill="none" stroke="#0000FF" stroke-miterlimit="10" d="M29.9,58.9c0,0,0.4-0.1,0.8-0.1c0.4-0.1,0.8-0.1,0.8-0.1
						s-0.3-0.3-0.6-0.6c-0.3-0.3-0.6-0.6-0.6-0.6"/>
				</g>
				<g>
					<path fill="none" stroke="#0000FF" stroke-miterlimit="10" d="M30.4,57.2c0,0,0.4-0.1,0.8-0.1C31.5,57,32,57,32,57
						s-0.3-0.3-0.5-0.6c-0.3-0.3-0.5-0.6-0.5-0.6"/>
				</g>
				<g>
					<path fill="none" stroke="#0000FF" stroke-miterlimit="10" d="M30.9,55.5c0,0,0.4,0,0.8-0.1c0.4,0,0.8,0,0.8,0S32.3,55,32,54.7
						S31.5,54,31.5,54"/>
				</g>
			</g>
		</g>
	</g>
</g>
<g id="leaf">
	<g>
		<path fill="#A8CF38" stroke="#010101" stroke-width="0.5" stroke-linecap="round" stroke-linejoin="round" d="M48.2,26
			c0,0-2.7-4.7-2.3-7.1l0.7,0.2c0,0-0.6-0.7,0.1-3.6l0.5,0.5c0,0-0.5-1.4,0.4-3.3l0.5,0.5c0,0,0.3-1.3,0.8-2.6l0.6,0.4
			c0,0-0.1-1.6,0.4-2.7l0.5,0.5c0,0,0.2-2,1.3-2.4l0.2,0.5c0,0,0.7-1.2,1.8-1.9l0.5,0.5c0,0,0-1.2,1.4-1.7l0.3,0.4
			c0,0,0.2-1.6,1.5-1.9l0.4,0.8c0,0,2.2-2.1,2.8-2.2l0.8,0.4c0.1,0.4,0,3.5,0,3.5l0.9-0.2C62.7,5.9,61.5,7,61.5,7H62
			c0.5,1.4-0.5,2.2-0.5,2.2l0.8,0.1c0.2,1.3-0.4,2.6-0.4,2.6l0.5-0.2c0.4,1.1-1.1,2.5-1.1,2.5l0.7,0.2c-0.6,1.1-1.9,2-1.9,2l0.7,0.2
			c-0.7,1.2-1.6,2.2-1.6,2.2l0.7,0.2c-0.9,1.9-2.3,2.4-2.3,2.4l0.7,0.2c-1.9,2.3-2.8,2.2-2.8,2.2L56,24c-1.6,1.7-7.1,2.4-7.1,2.4
			L48.2,26z"/>
		<path fill="#A8CF38" stroke="#010101" stroke-width="0.5" stroke-linecap="round" stroke-linejoin="round" d="M48.7,26.2
			c0,0-2.7-4.7-2.3-7.1l0.7,0.2c0,0-0.6-0.7,0.1-3.6l0.5,0.5c0,0-0.5-1.4,0.4-3.3l0.5,0.5c0,0,0.3-1.3,0.8-2.6l0.6,0.4
			c0,0-0.1-1.6,0.4-2.7L50.9,9c0,0,0.2-2,1.3-2.4l0.2,0.5c0,0,0.7-1.2,1.8-1.9l0.5,0.5c0,0,0-1.2,1.4-1.7l0.3,0.4
			c0,0,0.2-1.6,1.5-1.9l0.4,0.8c0,0,2.2-2.1,2.8-2.2l0.8,0.4c0.1,0.4,0,3.5,0,3.5l0.9-0.2c0.6,1.2-0.6,2.3-0.6,2.3h0.5
			c0.5,1.4-0.5,2.2-0.5,2.2L63,9.4c0.2,1.3-0.4,2.6-0.4,2.6l0.5-0.2c0.4,1.1-1.1,2.5-1.1,2.5l0.7,0.2c-0.6,1.1-1.9,2-1.9,2l0.7,0.2
			c-0.7,1.2-1.6,2.2-1.6,2.2l0.7,0.2c-0.9,1.9-2.3,2.4-2.3,2.4l0.7,0.2c-1.9,2.3-2.8,2.2-2.8,2.2l0.6,0.4c-1.6,1.7-7.1,2.4-7.1,2.4
			L48.7,26.2z"/>
		
			<line fill="none" stroke="#010101" stroke-width="0.5" stroke-linecap="round" stroke-linejoin="round" x1="61.2" y1="1.6" x2="48.9" y2="26.4"/>
		<g>
			
				<line fill="none" stroke="#010101" stroke-width="0.5" stroke-linecap="round" stroke-linejoin="round" x1="58.2" y1="3" x2="58.7" y2="5"/>
			
				<line fill="none" stroke="#010101" stroke-width="0.5" stroke-linecap="round" stroke-linejoin="round" x1="56.4" y1="4.5" x2="57.6" y2="6.9"/>
			
				<line fill="none" stroke="#010101" stroke-width="0.5" stroke-linecap="round" stroke-linejoin="round" x1="54.8" y1="5.7" x2="56.4" y2="8.8"/>
			
				<line fill="none" stroke="#010101" stroke-width="0.5" stroke-linecap="round" stroke-linejoin="round" x1="52.3" y1="7" x2="55" y2="10.7"/>
			
				<line fill="none" stroke="#010101" stroke-width="0.5" stroke-linecap="round" stroke-linejoin="round" x1="51" y1="8.9" x2="54.3" y2="12.8"/>
			
				<line fill="none" stroke="#010101" stroke-width="0.5" stroke-linecap="round" stroke-linejoin="round" x1="49.8" y1="11.2" x2="53.1" y2="14.8"/>
			
				<line fill="none" stroke="#010101" stroke-width="0.5" stroke-linecap="round" stroke-linejoin="round" x1="48.5" y1="13.2" x2="51.4" y2="17.1"/>
			
				<line fill="none" stroke="#010101" stroke-width="0.5" stroke-linecap="round" stroke-linejoin="round" x1="47.5" y1="16.2" x2="50.9" y2="20.4"/>
			
				<line fill="none" stroke="#010101" stroke-width="0.5" stroke-linecap="round" stroke-linejoin="round" x1="46.9" y1="19.3" x2="49.6" y2="23.7"/>
		</g>
		<g>
			
				<line fill="none" stroke="#010101" stroke-width="0.5" stroke-linecap="round" stroke-linejoin="round" x1="62.1" y1="4.9" x2="60.2" y2="5.8"/>
			
				<line fill="none" stroke="#010101" stroke-width="0.5" stroke-linecap="round" stroke-linejoin="round" x1="62" y1="7.3" x2="59.4" y2="7.8"/>
			
				<line fill="none" stroke="#010101" stroke-width="0.5" stroke-linecap="round" stroke-linejoin="round" x1="62.1" y1="9.3" x2="58.7" y2="9.9"/>
			
				<line fill="none" stroke="#010101" stroke-width="0.5" stroke-linecap="round" stroke-linejoin="round" x1="62.5" y1="12.1" x2="58" y2="12.2"/>
			
				<line fill="none" stroke="#010101" stroke-width="0.5" stroke-linecap="round" stroke-linejoin="round" x1="61.8" y1="14.2" x2="56.7" y2="14"/>
			
				<line fill="none" stroke="#010101" stroke-width="0.5" stroke-linecap="round" stroke-linejoin="round" x1="60.7" y1="16.6" x2="55.9" y2="16.2"/>
			
				<line fill="none" stroke="#010101" stroke-width="0.5" stroke-linecap="round" stroke-linejoin="round" x1="59.9" y1="18.8" x2="55.1" y2="18.9"/>
			
				<line fill="none" stroke="#010101" stroke-width="0.5" stroke-linecap="round" stroke-linejoin="round" x1="58.2" y1="21.4" x2="52.8" y2="21.3"/>
			
				<line fill="none" stroke="#010101" stroke-width="0.5" stroke-linecap="round" stroke-linejoin="round" x1="56.1" y1="23.8" x2="50.9" y2="24.3"/>
		</g>
		<path fill="#FFFFFF" stroke="#010101" stroke-width="0.5" stroke-linecap="round" stroke-linejoin="round" d="M63.2,9.6
			c0,0-1.8,0.5-1.3,1.4c0,0-2.2,0.3-1.2,2.1c0,0,0.5,1.2,1.5,0.7c0,0-0.6,0.9,0.3,0.8c0.9-0.2,0.7-0.2,0.7-0.2"/>
		<path fill="#FFFFFF" stroke="#010101" stroke-width="0.5" stroke-miterlimit="10" d="M51.4,12c-0.1,0.4-0.3,0.8-0.5,1.1
			c0.5,0.4,1.1-0.4,1.3-0.8c-0.3,0.6-0.1,2,0.8,1c-0.2,0.6,0.2,0.7,0.7,1c-0.2,0.5-0.7,0.7-1,1.1c-0.2,0.3-0.3,0.6-0.4,0.9
			c-0.3-0.2-0.4-0.7-0.7-0.9c-0.2,0.2-0.8,0.9-1,0.9c-0.3,0-0.6-0.7-0.9-0.9c0.1-0.3,0.3-0.6,0.4-1c-0.1-0.1-0.1-0.1-0.2-0.1
			c0.1-0.4,0.9-2.5,1.3-2"/>
		<path fill="#FFFFFF" stroke="#010101" stroke-width="0.5" stroke-miterlimit="10" d="M57.6,7.3c0.5-0.5,0.6-1.1,1.3-1.5
			C59,6,58.8,6.7,59,6.8c0.4,0.3,1.1-0.5,1.4-0.7c0,0.1-0.4,0.7-0.3,0.9c0.2,0.4,0.7,0.1,1.1,0.1c-0.2,0.6-0.8,1.1-1.1,1.7
			c-0.2,0.4-0.3,0.8-0.4,1.2c-0.7-0.3-1.2-0.8-1.4-1.5c-0.2,0.4-1,1.9-1.1,0.7c-0.1-0.7,0.5-1.5,0.6-2.2"/>
		<path fill="#FFFFFF" stroke="#010101" stroke-width="0.5" stroke-miterlimit="10" d="M56.7,17.5c0,0.4-0.6,0.9-0.6,1.4
			c0,0.6,0.7,1,1.3,1c-0.6,0.2-1.3,0.6-1.5,1.2c0.3,0.3,0.7,0.4,1,0.6c-0.3,0.1-1.7,0.9-0.9,1.2c-0.2,0.5-1.7-0.3-2.1-0.6
			c-0.8-0.7-0.5-1.5-0.2-2.4c0.5-1.2,1.6-2.5,3.1-2.2"/>
	</g>
</g>
<g id="water">
	<g>
		<path fill="#55C2E2" stroke="#070707" stroke-width="0.5" stroke-miterlimit="10" d="M78.1,33.2c0,0-11.4,13.2-1.3,16.2
			c0,0,8.3-0.2,4.6-9.8C81.4,39.6,78.3,35.9,78.1,33.2z"/>
		<path fill="none" stroke="#3A97AD" stroke-miterlimit="10" d="M77.4,48.3c1.6,0.8,4.3-3.3,4.1-4.7"/>
		
			<ellipse transform="matrix(0.7903 -0.6127 0.6127 0.7903 -12.4705 56.1299)" opacity="0.8" fill="#FFFFFF" enable-background="new    " cx="75.8" cy="46.3" rx="1.5" ry="1.8"/>
		<path opacity="0.8" fill="#FFFFFF" enable-background="new    " d="M74.8,39c0,0,1.5-3.7,3.3-4.6"/>
	</g>
	<g>
		<path fill="#55C2E2" stroke="#070707" stroke-width="0.5" stroke-miterlimit="10" d="M23.8,39.9c0,0-11.4,13.2-1.3,16.2
			c0,0,8.3-0.2,4.6-9.8C27.1,46.3,24,42.6,23.8,39.9z"/>
		<path fill="none" stroke="#3A97AD" stroke-miterlimit="10" d="M23.1,55c1.6,0.8,4.3-3.3,4.1-4.7"/>
		
			<ellipse transform="matrix(0.7903 -0.6127 0.6127 0.7903 -27.8973 24.2953)" opacity="0.8" fill="#FFFFFF" enable-background="new    " cx="21.5" cy="52.9" rx="1.5" ry="1.8"/>
		<path opacity="0.8" fill="#FFFFFF" enable-background="new    " d="M20.5,45.7c0,0,1.5-3.7,3.3-4.6"/>
	</g>
	<g>
		<path fill="#55C2E2" stroke="#070707" stroke-width="0.5" stroke-miterlimit="10" d="M24.2,82.1c0,0-6.9,7.9-0.8,9.7
			c0,0,5-0.1,2.8-5.9C26.2,86,24.3,83.8,24.2,82.1z"/>
		<path fill="none" stroke="#3A97AD" stroke-miterlimit="10" d="M23.8,91.2c1,0.4,2.6-2,2.4-2.8"/>
		
			<ellipse transform="matrix(0.7902 -0.6128 0.6128 0.7902 -50.9416 32.9008)" opacity="0.8" fill="#FFFFFF" enable-background="new    " cx="22.6" cy="90.9" rx="0.5" ry="0.7"/>
		<path opacity="0.8" fill="#FFFFFF" enable-background="new    " d="M22.2,85.6c0,0,0.9-2.2,2-2.8"/>
	</g>
	<g>
		<path fill="#55C2E2" stroke="#070707" stroke-width="0.5" stroke-miterlimit="10" d="M62.9,89.3c0,0-6.9,7.9-0.8,9.7
			c0,0,5-0.1,2.8-5.9C64.8,93.1,63,90.9,62.9,89.3z"/>
		<path fill="none" stroke="#3A97AD" stroke-miterlimit="10" d="M62.4,98.3c1,0.4,2.6-2,2.4-2.8"/>
		
			<ellipse transform="matrix(0.7904 -0.6126 0.6126 0.7904 -47.1036 58.1546)" opacity="0.8" fill="#FFFFFF" enable-background="new    " cx="61.4" cy="97.9" rx="0.5" ry="0.7"/>
		<path opacity="0.8" fill="#FFFFFF" enable-background="new    " d="M60.8,92.7c0,0,0.9-2.2,2-2.8"/>
	</g>
	<g>
		<path fill="#55C2E2" stroke="#070707" stroke-width="0.5" stroke-miterlimit="10" d="M79.7,65.8c0,0-4.3,5-0.5,6.1
			c0,0,3.1-0.1,1.7-3.7C81,68.2,79.8,66.8,79.7,65.8z"/>
		<path fill="none" stroke="#3A97AD" stroke-miterlimit="10" d="M79.5,71.5c0.6,0.3,1.6-1.2,1.5-1.8"/>
		<ellipse opacity="0.8" fill="#FFFFFF" enable-background="new    " cx="78.7" cy="70.6" rx="0.3" ry="0.3"/>
		<path opacity="0.8" fill="#FFFFFF" enable-background="new    " d="M78.5,68c0,0,0.6-1.4,1.2-1.7"/>
	</g>
	<g>
		<path fill="#55C2E2" stroke="#070707" stroke-width="0.5" stroke-miterlimit="10" d="M38.1,91.6c0,0-4.3,5-0.5,6.1
			c0,0,3.1-0.1,1.7-3.7C39.3,94.1,38.2,92.7,38.1,91.6z"/>
		<path fill="none" stroke="#3A97AD" stroke-miterlimit="10" d="M37.8,97.3c0.6,0.3,1.6-1.2,1.5-1.8"/>
		<ellipse opacity="0.8" fill="#FFFFFF" enable-background="new    " cx="37" cy="96.5" rx="0.3" ry="0.3"/>
		<path opacity="0.8" fill="#FFFFFF" enable-background="new    " d="M36.8,93.8c0,0,0.6-1.4,1.2-1.7"/>
	</g>
</g>
</svg>
