<?xml version="1.0" encoding="utf-8"?>
<!-- Generator: Adobe Illustrator 16.2.1, SVG Export Plug-In . SVG Version: 6.00 Build 0)  -->
<!DOCTYPE svg PUBLIC "-//W3C//DTD SVG 1.1//EN" "http://www.w3.org/Graphics/SVG/1.1/DTD/svg11.dtd">
<svg version="1.1" id="Layer_1" xmlns="http://www.w3.org/2000/svg" xmlns:xlink="http://www.w3.org/1999/xlink" x="0px" y="0px"
	 width="236px" height="347px" viewBox="181.5 169.5 236 347" enable-background="new 181.5 169.5 236 347" xml:space="preserve">
<pattern  x="0.5" y="792.5" width="8.666" height="8.666" patternUnits="userSpaceOnUse" id="New_Pattern_Swatch_12" viewBox="0 -8.666 8.666 8.666" overflow="visible">
	<g>
		<polygon fill="none" points="0,0 8.666,0 8.666,-8.666 0,-8.666 		"/>
		<g>
			<polygon fill="none" points="8.666,-8.666 0,-8.666 0,0 8.666,0 			"/>
			<g>
				<path fill="#010101" d="M4.999-4.175c0-0.368-0.298-0.666-0.667-0.666c-0.367,0-0.665,0.298-0.665,0.666
					s0.298,0.667,0.665,0.667C4.701-3.508,4.999-3.807,4.999-4.175z"/>
			</g>
		</g>
	</g>
</pattern>
<g id="legs">
	<path fill="#FFFFFF" stroke="#010101" stroke-miterlimit="10" d="M260.613,340.765h-13.291c0,0-15.301-21.998-27.254-22.95
		l3.342,2.87l-3.82,0.475c0,0,11.709,6.852,25.82,21.354h16.768L260.613,340.765z"/>
	<path fill="#FFFFFF" stroke="#010101" stroke-miterlimit="10" d="M351.339,340.765h13.291c0,0,15.301-21.998,27.254-22.95
		l-3.342,2.87l3.82,0.475c0,0-11.709,6.852-25.82,21.354h-16.768L351.339,340.765z"/>
	<path fill="#FFFFFF" stroke="#010101" stroke-miterlimit="10" d="M366.905,445.939c10.371,1.084,11.401-3.726,10.528-8.802
		c-0.871-5.078-10.819-5.809-10.819-5.809l0.813,8.328l-0.744,5.778"/>
	<path fill="#FFFFFF" stroke="#010101" stroke-miterlimit="10" d="M378.372,439.273c0,0,13.436,16.489,17.645,17.373
		c0,0-1.2,1.618-5.454-0.607c0,0,2.506,12.551,9.797,16.723c0,0-3.968,1.193-7.511-0.801c0,0-2.528,26.229,7.877,34.494
		c0,0-11.717-6.055-12.879-34.209c0,0-1.071-20.377-10.635-29.781L378.372,439.273z"/>
	<path fill="#FFFFFF" stroke="#010101" stroke-miterlimit="10" d="M246.112,445.863c-10.16,2.356-11.775-2.285-11.539-7.433
		c0.238-5.146,10.021-7.102,10.021-7.102l0.219,8.365l1.455,5.643"/>
	<path fill="#FFFFFF" stroke="#010101" stroke-miterlimit="10" d="M233.907,440.668c0,0-11.293,18.025-15.361,19.422
		c0,0,1.393,1.459,5.338-1.279c0,0-0.934,12.765-7.652,17.808c0,0,4.084,0.695,7.354-1.724c0,0,5.754,25.714-3.549,35.203
		c0,0,10.877-7.455,8.549-35.541c0,0-1.457-20.352,6.871-30.866L233.907,440.668z"/>
	<path fill="#FFFFFF" stroke="#010101" stroke-miterlimit="10" d="M249.669,350.383c0,0-5.248-6.954-2.605-9.247
		c1.311-1.136,2.693-1.895,4.035-1.986c1.367-0.092,2.689,0.511,3.844,2.119C254.943,341.27,251.638,350.252,249.669,350.383z"/>
	<path fill="#FFFFFF" stroke="#010101" stroke-miterlimit="10" d="M363.126,350.383c0,0,5.248-6.954,2.604-9.247
		c-1.31-1.136-2.693-1.895-4.033-1.986c-1.367-0.092-2.689,0.511-3.844,2.119C357.853,341.27,361.157,350.252,363.126,350.383z"/>
	<path fill="#FFFFFF" stroke="#010101" stroke-miterlimit="10" d="M372.622,371.502c0,0,20.666,9.478,23.166,14.978
		c0,0-0.5-0.333-3.666,0c0,0,13.5,8.833,14.166,12.5c0,0-6.166-4.5-7.666-4.5s14.666,15.667,7.666,25
		c0,0,0.396-26.969-34.803-44.402"/>
	<path fill="#FFFFFF" stroke="#010101" stroke-miterlimit="10" d="M365.454,367.981c0,0,7.668,0.043,7.168,3.521
		s-1.48,5.15-4.574,4.564L365.454,367.981z"/>
	<path fill="#FFFFFF" stroke="#010101" stroke-miterlimit="10" d="M239.94,373.263c0,0-20.668,9.478-23.168,14.978
		c0,0,0.5-0.334,3.668,0c0,0-13.502,8.833-14.168,12.5c0,0,6.168-4.5,7.668-4.5s-14.668,15.666-7.668,25
		c0,0-0.395-26.968,34.803-44.4"/>
	<path fill="#FFFFFF" stroke="#010101" stroke-miterlimit="10" d="M246.545,369.741c0,0-7.668,0.045-7.168,3.522
		s1.48,5.151,4.574,4.564L246.545,369.741z"/>
</g>
<g id="basebody">
	<path fill="#FFFFFF" stroke="#010101" stroke-miterlimit="10" d="M298.363,335.957c0,0-24.453-11.782-36.299-7.782
		c0,0-9.598-44,13.902-52c0,0,4.25,4.5,12.75,4.25s40.5,0,40.5,0s6-1.5,6.5-3c0,0,21.25,13.047,12.5,50.148
		c0,0-13.121-1.028-32.061,7.083l-10.123,6.77L298.363,335.957z"/>
	<path fill="#FFFFFF" stroke="#000000" stroke-miterlimit="10" d="M305.967,341.426c0,0,24-17.251,44-13.251
		c0,0,13.5,5.5,17.25,43.251c3.75,37.75,0,76.5,0,76.5s-4,33.75-61.25,36.5V341.426z"/>
	<path fill="#FFFFFF" stroke="#010101" stroke-miterlimit="10" d="M306.064,341.426c0,0-24-17.251-44-13.251
		c0,0-13.5,5.5-17.25,43.251c-3.75,37.75,0,76.5,0,76.5s4,33.75,61.25,36.5V341.426z"/>
	<path fill="#FFFFFF" stroke="#000000" stroke-miterlimit="10" d="M306.033,341.426c0,0-24-17.251-44-13.251
		c0,0-13.5,5.5-17.25,43.251c-3.75,37.75,0,76.5,0,76.5s4,33.75,61.25,36.5V341.426z"/>
	<g>
		<g>
			<path fill="none" stroke="#010101" stroke-miterlimit="10" d="M348.025,328.929"/>
		</g>
	</g>
	<g>
		<g>
			<path fill="none" stroke="#010101" stroke-miterlimit="10" d="M329.051,279.056"/>
		</g>
	</g>
	<g>
		<g>
			<path fill="none" stroke="#010101" stroke-miterlimit="10" d="M268.324,328.663"/>
		</g>
	</g>
	<path fill="#FFFFFF" stroke="#010101" stroke-miterlimit="10" d="M275.967,276.175c0,0,32-29.5,59.75,1.25
		c0,0-2.496,3.012-11.996,2.963c-9.502-0.049-39.254,0-39.254,0S277.967,279.675,275.967,276.175z"/>
	<path fill="#FFFFFF" stroke="#010101" stroke-miterlimit="10" d="M295.109,483.454l10.924-25.896l12.541,25.664
		C318.574,483.223,300.455,486.104,295.109,483.454z"/>
</g>
<g id="bodycolor">
	<path fill="#D0DD28" stroke="#010101" stroke-miterlimit="10" d="M299.205,335.798c0,0-24.453-11.782-36.299-7.782
		c0,0-9.598-44,13.902-52c0,0,4.25,4.5,12.75,4.25s40.5,0,40.5,0s6-1.5,6.5-3c0,0,21.25,13.047,12.5,50.148
		c0,0-13.121-1.028-32.061,7.083l-10.123,6.77L299.205,335.798z"/>
	<path fill="#6CBE45" stroke="#010101" stroke-miterlimit="10" d="M306.809,341.267c0,0,24-17.251,44-13.251
		c0,0,13.5,5.5,17.25,43.251c3.75,37.75,0,76.5,0,76.5s-4,33.75-61.25,36.5V341.267z"/>
	<path fill="#FFFFFF" stroke="#010101" stroke-miterlimit="10" d="M306.906,341.267c0,0-24-17.251-44-13.251
		c0,0-13.5,5.5-17.25,43.251c-3.75,37.75,0,76.5,0,76.5s4,33.75,61.25,36.5V341.267z"/>
	<path fill="#6CBE45" stroke="#010101" stroke-miterlimit="10" d="M306.875,341.267c0,0-24-17.251-44-13.251
		c0,0-13.5,5.5-17.25,43.251c-3.75,37.75,0,76.5,0,76.5s4,33.75,61.25,36.5V341.267z"/>
	<g>
		<g>
			<path fill="none" stroke="#010101" stroke-miterlimit="10" d="M348.867,328.77"/>
		</g>
	</g>
	<g>
		<g>
			<path fill="none" stroke="#010101" stroke-miterlimit="10" d="M329.893,278.897"/>
		</g>
	</g>
	<g>
		<g>
			<path fill="none" stroke="#010101" stroke-miterlimit="10" d="M269.166,328.504"/>
		</g>
	</g>
	<path fill="#6CBE45" stroke="#010101" stroke-miterlimit="10" d="M276.809,276.017c0,0,32-29.5,59.75,1.25
		c0,0-2.496,3.012-11.996,2.963c-9.502-0.049-39.253,0-39.253,0S278.809,279.517,276.809,276.017z"/>
	<path fill="#D0DD28" stroke="#010101" stroke-miterlimit="10" d="M295.951,483.295l10.924-25.895l12.541,25.664
		C319.416,483.064,301.297,485.945,295.951,483.295z"/>
</g>
<g id="eyes">
	<path fill="#FFFFFF" stroke="#010101" stroke-miterlimit="10" d="M276.798,276.582c0,0,6.93-8.576,12.471-4.682
		c0,0-1.309,10.842-13.031,5.93L276.798,276.582z"/>
	<path fill="#FFFFFF" stroke="#010101" stroke-miterlimit="10" d="M334.886,276.582c0,0-6.93-8.576-12.471-4.682
		c0,0,1.309,10.842,13.031,5.93L334.886,276.582z"/>
</g>
<g id="antennae">
	<path fill="none" stroke="#010101" stroke-miterlimit="10" d="M324.217,267.823c5.256,0,9.756-0.096,14.705-1.496
		c2.861-0.81,12.486-3.725,11.604-7.814c-0.15-0.112-0.779-0.359-0.982-0.385c-1.209,1.584-2.184,3.015-2.826,4.861"/>
	<path fill="none" stroke="#010101" stroke-miterlimit="10" d="M287.757,268.274c-5.254,0-9.754-0.096-14.703-1.496
		c-2.861-0.81-12.486-3.725-11.604-7.814c0.15-0.112,0.779-0.359,0.982-0.385c1.209,1.584,2.182,3.015,2.824,4.861"/>
</g>
<g id="markings">
	<path fill="#010101" d="M289.478,452.153c0.963,8.592-2.859,14.2-11.551,13.913c-9.004-0.299-15.92-4.492-16.373-13.977
		c-0.346-7.203-1.232-17.846,7.502-20.034C269.056,432.057,289.873,436.37,289.478,452.153z"/>
	<path fill="#010101" d="M322.49,452.153c-0.965,8.592,2.858,14.2,11.549,13.913c9.006-0.299,15.92-4.492,16.375-13.977
		c0.344-7.203,1.229-17.846-7.502-20.034C342.912,432.057,322.096,436.37,322.49,452.153z"/>
</g>
<g id="dots">
	<pattern  id="SVGID_1_" xlink:href="#New_Pattern_Swatch_12" patternTransform="matrix(1 0 0 -1 -0.5 -16962.498)">
	</pattern>
	<path fill="url(#SVGID_1_)" stroke="#010101" stroke-miterlimit="10" d="M318.648,483.222
		c45.239-6.677,48.632-35.296,48.632-35.296s3.75-38.75,0-76.5s-17.25-43.25-17.25-43.25c-20-4-44,13.25-44,13.25v116.68
		L318.648,483.222z"/>
	<pattern  id="SVGID_2_" xlink:href="#New_Pattern_Swatch_12" patternTransform="matrix(1 0 0 -1 -0.5 -16962.498)">
	</pattern>
	<path fill="url(#SVGID_2_)" stroke="#010101" stroke-miterlimit="10" d="M306.03,484.426"/>
	<pattern  id="SVGID_3_" xlink:href="#New_Pattern_Swatch_12" patternTransform="matrix(1 0 0 -1 -0.5 -16962.498)">
	</pattern>
	<path fill="url(#SVGID_3_)" stroke="#010101" stroke-miterlimit="10" d="M306.097,484.426"/>
	<pattern  id="SVGID_4_" xlink:href="#New_Pattern_Swatch_12" patternTransform="matrix(1 0 0 -1 -0.5 -16962.498)">
	</pattern>
	<path fill="url(#SVGID_4_)" stroke="#010101" stroke-miterlimit="10" d="M306.097,458.104V341.426c0,0-24-17.25-44-13.25
		c0,0-13.5,5.5-17.25,43.25s0,76.5,0,76.5s3.473,29.305,50.265,35.525L306.097,458.104z"/>
</g>
<g id="fur">
	<g>
		<g>
			<path fill="none" stroke="#010101" stroke-miterlimit="10" d="M305.823,344.031"/>
		</g>
	</g>
	<g>
		<g>
			<g>
				<g>
					<path fill="none" stroke="#010101" stroke-miterlimit="10" d="M335.805,270.34l-0.633,4.901c0,0,1.159-0.621,2.335-1.201
						c0.608-0.277,1.217-0.517,1.698-0.694c0.479-0.168,0.799-0.28,0.799-0.28"/>
				</g>
				<g>
					<path fill="none" stroke="#010101" stroke-miterlimit="10" d="M340.773,273.69c0,0-0.278,1.215-0.662,2.408
						c-0.368,1.191-0.798,2.326-0.798,2.326s0.312-0.093,0.782-0.233c0.465-0.125,1.093-0.285,1.733-0.429
						c1.278-0.294,2.625-0.515,2.625-0.515"/>
				</g>
				<g>
					<path fill="none" stroke="#010101" stroke-miterlimit="10" d="M345.071,277.988c0,0-0.509,1.151-1.063,2.249
						c-0.275,0.55-0.561,1.09-0.777,1.49c-0.228,0.403-0.378,0.671-0.378,0.671s1.266-0.16,2.582-0.247
						c1.312-0.095,2.674-0.116,2.674-0.116"/>
				</g>
				<g>
					<path fill="none" stroke="#010101" stroke-miterlimit="10" d="M348.606,282.854c-0.001,0-0.684,1.062-1.397,2.071
						c-0.712,1.013-1.455,1.971-1.455,1.971c-0.001,0,1.328-0.002,2.606,0.117c1.296,0.1,2.626,0.274,2.626,0.274"/>
				</g>
				<g>
					<path fill="none" stroke="#010101" stroke-miterlimit="10" d="M351.396,288.151c0,0-0.201,0.234-0.503,0.584
						c-0.306,0.35-0.699,0.802-1.142,1.261c-0.864,0.914-1.749,1.774-1.749,1.774s1.271,0.196,2.57,0.464
						c1.297,0.261,2.617,0.595,2.617,0.595"/>
				</g>
				<g>
					<path fill="none" stroke="#010101" stroke-miterlimit="10" d="M353.445,293.745c0,0-0.942,0.841-1.899,1.631
						c-0.956,0.794-1.926,1.537-1.926,1.537s1.258,0.349,2.533,0.767c0.649,0.205,1.236,0.436,1.698,0.611
						c0.458,0.179,0.765,0.298,0.765,0.298"/>
				</g>
				<g>
					<path fill="none" stroke="#010101" stroke-miterlimit="10" d="M354.771,299.521c0,0-1.023,0.722-2.056,1.396
						c-1.03,0.679-2.067,1.309-2.067,1.309s0.307,0.125,0.766,0.312c0.464,0.19,1.076,0.453,1.648,0.733
						c1.166,0.553,2.34,1.164,2.34,1.164"/>
				</g>
				<g>
					<path fill="none" stroke="#010101" stroke-miterlimit="10" d="M355.467,305.374c0,0-1.088,0.609-2.179,1.174
						c-1.09,0.57-2.182,1.095-2.182,1.095c-0.001,0,1.191,0.61,2.278,1.279c1.112,0.663,2.226,1.377,2.226,1.377"/>
				</g>
				<g>
					<path fill="none" stroke="#010101" stroke-miterlimit="10" d="M355.589,311.234c0,0-1.138,0.485-2.274,0.969
						c-1.138,0.45-2.273,0.899-2.273,0.899s0.277,0.181,0.694,0.452c0.425,0.274,0.968,0.645,1.481,1.022
						c1.05,0.754,2.096,1.553,2.096,1.553"/>
				</g>
				<g>
					<path fill="none" stroke="#010101" stroke-miterlimit="10" d="M355.211,317.054c0,0-1.177,0.391-2.354,0.781
						c-1.174,0.361-2.348,0.722-2.348,0.722s1.046,0.797,2.086,1.64c0.532,0.422,1.006,0.842,1.378,1.164
						c0.368,0.323,0.613,0.538,0.613,0.538"/>
				</g>
				<g>
					<path fill="none" stroke="#010101" stroke-miterlimit="10" d="M354.411,322.806c0,0-1.207,0.305-2.415,0.61
						c-1.202,0.279-2.405,0.559-2.405,0.559s0.977,0.885,1.951,1.771c0.968,0.918,1.937,1.837,1.937,1.837"/>
				</g>
			</g>
		</g>
	</g>
	<g>
		<g>
			<path fill="none" stroke="#010101" stroke-miterlimit="10" d="M328.712,276.808"/>
		</g>
	</g>
	<g>
		<g>
			<path fill="none" stroke="#010101" stroke-miterlimit="10" d="M302.835,276.699"/>
		</g>
	</g>
	<g>
		<g>
			<path fill="none" stroke="#010101" stroke-miterlimit="10" d="M288.476,276.812"/>
		</g>
	</g>
	<g>
		<g>
			<g>
				<g>
					<path fill="none" stroke="#010101" stroke-miterlimit="10" d="M256.457,328.073c0.001,0,1.005-0.726,2.026-1.406
						c1.022-0.671,2.045-1.341,2.045-1.341s-1.214-0.442-2.429-0.884c-1.222-0.455-2.428-0.943-2.429-0.943"/>
				</g>
				<g>
					<path fill="none" stroke="#010101" stroke-miterlimit="10" d="M255.552,322.632c0,0,1.051-0.635,2.101-1.271
						c1.056-0.616,2.11-1.231,2.11-1.231s-1.188-0.504-2.375-1.008c-1.19-0.53-2.38-1.061-2.38-1.061"/>
				</g>
				<g>
					<path fill="none" stroke="#010101" stroke-miterlimit="10" d="M254.916,317.191c0,0,1.088-0.584,2.175-1.167
						c1.09-0.563,2.179-1.126,2.179-1.126s-1.171-0.562-2.341-1.124c-1.182-0.573-2.321-1.181-2.321-1.181"/>
				</g>
				<g>
					<path fill="none" stroke="#010101" stroke-miterlimit="10" d="M254.58,311.715c0,0,1.111-0.526,2.222-1.053
						c1.112-0.504,2.224-1.008,2.224-1.008s-1.163-0.607-2.276-1.248c-1.116-0.657-2.231-1.314-2.231-1.314"/>
				</g>
				<g>
					<path fill="none" stroke="#010101" stroke-miterlimit="10" d="M254.533,306.211c0,0,1.135-0.46,2.271-0.92
						c1.134-0.435,2.269-0.869,2.269-0.869s-1.087-0.671-2.172-1.387c-1.082-0.711-2.162-1.466-2.162-1.466"/>
				</g>
				<g>
					<path fill="none" stroke="#010101" stroke-miterlimit="10" d="M254.807,300.685c0,0,1.176-0.379,2.352-0.758
						c1.173-0.345,2.345-0.69,2.345-0.69s-0.263-0.191-0.656-0.477c-0.396-0.289-0.916-0.679-1.417-1.078
						c-1.014-0.795-2.019-1.647-2.019-1.647"/>
				</g>
				<g>
					<path fill="none" stroke="#010101" stroke-miterlimit="10" d="M255.554,295.151c0,0,1.193-0.299,2.407-0.548
						c1.207-0.254,2.404-0.461,2.404-0.461s-0.981-0.848-1.917-1.751c-0.922-0.894-1.824-1.859-1.824-1.859"/>
				</g>
				<g>
					<path fill="none" stroke="#010101" stroke-miterlimit="10" d="M256.865,289.658c0,0,0.304-0.04,0.76-0.099
						c0.463-0.048,1.08-0.111,1.698-0.174c1.229-0.111,2.439-0.164,2.439-0.164s-0.215-0.242-0.536-0.605
						c-0.324-0.368-0.747-0.865-1.138-1.369c-0.797-1.009-1.558-2.104-1.558-2.104"/>
				</g>
				<g>
					<path fill="none" stroke="#010101" stroke-miterlimit="10" d="M258.9,284.298c0,0,1.259,0.009,2.483,0.09
						c1.229,0.074,2.42,0.216,2.42,0.216s-0.189-0.275-0.433-0.677c-0.246-0.405-0.568-0.957-0.879-1.528
						c-0.312-0.571-0.609-1.161-0.827-1.612c-0.221-0.453-0.353-0.757-0.353-0.757"/>
				</g>
				<g>
					<path fill="none" stroke="#010101" stroke-miterlimit="10" d="M261.87,279.267c0,0,1.23,0.23,2.403,0.537
						c0.582,0.146,1.178,0.327,1.617,0.469c0.435,0.146,0.725,0.243,0.725,0.243s-0.471-1.171-0.85-2.443
						c-0.369-1.242-0.602-2.554-0.602-2.554"/>
				</g>
				<g>
					<path fill="none" stroke="#010101" stroke-miterlimit="10" d="M265.862,274.864c0,0,0.284,0.128,0.712,0.321
						c0.428,0.201,0.988,0.479,1.531,0.77c1.092,0.579,2.094,1.225,2.094,1.225s-0.059-0.329-0.104-0.794
						c-0.049-0.468-0.099-1.104-0.124-1.755c-0.026-0.651-0.027-1.317-0.016-1.823c0.007-0.513,0.04-0.829,0.041-0.829"/>
				</g>
				<g>
					<path fill="none" stroke="#010101" stroke-miterlimit="10" d="M270.851,271.544c0,0,0.994,0.761,1.89,1.57
						c0.921,0.842,1.747,1.732,1.747,1.732c0.001,0,0.125-1.266,0.381-2.565c0.244-1.274,0.488-2.547,0.488-2.547"/>
				</g>
			</g>
		</g>
	</g>
	<g>
		<g>
			<path fill="none" stroke="#010101" stroke-miterlimit="10" d="M262.804,330.028"/>
		</g>
	</g>
	<g>
		<g>
			<g>
				<g>
					<path fill="none" stroke="#010101" stroke-miterlimit="10" d="M351.868,322.29c-0.021-0.009,0.175,0.378,0.178,0.85
						c0.033,0.484,0.023,1.117-0.033,1.735c-0.104,1.239-0.396,2.413-0.396,2.413s1.121-0.603,2.374-1.033
						c1.242-0.447,2.569-0.746,2.569-0.746"/>
				</g>
				<g>
					<path fill="none" stroke="#010101" stroke-miterlimit="10" d="M357.274,326.206c0,0-0.404,1.193-0.899,2.327
						c-0.486,1.139-1.049,2.222-1.049,2.222s1.266-0.253,2.575-0.396c1.307-0.153,2.646-0.207,2.646-0.207"/>
				</g>
				<g>
					<path fill="none" stroke="#010101" stroke-miterlimit="10" d="M361.091,330.942c0,0-0.635,1.078-1.317,2.106
						c-0.682,1.034-1.404,2.021-1.404,2.021s1.296-0.03,2.609,0.019c1.314,0.041,2.643,0.155,2.643,0.155"/>
				</g>
				<g>
					<path fill="none" stroke="#010101" stroke-miterlimit="10" d="M364.045,336.082c0,0-0.773,0.977-1.579,1.914
						c-0.802,0.94-1.632,1.844-1.632,1.844s1.293,0.127,2.595,0.314c1.302,0.181,2.606,0.418,2.606,0.418"/>
				</g>
				<g>
					<path fill="none" stroke="#010101" stroke-miterlimit="10" d="M366.372,341.438c0,0-0.866,0.892-1.753,1.751
						c-0.896,0.847-1.79,1.694-1.79,1.694s1.279,0.244,2.561,0.535c1.281,0.287,2.562,0.618,2.562,0.618"/>
				</g>
				<g>
					<path fill="none" stroke="#010101" stroke-miterlimit="10" d="M368.221,346.917c0,0-0.938,0.807-1.878,1.613
						c-0.951,0.784-1.901,1.567-1.901,1.567s1.26,0.354,2.52,0.708c1.258,0.387,2.517,0.773,2.517,0.773"/>
				</g>
				<g>
					<path fill="none" stroke="#010101" stroke-miterlimit="10" d="M369.689,352.47c0,0-0.985,0.749-1.971,1.498
						c-0.994,0.729-1.987,1.458-1.987,1.458s1.237,0.423,2.478,0.846c1.236,0.45,2.473,0.9,2.473,0.9"/>
				</g>
				<g>
					<path fill="none" stroke="#010101" stroke-miterlimit="10" d="M370.849,358.068c0,0-1.02,0.699-2.04,1.398
						c-1.026,0.682-2.055,1.363-2.055,1.363s1.219,0.479,2.438,0.959c1.216,0.502,2.431,1.004,2.431,1.004"/>
				</g>
				<g>
					<path fill="none" stroke="#010101" stroke-miterlimit="10" d="M371.751,363.692c0,0-1.048,0.656-2.096,1.312
						c-1.055,0.641-2.106,1.282-2.106,1.282s1.199,0.526,2.397,1.053c1.195,0.545,2.393,1.091,2.393,1.091"/>
				</g>
				<g>
					<polyline fill="none" stroke="#010101" stroke-miterlimit="10" points="372.435,369.331 368.147,371.782 372.878,374.05 					
						"/>
				</g>
				<g>
					<polyline fill="none" stroke="#010101" stroke-miterlimit="10" points="372.954,374.947 368.62,377.313 373.31,379.666 					
						"/>
				</g>
				<g>
					<polyline fill="none" stroke="#010101" stroke-miterlimit="10" points="373.37,380.563 368.997,382.855 373.647,385.284 					
						"/>
				</g>
				<g>
					<polyline fill="none" stroke="#010101" stroke-miterlimit="10" points="373.692,386.181 369.284,388.404 373.898,390.903 					
						"/>
				</g>
				<g>
					<polyline fill="none" stroke="#010101" stroke-miterlimit="10" points="373.931,391.8 369.491,393.959 374.069,396.522 					
						"/>
				</g>
				<g>
					<polyline fill="none" stroke="#010101" stroke-miterlimit="10" points="374.09,397.42 369.621,399.521 374.166,402.143 					
						"/>
				</g>
				<g>
					<polyline fill="none" stroke="#010101" stroke-miterlimit="10" points="374.175,403.04 369.68,405.083 374.191,407.761 					
						"/>
				</g>
				<g>
					<polyline fill="none" stroke="#010101" stroke-miterlimit="10" points="374.189,408.658 369.671,410.646 374.151,413.377 					
						"/>
				</g>
				<g>
					<polyline fill="none" stroke="#010101" stroke-miterlimit="10" points="374.139,414.273 369.598,416.211 374.047,418.991 					
						"/>
				</g>
				<g>
					<polyline fill="none" stroke="#010101" stroke-miterlimit="10" points="374.024,419.888 369.462,421.774 373.881,424.603 					
						"/>
				</g>
				<g>
					<polyline fill="none" stroke="#010101" stroke-miterlimit="10" points="373.849,425.499 369.266,427.336 373.652,430.213 					
						"/>
				</g>
				<g>
					<polyline fill="none" stroke="#010101" stroke-miterlimit="10" points="373.61,431.108 369.008,432.895 373.362,435.821 					
						"/>
				</g>
				<g>
					<polyline fill="none" stroke="#010101" stroke-miterlimit="10" points="373.311,436.717 368.688,438.449 373.006,441.429 					
						"/>
				</g>
				<g>
					<path fill="none" stroke="#010101" stroke-miterlimit="10" d="M372.942,442.324l-4.646,1.67c0,0,1.07,0.757,2.141,1.514
						c1.064,0.771,2.131,1.538,2.131,1.538"/>
				</g>
				<g>
					<path fill="none" stroke="#010101" stroke-miterlimit="10" d="M372.449,448.107c0,0-0.302,0.108-0.755,0.242
						c-0.452,0.135-1.058,0.29-1.661,0.423c-1.21,0.269-2.418,0.435-2.418,0.435s0.938,0.884,1.812,1.869
						c0.883,0.977,1.702,2.038,1.702,2.038"/>
				</g>
				<g>
					<path fill="none" stroke="#010101" stroke-miterlimit="10" d="M370.8,454.017c0,0-1.247,0.107-2.48,0.144
						c-1.237,0.042-2.46,0.017-2.46,0.017s0.771,1.038,1.482,2.146c0.718,1.102,1.373,2.267,1.373,2.267"/>
				</g>
				<g>
					<path fill="none" stroke="#010101" stroke-miterlimit="10" d="M368.257,459.424c0,0-1.246-0.082-2.473-0.225
						c-1.23-0.139-2.438-0.334-2.438-0.334s0.616,1.14,1.167,2.334c0.56,1.188,1.053,2.43,1.053,2.43"/>
				</g>
				<g>
					<path fill="none" stroke="#010101" stroke-miterlimit="10" d="M365.002,464.393c0,0-1.224-0.251-2.421-0.556
						c-1.2-0.299-2.374-0.649-2.374-0.649s0.46,1.212,0.855,2.468c0.399,1.25,0.734,2.541,0.734,2.541"/>
				</g>
				<g>
					<path fill="none" stroke="#010101" stroke-miterlimit="10" d="M361.146,468.878c0.001,0-1.183-0.403-2.331-0.852
						c-1.156-0.447-2.277-0.936-2.277-0.936s0.311,1.263,0.55,2.553c0.252,1.292,0.436,2.61,0.436,2.61"/>
				</g>
				<g>
					<path fill="none" stroke="#010101" stroke-miterlimit="10" d="M356.799,472.854c0,0-1.127-0.541-2.216-1.114
						c-1.098-0.577-2.158-1.188-2.158-1.188c0,0.001,0.162,1.289,0.263,2.6c0.106,1.312,0.148,2.639,0.148,2.639"/>
				</g>
				<g>
					<path fill="none" stroke="#010101" stroke-miterlimit="10" d="M352.057,476.307c0,0-1.059-0.654-2.084-1.343
						c-1.027-0.685-2.024-1.4-2.024-1.4s0.025,1.299-0.003,2.613c-0.024,1.313-0.105,2.639-0.105,2.639"/>
				</g>
				<g>
					<path fill="none" stroke="#010101" stroke-miterlimit="10" d="M347.018,479.252c0,0-0.987-0.753-1.945-1.534
						c-0.959-0.773-1.891-1.58-1.891-1.58s-0.094,1.297-0.236,2.605c-0.141,1.305-0.33,2.616-0.33,2.616"/>
				</g>
				<g>
					<path fill="none" stroke="#010101" stroke-miterlimit="10" d="M341.764,481.725c0,0-0.919-0.833-1.811-1.689
						c-0.879-0.863-1.758-1.729-1.758-1.729s-0.198,1.287-0.442,2.58c-0.24,1.288-0.523,2.582-0.523,2.582"/>
				</g>
				<g>
					<path fill="none" stroke="#010101" stroke-miterlimit="10" d="M336.356,483.769c0,0-0.841-0.908-1.681-1.817
						c-0.815-0.924-1.632-1.848-1.632-1.848s-0.29,1.271-0.621,2.543c-0.347,1.271-0.692,2.541-0.692,2.541"/>
				</g>
				<g>
					<path fill="none" stroke="#010101" stroke-miterlimit="10" d="M330.844,485.428c0,0-0.777-0.961-1.558-1.923
						c-0.758-0.973-1.516-1.945-1.516-1.945s-0.388,1.25-0.775,2.5c-0.42,1.248-0.84,2.496-0.84,2.496"/>
				</g>
				<g>
					<path fill="none" stroke="#010101" stroke-miterlimit="10" d="M325.26,486.744c0,0-0.723-1.004-1.444-2.008
						c-0.702-1.015-1.405-2.026-1.405-2.026s-0.455,1.228-0.911,2.455c-0.483,1.224-0.968,2.447-0.968,2.447"/>
				</g>
				<g>
					<path fill="none" stroke="#010101" stroke-miterlimit="10" d="M319.628,487.754c0,0-0.67-1.039-1.34-2.079
						c-0.651-1.046-1.303-2.093-1.303-2.093s-0.517,1.204-1.031,2.407c-0.54,1.199-1.081,2.397-1.081,2.397"/>
				</g>
				<g>
					<path fill="none" stroke="#010101" stroke-miterlimit="10" d="M313.968,488.487c0,0-0.621-1.068-1.242-2.139
						c-0.604-1.074-1.209-2.148-1.209-2.148s-0.566,1.18-1.136,2.358c-0.592,1.176-1.184,2.351-1.184,2.351"/>
				</g>
				<g>
					<path fill="none" stroke="#010101" stroke-miterlimit="10" d="M308.29,488.97c0,0-0.575-1.095-1.15-2.188
						c-0.56-1.1-1.117-2.197-1.117-2.197l-2.46,4.632"/>
				</g>
			</g>
		</g>
	</g>
	<g>
		<g>
			<path fill="none" stroke="#010101" stroke-miterlimit="10" d="M343.476,323.958"/>
		</g>
	</g>
	<g>
		<g>
			<g>
				<g>
					<path fill="none" stroke="#010101" stroke-miterlimit="10" d="M308.095,489.214l-1.793-4.6c0,0-0.726,1.092-1.45,2.184
						c-0.744,1.085-1.487,2.17-1.487,2.17"/>
				</g>
				<g>
					<path fill="none" stroke="#010101" stroke-miterlimit="10" d="M302.456,488.907c0,0-0.424-1.162-0.848-2.323
						c-0.406-1.164-0.813-2.328-0.813-2.328s-0.767,1.062-1.532,2.123c-0.789,1.053-1.578,2.105-1.578,2.105"/>
				</g>
				<g>
					<path fill="none" stroke="#010101" stroke-miterlimit="10" d="M296.778,488.385c0,0-0.374-1.18-0.748-2.357
						c-0.354-1.182-0.709-2.361-0.709-2.361s-0.813,1.026-1.626,2.054c-0.837,1.016-1.675,2.03-1.675,2.03"/>
				</g>
				<g>
					<path fill="none" stroke="#010101" stroke-miterlimit="10" d="M291.118,487.606c0,0-0.317-1.195-0.636-2.392
						c-0.297-1.196-0.595-2.393-0.595-2.393s-0.861,0.984-1.724,1.971c-0.888,0.972-1.776,1.943-1.776,1.943"/>
				</g>
				<g>
					<path fill="none" stroke="#010101" stroke-miterlimit="10" d="M285.491,486.548c0,0-0.256-1.211-0.511-2.421
						c-0.232-1.211-0.465-2.421-0.465-2.421s-0.914,0.937-1.828,1.872c-0.928,0.932-1.887,1.84-1.887,1.84"/>
				</g>
				<g>
					<path fill="none" stroke="#010101" stroke-miterlimit="10" d="M279.915,485.177c0,0-0.185-1.225-0.369-2.448
						c-0.159-1.222-0.317-2.443-0.317-2.443s-0.952,0.89-1.939,1.757c-0.983,0.87-2.002,1.714-2.002,1.714"/>
				</g>
				<g>
					<path fill="none" stroke="#010101" stroke-miterlimit="10" d="M274.415,483.455c0,0-0.104-1.234-0.207-2.468
						c-0.074-1.229-0.148-2.46-0.148-2.46s-1.009,0.82-2.057,1.616c-1.043,0.798-2.124,1.562-2.124,1.562"/>
				</g>
				<g>
					<path fill="none" stroke="#010101" stroke-miterlimit="10" d="M269.027,481.342c0,0-0.029-1.241-0.021-2.478
						c0.002-1.232,0.045-2.463,0.045-2.464c0,0-1.068,0.74-2.178,1.448c-1.104,0.709-2.249,1.381-2.249,1.381"/>
				</g>
				<g>
					<path fill="none" stroke="#010101" stroke-miterlimit="10" d="M263.803,478.791c0,0,0.073-1.238,0.189-2.471
						c0.11-1.229,0.264-2.449,0.264-2.449s-1.128,0.645-2.299,1.246c-1.164,0.604-2.372,1.162-2.372,1.162"/>
				</g>
				<g>
					<path fill="none" stroke="#010101" stroke-miterlimit="10" d="M258.806,475.762c0,0,0.19-1.228,0.428-2.442
						c0.23-1.214,0.508-2.41,0.508-2.409c0,0-1.187,0.53-2.412,1.006c-1.222,0.479-2.484,0.905-2.484,0.905"/>
				</g>
				<g>
					<path fill="none" stroke="#010101" stroke-miterlimit="10" d="M254.121,472.22c0,0,0.321-1.205,0.688-2.384
						c0.364-1.185,0.771-2.339,0.771-2.339s-1.238,0.397-2.508,0.729c-1.271,0.343-2.575,0.613-2.575,0.613"/>
				</g>
				<g>
					<path fill="none" stroke="#010101" stroke-miterlimit="10" d="M249.848,468.154c0,0,0.458-1.159,0.963-2.287
						c0.5-1.131,1.046-2.229,1.046-2.229s-1.273,0.247-2.577,0.42c-1.301,0.183-2.632,0.287-2.632,0.287"/>
				</g>
				<g>
					<path fill="none" stroke="#010101" stroke-miterlimit="10" d="M246.085,463.582c0,0,0.599-1.095,1.244-2.149
						c0.641-1.058,1.325-2.072,1.325-2.072s-1.293,0.081-2.609,0.081c-1.313,0.008-2.648-0.069-2.648-0.069"/>
				</g>
				<g>
					<path fill="none" stroke="#010101" stroke-miterlimit="10" d="M242.94,458.535c0,0,0.74-1.006,1.524-1.962
						c0.78-0.961,1.601-1.868,1.601-1.868s-1.291-0.097-2.594-0.287c-1.302-0.18-2.612-0.459-2.612-0.459"/>
				</g>
				<g>
					<path fill="none" stroke="#010101" stroke-miterlimit="10" d="M240.529,453.056c0,0,0.882-0.889,1.806-1.712
						c0.918-0.83,1.878-1.585,1.878-1.585s-1.256-0.292-2.505-0.713c-0.626-0.207-1.248-0.445-1.714-0.647
						c-0.466-0.2-0.774-0.371-0.774-0.371"/>
				</g>
				<g>
					<polyline fill="none" stroke="#010101" stroke-miterlimit="10" points="239.112,446.983 243.436,444.598 238.737,442.261 					
						"/>
				</g>
				<g>
					<polyline fill="none" stroke="#010101" stroke-miterlimit="10" points="238.674,441.364 243.036,439.051 238.37,436.651 					
						"/>
				</g>
				<g>
					<polyline fill="none" stroke="#010101" stroke-miterlimit="10" points="238.318,435.755 242.708,433.495 238.07,431.041 					
						"/>
				</g>
				<g>
					<polyline fill="none" stroke="#010101" stroke-miterlimit="10" points="238.028,430.145 242.443,427.935 237.833,425.429 					
						"/>
				</g>
				<g>
					<polyline fill="none" stroke="#010101" stroke-miterlimit="10" points="237.801,424.532 242.24,422.37 237.657,419.814 					
						"/>
				</g>
				<g>
					<polyline fill="none" stroke="#010101" stroke-miterlimit="10" points="237.635,418.918 242.098,416.805 237.544,414.198 					
						"/>
				</g>
				<g>
					<polyline fill="none" stroke="#010101" stroke-miterlimit="10" points="237.531,413.301 242.018,411.239 237.494,408.58 					
						"/>
				</g>
				<g>
					<polyline fill="none" stroke="#010101" stroke-miterlimit="10" points="237.492,407.683 242.002,405.673 237.51,402.961 					
						"/>
				</g>
				<g>
					<polyline fill="none" stroke="#010101" stroke-miterlimit="10" points="237.519,402.062 242.053,400.108 237.596,397.338 					
						"/>
				</g>
				<g>
					<polyline fill="none" stroke="#010101" stroke-miterlimit="10" points="237.616,396.439 242.176,394.544 237.756,391.715 					
						"/>
				</g>
				<g>
					<polyline fill="none" stroke="#010101" stroke-miterlimit="10" points="237.789,390.818 242.374,388.986 237.995,386.094 					
						"/>
				</g>
				<g>
					<polyline fill="none" stroke="#010101" stroke-miterlimit="10" points="238.041,385.196 242.653,383.433 238.319,380.474 					
						"/>
				</g>
				<g>
					<polyline fill="none" stroke="#010101" stroke-miterlimit="10" points="238.38,379.576 243.021,377.888 238.737,374.856 					
						"/>
				</g>
				<g>
					<path fill="none" stroke="#010101" stroke-miterlimit="10" d="M238.813,373.958l4.669-1.605c0,0-1.058-0.772-2.116-1.546
						c-1.054-0.785-2.107-1.571-2.107-1.571"/>
				</g>
				<g>
					<path fill="none" stroke="#010101" stroke-miterlimit="10" d="M239.355,368.334c0,0,1.177-0.378,2.354-0.757
						c1.178-0.363,2.356-0.728,2.356-0.728s-1.034-0.804-2.067-1.608c-1.025-0.823-2.051-1.646-2.051-1.646"/>
				</g>
				<g>
					<path fill="none" stroke="#010101" stroke-miterlimit="10" d="M240.077,362.695c0,0,1.19-0.335,2.38-0.67
						c1.191-0.317,2.383-0.636,2.383-0.636s-1.001-0.844-2.002-1.688c-0.99-0.867-1.98-1.733-1.98-1.733"/>
				</g>
				<g>
					<path fill="none" stroke="#010101" stroke-miterlimit="10" d="M241.025,357.072c0,0,1.204-0.283,2.407-0.566
						c1.205-0.264,2.409-0.527,2.409-0.527s-0.961-0.889-1.922-1.778c-0.946-0.915-1.893-1.83-1.893-1.83"/>
				</g>
				<g>
					<path fill="none" stroke="#010101" stroke-miterlimit="10" d="M242.241,351.479c0,0,1.218-0.222,2.435-0.443
						c1.217-0.197,2.434-0.395,2.434-0.395s-0.91-0.941-1.819-1.883c-0.9-0.953-1.78-1.942-1.78-1.942"/>
				</g>
				<g>
					<path fill="none" stroke="#010101" stroke-miterlimit="10" d="M243.78,345.935c0,0,1.229-0.146,2.459-0.291
						c1.227-0.116,2.453-0.231,2.453-0.231s-0.857-0.981-1.686-2.001c-0.831-1.016-1.632-2.074-1.632-2.074"/>
				</g>
				<g>
					<path fill="none" stroke="#010101" stroke-miterlimit="10" d="M245.714,340.473c0,0,1.243-0.07,2.477-0.099
						c1.237-0.033,2.464-0.024,2.464-0.024s-0.773-1.045-1.505-2.138c-0.736-1.087-1.427-2.225-1.427-2.225"/>
				</g>
				<g>
					<path fill="none" stroke="#010101" stroke-miterlimit="10" d="M248.151,335.149c0,0,1.245,0.049,2.477,0.15
						c1.233,0.096,2.449,0.248,2.449,0.248s-0.656-1.118-1.25-2.292c-0.601-1.169-1.129-2.398-1.129-2.398"/>
				</g>
				<g>
					<path fill="none" stroke="#010101" stroke-miterlimit="10" d="M251.245,330.067c0,0,1.234,0.208,2.439,0.488
						c1.207,0.271,2.379,0.619,2.379,0.619s-0.485-1.195-0.867-2.457c-0.394-1.255-0.661-2.583-0.662-2.583"/>
				</g>
				<g>
					<path fill="none" stroke="#010101" stroke-miterlimit="10" d="M255.253,325.44c0,0,1.186,0.436,2.302,0.973
						c1.125,0.526,2.156,1.166,2.156,1.165c0,0-0.217-1.255-0.209-2.582c0-0.661,0.057-1.337,0.151-1.855
						c0.028-0.25,0.124-0.489,0.21-0.66c0.083-0.168,0.13-0.265,0.13-0.265"/>
				</g>
			</g>
		</g>
	</g>
	<g>
		<g>
			<path fill="none" stroke="#010101" stroke-miterlimit="10" d="M308.683,339.179"/>
		</g>
	</g>
</g>
<g id="leaf">
	<g>
		<path fill="#A8CF38" stroke="#010101" stroke-width="0.5" stroke-linecap="round" stroke-linejoin="round" d="M302.377,256.082
			c0,0-8.588-15.027-7.419-22.383l2.105,0.724c0,0-1.804-2.162,0.245-11.304l1.729,1.488c0,0-1.458-4.527,1.438-10.396l1.729,1.488
			c0,0,0.773-4.062,2.459-8.308l1.854,1.235c0,0-0.42-4.966,1.345-8.538l1.728,1.486c0,0,0.665-6.335,4.108-7.491l0.485,1.51
			c0,0,2.346-3.921,5.837-6.003l1.604,1.742c0,0-0.139-3.875,4.342-5.471l0.943,1.416c0,0,0.491-5.15,4.594-5.98l1.224,2.51
			c0,0,7.08-6.577,8.699-6.812l2.641,1.304c0.254,1.159-0.119,11.048-0.119,11.048l2.736-0.553c1.838,3.762-1.954,7.283-1.954,7.283
			l1.696-0.114c1.46,4.528-1.703,6.774-1.703,6.774l2.356,0.214c0.469,4.038-1.215,8.283-1.215,8.283l1.494-0.533
			c1.176,3.437-3.449,7.817-3.449,7.817l2.229,0.468c-1.764,3.571-5.961,6.259-5.961,6.259l2.106,0.721
			c-2.348,3.92-5.1,7.004-5.1,7.004l2.231,0.467c-2.896,5.866-7.378,7.463-7.378,7.463l2.23,0.465
			c-6.01,7.188-8.824,7.068-8.824,7.068l1.854,1.232c-5.13,5.399-22.282,7.721-22.282,7.721L302.377,256.082z"/>
		<path fill="#A8CF38" stroke="#010101" stroke-width="0.5" stroke-linecap="round" stroke-linejoin="round" d="M303.881,256.826
			c0,0-8.588-15.028-7.418-22.385l2.104,0.725c0,0-1.805-2.162,0.247-11.303l1.728,1.486c0,0-1.458-4.527,1.438-10.395l1.729,1.488
			c0,0,0.772-4.061,2.459-8.307l1.852,1.233c0,0-0.419-4.967,1.346-8.538l1.728,1.486c0,0,0.666-6.334,4.108-7.49l0.484,1.51
			c0,0,2.347-3.92,5.839-6.002l1.603,1.74c0,0-0.14-3.876,4.343-5.47l0.941,1.417c0,0,0.491-5.152,4.594-5.982l1.224,2.509
			c0,0,7.081-6.576,8.699-6.811l2.641,1.303c0.255,1.16-0.118,11.049-0.118,11.049l2.735-0.554c1.838,3.761-1.954,7.283-1.954,7.283
			l1.696-0.113c1.46,4.528-1.703,6.773-1.703,6.773l2.359,0.214c0.468,4.037-1.218,8.283-1.218,8.283l1.494-0.532
			c1.176,3.437-3.449,7.816-3.449,7.816l2.231,0.469c-1.764,3.572-5.963,6.258-5.963,6.258l2.107,0.723
			c-2.347,3.918-5.101,7.001-5.101,7.001l2.231,0.469c-2.896,5.865-7.378,7.462-7.378,7.462l2.23,0.467
			c-6.011,7.188-8.823,7.068-8.823,7.068l1.854,1.23c-5.129,5.4-22.281,7.721-22.281,7.721L303.881,256.826z"/>
		
			<line fill="none" stroke="#010101" stroke-width="0.5" stroke-linecap="round" stroke-linejoin="round" x1="343.37" y1="178.992" x2="304.734" y2="257.248"/>
		<g>
			
				<line fill="none" stroke="#010101" stroke-width="0.5" stroke-linecap="round" stroke-linejoin="round" x1="334.184" y1="183.343" x2="335.541" y2="189.798"/>
			
				<line fill="none" stroke="#010101" stroke-width="0.5" stroke-linecap="round" stroke-linejoin="round" x1="328.355" y1="188.112" x2="332.076" y2="195.735"/>
			
				<line fill="none" stroke="#010101" stroke-width="0.5" stroke-linecap="round" stroke-linejoin="round" x1="323.316" y1="191.822" x2="328.396" y2="201.564"/>
			
				<line fill="none" stroke="#010101" stroke-width="0.5" stroke-linecap="round" stroke-linejoin="round" x1="315.389" y1="195.967" x2="323.744" y2="207.738"/>
			
				<line fill="none" stroke="#010101" stroke-width="0.5" stroke-linecap="round" stroke-linejoin="round" x1="311.411" y1="201.856" x2="321.783" y2="214.416"/>
			
				<line fill="none" stroke="#010101" stroke-width="0.5" stroke-linecap="round" stroke-linejoin="round" x1="307.507" y1="209.226" x2="317.94" y2="220.578"/>
			
				<line fill="none" stroke="#010101" stroke-width="0.5" stroke-linecap="round" stroke-linejoin="round" x1="303.498" y1="215.722" x2="312.497" y2="227.809"/>
			
				<line fill="none" stroke="#010101" stroke-width="0.5" stroke-linecap="round" stroke-linejoin="round" x1="300.308" y1="224.892" x2="310.861" y2="238.161"/>
			
				<line fill="none" stroke="#010101" stroke-width="0.5" stroke-linecap="round" stroke-linejoin="round" x1="298.405" y1="234.699" x2="306.934" y2="248.828"/>
		</g>
		<g>
			
				<line fill="none" stroke="#010101" stroke-width="0.5" stroke-linecap="round" stroke-linejoin="round" x1="346.434" y1="189.392" x2="340.483" y2="192.239"/>
			
				<line fill="none" stroke="#010101" stroke-width="0.5" stroke-linecap="round" stroke-linejoin="round" x1="346.192" y1="196.917" x2="337.878" y2="198.599"/>
			
				<line fill="none" stroke="#010101" stroke-width="0.5" stroke-linecap="round" stroke-linejoin="round" x1="346.312" y1="203.175" x2="335.488" y2="205.065"/>
			
				<line fill="none" stroke="#010101" stroke-width="0.5" stroke-linecap="round" stroke-linejoin="round" x1="347.84" y1="211.99" x2="333.415" y2="212.513"/>
			
				<line fill="none" stroke="#010101" stroke-width="0.5" stroke-linecap="round" stroke-linejoin="round" x1="345.582" y1="218.727" x2="329.306" y2="218.129"/>
			
				<line fill="none" stroke="#010101" stroke-width="0.5" stroke-linecap="round" stroke-linejoin="round" x1="342.106" y1="226.309" x2="326.751" y2="224.928"/>
			
				<line fill="none" stroke="#010101" stroke-width="0.5" stroke-linecap="round" stroke-linejoin="round" x1="339.388" y1="233.441" x2="324.318" y2="233.645"/>
			
				<line fill="none" stroke="#010101" stroke-width="0.5" stroke-linecap="round" stroke-linejoin="round" x1="334.048" y1="241.55" x2="317.094" y2="241.238"/>
			
				<line fill="none" stroke="#010101" stroke-width="0.5" stroke-linecap="round" stroke-linejoin="round" x1="327.418" y1="249.022" x2="311.016" y2="250.842"/>
		</g>
		<path fill="#FFFFFF" stroke="#010101" stroke-width="0.5" stroke-linecap="round" stroke-linejoin="round" d="M349.825,204.308
			c0,0-5.712,1.468-4.216,4.505c0,0-7.026,0.97-3.728,6.464c0,0,1.741,3.707,4.658,2.301c0,0-1.863,3.049,1.021,2.488
			c2.887-0.561,2.2-0.666,2.2-0.666"/>
		<path fill="#FFFFFF" stroke="#010101" stroke-width="0.5" stroke-miterlimit="10" d="M312.569,211.937
			c-0.182,1.281-0.979,2.415-1.484,3.606c1.49,1.157,3.36-1.294,4.059-2.547c-0.79,1.976-0.234,6.417,2.534,3.338
			c-0.473,1.991,0.594,2.263,2.219,3.125c-0.524,1.733-2.151,2.202-3.188,3.501c-0.612,0.764-0.919,1.86-1.434,2.665
			c-1.034-0.673-1.207-2.061-2.104-2.799c-0.634,0.53-2.516,2.979-3.348,2.918c-0.881-0.065-1.84-2.261-2.939-2.739
			c0.44-1.027,0.997-2.049,1.442-3.074c-0.168-0.152-0.357-0.195-0.531-0.34c0.345-1.28,2.729-8.033,4.159-6.412"/>
		<path fill="#FFFFFF" stroke="#010101" stroke-width="0.5" stroke-miterlimit="10" d="M332.156,196.787
			c1.666-1.486,1.842-3.427,4.156-4.645c0.19,0.578-0.287,2.767,0.179,3.141c1.323,1.057,3.501-1.479,4.521-2.318
			c-0.185,0.505-1.171,2.291-0.873,2.88c0.691,1.37,2.281,0.178,3.353,0.349c-0.706,2.025-2.413,3.439-3.375,5.351
			c-0.648,1.288-0.764,2.441-1.293,3.665c-2.306-0.806-3.838-2.46-4.327-4.835c-0.661,1.391-3.151,6.072-3.503,2.308
			c-0.216-2.321,1.587-4.62,1.881-6.827"/>
		<path fill="#FFFFFF" stroke="#010101" stroke-width="0.5" stroke-miterlimit="10" d="M329.363,229.205
			c-0.145,1.447-1.972,3.028-1.965,4.402c0.009,1.861,2.273,3.229,4.047,3.264c-2.016,0.621-4.025,1.815-4.69,3.893
			c0.928,0.877,2.095,1.312,3.217,1.888c-0.898,0.384-5.426,2.675-2.946,3.735c-0.695,1.693-5.412-0.784-6.559-1.77
			c-2.5-2.15-1.574-4.795-0.456-7.472c1.587-3.796,4.952-7.927,9.667-7.013"/>
	</g>
</g>
<g id="water">
	<g>
		<path fill="#55C2E2" stroke="#070707" stroke-width="0.5" stroke-miterlimit="10" d="M383.822,254.782
			c0,0-36.067,41.74-4.199,51.214c0,0,26.057-0.602,14.552-30.925C394.175,275.071,384.299,263.463,383.822,254.782z"/>
		<path fill="none" stroke="#3A97AD" stroke-miterlimit="10" d="M381.654,302.611c5.179,2.404,13.479-10.32,12.857-14.889"/>
		
			<ellipse transform="matrix(-0.6127 -0.7903 0.7903 -0.6127 373.0886 775.1809)" opacity="0.8" fill="#FFFFFF" enable-background="new    " cx="376.476" cy="296.178" rx="5.76" ry="4.839"/>
		<path opacity="0.8" fill="#FFFFFF" enable-background="new    " d="M373.194,273.073c0,0,4.689-11.616,10.3-14.557"/>
	</g>
	<g>
		<path fill="#55C2E2" stroke="#070707" stroke-width="0.5" stroke-miterlimit="10" d="M206.539,324.776
			c0,0-36.067,41.74-4.199,51.215c0,0,26.057-0.602,14.552-30.925C216.891,345.066,207.015,333.458,206.539,324.776z"/>
		<path fill="none" stroke="#3A97AD" stroke-miterlimit="10" d="M204.371,372.606c5.179,2.404,13.479-10.32,12.858-14.889"/>
		
			<ellipse transform="matrix(-0.6127 -0.7903 0.7903 -0.6127 31.8647 747.9531)" opacity="0.8" fill="#FFFFFF" enable-background="new    " cx="199.192" cy="366.169" rx="5.76" ry="4.839"/>
		<path opacity="0.8" fill="#FFFFFF" enable-background="new    " d="M195.911,343.068c0,0,4.69-11.616,10.3-14.558"/>
	</g>
	<g>
		<path fill="#55C2E2" stroke="#070707" stroke-width="0.5" stroke-miterlimit="10" d="M393.582,334.984
			c0,0-21.691,25.102-2.525,30.8c0,0,15.67-0.361,8.751-18.598C399.808,347.186,393.869,340.205,393.582,334.984z"/>
		<path fill="none" stroke="#3A97AD" stroke-miterlimit="10" d="M392.277,363.749c3.114,1.445,8.106-6.207,7.733-8.954"/>
		
			<ellipse transform="matrix(-0.6125 -0.7905 0.7905 -0.6125 340.1804 891.8607)" opacity="0.8" fill="#FFFFFF" enable-background="new    " cx="388.704" cy="362.545" rx="2.053" ry="1.725"/>
		<path opacity="0.8" fill="#FFFFFF" enable-background="new    " d="M387.189,345.985c0,0,2.821-6.986,6.194-8.755"/>
	</g>
	<g>
		<path fill="#55C2E2" stroke="#070707" stroke-width="0.5" stroke-miterlimit="10" d="M373.868,471.165
			c0,0-21.691,25.102-2.525,30.8c0,0,15.67-0.361,8.751-18.598C380.094,483.367,374.155,476.386,373.868,471.165z"/>
		<path fill="none" stroke="#3A97AD" stroke-miterlimit="10" d="M372.562,499.93c3.115,1.445,8.107-6.207,7.734-8.954"/>
		
			<ellipse transform="matrix(-0.6127 -0.7903 0.7903 -0.6127 200.8936 1095.9099)" opacity="0.8" fill="#FFFFFF" enable-background="new    " cx="368.988" cy="498.728" rx="2.053" ry="1.725"/>
		<path opacity="0.8" fill="#FFFFFF" enable-background="new    " d="M367.476,482.166c0,0,2.822-6.986,6.195-8.755"/>
	</g>
	<g>
		<path fill="#55C2E2" stroke="#070707" stroke-width="0.5" stroke-miterlimit="10" d="M241.647,472.548
			c0,0-13.547,15.678-1.577,19.236c0,0,9.787-0.228,5.466-11.615C245.536,480.169,241.827,475.808,241.647,472.548z"/>
		<path fill="none" stroke="#3A97AD" stroke-miterlimit="10" d="M240.833,490.513c1.946,0.902,5.063-3.877,4.83-5.592"/>
		
			<ellipse transform="matrix(-0.6123 -0.7906 0.7906 -0.6123 -1.6858 975.3256)" opacity="0.8" fill="#FFFFFF" enable-background="new    " cx="238.304" cy="488.076" rx="1.013" ry="0.852"/>
		<path opacity="0.8" fill="#FFFFFF" enable-background="new    " d="M237.655,479.417c0,0,1.763-4.363,3.869-5.467"/>
	</g>
	<g>
		<path fill="#55C2E2" stroke="#070707" stroke-width="0.5" stroke-miterlimit="10" d="M240.117,286.559
			c0,0-13.547,15.678-1.576,19.236c0,0,9.787-0.227,5.465-11.615C244.006,294.18,240.297,289.818,240.117,286.559z"/>
		<path fill="none" stroke="#3A97AD" stroke-miterlimit="10" d="M239.303,304.523c1.947,0.902,5.064-3.877,4.831-5.592"/>
		
			<ellipse transform="matrix(-0.6126 -0.7904 0.7904 -0.6126 143.0602 674.3008)" opacity="0.8" fill="#FFFFFF" enable-background="new    " cx="236.787" cy="302.089" rx="1.013" ry="0.851"/>
		<path opacity="0.8" fill="#FFFFFF" enable-background="new    " d="M236.125,293.428c0,0,1.764-4.363,3.869-5.467"/>
	</g>
</g>
</svg>
