<?xml version="1.0" encoding="utf-8"?>
<!-- Generator: Adobe Illustrator 17.1.0, SVG Export Plug-In . SVG Version: 6.00 Build 0)  -->
<!DOCTYPE svg PUBLIC "-//W3C//DTD SVG 1.1//EN" "http://www.w3.org/Graphics/SVG/1.1/DTD/svg11.dtd">
<svg version="1.1" id="Layer_1" xmlns="http://www.w3.org/2000/svg" xmlns:xlink="http://www.w3.org/1999/xlink" x="0px" y="0px"
	 viewBox="0 0 100 100" enable-background="new 0 0 100 100" xml:space="preserve">
<pattern  y="100" width="2.2" height="2.2" patternUnits="userSpaceOnUse" id="SVGID_2" viewBox="0 -2.2 2.2 2.2" overflow="visible">
	<g>
		<polygon fill="none" points="0,-2.2 2.2,-2.2 2.2,0 0,0 		"/>
		<path fill="#010101" d="M1.6-1.1c0-0.2-0.2-0.5-0.5-0.5C0.9-1.3,0.6-1.3,0.6-1.1s0.2,0.5,0.5,0.5S1.6-0.9,1.6-1.1z"/>
	</g>
</pattern>
<pattern  y="100" width="2.2" height="2.2" patternUnits="userSpaceOnUse" id="Unnamed_Pattern" viewBox="0 -2.2 2.2 2.2" overflow="visible">
	<g>
		<polygon fill="none" points="0,0 2.2,0 2.2,-2.2 0,-2.2 		"/>
		<g>
			<polygon fill="none" points="0,-2.2 2.2,-2.2 2.2,0 0,0 			"/>
			<g>
				<polygon fill="none" points="0,0 2.2,0 2.2,-2.2 0,-2.2 				"/>
				<g>
					<polygon fill="none" points="2.2,-2.2 0,-2.2 0,0 2.2,0 					"/>
					<g>
						<path fill="#010101" d="M1.3-1.1c0-0.1-0.1-0.2-0.2-0.2C1-1.2,0.9-1.2,0.9-1.1S1-0.9,1.1-0.9S1.3-1,1.3-1.1z"/>
					</g>
				</g>
			</g>
		</g>
	</g>
</pattern>
<pattern  y="100" width="2.2" height="2.2" patternUnits="userSpaceOnUse" id="Unnamed_Pattern_2" viewBox="0 -2.2 2.2 2.2" overflow="visible">
	<g>
		<polygon fill="none" points="0,0 2.2,0 2.2,-2.2 0,-2.2 		"/>
		<g>
			<polygon fill="none" points="0,-2.2 2.2,-2.2 2.2,0 0,0 			"/>
			<g>
				<polygon fill="none" points="0,0 2.2,0 2.2,-2.2 0,-2.2 				"/>
				<g>
					<polygon fill="none" points="2.2,-2.2 0,-2.2 0,0 2.2,0 					"/>
					<g>
						<path fill="#010101" d="M1.3-1.1c0-0.1-0.1-0.2-0.2-0.2C1-1.2,0.9-1.2,0.9-1.1S1-0.9,1.1-0.9S1.3-1,1.3-1.1z"/>
					</g>
				</g>
			</g>
		</g>
	</g>
</pattern>
<g id="legs">
	<path fill="#FFFFFF" stroke="#010101" stroke-miterlimit="10" d="M41.4,74.2c0,0-4.1,5.3-4.5,6.5c0,0,1.3,0.7,2.5,0.3l2-2.5V74.2z"
		/>
	<path fill="#FFFFFF" stroke="#010101" stroke-miterlimit="10" d="M37.6,81c0,0,0.7,15.2-0.4,17.3c0,0,1.7-1.4,1.2-5.8
		c0,0,0.6,0.8,0.7,1.6c0,0,0.3-1.8-0.9-3.2l0.4-9.8L37.6,81z"/>
	<path fill="#FFFFFF" stroke="#010101" stroke-miterlimit="10" d="M59.9,74.6c0,0,4.1,5.3,4.5,6.5c0,0-1.3,0.7-2.5,0.3l-2-2.5V74.6z
		"/>
	<path fill="#FFFFFF" stroke="#010101" stroke-miterlimit="10" d="M63.3,81.4c0,0-0.7,15.2,0.4,17.3c0,0-1.7-1.4-1.2-5.8
		c0,0-0.6,0.8-0.7,1.6c0,0-0.3-1.8,0.9-3.2l-0.4-9.8L63.3,81.4z"/>
	<path fill="#FFFFFF" stroke="#010101" stroke-miterlimit="10" d="M60.8,62.4c0,0,1.4,0.7,1.8,1.3c0.4,0.7,4.1,5.1,3.9,9.9
		c0,0,0.7-0.7,0.5-1.1c0,0,0.1,0.7-0.3,2.4c-0.4,1.7-0.1,2.9-1,3.9c0,0,0.8-5.5-0.3-7.7c-1.1-2.1-0.7-3.9-4.3-7.9L60.8,62.4z"/>
	<path fill="#FFFFFF" stroke="#010101" stroke-miterlimit="10" d="M59.3,64.4c2.5,0.1,3.1-1.9,3.1-1.9c-1-0.9-2.7-0.7-2.7-0.7
		L59.3,64.4z"/>
	<path fill="#FFFFFF" stroke="#010101" stroke-miterlimit="10" d="M40.6,62.1c0,0-1.4,0.7-1.8,1.3c-0.4,0.7-4.1,5.1-3.9,9.9
		c0,0-0.7-0.7-0.5-1.1c0,0-0.1,0.7,0.3,2.4s0.1,2.9,1,3.9c0,0-0.8-5.5,0.3-7.7c1.1-2.1,0.7-3.9,4.3-7.9L40.6,62.1z"/>
	<path fill="#FFFFFF" stroke="#010101" stroke-miterlimit="10" d="M42.2,64.1c-2.5,0.1-3.1-1.9-3.1-1.9c1-0.9,2.7-0.7,2.7-0.7
		L42.2,64.1z"/>
	<path fill="none" stroke="#010101" stroke-miterlimit="10" d="M57.3,50.9l0.5-1c0.1,0,4.9-0.6,5.5-4l0.2-0.8c0.6-3.3,1.1-6.1,3.2-7
		c1.9-0.8,4.9-2.9,4.9-2.9l-0.8,1.4c-0.1,0.1-1.8,1.4-3.9,2.2c-1.7,0.7-2.2,3.3-2.7,6.4l0.6-0.2C64.1,49,57.5,50.9,57.3,50.9z"/>
	<path fill="none" stroke="#010101" stroke-miterlimit="10" d="M43.7,50.1l-0.5-1c-0.1,0-4.9-0.6-5.5-4l-0.2-0.8
		c-0.6-3.3-1.1-6.1-3.2-7c-1.9-0.8-4.9-2.9-4.9-2.9l0.8,1.4c0.1,0.1,1.8,1.4,3.9,2.2c1.7,0.7,2.2,3.3,2.7,6.4l-0.6-0.2
		C36.9,48.1,43.4,50.1,43.7,50.1z"/>
</g>
<g id="basebody">
	<path fill="#FFFFFF" stroke="#010101" stroke-miterlimit="10" d="M47.1,85.2c0,0,3.6,2.3,7,0s-2.2-14.6-2.2-14.6l-4-2.3L47.1,85.2z
		"/>
	<path fill="#FFFFFF" stroke="#010101" stroke-miterlimit="10" d="M45.9,30.8c0,0,3-5.4,4.8-5.4s5.2,6.5,5.2,6.5L45.9,30.8z"/>
	<path fill="#FFFFFF" stroke="#010101" stroke-miterlimit="10" d="M53.3,47.1c4.6-2,4.8,1.9,4.8,1.9s-0.7-0.5,2.6,17.3
		s-8.2,19.4-8.2,19.4C50.2,80.9,50.6,49,50.6,49L53.3,47.1z"/>
	<path fill="#FFFFFF" stroke="#010101" stroke-miterlimit="10" d="M48,47.1c-4.6-2-4.8,1.9-4.8,1.9s0.7-0.5-2.6,17.3
		c-3.2,17.9,8.2,19.4,8.2,19.4c2.3-4.8,1.9-36.7,1.9-36.7L48,47.1z"/>
	<path fill="#FFFFFF" stroke="#010101" stroke-miterlimit="10" d="M54,46.8c0,0,3.7-5.7,4-8.1s-2.4-9.6-5.6-10h-3.5
		c-3.2,0.4-5.9,7.5-5.6,10c0.3,2.4,4,8.1,4,8.1l3.6,2.2L54,46.8z"/>
	<g>
		<pattern  id="SVGID_1_" xlink:href="#Unnamed_Pattern" patternTransform="matrix(0.2528 0 0 -0.2528 -18279.0137 -14354.0342)">
		</pattern>
		<path fill="url(#SVGID_1_)" d="M50.7,49.4"/>
		<g>
			<path fill="none" stroke="#010101" stroke-miterlimit="10" d="M50.7,49.4"/>
		</g>
	</g>
</g>
<g id="bodycolor">
	<path fill="#FFFFFF" stroke="#010101" stroke-miterlimit="10" d="M47.2,85.2c0,0,3.6,2.3,7,0S52,70.6,52,70.6l-4-2.3L47.2,85.2z"/>
	<path fill="#6CBE45" stroke="#010101" stroke-miterlimit="10" d="M46,30.8c0,0,3-5.4,4.8-5.4s5.2,6.5,5.2,6.5L46,30.8z"/>
	<path fill="#6CBE45" stroke="#010101" stroke-miterlimit="10" d="M53.4,47.1c4.6-2,4.8,1.9,4.8,1.9s-0.7-0.5,2.6,17.3
		c3.2,17.9-8.2,19.4-8.2,19.4C50.3,80.9,50.7,49,50.7,49L53.4,47.1z"/>
	<path fill="#6CBE45" stroke="#010101" stroke-miterlimit="10" d="M48.1,47.1c-4.6-2-4.8,1.9-4.8,1.9s0.7-0.5-2.6,17.3
		c-3.2,17.9,8.2,19.4,8.2,19.4c2.3-4.8,1.9-36.7,1.9-36.7L48.1,47.1z"/>
	<path fill="#D0DD28" stroke="#010101" stroke-miterlimit="10" d="M54.1,46.8c0,0,3.7-5.7,4-8.1s-2.4-9.6-5.6-10H49
		c-3.2,0.4-5.9,7.5-5.6,10c0.3,2.4,4,8.1,4,8.1L51,49L54.1,46.8z"/>
	<g>
		<pattern  id="SVGID_2_" xlink:href="#Unnamed_Pattern_2" patternTransform="matrix(0.2528 0 0 -0.2528 -18279.0137 -14354.0342)">
		</pattern>
		<path fill="url(#SVGID_2_)" d="M50.8,49.4"/>
		<g>
			<path fill="none" stroke="#010101" stroke-miterlimit="10" d="M50.8,49.4"/>
		</g>
	</g>
</g>
<g id="eyes">
	<path fill="#FF9900" stroke="#010101" stroke-width="0.75" stroke-miterlimit="10" d="M43.9,33.2l4.3-6.4
		C48.2,26.8,39.8,26.6,43.9,33.2z"/>
	<path fill="#FF9900" stroke="#010101" stroke-width="0.75" stroke-miterlimit="10" d="M57.4,33.1l-4.4-6.3
		C52.9,26.8,61.1,26.5,57.4,33.1z"/>
	<path fill="#FF9900" stroke="#010101" stroke-width="0.75" stroke-miterlimit="10" d="M32,39.7"/>
</g>
<g id="antennae">
	<path fill="none" stroke="#010101" stroke-miterlimit="10" d="M53.1,27.3c0,0,0.6-2.8,3.3-2.7c2.7,0.1,8.4-0.7,8.6-8.1"/>
	<path fill="none" stroke="#010101" stroke-miterlimit="10" d="M48.3,27.3c0,0-0.6-2.8-3.3-2.7c-2.7,0.1-8.4-0.7-8.6-8.1"/>
</g>
<g id="markings">
	<path fill="#010101" d="M56.2,59c-3.5,0-2.7,10.9-2.5,13.4c0.2,1.7,0.5,4.6,2.2,5.5c1.7,1.1,2.5,0,2.3-2c-0.8,0.5-1.4,0.2-2.3,0.3
		c-0.5-2.3-0.2-5-0.3-7.3c-0.2-2.5-0.3-5-0.1-7.6c0.6,0.2,1.4-0.2,2,0c0.2-0.6,0.2-1.6,0.1-2.2"/>
	<path fill="#010101" d="M44.7,59c3.5,0,2.7,10.9,2.5,13.4C47,74.1,46.6,77,45,78c-1.7,1.1-2.5,0-2.3-2c0.8,0.5,1.4,0.2,2.3,0.3
		c0.5-2.3,0.2-5,0.3-7.3c0.2-2.5,0.3-5,0.1-7.6c-0.6,0.2-1.4-0.2-2,0c-0.2-0.6-0.2-1.6-0.1-2.2"/>
</g>
<g id="dots">
	<path fill="url(#SVGID_2)" stroke="#010101" stroke-miterlimit="10" d="M53.2,47.1c4.6-2,4.8,1.9,4.8,1.9s-0.7-0.5,2.6,17.3
		c3.2,17.9-8.2,19.4-8.2,19.4C50.1,80.9,50.5,49,50.5,49L53.2,47.1z"/>
	<path fill="url(#SVGID_2)" stroke="#010101" stroke-miterlimit="10" d="M47.9,47.1c-4.6-2-4.8,1.9-4.8,1.9s0.7-0.5-2.6,17.3
		c-3.3,17.9,8.2,19.4,8.2,19.4C51,80.9,50.6,49,50.6,49L47.9,47.1z"/>
</g>
<g id="fur">
	<g>
		<g>
			<path fill="none" stroke="#0000FF" stroke-miterlimit="10" d="M5.6,89.3"/>
		</g>
	</g>
	<g>
		<g>
			<g>
				<g>
					<path fill="none" stroke="#0000FF" stroke-miterlimit="10" d="M55.8,44.9c0,0,0.2,0.3,0.2,0.6c0.1,0.3,0.2,0.6,0.2,0.6
						s0.2-0.3,0.4-0.5c0.3-0.2,0.6-0.4,0.6-0.4"/>
				</g>
				<g>
					<path fill="none" stroke="#0000FF" stroke-miterlimit="10" d="M57.4,45.4c0,0,0,0.3-0.1,0.6s-0.2,0.6-0.2,0.6s0.3-0.1,0.6-0.2
						c0.3-0.1,0.7-0.1,0.7-0.1"/>
				</g>
				<g>
					<path fill="none" stroke="#0000FF" stroke-miterlimit="10" d="M58.6,46.6c0,0-0.2,0.3-0.4,0.5c-0.2,0.3-0.4,0.5-0.4,0.5
						s0.3,0,0.6,0.1s0.6,0.2,0.6,0.2"/>
				</g>
				<g>
					<path fill="none" stroke="#0000FF" stroke-miterlimit="10" d="M59.2,48.1c0,0-0.3,0.2-0.6,0.3S58,48.7,58,48.7s0.3,0.2,0.6,0.3
						c0.1,0.1,0.2,0.1,0.2,0.1c0.1,0,0.1,0.1,0.2,0.1c0.1,0.1,0.2,0.1,0.2,0.1"/>
				</g>
				<g>
					<path fill="none" stroke="#0000FF" stroke-miterlimit="10" d="M59.2,49.6c0,0-0.3,0.2-0.6,0.3c-0.3,0.2-0.5,0.3-0.5,0.3
						s0.3,0.1,0.6,0.3c0.3,0.1,0.6,0.3,0.6,0.3"/>
				</g>
				<g>
					<polyline fill="none" stroke="#0000FF" stroke-miterlimit="10" points="59.4,50.9 58.3,51.5 59.5,52.1 					"/>
				</g>
				<g>
					<polyline fill="none" stroke="#0000FF" stroke-miterlimit="10" points="59.6,52.3 58.5,52.9 59.7,53.4 					"/>
				</g>
				<g>
					<polyline fill="none" stroke="#0000FF" stroke-miterlimit="10" points="59.7,53.6 58.7,54.3 59.9,54.8 					"/>
				</g>
				<g>
					<polyline fill="none" stroke="#0000FF" stroke-miterlimit="10" points="59.9,55 58.9,55.7 60.1,56.2 					"/>
				</g>
				<g>
					<polyline fill="none" stroke="#0000FF" stroke-miterlimit="10" points="60.2,56.4 59.1,57 60.4,57.5 					"/>
				</g>
				<g>
					<polyline fill="none" stroke="#0000FF" stroke-miterlimit="10" points="60.4,57.7 59.3,58.4 60.6,58.9 					"/>
				</g>
				<g>
					<polyline fill="none" stroke="#0000FF" stroke-miterlimit="10" points="60.6,59.1 59.6,59.8 60.8,60.3 					"/>
				</g>
				<g>
					<polyline fill="none" stroke="#0000FF" stroke-miterlimit="10" points="60.9,60.5 59.8,61.1 61,61.6 					"/>
				</g>
				<g>
					<polyline fill="none" stroke="#0000FF" stroke-miterlimit="10" points="61.1,61.8 60.1,62.5 61.3,63 					"/>
				</g>
				<g>
					<polyline fill="none" stroke="#0000FF" stroke-miterlimit="10" points="61.3,63.2 60.3,63.9 61.5,64.3 					"/>
				</g>
				<g>
					<polyline fill="none" stroke="#0000FF" stroke-miterlimit="10" points="61.6,64.6 60.5,65.2 61.8,65.7 					"/>
				</g>
				<g>
					<path fill="none" stroke="#0000FF" stroke-miterlimit="10" d="M61.8,65.9c0,0-0.3,0.2-0.5,0.4c-0.3,0.2-0.5,0.3-0.5,0.3
						s0.3,0.1,0.6,0.2s0.6,0.3,0.6,0.3"/>
				</g>
				<g>
					<path fill="none" stroke="#0000FF" stroke-miterlimit="10" d="M62,67.3c0,0-0.3,0.2-0.5,0.3C61.2,67.8,61,68,61,68
						s0.3,0.1,0.6,0.3c0.3,0.1,0.6,0.3,0.6,0.3"/>
				</g>
				<g>
					<path fill="none" stroke="#0000FF" stroke-miterlimit="10" d="M62.2,68.7c0,0-0.3,0.2-0.5,0.3c-0.3,0.2-0.6,0.3-0.6,0.3
						s0.3,0.2,0.6,0.3c0.3,0.2,0.6,0.3,0.6,0.3"/>
				</g>
				<g>
					<path fill="none" stroke="#0000FF" stroke-miterlimit="10" d="M62.3,70.1c0,0-0.3,0.2-0.6,0.3c-0.3,0.1-0.6,0.3-0.6,0.3
						s0.3,0.2,0.6,0.3c0.3,0.2,0.6,0.3,0.6,0.3"/>
				</g>
				<g>
					<path fill="none" stroke="#0000FF" stroke-miterlimit="10" d="M62.4,71.5c0,0-0.3,0.1-0.6,0.3c-0.3,0.1-0.6,0.3-0.6,0.3
						s0.3,0.2,0.6,0.3c0.3,0.2,0.6,0.4,0.6,0.4"/>
				</g>
				<g>
					<path fill="none" stroke="#0000FF" stroke-miterlimit="10" d="M62.3,73c0,0-0.3,0.1-0.6,0.2s-0.6,0.2-0.6,0.2s0.3,0.2,0.5,0.4
						c0.3,0.2,0.5,0.4,0.5,0.4"/>
				</g>
				<g>
					<path fill="none" stroke="#0000FF" stroke-miterlimit="10" d="M62.2,74.4c0,0-0.3,0.1-0.6,0.2S61,74.8,61,74.8s0.3,0.2,0.5,0.4
						c0.3,0.2,0.5,0.4,0.5,0.4"/>
				</g>
				<g>
					<path fill="none" stroke="#0000FF" stroke-miterlimit="10" d="M62,75.8c0,0-0.3,0.1-0.6,0.2s-0.6,0.1-0.6,0.1s0.3,0.2,0.5,0.5
						c0.2,0.2,0.5,0.5,0.5,0.5"/>
				</g>
				<g>
					<path fill="none" stroke="#0000FF" stroke-miterlimit="10" d="M61.7,77.2c0,0-0.3,0.1-0.6,0.1s-0.6,0.1-0.6,0.1
						s0.2,0.2,0.4,0.5s0.4,0.5,0.4,0.5"/>
				</g>
				<g>
					<path fill="none" stroke="#0000FF" stroke-miterlimit="10" d="M61.2,78.6c0,0-0.3,0-0.6,0s-0.6,0-0.6,0s0.2,0.3,0.4,0.5
						c0.2,0.3,0.4,0.6,0.4,0.6"/>
				</g>
				<g>
					<path fill="none" stroke="#0000FF" stroke-miterlimit="10" d="M60.7,79.9c0,0-0.3,0-0.6,0s-0.6-0.1-0.6-0.1s0.2,0.3,0.3,0.6
						c0.2,0.3,0.3,0.6,0.3,0.6"/>
				</g>
				<g>
					<path fill="none" stroke="#0000FF" stroke-miterlimit="10" d="M59.9,81.2c0,0-0.3-0.1-0.6-0.1C59,81,58.7,81,58.7,81
						s0.2,0.3,0.3,0.6c0.1,0.3,0.2,0.6,0.2,0.6"/>
				</g>
				<g>
					<path fill="none" stroke="#0000FF" stroke-miterlimit="10" d="M59,82.4c0,0-0.3-0.1-0.6-0.2S57.8,82,57.8,82s0.1,0.3,0.2,0.6
						c0.1,0.3,0.2,0.7,0.2,0.7"/>
				</g>
				<g>
					<path fill="none" stroke="#0000FF" stroke-miterlimit="10" d="M58,83.4c0,0-0.3-0.1-0.6-0.3c-0.3-0.1-0.6-0.3-0.6-0.3
						s0.1,0.3,0.1,0.7c0.1,0.3,0.1,0.7,0.1,0.7"/>
				</g>
				<g>
					<path fill="none" stroke="#0000FF" stroke-miterlimit="10" d="M56.9,84.4c0,0-0.3-0.2-0.5-0.3c-0.3-0.2-0.5-0.3-0.5-0.3
						s0,0.3,0,0.7c0,0.3,0,0.7,0,0.7"/>
				</g>
				<g>
					<path fill="none" stroke="#0000FF" stroke-miterlimit="10" d="M55.7,85.1c0,0-0.3-0.2-0.5-0.4c-0.3-0.2-0.5-0.4-0.5-0.4
						s0,0.3-0.1,0.7c-0.1,0.3-0.1,0.7-0.1,0.7"/>
				</g>
				<g>
					<path fill="none" stroke="#0000FF" stroke-miterlimit="10" d="M54.3,85.7c0,0-0.2-0.2-0.4-0.5c-0.2-0.2-0.4-0.5-0.4-0.5
						s-0.1,0.3-0.2,0.6c-0.1,0.3-0.2,0.6-0.2,0.6"/>
				</g>
				<g>
					<polyline fill="none" stroke="#0000FF" stroke-miterlimit="10" points="51.5,85.4 52.5,85 51.6,85.6 					"/>
				</g>
			</g>
		</g>
	</g>
	<g>
		<g>
			<path fill="none" stroke="#0000FF" stroke-miterlimit="10" d="M50.7,48.2"/>
		</g>
	</g>
	<g>
		<g>
			<g>
				<g>
					<polyline fill="none" stroke="#0000FF" stroke-miterlimit="10" points="49.4,85.6 48.4,85 49.5,85.4 					"/>
				</g>
				<g>
					<path fill="none" stroke="#0000FF" stroke-miterlimit="10" d="M47.9,86.1c0,0-0.1-0.3-0.1-0.6c-0.1-0.3-0.1-0.6-0.1-0.6
						s-0.2,0.2-0.5,0.5c-0.3,0.2-0.5,0.4-0.5,0.4"/>
				</g>
				<g>
					<path fill="none" stroke="#0000FF" stroke-miterlimit="10" d="M46.5,85.7c0,0,0-0.3,0-0.6c0-0.3,0-0.6,0-0.6s-0.3,0.2-0.5,0.4
						c-0.3,0.2-0.6,0.4-0.6,0.4"/>
				</g>
				<g>
					<path fill="none" stroke="#0000FF" stroke-miterlimit="10" d="M45.1,85c0,0,0-0.3,0.1-0.6c0-0.3,0.1-0.6,0.1-0.6
						S45,84,44.7,84.1c-0.3,0.2-0.6,0.3-0.6,0.3"/>
				</g>
				<g>
					<path fill="none" stroke="#0000FF" stroke-miterlimit="10" d="M43.9,84.2c0,0,0.1-0.3,0.2-0.6c0.1-0.3,0.2-0.6,0.2-0.6
						s-0.3,0.1-0.6,0.2s-0.6,0.2-0.6,0.2"/>
				</g>
				<g>
					<path fill="none" stroke="#0000FF" stroke-miterlimit="10" d="M42.8,83.3c0,0,0.1-0.3,0.2-0.6c0.1-0.3,0.2-0.6,0.2-0.6
						s-0.3,0.1-0.6,0.2s-0.7,0.1-0.7,0.1"/>
				</g>
				<g>
					<path fill="none" stroke="#0000FF" stroke-miterlimit="10" d="M41.8,82.2c0,0,0.1-0.3,0.3-0.6s0.3-0.5,0.3-0.5
						s-0.3,0.1-0.7,0.1c-0.3,0-0.7,0-0.7,0"/>
				</g>
				<g>
					<path fill="none" stroke="#0000FF" stroke-miterlimit="10" d="M40.9,81c0,0,0.2-0.3,0.4-0.5s0.4-0.5,0.4-0.5s-0.3,0-0.7,0
						c-0.3,0-0.7-0.1-0.7-0.1"/>
				</g>
				<g>
					<path fill="none" stroke="#0000FF" stroke-miterlimit="10" d="M40.2,79.7c0,0,0.2-0.3,0.4-0.5s0.4-0.5,0.4-0.5s-0.3,0-0.7-0.1
						c-0.3-0.1-0.7-0.1-0.7-0.1"/>
				</g>
				<g>
					<path fill="none" stroke="#0000FF" stroke-miterlimit="10" d="M39.7,78.4c0,0,0.2-0.2,0.5-0.4s0.5-0.4,0.5-0.4
						s-0.3-0.1-0.6-0.2s-0.6-0.2-0.6-0.2"/>
				</g>
				<g>
					<path fill="none" stroke="#0000FF" stroke-miterlimit="10" d="M39.3,77c0,0,0.3-0.2,0.5-0.4c0.3-0.2,0.5-0.4,0.5-0.4
						S40,76.1,39.7,76s-0.6-0.2-0.6-0.2"/>
				</g>
				<g>
					<path fill="none" stroke="#0000FF" stroke-miterlimit="10" d="M39,75.6c0,0,0.3-0.2,0.5-0.4c0.3-0.2,0.5-0.3,0.5-0.3
						s-0.3-0.1-0.6-0.3c-0.3-0.1-0.6-0.3-0.6-0.3"/>
				</g>
				<g>
					<path fill="none" stroke="#0000FF" stroke-miterlimit="10" d="M38.8,74.2c0,0,0.3-0.2,0.5-0.3c0.3-0.2,0.6-0.3,0.6-0.3
						s-0.3-0.2-0.6-0.3C39,73.1,38.7,73,38.7,73"/>
				</g>
				<g>
					<path fill="none" stroke="#0000FF" stroke-miterlimit="10" d="M38.7,72.7c0,0,0.3-0.1,0.6-0.3c0.3-0.1,0.6-0.3,0.6-0.3
						s-0.3-0.2-0.6-0.3c-0.3-0.2-0.6-0.3-0.6-0.3"/>
				</g>
				<g>
					<path fill="none" stroke="#0000FF" stroke-miterlimit="10" d="M38.6,71.3c0,0,0.3-0.1,0.6-0.3c0.3-0.1,0.6-0.2,0.6-0.2
						s-0.3-0.2-0.6-0.4c-0.3-0.2-0.6-0.4-0.6-0.4"/>
				</g>
				<g>
					<path fill="none" stroke="#0000FF" stroke-miterlimit="10" d="M38.7,69.9c0,0,0.3-0.1,0.6-0.2s0.6-0.2,0.6-0.2
						s-0.3-0.2-0.5-0.4c-0.3-0.2-0.5-0.4-0.5-0.4"/>
				</g>
				<g>
					<path fill="none" stroke="#0000FF" stroke-miterlimit="10" d="M38.8,68.5c0,0,0.3-0.1,0.6-0.2s0.6-0.2,0.6-0.2
						s-0.3-0.2-0.5-0.4c-0.3-0.2-0.5-0.4-0.5-0.4"/>
				</g>
				<g>
					<path fill="none" stroke="#0000FF" stroke-miterlimit="10" d="M39,67.1c0,0,0.3-0.1,0.6-0.2s0.6-0.2,0.6-0.2s-0.3-0.2-0.5-0.4
						c-0.3-0.2-0.5-0.4-0.5-0.4"/>
				</g>
				<g>
					<polyline fill="none" stroke="#0000FF" stroke-miterlimit="10" points="39.2,65.7 40.4,65.4 39.4,64.6 					"/>
				</g>
				<g>
					<polyline fill="none" stroke="#0000FF" stroke-miterlimit="10" points="39.5,64.3 40.7,64 39.7,63.2 					"/>
				</g>
				<g>
					<polyline fill="none" stroke="#0000FF" stroke-miterlimit="10" points="39.7,63 40.9,62.7 39.9,61.8 					"/>
				</g>
				<g>
					<polyline fill="none" stroke="#0000FF" stroke-miterlimit="10" points="39.9,61.6 41.2,61.3 40.2,60.5 					"/>
				</g>
				<g>
					<polyline fill="none" stroke="#0000FF" stroke-miterlimit="10" points="40.2,60.2 41.4,59.9 40.4,59.1 					"/>
				</g>
				<g>
					<polyline fill="none" stroke="#0000FF" stroke-miterlimit="10" points="40.4,58.9 41.6,58.6 40.6,57.7 					"/>
				</g>
				<g>
					<polyline fill="none" stroke="#0000FF" stroke-miterlimit="10" points="40.6,57.5 41.8,57.2 40.8,56.4 					"/>
				</g>
				<g>
					<polyline fill="none" stroke="#0000FF" stroke-miterlimit="10" points="40.9,56.1 42,55.8 41,55 					"/>
				</g>
				<g>
					<polyline fill="none" stroke="#0000FF" stroke-miterlimit="10" points="41.1,54.8 42.3,54.5 41.2,53.6 					"/>
				</g>
				<g>
					<polyline fill="none" stroke="#0000FF" stroke-miterlimit="10" points="41.3,53.4 42.5,53.1 41.4,52.3 					"/>
				</g>
				<g>
					<polyline fill="none" stroke="#0000FF" stroke-miterlimit="10" points="41.5,52 42.7,51.7 41.6,50.9 					"/>
				</g>
				<g>
					<path fill="none" stroke="#0000FF" stroke-miterlimit="10" d="M41.6,50.7c0,0,0.3-0.1,0.6-0.2c0.3-0.1,0.6-0.2,0.6-0.2
						s-0.3-0.2-0.5-0.4c-0.3-0.2-0.5-0.4-0.5-0.4"/>
				</g>
				<g>
					<path fill="none" stroke="#0000FF" stroke-miterlimit="10" d="M41.8,49.3c0,0,0.3-0.1,0.6-0.2c0.3-0.1,0.6-0.3,0.6-0.3
						s-0.3-0.2-0.6-0.3c-0.1-0.1-0.2-0.1-0.2-0.1c-0.1-0.1-0.1-0.1-0.2-0.2c-0.1-0.1-0.2-0.2-0.2-0.2"/>
				</g>
				<g>
					<path fill="none" stroke="#0000FF" stroke-miterlimit="10" d="M41.8,47.9c0,0,0.3-0.1,0.6-0.1c0.3-0.1,0.6-0.1,0.6-0.1
						s-0.2-0.2-0.4-0.5s-0.3-0.6-0.3-0.6"/>
				</g>
				<g>
					<path fill="none" stroke="#0000FF" stroke-miterlimit="10" d="M42.5,46.3c0,0,0.3,0.1,0.6,0.1c0.3,0.1,0.6,0.2,0.6,0.2
						s-0.1-0.3-0.1-0.6s0-0.7,0-0.7"/>
				</g>
				<g>
					<path fill="none" stroke="#0000FF" stroke-miterlimit="10" d="M43.8,45.3c0,0,0.3,0.2,0.5,0.4s0.4,0.5,0.4,0.5s0.1-0.3,0.2-0.6
						s0.3-0.6,0.3-0.6"/>
				</g>
			</g>
		</g>
	</g>
	<g>
		<g>
			<g>
				<g>
					<polyline fill="none" stroke="#0000FF" stroke-miterlimit="10" points="49.9,49.9 50.1,48.7 48.9,49.4 					"/>
				</g>
				<g>
					<polyline fill="none" stroke="#0000FF" stroke-miterlimit="10" points="48.7,49.3 48.8,48 47.7,48.7 					"/>
				</g>
				<g>
					<polyline fill="none" stroke="#0000FF" stroke-miterlimit="10" points="47.5,48.6 47.6,47.3 46.5,48 					"/>
				</g>
				<g>
					<path fill="none" stroke="#0000FF" stroke-miterlimit="10" d="M46.1,47.8c0,0,0-0.1,0.1-0.2v-0.1c0,0,0-0.1,0.1-0.1
						s0.1-0.1,0.1-0.2c0.2-0.3,0.3-0.5,0.3-0.5s-0.3,0-0.7,0.1c-0.3,0-0.7,0.1-0.7,0.1"/>
				</g>
				<g>
					<path fill="none" stroke="#0000FF" stroke-miterlimit="10" d="M45.3,46.5l0.7-1.1c0,0-0.3,0-0.7,0s-0.7,0-0.7,0"/>
				</g>
				<g>
					<path fill="none" stroke="#0000FF" stroke-miterlimit="10" d="M44.5,45.3c0,0,0.2-0.3,0.4-0.5s0.4-0.5,0.4-0.5s-0.3,0-0.7,0
						s-0.7,0-0.7,0"/>
				</g>
				<g>
					<path fill="none" stroke="#0000FF" stroke-miterlimit="10" d="M43.8,44.1c0,0,0.2-0.3,0.4-0.5c0.2-0.3,0.4-0.5,0.4-0.5
						s-0.3,0-0.7,0c-0.3,0-0.7,0-0.7,0"/>
				</g>
				<g>
					<path fill="none" stroke="#0000FF" stroke-miterlimit="10" d="M43.1,42.9c0,0,0.2-0.3,0.4-0.5c0.2-0.3,0.4-0.5,0.4-0.5
						s-0.3,0-0.7-0.1c-0.3,0-0.7-0.1-0.7-0.1"/>
				</g>
				<g>
					<path fill="none" stroke="#0000FF" stroke-miterlimit="10" d="M42.4,41.5c0,0,0.2-0.2,0.4-0.5c0.2-0.2,0.4-0.4,0.4-0.4
						s-0.3-0.1-0.7-0.1c-0.3-0.1-0.7-0.2-0.7-0.2"/>
				</g>
				<g>
					<path fill="none" stroke="#0000FF" stroke-miterlimit="10" d="M41.9,40.1c0,0,0.3-0.2,0.5-0.4c0.3-0.2,0.5-0.3,0.5-0.3
						s-0.1,0-0.2-0.1c-0.1-0.1-0.3-0.1-0.4-0.2c-0.3-0.2-0.6-0.4-0.6-0.4"/>
				</g>
				<g>
					<path fill="none" stroke="#0000FF" stroke-miterlimit="10" d="M41.8,38.5c0,0,0.3-0.1,0.6-0.2c0.3-0.1,0.6-0.2,0.6-0.2
						s-0.3-0.2-0.5-0.4S42,37.2,42,37.2"/>
				</g>
				<g>
					<path fill="none" stroke="#0000FF" stroke-miterlimit="10" d="M42.1,37c0,0,0.3-0.1,0.6-0.1s0.6-0.1,0.6-0.1s-0.2-0.2-0.4-0.5
						s-0.4-0.5-0.4-0.5"/>
				</g>
				<g>
					<path fill="none" stroke="#0000FF" stroke-miterlimit="10" d="M42.6,35.6c0,0,0.3,0,0.6,0s0.6,0,0.6,0s-0.2-0.3-0.4-0.5
						S43,34.5,43,34.5"/>
				</g>
				<g>
					<path fill="none" stroke="#0000FF" stroke-miterlimit="10" d="M43.2,34.3c0,0,0.3,0,0.6,0s0.6,0,0.6,0S44.2,34,44,33.7
						s-0.3-0.6-0.3-0.6"/>
				</g>
				<g>
					<path fill="none" stroke="#0000FF" stroke-miterlimit="10" d="M43.8,33c0,0,0.3,0,0.6,0.1s0.6,0.1,0.6,0.1s-0.2-0.3-0.3-0.6
						c-0.2-0.3-0.3-0.6-0.3-0.6"/>
				</g>
				<g>
					<path fill="none" stroke="#0000FF" stroke-miterlimit="10" d="M44.7,31.8c0,0,0.3,0.1,0.6,0.2c0.3,0.1,0.6,0.2,0.6,0.2
						s-0.1-0.3-0.2-0.6c-0.1-0.3-0.2-0.7-0.2-0.7"/>
				</g>
				<g>
					<path fill="none" stroke="#0000FF" stroke-miterlimit="10" d="M45.7,30.6c0,0,0.3,0.1,0.6,0.2s0.6,0.3,0.6,0.3
						s-0.1-0.3-0.1-0.7c0-0.3,0-0.7,0-0.7"/>
				</g>
				<g>
					<path fill="none" stroke="#0000FF" stroke-miterlimit="10" d="M46.9,29.7c0,0,0.3,0.2,0.5,0.4c0.3,0.2,0.5,0.4,0.5,0.4
						s0-0.3,0.1-0.7c0.1-0.3,0.2-0.7,0.2-0.7"/>
				</g>
				<g>
					<path fill="none" stroke="#0000FF" stroke-miterlimit="10" d="M48.4,29.1c0,0,0.1,0.1,0.1,0.2c0.1,0.1,0.2,0.2,0.3,0.4
						c0.1,0.1,0.2,0.3,0.2,0.4c0.1,0.1,0.1,0.2,0.1,0.2s0.2-0.3,0.3-0.6c0.2-0.3,0.3-0.6,0.3-0.6"/>
				</g>
				<g>
					<path fill="none" stroke="#0000FF" stroke-miterlimit="10" d="M49.9,29l0.6,1.1c0,0,0.2-0.3,0.3-0.6c0.2-0.3,0.3-0.6,0.3-0.6"
						/>
				</g>
				<g>
					<path fill="none" stroke="#0000FF" stroke-miterlimit="10" d="M51.3,29l0.5,1.1c0,0,0.2-0.3,0.3-0.6c0.1-0.2,0.2-0.3,0.2-0.4
						c0.1-0.1,0.1-0.1,0.2-0.1l0.1-0.1"/>
				</g>
				<g>
					<path fill="none" stroke="#0000FF" stroke-miterlimit="10" d="M52.8,29.1c0,0,0.1,0.3,0.2,0.6c0.1,0.3,0.1,0.6,0.1,0.6
						s0.2-0.2,0.5-0.4c0.3-0.2,0.6-0.4,0.6-0.4"/>
				</g>
				<g>
					<path fill="none" stroke="#0000FF" stroke-miterlimit="10" d="M54.4,29.7c0,0,0,0.3-0.1,0.6c-0.1,0.3-0.1,0.6-0.1,0.6
						s0.3-0.2,0.6-0.3c0.3-0.1,0.6-0.2,0.6-0.2"/>
				</g>
				<g>
					<path fill="none" stroke="#0000FF" stroke-miterlimit="10" d="M55.6,30.6c0,0-0.1,0.3-0.2,0.6c-0.1,0.3-0.3,0.6-0.3,0.6
						s0.3-0.1,0.7-0.1c0.3-0.1,0.7-0.1,0.7-0.1"/>
				</g>
				<g>
					<path fill="none" stroke="#0000FF" stroke-miterlimit="10" d="M56.6,31.8c0,0-0.2,0.3-0.3,0.6c-0.2,0.3-0.3,0.5-0.3,0.5
						s0.3,0,0.7-0.1c0.3,0,0.7,0,0.7,0"/>
				</g>
				<g>
					<path fill="none" stroke="#0000FF" stroke-miterlimit="10" d="M57.4,33c0,0-0.2,0.3-0.4,0.5S56.7,34,56.7,34s0.3,0,0.7,0
						c0.3,0,0.7,0.1,0.7,0.1"/>
				</g>
				<g>
					<path fill="none" stroke="#0000FF" stroke-miterlimit="10" d="M58.1,34.3c0,0-0.2,0.3-0.4,0.5s-0.4,0.5-0.4,0.5s0.3,0,0.7,0.1
						s0.7,0.1,0.7,0.1"/>
				</g>
				<g>
					<path fill="none" stroke="#0000FF" stroke-miterlimit="10" d="M58.7,35.6c0,0-0.2,0.2-0.5,0.4c-0.2,0.2-0.5,0.4-0.5,0.4
						s0.3,0.1,0.6,0.2c0.3,0.1,0.6,0.2,0.6,0.2"/>
				</g>
				<g>
					<path fill="none" stroke="#0000FF" stroke-miterlimit="10" d="M59.1,37c0,0-0.3,0.2-0.5,0.4c-0.3,0.2-0.5,0.4-0.5,0.4
						s0.3,0.1,0.6,0.2c0.3,0.1,0.6,0.3,0.6,0.3"/>
				</g>
				<g>
					<path fill="none" stroke="#0000FF" stroke-miterlimit="10" d="M59.4,38.5c0,0-0.3,0.2-0.6,0.3c-0.3,0.2-0.6,0.3-0.6,0.3
						s0.3,0.2,0.6,0.3c0.3,0.2,0.5,0.5,0.5,0.5"/>
				</g>
				<g>
					<path fill="none" stroke="#0000FF" stroke-miterlimit="10" d="M59.3,40.1c0,0-0.3,0.1-0.6,0.1c-0.3,0.1-0.6,0.1-0.6,0.1
						s0.2,0.3,0.4,0.5c0.2,0.3,0.4,0.5,0.4,0.5"/>
				</g>
				<g>
					<path fill="none" stroke="#0000FF" stroke-miterlimit="10" d="M58.8,41.5c0,0-0.3,0-0.6,0s-0.6,0-0.6,0s0.2,0.3,0.4,0.6
						s0.4,0.6,0.4,0.6"/>
				</g>
				<g>
					<path fill="none" stroke="#0000FF" stroke-miterlimit="10" d="M58.2,42.8c0,0-0.3,0-0.6-0.1c-0.3,0-0.6-0.1-0.6-0.1
						s0.2,0.3,0.3,0.6c0.2,0.3,0.3,0.6,0.3,0.6"/>
				</g>
				<g>
					<path fill="none" stroke="#0000FF" stroke-miterlimit="10" d="M57.5,44.1c0,0-0.3,0-0.6-0.1s-0.6-0.1-0.6-0.1s0.2,0.3,0.3,0.6
						c0.2,0.3,0.3,0.6,0.3,0.6"/>
				</g>
				<g>
					<path fill="none" stroke="#0000FF" stroke-miterlimit="10" d="M56.7,45.3l-1.2-0.2c0,0,0.2,0.3,0.3,0.6
						c0.2,0.3,0.3,0.6,0.3,0.6"/>
				</g>
				<g>
					<path fill="none" stroke="#0000FF" stroke-miterlimit="10" d="M56,46.5l-1.2-0.2c0,0,0.2,0.3,0.3,0.6s0.3,0.6,0.3,0.6"/>
				</g>
				<g>
					<path fill="none" stroke="#0000FF" stroke-miterlimit="10" d="M55.1,47.8c0,0-0.1,0-0.2-0.1c-0.2-0.1-0.3-0.1-0.4-0.2
						c-0.3-0.2-0.5-0.4-0.5-0.4v1.3"/>
				</g>
				<g>
					<polyline fill="none" stroke="#0000FF" stroke-miterlimit="10" points="53.8,48.6 52.7,47.9 52.8,49.2 					"/>
				</g>
				<g>
					<polyline fill="none" stroke="#0000FF" stroke-miterlimit="10" points="52.6,49.3 51.6,48.6 51.6,49.9 					"/>
				</g>
			</g>
		</g>
	</g>
</g>
<g id="leaf">
	<g>
		<path fill="#A8CF38" stroke="#010101" stroke-width="0.5" stroke-linecap="round" stroke-linejoin="round" d="M49.2,22
			c0,0-2.2-3.8-1.9-5.7l0.5,0.2c0,0-0.5-0.6,0.1-2.9l0.4,0.4c0,0-0.4-1.1,0.4-2.6l0.4,0.4c0,0,0.2-1,0.6-2.1l0.5,0.3
			c0,0-0.1-1.3,0.3-2.1L51,8.2c0,0,0.2-1.6,1-1.9l0.1,0.4c0,0,0.6-1,1.5-1.5L54,5.6c0,0,0-1,1.1-1.4l0.2,0.4c0,0,0.1-1.3,1.2-1.5
			l0.3,0.6c0,0,1.8-1.7,2.2-1.7l0.7,0.3c0.1,0.3,0,2.8,0,2.8l0.7-0.2c0.5,1-0.5,1.8-0.5,1.8h0.4c0.4,1.1-0.4,1.7-0.4,1.7l0.6,0.1
			c0.1,1-0.3,2.1-0.3,2.1l0.4-0.1c0.3,0.9-0.9,2-0.9,2l0.6,0.1c-0.5,0.9-1.5,1.6-1.5,1.6l0.5,0.2c-0.6,1-1.3,1.8-1.3,1.8l0.6,0.1
			c-0.7,1.5-1.9,1.9-1.9,1.9l0.6,0.1c-1.5,1.8-2.2,1.8-2.2,1.8l0.5,0.3c-1.3,1.4-5.6,1.9-5.6,1.9L49.2,22z"/>
		<path fill="#A8CF38" stroke="#010101" stroke-width="0.5" stroke-linecap="round" stroke-linejoin="round" d="M49.6,22.2
			c0,0-2.2-3.8-1.9-5.7l0.5,0.2c0,0-0.5-0.6,0.1-2.9l0.4,0.4c0,0-0.4-1.1,0.4-2.6l0.4,0.4c0,0,0.2-1,0.6-2.1l0.5,0.3
			c0,0-0.1-1.3,0.3-2.1l0.4,0.4c0,0,0.2-1.6,1-1.9L52.4,7c0,0,0.6-1,1.5-1.5l0.4,0.4c0,0,0-1,1.1-1.4l0.2,0.4c0,0,0.1-1.3,1.2-1.5
			L57.1,4c0,0,1.8-1.7,2.2-1.7L60,2.5c0.1,0.3,0,2.8,0,2.8l0.7-0.2c0.5,1-0.5,1.8-0.5,1.8h0.4C61,8,60.2,8.6,60.2,8.6l0.6,0.1
			c0.1,1-0.3,2.1-0.3,2.1l0.4-0.1c0.3,0.9-0.9,2-0.9,2l0.6,0.1c-0.5,0.9-1.5,1.6-1.5,1.6l0.5,0.2c-0.6,1-1.3,1.8-1.3,1.8l0.6,0.1
			C58.2,18,57,18.4,57,18.4l0.6,0.1c-1.5,1.8-2.2,1.8-2.2,1.8l0.5,0.3c-1.3,1.4-5.6,1.9-5.6,1.9L49.6,22.2z"/>
		
			<line fill="none" stroke="#010101" stroke-width="0.5" stroke-linecap="round" stroke-linejoin="round" x1="59.5" y1="2.5" x2="49.8" y2="22.3"/>
		<g>
			
				<line fill="none" stroke="#010101" stroke-width="0.5" stroke-linecap="round" stroke-linejoin="round" x1="57.2" y1="3.6" x2="57.6" y2="5.2"/>
			
				<line fill="none" stroke="#010101" stroke-width="0.5" stroke-linecap="round" stroke-linejoin="round" x1="55.8" y1="4.8" x2="56.7" y2="6.7"/>
			
				<line fill="none" stroke="#010101" stroke-width="0.5" stroke-linecap="round" stroke-linejoin="round" x1="54.5" y1="5.7" x2="55.8" y2="8.2"/>
			
				<line fill="none" stroke="#010101" stroke-width="0.5" stroke-linecap="round" stroke-linejoin="round" x1="52.5" y1="6.8" x2="54.6" y2="9.8"/>
			
				<line fill="none" stroke="#010101" stroke-width="0.5" stroke-linecap="round" stroke-linejoin="round" x1="51.5" y1="8.3" x2="54.1" y2="11.5"/>
			
				<line fill="none" stroke="#010101" stroke-width="0.5" stroke-linecap="round" stroke-linejoin="round" x1="50.5" y1="10.1" x2="53.1" y2="13"/>
			
				<line fill="none" stroke="#010101" stroke-width="0.5" stroke-linecap="round" stroke-linejoin="round" x1="49.5" y1="11.8" x2="51.8" y2="14.8"/>
			
				<line fill="none" stroke="#010101" stroke-width="0.5" stroke-linecap="round" stroke-linejoin="round" x1="48.7" y1="14.1" x2="51.3" y2="17.5"/>
			
				<line fill="none" stroke="#010101" stroke-width="0.5" stroke-linecap="round" stroke-linejoin="round" x1="48.2" y1="16.6" x2="50.3" y2="20.2"/>
		</g>
		<g>
			
				<line fill="none" stroke="#010101" stroke-width="0.5" stroke-linecap="round" stroke-linejoin="round" x1="60.3" y1="5.1" x2="58.8" y2="5.8"/>
			
				<line fill="none" stroke="#010101" stroke-width="0.5" stroke-linecap="round" stroke-linejoin="round" x1="60.3" y1="7" x2="58.2" y2="7.5"/>
			
				<line fill="none" stroke="#010101" stroke-width="0.5" stroke-linecap="round" stroke-linejoin="round" x1="60.3" y1="8.6" x2="57.5" y2="9.1"/>
			
				<line fill="none" stroke="#010101" stroke-width="0.5" stroke-linecap="round" stroke-linejoin="round" x1="60.7" y1="10.8" x2="57" y2="11"/>
			
				<line fill="none" stroke="#010101" stroke-width="0.5" stroke-linecap="round" stroke-linejoin="round" x1="60.1" y1="12.5" x2="56" y2="12.4"/>
			
				<line fill="none" stroke="#010101" stroke-width="0.5" stroke-linecap="round" stroke-linejoin="round" x1="59.2" y1="14.5" x2="55.3" y2="14.1"/>
			
				<line fill="none" stroke="#010101" stroke-width="0.5" stroke-linecap="round" stroke-linejoin="round" x1="58.5" y1="16.3" x2="54.7" y2="16.3"/>
			
				<line fill="none" stroke="#010101" stroke-width="0.5" stroke-linecap="round" stroke-linejoin="round" x1="57.2" y1="18.3" x2="52.9" y2="18.2"/>
			
				<line fill="none" stroke="#010101" stroke-width="0.5" stroke-linecap="round" stroke-linejoin="round" x1="55.5" y1="20.2" x2="51.4" y2="20.7"/>
		</g>
		<path fill="#FFFFFF" stroke="#010101" stroke-width="0.5" stroke-linecap="round" stroke-linejoin="round" d="M61.2,8.9
			c0,0-1.4,0.4-1.1,1.1c0,0-1.8,0.3-0.9,1.6c0,0,0.4,0.9,1.2,0.6c0,0-0.5,0.8,0.3,0.6c0.7-0.2,0.6-0.2,0.6-0.2"/>
		<path fill="#FFFFFF" stroke="#010101" stroke-width="0.5" stroke-miterlimit="10" d="M51.8,10.8c-0.1,0.3-0.3,0.6-0.4,0.9
			c0.4,0.3,0.9-0.3,1-0.6c-0.2,0.5-0.1,1.6,0.6,0.8c-0.1,0.5,0.2,0.6,0.6,0.8c-0.1,0.4-0.6,0.6-0.8,0.9c-0.2,0.2-0.2,0.5-0.4,0.7
			c-0.3-0.2-0.3-0.5-0.5-0.7c-0.2,0.1-0.6,0.8-0.8,0.7c-0.2,0-0.5-0.6-0.7-0.7c0.1-0.3,0.3-0.5,0.4-0.8c-0.1-0.1-0.1-0.1-0.1-0.1
			c0.1-0.3,0.7-2,1.1-1.6"/>
		<path fill="#FFFFFF" stroke="#010101" stroke-width="0.5" stroke-miterlimit="10" d="M56.7,7c0.4-0.4,0.5-0.9,1.1-1.2
			c0.1,0.2-0.1,0.7,0.1,0.8C58.2,6.9,58.7,6.2,59,6c-0.1,0.1-0.3,0.6-0.2,0.7c0.2,0.4,0.6,0.1,0.9,0.1c-0.2,0.5-0.6,0.9-0.9,1.4
			c-0.2,0.3-0.2,0.6-0.3,0.9c-0.6-0.2-1-0.6-1.1-1.2c-0.2,0.4-0.8,1.5-0.9,0.6c-0.1-0.6,0.4-1.2,0.5-1.7"/>
		<path fill="#FFFFFF" stroke="#010101" stroke-width="0.5" stroke-miterlimit="10" d="M56,15.2c0,0.4-0.5,0.8-0.5,1.1
			c0,0.5,0.6,0.8,1,0.8c-0.5,0.2-1,0.5-1.2,1c0.2,0.2,0.5,0.3,0.8,0.5c-0.2,0.1-1.4,0.7-0.7,0.9c-0.2,0.4-1.4-0.2-1.7-0.5
			c-0.6-0.6-0.4-1.2-0.1-1.9C54,16.1,54.9,15.1,56,15.2"/>
	</g>
</g>
<g id="water">
	<g>
		<path fill="#55C2E2" stroke="#070707" stroke-width="0.5" stroke-miterlimit="10" d="M31.7,16.8c0,0-9.1,10.5-1.1,12.9
			c0,0,6.6-0.2,3.7-7.8C34.3,22,31.8,19,31.7,16.8z"/>
		<path fill="none" stroke="#3A97AD" stroke-miterlimit="10" d="M31.1,28.9c1.3,0.6,3.4-2.6,3.3-3.8"/>
		
			<ellipse transform="matrix(0.6127 0.7903 -0.7903 0.6127 33.1615 -13.0097)" opacity="0.8" fill="#FFFFFF" enable-background="new    " cx="29.9" cy="27.3" rx="1.5" ry="1.2"/>
		<path opacity="0.8" fill="#FFFFFF" enable-background="new    " d="M29,21.5c0,0,1.2-2.9,2.6-3.7"/>
	</g>
	<g>
		<path fill="#55C2E2" stroke="#070707" stroke-width="0.5" stroke-miterlimit="10" d="M69.4,47.9c0,0-9.1,10.5-1.1,12.9
			c0,0,6.6-0.2,3.7-7.8C72,53.1,69.5,50.1,69.4,47.9z"/>
		<path fill="none" stroke="#3A97AD" stroke-miterlimit="10" d="M68.8,60.1c1.3,0.6,3.4-2.6,3.3-3.8"/>
		
			<ellipse transform="matrix(0.6127 0.7903 -0.7903 0.6127 72.3173 -30.7272)" opacity="0.8" fill="#FFFFFF" enable-background="new    " cx="67.5" cy="58.4" rx="1.5" ry="1.2"/>
		<path opacity="0.8" fill="#FFFFFF" enable-background="new    " d="M66.7,52.6c0,0,1.2-2.9,2.6-3.7"/>
	</g>
	<g>
		<path fill="#55C2E2" stroke="#070707" stroke-width="0.5" stroke-miterlimit="10" d="M69.6,81.6c0,0-5.5,6.3-0.6,7.8
			c0,0,4-0.1,2.2-4.7C71.2,84.7,69.7,83,69.6,81.6z"/>
		<path fill="none" stroke="#3A97AD" stroke-miterlimit="10" d="M69.3,88.9c0.8,0.4,2-1.6,1.9-2.3"/>
		
			<ellipse transform="matrix(0.613 0.7901 -0.7901 0.613 96.4371 -19.6777)" opacity="0.8" fill="#FFFFFF" enable-background="new    " cx="68.3" cy="88.6" rx="0.5" ry="0.4"/>
		<path opacity="0.8" fill="#FFFFFF" enable-background="new    " d="M68,84.4c0,0,0.7-1.8,1.6-2.2"/>
	</g>
	<g>
		<path fill="#55C2E2" stroke="#070707" stroke-width="0.5" stroke-miterlimit="10" d="M34.1,53.9c0,0-3.4,4-0.4,4.9
			c0,0,2.5-0.1,1.4-2.9C35.1,55.8,34.2,54.7,34.1,53.9z"/>
		<path fill="none" stroke="#3A97AD" stroke-miterlimit="10" d="M33.9,58.4c0.5,0.2,1.3-1,1.2-1.4"/>
		
			<ellipse transform="matrix(0.6123 0.7906 -0.7906 0.6123 58.5399 -3.9637)" opacity="0.8" fill="#FFFFFF" enable-background="new    " cx="33.3" cy="57.7" rx="0.3" ry="0.2"/>
		<path opacity="0.8" fill="#FFFFFF" enable-background="new    " d="M33.1,55.6c0,0,0.5-1.1,1-1.4"/>
	</g>
	<g>
		<path fill="#55C2E2" stroke="#070707" stroke-width="0.5" stroke-miterlimit="10" d="M43.9,87.6c0,0-3.4,4-0.4,4.9
			c0,0,2.5-0.1,1.4-2.9C44.9,89.5,43.9,88.4,43.9,87.6z"/>
		<path fill="none" stroke="#3A97AD" stroke-miterlimit="10" d="M43.7,92.1c0.5,0.2,1.3-1,1.2-1.4"/>
		
			<ellipse transform="matrix(0.6123 0.7906 -0.7906 0.6123 89.04 1.5115)" opacity="0.8" fill="#FFFFFF" enable-background="new    " cx="43" cy="91.5" rx="0.3" ry="0.2"/>
		<path opacity="0.8" fill="#FFFFFF" enable-background="new    " d="M42.9,89.3c0,0,0.5-1.1,1-1.4"/>
	</g>
	<g>
		<path fill="#55C2E2" stroke="#070707" stroke-width="0.5" stroke-miterlimit="10" d="M64.5,28.7c0,0-3.4,4-0.4,4.9
			c0,0,2.5-0.1,1.4-2.9C65.5,30.7,64.6,29.6,64.5,28.7z"/>
		<path fill="none" stroke="#3A97AD" stroke-miterlimit="10" d="M64.3,33.3c0.5,0.2,1.3-1,1.2-1.4"/>
		
			<ellipse transform="matrix(0.6126 0.7904 -0.7904 0.6126 50.4947 -37.7467)" opacity="0.8" fill="#FFFFFF" enable-background="new    " cx="63.8" cy="32.6" rx="0.3" ry="0.2"/>
		<path opacity="0.8" fill="#FFFFFF" enable-background="new    " d="M63.5,30.5c0,0,0.5-1.1,1-1.4"/>
	</g>
</g>
</svg>
