<?xml version="1.0" encoding="utf-8"?>
<!-- Generator: Adobe Illustrator 17.1.0, SVG Export Plug-In . SVG Version: 6.00 Build 0)  -->
<!DOCTYPE svg PUBLIC "-//W3C//DTD SVG 1.1//EN" "http://www.w3.org/Graphics/SVG/1.1/DTD/svg11.dtd">
<svg version="1.1"
	 id="svg2" sodipodi:docname="dynaHouse.svg" sodipodi:version="0.32" inkscape:output_extension="org.inkscape.output.svg.inkscape" inkscape:version="0.46" xmlns:dc="http://purl.org/dc/elements/1.1/" xmlns:cc="http://creativecommons.org/ns#" xmlns:rdf="http://www.w3.org/1999/02/22-rdf-syntax-ns#" xmlns:svg="http://www.w3.org/2000/svg" xmlns:sodipodi="http://sodipodi.sourceforge.net/DTD/sodipodi-0.dtd" xmlns:inkscape="http://www.inkscape.org/namespaces/inkscape"
	 xmlns="http://www.w3.org/2000/svg" xmlns:xlink="http://www.w3.org/1999/xlink" x="0px" y="0px" viewBox="0 0 100 100"
	 enable-background="new 0 0 100 100" xml:space="preserve">
<defs>
	
	
		<inkscape:perspective  inkscape:persp3d-origin="372.04724 : 350.78739 : 1" inkscape:vp_z="744.09448 : 526.18109 : 1" inkscape:vp_x="0 : 526.18109 : 1" inkscape:vp_y="0 : 1000 : 0" sodipodi:type="inkscape:persp3d" id="perspective10">
		</inkscape:perspective>
</defs>
<path id="house" sodipodi:nodetypes="cccccccccccccccccc" d="M85.1,50.8L85.1,50.8z M85.1,50.8L50,19.7L14.9,50.8v44.4
	c0,1.1,0.9,2.1,2.1,2.1h21.9V77.8c0-1.1,0.9-2.1,2.1-2.1h18c1.1,0,2.1,0.9,2.1,2.1v19.5H83c1.1,0,2.1-0.9,2.1-2.1
	C85.1,95.2,85.1,50.8,85.1,50.8z M14.9,50.8L14.9,50.8z"/>
<path id="roof" d="M49.8,2.7L0,46.8l5.2,5.9L50,13.1l44.8,39.6l5.2-5.9L50.2,2.7L50,2.9L49.8,2.7z"/>
<path id="chimney" sodipodi:nodetypes="ccccc" d="M14.9,9h12.6l-0.1,7.5L14.9,27.8V9z"/>
<rect id="door" x="41" y="77.2" fill="#2D3B96" width="18" height="20.1"/>
<sodipodi:namedview  inkscape:current-layer="layer1" inkscape:window-y="43" inkscape:pageopacity="0.0" inkscape:window-x="660" inkscape:window-height="954" inkscape:window-width="1006" inkscape:document-units="px" inkscape:pageshadow="2" inkscape:cx="231.94643" inkscape:cy="219.43852" gridtolerance="10000" showgrid="false" id="base" borderopacity="1.0" guidetolerance="10" bordercolor="#666666" pagecolor="#ffffff" objecttolerance="10" inkscape:zoom="1.4098083">
	</sodipodi:namedview>
</svg>
